version 1
nodes
  0 "ValveBiped.Bip01_Spine4" -1
  1 "ValveBiped.Bip01_L_Clavicle" 0
  2 "ValveBiped.Bip01_L_UpperArm" 1
  3 "ValveBiped.Bip01_L_Forearm" 2
  4 "ValveBiped.Bip01_L_Hand" 3
  5 "ValveBiped.Bip01_L_Finger4" 4
  6 "ValveBiped.Bip01_L_Finger41" 5
  7 "ValveBiped.Bip01_L_Finger42" 6
  8 "ValveBiped.Bip01_L_Finger3" 4
  9 "ValveBiped.Bip01_L_Finger31" 8
  10 "ValveBiped.Bip01_L_Finger32" 9
  11 "ValveBiped.Bip01_L_Finger2" 4
  12 "ValveBiped.Bip01_L_Finger21" 11
  13 "ValveBiped.Bip01_L_Finger22" 12
  14 "ValveBiped.Bip01_L_Finger1" 4
  15 "ValveBiped.Bip01_L_Finger11" 14
  16 "ValveBiped.Bip01_L_Finger12" 15
  17 "ValveBiped.Bip01_L_Finger0" 4
  18 "ValveBiped.Bip01_L_Finger01" 17
  19 "ValveBiped.Bip01_L_Finger02" 18
  20 "ValveBiped.Bip01_R_Clavicle" 0
  21 "ValveBiped.Bip01_R_UpperArm" 20
  22 "ValveBiped.Bip01_R_Forearm" 21
  23 "ValveBiped.Bip01_R_Hand" 22
  24 "ValveBiped.Bip01_R_Finger4" 23
  25 "ValveBiped.Bip01_R_Finger41" 24
  26 "ValveBiped.Bip01_R_Finger42" 25
  27 "ValveBiped.Bip01_R_Finger3" 23
  28 "ValveBiped.Bip01_R_Finger31" 27
  29 "ValveBiped.Bip01_R_Finger32" 28
  30 "ValveBiped.Bip01_R_Finger2" 23
  31 "ValveBiped.Bip01_R_Finger21" 30
  32 "ValveBiped.Bip01_R_Finger22" 31
  33 "ValveBiped.Bip01_R_Finger1" 23
  34 "ValveBiped.Bip01_R_Finger11" 33
  35 "ValveBiped.Bip01_R_Finger12" 34
  36 "ValveBiped.Bip01_R_Finger0" 23
  37 "ValveBiped.Bip01_R_Finger01" 36
  38 "ValveBiped.Bip01_R_Finger02" 37
  39 "Python" -1
  40 "Cylinder_release" 39
  41 "Cylinder" 40
  42 "Bullet1" 41
  43 "Bullet2" 41
  44 "Bullet3" 41
  45 "Bullet4" 41
  46 "Bullet5" 41
  47 "Bullet6" 41
end
skeleton
  time 0
    0 0.000006 0.000000 0.000000 -1.570798 -1.391899 -1.570794
    1 2.033349 1.000767 1.937660 1.596637 -1.286515 2.942961
    2 6.028141 0.000000 0.000000 -1.579613 0.047802 -0.585173
    3 11.692554 0.000001 0.000000 0.000000 0.000000 -0.060372
    4 11.481670 0.000001 -0.000031 1.573183 -0.106613 0.044193
    5 3.859711 -0.142405 -1.191975 -0.468133 0.151533 -0.880197
    6 1.312555 -0.000002 0.000000 0.000000 0.000000 -0.439720
    7 0.729363 -0.000002 -0.000002 0.000000 0.000000 -0.244299
    8 3.942337 0.046767 -0.431443 -0.151780 0.073206 -0.810985
    9 1.539097 0.000000 0.000000 0.000000 0.000000 -0.247797
    10 1.196325 -0.000002 -0.000001 0.000000 0.000000 -0.430802
    11 3.883698 -0.046765 0.431443 0.085902 0.021830 -0.587867
    12 1.719570 -0.000004 -0.000001 0.000000 0.005516 -0.366478
    13 1.209169 -0.000004 0.000000 0.000000 0.003084 -0.216400
    14 3.859863 -0.137946 1.332466 0.354449 -0.042750 -0.531718
    15 1.719431 0.000002 0.000000 0.000000 0.004074 -0.363009
    16 1.099667 0.000000 -0.000001 0.000000 0.002596 -0.244331
    17 0.806053 -0.348926 1.321258 -1.222677 -0.679213 -0.788819
    18 1.789778 -0.000002 0.000002 0.000000 0.000000 0.228523
    19 1.207005 0.000000 0.000002 0.000000 0.000000 0.362860
    20 2.033356 1.000772 -1.937610 -1.668474 1.286518 2.942953
    21 6.028145 0.000000 0.000000 1.639479 -0.008065 -0.586846
    22 11.692554 0.000001 0.000002 0.000000 0.000000 -0.060372
    23 11.481699 0.000001 0.000001 -1.564937 0.106606 0.044193
    24 3.859680 -0.132567 1.193109 0.466236 -0.158066 -0.878825
    25 1.312555 -0.000002 0.000002 0.000000 0.000000 -0.439672
    26 0.729365 0.000000 -0.000001 0.000000 0.000000 -0.244271
    27 3.942307 0.050327 0.431044 0.150078 -0.079191 -0.810205
    28 1.539099 -0.000002 0.000000 0.000000 0.000000 -0.247771
    29 1.196321 0.000010 0.000000 0.000000 0.000000 -0.430761
    30 3.883659 -0.050321 -0.431042 -0.085905 -0.026404 -0.587695
    31 1.719578 0.000002 0.000000 0.000000 -0.007974 -0.366437
    32 1.209185 0.000002 0.000000 0.000000 -0.004461 -0.216376
    33 3.859840 -0.148937 -1.331282 -0.354419 0.038567 -0.532001
    34 1.719421 0.000002 0.000000 0.000000 -0.006613 -0.362970
    35 1.099669 0.000002 -0.000001 0.000000 -0.004211 -0.244312
    36 0.806023 -0.359837 -1.318334 1.221410 0.673635 -0.793558
    37 1.789782 0.000000 -0.000004 0.000000 0.000000 0.228555
    38 1.206999 0.000002 0.000000 0.000000 0.000000 0.362905
    39 -5.648674 -26.343084 62.296627 1.561871 0.018340 0.003619
    40 0.025545 -1.273521 1.753304 0.000000 0.000000 0.000000
    41 0.001032 1.440453 -1.526783 0.000000 0.000000 0.000000
    42 0.004413 0.696487 -1.430595 0.000000 0.000000 0.000000
    43 0.580660 0.349014 -1.430595 0.000000 0.000000 0.000000
    44 0.583444 -0.305904 -1.430599 0.000000 0.000000 0.000000
    45 0.005318 -0.648720 -1.430599 0.000000 0.000000 0.000000
    46 -0.574618 -0.303123 -1.430601 0.000000 0.000000 0.000000
    47 -0.573714 0.348118 -1.430595 0.000000 0.000000 0.000000
end
triangles
357_sheet
  43 -5.335029 -25.147491 62.794422 -0.888013 0.459818 -0.000006 0.669432 0.608452 1 43 1.000000
  43 -5.312243 -25.147491 62.908989 -0.561656 0.793990 0.232643 0.665353 0.628959 1 43 1.000000
  43 -5.312243 -25.147491 62.679863 -0.442732 0.877700 -0.183387 0.665353 0.587946 1 43 1.000000
357_sheet
  43 -5.312243 -25.147491 62.908989 -0.561656 0.793990 0.232643 0.665353 0.628959 1 43 1.000000
  43 -5.247347 -25.147491 63.006107 -0.489308 0.721922 0.489292 0.653737 0.646343 1 43 1.000000
  43 -5.312243 -25.147491 62.679863 -0.442732 0.877700 -0.183387 0.665353 0.587946 1 43 1.000000
357_sheet
  43 -5.312243 -25.147491 62.679863 -0.442732 0.877700 -0.183387 0.665353 0.587946 1 43 1.000000
  43 -5.247347 -25.147491 63.006107 -0.489308 0.721922 0.489292 0.653737 0.646343 1 43 1.000000
  43 -5.247347 -25.147491 62.582741 -0.489293 0.721923 -0.489304 0.653737 0.570562 1 43 1.000000
357_sheet
  43 -5.247347 -25.147491 63.006107 -0.489308 0.721922 0.489292 0.653737 0.646343 1 43 1.000000
  43 -5.150226 -25.147491 63.071011 -0.183385 0.877702 0.442730 0.636353 0.657960 1 43 1.000000
  43 -5.247347 -25.147491 62.582741 -0.489293 0.721923 -0.489304 0.653737 0.570562 1 43 1.000000
357_sheet
  43 -5.247347 -25.147491 62.582741 -0.489293 0.721923 -0.489304 0.653737 0.570562 1 43 1.000000
  43 -5.150226 -25.147491 63.071011 -0.183385 0.877702 0.442730 0.636353 0.657960 1 43 1.000000
  43 -5.150226 -25.147491 62.517849 -0.183389 0.877700 -0.442732 0.636353 0.558945 1 43 1.000000
357_sheet
  43 -5.150226 -25.147491 63.071011 -0.183385 0.877702 0.442730 0.636353 0.657960 1 43 1.000000
  43 -5.035663 -25.147491 63.093792 0.000000 0.721917 0.691980 0.615846 0.662038 1 43 1.000000
  43 -5.150226 -25.147491 62.517849 -0.183389 0.877700 -0.442732 0.636353 0.558945 1 43 1.000000
357_sheet
  43 -5.150226 -25.147491 62.517849 -0.183389 0.877700 -0.442732 0.636353 0.558945 1 43 1.000000
  43 -5.035663 -25.147491 63.093792 0.000000 0.721917 0.691980 0.615846 0.662038 1 43 1.000000
  43 -5.035663 -25.147491 62.495060 0.000000 0.721920 -0.691976 0.615846 0.554866 1 43 1.000000
357_sheet
  43 -5.035663 -25.147491 63.093792 0.000000 0.721917 0.691980 0.615846 0.662038 1 43 1.000000
  43 -4.921100 -25.147491 63.071011 0.183380 0.877701 0.442733 0.595339 0.657960 1 43 1.000000
  43 -5.035663 -25.147491 62.495060 0.000000 0.721920 -0.691976 0.615846 0.554866 1 43 1.000000
357_sheet
  43 -5.035663 -25.147491 62.495060 0.000000 0.721920 -0.691976 0.615846 0.554866 1 43 1.000000
  43 -4.921100 -25.147491 63.071011 0.183380 0.877701 0.442733 0.595339 0.657960 1 43 1.000000
  43 -4.921100 -25.147491 62.517849 0.183395 0.877700 -0.442729 0.595339 0.558945 1 43 1.000000
357_sheet
  43 -4.921100 -25.147491 63.071011 0.183380 0.877701 0.442733 0.595339 0.657960 1 43 1.000000
  43 -4.823977 -25.147491 63.006111 0.489300 0.721923 0.489298 0.577955 0.646343 1 43 1.000000
  43 -4.921100 -25.147491 62.517849 0.183395 0.877700 -0.442729 0.595339 0.558945 1 43 1.000000
357_sheet
  43 -4.921100 -25.147491 62.517849 0.183395 0.877700 -0.442729 0.595339 0.558945 1 43 1.000000
  43 -4.823977 -25.147491 63.006111 0.489300 0.721923 0.489298 0.577955 0.646343 1 43 1.000000
  43 -4.823977 -25.147491 62.582748 0.489295 0.721932 -0.489290 0.577955 0.570562 1 43 1.000000
357_sheet
  43 -4.823977 -25.147491 63.006111 0.489300 0.721923 0.489298 0.577955 0.646343 1 43 1.000000
  43 -4.759081 -25.147491 62.908993 0.442732 0.877701 0.183384 0.566339 0.628959 1 43 1.000000
  43 -4.823977 -25.147491 62.582748 0.489295 0.721932 -0.489290 0.577955 0.570562 1 43 1.000000
357_sheet
  43 -4.823977 -25.147491 62.582748 0.489295 0.721932 -0.489290 0.577955 0.570562 1 43 1.000000
  43 -4.759081 -25.147491 62.908993 0.442732 0.877701 0.183384 0.566339 0.628959 1 43 1.000000
  43 -4.759081 -25.147491 62.679867 0.561654 0.793990 -0.232647 0.566339 0.587946 1 43 1.000000
357_sheet
  43 -4.759081 -25.147491 62.908993 0.442732 0.877701 0.183384 0.566339 0.628959 1 43 1.000000
  43 -4.736297 -25.147491 62.794426 0.888013 0.459818 -0.000006 0.562260 0.608452 1 43 1.000000
  43 -4.759081 -25.147491 62.679867 0.561654 0.793990 -0.232647 0.566339 0.587946 1 43 1.000000
357_sheet
  43 -5.216152 -25.283108 62.613937 -0.575608 0.580789 -0.575638 0.437988 0.437361 1 43 1.000000
  43 -5.326801 -25.367029 62.673832 -0.879587 0.305898 -0.364353 0.440918 0.434575 1 43 1.000000
  43 -5.271483 -25.283108 62.696743 -0.752086 0.580788 -0.311531 0.437988 0.434575 1 43 1.000000
357_sheet
  43 -5.271483 -25.283108 62.696743 -0.752086 0.580788 -0.311531 0.437988 0.434575 1 43 1.000000
  43 -5.326801 -25.367029 62.673832 -0.879587 0.305898 -0.364353 0.440918 0.434575 1 43 1.000000
  43 -5.290912 -25.283108 62.794422 -0.814052 0.580793 -0.000006 0.437988 0.431789 1 43 1.000000
357_sheet
  43 -5.326801 -25.367029 62.673832 -0.879587 0.305898 -0.364353 0.440918 0.434575 1 43 1.000000
  43 -5.350788 -25.367029 62.794422 -0.952062 0.305905 -0.000006 0.440918 0.431789 1 43 1.000000
  43 -5.290912 -25.283108 62.794422 -0.814052 0.580793 -0.000006 0.437988 0.431789 1 43 1.000000
357_sheet
  43 -5.326801 -25.367029 62.673832 -0.879587 0.305898 -0.364353 0.440918 0.434575 1 43 1.000000
  43 -5.350788 -26.774014 62.794426 -1.000000 0.000000 -0.000003 0.479980 0.431789 1 43 1.000000
  43 -5.350788 -25.367029 62.794422 -0.952062 0.305905 -0.000006 0.440918 0.431789 1 43 1.000000
357_sheet
  43 -5.326801 -25.367029 62.673832 -0.879587 0.305898 -0.364353 0.440918 0.434575 1 43 1.000000
  43 -5.326799 -26.774014 62.673832 -0.923873 0.000000 -0.382698 0.479980 0.434575 1 43 1.000000
  43 -5.350788 -26.774014 62.794426 -1.000000 0.000000 -0.000003 0.479980 0.431789 1 43 1.000000
357_sheet
  43 -5.258485 -26.774014 62.571602 -0.707098 -0.000001 -0.707116 0.479980 0.437361 1 43 1.000000
  43 -5.326799 -26.774014 62.673832 -0.923873 0.000000 -0.382698 0.479980 0.434575 1 43 1.000000
  43 -5.326801 -25.367029 62.673832 -0.879587 0.305898 -0.364353 0.440918 0.434575 1 43 1.000000
357_sheet
  43 -5.258487 -25.367029 62.571602 -0.673204 0.305889 -0.673222 0.440918 0.437361 1 43 1.000000
  43 -5.258485 -26.774014 62.571602 -0.707098 -0.000001 -0.707116 0.479980 0.437361 1 43 1.000000
  43 -5.326801 -25.367029 62.673832 -0.879587 0.305898 -0.364353 0.440918 0.434575 1 43 1.000000
357_sheet
  43 -5.216152 -25.283108 62.613937 -0.575608 0.580789 -0.575638 0.437988 0.437361 1 43 1.000000
  43 -5.258487 -25.367029 62.571602 -0.673204 0.305889 -0.673222 0.440918 0.437361 1 43 1.000000
  43 -5.326801 -25.367029 62.673832 -0.879587 0.305898 -0.364353 0.440918 0.434575 1 43 1.000000
357_sheet
  43 -5.156257 -25.367029 62.503292 -0.364337 0.305908 -0.879590 0.440918 0.440147 1 43 1.000000
  43 -5.258487 -25.367029 62.571602 -0.673204 0.305889 -0.673222 0.440918 0.437361 1 43 1.000000
  43 -5.216152 -25.283108 62.613937 -0.575608 0.580789 -0.575638 0.437988 0.437361 1 43 1.000000
357_sheet
  43 -5.133341 -25.283108 62.558613 -0.311504 0.580819 -0.752073 0.437988 0.440147 1 43 1.000000
  43 -5.156257 -25.367029 62.503292 -0.364337 0.305908 -0.879590 0.440918 0.440147 1 43 1.000000
  43 -5.216152 -25.283108 62.613937 -0.575608 0.580789 -0.575638 0.437988 0.437361 1 43 1.000000
357_sheet
  43 -5.035663 -25.283108 62.539181 0.000000 0.580811 -0.814039 0.437988 0.442933 1 43 1.000000
  43 -5.156257 -25.367029 62.503292 -0.364337 0.305908 -0.879590 0.440918 0.440147 1 43 1.000000
  43 -5.133341 -25.283108 62.558613 -0.311504 0.580819 -0.752073 0.437988 0.440147 1 43 1.000000
357_sheet
  43 -5.035663 -25.283108 62.539181 0.000000 0.580811 -0.814039 0.437988 0.442933 1 43 1.000000
  43 -5.035663 -25.367029 62.479305 0.000000 0.305905 -0.952062 0.440918 0.442933 1 43 1.000000
  43 -5.156257 -25.367029 62.503292 -0.364337 0.305908 -0.879590 0.440918 0.440147 1 43 1.000000
357_sheet
  43 -5.035663 -25.367029 62.479305 0.000000 0.305905 -0.952062 0.440918 0.442933 1 43 1.000000
  43 -5.035663 -26.774014 62.479305 0.000000 0.000000 -1.000000 0.479980 0.442933 1 43 1.000000
  43 -5.156257 -25.367029 62.503292 -0.364337 0.305908 -0.879590 0.440918 0.440147 1 43 1.000000
357_sheet
  43 -4.915069 -25.367029 62.503292 0.364343 0.305911 -0.879587 0.440918 0.445719 1 43 1.000000
  43 -5.035663 -26.774014 62.479305 0.000000 0.000000 -1.000000 0.479980 0.442933 1 43 1.000000
  43 -5.035663 -25.367029 62.479305 0.000000 0.305905 -0.952062 0.440918 0.442933 1 43 1.000000
357_sheet
  43 -4.915069 -25.367029 62.503292 0.364343 0.305911 -0.879587 0.440918 0.445719 1 43 1.000000
  43 -4.915069 -26.774014 62.503288 0.382690 0.000000 -0.923877 0.479980 0.445719 1 43 1.000000
  43 -5.035663 -26.774014 62.479305 0.000000 0.000000 -1.000000 0.479980 0.442933 1 43 1.000000
357_sheet
  43 -4.812833 -26.774014 62.571606 0.707110 0.000000 -0.707104 0.479980 0.448505 1 43 1.000000
  43 -4.915069 -26.774014 62.503288 0.382690 0.000000 -0.923877 0.479980 0.445719 1 43 1.000000
  43 -4.915069 -25.367029 62.503292 0.364343 0.305911 -0.879587 0.440918 0.445719 1 43 1.000000
357_sheet
  43 -4.812835 -25.367029 62.571606 0.673213 0.305900 -0.673208 0.440918 0.448505 1 43 1.000000
  43 -4.812833 -26.774014 62.571606 0.707110 0.000000 -0.707104 0.479980 0.448505 1 43 1.000000
  43 -4.915069 -25.367029 62.503292 0.364343 0.305911 -0.879587 0.440918 0.445719 1 43 1.000000
357_sheet
  43 -4.855175 -25.283108 62.613941 0.575613 0.580797 -0.575625 0.437988 0.448505 1 43 1.000000
  43 -4.812835 -25.367029 62.571606 0.673213 0.305900 -0.673208 0.440918 0.448505 1 43 1.000000
  43 -4.915069 -25.367029 62.503292 0.364343 0.305911 -0.879587 0.440918 0.445719 1 43 1.000000
357_sheet
  43 -4.744525 -25.367029 62.673836 0.879589 0.305902 -0.364344 0.440918 0.451291 1 43 1.000000
  43 -4.812835 -25.367029 62.571606 0.673213 0.305900 -0.673208 0.440918 0.448505 1 43 1.000000
  43 -4.855175 -25.283108 62.613941 0.575613 0.580797 -0.575625 0.437988 0.448505 1 43 1.000000
357_sheet
  43 -5.156257 -25.367029 62.503292 -0.364337 0.305908 -0.879590 0.440918 0.440147 1 43 1.000000
  43 -5.258485 -26.774014 62.571602 -0.707098 -0.000001 -0.707116 0.479980 0.437361 1 43 1.000000
  43 -5.258487 -25.367029 62.571602 -0.673204 0.305889 -0.673222 0.440918 0.437361 1 43 1.000000
357_sheet
  43 -5.156257 -25.367029 62.503292 -0.364337 0.305908 -0.879590 0.440918 0.440147 1 43 1.000000
  43 -5.156256 -26.774014 62.503292 -0.382686 0.000000 -0.923878 0.479980 0.440147 1 43 1.000000
  43 -5.258485 -26.774014 62.571602 -0.707098 -0.000001 -0.707116 0.479980 0.437361 1 43 1.000000
357_sheet
  43 -5.035663 -26.774014 62.479305 0.000000 0.000000 -1.000000 0.479980 0.442933 1 43 1.000000
  43 -5.156256 -26.774014 62.503292 -0.382686 0.000000 -0.923878 0.479980 0.440147 1 43 1.000000
  43 -5.156257 -25.367029 62.503292 -0.364337 0.305908 -0.879590 0.440918 0.440147 1 43 1.000000
357_sheet
  43 -4.855175 -25.283108 62.613941 0.575613 0.580797 -0.575625 0.437988 0.448505 1 43 1.000000
  43 -4.915069 -25.367029 62.503292 0.364343 0.305911 -0.879587 0.440918 0.445719 1 43 1.000000
  43 -4.937984 -25.283108 62.558613 0.311516 0.580820 -0.752068 0.437988 0.445719 1 43 1.000000
357_sheet
  43 -4.937984 -25.283108 62.558613 0.311516 0.580820 -0.752068 0.437988 0.445719 1 43 1.000000
  43 -4.915069 -25.367029 62.503292 0.364343 0.305911 -0.879587 0.440918 0.445719 1 43 1.000000
  43 -5.035663 -25.283108 62.539181 0.000000 0.580811 -0.814039 0.437988 0.442933 1 43 1.000000
357_sheet
  43 -4.915069 -25.367029 62.503292 0.364343 0.305911 -0.879587 0.440918 0.445719 1 43 1.000000
  43 -5.035663 -25.367029 62.479305 0.000000 0.305905 -0.952062 0.440918 0.442933 1 43 1.000000
  43 -5.035663 -25.283108 62.539181 0.000000 0.580811 -0.814039 0.437988 0.442933 1 43 1.000000
357_sheet
  43 -4.720538 -26.774014 62.794430 1.000000 0.000000 -0.000003 0.479980 0.454078 1 43 1.000000
  43 -4.744524 -26.774014 62.673836 0.923878 0.000000 -0.382686 0.479980 0.451291 1 43 1.000000
  43 -4.744525 -25.367029 62.673836 0.879589 0.305902 -0.364344 0.440918 0.451291 1 43 1.000000
357_sheet
  43 -4.744525 -25.367029 62.673836 0.879589 0.305902 -0.364344 0.440918 0.451291 1 43 1.000000
  43 -4.744524 -26.774014 62.673836 0.923878 0.000000 -0.382686 0.479980 0.451291 1 43 1.000000
  43 -4.812833 -26.774014 62.571606 0.707110 0.000000 -0.707104 0.479980 0.448505 1 43 1.000000
357_sheet
  43 -4.744525 -25.367029 62.673836 0.879589 0.305902 -0.364344 0.440918 0.451291 1 43 1.000000
  43 -4.812833 -26.774014 62.571606 0.707110 0.000000 -0.707104 0.479980 0.448505 1 43 1.000000
  43 -4.812835 -25.367029 62.571606 0.673213 0.305900 -0.673208 0.440918 0.448505 1 43 1.000000
357_sheet
  43 -4.799841 -25.283108 62.696747 0.752086 0.580788 -0.311531 0.437988 0.451291 1 43 1.000000
  43 -4.744525 -25.367029 62.673836 0.879589 0.305902 -0.364344 0.440918 0.451291 1 43 1.000000
  43 -4.855175 -25.283108 62.613941 0.575613 0.580797 -0.575625 0.437988 0.448505 1 43 1.000000
357_sheet
  43 -4.780414 -25.283108 62.794426 0.814051 0.580793 -0.000006 0.437988 0.454078 1 43 1.000000
  43 -4.744525 -25.367029 62.673836 0.879589 0.305902 -0.364344 0.440918 0.451291 1 43 1.000000
  43 -4.799841 -25.283108 62.696747 0.752086 0.580788 -0.311531 0.437988 0.451291 1 43 1.000000
357_sheet
  43 -4.780414 -25.283108 62.794426 0.814051 0.580793 -0.000006 0.437988 0.454078 1 43 1.000000
  43 -4.720539 -25.367029 62.794426 0.952062 0.305905 -0.000006 0.440918 0.454078 1 43 1.000000
  43 -4.744525 -25.367029 62.673836 0.879589 0.305902 -0.364344 0.440918 0.451291 1 43 1.000000
357_sheet
  43 -4.720539 -25.367029 62.794426 0.952062 0.305905 -0.000006 0.440918 0.454078 1 43 1.000000
  43 -4.720538 -26.774014 62.794430 1.000000 0.000000 -0.000003 0.479980 0.454078 1 43 1.000000
  43 -4.744525 -25.367029 62.673836 0.879589 0.305902 -0.364344 0.440918 0.451291 1 43 1.000000
357_sheet
  43 -4.744525 -25.367029 62.915024 0.879588 0.305900 0.364349 0.440918 0.456864 1 43 1.000000
  43 -4.720538 -26.774014 62.794430 1.000000 0.000000 -0.000003 0.479980 0.454078 1 43 1.000000
  43 -4.720539 -25.367029 62.794426 0.952062 0.305905 -0.000006 0.440918 0.454078 1 43 1.000000
357_sheet
  43 -4.744525 -25.367029 62.915024 0.879588 0.305900 0.364349 0.440918 0.456864 1 43 1.000000
  43 -4.744524 -26.774014 62.915024 0.923873 0.000000 0.382698 0.479980 0.456864 1 43 1.000000
  43 -4.720538 -26.774014 62.794430 1.000000 0.000000 -0.000003 0.479980 0.454078 1 43 1.000000
357_sheet
  43 -4.812839 -26.774014 63.017254 0.707107 0.000001 0.707107 0.479980 0.459650 1 43 1.000000
  43 -4.744524 -26.774014 62.915024 0.923873 0.000000 0.382698 0.479980 0.456864 1 43 1.000000
  43 -4.744525 -25.367029 62.915024 0.879588 0.305900 0.364349 0.440918 0.456864 1 43 1.000000
357_sheet
  43 -4.812839 -25.367029 63.017254 0.673213 0.305890 0.673213 0.440918 0.459650 1 43 1.000000
  43 -4.812839 -26.774014 63.017254 0.707107 0.000001 0.707107 0.479980 0.459650 1 43 1.000000
  43 -4.744525 -25.367029 62.915024 0.879588 0.305900 0.364349 0.440918 0.456864 1 43 1.000000
357_sheet
  43 -4.915069 -25.367029 63.085567 0.364320 0.305911 0.879596 0.440918 0.462436 1 43 1.000000
  43 -4.812839 -26.774014 63.017254 0.707107 0.000001 0.707107 0.479980 0.459650 1 43 1.000000
  43 -4.812839 -25.367029 63.017254 0.673213 0.305890 0.673213 0.440918 0.459650 1 43 1.000000
357_sheet
  43 -4.915069 -25.367029 63.085567 0.364320 0.305911 0.879596 0.440918 0.462436 1 43 1.000000
  43 -4.812839 -25.367029 63.017254 0.673213 0.305890 0.673213 0.440918 0.459650 1 43 1.000000
  43 -4.855175 -25.283108 62.974918 0.575617 0.580788 0.575630 0.437988 0.459650 1 43 1.000000
357_sheet
  43 -4.937984 -25.283108 63.030247 0.311487 0.580821 0.752079 0.437988 0.462436 1 43 1.000000
  43 -4.915069 -25.367029 63.085567 0.364320 0.305911 0.879596 0.440918 0.462436 1 43 1.000000
  43 -4.855175 -25.283108 62.974918 0.575617 0.580788 0.575630 0.437988 0.459650 1 43 1.000000
357_sheet
  43 -5.035663 -25.283108 63.049671 0.000000 0.580806 0.814042 0.437988 0.465222 1 43 1.000000
  43 -4.915069 -25.367029 63.085567 0.364320 0.305911 0.879596 0.440918 0.462436 1 43 1.000000
  43 -4.937984 -25.283108 63.030247 0.311487 0.580821 0.752079 0.437988 0.462436 1 43 1.000000
357_sheet
  43 -5.035663 -25.283108 63.049671 0.000000 0.580806 0.814042 0.437988 0.465222 1 43 1.000000
  43 -5.035663 -25.367029 63.109547 0.000000 0.305905 0.952062 0.440918 0.465222 1 43 1.000000
  43 -4.915069 -25.367029 63.085567 0.364320 0.305911 0.879596 0.440918 0.462436 1 43 1.000000
357_sheet
  43 -5.156257 -25.367029 63.085567 -0.364332 0.305912 0.879591 0.440918 0.468008 1 43 1.000000
  43 -5.035663 -25.367029 63.109547 0.000000 0.305905 0.952062 0.440918 0.465222 1 43 1.000000
  43 -5.035663 -25.283108 63.049671 0.000000 0.580806 0.814042 0.437988 0.465222 1 43 1.000000
357_sheet
  43 -5.156257 -25.367029 63.085567 -0.364332 0.305912 0.879591 0.440918 0.468008 1 43 1.000000
  43 -5.035663 -26.774014 63.109547 0.000000 0.000000 1.000000 0.479980 0.465222 1 43 1.000000
  43 -5.035663 -25.367029 63.109547 0.000000 0.305905 0.952062 0.440918 0.465222 1 43 1.000000
357_sheet
  43 -5.156257 -25.367029 63.085567 -0.364332 0.305912 0.879591 0.440918 0.468008 1 43 1.000000
  43 -5.156256 -26.774014 63.085567 -0.382682 0.000000 0.923880 0.479980 0.468008 1 43 1.000000
  43 -5.035663 -26.774014 63.109547 0.000000 0.000000 1.000000 0.479980 0.465222 1 43 1.000000
357_sheet
  43 -5.258485 -26.774014 63.017250 -0.707116 0.000000 0.707098 0.479980 0.470794 1 43 1.000000
  43 -5.156256 -26.774014 63.085567 -0.382682 0.000000 0.923880 0.479980 0.468008 1 43 1.000000
  43 -5.156257 -25.367029 63.085567 -0.364332 0.305912 0.879591 0.440918 0.468008 1 43 1.000000
357_sheet
  43 -5.258487 -25.367029 63.017250 -0.673222 0.305889 0.673204 0.440918 0.470794 1 43 1.000000
  43 -5.258485 -26.774014 63.017250 -0.707116 0.000000 0.707098 0.479980 0.470794 1 43 1.000000
  43 -5.156257 -25.367029 63.085567 -0.364332 0.305912 0.879591 0.440918 0.468008 1 43 1.000000
357_sheet
  43 -5.035663 -25.367029 63.109547 0.000000 0.305905 0.952062 0.440918 0.465222 1 43 1.000000
  43 -5.035663 -26.774014 63.109547 0.000000 0.000000 1.000000 0.479980 0.465222 1 43 1.000000
  43 -4.915069 -25.367029 63.085567 0.364320 0.305911 0.879596 0.440918 0.462436 1 43 1.000000
357_sheet
  43 -5.035663 -26.774014 63.109547 0.000000 0.000000 1.000000 0.479980 0.465222 1 43 1.000000
  43 -4.915069 -26.774014 63.085567 0.382670 0.000000 0.923885 0.479980 0.462436 1 43 1.000000
  43 -4.915069 -25.367029 63.085567 0.364320 0.305911 0.879596 0.440918 0.462436 1 43 1.000000
357_sheet
  43 -4.915069 -25.367029 63.085567 0.364320 0.305911 0.879596 0.440918 0.462436 1 43 1.000000
  43 -4.915069 -26.774014 63.085567 0.382670 0.000000 0.923885 0.479980 0.462436 1 43 1.000000
  43 -4.812839 -26.774014 63.017254 0.707107 0.000001 0.707107 0.479980 0.459650 1 43 1.000000
357_sheet
  43 -4.744525 -25.367029 62.915024 0.879588 0.305900 0.364349 0.440918 0.456864 1 43 1.000000
  43 -4.720539 -25.367029 62.794426 0.952062 0.305905 -0.000006 0.440918 0.454078 1 43 1.000000
  43 -4.780414 -25.283108 62.794426 0.814051 0.580793 -0.000006 0.437988 0.454078 1 43 1.000000
357_sheet
  43 -4.799841 -25.283108 62.892113 0.752088 0.580789 0.311525 0.437988 0.456864 1 43 1.000000
  43 -4.744525 -25.367029 62.915024 0.879588 0.305900 0.364349 0.440918 0.456864 1 43 1.000000
  43 -4.780414 -25.283108 62.794426 0.814051 0.580793 -0.000006 0.437988 0.454078 1 43 1.000000
357_sheet
  43 -4.855175 -25.283108 62.974918 0.575617 0.580788 0.575630 0.437988 0.459650 1 43 1.000000
  43 -4.744525 -25.367029 62.915024 0.879588 0.305900 0.364349 0.440918 0.456864 1 43 1.000000
  43 -4.799841 -25.283108 62.892113 0.752088 0.580789 0.311525 0.437988 0.456864 1 43 1.000000
357_sheet
  43 -4.855175 -25.283108 62.974918 0.575617 0.580788 0.575630 0.437988 0.459650 1 43 1.000000
  43 -4.812839 -25.367029 63.017254 0.673213 0.305890 0.673213 0.440918 0.459650 1 43 1.000000
  43 -4.744525 -25.367029 62.915024 0.879588 0.305900 0.364349 0.440918 0.456864 1 43 1.000000
357_sheet
  43 -5.133341 -25.283108 63.030247 -0.311499 0.580820 0.752074 0.437988 0.468008 1 43 1.000000
  43 -5.156257 -25.367029 63.085567 -0.364332 0.305912 0.879591 0.440918 0.468008 1 43 1.000000
  43 -5.035663 -25.283108 63.049671 0.000000 0.580806 0.814042 0.437988 0.465222 1 43 1.000000
357_sheet
  43 -5.216152 -25.283108 62.974915 -0.575626 0.580787 0.575623 0.437988 0.470794 1 43 1.000000
  43 -5.156257 -25.367029 63.085567 -0.364332 0.305912 0.879591 0.440918 0.468008 1 43 1.000000
  43 -5.133341 -25.283108 63.030247 -0.311499 0.580820 0.752074 0.437988 0.468008 1 43 1.000000
357_sheet
  43 -5.216152 -25.283108 62.974915 -0.575626 0.580787 0.575623 0.437988 0.470794 1 43 1.000000
  43 -5.258487 -25.367029 63.017250 -0.673222 0.305889 0.673204 0.440918 0.470794 1 43 1.000000
  43 -5.156257 -25.367029 63.085567 -0.364332 0.305912 0.879591 0.440918 0.468008 1 43 1.000000
357_sheet
  43 -5.326800 -25.367029 62.915020 -0.879588 0.305900 0.364349 0.440918 0.473580 1 43 1.000000
  43 -5.258485 -26.774014 63.017250 -0.707116 0.000000 0.707098 0.479980 0.470794 1 43 1.000000
  43 -5.258487 -25.367029 63.017250 -0.673222 0.305889 0.673204 0.440918 0.470794 1 43 1.000000
357_sheet
  43 -5.326800 -25.367029 62.915020 -0.879588 0.305900 0.364349 0.440918 0.473580 1 43 1.000000
  43 -5.258487 -25.367029 63.017250 -0.673222 0.305889 0.673204 0.440918 0.470794 1 43 1.000000
  43 -5.216152 -25.283108 62.974915 -0.575626 0.580787 0.575623 0.437988 0.470794 1 43 1.000000
357_sheet
  43 -5.271483 -25.283108 62.892109 -0.752089 0.580788 0.311525 0.437988 0.473580 1 43 1.000000
  43 -5.326800 -25.367029 62.915020 -0.879588 0.305900 0.364349 0.440918 0.473580 1 43 1.000000
  43 -5.216152 -25.283108 62.974915 -0.575626 0.580787 0.575623 0.437988 0.470794 1 43 1.000000
357_sheet
  43 -5.290912 -25.283108 62.794422 -0.814052 0.580793 -0.000006 0.437988 0.476366 1 43 1.000000
  43 -5.326800 -25.367029 62.915020 -0.879588 0.305900 0.364349 0.440918 0.473580 1 43 1.000000
  43 -5.271483 -25.283108 62.892109 -0.752089 0.580788 0.311525 0.437988 0.473580 1 43 1.000000
357_sheet
  43 -5.290912 -25.283108 62.794422 -0.814052 0.580793 -0.000006 0.437988 0.476366 1 43 1.000000
  43 -5.350788 -25.367029 62.794422 -0.952062 0.305905 -0.000006 0.440918 0.476366 1 43 1.000000
  43 -5.326800 -25.367029 62.915020 -0.879588 0.305900 0.364349 0.440918 0.473580 1 43 1.000000
357_sheet
  43 -5.350788 -25.367029 62.794422 -0.952062 0.305905 -0.000006 0.440918 0.476366 1 43 1.000000
  43 -5.350788 -26.774014 62.794426 -1.000000 0.000000 -0.000003 0.479980 0.476366 1 43 1.000000
  43 -5.326800 -25.367029 62.915020 -0.879588 0.305900 0.364349 0.440918 0.473580 1 43 1.000000
357_sheet
  43 -5.350788 -26.774014 62.794426 -1.000000 0.000000 -0.000003 0.479980 0.476366 1 43 1.000000
  43 -5.326799 -26.774014 62.915020 -0.923873 0.000000 0.382698 0.479980 0.473580 1 43 1.000000
  43 -5.326800 -25.367029 62.915020 -0.879588 0.305900 0.364349 0.440918 0.473580 1 43 1.000000
357_sheet
  43 -5.326800 -25.367029 62.915020 -0.879588 0.305900 0.364349 0.440918 0.473580 1 43 1.000000
  43 -5.326799 -26.774014 62.915020 -0.923873 0.000000 0.382698 0.479980 0.473580 1 43 1.000000
  43 -5.258485 -26.774014 63.017250 -0.707116 0.000000 0.707098 0.479980 0.470794 1 43 1.000000
357_sheet
  43 -5.326800 -25.209272 62.915020 -0.902123 -0.215729 0.373678 0.435547 0.473580 1 43 1.000000
  43 -5.216152 -25.283108 62.974915 -0.549225 -0.629847 0.549222 0.437988 0.470794 1 43 1.000000
  43 -5.258487 -25.209272 63.017250 -0.690466 -0.215728 0.690448 0.435547 0.470794 1 43 1.000000
357_sheet
  43 -5.326800 -25.209272 62.915020 -0.902123 -0.215729 0.373678 0.435547 0.473580 1 43 1.000000
  43 -5.271483 -25.283108 62.892109 -0.717593 -0.629849 0.297237 0.437988 0.473580 1 43 1.000000
  43 -5.216152 -25.283108 62.974915 -0.549225 -0.629847 0.549222 0.437988 0.470794 1 43 1.000000
357_sheet
  43 -5.290912 -25.283108 62.794422 -0.776714 -0.629853 -0.000005 0.437988 0.476366 1 43 1.000000
  43 -5.271483 -25.283108 62.892109 -0.717593 -0.629849 0.297237 0.437988 0.473580 1 43 1.000000
  43 -5.326800 -25.209272 62.915020 -0.902123 -0.215729 0.373678 0.435547 0.473580 1 43 1.000000
357_sheet
  43 -5.350788 -25.209272 62.794422 -0.976455 -0.215722 -0.000006 0.435547 0.476366 1 43 1.000000
  43 -5.290912 -25.283108 62.794422 -0.776714 -0.629853 -0.000005 0.437988 0.476366 1 43 1.000000
  43 -5.326800 -25.209272 62.915020 -0.902123 -0.215729 0.373678 0.435547 0.473580 1 43 1.000000
357_sheet
  43 -5.335029 -25.147491 62.794422 -0.888013 0.459818 -0.000006 0.433105 0.476366 1 43 1.000000
  43 -5.350788 -25.209272 62.794422 -0.976455 -0.215722 -0.000006 0.435547 0.476366 1 43 1.000000
  43 -5.326800 -25.209272 62.915020 -0.902123 -0.215729 0.373678 0.435547 0.473580 1 43 1.000000
357_sheet
  43 -5.335029 -25.147491 62.794422 -0.888013 0.459818 -0.000006 0.433105 0.476366 1 43 1.000000
  43 -5.326800 -25.209272 62.915020 -0.902123 -0.215729 0.373678 0.435547 0.473580 1 43 1.000000
  43 -5.312243 -25.147491 62.908989 -0.561656 0.793990 0.232643 0.433105 0.473580 1 43 1.000000
357_sheet
  43 -5.312243 -25.147491 62.908989 -0.561656 0.793990 0.232643 0.433105 0.473580 1 43 1.000000
  43 -5.326800 -25.209272 62.915020 -0.902123 -0.215729 0.373678 0.435547 0.473580 1 43 1.000000
  43 -5.247347 -25.147491 63.006107 -0.489308 0.721922 0.489292 0.433105 0.470794 1 43 1.000000
357_sheet
  43 -5.326800 -25.209272 62.915020 -0.902123 -0.215729 0.373678 0.435547 0.473580 1 43 1.000000
  43 -5.258487 -25.209272 63.017250 -0.690466 -0.215728 0.690448 0.435547 0.470794 1 43 1.000000
  43 -5.247347 -25.147491 63.006107 -0.489308 0.721922 0.489292 0.433105 0.470794 1 43 1.000000
357_sheet
  43 -5.247347 -25.147491 63.006107 -0.489308 0.721922 0.489292 0.433105 0.470794 1 43 1.000000
  43 -5.258487 -25.209272 63.017250 -0.690466 -0.215728 0.690448 0.435547 0.470794 1 43 1.000000
  43 -5.156257 -25.209272 63.085567 -0.373666 -0.215746 0.902124 0.435547 0.468008 1 43 1.000000
357_sheet
  43 -5.258487 -25.209272 63.017250 -0.690466 -0.215728 0.690448 0.435547 0.470794 1 43 1.000000
  43 -5.216152 -25.283108 62.974915 -0.549225 -0.629847 0.549222 0.437988 0.470794 1 43 1.000000
  43 -5.156257 -25.209272 63.085567 -0.373666 -0.215746 0.902124 0.435547 0.468008 1 43 1.000000
357_sheet
  43 -5.216152 -25.283108 62.974915 -0.549225 -0.629847 0.549222 0.437988 0.470794 1 43 1.000000
  43 -5.133341 -25.283108 63.030247 -0.297211 -0.629880 0.717577 0.437988 0.468008 1 43 1.000000
  43 -5.156257 -25.209272 63.085567 -0.373666 -0.215746 0.902124 0.435547 0.468008 1 43 1.000000
357_sheet
  43 -5.156257 -25.209272 63.085567 -0.373666 -0.215746 0.902124 0.435547 0.468008 1 43 1.000000
  43 -5.133341 -25.283108 63.030247 -0.297211 -0.629880 0.717577 0.437988 0.468008 1 43 1.000000
  43 -5.035663 -25.283108 63.049671 0.000000 -0.629866 0.776704 0.437988 0.465222 1 43 1.000000
357_sheet
  43 -5.156257 -25.209272 63.085567 -0.373666 -0.215746 0.902124 0.435547 0.468008 1 43 1.000000
  43 -5.035663 -25.283108 63.049671 0.000000 -0.629866 0.776704 0.437988 0.465222 1 43 1.000000
  43 -5.035663 -25.209272 63.109547 0.000000 -0.215750 0.976449 0.435547 0.465222 1 43 1.000000
357_sheet
  43 -5.035663 -25.209272 63.109547 0.000000 -0.215750 0.976449 0.435547 0.465222 1 43 1.000000
  43 -5.035663 -25.283108 63.049671 0.000000 -0.629866 0.776704 0.437988 0.465222 1 43 1.000000
  43 -4.915069 -25.209272 63.085567 0.373654 -0.215745 0.902129 0.435547 0.462436 1 43 1.000000
357_sheet
  43 -5.035663 -25.147491 63.093792 0.000000 0.721917 0.691980 0.433105 0.465222 1 43 1.000000
  43 -5.035663 -25.209272 63.109547 0.000000 -0.215750 0.976449 0.435547 0.465222 1 43 1.000000
  43 -4.915069 -25.209272 63.085567 0.373654 -0.215745 0.902129 0.435547 0.462436 1 43 1.000000
357_sheet
  43 -5.035663 -25.147491 63.093792 0.000000 0.721917 0.691980 0.433105 0.465222 1 43 1.000000
  43 -4.915069 -25.209272 63.085567 0.373654 -0.215745 0.902129 0.435547 0.462436 1 43 1.000000
  43 -4.921100 -25.147491 63.071011 0.183380 0.877701 0.442733 0.433105 0.462436 1 43 1.000000
357_sheet
  43 -4.921100 -25.147491 63.071011 0.183380 0.877701 0.442733 0.433105 0.462436 1 43 1.000000
  43 -4.915069 -25.209272 63.085567 0.373654 -0.215745 0.902129 0.435547 0.462436 1 43 1.000000
  43 -4.823977 -25.147491 63.006111 0.489300 0.721923 0.489298 0.433105 0.459650 1 43 1.000000
357_sheet
  43 -4.915069 -25.209272 63.085567 0.373654 -0.215745 0.902129 0.435547 0.462436 1 43 1.000000
  43 -4.812839 -25.209272 63.017254 0.690457 -0.215727 0.690457 0.435547 0.459650 1 43 1.000000
  43 -4.823977 -25.147491 63.006111 0.489300 0.721923 0.489298 0.433105 0.459650 1 43 1.000000
357_sheet
  43 -4.823977 -25.147491 63.006111 0.489300 0.721923 0.489298 0.433105 0.459650 1 43 1.000000
  43 -4.812839 -25.209272 63.017254 0.690457 -0.215727 0.690457 0.435547 0.459650 1 43 1.000000
  43 -4.744525 -25.209272 62.915024 0.902123 -0.215728 0.373678 0.435547 0.456864 1 43 1.000000
357_sheet
  43 -5.156257 -25.209272 63.085567 -0.373666 -0.215746 0.902124 0.435547 0.468008 1 43 1.000000
  43 -5.035663 -25.209272 63.109547 0.000000 -0.215750 0.976449 0.435547 0.465222 1 43 1.000000
  43 -5.035663 -25.147491 63.093792 0.000000 0.721917 0.691980 0.433105 0.465222 1 43 1.000000
357_sheet
  43 -5.150226 -25.147491 63.071011 -0.183385 0.877702 0.442730 0.433105 0.468008 1 43 1.000000
  43 -5.156257 -25.209272 63.085567 -0.373666 -0.215746 0.902124 0.435547 0.468008 1 43 1.000000
  43 -5.035663 -25.147491 63.093792 0.000000 0.721917 0.691980 0.433105 0.465222 1 43 1.000000
357_sheet
  43 -5.247347 -25.147491 63.006107 -0.489308 0.721922 0.489292 0.433105 0.470794 1 43 1.000000
  43 -5.156257 -25.209272 63.085567 -0.373666 -0.215746 0.902124 0.435547 0.468008 1 43 1.000000
  43 -5.150226 -25.147491 63.071011 -0.183385 0.877702 0.442730 0.433105 0.468008 1 43 1.000000
357_sheet
  43 -5.035663 -25.283108 63.049671 0.000000 -0.629866 0.776704 0.437988 0.465222 1 43 1.000000
  43 -4.937984 -25.283108 63.030247 0.297199 -0.629880 0.717582 0.437988 0.462436 1 43 1.000000
  43 -4.915069 -25.209272 63.085567 0.373654 -0.215745 0.902129 0.435547 0.462436 1 43 1.000000
357_sheet
  43 -4.915069 -25.209272 63.085567 0.373654 -0.215745 0.902129 0.435547 0.462436 1 43 1.000000
  43 -4.937984 -25.283108 63.030247 0.297199 -0.629880 0.717582 0.437988 0.462436 1 43 1.000000
  43 -4.855175 -25.283108 62.974918 0.549217 -0.629848 0.549229 0.437988 0.459650 1 43 1.000000
357_sheet
  43 -4.915069 -25.209272 63.085567 0.373654 -0.215745 0.902129 0.435547 0.462436 1 43 1.000000
  43 -4.855175 -25.283108 62.974918 0.549217 -0.629848 0.549229 0.437988 0.459650 1 43 1.000000
  43 -4.812839 -25.209272 63.017254 0.690457 -0.215727 0.690457 0.435547 0.459650 1 43 1.000000
357_sheet
  43 -4.823977 -25.147491 63.006111 0.489300 0.721923 0.489298 0.433105 0.459650 1 43 1.000000
  43 -4.744525 -25.209272 62.915024 0.902123 -0.215728 0.373678 0.435547 0.456864 1 43 1.000000
  43 -4.759081 -25.147491 62.908993 0.442732 0.877701 0.183384 0.433105 0.456864 1 43 1.000000
357_sheet
  43 -4.759081 -25.147491 62.908993 0.442732 0.877701 0.183384 0.433105 0.456864 1 43 1.000000
  43 -4.744525 -25.209272 62.915024 0.902123 -0.215728 0.373678 0.435547 0.456864 1 43 1.000000
  43 -4.736297 -25.147491 62.794426 0.888013 0.459818 -0.000006 0.433105 0.454078 1 43 1.000000
357_sheet
  43 -4.744525 -25.209272 62.915024 0.902123 -0.215728 0.373678 0.435547 0.456864 1 43 1.000000
  43 -4.720539 -25.209272 62.794426 0.976455 -0.215722 -0.000006 0.435547 0.454078 1 43 1.000000
  43 -4.736297 -25.147491 62.794426 0.888013 0.459818 -0.000006 0.433105 0.454078 1 43 1.000000
357_sheet
  43 -4.812839 -25.209272 63.017254 0.690457 -0.215727 0.690457 0.435547 0.459650 1 43 1.000000
  43 -4.855175 -25.283108 62.974918 0.549217 -0.629848 0.549229 0.437988 0.459650 1 43 1.000000
  43 -4.744525 -25.209272 62.915024 0.902123 -0.215728 0.373678 0.435547 0.456864 1 43 1.000000
357_sheet
  43 -4.855175 -25.283108 62.974918 0.549217 -0.629848 0.549229 0.437988 0.459650 1 43 1.000000
  43 -4.799841 -25.283108 62.892113 0.717594 -0.629848 0.297237 0.437988 0.456864 1 43 1.000000
  43 -4.744525 -25.209272 62.915024 0.902123 -0.215728 0.373678 0.435547 0.456864 1 43 1.000000
357_sheet
  43 -4.744525 -25.209272 62.915024 0.902123 -0.215728 0.373678 0.435547 0.456864 1 43 1.000000
  43 -4.799841 -25.283108 62.892113 0.717594 -0.629848 0.297237 0.437988 0.456864 1 43 1.000000
  43 -4.780414 -25.283108 62.794426 0.776715 -0.629853 -0.000005 0.437988 0.454078 1 43 1.000000
357_sheet
  43 -4.744525 -25.209272 62.915024 0.902123 -0.215728 0.373678 0.435547 0.456864 1 43 1.000000
  43 -4.780414 -25.283108 62.794426 0.776715 -0.629853 -0.000005 0.437988 0.454078 1 43 1.000000
  43 -4.720539 -25.209272 62.794426 0.976455 -0.215722 -0.000006 0.435547 0.454078 1 43 1.000000
357_sheet
  43 -4.720539 -25.209272 62.794426 0.976455 -0.215722 -0.000006 0.435547 0.454078 1 43 1.000000
  43 -4.780414 -25.283108 62.794426 0.776715 -0.629853 -0.000005 0.437988 0.454078 1 43 1.000000
  43 -4.744525 -25.209272 62.673836 0.902124 -0.215726 -0.373678 0.435547 0.451291 1 43 1.000000
357_sheet
  43 -4.736297 -25.147491 62.794426 0.888013 0.459818 -0.000006 0.433105 0.454078 1 43 1.000000
  43 -4.720539 -25.209272 62.794426 0.976455 -0.215722 -0.000006 0.435547 0.454078 1 43 1.000000
  43 -4.744525 -25.209272 62.673836 0.902124 -0.215726 -0.373678 0.435547 0.451291 1 43 1.000000
357_sheet
  43 -4.736297 -25.147491 62.794426 0.888013 0.459818 -0.000006 0.433105 0.454078 1 43 1.000000
  43 -4.744525 -25.209272 62.673836 0.902124 -0.215726 -0.373678 0.435547 0.451291 1 43 1.000000
  43 -4.759081 -25.147491 62.679867 0.561654 0.793990 -0.232647 0.433105 0.451291 1 43 1.000000
357_sheet
  43 -4.759081 -25.147491 62.679867 0.561654 0.793990 -0.232647 0.433105 0.451291 1 43 1.000000
  43 -4.744525 -25.209272 62.673836 0.902124 -0.215726 -0.373678 0.435547 0.451291 1 43 1.000000
  43 -4.823977 -25.147491 62.582748 0.489295 0.721932 -0.489290 0.433105 0.448505 1 43 1.000000
357_sheet
  43 -4.744525 -25.209272 62.673836 0.902124 -0.215726 -0.373678 0.435547 0.451291 1 43 1.000000
  43 -4.812835 -25.209272 62.571606 0.690461 -0.215719 -0.690455 0.435547 0.448505 1 43 1.000000
  43 -4.823977 -25.147491 62.582748 0.489295 0.721932 -0.489290 0.433105 0.448505 1 43 1.000000
357_sheet
  43 -4.823977 -25.147491 62.582748 0.489295 0.721932 -0.489290 0.433105 0.448505 1 43 1.000000
  43 -4.812835 -25.209272 62.571606 0.690461 -0.215719 -0.690455 0.435547 0.448505 1 43 1.000000
  43 -4.915069 -25.209272 62.503292 0.373679 -0.215742 -0.902119 0.435547 0.445719 1 43 1.000000
357_sheet
  43 -4.812835 -25.209272 62.571606 0.690461 -0.215719 -0.690455 0.435547 0.448505 1 43 1.000000
  43 -4.855175 -25.283108 62.613941 0.549213 -0.629857 -0.549223 0.437988 0.448505 1 43 1.000000
  43 -4.915069 -25.209272 62.503292 0.373679 -0.215742 -0.902119 0.435547 0.445719 1 43 1.000000
357_sheet
  43 -4.855175 -25.283108 62.613941 0.549213 -0.629857 -0.549223 0.437988 0.448505 1 43 1.000000
  43 -4.937984 -25.283108 62.558613 0.297227 -0.629880 -0.717570 0.437988 0.445719 1 43 1.000000
  43 -4.915069 -25.209272 62.503292 0.373679 -0.215742 -0.902119 0.435547 0.445719 1 43 1.000000
357_sheet
  43 -4.915069 -25.209272 62.503292 0.373679 -0.215742 -0.902119 0.435547 0.445719 1 43 1.000000
  43 -4.937984 -25.283108 62.558613 0.297227 -0.629880 -0.717570 0.437988 0.445719 1 43 1.000000
  43 -5.035663 -25.283108 62.539181 0.000000 -0.629871 -0.776700 0.437988 0.442933 1 43 1.000000
357_sheet
  43 -4.915069 -25.209272 62.503292 0.373679 -0.215742 -0.902119 0.435547 0.445719 1 43 1.000000
  43 -5.035663 -25.283108 62.539181 0.000000 -0.629871 -0.776700 0.437988 0.442933 1 43 1.000000
  43 -5.035663 -25.209272 62.479305 0.000000 -0.215751 -0.976448 0.435547 0.442933 1 43 1.000000
357_sheet
  43 -5.035663 -25.209272 62.479305 0.000000 -0.215751 -0.976448 0.435547 0.442933 1 43 1.000000
  43 -5.035663 -25.283108 62.539181 0.000000 -0.629871 -0.776700 0.437988 0.442933 1 43 1.000000
  43 -5.156257 -25.209272 62.503292 -0.373671 -0.215744 -0.902122 0.435547 0.440147 1 43 1.000000
357_sheet
  43 -5.035663 -25.147491 62.495060 0.000000 0.721920 -0.691976 0.433105 0.442933 1 43 1.000000
  43 -5.035663 -25.209272 62.479305 0.000000 -0.215751 -0.976448 0.435547 0.442933 1 43 1.000000
  43 -5.156257 -25.209272 62.503292 -0.373671 -0.215744 -0.902122 0.435547 0.440147 1 43 1.000000
357_sheet
  43 -5.035663 -25.147491 62.495060 0.000000 0.721920 -0.691976 0.433105 0.442933 1 43 1.000000
  43 -5.156257 -25.209272 62.503292 -0.373671 -0.215744 -0.902122 0.435547 0.440147 1 43 1.000000
  43 -5.150226 -25.147491 62.517849 -0.183389 0.877700 -0.442732 0.433105 0.440147 1 43 1.000000
357_sheet
  43 -5.150226 -25.147491 62.517849 -0.183389 0.877700 -0.442732 0.433105 0.440147 1 43 1.000000
  43 -5.156257 -25.209272 62.503292 -0.373671 -0.215744 -0.902122 0.435547 0.440147 1 43 1.000000
  43 -5.247347 -25.147491 62.582741 -0.489293 0.721923 -0.489304 0.433105 0.437361 1 43 1.000000
357_sheet
  43 -4.744525 -25.209272 62.673836 0.902124 -0.215726 -0.373678 0.435547 0.451291 1 43 1.000000
  43 -4.855175 -25.283108 62.613941 0.549213 -0.629857 -0.549223 0.437988 0.448505 1 43 1.000000
  43 -4.812835 -25.209272 62.571606 0.690461 -0.215719 -0.690455 0.435547 0.448505 1 43 1.000000
357_sheet
  43 -4.744525 -25.209272 62.673836 0.902124 -0.215726 -0.373678 0.435547 0.451291 1 43 1.000000
  43 -4.799841 -25.283108 62.696747 0.717592 -0.629848 -0.297242 0.437988 0.451291 1 43 1.000000
  43 -4.855175 -25.283108 62.613941 0.549213 -0.629857 -0.549223 0.437988 0.448505 1 43 1.000000
357_sheet
  43 -4.780414 -25.283108 62.794426 0.776715 -0.629853 -0.000005 0.437988 0.454078 1 43 1.000000
  43 -4.799841 -25.283108 62.696747 0.717592 -0.629848 -0.297242 0.437988 0.451291 1 43 1.000000
  43 -4.744525 -25.209272 62.673836 0.902124 -0.215726 -0.373678 0.435547 0.451291 1 43 1.000000
357_sheet
  43 -4.823977 -25.147491 62.582748 0.489295 0.721932 -0.489290 0.433105 0.448505 1 43 1.000000
  43 -4.915069 -25.209272 62.503292 0.373679 -0.215742 -0.902119 0.435547 0.445719 1 43 1.000000
  43 -4.921100 -25.147491 62.517849 0.183395 0.877700 -0.442729 0.433105 0.445719 1 43 1.000000
357_sheet
  43 -4.921100 -25.147491 62.517849 0.183395 0.877700 -0.442729 0.433105 0.445719 1 43 1.000000
  43 -4.915069 -25.209272 62.503292 0.373679 -0.215742 -0.902119 0.435547 0.445719 1 43 1.000000
  43 -5.035663 -25.147491 62.495060 0.000000 0.721920 -0.691976 0.433105 0.442933 1 43 1.000000
357_sheet
  43 -4.915069 -25.209272 62.503292 0.373679 -0.215742 -0.902119 0.435547 0.445719 1 43 1.000000
  43 -5.035663 -25.209272 62.479305 0.000000 -0.215751 -0.976448 0.435547 0.442933 1 43 1.000000
  43 -5.035663 -25.147491 62.495060 0.000000 0.721920 -0.691976 0.433105 0.442933 1 43 1.000000
357_sheet
  43 -5.035663 -25.283108 62.539181 0.000000 -0.629871 -0.776700 0.437988 0.442933 1 43 1.000000
  43 -5.133341 -25.283108 62.558613 -0.297215 -0.629880 -0.717575 0.437988 0.440147 1 43 1.000000
  43 -5.156257 -25.209272 62.503292 -0.373671 -0.215744 -0.902122 0.435547 0.440147 1 43 1.000000
357_sheet
  43 -5.156257 -25.209272 62.503292 -0.373671 -0.215744 -0.902122 0.435547 0.440147 1 43 1.000000
  43 -5.133341 -25.283108 62.558613 -0.297215 -0.629880 -0.717575 0.437988 0.440147 1 43 1.000000
  43 -5.216152 -25.283108 62.613937 -0.549208 -0.629850 -0.549236 0.437988 0.437361 1 43 1.000000
357_sheet
  43 -5.156257 -25.209272 62.503292 -0.373671 -0.215744 -0.902122 0.435547 0.440147 1 43 1.000000
  43 -5.216152 -25.283108 62.613937 -0.549208 -0.629850 -0.549236 0.437988 0.437361 1 43 1.000000
  43 -5.258487 -25.209272 62.571602 -0.690448 -0.215728 -0.690466 0.435547 0.437361 1 43 1.000000
357_sheet
  43 -5.156257 -25.209272 62.503292 -0.373671 -0.215744 -0.902122 0.435547 0.440147 1 43 1.000000
  43 -5.258487 -25.209272 62.571602 -0.690448 -0.215728 -0.690466 0.435547 0.437361 1 43 1.000000
  43 -5.247347 -25.147491 62.582741 -0.489293 0.721923 -0.489304 0.433105 0.437361 1 43 1.000000
357_sheet
  43 -5.247347 -25.147491 62.582741 -0.489293 0.721923 -0.489304 0.433105 0.437361 1 43 1.000000
  43 -5.258487 -25.209272 62.571602 -0.690448 -0.215728 -0.690466 0.435547 0.437361 1 43 1.000000
  43 -5.326800 -25.209272 62.673832 -0.902120 -0.215730 -0.373684 0.435547 0.434575 1 43 1.000000
357_sheet
  43 -5.258487 -25.209272 62.571602 -0.690448 -0.215728 -0.690466 0.435547 0.437361 1 43 1.000000
  43 -5.216152 -25.283108 62.613937 -0.549208 -0.629850 -0.549236 0.437988 0.437361 1 43 1.000000
  43 -5.326800 -25.209272 62.673832 -0.902120 -0.215730 -0.373684 0.435547 0.434575 1 43 1.000000
357_sheet
  43 -5.216152 -25.283108 62.613937 -0.549208 -0.629850 -0.549236 0.437988 0.437361 1 43 1.000000
  43 -5.271483 -25.283108 62.696743 -0.717591 -0.629849 -0.297242 0.437988 0.434575 1 43 1.000000
  43 -5.326800 -25.209272 62.673832 -0.902120 -0.215730 -0.373684 0.435547 0.434575 1 43 1.000000
357_sheet
  43 -5.326800 -25.209272 62.673832 -0.902120 -0.215730 -0.373684 0.435547 0.434575 1 43 1.000000
  43 -5.271483 -25.283108 62.696743 -0.717591 -0.629849 -0.297242 0.437988 0.434575 1 43 1.000000
  43 -5.290912 -25.283108 62.794422 -0.776714 -0.629853 -0.000005 0.437988 0.431789 1 43 1.000000
357_sheet
  43 -5.326800 -25.209272 62.673832 -0.902120 -0.215730 -0.373684 0.435547 0.434575 1 43 1.000000
  43 -5.290912 -25.283108 62.794422 -0.776714 -0.629853 -0.000005 0.437988 0.431789 1 43 1.000000
  43 -5.350788 -25.209272 62.794422 -0.976455 -0.215722 -0.000006 0.435547 0.431789 1 43 1.000000
357_sheet
  43 -5.326800 -25.209272 62.673832 -0.902120 -0.215730 -0.373684 0.435547 0.434575 1 43 1.000000
  43 -5.350788 -25.209272 62.794422 -0.976455 -0.215722 -0.000006 0.435547 0.431789 1 43 1.000000
  43 -5.335029 -25.147491 62.794422 -0.888013 0.459818 -0.000006 0.433105 0.431789 1 43 1.000000
357_sheet
  43 -5.312243 -25.147491 62.679863 -0.442732 0.877700 -0.183387 0.433105 0.434575 1 43 1.000000
  43 -5.326800 -25.209272 62.673832 -0.902120 -0.215730 -0.373684 0.435547 0.434575 1 43 1.000000
  43 -5.335029 -25.147491 62.794422 -0.888013 0.459818 -0.000006 0.433105 0.431789 1 43 1.000000
357_sheet
  43 -5.247347 -25.147491 62.582741 -0.489293 0.721923 -0.489304 0.433105 0.437361 1 43 1.000000
  43 -5.326800 -25.209272 62.673832 -0.902120 -0.215730 -0.373684 0.435547 0.434575 1 43 1.000000
  43 -5.312243 -25.147491 62.679863 -0.442732 0.877700 -0.183387 0.433105 0.434575 1 43 1.000000
357_sheet
  43 -4.744524 -26.774014 62.915024 0.000000 -1.000000 0.000000 0.858270 0.753096 1 43 1.000000
  43 -4.744524 -26.774014 62.673836 0.000000 -1.000000 0.000000 0.858270 0.774682 1 43 1.000000
  43 -4.720538 -26.774014 62.794430 0.000000 -1.000000 0.000000 0.860417 0.763889 1 43 1.000000
357_sheet
  43 -4.812833 -26.774014 62.571606 0.000000 -1.000000 0.000000 0.852156 0.783831 1 43 1.000000
  43 -4.744524 -26.774014 62.673836 0.000000 -1.000000 0.000000 0.858270 0.774682 1 43 1.000000
  43 -4.744524 -26.774014 62.915024 0.000000 -1.000000 0.000000 0.858270 0.753096 1 43 1.000000
357_sheet
  43 -4.812839 -26.774014 63.017254 0.000000 -1.000000 0.000000 0.852156 0.743946 1 43 1.000000
  43 -4.812833 -26.774014 62.571606 0.000000 -1.000000 0.000000 0.852156 0.783831 1 43 1.000000
  43 -4.744524 -26.774014 62.915024 0.000000 -1.000000 0.000000 0.858270 0.753096 1 43 1.000000
357_sheet
  43 -4.915069 -26.774014 62.503288 0.000000 -1.000000 0.000000 0.843007 0.789945 1 43 1.000000
  43 -4.812833 -26.774014 62.571606 0.000000 -1.000000 0.000000 0.852156 0.783831 1 43 1.000000
  43 -4.812839 -26.774014 63.017254 0.000000 -1.000000 0.000000 0.852156 0.743946 1 43 1.000000
357_sheet
  43 -4.915069 -26.774014 63.085567 0.000000 -1.000000 0.000000 0.843007 0.737832 1 43 1.000000
  43 -4.915069 -26.774014 62.503288 0.000000 -1.000000 0.000000 0.843007 0.789945 1 43 1.000000
  43 -4.812839 -26.774014 63.017254 0.000000 -1.000000 0.000000 0.852156 0.743946 1 43 1.000000
357_sheet
  43 -5.035663 -26.774014 62.479305 0.000000 -1.000000 0.000000 0.832214 0.792092 1 43 1.000000
  43 -4.915069 -26.774014 62.503288 0.000000 -1.000000 0.000000 0.843007 0.789945 1 43 1.000000
  43 -4.915069 -26.774014 63.085567 0.000000 -1.000000 0.000000 0.843007 0.737832 1 43 1.000000
357_sheet
  43 -5.035663 -26.774014 63.109547 0.000000 -1.000000 0.000000 0.832214 0.735686 1 43 1.000000
  43 -5.035663 -26.774014 62.479305 0.000000 -1.000000 0.000000 0.832214 0.792092 1 43 1.000000
  43 -4.915069 -26.774014 63.085567 0.000000 -1.000000 0.000000 0.843007 0.737832 1 43 1.000000
357_sheet
  43 -5.156256 -26.774014 62.503292 0.000000 -1.000000 0.000000 0.821421 0.789945 1 43 1.000000
  43 -5.035663 -26.774014 62.479305 0.000000 -1.000000 0.000000 0.832214 0.792092 1 43 1.000000
  43 -5.035663 -26.774014 63.109547 0.000000 -1.000000 0.000000 0.832214 0.735686 1 43 1.000000
357_sheet
  43 -5.156256 -26.774014 63.085567 0.000000 -1.000000 0.000000 0.821421 0.737832 1 43 1.000000
  43 -5.156256 -26.774014 62.503292 0.000000 -1.000000 0.000000 0.821421 0.789945 1 43 1.000000
  43 -5.035663 -26.774014 63.109547 0.000000 -1.000000 0.000000 0.832214 0.735686 1 43 1.000000
357_sheet
  43 -5.258485 -26.774014 62.571602 0.000000 -1.000000 0.000000 0.812271 0.783831 1 43 1.000000
  43 -5.156256 -26.774014 62.503292 0.000000 -1.000000 0.000000 0.821421 0.789945 1 43 1.000000
  43 -5.156256 -26.774014 63.085567 0.000000 -1.000000 0.000000 0.821421 0.737832 1 43 1.000000
357_sheet
  43 -5.258485 -26.774014 63.017250 0.000000 -1.000000 0.000000 0.812271 0.743946 1 43 1.000000
  43 -5.258485 -26.774014 62.571602 0.000000 -1.000000 0.000000 0.812271 0.783831 1 43 1.000000
  43 -5.156256 -26.774014 63.085567 0.000000 -1.000000 0.000000 0.821421 0.737832 1 43 1.000000
357_sheet
  43 -5.326799 -26.774014 62.673832 0.000000 -1.000000 0.000000 0.806157 0.774682 1 43 1.000000
  43 -5.258485 -26.774014 62.571602 0.000000 -1.000000 0.000000 0.812271 0.783831 1 43 1.000000
  43 -5.258485 -26.774014 63.017250 0.000000 -1.000000 0.000000 0.812271 0.743946 1 43 1.000000
357_sheet
  43 -5.326799 -26.774014 62.915020 0.000000 -1.000000 0.000000 0.806157 0.753096 1 43 1.000000
  43 -5.326799 -26.774014 62.673832 0.000000 -1.000000 0.000000 0.806157 0.774682 1 43 1.000000
  43 -5.258485 -26.774014 63.017250 0.000000 -1.000000 0.000000 0.812271 0.743946 1 43 1.000000
357_sheet
  43 -5.350788 -26.774014 62.794426 0.000000 -1.000000 0.000000 0.804011 0.763889 1 43 1.000000
  43 -5.326799 -26.774014 62.673832 0.000000 -1.000000 0.000000 0.806157 0.774682 1 43 1.000000
  43 -5.326799 -26.774014 62.915020 0.000000 -1.000000 0.000000 0.806157 0.753096 1 43 1.000000
end
