version 1
nodes
  0 "ValveBiped" -1
  1 "ValveBiped.Bip01_R_Hand" 0
  2 "ValveBiped.bone" 1
end
skeleton
  time 0
    0 0.000000 0.000000 0.000000 1.570796 0.000000 0.000000
    1 0.000000 0.000000 0.000000 1.630923 -1.399327 -0.071670
    2 1.165489 -1.926164 -0.523600 -1.544212 0.012429 -1.401735
end
triangles
  phy
    0 -10.888478 -18.745176 3.893899 0.284419 -0.906352 -0.312462 0 0
    0 -12.742377 -16.810692 2.680482 0.561356 0.000386 -0.827574 0 0
    0 -10.881276 -18.752347 1.903558 0.289628 0.902277 -0.319392 0 0
  phy
    0 -10.881276 -18.752347 1.903558 0.289628 0.902277 -0.319392 0 0
    0 -12.742377 -16.810692 2.680482 0.561356 0.000386 -0.827574 0 0
    0 -12.981391 -15.658959 1.903400 -0.209986 0.788258 -0.578407 0 0
  phy
    0 -12.742377 -16.810692 2.680482 0.561356 0.000386 -0.827574 0 0
    0 -10.888478 -18.745176 3.893899 0.284419 -0.906352 -0.312462 0 0
    0 -12.981270 -15.659001 3.894231 -0.106355 -0.895259 -0.432665 0 0
  phy
    0 -12.742377 -16.810692 2.680482 0.561356 0.000386 -0.827574 0 0
    0 -12.981270 -15.659001 3.894231 -0.106355 -0.895259 -0.432665 0 0
    0 -12.981391 -15.658959 1.903400 -0.209986 0.788258 -0.578407 0 0
  phy
    0 -8.249283 -21.393756 1.989043 0.594377 0.678669 -0.431422 0 0
    0 -8.249521 -21.393568 3.807756 0.291733 -0.930707 -0.220625 0 0
    0 -10.888478 -18.745176 3.893899 0.284419 -0.906352 -0.312462 0 0
  phy
    0 -8.249283 -21.393756 1.989043 0.594377 0.678669 -0.431422 0 0
    0 1.923550 -27.913962 4.054891 0.298754 -0.953812 -0.031460 0 0
    0 -8.249521 -21.393568 3.807756 0.291733 -0.930707 -0.220625 0 0
  phy
    0 -8.249521 -21.393568 3.807756 0.291733 -0.930707 -0.220625 0 0
    0 2.095105 -10.556073 7.840016 0.127887 -0.991789 0.000073 0 0
    0 -10.888478 -18.745176 3.893899 0.284419 -0.906352 -0.312462 0 0
  phy
    0 1.923550 -27.913962 4.054891 0.298754 -0.953812 -0.031460 0 0
    0 2.095105 -10.556073 7.840016 0.127887 -0.991789 0.000073 0 0
    0 -8.249521 -21.393568 3.807756 0.291733 -0.930707 -0.220625 0 0
  phy
    0 12.440370 -21.392230 1.987782 0.529613 0.763618 0.369322 0 0
    0 1.923470 -27.913926 3.294611 0.769875 0.625234 0.127965 0 0
    0 9.198392 -23.333428 1.988144 0.370943 0.915379 0.156471 0 0
  phy
    0 5.542363 -24.044790 1.840997 0.435635 0.892904 0.113776 0 0
    0 9.198392 -23.333428 1.988144 0.370943 0.915379 0.156471 0 0
    0 1.923470 -27.913926 3.294611 0.769875 0.625234 0.127965 0 0
  phy
    0 9.198392 -23.333428 1.988144 0.370943 0.915379 0.156471 0 0
    0 3.009479 -23.848454 1.450358 0.361134 0.929126 0.079418 0 0
    0 3.180304 -17.742859 -0.709810 0.163323 0.974547 0.153571 0 0
  phy
    0 3.009479 -23.848454 1.450358 0.361134 0.929126 0.079418 0 0
    0 9.198392 -23.333428 1.988144 0.370943 0.915379 0.156471 0 0
    0 5.542363 -24.044790 1.840997 0.435635 0.892904 0.113776 0 0
  phy
    0 12.440370 -21.392230 1.987782 0.529613 0.763618 0.369322 0 0
    0 9.198392 -23.333428 1.988144 0.370943 0.915379 0.156471 0 0
    0 3.180304 -17.742859 -0.709810 0.163323 0.974547 0.153571 0 0
  phy
    0 16.932876 -16.808507 2.678671 0.602086 0.100841 0.792037 0 0
    0 17.171627 -15.656745 1.901561 -0.210259 0.788587 0.577860 0 0
    0 17.203412 -16.155319 3.152214 0.433792 -0.240724 0.868261 0 0
  phy
    0 17.171627 -15.656745 1.901561 -0.210259 0.788587 0.577860 0 0
    0 17.171747 -15.656785 3.892391 -0.110208 -0.897197 0.427659 0 0
    0 17.203412 -16.155319 3.152214 0.433792 -0.240724 0.868261 0 0
  phy
    0 15.078804 -18.743891 3.889051 0.253270 -0.925374 0.282022 0 0
    0 16.932876 -16.808507 2.678671 0.602086 0.100841 0.792037 0 0
    0 17.203412 -16.155319 3.152214 0.433792 -0.240724 0.868261 0 0
  phy
    0 17.203412 -16.155319 3.152214 0.433792 -0.240724 0.868261 0 0
    0 17.171747 -15.656785 3.892391 -0.110208 -0.897197 0.427659 0 0
    0 15.078804 -18.743891 3.889051 0.253270 -0.925374 0.282022 0 0
  phy
    0 3.009479 -23.848454 1.450358 0.361134 0.929126 0.079418 0 0
    0 1.181902 -23.848590 1.450469 0.366708 0.927375 -0.074163 0 0
    0 3.180304 -17.742859 -0.709810 0.163323 0.974547 0.153571 0 0
  phy
    0 3.180304 -17.742859 -0.709810 0.163323 0.974547 0.153571 0 0
    0 1.181902 -23.848590 1.450469 0.366708 0.927375 -0.074163 0 0
    0 1.009920 -17.743018 -0.709678 0.159950 0.973465 -0.163651 0 0
  phy
    0 1.181902 -23.848590 1.450469 0.366708 0.927375 -0.074163 0 0
    0 -5.007016 -23.334470 1.989011 0.373924 0.915311 -0.149622 0 0
    0 1.009920 -17.743018 -0.709678 0.159950 0.973465 -0.163651 0 0
  phy
    0 1.181902 -23.848590 1.450469 0.366708 0.927375 -0.074163 0 0
    0 3.009479 -23.848454 1.450358 0.361134 0.929126 0.079418 0 0
    0 1.923470 -27.913926 3.294611 0.769875 0.625234 0.127965 0 0
  phy
    0 -5.007016 -23.334470 1.989011 0.373924 0.915311 -0.149622 0 0
    0 1.181902 -23.848590 1.450469 0.366708 0.927375 -0.074163 0 0
    0 1.923470 -27.913926 3.294611 0.769875 0.625234 0.127965 0 0
  phy
    0 -5.007016 -23.334470 1.989011 0.373924 0.915311 -0.149622 0 0
    0 1.923470 -27.913926 3.294611 0.769875 0.625234 0.127965 0 0
    0 -8.249283 -21.393756 1.989043 0.594377 0.678669 -0.431422 0 0
  phy
    0 -8.249283 -21.393756 1.989043 0.594377 0.678669 -0.431422 0 0
    0 1.923470 -27.913926 3.294611 0.769875 0.625234 0.127965 0 0
    0 1.923550 -27.913962 4.054891 0.298754 -0.953812 -0.031460 0 0
  phy
    0 -8.249283 -21.393756 1.989043 0.594377 0.678669 -0.431422 0 0
    0 -10.888478 -18.745176 3.893899 0.284419 -0.906352 -0.312462 0 0
    0 -10.881276 -18.752347 1.903558 0.289628 0.902277 -0.319392 0 0
  phy
    0 -8.249283 -21.393756 1.989043 0.594377 0.678669 -0.431422 0 0
    0 -10.881276 -18.752347 1.903558 0.289628 0.902277 -0.319392 0 0
    0 1.009920 -17.743018 -0.709678 0.159950 0.973465 -0.163651 0 0
  phy
    0 -5.007016 -23.334470 1.989011 0.373924 0.915311 -0.149622 0 0
    0 -8.249283 -21.393756 1.989043 0.594377 0.678669 -0.431422 0 0
    0 1.009920 -17.743018 -0.709678 0.159950 0.973465 -0.163651 0 0
  phy
    0 -12.981270 -15.659001 3.894231 -0.106355 -0.895259 -0.432665 0 0
    0 2.094305 0.320201 7.840242 -0.021261 -0.999774 0.000062 0 0
    0 1.423011 0.320157 7.562232 -0.160035 -0.900184 -0.405040 0 0
  phy
    0 1.423011 0.320157 7.562232 -0.160035 -0.900184 -0.405040 0 0
    0 1.485270 10.153511 5.820076 -0.437770 -0.482613 -0.758579 0 0
    0 -12.981270 -15.659001 3.894231 -0.106355 -0.895259 -0.432665 0 0
  phy
    0 2.094305 0.320201 7.840242 -0.021261 -0.999774 0.000062 0 0
    0 1.485270 10.153511 5.820076 -0.437770 -0.482613 -0.758579 0 0
    0 1.423011 0.320157 7.562232 -0.160035 -0.900184 -0.405040 0 0
  phy
    0 -10.888478 -18.745176 3.893899 0.284419 -0.906352 -0.312462 0 0
    0 2.095105 -10.556073 7.840016 0.127887 -0.991789 0.000073 0 0
    0 -12.981270 -15.659001 3.894231 -0.106355 -0.895259 -0.432665 0 0
  phy
    0 12.440370 -21.392230 1.987782 0.529613 0.763618 0.369322 0 0
    0 3.180304 -17.742859 -0.709810 0.163323 0.974547 0.153571 0 0
    0 15.071968 -18.750440 1.901976 0.334805 0.869352 0.363500 0 0
  phy
    0 12.440370 -21.392230 1.987782 0.529613 0.763618 0.369322 0 0
    0 15.071968 -18.750440 1.901976 0.334805 0.869352 0.363500 0 0
    0 12.440579 -21.392306 3.806494 0.338008 -0.907097 0.250848 0 0
  phy
    0 12.440579 -21.392306 3.806494 0.338008 -0.907097 0.250848 0 0
    0 1.923470 -27.913926 3.294611 0.769875 0.625234 0.127965 0 0
    0 12.440370 -21.392230 1.987782 0.529613 0.763618 0.369322 0 0
  phy
    0 15.078804 -18.743891 3.889051 0.253270 -0.925374 0.282022 0 0
    0 15.071968 -18.750440 1.901976 0.334805 0.869352 0.363500 0 0
    0 16.932876 -16.808507 2.678671 0.602086 0.100841 0.792037 0 0
  phy
    0 12.440579 -21.392306 3.806494 0.338008 -0.907097 0.250848 0 0
    0 15.071968 -18.750440 1.901976 0.334805 0.869352 0.363500 0 0
    0 15.078804 -18.743891 3.889051 0.253270 -0.925374 0.282022 0 0
  phy
    0 15.078804 -18.743891 3.889051 0.253270 -0.925374 0.282022 0 0
    0 2.095105 -10.556073 7.840016 0.127887 -0.991789 0.000073 0 0
    0 12.440579 -21.392306 3.806494 0.338008 -0.907097 0.250848 0 0
  phy
    0 15.078804 -18.743891 3.889051 0.253270 -0.925374 0.282022 0 0
    0 17.171747 -15.656785 3.892391 -0.110208 -0.897197 0.427659 0 0
    0 2.095105 -10.556073 7.840016 0.127887 -0.991789 0.000073 0 0
  phy
    0 3.009479 -23.848454 1.450358 0.361134 0.929126 0.079418 0 0
    0 5.542363 -24.044790 1.840997 0.435635 0.892904 0.113776 0 0
    0 1.923470 -27.913926 3.294611 0.769875 0.625234 0.127965 0 0
  phy
    0 1.009920 -17.743018 -0.709678 0.159950 0.973465 -0.163651 0 0
    0 -10.881276 -18.752347 1.903558 0.289628 0.902277 -0.319392 0 0
    0 -12.981391 -15.658959 1.903400 -0.209986 0.788258 -0.578407 0 0
  phy
    0 16.932876 -16.808507 2.678671 0.602086 0.100841 0.792037 0 0
    0 15.071968 -18.750440 1.901976 0.334805 0.869352 0.363500 0 0
    0 17.171627 -15.656745 1.901561 -0.210259 0.788587 0.577860 0 0
  phy
    0 -12.981391 -15.658959 1.903400 -0.209986 0.788258 -0.578407 0 0
    0 -12.981270 -15.659001 3.894231 -0.106355 -0.895259 -0.432665 0 0
    0 1.485270 10.153511 5.820076 -0.437770 -0.482613 -0.758579 0 0
  phy
    0 -12.981270 -15.659001 3.894231 -0.106355 -0.895259 -0.432665 0 0
    0 2.095105 -10.556073 7.840016 0.127887 -0.991789 0.000073 0 0
    0 2.094305 0.320201 7.840242 -0.021261 -0.999774 0.000062 0 0
  phy
    0 1.923550 -27.913962 4.054891 0.298754 -0.953812 -0.031460 0 0
    0 1.923470 -27.913926 3.294611 0.769875 0.625234 0.127965 0 0
    0 12.440579 -21.392306 3.806494 0.338008 -0.907097 0.250848 0 0
  phy
    0 12.440579 -21.392306 3.806494 0.338008 -0.907097 0.250848 0 0
    0 2.095105 -10.556073 7.840016 0.127887 -0.991789 0.000073 0 0
    0 1.923550 -27.913962 4.054891 0.298754 -0.953812 -0.031460 0 0
  phy
    0 2.094305 0.320201 7.840242 -0.021261 -0.999774 0.000062 0 0
    0 2.765563 0.320256 7.562150 -0.159936 -0.900164 0.405125 0 0
    0 2.703050 10.153600 5.820002 -0.422145 -0.486541 0.764899 0 0
  phy
    0 2.703050 10.153600 5.820002 -0.422145 -0.486541 0.764899 0 0
    0 1.485270 10.153511 5.820076 -0.437770 -0.482613 -0.758579 0 0
    0 2.094305 0.320201 7.840242 -0.021261 -0.999774 0.000062 0 0
  phy
    0 2.094305 0.320201 7.840242 -0.021261 -0.999774 0.000062 0 0
    0 17.171747 -15.656785 3.892391 -0.110208 -0.897197 0.427659 0 0
    0 2.765563 0.320256 7.562150 -0.159936 -0.900164 0.405125 0 0
  phy
    0 2.095105 -10.556073 7.840016 0.127887 -0.991789 0.000073 0 0
    0 17.171747 -15.656785 3.892391 -0.110208 -0.897197 0.427659 0 0
    0 2.094305 0.320201 7.840242 -0.021261 -0.999774 0.000062 0 0
  phy
    0 17.171627 -15.656745 1.901561 -0.210259 0.788587 0.577860 0 0
    0 2.702736 10.153705 0.696583 -0.374987 0.684656 0.625005 0 0
    0 2.703050 10.153600 5.820002 -0.422145 -0.486541 0.764899 0 0
  phy
    0 2.703050 10.153600 5.820002 -0.422145 -0.486541 0.764899 0 0
    0 17.171747 -15.656785 3.892391 -0.110208 -0.897197 0.427659 0 0
    0 17.171627 -15.656745 1.901561 -0.210259 0.788587 0.577860 0 0
  phy
    0 2.703050 10.153600 5.820002 -0.422145 -0.486541 0.764899 0 0
    0 2.702736 10.153705 0.696583 -0.374987 0.684656 0.625005 0 0
    0 1.485270 10.153511 5.820076 -0.437770 -0.482613 -0.758579 0 0
  phy
    0 2.765563 0.320256 7.562150 -0.159936 -0.900164 0.405125 0 0
    0 17.171747 -15.656785 3.892391 -0.110208 -0.897197 0.427659 0 0
    0 2.703050 10.153600 5.820002 -0.422145 -0.486541 0.764899 0 0
  phy
    0 1.596981 -4.241562 -2.102911 -0.048932 0.964606 -0.259117 0 0
    0 3.180304 -17.742859 -0.709810 0.163323 0.974547 0.153571 0 0
    0 1.009920 -17.743018 -0.709678 0.159950 0.973465 -0.163651 0 0
  phy
    0 3.180304 -17.742859 -0.709810 0.163323 0.974547 0.153571 0 0
    0 1.596981 -4.241562 -2.102911 -0.048932 0.964606 -0.259117 0 0
    0 2.591085 -4.241488 -2.102972 -0.052954 0.957058 0.285019 0 0
  phy
    0 3.180304 -17.742859 -0.709810 0.163323 0.974547 0.153571 0 0
    0 17.171627 -15.656745 1.901561 -0.210259 0.788587 0.577860 0 0
    0 15.071968 -18.750440 1.901976 0.334805 0.869352 0.363500 0 0
  phy
    0 17.171627 -15.656745 1.901561 -0.210259 0.788587 0.577860 0 0
    0 3.180304 -17.742859 -0.709810 0.163323 0.974547 0.153571 0 0
    0 2.591085 -4.241488 -2.102972 -0.052954 0.957058 0.285019 0 0
  phy
    0 1.596981 -4.241562 -2.102911 -0.048932 0.964606 -0.259117 0 0
    0 1.484957 10.153616 0.696657 -0.363005 0.668751 -0.648845 0 0
    0 2.702736 10.153705 0.696583 -0.374987 0.684656 0.625005 0 0
  phy
    0 1.596981 -4.241562 -2.102911 -0.048932 0.964606 -0.259117 0 0
    0 2.702736 10.153705 0.696583 -0.374987 0.684656 0.625005 0 0
    0 2.591085 -4.241488 -2.102972 -0.052954 0.957058 0.285019 0 0
  phy
    0 1.484957 10.153616 0.696657 -0.363005 0.668751 -0.648845 0 0
    0 1.596981 -4.241562 -2.102911 -0.048932 0.964606 -0.259117 0 0
    0 -12.981391 -15.658959 1.903400 -0.209986 0.788258 -0.578407 0 0
  phy
    0 1.596981 -4.241562 -2.102911 -0.048932 0.964606 -0.259117 0 0
    0 1.009920 -17.743018 -0.709678 0.159950 0.973465 -0.163651 0 0
    0 -12.981391 -15.658959 1.903400 -0.209986 0.788258 -0.578407 0 0
  phy
    0 2.702736 10.153705 0.696583 -0.374987 0.684656 0.625005 0 0
    0 17.171627 -15.656745 1.901561 -0.210259 0.788587 0.577860 0 0
    0 2.591085 -4.241488 -2.102972 -0.052954 0.957058 0.285019 0 0
  phy
    0 2.702736 10.153705 0.696583 -0.374987 0.684656 0.625005 0 0
    0 1.484957 10.153616 0.696657 -0.363005 0.668751 -0.648845 0 0
    0 1.485270 10.153511 5.820076 -0.437770 -0.482613 -0.758579 0 0
  phy
    0 1.484957 10.153616 0.696657 -0.363005 0.668751 -0.648845 0 0
    0 -12.981391 -15.658959 1.903400 -0.209986 0.788258 -0.578407 0 0
    0 1.485270 10.153511 5.820076 -0.437770 -0.482613 -0.758579 0 0
end
