version 1
nodes
  0 "ValveBiped" -1
  1 "ValveBiped.Bip01_R_Hand" 0
  2 "ValveBiped.Weapon_bone" 1
end
skeleton
  time 0
    0 0.000000 0.000000 0.000000 1.570660 -0.000075 -3.141519
    1 0.267086 -2.589520 10.171795 -0.161639 1.376037 -1.793719
    2 4.999995 -1.499978 -5.000006 0.000000 0.000004 0.000000
  time 1
    0 0.000000 0.000000 0.000000 1.570660 -0.000075 -3.141519
    1 0.267086 -2.589520 10.171795 -0.161639 1.376037 -1.793719
    2 4.999995 -1.499978 -5.000006 0.000000 0.000004 0.000000
end
