version 1
nodes
  0 "ValveBiped" -1
  1 "ValveBiped.Bip01_R_Hand" 0
  2 "ValveBiped.bone" 1
  3 "ValveBiped.Muzzle" 2
end
skeleton
  time 0
    0 0.000000 0.000000 0.000000 1.570796 0.000000 0.000000
    1 -1.040719 -1.864250 -1.514839 0.693781 -1.558477 0.808123
    2 2.361367 -2.987601 -2.569650 -1.562627 0.063518 -1.564194
    3 -1.904834 2.566494 13.397079 -0.036863 -0.001976 0.000045
end
triangles
  phy
    0 -1.006185 -4.256739 2.002151 -0.188208 -0.125182 -0.974119 0 0
    0 -0.629112 -1.395006 -2.446675 -0.078080 0.078619 -0.993842 0 0
    0 -0.955563 -6.197447 1.548645 0.104667 0.178350 -0.978384 0 0
  phy
    0 -1.006185 -4.256739 2.002151 -0.188208 -0.125182 -0.974119 0 0
    0 -0.955563 -6.197447 1.548645 0.104667 0.178350 -0.978384 0 0
    0 -1.009804 -6.121500 2.158441 0.061203 -0.277625 -0.958738 0 0
  phy
    0 -0.629112 -1.395006 -2.446675 -0.078080 0.078619 -0.993842 0 0
    0 -0.549262 -1.472693 -3.075588 0.140828 0.288618 -0.947031 0 0
    0 -0.955563 -6.197447 1.548645 0.104667 0.178350 -0.978384 0 0
  phy
    0 -0.576849 -1.239218 -1.735157 -0.416027 -0.148794 -0.897096 0 0
    0 -0.629112 -1.395006 -2.446675 -0.078080 0.078619 -0.993842 0 0
    0 -1.006185 -4.256739 2.002151 -0.188208 -0.125182 -0.974119 0 0
  phy
    0 -0.549262 -1.472693 -3.075588 0.140828 0.288618 -0.947031 0 0
    0 -0.629112 -1.395006 -2.446675 -0.078080 0.078619 -0.993842 0 0
    0 0.199002 -0.067128 -3.466642 -0.876797 0.218804 -0.428197 0 0
  phy
    0 -0.629112 -1.395006 -2.446675 -0.078080 0.078619 -0.993842 0 0
    0 -0.576849 -1.239218 -1.735157 -0.416027 -0.148794 -0.897096 0 0
    0 0.199002 -0.067128 -3.466642 -0.876797 0.218804 -0.428197 0 0
  phy
    0 -0.955563 -6.197447 1.548645 0.104667 0.178350 -0.978384 0 0
    0 -0.549262 -1.472693 -3.075588 0.140828 0.288618 -0.947031 0 0
    0 -0.057190 -13.792970 2.507761 0.248369 0.385012 -0.888864 0 0
  phy
    0 -0.549262 -1.472693 -3.075588 0.140828 0.288618 -0.947031 0 0
    0 -0.210650 -1.300460 -3.603916 0.249314 0.605426 -0.755846 0 0
    0 -0.057190 -13.792970 2.507761 0.248369 0.385012 -0.888864 0 0
  phy
    0 -0.210650 -1.300460 -3.603916 0.249314 0.605426 -0.755846 0 0
    0 -0.549262 -1.472693 -3.075588 0.140828 0.288618 -0.947031 0 0
    0 0.199002 -0.067128 -3.466642 -0.876797 0.218804 -0.428197 0 0
  phy
    0 0.230492 -0.741677 -4.014165 -0.315178 0.853972 0.413998 0 0
    0 1.010266 -1.472674 -3.075590 0.142318 0.351859 0.925171 0 0
    0 0.230501 -1.534814 -3.993082 0.429994 0.875850 0.219069 0 0
  phy
    0 1.010266 -1.472674 -3.075590 0.142318 0.351859 0.925171 0 0
    0 0.518471 -13.793268 2.507885 0.246894 0.335873 0.908973 0 0
    0 0.230501 -1.534814 -3.993082 0.429994 0.875850 0.219069 0 0
  phy
    0 -0.057190 -13.792970 2.507761 0.248369 0.385012 -0.888864 0 0
    0 0.230501 -1.534814 -3.993082 0.429994 0.875850 0.219069 0 0
    0 0.518471 -13.793268 2.507885 0.246894 0.335873 0.908973 0 0
  phy
    0 0.230492 -0.741677 -4.014165 -0.315178 0.853972 0.413998 0 0
    0 0.230501 -1.534814 -3.993082 0.429994 0.875850 0.219069 0 0
    0 -0.210650 -1.300460 -3.603916 0.249314 0.605426 -0.755846 0 0
  phy
    0 -0.210650 -1.300460 -3.603916 0.249314 0.605426 -0.755846 0 0
    0 0.230501 -1.534814 -3.993082 0.429994 0.875850 0.219069 0 0
    0 -0.057190 -13.792970 2.507761 0.248369 0.385012 -0.888864 0 0
  phy
    0 1.090117 -1.394989 -2.446681 -0.056030 0.076359 0.995505 0 0
    0 1.010266 -1.472674 -3.075590 0.142318 0.351859 0.925171 0 0
    0 0.615062 -0.244882 -2.030065 -0.564183 0.026704 0.825218 0 0
  phy
    0 1.010266 -1.472674 -3.075590 0.142318 0.351859 0.925171 0 0
    0 0.199002 -0.067128 -3.466642 -0.876797 0.218804 -0.428197 0 0
    0 0.615062 -0.244882 -2.030065 -0.564183 0.026704 0.825218 0 0
  phy
    0 0.615062 -0.244882 -2.030065 -0.564183 0.026704 0.825218 0 0
    0 1.037857 -1.239200 -1.735161 -0.376466 -0.179195 0.908935 0 0
    0 1.090117 -1.394989 -2.446681 -0.056030 0.076359 0.995505 0 0
  phy
    0 0.615062 -0.244882 -2.030065 -0.564183 0.026704 0.825218 0 0
    0 0.230497 -0.198762 -0.479393 -0.927088 -0.357476 -0.112781 0 0
    0 1.037857 -1.239200 -1.735161 -0.376466 -0.179195 0.908935 0 0
  phy
    0 0.230497 -0.198762 -0.479393 -0.927088 -0.357476 -0.112781 0 0
    0 0.615062 -0.244882 -2.030065 -0.564183 0.026704 0.825218 0 0
    0 0.199002 -0.067128 -3.466642 -0.876797 0.218804 -0.428197 0 0
  phy
    0 1.471067 -6.109201 2.159189 0.043800 -0.287190 0.956872 0 0
    0 1.416693 -6.197380 1.548589 0.104655 0.178112 0.978429 0 0
    0 1.467276 -4.256717 2.002144 -0.188388 -0.124924 0.974117 0 0
  phy
    0 1.416693 -6.197380 1.548589 0.104655 0.178112 0.978429 0 0
    0 1.090117 -1.394989 -2.446681 -0.056030 0.076359 0.995505 0 0
    0 1.467276 -4.256717 2.002144 -0.188388 -0.124924 0.974117 0 0
  phy
    0 1.416693 -6.197380 1.548589 0.104655 0.178112 0.978429 0 0
    0 1.010266 -1.472674 -3.075590 0.142318 0.351859 0.925171 0 0
    0 1.090117 -1.394989 -2.446681 -0.056030 0.076359 0.995505 0 0
  phy
    0 1.037857 -1.239200 -1.735161 -0.376466 -0.179195 0.908935 0 0
    0 1.467276 -4.256717 2.002144 -0.188388 -0.124924 0.974117 0 0
    0 1.090117 -1.394989 -2.446681 -0.056030 0.076359 0.995505 0 0
  phy
    0 -0.036287 -2.230912 2.454098 -0.471076 -0.291047 -0.832693 0 0
    0 -0.576849 -1.239218 -1.735157 -0.416027 -0.148794 -0.897096 0 0
    0 -1.006185 -4.256739 2.002151 -0.188208 -0.125182 -0.974119 0 0
  phy
    0 -0.576849 -1.239218 -1.735157 -0.416027 -0.148794 -0.897096 0 0
    0 -0.036287 -2.230912 2.454098 -0.471076 -0.291047 -0.832693 0 0
    0 0.230497 -0.198762 -0.479393 -0.927088 -0.357476 -0.112781 0 0
  phy
    0 -0.576849 -1.239218 -1.735157 -0.416027 -0.148794 -0.897096 0 0
    0 0.230497 -0.198762 -0.479393 -0.927088 -0.357476 -0.112781 0 0
    0 0.199002 -0.067128 -3.466642 -0.876797 0.218804 -0.428197 0 0
  phy
    0 0.230492 -0.741677 -4.014165 -0.315178 0.853972 0.413998 0 0
    0 -0.210650 -1.300460 -3.603916 0.249314 0.605426 -0.755846 0 0
    0 0.199002 -0.067128 -3.466642 -0.876797 0.218804 -0.428197 0 0
  phy
    0 0.230492 -0.741677 -4.014165 -0.315178 0.853972 0.413998 0 0
    0 0.199002 -0.067128 -3.466642 -0.876797 0.218804 -0.428197 0 0
    0 1.010266 -1.472674 -3.075590 0.142318 0.351859 0.925171 0 0
  phy
    0 -0.955563 -6.197447 1.548645 0.104667 0.178350 -0.978384 0 0
    0 -0.057190 -13.792970 2.507761 0.248369 0.385012 -0.888864 0 0
    0 -1.009804 -6.121500 2.158441 0.061203 -0.277625 -0.958738 0 0
  phy
    0 0.615115 -3.401646 3.526480 -0.103470 -0.681047 0.724893 0 0
    0 0.497339 -2.230907 2.454096 -0.494772 -0.323962 0.806380 0 0
    0 -0.154034 -3.401655 3.526483 -0.126380 -0.739382 -0.661319 0 0
  phy
    0 0.497339 -2.230907 2.454096 -0.494772 -0.323962 0.806380 0 0
    0 -0.036287 -2.230912 2.454098 -0.471076 -0.291047 -0.832693 0 0
    0 -0.154034 -3.401655 3.526483 -0.126380 -0.739382 -0.661319 0 0
  phy
    0 -0.036287 -2.230912 2.454098 -0.471076 -0.291047 -0.832693 0 0
    0 -1.006185 -4.256739 2.002151 -0.188208 -0.125182 -0.974119 0 0
    0 -0.154034 -3.401655 3.526483 -0.126380 -0.739382 -0.661319 0 0
  phy
    0 -0.036287 -2.230912 2.454098 -0.471076 -0.291047 -0.832693 0 0
    0 0.497339 -2.230907 2.454096 -0.494772 -0.323962 0.806380 0 0
    0 0.230497 -0.198762 -0.479393 -0.927088 -0.357476 -0.112781 0 0
  phy
    0 0.615115 -3.401646 3.526480 -0.103470 -0.681047 0.724893 0 0
    0 0.393576 -13.357418 4.330515 0.063596 -0.958841 0.276732 0 0
    0 1.471067 -6.109201 2.159189 0.043800 -0.287190 0.956872 0 0
  phy
    0 1.471067 -6.109201 2.159189 0.043800 -0.287190 0.956872 0 0
    0 1.467276 -4.256717 2.002144 -0.188388 -0.124924 0.974117 0 0
    0 0.615115 -3.401646 3.526480 -0.103470 -0.681047 0.724893 0 0
  phy
    0 0.615115 -3.401646 3.526480 -0.103470 -0.681047 0.724893 0 0
    0 -0.154034 -3.401655 3.526483 -0.126380 -0.739382 -0.661319 0 0
    0 0.393576 -13.357418 4.330515 0.063596 -0.958841 0.276732 0 0
  phy
    0 0.615115 -3.401646 3.526480 -0.103470 -0.681047 0.724893 0 0
    0 1.467276 -4.256717 2.002144 -0.188388 -0.124924 0.974117 0 0
    0 0.497339 -2.230907 2.454096 -0.494772 -0.323962 0.806380 0 0
  phy
    0 1.471067 -6.109201 2.159189 0.043800 -0.287190 0.956872 0 0
    0 0.518471 -13.793268 2.507885 0.246894 0.335873 0.908973 0 0
    0 1.416693 -6.197380 1.548589 0.104655 0.178112 0.978429 0 0
  phy
    0 0.393576 -13.357418 4.330515 0.063596 -0.958841 0.276732 0 0
    0 0.518471 -13.793268 2.507885 0.246894 0.335873 0.908973 0 0
    0 1.471067 -6.109201 2.159189 0.043800 -0.287190 0.956872 0 0
  phy
    0 -0.057190 -13.792970 2.507761 0.248369 0.385012 -0.888864 0 0
    0 0.518471 -13.793268 2.507885 0.246894 0.335873 0.908973 0 0
    0 0.045162 -13.706514 3.444855 0.175692 -0.275698 -0.945052 0 0
  phy
    0 0.045162 -13.706514 3.444855 0.175692 -0.275698 -0.945052 0 0
    0 0.518471 -13.793268 2.507885 0.246894 0.335873 0.908973 0 0
    0 0.393576 -13.357418 4.330515 0.063596 -0.958841 0.276732 0 0
  phy
    0 -0.057190 -13.792970 2.507761 0.248369 0.385012 -0.888864 0 0
    0 0.045162 -13.706514 3.444855 0.175692 -0.275698 -0.945052 0 0
    0 -1.009804 -6.121500 2.158441 0.061203 -0.277625 -0.958738 0 0
  phy
    0 -1.009804 -6.121500 2.158441 0.061203 -0.277625 -0.958738 0 0
    0 0.045162 -13.706514 3.444855 0.175692 -0.275698 -0.945052 0 0
    0 0.393576 -13.357418 4.330515 0.063596 -0.958841 0.276732 0 0
  phy
    0 1.037857 -1.239200 -1.735161 -0.376466 -0.179195 0.908935 0 0
    0 0.230497 -0.198762 -0.479393 -0.927088 -0.357476 -0.112781 0 0
    0 0.497339 -2.230907 2.454096 -0.494772 -0.323962 0.806380 0 0
  phy
    0 0.497339 -2.230907 2.454096 -0.494772 -0.323962 0.806380 0 0
    0 1.467276 -4.256717 2.002144 -0.188388 -0.124924 0.974117 0 0
    0 1.037857 -1.239200 -1.735161 -0.376466 -0.179195 0.908935 0 0
  phy
    0 -1.006185 -4.256739 2.002151 -0.188208 -0.125182 -0.974119 0 0
    0 -1.009804 -6.121500 2.158441 0.061203 -0.277625 -0.958738 0 0
    0 -0.154034 -3.401655 3.526483 -0.126380 -0.739382 -0.661319 0 0
  phy
    0 1.416693 -6.197380 1.548589 0.104655 0.178112 0.978429 0 0
    0 0.518471 -13.793268 2.507885 0.246894 0.335873 0.908973 0 0
    0 1.010266 -1.472674 -3.075590 0.142318 0.351859 0.925171 0 0
  phy
    0 -0.668301 -6.092347 2.750140 0.003251 -0.534985 -0.844855 0 0
    0 -1.009804 -6.121500 2.158441 0.061203 -0.277625 -0.958738 0 0
    0 0.393576 -13.357418 4.330515 0.063596 -0.958841 0.276732 0 0
  phy
    0 -1.009804 -6.121500 2.158441 0.061203 -0.277625 -0.958738 0 0
    0 -0.668301 -6.092347 2.750140 0.003251 -0.534985 -0.844855 0 0
    0 -0.154034 -3.401655 3.526483 -0.126380 -0.739382 -0.661319 0 0
  phy
    0 -0.668301 -6.092347 2.750140 0.003251 -0.534985 -0.844855 0 0
    0 0.393576 -13.357418 4.330515 0.063596 -0.958841 0.276732 0 0
    0 -0.154034 -3.401655 3.526483 -0.126380 -0.739382 -0.661319 0 0
end
