version 1
nodes
  0 "ValveBiped.Bip01_R_Hand" -1
  1 "ValveBiped.Weapon_bone" 0
end
skeleton
time 0
  0  0.312503 -16.719320 0.282628  -0.043131 2.924097 -1.600008
  1  5.000005 -1.500016 -4.999999  0.000000 -0.000003 0.000013
end
triangles
  phy
    0  0.931084 18.332123 -1.481978  -0.012796 0.943500 0.331124  0.000000 0.000000 1 0 1.000000
    0  -0.264529 -13.695281 -2.519908  0.133514 0.670400 0.729889  0.000000 0.000000 1 0 1.000000
    0  -1.518022 -13.665879 -2.502998  -0.027819 0.912749 -0.407573  0.000000 0.000000 1 0 1.000000
  phy
    0  -0.438371 18.364246 -1.463504  -0.164528 0.945372 -0.281430  0.000000 0.000000 1 0 1.000000
    0  0.931084 18.332123 -1.481978  -0.012796 0.943500 0.331124  0.000000 0.000000 1 0 1.000000
    0  -1.518022 -13.665879 -2.502998  -0.027819 0.912749 -0.407573  0.000000 0.000000 1 0 1.000000
  phy
    0  -0.264529 -13.695281 -2.519908  0.133514 0.670400 0.729889  0.000000 0.000000 1 0 1.000000
    0  0.931084 18.332123 -1.481978  -0.012796 0.943500 0.331124  0.000000 0.000000 1 0 1.000000
    0  1.180043 9.380092 -1.699049  0.105495 0.001627 0.994419  0.000000 0.000000 1 0 1.000000
  phy
    0  0.931084 18.332123 -1.481978  -0.012796 0.943500 0.331124  0.000000 0.000000 1 0 1.000000
    0  -0.438371 18.364246 -1.463504  -0.164528 0.945372 -0.281430  0.000000 0.000000 1 0 1.000000
    0  0.975935 18.573849 1.161917  -0.095087 -0.677453 0.729394  0.000000 0.000000 1 0 1.000000
  phy
    0  0.975935 18.573849 1.161917  -0.095087 -0.677453 0.729394  0.000000 0.000000 1 0 1.000000
    0  1.180043 9.380092 -1.699049  0.105495 0.001627 0.994419  0.000000 0.000000 1 0 1.000000
    0  0.931084 18.332123 -1.481978  -0.012796 0.943500 0.331124  0.000000 0.000000 1 0 1.000000
  phy
    0  -1.541232 -14.041129 4.795452  0.076609 -0.503183 -0.860778  0.000000 0.000000 1 0 1.000000
    0  -0.171292 -14.081203 4.763233  0.064921 -0.901532 0.427814  0.000000 0.000000 1 0 1.000000
    0  -1.805748 -1.895702 4.159678  -0.176728 -0.451573 -0.874557  0.000000 0.000000 1 0 1.000000
  phy
    0  -1.805748 -1.895702 4.159678  -0.176728 -0.451573 -0.874557  0.000000 0.000000 1 0 1.000000
    0  -0.171292 -14.081203 4.763233  0.064921 -0.901532 0.427814  0.000000 0.000000 1 0 1.000000
    0  0.835958 -2.111057 4.104851  0.080169 -0.402907 0.911723  0.000000 0.000000 1 0 1.000000
  phy
    0  0.835958 -2.111057 4.104851  0.080169 -0.402907 0.911723  0.000000 0.000000 1 0 1.000000
    0  0.975935 18.573849 1.161917  -0.095087 -0.677453 0.729394  0.000000 0.000000 1 0 1.000000
    0  -1.805748 -1.895702 4.159678  -0.176728 -0.451573 -0.874557  0.000000 0.000000 1 0 1.000000
  phy
    0  0.975935 18.573849 1.161917  -0.095087 -0.677453 0.729394  0.000000 0.000000 1 0 1.000000
    0  -0.394516 18.605995 1.180405  -0.239231 -0.203387 -0.949422  0.000000 0.000000 1 0 1.000000
    0  -1.805748 -1.895702 4.159678  -0.176728 -0.451573 -0.874557  0.000000 0.000000 1 0 1.000000
  phy
    0  -1.805748 -1.895702 4.159678  -0.176728 -0.451573 -0.874557  0.000000 0.000000 1 0 1.000000
    0  -1.359571 9.437381 -1.645373  -0.142645 0.206836 -0.967921  0.000000 0.000000 1 0 1.000000
    0  -1.905652 -2.547400 -0.068443  -0.086769 0.145807 -0.985501  0.000000 0.000000 1 0 1.000000
  phy
    0  -1.359571 9.437381 -1.645373  -0.142645 0.206836 -0.967921  0.000000 0.000000 1 0 1.000000
    0  -1.805748 -1.895702 4.159678  -0.176728 -0.451573 -0.874557  0.000000 0.000000 1 0 1.000000
    0  -0.394516 18.605995 1.180405  -0.239231 -0.203387 -0.949422  0.000000 0.000000 1 0 1.000000
  phy
    0  -1.541232 -14.041129 4.795452  0.076609 -0.503183 -0.860778  0.000000 0.000000 1 0 1.000000
    0  -1.805748 -1.895702 4.159678  -0.176728 -0.451573 -0.874557  0.000000 0.000000 1 0 1.000000
    0  -1.624464 -15.439509 2.373878  -0.004109 0.064641 -0.997900  0.000000 0.000000 1 0 1.000000
  phy
    0  -1.624464 -15.439509 2.373878  -0.004109 0.064641 -0.997900  0.000000 0.000000 1 0 1.000000
    0  -1.805748 -1.895702 4.159678  -0.176728 -0.451573 -0.874557  0.000000 0.000000 1 0 1.000000
    0  -1.905652 -2.547400 -0.068443  -0.086769 0.145807 -0.985501  0.000000 0.000000 1 0 1.000000
  phy
    0  -0.264529 -13.695281 -2.519908  0.133514 0.670400 0.729889  0.000000 0.000000 1 0 1.000000
    0  -1.562480 -15.665732 -1.452881  0.126508 0.183450 -0.974855  0.000000 0.000000 1 0 1.000000
    0  -1.518022 -13.665879 -2.502998  -0.027819 0.912749 -0.407573  0.000000 0.000000 1 0 1.000000
  phy
    0  -1.562480 -15.665732 -1.452881  0.126508 0.183450 -0.974855  0.000000 0.000000 1 0 1.000000
    0  -0.264529 -13.695281 -2.519908  0.133514 0.670400 0.729889  0.000000 0.000000 1 0 1.000000
    0  -0.308988 -15.695130 -1.469793  0.212707 -0.059529 0.975301  0.000000 0.000000 1 0 1.000000
  phy
    0  -0.264529 -13.695281 -2.519908  0.133514 0.670400 0.729889  0.000000 0.000000 1 0 1.000000
    0  1.180043 9.380092 -1.699049  0.105495 0.001627 0.994419  0.000000 0.000000 1 0 1.000000
    0  0.705533 -2.757354 -0.103922  0.146979 -0.039845 0.988337  0.000000 0.000000 1 0 1.000000
  phy
    0  0.705533 -2.757354 -0.103922  0.146979 -0.039845 0.988337  0.000000 0.000000 1 0 1.000000
    0  -0.308988 -15.695130 -1.469793  0.212707 -0.059529 0.975301  0.000000 0.000000 1 0 1.000000
    0  -0.264529 -13.695281 -2.519908  0.133514 0.670400 0.729889  0.000000 0.000000 1 0 1.000000
  phy
    0  -0.255010 -15.471629 2.355402  0.356736 -0.155169 0.921228  0.000000 0.000000 1 0 1.000000
    0  -1.624464 -15.439509 2.373878  -0.004109 0.064641 -0.997900  0.000000 0.000000 1 0 1.000000
    0  -1.562480 -15.665732 -1.452881  0.126508 0.183450 -0.974855  0.000000 0.000000 1 0 1.000000
  phy
    0  -1.562480 -15.665732 -1.452881  0.126508 0.183450 -0.974855  0.000000 0.000000 1 0 1.000000
    0  -0.308988 -15.695130 -1.469793  0.212707 -0.059529 0.975301  0.000000 0.000000 1 0 1.000000
    0  -0.255010 -15.471629 2.355402  0.356736 -0.155169 0.921228  0.000000 0.000000 1 0 1.000000
  phy
    0  -1.518022 -13.665879 -2.502998  -0.027819 0.912749 -0.407573  0.000000 0.000000 1 0 1.000000
    0  -1.562480 -15.665732 -1.452881  0.126508 0.183450 -0.974855  0.000000 0.000000 1 0 1.000000
    0  -1.905652 -2.547400 -0.068443  -0.086769 0.145807 -0.985501  0.000000 0.000000 1 0 1.000000
  phy
    0  -1.562480 -15.665732 -1.452881  0.126508 0.183450 -0.974855  0.000000 0.000000 1 0 1.000000
    0  -1.624464 -15.439509 2.373878  -0.004109 0.064641 -0.997900  0.000000 0.000000 1 0 1.000000
    0  -1.905652 -2.547400 -0.068443  -0.086769 0.145807 -0.985501  0.000000 0.000000 1 0 1.000000
  phy
    0  -0.438371 18.364246 -1.463504  -0.164528 0.945372 -0.281430  0.000000 0.000000 1 0 1.000000
    0  -1.518022 -13.665879 -2.502998  -0.027819 0.912749 -0.407573  0.000000 0.000000 1 0 1.000000
    0  -1.359571 9.437381 -1.645373  -0.142645 0.206836 -0.967921  0.000000 0.000000 1 0 1.000000
  phy
    0  0.975935 18.573849 1.161917  -0.095087 -0.677453 0.729394  0.000000 0.000000 1 0 1.000000
    0  -0.438371 18.364246 -1.463504  -0.164528 0.945372 -0.281430  0.000000 0.000000 1 0 1.000000
    0  -0.394516 18.605995 1.180405  -0.239231 -0.203387 -0.949422  0.000000 0.000000 1 0 1.000000
  phy
    0  -0.438371 18.364246 -1.463504  -0.164528 0.945372 -0.281430  0.000000 0.000000 1 0 1.000000
    0  -1.359571 9.437381 -1.645373  -0.142645 0.206836 -0.967921  0.000000 0.000000 1 0 1.000000
    0  -0.394516 18.605995 1.180405  -0.239231 -0.203387 -0.949422  0.000000 0.000000 1 0 1.000000
  phy
    0  -1.541232 -14.041129 4.795452  0.076609 -0.503183 -0.860778  0.000000 0.000000 1 0 1.000000
    0  -1.624464 -15.439509 2.373878  -0.004109 0.064641 -0.997900  0.000000 0.000000 1 0 1.000000
    0  -0.255010 -15.471629 2.355402  0.356736 -0.155169 0.921228  0.000000 0.000000 1 0 1.000000
  phy
    0  -0.255010 -15.471629 2.355402  0.356736 -0.155169 0.921228  0.000000 0.000000 1 0 1.000000
    0  -0.171292 -14.081203 4.763233  0.064921 -0.901532 0.427814  0.000000 0.000000 1 0 1.000000
    0  -1.541232 -14.041129 4.795452  0.076609 -0.503183 -0.860778  0.000000 0.000000 1 0 1.000000
  phy
    0  -1.359571 9.437381 -1.645373  -0.142645 0.206836 -0.967921  0.000000 0.000000 1 0 1.000000
    0  -1.518022 -13.665879 -2.502998  -0.027819 0.912749 -0.407573  0.000000 0.000000 1 0 1.000000
    0  -1.905652 -2.547400 -0.068443  -0.086769 0.145807 -0.985501  0.000000 0.000000 1 0 1.000000
  phy
    0  0.835958 -2.111057 4.104851  0.080169 -0.402907 0.911723  0.000000 0.000000 1 0 1.000000
    0  -0.171292 -14.081203 4.763233  0.064921 -0.901532 0.427814  0.000000 0.000000 1 0 1.000000
    0  -0.255010 -15.471629 2.355402  0.356736 -0.155169 0.921228  0.000000 0.000000 1 0 1.000000
  phy
    0  -0.255010 -15.471629 2.355402  0.356736 -0.155169 0.921228  0.000000 0.000000 1 0 1.000000
    0  -0.308988 -15.695130 -1.469793  0.212707 -0.059529 0.975301  0.000000 0.000000 1 0 1.000000
    0  0.835958 -2.111057 4.104851  0.080169 -0.402907 0.911723  0.000000 0.000000 1 0 1.000000
  phy
    0  0.835958 -2.111057 4.104851  0.080169 -0.402907 0.911723  0.000000 0.000000 1 0 1.000000
    0  -0.308988 -15.695130 -1.469793  0.212707 -0.059529 0.975301  0.000000 0.000000 1 0 1.000000
    0  0.705533 -2.757354 -0.103922  0.146979 -0.039845 0.988337  0.000000 0.000000 1 0 1.000000
  phy
    0  0.705533 -2.757354 -0.103922  0.146979 -0.039845 0.988337  0.000000 0.000000 1 0 1.000000
    0  1.180043 9.380092 -1.699049  0.105495 0.001627 0.994419  0.000000 0.000000 1 0 1.000000
    0  0.835958 -2.111057 4.104851  0.080169 -0.402907 0.911723  0.000000 0.000000 1 0 1.000000
  phy
    0  0.835958 -2.111057 4.104851  0.080169 -0.402907 0.911723  0.000000 0.000000 1 0 1.000000
    0  1.180043 9.380092 -1.699049  0.105495 0.001627 0.994419  0.000000 0.000000 1 0 1.000000
    0  0.975935 18.573849 1.161917  -0.095087 -0.677453 0.729394  0.000000 0.000000 1 0 1.000000
end
