version 1
nodes
  0 "ValveBiped.Bip01_Spine4" -1
  1 "ValveBiped.Bip01_L_Clavicle" 0
  2 "ValveBiped.Bip01_L_UpperArm" 1
  3 "ValveBiped.Bip01_L_Forearm" 2
  4 "ValveBiped.Bip01_L_Hand" 3
  5 "ValveBiped.Bip01_L_Finger4" 4
  6 "ValveBiped.Bip01_L_Finger41" 5
  7 "ValveBiped.Bip01_L_Finger42" 6
  8 "ValveBiped.Bip01_L_Finger3" 4
  9 "ValveBiped.Bip01_L_Finger31" 8
  10 "ValveBiped.Bip01_L_Finger32" 9
  11 "ValveBiped.Bip01_L_Finger2" 4
  12 "ValveBiped.Bip01_L_Finger21" 11
  13 "ValveBiped.Bip01_L_Finger22" 12
  14 "ValveBiped.Bip01_L_Finger1" 4
  15 "ValveBiped.Bip01_L_Finger11" 14
  16 "ValveBiped.Bip01_L_Finger12" 15
  17 "ValveBiped.Bip01_L_Finger0" 4
  18 "ValveBiped.Bip01_L_Finger01" 17
  19 "ValveBiped.Bip01_L_Finger02" 18
  20 "ValveBiped.Bip01_R_Clavicle" 0
  21 "ValveBiped.Bip01_R_UpperArm" 20
  22 "ValveBiped.Bip01_R_Forearm" 21
  23 "ValveBiped.Bip01_R_Hand" 22
  24 "ValveBiped.Bip01_R_Finger4" 23
  25 "ValveBiped.Bip01_R_Finger41" 24
  26 "ValveBiped.Bip01_R_Finger42" 25
  27 "ValveBiped.Bip01_R_Finger3" 23
  28 "ValveBiped.Bip01_R_Finger31" 27
  29 "ValveBiped.Bip01_R_Finger32" 28
  30 "ValveBiped.Bip01_R_Finger2" 23
  31 "ValveBiped.Bip01_R_Finger21" 30
  32 "ValveBiped.Bip01_R_Finger22" 31
  33 "ValveBiped.Bip01_R_Finger1" 23
  34 "ValveBiped.Bip01_R_Finger11" 33
  35 "ValveBiped.Bip01_R_Finger12" 34
  36 "ValveBiped.Bip01_R_Finger0" 23
  37 "ValveBiped.Bip01_R_Finger01" 36
  38 "ValveBiped.Bip01_R_Finger02" 37
  39 "Python" -1
  40 "Cylinder_release" 39
  41 "Cylinder" 40
  42 "Bullet1" 41
  43 "Bullet2" 41
  44 "Bullet3" 41
  45 "Bullet4" 41
  46 "Bullet5" 41
  47 "Bullet6" 41
end
skeleton
  time 0
    0 -0.999512 8.335938 -6.640625 -1.570760 -1.391893 -1.570827
    1 2.033349 1.000767 1.937660 1.596637 -1.286515 2.942961
    2 6.321118 -0.964873 1.468795 -0.680424 -0.882050 -1.362978
    3 11.692554 0.000001 0.000000 0.000000 0.000000 -1.094544
    4 11.481670 0.000001 -0.000031 -0.515506 -0.262730 1.401516
    5 3.859711 -0.142405 -1.191975 -0.491314 0.054897 -1.089461
    6 1.312555 -0.000002 0.000000 0.000000 0.000000 -0.435484
    7 0.729363 -0.000002 -0.000002 0.000000 0.000000 -0.240207
    8 3.942337 0.046767 -0.431443 -0.150125 0.076994 -0.776666
    9 1.539097 0.000000 0.000000 0.000000 0.000000 -0.409593
    10 1.196325 -0.000002 -0.000001 0.000000 0.000000 -0.581464
    11 3.883698 -0.046765 0.431443 0.085348 0.023775 -0.564480
    12 1.719570 -0.000004 -0.000001 0.000000 0.000000 -0.762886
    13 1.209169 -0.000004 0.000000 0.000000 0.000000 -0.256535
    14 3.859863 -0.137946 1.332466 0.483960 -0.048432 -0.425646
    15 1.719431 0.000002 0.000000 0.000000 0.000000 -0.496225
    16 1.099667 0.000000 -0.000001 0.000000 0.000000 -0.354423
    17 0.806053 -0.348926 1.321258 -1.287532 -0.366649 -0.722385
    18 1.789778 -0.000002 0.000002 0.000000 0.000000 0.212596
    19 1.207005 0.000000 0.000002 0.000000 0.000000 0.186299
    20 2.033356 1.000772 -1.937610 -2.129147 1.252455 2.502299
    21 6.028145 0.000000 0.000000 1.316216 1.157113 -1.501906
    22 11.692554 0.000001 0.000002 0.000000 0.000000 -0.475453
    23 11.481699 0.000001 0.000001 -1.530025 -0.114384 0.771567
    24 3.859680 -0.132567 1.193109 0.076298 0.048710 -1.410444
    25 1.312555 -0.000002 0.000002 0.000000 0.000000 -0.439672
    26 0.729365 0.000000 -0.000001 0.000000 0.000000 -1.116882
    27 3.942307 0.050327 0.431044 0.032629 0.047810 -1.244398
    28 1.539099 -0.000002 0.000000 0.000000 0.000000 -0.858632
    29 1.196321 0.000010 0.000000 0.000000 0.000000 -1.041589
    30 3.883659 -0.050321 -0.431042 0.013663 -0.048012 -1.095524
    31 1.719578 0.000002 0.000000 -0.000001 -0.007971 -1.239096
    32 1.209185 0.000002 0.000000 0.000000 -0.004460 -0.914486
    33 3.859840 -0.148937 -1.331282 -0.130416 -0.094966 -0.552749
    34 1.719421 0.000002 0.000000 0.000000 -0.006613 -0.362970
    35 1.099669 0.000002 -0.000001 0.000000 -0.004211 -0.767908
    36 0.806023 -0.359837 -1.318334 1.402404 0.526435 -0.917775
    37 1.789782 0.000000 -0.000004 -0.170078 0.039352 0.399730
    38 1.206999 0.000002 0.000000 0.000000 0.000000 1.061034
    39 1.872620 -20.598221 -13.791632 2.258536 -0.182207 0.505059
    40 0.025545 -1.273521 1.753304 0.000000 0.000000 0.000000
    41 0.001032 1.440453 -1.526783 0.000000 0.000000 0.000000
    42 0.004413 0.696487 -1.430595 0.000000 0.000000 0.000000
    43 0.580660 0.349014 -1.430595 0.000000 0.000000 0.000000
    44 0.583444 -0.305904 -1.430599 0.000000 0.000000 0.000000
    45 0.005318 -0.648720 -1.430599 0.000000 0.000000 0.000000
    46 -0.574618 -0.303123 -1.430601 0.000000 0.000000 0.000000
    47 -0.573714 0.348118 -1.430595 0.000000 0.000000 0.000000
  time 1
    0 -0.999512 8.335938 -6.640625 -1.570760 -1.391893 -1.570827
    1 2.033349 1.000767 1.937660 1.596637 -1.286515 2.942961
    2 6.321118 -0.964873 1.468795 -0.676178 -0.888673 -1.370677
    3 11.692554 0.000001 0.000000 0.000000 0.000000 -1.089342
    4 11.481670 0.000001 -0.000031 -0.509897 -0.270280 1.398575
    5 3.859711 -0.142405 -1.191975 -0.491314 0.054897 -1.089461
    6 1.312555 -0.000002 0.000000 0.000000 0.000000 -0.435484
    7 0.729363 -0.000002 -0.000002 0.000000 0.000000 -0.240207
    8 3.942337 0.046767 -0.431443 -0.150125 0.076994 -0.776666
    9 1.539097 0.000000 0.000000 0.000000 0.000000 -0.409593
    10 1.196325 -0.000002 -0.000001 0.000000 0.000000 -0.581464
    11 3.883698 -0.046765 0.431443 0.085348 0.023775 -0.564480
    12 1.719570 -0.000004 -0.000001 0.000000 0.000000 -0.762886
    13 1.209169 -0.000004 0.000000 0.000000 0.000000 -0.256535
    14 3.859863 -0.137946 1.332466 0.483960 -0.048432 -0.425646
    15 1.719431 0.000002 0.000000 0.000000 0.000000 -0.496225
    16 1.099667 0.000000 -0.000001 0.000000 0.000000 -0.354423
    17 0.806053 -0.348926 1.321258 -1.287532 -0.366649 -0.722385
    18 1.789778 -0.000002 0.000002 0.000000 0.000000 0.212596
    19 1.207005 0.000000 0.000002 0.000000 0.000000 0.186299
    20 2.033356 1.000772 -1.937610 -2.129147 1.252455 2.502299
    21 6.028145 0.000000 0.000000 1.320319 1.161862 -1.497773
    22 11.692554 0.000001 0.000002 0.000000 0.000000 -0.478665
    23 11.481699 0.000001 0.000001 -1.527971 -0.117483 0.768551
    24 3.859680 -0.132567 1.193109 0.076298 0.048710 -1.410444
    25 1.312555 -0.000002 0.000002 0.000000 0.000000 -0.439672
    26 0.729365 0.000000 -0.000001 0.000000 0.000000 -1.116882
    27 3.942307 0.050327 0.431044 0.032629 0.047810 -1.244398
    28 1.539099 -0.000002 0.000000 0.000000 0.000000 -0.858632
    29 1.196321 0.000010 0.000000 0.000000 0.000000 -1.041589
    30 3.883659 -0.050321 -0.431042 0.013675 -0.048012 -1.095524
    31 1.719578 0.000002 0.000000 -0.000001 -0.007971 -1.239096
    32 1.209185 0.000002 0.000000 0.000000 -0.004460 -0.914486
    33 3.859840 -0.148937 -1.331282 -0.130416 -0.094966 -0.552749
    34 1.719421 0.000002 0.000000 0.000000 -0.006613 -0.362970
    35 1.099669 0.000002 -0.000001 0.000000 -0.004211 -0.767908
    36 0.806023 -0.359837 -1.318334 1.402404 0.526435 -0.917775
    37 1.789782 0.000000 -0.000004 -0.170078 0.039352 0.399730
    38 1.206999 0.000002 0.000000 0.000000 0.000000 1.061034
    39 1.821838 -20.656816 -13.588501 2.248097 -0.182648 0.505198
    40 0.025545 -1.273521 1.753304 0.000000 0.000000 0.000000
    41 0.001032 1.440453 -1.526783 0.000000 0.000000 0.000000
    42 0.004413 0.696487 -1.430595 0.000000 0.000000 0.000000
    43 0.580660 0.349014 -1.430595 0.000000 0.000000 0.000000
    44 0.583444 -0.305904 -1.430599 0.000000 0.000000 0.000000
    45 0.005318 -0.648720 -1.430599 0.000000 0.000000 0.000000
    46 -0.574618 -0.303123 -1.430601 0.000000 0.000000 0.000000
    47 -0.573714 0.348118 -1.430595 0.000000 0.000000 0.000000
  time 2
    0 -0.999512 8.335938 -6.640625 -1.570760 -1.391893 -1.570827
    1 2.033349 1.000767 1.937660 1.596637 -1.286515 2.942961
    2 6.321118 -0.964873 1.468795 -0.663440 -0.906533 -1.392632
    3 11.692554 0.000001 0.000000 0.000000 0.000000 -1.074985
    4 11.481670 0.000001 -0.000031 -0.494917 -0.290946 1.390083
    5 3.859711 -0.142405 -1.191975 -0.491314 0.054897 -1.089461
    6 1.312555 -0.000002 0.000000 0.000000 0.000000 -0.435484
    7 0.729363 -0.000002 -0.000002 0.000000 0.000000 -0.240207
    8 3.942337 0.046767 -0.431443 -0.150125 0.076994 -0.776666
    9 1.539097 0.000000 0.000000 0.000000 0.000000 -0.409593
    10 1.196325 -0.000002 -0.000001 0.000000 0.000000 -0.581464
    11 3.883698 -0.046765 0.431443 0.085348 0.023775 -0.564480
    12 1.719570 -0.000004 -0.000001 0.000000 0.000000 -0.762886
    13 1.209169 -0.000004 0.000000 0.000000 0.000000 -0.256535
    14 3.859863 -0.137946 1.332466 0.483960 -0.048432 -0.425646
    15 1.719431 0.000002 0.000000 0.000000 0.000000 -0.496225
    16 1.099667 0.000000 -0.000001 0.000000 0.000000 -0.354423
    17 0.806053 -0.348926 1.321258 -1.287532 -0.366649 -0.722385
    18 1.789778 -0.000002 0.000002 0.000000 0.000000 0.212596
    19 1.207005 0.000000 0.000002 0.000000 0.000000 0.186299
    20 2.033356 1.000772 -1.937610 -2.129147 1.252455 2.502299
    21 6.028145 0.000000 0.000000 1.332727 1.174051 -1.485514
    22 11.692554 0.000001 0.000002 0.000000 0.000000 -0.488639
    23 11.481699 0.000001 0.000001 -1.522144 -0.125971 0.761767
    24 3.859680 -0.132567 1.193109 0.076298 0.048710 -1.410444
    25 1.312555 -0.000002 0.000002 0.000000 0.000000 -0.439672
    26 0.729365 0.000000 -0.000001 0.000000 0.000000 -1.116882
    27 3.942307 0.050327 0.431044 0.032641 0.047810 -1.244398
    28 1.539099 -0.000002 0.000000 0.000000 0.000000 -0.858632
    29 1.196321 0.000010 0.000000 0.000000 0.000000 -1.041589
    30 3.883659 -0.050321 -0.431042 0.013675 -0.048012 -1.095524
    31 1.719578 0.000002 0.000000 -0.000001 -0.007971 -1.239096
    32 1.209185 0.000002 0.000000 0.000000 -0.004460 -0.914486
    33 3.859840 -0.148937 -1.331282 -0.130416 -0.094966 -0.552749
    34 1.719421 0.000002 0.000000 0.000000 -0.006613 -0.362970
    35 1.099669 0.000002 -0.000001 0.000000 -0.004211 -0.767908
    36 0.806023 -0.359837 -1.318334 1.402404 0.526435 -0.917775
    37 1.789782 0.000000 -0.000004 -0.170078 0.039352 0.399730
    38 1.206999 0.000002 0.000000 0.000000 0.000000 1.061034
    39 1.669489 -20.816977 -13.029890 2.219498 -0.183319 0.505688
    40 0.025545 -1.273521 1.753304 0.000000 0.000000 0.000000
    41 0.001032 1.440453 -1.526783 0.000000 0.000000 0.000000
    42 0.004413 0.696487 -1.430595 0.000000 0.000000 0.000000
    43 0.580660 0.349014 -1.430595 0.000000 0.000000 0.000000
    44 0.583444 -0.305904 -1.430599 0.000000 0.000000 0.000000
    45 0.005318 -0.648720 -1.430599 0.000000 0.000000 0.000000
    46 -0.574618 -0.303123 -1.430601 0.000000 0.000000 0.000000
    47 -0.573714 0.348118 -1.430595 0.000000 0.000000 0.000000
  time 3
    0 -0.999512 8.335938 -6.640625 -1.570760 -1.391893 -1.570827
    1 2.033349 1.000767 1.937660 1.596637 -1.286515 2.942961
    2 6.321118 -0.964873 1.468795 -0.641631 -0.932295 -1.427352
    3 11.692554 0.000001 0.000000 0.000000 0.000000 -1.053934
    4 11.481670 0.000001 -0.000031 -0.473500 -0.321719 1.375792
    5 3.859711 -0.142405 -1.191975 -0.491314 0.054897 -1.089461
    6 1.312555 -0.000002 0.000000 0.000000 0.000000 -0.435484
    7 0.729363 -0.000002 -0.000002 0.000000 0.000000 -0.240207
    8 3.942337 0.046767 -0.431443 -0.150125 0.076994 -0.776666
    9 1.539097 0.000000 0.000000 0.000000 0.000000 -0.409593
    10 1.196325 -0.000002 -0.000001 0.000000 0.000000 -0.581464
    11 3.883698 -0.046765 0.431443 0.085348 0.023775 -0.564480
    12 1.719570 -0.000004 -0.000001 0.000000 0.000000 -0.762886
    13 1.209169 -0.000004 0.000000 0.000000 0.000000 -0.256535
    14 3.859863 -0.137946 1.332466 0.483960 -0.048432 -0.425646
    15 1.719431 0.000002 0.000000 0.000000 0.000000 -0.496225
    16 1.099667 0.000000 -0.000001 0.000000 0.000000 -0.354423
    17 0.806053 -0.348926 1.321258 -1.287532 -0.366649 -0.722385
    18 1.789778 -0.000002 0.000002 0.000000 0.000000 0.212596
    19 1.207005 0.000000 0.000002 0.000000 0.000000 0.186299
    20 2.033356 1.000772 -1.937610 -2.129147 1.252455 2.502299
    21 6.028145 0.000000 0.000000 1.354041 1.190316 -1.464346
    22 11.692554 0.000001 0.000002 0.000000 0.000000 -0.507278
    23 11.481699 0.000001 0.000001 -1.513882 -0.137492 0.752358
    24 3.859680 -0.132567 1.193109 0.076298 0.048710 -1.410444
    25 1.312555 -0.000002 0.000002 0.000000 0.000000 -0.439672
    26 0.729365 0.000000 -0.000001 0.000000 0.000000 -1.116882
    27 3.942307 0.050327 0.431044 0.032641 0.047810 -1.244398
    28 1.539099 -0.000002 0.000000 0.000000 0.000000 -0.858632
    29 1.196321 0.000010 0.000000 0.000000 0.000000 -1.041589
    30 3.883659 -0.050321 -0.431042 0.013675 -0.048012 -1.095524
    31 1.719578 0.000002 0.000000 -0.000001 -0.007971 -1.239096
    32 1.209185 0.000002 0.000000 0.000000 -0.004460 -0.914486
    33 3.859840 -0.148937 -1.331282 -0.130416 -0.094966 -0.552749
    34 1.719421 0.000002 0.000000 0.000000 -0.006613 -0.362970
    35 1.099669 0.000002 -0.000001 0.000000 -0.004211 -0.767908
    36 0.806023 -0.359837 -1.318334 1.402404 0.526435 -0.917775
    37 1.789782 0.000000 -0.000004 -0.170078 0.039352 0.399730
    38 1.206999 0.000002 0.000000 0.000000 0.000000 1.061034
    39 1.427294 -21.020109 -12.193927 2.176457 -0.182993 0.506386
    40 0.025545 -1.273521 1.753304 0.000000 0.000000 0.000000
    41 0.001032 1.440453 -1.526783 0.000000 0.000000 0.000000
    42 0.004413 0.696487 -1.430595 0.000000 0.000000 0.000000
    43 0.580660 0.349014 -1.430595 0.000000 0.000000 0.000000
    44 0.583444 -0.305904 -1.430599 0.000000 0.000000 0.000000
    45 0.005318 -0.648720 -1.430599 0.000000 0.000000 0.000000
    46 -0.574618 -0.303123 -1.430601 0.000000 0.000000 0.000000
    47 -0.573714 0.348118 -1.430595 0.000000 0.000000 0.000000
  time 4
    0 -0.999512 8.335938 -6.640625 -1.570760 -1.391893 -1.570827
    1 2.033349 1.000767 1.937660 1.596637 -1.286515 2.942961
    2 6.321118 -0.964873 1.468795 -0.609979 -0.962761 -1.473944
    3 11.692554 0.000001 0.000000 0.000000 0.000000 -1.028769
    4 11.481670 0.000001 -0.000031 -0.447621 -0.359981 1.355702
    5 3.859711 -0.142405 -1.191975 -0.491314 0.054897 -1.089461
    6 1.312555 -0.000002 0.000000 0.000000 0.000000 -0.435484
    7 0.729363 -0.000002 -0.000002 0.000000 0.000000 -0.240207
    8 3.942337 0.046767 -0.431443 -0.150125 0.076994 -0.776666
    9 1.539097 0.000000 0.000000 0.000000 0.000000 -0.409593
    10 1.196325 -0.000002 -0.000001 0.000000 0.000000 -0.581464
    11 3.883698 -0.046765 0.431443 0.085348 0.023775 -0.564480
    12 1.719570 -0.000004 -0.000001 0.000000 0.000000 -0.762886
    13 1.209169 -0.000004 0.000000 0.000000 0.000000 -0.256535
    14 3.859863 -0.137946 1.332466 0.483960 -0.048432 -0.425646
    15 1.719431 0.000002 0.000000 0.000000 0.000000 -0.496225
    16 1.099667 0.000000 -0.000001 0.000000 0.000000 -0.354423
    17 0.806053 -0.348926 1.321258 -1.287532 -0.366649 -0.722385
    18 1.789778 -0.000002 0.000002 0.000000 0.000000 0.212596
    19 1.207005 0.000000 0.000002 0.000000 0.000000 0.186299
    20 2.033356 1.000772 -1.937610 -2.129147 1.252455 2.502299
    21 6.028145 0.000000 0.000000 1.384962 1.207570 -1.433712
    22 11.692554 0.000001 0.000002 0.000000 0.000000 -0.536060
    23 11.481699 0.000001 0.000001 -1.504044 -0.150238 0.742614
    24 3.859680 -0.132567 1.193109 0.076298 0.048710 -1.410444
    25 1.312555 -0.000002 0.000002 0.000000 0.000000 -0.439672
    26 0.729365 0.000000 -0.000001 0.000000 0.000000 -1.116882
    27 3.942307 0.050327 0.431044 0.032629 0.047810 -1.244398
    28 1.539099 -0.000002 0.000000 0.000000 0.000000 -0.858632
    29 1.196321 0.000010 0.000000 0.000000 0.000000 -1.041589
    30 3.883659 -0.050321 -0.431042 0.013663 -0.048012 -1.095524
    31 1.719578 0.000002 0.000000 -0.000001 -0.007971 -1.239096
    32 1.209185 0.000002 0.000000 0.000000 -0.004460 -0.914486
    33 3.859840 -0.148937 -1.331282 -0.130416 -0.094966 -0.552749
    34 1.719421 0.000002 0.000000 0.000000 -0.006613 -0.362970
    35 1.099669 0.000002 -0.000001 0.000000 -0.004211 -0.767908
    36 0.806023 -0.359837 -1.318334 1.402404 0.526435 -0.917775
    37 1.789782 0.000000 -0.000004 -0.170078 0.039352 0.399730
    38 1.206999 0.000002 0.000000 0.000000 0.000000 1.061034
    39 1.106972 -21.223240 -11.143114 2.122310 -0.180461 0.507225
    40 0.025545 -1.273521 1.753304 0.000000 0.000000 0.000000
    41 0.001032 1.440453 -1.526783 0.000000 0.000000 0.000000
    42 0.004413 0.696487 -1.430595 0.000000 0.000000 0.000000
    43 0.580660 0.349014 -1.430595 0.000000 0.000000 0.000000
    44 0.583444 -0.305904 -1.430599 0.000000 0.000000 0.000000
    45 0.005318 -0.648720 -1.430599 0.000000 0.000000 0.000000
    46 -0.574618 -0.303123 -1.430601 0.000000 0.000000 0.000000
    47 -0.573714 0.348118 -1.430595 0.000000 0.000000 0.000000
  time 5
    0 -0.999512 8.335938 -6.640625 -1.570760 -1.391893 -1.570827
    1 2.033349 1.000767 1.937660 1.596637 -1.286515 2.942961
    2 6.321118 -0.964873 1.468795 -0.568339 -0.994873 -1.530917
    3 11.692554 0.000001 0.000000 0.000000 0.000000 -1.002354
    4 11.481670 0.000001 -0.000031 -0.419001 -0.402949 1.330102
    5 3.859711 -0.142405 -1.191975 -0.491314 0.054897 -1.089461
    6 1.312555 -0.000002 0.000000 0.000000 0.000000 -0.435484
    7 0.729363 -0.000002 -0.000002 0.000000 0.000000 -0.240207
    8 3.942337 0.046767 -0.431443 -0.150125 0.076994 -0.776666
    9 1.539097 0.000000 0.000000 0.000000 0.000000 -0.409593
    10 1.196325 -0.000002 -0.000001 0.000000 0.000000 -0.581464
    11 3.883698 -0.046765 0.431443 0.085348 0.023775 -0.564480
    12 1.719570 -0.000004 -0.000001 0.000000 0.000000 -0.762886
    13 1.209169 -0.000004 0.000000 0.000000 0.000000 -0.256535
    14 3.859863 -0.137946 1.332466 0.483960 -0.048432 -0.425646
    15 1.719431 0.000002 0.000000 0.000000 0.000000 -0.496225
    16 1.099667 0.000000 -0.000001 0.000000 0.000000 -0.354423
    17 0.806053 -0.348926 1.321258 -1.287532 -0.366649 -0.722385
    18 1.789778 -0.000002 0.000002 0.000000 0.000000 0.212596
    19 1.207005 0.000000 0.000002 0.000000 0.000000 0.186299
    20 2.033356 1.000772 -1.937610 -2.129147 1.252455 2.502299
    21 6.028145 0.000000 0.000000 1.425088 1.223360 -1.394086
    22 11.692554 0.000001 0.000002 0.000000 0.000000 -0.575662
    23 11.481699 0.000001 0.000001 -1.493584 -0.162397 0.733875
    24 3.859680 -0.132567 1.193109 0.076298 0.048710 -1.410444
    25 1.312555 -0.000002 0.000002 0.000000 0.000000 -0.439672
    26 0.729365 0.000000 -0.000001 0.000000 0.000000 -1.116909
    27 3.942307 0.050327 0.431044 0.032641 0.047810 -1.244398
    28 1.539099 -0.000002 0.000000 0.000000 0.000000 -0.858632
    29 1.196321 0.000010 0.000000 0.000000 0.000000 -1.041589
    30 3.883659 -0.050321 -0.431042 0.013675 -0.048012 -1.095524
    31 1.719578 0.000002 0.000000 -0.000001 -0.007971 -1.239096
    32 1.209185 0.000002 0.000000 0.000000 -0.004460 -0.914486
    33 3.859840 -0.148937 -1.331282 -0.130416 -0.094966 -0.552749
    34 1.719421 0.000002 0.000000 0.000000 -0.006613 -0.362970
    35 1.099669 0.000002 -0.000001 0.000000 -0.004211 -0.767908
    36 0.806023 -0.359837 -1.318334 1.402404 0.526435 -0.917775
    37 1.789782 0.000000 -0.000004 -0.170078 0.039352 0.399730
    38 1.206999 0.000002 0.000000 0.000000 0.000000 1.061034
    39 0.720242 -21.375588 -9.936046 2.060251 -0.174727 0.507714
    40 0.025545 -1.273521 1.753304 0.000000 0.000000 0.000000
    41 0.001032 1.440453 -1.526783 0.000000 0.000000 0.000000
    42 0.004413 0.696487 -1.430595 0.000000 0.000000 0.000000
    43 0.580660 0.349014 -1.430595 0.000000 0.000000 0.000000
    44 0.583444 -0.305904 -1.430599 0.000000 0.000000 0.000000
    45 0.005318 -0.648720 -1.430599 0.000000 0.000000 0.000000
    46 -0.574618 -0.303123 -1.430601 0.000000 0.000000 0.000000
    47 -0.573714 0.348118 -1.430595 0.000000 0.000000 0.000000
  time 6
    0 -0.999512 8.335938 -6.640625 -1.570760 -1.391893 -1.570827
    1 2.033349 1.000767 1.937660 1.596637 -1.286515 2.942961
    2 6.321118 -0.964873 1.468795 -0.518256 -1.025705 -1.595937
    3 11.692554 0.000001 0.000000 0.000000 0.000000 -0.977472
    4 11.481670 0.000001 -0.000031 -0.388724 -0.448045 1.299573
    5 3.859711 -0.142405 -1.191975 -0.491314 0.054897 -1.089461
    6 1.312555 -0.000002 0.000000 0.000000 0.000000 -0.435484
    7 0.729363 -0.000002 -0.000002 0.000000 0.000000 -0.240207
    8 3.942337 0.046767 -0.431443 -0.150125 0.076994 -0.776666
    9 1.539097 0.000000 0.000000 0.000000 0.000000 -0.409593
    10 1.196325 -0.000002 -0.000001 0.000000 0.000000 -0.581464
    11 3.883698 -0.046765 0.431443 0.085348 0.023775 -0.564480
    12 1.719570 -0.000004 -0.000001 0.000000 0.000000 -0.762886
    13 1.209169 -0.000004 0.000000 0.000000 0.000000 -0.256535
    14 3.859863 -0.137946 1.332466 0.483960 -0.048432 -0.425646
    15 1.719431 0.000002 0.000000 0.000000 0.000000 -0.496225
    16 1.099667 0.000000 -0.000001 0.000000 0.000000 -0.354423
    17 0.806053 -0.348926 1.321258 -1.287532 -0.366649 -0.722385
    18 1.789778 -0.000002 0.000002 0.000000 0.000000 0.212596
    19 1.207005 0.000000 0.000002 0.000000 0.000000 0.186299
    20 2.033356 1.000772 -1.937610 -2.129147 1.252455 2.502299
    21 6.028145 0.000000 0.000000 1.472469 1.236182 -1.347423
    22 11.692554 0.000001 0.000002 0.000000 0.000000 -0.624858
    23 11.481699 0.000001 0.000001 -1.483173 -0.172330 0.726783
    24 3.859680 -0.132567 1.193109 0.076298 0.048710 -1.410444
    25 1.312555 -0.000002 0.000002 0.000000 0.000000 -0.439672
    26 0.729365 0.000000 -0.000001 0.000000 0.000000 -1.116882
    27 3.942307 0.050327 0.431044 0.032641 0.047810 -1.244398
    28 1.539099 -0.000002 0.000000 0.000000 0.000000 -0.858632
    29 1.196321 0.000010 0.000000 0.000000 0.000000 -1.041589
    30 3.883659 -0.050321 -0.431042 0.013675 -0.048012 -1.095524
    31 1.719578 0.000002 0.000000 -0.000001 -0.007971 -1.239096
    32 1.209185 0.000002 0.000000 0.000000 -0.004460 -0.914486
    33 3.859840 -0.148937 -1.331282 -0.130416 -0.094966 -0.552749
    34 1.719421 0.000002 0.000000 0.000000 -0.006613 -0.362970
    35 1.099669 0.000002 -0.000001 0.000000 -0.004211 -0.767908
    36 0.806023 -0.359837 -1.318334 1.402404 0.526435 -0.917775
    37 1.789782 0.000000 -0.000004 -0.170078 0.039352 0.399730
    38 1.206999 0.000002 0.000000 0.000000 0.000000 1.061034
    39 0.282728 -21.445903 -8.646944 1.993473 -0.165311 0.506945
    40 0.025545 -1.273521 1.753304 0.000000 0.000000 0.000000
    41 0.001032 1.440453 -1.526783 0.000000 0.000000 0.000000
    42 0.004413 0.696487 -1.430595 0.000000 0.000000 0.000000
    43 0.580660 0.349014 -1.430595 0.000000 0.000000 0.000000
    44 0.583444 -0.305904 -1.430599 0.000000 0.000000 0.000000
    45 0.005318 -0.648720 -1.430599 0.000000 0.000000 0.000000
    46 -0.574618 -0.303123 -1.430601 0.000000 0.000000 0.000000
    47 -0.573714 0.348118 -1.430595 0.000000 0.000000 0.000000
  time 7
    0 -0.999512 8.335938 -6.640625 -1.570760 -1.391893 -1.570827
    1 2.033349 1.000767 1.937660 1.596637 -1.286515 2.942961
    2 6.321118 -0.964873 1.468795 -0.462768 -1.052928 -1.664881
    3 11.692554 0.000001 0.000000 0.000000 0.000000 -0.956663
    4 11.481670 0.000001 -0.000031 -0.357108 -0.492486 1.264487
    5 3.859711 -0.142405 -1.191975 -0.491314 0.054897 -1.089461
    6 1.312555 -0.000002 0.000000 0.000000 0.000000 -0.435484
    7 0.729363 -0.000002 -0.000002 0.000000 0.000000 -0.240207
    8 3.942337 0.046767 -0.431443 -0.150125 0.076994 -0.776666
    9 1.539097 0.000000 0.000000 0.000000 0.000000 -0.409593
    10 1.196325 -0.000002 -0.000001 0.000000 0.000000 -0.581464
    11 3.883698 -0.046765 0.431443 0.085348 0.023775 -0.564480
    12 1.719570 -0.000004 -0.000001 0.000000 0.000000 -0.762886
    13 1.209169 -0.000004 0.000000 0.000000 0.000000 -0.256535
    14 3.859863 -0.137946 1.332466 0.483960 -0.048432 -0.425646
    15 1.719431 0.000002 0.000000 0.000000 0.000000 -0.496225
    16 1.099667 0.000000 -0.000001 0.000000 0.000000 -0.354423
    17 0.806053 -0.348926 1.321258 -1.287532 -0.366649 -0.722385
    18 1.789778 -0.000002 0.000002 0.000000 0.000000 0.212596
    19 1.207005 0.000000 0.000002 0.000000 0.000000 0.186299
    20 2.033356 1.000772 -1.937610 -2.129147 1.252455 2.502299
    21 6.028145 0.000000 0.000000 1.523503 1.245403 -1.297520
    22 11.692554 0.000001 0.000002 0.000000 0.000000 -0.680774
    23 11.481699 0.000001 0.000001 -1.473143 -0.178540 0.721199
    24 3.859680 -0.132567 1.193109 0.076298 0.048710 -1.410444
    25 1.312555 -0.000002 0.000002 0.000000 0.000000 -0.439672
    26 0.729365 0.000000 -0.000001 0.000000 0.000000 -1.116882
    27 3.942307 0.050327 0.431044 0.032641 0.047810 -1.244398
    28 1.539099 -0.000002 0.000000 0.000000 0.000000 -0.858632
    29 1.196321 0.000010 0.000000 0.000000 0.000000 -1.041607
    30 3.883659 -0.050321 -0.431042 0.013675 -0.048012 -1.095542
    31 1.719578 0.000002 0.000000 -0.000001 -0.007971 -1.239096
    32 1.209185 0.000002 0.000000 0.000000 -0.004460 -0.914486
    33 3.859840 -0.148937 -1.331282 -0.130416 -0.094966 -0.552749
    34 1.719421 0.000002 0.000000 0.000000 -0.006613 -0.362970
    35 1.099669 0.000002 -0.000001 0.000000 -0.004211 -0.767908
    36 0.806023 -0.359837 -1.318334 1.402404 0.526435 -0.917775
    37 1.789782 0.000000 -0.000004 -0.170078 0.039352 0.399730
    38 1.206999 0.000002 0.000000 0.000000 0.000000 1.061034
    39 -0.182130 -21.414652 -7.342217 1.925075 -0.152404 0.503941
    40 0.025545 -1.273521 1.753304 0.000000 0.000000 0.000000
    41 0.001032 1.440453 -1.526783 0.000000 0.000000 0.000000
    42 0.004413 0.696487 -1.430595 0.000000 0.000000 0.000000
    43 0.580660 0.349014 -1.430595 0.000000 0.000000 0.000000
    44 0.583444 -0.305904 -1.430599 0.000000 0.000000 0.000000
    45 0.005318 -0.648720 -1.430599 0.000000 0.000000 0.000000
    46 -0.574618 -0.303123 -1.430601 0.000000 0.000000 0.000000
    47 -0.573714 0.348118 -1.430595 0.000000 0.000000 0.000000
  time 8
    0 -0.999512 8.335938 -6.640625 -1.570760 -1.391893 -1.570827
    1 2.033349 1.000767 1.937660 1.596637 -1.286515 2.942961
    2 6.321118 -0.964873 1.468795 -0.407232 -1.075082 -1.731788
    3 11.692554 0.000001 0.000000 0.000000 0.000000 -0.941580
    4 11.481670 0.000001 -0.000031 -0.324281 -0.533449 1.225425
    5 3.859711 -0.142405 -1.191975 -0.491314 0.054897 -1.089461
    6 1.312555 -0.000002 0.000000 0.000000 0.000000 -0.435484
    7 0.729363 -0.000002 -0.000002 0.000000 0.000000 -0.240207
    8 3.942337 0.046767 -0.431443 -0.150125 0.076994 -0.776666
    9 1.539097 0.000000 0.000000 0.000000 0.000000 -0.409593
    10 1.196325 -0.000002 -0.000001 0.000000 0.000000 -0.581464
    11 3.883698 -0.046765 0.431443 0.085348 0.023775 -0.564480
    12 1.719570 -0.000004 -0.000001 0.000000 0.000000 -0.762886
    13 1.209169 -0.000004 0.000000 0.000000 0.000000 -0.256535
    14 3.859863 -0.137946 1.332466 0.483960 -0.048432 -0.425646
    15 1.719431 0.000002 0.000000 0.000000 0.000000 -0.496225
    16 1.099667 0.000000 -0.000001 0.000000 0.000000 -0.354423
    17 0.806053 -0.348926 1.321258 -1.287532 -0.366649 -0.722385
    18 1.789778 -0.000002 0.000002 0.000000 0.000000 0.212596
    19 1.207005 0.000000 0.000002 0.000000 0.000000 0.186299
    20 2.033356 1.000772 -1.937610 -2.129147 1.252455 2.502299
    21 6.028145 0.000000 0.000000 1.573436 1.250785 -1.248930
    22 11.692554 0.000001 0.000002 0.000000 0.000000 -0.739564
    23 11.481699 0.000001 0.000001 -1.463782 -0.179621 0.716341
    24 3.859680 -0.132567 1.193109 0.076298 0.048710 -1.410444
    25 1.312555 -0.000002 0.000002 0.000000 0.000000 -0.439672
    26 0.729365 0.000000 -0.000001 0.000000 0.000000 -1.116882
    27 3.942307 0.050327 0.431044 0.032629 0.047810 -1.244398
    28 1.539099 -0.000002 0.000000 0.000000 0.000000 -0.858632
    29 1.196321 0.000010 0.000000 0.000000 0.000000 -1.041589
    30 3.883659 -0.050321 -0.431042 0.013675 -0.048012 -1.095524
    31 1.719578 0.000002 0.000000 -0.000001 -0.007971 -1.239096
    32 1.209185 0.000002 0.000000 0.000000 -0.004460 -0.914486
    33 3.859840 -0.148937 -1.331282 -0.130416 -0.094966 -0.552749
    34 1.719421 0.000002 0.000000 0.000000 -0.006613 -0.362970
    35 1.099669 0.000002 -0.000001 0.000000 -0.004211 -0.767908
    36 0.806023 -0.359837 -1.318334 1.402404 0.526435 -0.917775
    37 1.789782 0.000000 -0.000004 -0.170078 0.039352 0.399730
    38 1.206999 0.000002 0.000000 0.000000 0.000000 1.061034
    39 -0.646988 -21.293554 -6.096085 1.858201 -0.136984 0.497303
    40 0.025545 -1.273521 1.753304 0.000000 0.000000 0.000000
    41 0.001032 1.440453 -1.526783 0.000000 0.000000 0.000000
    42 0.004413 0.696487 -1.430595 0.000000 0.000000 0.000000
    43 0.580660 0.349014 -1.430595 0.000000 0.000000 0.000000
    44 0.583444 -0.305904 -1.430599 0.000000 0.000000 0.000000
    45 0.005318 -0.648720 -1.430599 0.000000 0.000000 0.000000
    46 -0.574618 -0.303123 -1.430601 0.000000 0.000000 0.000000
    47 -0.573714 0.348118 -1.430595 0.000000 0.000000 0.000000
  time 9
    0 -0.999512 8.335938 -6.640625 -1.570760 -1.391893 -1.570827
    1 2.033349 1.000767 1.937660 1.596637 -1.286515 2.942961
    2 6.321118 -0.964873 1.468795 -0.358403 -1.091480 -1.789457
    3 11.692554 0.000001 0.000000 0.000000 0.000000 -0.932748
    4 11.481670 0.000001 -0.000031 -0.290434 -0.567884 1.182179
    5 3.859711 -0.142405 -1.191975 -0.491314 0.054897 -1.089461
    6 1.312555 -0.000002 0.000000 0.000000 0.000000 -0.435484
    7 0.729363 -0.000002 -0.000002 0.000000 0.000000 -0.240207
    8 3.942337 0.046767 -0.431443 -0.150125 0.076994 -0.776666
    9 1.539097 0.000000 0.000000 0.000000 0.000000 -0.409593
    10 1.196325 -0.000002 -0.000001 0.000000 0.000000 -0.581464
    11 3.883698 -0.046765 0.431443 0.085348 0.023775 -0.564480
    12 1.719570 -0.000004 -0.000001 0.000000 0.000000 -0.762886
    13 1.209169 -0.000004 0.000000 0.000000 0.000000 -0.256535
    14 3.859863 -0.137946 1.332466 0.483960 -0.048432 -0.425646
    15 1.719431 0.000002 0.000000 0.000000 0.000000 -0.496225
    16 1.099667 0.000000 -0.000001 0.000000 0.000000 -0.354423
    17 0.806053 -0.348926 1.321258 -1.287532 -0.366649 -0.722385
    18 1.789778 -0.000002 0.000002 0.000000 0.000000 0.212596
    19 1.207005 0.000000 0.000002 0.000000 0.000000 0.186299
    20 2.033356 1.000772 -1.937610 -2.129147 1.252455 2.502299
    21 6.028145 0.000000 0.000000 1.617065 1.252724 -1.206846
    22 11.692554 0.000001 0.000002 0.000000 0.000000 -0.796241
    23 11.481699 0.000001 0.000001 -1.455042 -0.174179 0.710729
    24 3.859680 -0.132567 1.193109 0.076298 0.048710 -1.410444
    25 1.312555 -0.000002 0.000002 0.000000 0.000000 -0.439672
    26 0.729365 0.000000 -0.000001 0.000000 0.000000 -1.116882
    27 3.942307 0.050327 0.431044 0.032641 0.047810 -1.244398
    28 1.539099 -0.000002 0.000000 0.000000 0.000000 -0.858632
    29 1.196321 0.000010 0.000000 0.000000 0.000000 -1.041589
    30 3.883659 -0.050321 -0.431042 0.013675 -0.048012 -1.095524
    31 1.719578 0.000002 0.000000 -0.000001 -0.007971 -1.239096
    32 1.209185 0.000002 0.000000 0.000000 -0.004460 -0.914486
    33 3.859840 -0.148937 -1.331282 -0.130416 -0.094966 -0.552749
    34 1.719421 0.000002 0.000000 0.000000 -0.006613 -0.362970
    35 1.099669 0.000002 -0.000001 0.000000 -0.004211 -0.767908
    36 0.806023 -0.359837 -1.318334 1.402404 0.526435 -0.917775
    37 1.789782 0.000000 -0.000004 -0.170078 0.039352 0.399730
    38 1.206999 0.000002 0.000000 0.000000 0.000000 1.061034
    39 -1.088407 -21.109955 -4.986676 1.795999 -0.120760 0.485983
    40 0.025545 -1.273521 1.753304 0.000000 0.000000 0.000000
    41 0.001032 1.440453 -1.526783 0.000000 0.000000 0.000000
    42 0.004413 0.696487 -1.430595 0.000000 0.000000 0.000000
    43 0.580660 0.349014 -1.430595 0.000000 0.000000 0.000000
    44 0.583444 -0.305904 -1.430599 0.000000 0.000000 0.000000
    45 0.005318 -0.648720 -1.430599 0.000000 0.000000 0.000000
    46 -0.574618 -0.303123 -1.430601 0.000000 0.000000 0.000000
    47 -0.573714 0.348118 -1.430595 0.000000 0.000000 0.000000
  time 10
    0 -0.999512 8.335938 -6.640625 -1.570760 -1.391893 -1.570827
    1 2.033349 1.000767 1.937660 1.596637 -1.286515 2.942961
    2 6.321118 -0.964873 1.468795 -0.323615 -1.102123 -1.830286
    3 11.692554 0.000001 0.000000 0.000000 0.000000 -0.928796
    4 11.481670 0.000001 -0.000031 -0.255567 -0.592990 1.133465
    5 3.859711 -0.142405 -1.191975 -0.491314 0.054897 -1.089461
    6 1.312555 -0.000002 0.000000 0.000000 0.000000 -0.435484
    7 0.729363 -0.000002 -0.000002 0.000000 0.000000 -0.240207
    8 3.942337 0.046767 -0.431443 -0.150125 0.076994 -0.776666
    9 1.539097 0.000000 0.000000 0.000000 0.000000 -0.409593
    10 1.196325 -0.000002 -0.000001 0.000000 0.000000 -0.581464
    11 3.883698 -0.046765 0.431443 0.085348 0.023775 -0.564480
    12 1.719570 -0.000004 -0.000001 0.000000 0.000000 -0.762886
    13 1.209169 -0.000004 0.000000 0.000000 0.000000 -0.256535
    14 3.859863 -0.137946 1.332466 0.483960 -0.048432 -0.425646
    15 1.719431 0.000002 0.000000 0.000000 0.000000 -0.496225
    16 1.099667 0.000000 -0.000001 0.000000 0.000000 -0.354423
    17 0.806053 -0.348926 1.321258 -1.287532 -0.366649 -0.722385
    18 1.789778 -0.000002 0.000002 0.000000 0.000000 0.212596
    19 1.207005 0.000000 0.000002 0.000000 0.000000 0.186299
    20 2.033356 1.000772 -1.937610 -2.129147 1.252455 2.502299
    21 6.028145 0.000000 0.000000 1.649186 1.251141 -1.175989
    22 11.692554 0.000001 0.000002 0.000000 0.000000 -0.844803
    23 11.481699 0.000001 0.000001 -1.446684 -0.160757 0.701571
    24 3.859680 -0.132567 1.193109 0.076298 0.048710 -1.410444
    25 1.312555 -0.000002 0.000002 0.000000 0.000000 -0.439672
    26 0.729365 0.000000 -0.000001 0.000000 0.000000 -1.116882
    27 3.942307 0.050327 0.431044 0.032641 0.047810 -1.244398
    28 1.539099 -0.000002 0.000000 0.000000 0.000000 -0.858632
    29 1.196321 0.000010 0.000000 0.000000 0.000000 -1.041589
    30 3.883659 -0.050321 -0.431042 0.013675 -0.048012 -1.095524
    31 1.719578 0.000002 0.000000 -0.000001 -0.007971 -1.239096
    32 1.209185 0.000002 0.000000 0.000000 -0.004460 -0.914486
    33 3.859840 -0.148937 -1.331282 -0.130416 -0.094966 -0.552749
    34 1.719421 0.000002 0.000000 0.000000 -0.006613 -0.362970
    35 1.099669 0.000002 -0.000001 0.000000 -0.004211 -0.767908
    36 0.806023 -0.359837 -1.318334 1.402404 0.526435 -0.917775
    37 1.789782 0.000000 -0.000004 -0.170078 0.039352 0.399730
    38 1.206999 0.000002 0.000000 0.000000 0.000000 1.061034
    39 -1.479044 -20.914637 -4.103837 1.741280 -0.105743 0.469004
    40 0.025545 -1.273521 1.753304 0.000000 0.000000 0.000000
    41 0.001032 1.440453 -1.526783 0.000000 0.000000 0.000000
    42 0.004413 0.696487 -1.430595 0.000000 0.000000 0.000000
    43 0.580660 0.349014 -1.430595 0.000000 0.000000 0.000000
    44 0.583444 -0.305904 -1.430599 0.000000 0.000000 0.000000
    45 0.005318 -0.648720 -1.430599 0.000000 0.000000 0.000000
    46 -0.574618 -0.303123 -1.430601 0.000000 0.000000 0.000000
    47 -0.573714 0.348118 -1.430595 0.000000 0.000000 0.000000
  time 11
    0 -0.999512 8.335938 -6.640625 -1.570760 -1.391893 -1.570827
    1 2.033349 1.000767 1.937660 1.596637 -1.286515 2.942961
    2 6.321118 -0.964873 1.468795 -0.317342 -1.106325 -1.838532
    3 11.692554 0.000001 0.000000 0.000000 0.000000 -0.922787
    4 11.481670 0.000001 -0.000031 -0.190997 -0.621922 1.024687
    5 3.859711 -0.142405 -1.191975 -0.491314 0.054897 -1.089461
    6 1.312555 -0.000002 0.000000 0.000000 0.000000 -0.435484
    7 0.729363 -0.000002 -0.000002 0.000000 0.000000 -0.240207
    8 3.942337 0.046767 -0.431443 -0.150125 0.076994 -0.776666
    9 1.539097 0.000000 0.000000 0.000000 0.000000 -0.409593
    10 1.196325 -0.000002 -0.000001 0.000000 0.000000 -0.581464
    11 3.883698 -0.046765 0.431443 0.085348 0.023775 -0.564480
    12 1.719570 -0.000004 -0.000001 0.000000 0.000000 -0.762886
    13 1.209169 -0.000004 0.000000 0.000000 0.000000 -0.256535
    14 3.859863 -0.137946 1.332466 0.483960 -0.048432 -0.425646
    15 1.719431 0.000002 0.000000 0.000000 0.000000 -0.496225
    16 1.099667 0.000000 -0.000001 0.000000 0.000000 -0.354423
    17 0.806053 -0.348926 1.321258 -1.287532 -0.366649 -0.722385
    18 1.789778 -0.000002 0.000002 0.000000 0.000000 0.212596
    19 1.207005 0.000000 0.000002 0.000000 0.000000 0.186299
    20 2.033356 1.000772 -1.937610 -2.129147 1.252455 2.502299
    21 6.028145 0.000000 0.000000 1.663445 1.238715 -1.162919
    22 11.692554 0.000001 0.000002 0.000000 0.000000 -0.889561
    23 11.481699 0.000001 0.000001 -1.427533 -0.122365 0.652041
    24 3.859680 -0.132567 1.193109 0.076298 0.048710 -1.410444
    25 1.312555 -0.000002 0.000002 0.000000 0.000000 -0.439672
    26 0.729365 0.000000 -0.000001 0.000000 0.000000 -1.116882
    27 3.942307 0.050327 0.431044 0.032641 0.047810 -1.244398
    28 1.539099 -0.000002 0.000000 0.000000 0.000000 -0.858632
    29 1.196321 0.000010 0.000000 0.000000 0.000000 -1.041607
    30 3.883659 -0.050321 -0.431042 0.013675 -0.048012 -1.095524
    31 1.719578 0.000002 0.000000 -0.000001 -0.007971 -1.239096
    32 1.209185 0.000002 0.000000 0.000000 -0.004460 -0.914486
    33 3.859840 -0.148937 -1.331282 -0.130416 -0.094966 -0.552749
    34 1.719421 0.000002 0.000000 0.000000 -0.006613 -0.362970
    35 1.099669 0.000002 -0.000001 0.000000 -0.004211 -0.767908
    36 0.806023 -0.359837 -1.318334 1.402404 0.526435 -0.917775
    37 1.789782 0.000000 -0.000004 -0.170078 0.039352 0.399730
    38 1.206999 0.000002 0.000000 0.000000 0.000000 1.061034
    39 -1.936090 -20.711505 -3.318657 1.660251 -0.091187 0.432949
    40 0.025545 -1.273521 1.753304 0.000000 0.000000 0.000000
    41 0.001032 1.440453 -1.526783 0.000000 0.000000 0.000000
    42 0.004413 0.696487 -1.430595 0.000000 0.000000 0.000000
    43 0.580660 0.349014 -1.430595 0.000000 0.000000 0.000000
    44 0.583444 -0.305904 -1.430599 0.000000 0.000000 0.000000
    45 0.005318 -0.648720 -1.430599 0.000000 0.000000 0.000000
    46 -0.574618 -0.303123 -1.430601 0.000000 0.000000 0.000000
    47 -0.573714 0.348118 -1.430595 0.000000 0.000000 0.000000
  time 12
    0 -0.999512 8.335938 -6.640625 -1.570760 -1.391893 -1.570827
    1 2.033349 1.000767 1.937660 1.596637 -1.286515 2.942961
    2 6.321118 -0.964873 1.468795 -0.324821 -1.109477 -1.831777
    3 11.692554 0.000001 0.000000 0.000000 0.000000 -0.910326
    4 11.481670 0.000001 -0.000031 -0.109407 -0.636879 0.875148
    5 3.859711 -0.142405 -1.191975 -0.491314 0.054897 -1.089461
    6 1.312555 -0.000002 0.000000 0.000000 0.000000 -0.435484
    7 0.729363 -0.000002 -0.000002 0.000000 0.000000 -0.240207
    8 3.942337 0.046767 -0.431443 -0.150125 0.076994 -0.776666
    9 1.539097 0.000000 0.000000 0.000000 0.000000 -0.409593
    10 1.196325 -0.000002 -0.000001 0.000000 0.000000 -0.581464
    11 3.883698 -0.046765 0.431443 0.085348 0.023775 -0.564480
    12 1.719570 -0.000004 -0.000001 0.000000 0.000000 -0.762886
    13 1.209169 -0.000004 0.000000 0.000000 0.000000 -0.256535
    14 3.859863 -0.137946 1.332466 0.483960 -0.048432 -0.425646
    15 1.719431 0.000002 0.000000 0.000000 0.000000 -0.496225
    16 1.099667 0.000000 -0.000001 0.000000 0.000000 -0.354423
    17 0.806053 -0.348926 1.321258 -1.287532 -0.366649 -0.722385
    18 1.789778 -0.000002 0.000002 0.000000 0.000000 0.212596
    19 1.207005 0.000000 0.000002 0.000000 0.000000 0.186299
    20 2.033356 1.000772 -1.937610 -2.129147 1.252455 2.502299
    21 6.028145 0.000000 0.000000 1.664946 1.222054 -1.162138
    22 11.692554 0.000001 0.000002 0.000000 0.000000 -0.927768
    23 11.481699 0.000001 0.000001 -1.409432 -0.061451 0.583665
    24 3.859680 -0.132567 1.193109 0.076298 0.048710 -1.410444
    25 1.312555 -0.000002 0.000002 0.000000 0.000000 -0.439672
    26 0.729365 0.000000 -0.000001 0.000000 0.000000 -1.116882
    27 3.942307 0.050327 0.431044 0.032641 0.047810 -1.244398
    28 1.539099 -0.000002 0.000000 0.000000 0.000000 -0.858632
    29 1.196321 0.000010 0.000000 0.000000 0.000000 -1.041589
    30 3.883659 -0.050321 -0.431042 0.013675 -0.048012 -1.095524
    31 1.719578 0.000002 0.000000 -0.000001 -0.007971 -1.239096
    32 1.209185 0.000002 0.000000 0.000000 -0.004460 -0.914486
    33 3.859840 -0.148937 -1.331282 -0.130416 -0.094966 -0.552749
    34 1.719421 0.000002 0.000000 0.000000 -0.006613 -0.362970
    35 1.099669 0.000002 -0.000001 0.000000 -0.004211 -0.767908
    36 0.806023 -0.359837 -1.318334 1.402404 0.526435 -0.917775
    37 1.789782 0.000000 -0.000004 -0.170078 0.039352 0.399730
    38 1.206999 0.000002 0.000000 0.000000 0.000000 1.061034
    39 -2.443918 -20.500561 -2.654574 1.569879 -0.077014 0.379147
    40 0.025545 -1.273521 1.753304 0.000000 0.000000 0.000000
    41 0.001032 1.440453 -1.526783 0.000000 0.000000 0.000000
    42 0.004413 0.696487 -1.430595 0.000000 0.000000 0.000000
    43 0.580660 0.349014 -1.430595 0.000000 0.000000 0.000000
    44 0.583444 -0.305904 -1.430599 0.000000 0.000000 0.000000
    45 0.005318 -0.648720 -1.430599 0.000000 0.000000 0.000000
    46 -0.574618 -0.303123 -1.430601 0.000000 0.000000 0.000000
    47 -0.573714 0.348118 -1.430595 0.000000 0.000000 0.000000
  time 13
    0 -0.999512 8.335938 -6.640625 -1.570760 -1.391893 -1.570827
    1 2.033349 1.000767 1.937660 1.596637 -1.286515 2.942961
    2 6.321118 -0.964873 1.468795 -0.325931 -1.113770 -1.832323
    3 11.692554 0.000001 0.000000 0.000000 0.000000 -0.899921
    4 11.481670 0.000001 -0.000031 -0.064342 -0.618321 0.775193
    5 3.859711 -0.142405 -1.191975 -0.491314 0.054897 -1.089461
    6 1.312555 -0.000002 0.000000 0.000000 0.000000 -0.435484
    7 0.729363 -0.000002 -0.000002 0.000000 0.000000 -0.240207
    8 3.942337 0.046767 -0.431443 -0.150125 0.076994 -0.776666
    9 1.539097 0.000000 0.000000 0.000000 0.000000 -0.409593
    10 1.196325 -0.000002 -0.000001 0.000000 0.000000 -0.581464
    11 3.883698 -0.046765 0.431443 0.085348 0.023775 -0.564480
    12 1.719570 -0.000004 -0.000001 0.000000 0.000000 -0.762886
    13 1.209169 -0.000004 0.000000 0.000000 0.000000 -0.256535
    14 3.859863 -0.137946 1.332466 0.483960 -0.048432 -0.425646
    15 1.719431 0.000002 0.000000 0.000000 0.000000 -0.496225
    16 1.099667 0.000000 -0.000001 0.000000 0.000000 -0.354423
    17 0.806053 -0.348926 1.321258 -1.287532 -0.366649 -0.722385
    18 1.789778 -0.000002 0.000002 0.000000 0.000000 0.212596
    19 1.207005 0.000000 0.000002 0.000000 0.000000 0.186299
    20 2.033356 1.000772 -1.937610 -2.129147 1.252455 2.502299
    21 6.028145 0.000000 0.000000 1.665196 1.212596 -1.162110
    22 11.692554 0.000001 0.000002 0.000000 0.000000 -0.953338
    23 11.481699 0.000001 0.000001 -1.409098 -0.002255 0.555130
    24 3.859680 -0.132567 1.193109 0.076298 0.048710 -1.410444
    25 1.312555 -0.000002 0.000002 0.000000 0.000000 -0.439672
    26 0.729365 0.000000 -0.000001 0.000000 0.000000 -1.116882
    27 3.942307 0.050327 0.431044 0.032641 0.047810 -1.244398
    28 1.539099 -0.000002 0.000000 0.000000 0.000000 -0.858632
    29 1.196321 0.000010 0.000000 0.000000 0.000000 -1.041589
    30 3.883659 -0.050321 -0.431042 0.013675 -0.048012 -1.095524
    31 1.719578 0.000002 0.000000 -0.000001 -0.007971 -1.239096
    32 1.209185 0.000002 0.000000 0.000000 -0.004460 -0.914486
    33 3.859840 -0.148937 -1.331282 -0.130416 -0.094966 -0.552749
    34 1.719421 0.000002 0.000000 0.000000 -0.006613 -0.362970
    35 1.099669 0.000002 -0.000001 0.000000 -0.004211 -0.767908
    36 0.806023 -0.359837 -1.318334 1.402404 0.526435 -0.917775
    37 1.789782 0.000000 -0.000004 -0.170078 0.039352 0.399730
    38 1.206999 0.000002 0.000000 0.000000 0.000000 1.061034
    39 -2.850180 -20.402902 -2.291281 1.524693 -0.063877 0.323807
    40 0.025545 -1.273521 1.753304 0.000000 0.000000 0.000000
    41 0.001032 1.440453 -1.526783 0.000000 0.000000 0.000000
    42 0.004413 0.696487 -1.430595 0.000000 0.000000 0.000000
    43 0.580660 0.349014 -1.430595 0.000000 0.000000 0.000000
    44 0.583444 -0.305904 -1.430599 0.000000 0.000000 0.000000
    45 0.005318 -0.648720 -1.430599 0.000000 0.000000 0.000000
    46 -0.574618 -0.303123 -1.430601 0.000000 0.000000 0.000000
    47 -0.573714 0.348118 -1.430595 0.000000 0.000000 0.000000
  time 14
    0 -0.999512 8.335938 -6.640625 -1.570760 -1.391893 -1.570827
    1 2.033349 1.000767 1.937660 1.596637 -1.286515 2.942961
    2 6.321118 -0.964873 1.468795 -0.327957 -1.118292 -1.831777
    3 11.692554 0.000001 0.000000 0.000000 0.000000 -0.895203
    4 11.481670 0.000001 -0.000031 -0.046176 -0.576110 0.712395
    5 3.859711 -0.142405 -1.191975 -0.491314 0.054897 -1.089461
    6 1.312555 -0.000002 0.000000 0.000000 0.000000 -0.435484
    7 0.729363 -0.000002 -0.000002 0.000000 0.000000 -0.240207
    8 3.942337 0.046767 -0.431443 -0.150125 0.076994 -0.776666
    9 1.539097 0.000000 0.000000 0.000000 0.000000 -0.409593
    10 1.196325 -0.000002 -0.000001 0.000000 0.000000 -0.581464
    11 3.883698 -0.046765 0.431443 0.085348 0.023775 -0.564480
    12 1.719570 -0.000004 -0.000001 0.000000 0.000000 -0.762886
    13 1.209169 -0.000004 0.000000 0.000000 0.000000 -0.256535
    14 3.859863 -0.137946 1.332466 0.483960 -0.048432 -0.425646
    15 1.719431 0.000002 0.000000 0.000000 0.000000 -0.496225
    16 1.099667 0.000000 -0.000001 0.000000 0.000000 -0.354423
    17 0.806053 -0.348926 1.321258 -1.287532 -0.366649 -0.722385
    18 1.789778 -0.000002 0.000002 0.000000 0.000000 0.212596
    19 1.207005 0.000000 0.000002 0.000000 0.000000 0.186299
    20 2.033356 1.000772 -1.937610 -2.129147 1.252455 2.502299
    21 6.028145 0.000000 0.000000 1.662995 1.207095 -1.164148
    22 11.692554 0.000001 0.000002 0.000000 0.000000 -0.972611
    23 11.481699 0.000001 0.000001 -1.417647 0.059583 0.555828
    24 3.859680 -0.132567 1.193109 0.076298 0.048710 -1.410444
    25 1.312555 -0.000002 0.000002 0.000000 0.000000 -0.439672
    26 0.729365 0.000000 -0.000001 0.000000 0.000000 -1.116882
    27 3.942307 0.050327 0.431044 0.032641 0.047810 -1.244398
    28 1.539099 -0.000002 0.000000 0.000000 0.000000 -0.858632
    29 1.196321 0.000010 0.000000 0.000000 0.000000 -1.041589
    30 3.883659 -0.050321 -0.431042 0.013675 -0.048012 -1.095524
    31 1.719578 0.000002 0.000000 -0.000001 -0.007971 -1.239096
    32 1.209185 0.000002 0.000000 0.000000 -0.004460 -0.914486
    33 3.859840 -0.148937 -1.331282 -0.130416 -0.094966 -0.552749
    34 1.719421 0.000002 0.000000 0.000000 -0.006613 -0.362970
    35 1.099669 0.000002 -0.000001 0.000000 -0.004211 -0.767908
    36 0.806023 -0.359837 -1.318334 1.402404 0.526435 -0.917775
    37 1.789782 0.000000 -0.000004 -0.170078 0.039352 0.399730
    38 1.206999 0.000002 0.000000 0.000000 0.000000 1.061034
    39 -3.205660 -20.410715 -2.135027 1.511299 -0.051373 0.263856
    40 0.025545 -1.273521 1.753304 0.000000 0.000000 0.000000
    41 0.001032 1.440453 -1.526783 0.000000 0.000000 0.000000
    42 0.004413 0.696487 -1.430595 0.000000 0.000000 0.000000
    43 0.580660 0.349014 -1.430595 0.000000 0.000000 0.000000
    44 0.583444 -0.305904 -1.430599 0.000000 0.000000 0.000000
    45 0.005318 -0.648720 -1.430599 0.000000 0.000000 0.000000
    46 -0.574618 -0.303123 -1.430601 0.000000 0.000000 0.000000
    47 -0.573714 0.348118 -1.430595 0.000000 0.000000 0.000000
  time 15
    0 -0.999512 8.335938 -6.640625 -1.570760 -1.391893 -1.570827
    1 2.033349 1.000767 1.937660 1.596637 -1.286515 2.942961
    2 6.321118 -0.964873 1.468795 -0.336401 -1.122952 -1.824674
    3 11.692554 0.000001 0.000000 0.000000 0.000000 -0.892178
    4 11.481670 0.000001 -0.000031 -0.036041 -0.517837 0.653947
    5 3.859711 -0.142405 -1.191975 -0.491314 0.054897 -1.089461
    6 1.312555 -0.000002 0.000000 0.000000 0.000000 -0.435484
    7 0.729363 -0.000002 -0.000002 0.000000 0.000000 -0.240207
    8 3.942337 0.046767 -0.431443 -0.150125 0.076994 -0.776666
    9 1.539097 0.000000 0.000000 0.000000 0.000000 -0.409593
    10 1.196325 -0.000002 -0.000001 0.000000 0.000000 -0.581464
    11 3.883698 -0.046765 0.431443 0.085348 0.023775 -0.564480
    12 1.719570 -0.000004 -0.000001 0.000000 0.000000 -0.762886
    13 1.209169 -0.000004 0.000000 0.000000 0.000000 -0.256535
    14 3.859863 -0.137946 1.332466 0.483960 -0.048432 -0.425646
    15 1.719431 0.000002 0.000000 0.000000 0.000000 -0.496225
    16 1.099667 0.000000 -0.000001 0.000000 0.000000 -0.354423
    17 0.806053 -0.348926 1.321258 -1.287532 -0.366649 -0.722385
    18 1.789778 -0.000002 0.000002 0.000000 0.000000 0.212596
    19 1.207005 0.000000 0.000002 0.000000 0.000000 0.186299
    20 2.033356 1.000772 -1.937610 -2.129147 1.252455 2.502299
    21 6.028145 0.000000 0.000000 1.654889 1.202069 -1.171437
    22 11.692554 0.000001 0.000002 0.000000 0.000000 -0.989010
    23 11.481699 0.000001 0.000001 -1.428154 0.133528 0.563786
    24 3.859680 -0.132567 1.193109 0.076298 0.048710 -1.410444
    25 1.312555 -0.000002 0.000002 0.000000 0.000000 -0.439672
    26 0.729365 0.000000 -0.000001 0.000000 0.000000 -1.116882
    27 3.942307 0.050327 0.431044 0.032641 0.047810 -1.244398
    28 1.539099 -0.000002 0.000000 0.000000 0.000000 -0.858632
    29 1.196321 0.000010 0.000000 0.000000 0.000000 -1.041589
    30 3.883659 -0.050321 -0.431042 0.013675 -0.048012 -1.095524
    31 1.719578 0.000002 0.000000 -0.000001 -0.007971 -1.239096
    32 1.209185 0.000002 0.000000 0.000000 -0.004460 -0.914486
    33 3.859840 -0.148937 -1.331282 -0.130416 -0.094966 -0.552749
    34 1.719421 0.000002 0.000000 0.000000 -0.006613 -0.362970
    35 1.099669 0.000002 -0.000001 0.000000 -0.004211 -0.767908
    36 0.806023 -0.359837 -1.318334 1.402404 0.526435 -0.917775
    37 1.789782 0.000000 -0.000004 -0.170078 0.039352 0.399730
    38 1.206999 0.000002 0.000000 0.000000 0.000000 1.061034
    39 -3.580671 -20.461498 -2.068618 1.507581 -0.039329 0.193004
    40 0.025545 -1.273521 1.753304 0.000000 0.000000 0.000000
    41 0.001032 1.440453 -1.526783 0.000000 0.000000 0.000000
    42 0.004413 0.696487 -1.430595 0.000000 0.000000 0.000000
    43 0.580660 0.349014 -1.430595 0.000000 0.000000 0.000000
    44 0.583444 -0.305904 -1.430599 0.000000 0.000000 0.000000
    45 0.005318 -0.648720 -1.430599 0.000000 0.000000 0.000000
    46 -0.574618 -0.303123 -1.430601 0.000000 0.000000 0.000000
    47 -0.573714 0.348118 -1.430595 0.000000 0.000000 0.000000
  time 16
    0 -0.999512 8.335938 -6.640625 -1.570760 -1.391893 -1.570827
    1 2.033349 1.000767 1.937660 1.596637 -1.286515 2.942961
    2 6.321118 -0.964873 1.468795 -0.343976 -1.127428 -1.818465
    3 11.692554 0.000001 0.000000 0.000000 0.000000 -0.886855
    4 11.481670 0.000001 -0.000031 -0.034256 -0.457416 0.603120
    5 3.859711 -0.142405 -1.191975 -0.491314 0.054897 -1.089461
    6 1.312555 -0.000002 0.000000 0.000000 0.000000 -0.435484
    7 0.729363 -0.000002 -0.000002 0.000000 0.000000 -0.240207
    8 3.942337 0.046767 -0.431443 -0.150125 0.076994 -0.776666
    9 1.539097 0.000000 0.000000 0.000000 0.000000 -0.409593
    10 1.196325 -0.000002 -0.000001 0.000000 0.000000 -0.581464
    11 3.883698 -0.046765 0.431443 0.085348 0.023775 -0.564480
    12 1.719570 -0.000004 -0.000001 0.000000 0.000000 -0.762886
    13 1.209169 -0.000004 0.000000 0.000000 0.000000 -0.256535
    14 3.859863 -0.137946 1.332466 0.483960 -0.048432 -0.425646
    15 1.719431 0.000002 0.000000 0.000000 0.000000 -0.496225
    16 1.099667 0.000000 -0.000001 0.000000 0.000000 -0.354423
    17 0.806053 -0.348926 1.321258 -1.287532 -0.366649 -0.722385
    18 1.789778 -0.000002 0.000002 0.000000 0.000000 0.212596
    19 1.207005 0.000000 0.000002 0.000000 0.000000 0.186299
    20 2.033356 1.000772 -1.937610 -2.129147 1.252455 2.502299
    21 6.028145 0.000000 0.000000 1.645583 1.198389 -1.179814
    22 11.692554 0.000001 0.000002 0.000000 0.000000 -1.000083
    23 11.481699 0.000001 0.000001 -1.438709 0.205899 0.573921
    24 3.859680 -0.132567 1.193109 0.076298 0.048710 -1.410444
    25 1.312555 -0.000002 0.000002 0.000000 0.000000 -0.439672
    26 0.729365 0.000000 -0.000001 0.000000 0.000000 -1.116882
    27 3.942307 0.050327 0.431044 0.032641 0.047810 -1.244398
    28 1.539099 -0.000002 0.000000 0.000000 0.000000 -0.858632
    29 1.196321 0.000010 0.000000 0.000000 0.000000 -1.041589
    30 3.883659 -0.050321 -0.431042 0.013675 -0.048012 -1.095524
    31 1.719578 0.000002 0.000000 -0.000001 -0.007971 -1.239096
    32 1.209185 0.000002 0.000000 0.000000 -0.004460 -0.914486
    33 3.859840 -0.148937 -1.331282 -0.130416 -0.094966 -0.552749
    34 1.719421 0.000002 0.000000 0.000000 -0.006613 -0.362970
    35 1.099669 0.000002 -0.000001 0.000000 -0.004211 -0.767908
    36 0.806023 -0.359837 -1.318334 1.402404 0.526435 -0.917775
    37 1.789782 0.000000 -0.000004 -0.170078 0.039352 0.399730
    38 1.206999 0.000002 0.000000 0.000000 0.000000 1.061034
    39 -3.936151 -20.531812 -2.068618 1.509535 -0.027592 0.123690
    40 0.025545 -1.273521 1.753304 0.000000 0.000000 0.000000
    41 0.001032 1.440453 -1.526783 0.000000 0.000000 0.000000
    42 0.004413 0.696487 -1.430595 0.000000 0.000000 0.000000
    43 0.580660 0.349014 -1.430595 0.000000 0.000000 0.000000
    44 0.583444 -0.305904 -1.430599 0.000000 0.000000 0.000000
    45 0.005318 -0.648720 -1.430599 0.000000 0.000000 0.000000
    46 -0.574618 -0.303123 -1.430601 0.000000 0.000000 0.000000
    47 -0.573714 0.348118 -1.430595 0.000000 0.000000 0.000000
  time 17
    0 -0.999512 8.335938 -6.640625 -1.570760 -1.391893 -1.570827
    1 2.033349 1.000767 1.937660 1.596637 -1.286515 2.942961
    2 6.321118 -0.964873 1.468795 -0.347209 -1.131265 -1.816527
    3 11.692554 0.000001 0.000000 0.000000 0.000000 -0.878386
    4 11.481670 0.000001 -0.000031 -0.038782 -0.403399 0.561904
    5 3.859711 -0.142405 -1.191975 -0.491314 0.054897 -1.089461
    6 1.312555 -0.000002 0.000000 0.000000 0.000000 -0.435484
    7 0.729363 -0.000002 -0.000002 0.000000 0.000000 -0.240207
    8 3.942337 0.046767 -0.431443 -0.150125 0.076994 -0.776666
    9 1.539097 0.000000 0.000000 0.000000 0.000000 -0.409593
    10 1.196325 -0.000002 -0.000001 0.000000 0.000000 -0.581464
    11 3.883698 -0.046765 0.431443 0.085348 0.023775 -0.564480
    12 1.719570 -0.000004 -0.000001 0.000000 0.000000 -0.762886
    13 1.209169 -0.000004 0.000000 0.000000 0.000000 -0.256535
    14 3.859863 -0.137946 1.332466 0.483960 -0.048432 -0.425646
    15 1.719431 0.000002 0.000000 0.000000 0.000000 -0.496225
    16 1.099667 0.000000 -0.000001 0.000000 0.000000 -0.354423
    17 0.806053 -0.348926 1.321258 -1.287532 -0.366649 -0.722385
    18 1.789778 -0.000002 0.000002 0.000000 0.000000 0.212596
    19 1.207005 0.000000 0.000002 0.000000 0.000000 0.186299
    20 2.033356 1.000772 -1.937610 -2.129147 1.252455 2.502299
    21 6.028145 0.000000 0.000000 1.638078 1.196331 -1.186572
    22 11.692554 0.000001 0.000002 0.000000 0.000000 -1.005662
    23 11.481699 0.000001 0.000001 -1.448595 0.268310 0.583050
    24 3.859680 -0.132567 1.193109 0.076298 0.048710 -1.410444
    25 1.312555 -0.000002 0.000002 0.000000 0.000000 -0.439672
    26 0.729365 0.000000 -0.000001 0.000000 0.000000 -1.116882
    27 3.942307 0.050327 0.431044 0.032629 0.047810 -1.244398
    28 1.539099 -0.000002 0.000000 0.000000 0.000000 -0.858632
    29 1.196321 0.000010 0.000000 0.000000 0.000000 -1.041589
    30 3.883659 -0.050321 -0.431042 0.013663 -0.048012 -1.095524
    31 1.719578 0.000002 0.000000 -0.000001 -0.007971 -1.239096
    32 1.209185 0.000002 0.000000 0.000000 -0.004460 -0.914486
    33 3.859840 -0.148937 -1.331282 -0.130416 -0.094966 -0.552749
    34 1.719421 0.000002 0.000000 0.000000 -0.006613 -0.362970
    35 1.099669 0.000002 -0.000001 0.000000 -0.004211 -0.767908
    36 0.806023 -0.359837 -1.318334 1.402404 0.526435 -0.917775
    37 1.789782 0.000000 -0.000004 -0.170078 0.039352 0.399730
    38 1.206999 0.000002 0.000000 0.000000 0.000000 1.061034
    39 -4.244754 -20.606033 -2.107682 1.515160 -0.016181 0.063808
    40 0.025545 -1.273521 1.753304 0.000000 0.000000 0.000000
    41 0.001032 1.440453 -1.526783 0.000000 0.000000 0.000000
    42 0.004413 0.696487 -1.430595 0.000000 0.000000 0.000000
    43 0.580660 0.349014 -1.430595 0.000000 0.000000 0.000000
    44 0.583444 -0.305904 -1.430599 0.000000 0.000000 0.000000
    45 0.005318 -0.648720 -1.430599 0.000000 0.000000 0.000000
    46 -0.574618 -0.303123 -1.430601 0.000000 0.000000 0.000000
    47 -0.573714 0.348118 -1.430595 0.000000 0.000000 0.000000
  time 18
    0 -0.999512 8.335938 -6.640625 -1.570760 -1.391893 -1.570827
    1 2.033349 1.000767 1.937660 1.596637 -1.286515 2.942961
    2 6.321118 -0.964873 1.468795 -0.345858 -1.134142 -1.819061
    3 11.692554 0.000001 0.000000 0.000000 0.000000 -0.867901
    4 11.481670 0.000001 -0.000031 -0.047323 -0.358958 0.531126
    5 3.859711 -0.142405 -1.191975 -0.491314 0.054897 -1.089461
    6 1.312555 -0.000002 0.000000 0.000000 0.000000 -0.435484
    7 0.729363 -0.000002 -0.000002 0.000000 0.000000 -0.240207
    8 3.942337 0.046767 -0.431443 -0.150125 0.076994 -0.776666
    9 1.539097 0.000000 0.000000 0.000000 0.000000 -0.409593
    10 1.196325 -0.000002 -0.000001 0.000000 0.000000 -0.581464
    11 3.883698 -0.046765 0.431443 0.085348 0.023775 -0.564480
    12 1.719570 -0.000004 -0.000001 0.000000 0.000000 -0.762886
    13 1.209169 -0.000004 0.000000 0.000000 0.000000 -0.256535
    14 3.859863 -0.137946 1.332466 0.483960 -0.048432 -0.425646
    15 1.719431 0.000002 0.000000 0.000000 0.000000 -0.496225
    16 1.099667 0.000000 -0.000001 0.000000 0.000000 -0.354423
    17 0.806053 -0.348926 1.321258 -1.287532 -0.366649 -0.722385
    18 1.789778 -0.000002 0.000002 0.000000 0.000000 0.212596
    19 1.207005 0.000000 0.000002 0.000000 0.000000 0.186299
    20 2.033356 1.000772 -1.937610 -2.129147 1.252455 2.502299
    21 6.028145 0.000000 0.000000 1.633475 1.195579 -1.190705
    22 11.692554 0.000001 0.000002 0.000000 0.000000 -1.006803
    23 11.481699 0.000001 0.000001 -1.457382 0.317572 0.592152
    24 3.859680 -0.132567 1.193109 0.076298 0.048710 -1.410444
    25 1.312555 -0.000002 0.000002 0.000000 0.000000 -0.439672
    26 0.729365 0.000000 -0.000001 0.000000 0.000000 -1.116909
    27 3.942307 0.050327 0.431044 0.032641 0.047810 -1.244398
    28 1.539099 -0.000002 0.000000 0.000000 0.000000 -0.858632
    29 1.196321 0.000010 0.000000 0.000000 0.000000 -1.041589
    30 3.883659 -0.050321 -0.431042 0.013675 -0.048012 -1.095524
    31 1.719578 0.000002 0.000000 -0.000001 -0.007971 -1.239096
    32 1.209185 0.000002 0.000000 0.000000 -0.004460 -0.914486
    33 3.859840 -0.148937 -1.331282 -0.130416 -0.094966 -0.552749
    34 1.719421 0.000002 0.000000 0.000000 -0.006613 -0.362970
    35 1.099669 0.000002 -0.000001 0.000000 -0.004211 -0.767908
    36 0.806023 -0.359837 -1.318334 1.402404 0.526435 -0.917775
    37 1.789782 0.000000 -0.000004 -0.170078 0.039352 0.399730
    38 1.206999 0.000002 0.000000 0.000000 0.000000 1.061034
    39 -4.498668 -20.684161 -2.185809 1.523644 -0.005345 0.015945
    40 0.025545 -1.273521 1.753304 0.000000 0.000000 0.000000
    41 0.001032 1.440453 -1.526783 0.000000 0.000000 0.000000
    42 0.004413 0.696487 -1.430595 0.000000 0.000000 0.000000
    43 0.580660 0.349014 -1.430595 0.000000 0.000000 0.000000
    44 0.583444 -0.305904 -1.430599 0.000000 0.000000 0.000000
    45 0.005318 -0.648720 -1.430599 0.000000 0.000000 0.000000
    46 -0.574618 -0.303123 -1.430601 0.000000 0.000000 0.000000
    47 -0.573714 0.348118 -1.430595 0.000000 0.000000 0.000000
  time 19
    0 -0.999512 8.335938 -6.640625 -1.570760 -1.391893 -1.570827
    1 2.033349 1.000767 1.937660 1.596637 -1.286515 2.942961
    2 6.321118 -0.964873 1.468795 -0.341274 -1.136061 -1.824525
    3 11.692554 0.000001 0.000000 0.000000 0.000000 -0.857254
    4 11.481670 0.000001 -0.000031 -0.057777 -0.324379 0.510870
    5 3.859711 -0.142405 -1.191975 -0.491314 0.054897 -1.089461
    6 1.312555 -0.000002 0.000000 0.000000 0.000000 -0.435484
    7 0.729363 -0.000002 -0.000002 0.000000 0.000000 -0.240207
    8 3.942337 0.046767 -0.431443 -0.150125 0.076994 -0.776666
    9 1.539097 0.000000 0.000000 0.000000 0.000000 -0.409593
    10 1.196325 -0.000002 -0.000001 0.000000 0.000000 -0.581464
    11 3.883698 -0.046765 0.431443 0.085348 0.023775 -0.564480
    12 1.719570 -0.000004 -0.000001 0.000000 0.000000 -0.762886
    13 1.209169 -0.000004 0.000000 0.000000 0.000000 -0.256535
    14 3.859863 -0.137946 1.332466 0.483960 -0.048432 -0.425646
    15 1.719431 0.000002 0.000000 0.000000 0.000000 -0.496225
    16 1.099667 0.000000 -0.000001 0.000000 0.000000 -0.354423
    17 0.806053 -0.348926 1.321258 -1.287532 -0.366649 -0.722385
    18 1.789778 -0.000002 0.000002 0.000000 0.000000 0.212596
    19 1.207005 0.000000 0.000002 0.000000 0.000000 0.186299
    20 2.033356 1.000772 -1.937610 -2.129147 1.252455 2.502299
    21 6.028145 0.000000 0.000000 1.631824 1.195777 -1.192185
    22 11.692554 0.000001 0.000002 0.000000 0.000000 -1.005070
    23 11.481699 0.000001 0.000001 -1.464117 0.353308 0.601785
    24 3.859680 -0.132567 1.193109 0.076298 0.048710 -1.410444
    25 1.312555 -0.000002 0.000002 0.000000 0.000000 -0.439672
    26 0.729365 0.000000 -0.000001 0.000000 0.000000 -1.116882
    27 3.942307 0.050327 0.431044 0.032641 0.047810 -1.244398
    28 1.539099 -0.000002 0.000000 0.000000 0.000000 -0.858632
    29 1.196321 0.000010 0.000000 0.000000 0.000000 -1.041607
    30 3.883659 -0.050321 -0.431042 0.013675 -0.048012 -1.095524
    31 1.719578 0.000002 0.000000 -0.000001 -0.007971 -1.239096
    32 1.209185 0.000002 0.000000 0.000000 -0.004460 -0.914486
    33 3.859840 -0.148937 -1.331282 -0.130416 -0.094966 -0.552749
    34 1.719421 0.000002 0.000000 0.000000 -0.006613 -0.362970
    35 1.099669 0.000002 -0.000001 0.000000 -0.004211 -0.767908
    36 0.806023 -0.359837 -1.318334 1.402404 0.526435 -0.917775
    37 1.789782 0.000000 -0.000004 -0.170078 0.039352 0.399730
    38 1.206999 0.000002 0.000000 0.000000 0.000000 1.061034
    39 -4.693986 -20.766195 -2.287375 1.534559 0.004359 -0.019551
    40 0.025545 -1.273521 1.753304 0.000000 0.000000 0.000000
    41 0.001032 1.440453 -1.526783 0.000000 0.000000 0.000000
    42 0.004413 0.696487 -1.430595 0.000000 0.000000 0.000000
    43 0.580660 0.349014 -1.430595 0.000000 0.000000 0.000000
    44 0.583444 -0.305904 -1.430599 0.000000 0.000000 0.000000
    45 0.005318 -0.648720 -1.430599 0.000000 0.000000 0.000000
    46 -0.574618 -0.303123 -1.430601 0.000000 0.000000 0.000000
    47 -0.573714 0.348118 -1.430595 0.000000 0.000000 0.000000
  time 20
    0 -0.999512 8.335938 -6.640625 -1.570760 -1.391893 -1.570827
    1 2.033349 1.000767 1.937660 1.596637 -1.286515 2.942961
    2 6.321118 -0.964873 1.468795 -0.335484 -1.137111 -1.830882
    3 11.692554 0.000001 0.000000 0.000000 0.000000 -0.848301
    4 11.481670 0.000001 -0.000031 -0.068549 -0.298823 0.501384
    5 3.859711 -0.142405 -1.191975 -0.491314 0.054897 -1.089461
    6 1.312555 -0.000002 0.000000 0.000000 0.000000 -0.435484
    7 0.729363 -0.000002 -0.000002 0.000000 0.000000 -0.240207
    8 3.942337 0.046767 -0.431443 -0.150125 0.076994 -0.776666
    9 1.539097 0.000000 0.000000 0.000000 0.000000 -0.409593
    10 1.196325 -0.000002 -0.000001 0.000000 0.000000 -0.581464
    11 3.883698 -0.046765 0.431443 0.085348 0.023775 -0.564480
    12 1.719570 -0.000004 -0.000001 0.000000 0.000000 -0.762886
    13 1.209169 -0.000004 0.000000 0.000000 0.000000 -0.256535
    14 3.859863 -0.137946 1.332466 0.483960 -0.048432 -0.425646
    15 1.719431 0.000002 0.000000 0.000000 0.000000 -0.496225
    16 1.099667 0.000000 -0.000001 0.000000 0.000000 -0.354423
    17 0.806053 -0.348926 1.321258 -1.287532 -0.366649 -0.722385
    18 1.789778 -0.000002 0.000002 0.000000 0.000000 0.212596
    19 1.207005 0.000000 0.000002 0.000000 0.000000 0.186299
    20 2.033356 1.000772 -1.937610 -2.129147 1.252455 2.502299
    21 6.028145 0.000000 0.000000 1.632675 1.196608 -1.191487
    22 11.692554 0.000001 0.000002 0.000000 0.000000 -1.000759
    23 11.481699 0.000001 0.000001 -1.468988 0.376742 0.612339
    24 3.859680 -0.132567 1.193109 0.076298 0.048710 -1.410444
    25 1.312555 -0.000002 0.000002 0.000000 0.000000 -0.439672
    26 0.729365 0.000000 -0.000001 0.000000 0.000000 -1.116909
    27 3.942307 0.050327 0.431044 0.032641 0.047810 -1.244398
    28 1.539099 -0.000002 0.000000 0.000000 0.000000 -0.858632
    29 1.196321 0.000010 0.000000 0.000000 0.000000 -1.041607
    30 3.883659 -0.050321 -0.431042 0.013675 -0.048012 -1.095524
    31 1.719578 0.000002 0.000000 -0.000001 -0.007971 -1.239096
    32 1.209185 0.000002 0.000000 0.000000 -0.004460 -0.914486
    33 3.859840 -0.148937 -1.331282 -0.130416 -0.094966 -0.552749
    34 1.719421 0.000002 0.000000 0.000000 -0.006613 -0.362970
    35 1.099669 0.000002 -0.000001 0.000000 -0.004211 -0.767908
    36 0.806023 -0.359837 -1.318334 1.402404 0.526435 -0.917775
    37 1.789782 0.000000 -0.000004 -0.170078 0.039352 0.399730
    38 1.206999 0.000002 0.000000 0.000000 0.000000 1.061034
    39 -4.838522 -20.852135 -2.404566 1.547619 0.012126 -0.043238
    40 0.025545 -1.273521 1.753304 0.000000 0.000000 0.000000
    41 0.001032 1.440453 -1.526783 0.000000 0.000000 0.000000
    42 0.004413 0.696487 -1.430595 0.000000 0.000000 0.000000
    43 0.580660 0.349014 -1.430595 0.000000 0.000000 0.000000
    44 0.583444 -0.305904 -1.430599 0.000000 0.000000 0.000000
    45 0.005318 -0.648720 -1.430599 0.000000 0.000000 0.000000
    46 -0.574618 -0.303123 -1.430601 0.000000 0.000000 0.000000
    47 -0.573714 0.348118 -1.430595 0.000000 0.000000 0.000000
  time 21
    0 -0.999512 8.335938 -6.640625 -1.570760 -1.391893 -1.570827
    1 2.033349 1.000767 1.937660 1.596637 -1.286515 2.942961
    2 6.321118 -0.964873 1.468795 -0.331045 -1.137386 -1.835701
    3 11.692554 0.000001 0.000000 0.000000 0.000000 -0.843462
    4 11.481670 0.000001 -0.000031 -0.077664 -0.281718 0.503455
    5 3.859711 -0.142405 -1.191975 -0.491314 0.054897 -1.089461
    6 1.312555 -0.000002 0.000000 0.000000 0.000000 -0.435484
    7 0.729363 -0.000002 -0.000002 0.000000 0.000000 -0.240207
    8 3.942337 0.046767 -0.431443 -0.150125 0.076994 -0.776666
    9 1.539097 0.000000 0.000000 0.000000 0.000000 -0.409593
    10 1.196325 -0.000002 -0.000001 0.000000 0.000000 -0.581464
    11 3.883698 -0.046765 0.431443 0.085348 0.023775 -0.564480
    12 1.719570 -0.000004 -0.000001 0.000000 0.000000 -0.762886
    13 1.209169 -0.000004 0.000000 0.000000 0.000000 -0.256535
    14 3.859863 -0.137946 1.332466 0.483960 -0.048432 -0.425646
    15 1.719431 0.000002 0.000000 0.000000 0.000000 -0.496225
    16 1.099667 0.000000 -0.000001 0.000000 0.000000 -0.354423
    17 0.806053 -0.348926 1.321258 -1.287532 -0.366649 -0.722385
    18 1.789778 -0.000002 0.000002 0.000000 0.000000 0.212596
    19 1.207005 0.000000 0.000002 0.000000 0.000000 0.186299
    20 2.033356 1.000772 -1.937610 -2.129147 1.252455 2.502299
    21 6.028145 0.000000 0.000000 1.635026 1.197993 -1.189393
    22 11.692554 0.000001 0.000002 0.000000 0.000000 -0.996152
    23 11.481699 0.000001 0.000001 -1.469943 0.387664 0.624260
    24 3.859680 -0.132567 1.193109 0.076298 0.048710 -1.410444
    25 1.312555 -0.000002 0.000002 0.000000 0.000000 -0.439672
    26 0.729365 0.000000 -0.000001 0.000000 0.000000 -1.116882
    27 3.942307 0.050327 0.431044 0.032641 0.047810 -1.244398
    28 1.539099 -0.000002 0.000000 0.000000 0.000000 -0.858632
    29 1.196321 0.000010 0.000000 0.000000 0.000000 -1.041589
    30 3.883659 -0.050321 -0.431042 0.013675 -0.048012 -1.095524
    31 1.719578 0.000002 0.000000 -0.000001 -0.007971 -1.239096
    32 1.209185 0.000002 0.000000 0.000000 -0.004460 -0.914486
    33 3.859840 -0.148937 -1.331282 -0.130416 -0.094966 -0.552749
    34 1.719421 0.000002 0.000000 0.000000 -0.006613 -0.362970
    35 1.099669 0.000002 -0.000001 0.000000 -0.004211 -0.767908
    36 0.806023 -0.359837 -1.318334 1.402404 0.526435 -0.917775
    37 1.789782 0.000000 -0.000004 -0.170078 0.039352 0.399730
    38 1.206999 0.000002 0.000000 0.000000 0.000000 1.061034
    39 -4.924462 -20.938075 -2.529570 1.562300 0.016672 -0.055326
    40 0.025545 -1.273521 1.753304 0.000000 0.000000 0.000000
    41 0.001032 1.440453 -1.526783 0.000000 0.000000 0.000000
    42 0.004413 0.696487 -1.430595 0.000000 0.000000 0.000000
    43 0.580660 0.349014 -1.430595 0.000000 0.000000 0.000000
    44 0.583444 -0.305904 -1.430599 0.000000 0.000000 0.000000
    45 0.005318 -0.648720 -1.430599 0.000000 0.000000 0.000000
    46 -0.574618 -0.303123 -1.430601 0.000000 0.000000 0.000000
    47 -0.573714 0.348118 -1.430595 0.000000 0.000000 0.000000
  time 22
    0 -0.999512 8.335938 -6.640625 -1.570760 -1.391893 -1.570827
    1 2.033349 1.000767 1.937660 1.596637 -1.286515 2.942961
    2 6.321118 -0.964873 1.468795 -0.326027 -1.136883 -1.840668
    3 11.692554 0.000001 0.000000 0.000000 0.000000 -0.840276
    4 11.481670 0.000001 -0.000031 -0.082700 -0.278526 0.510166
    5 3.859711 -0.142405 -1.191975 -0.491314 0.054897 -1.089461
    6 1.312555 -0.000002 0.000000 0.000000 0.000000 -0.435484
    7 0.729363 -0.000002 -0.000002 0.000000 0.000000 -0.240207
    8 3.942337 0.046767 -0.431443 -0.150125 0.076994 -0.776666
    9 1.539097 0.000000 0.000000 0.000000 0.000000 -0.409593
    10 1.196325 -0.000002 -0.000001 0.000000 0.000000 -0.581464
    11 3.883698 -0.046765 0.431443 0.085348 0.023775 -0.564480
    12 1.719570 -0.000004 -0.000001 0.000000 0.000000 -0.762886
    13 1.209169 -0.000004 0.000000 0.000000 0.000000 -0.256535
    14 3.859863 -0.137946 1.332466 0.483960 -0.048432 -0.425646
    15 1.719431 0.000002 0.000000 0.000000 0.000000 -0.496225
    16 1.099667 0.000000 -0.000001 0.000000 0.000000 -0.354423
    17 0.806053 -0.348926 1.321258 -1.287532 -0.366649 -0.722385
    18 1.789778 -0.000002 0.000002 0.000000 0.000000 0.212596
    19 1.207005 0.000000 0.000002 0.000000 0.000000 0.186299
    20 2.033356 1.000772 -1.937610 -2.129147 1.252455 2.502299
    21 6.028145 0.000000 0.000000 1.639079 1.198943 -1.185790
    22 11.692554 0.000001 0.000002 0.000000 0.000072 -0.992602
    23 11.481699 0.000001 0.000001 -1.469418 0.385008 0.631157
    24 3.859680 -0.132567 1.193109 0.076298 0.048710 -1.410444
    25 1.312555 -0.000002 0.000002 0.000000 0.000000 -0.439672
    26 0.729365 0.000000 -0.000001 0.000000 0.000000 -1.116882
    27 3.942307 0.050327 0.431044 0.032641 0.047810 -1.244398
    28 1.539099 -0.000002 0.000000 0.000000 0.000000 -0.858632
    29 1.196321 0.000010 0.000000 0.000000 0.000000 -1.041589
    30 3.883659 -0.050321 -0.431042 0.013675 -0.048012 -1.095542
    31 1.719578 0.000002 0.000000 -0.000001 -0.007971 -1.239096
    32 1.209185 0.000002 0.000000 0.000000 -0.004460 -0.914486
    33 3.859840 -0.148937 -1.331282 -0.130416 -0.094966 -0.552749
    34 1.719421 0.000002 0.000000 0.000000 -0.006613 -0.362970
    35 1.099669 0.000002 -0.000001 0.000000 -0.004211 -0.767908
    36 0.806023 -0.359837 -1.318334 1.402404 0.526435 -0.917775
    37 1.789782 0.000000 -0.000004 -0.170078 0.039352 0.399730
    38 1.206999 0.000002 0.000000 0.000000 0.000000 1.061034
    39 -4.943994 -20.992764 -2.611604 1.571499 0.018129 -0.054697
    40 0.025545 -1.273521 1.753304 0.000000 0.000000 0.000000
    41 0.001032 1.440453 -1.526783 0.000000 0.000000 0.000000
    42 0.004413 0.696487 -1.430595 0.000000 0.000000 0.000000
    43 0.580660 0.349014 -1.430595 0.000000 0.000000 0.000000
    44 0.583444 -0.305904 -1.430599 0.000000 0.000000 0.000000
    45 0.005318 -0.648720 -1.430599 0.000000 0.000000 0.000000
    46 -0.574618 -0.303123 -1.430601 0.000000 0.000000 0.000000
    47 -0.573714 0.348118 -1.430595 0.000000 0.000000 0.000000
  time 23
    0 -0.999512 8.335938 -6.640625 -1.570760 -1.391893 -1.570827
    1 2.033349 1.000767 1.937660 1.596637 -1.286515 2.942961
    2 6.321118 -0.964873 1.468795 -0.320141 -1.135924 -1.846579
    3 11.692554 0.000001 0.000000 0.000000 0.000000 -0.837695
    4 11.481670 0.000001 -0.000031 -0.085632 -0.284828 0.517622
    5 3.859711 -0.142405 -1.191975 -0.491314 0.054897 -1.089461
    6 1.312555 -0.000002 0.000000 0.000000 0.000000 -0.435484
    7 0.729363 -0.000002 -0.000002 0.000000 0.000000 -0.240207
    8 3.942337 0.046767 -0.431443 -0.150125 0.076994 -0.776666
    9 1.539097 0.000000 0.000000 0.000000 0.000000 -0.409593
    10 1.196325 -0.000002 -0.000001 0.000000 0.000000 -0.581464
    11 3.883698 -0.046765 0.431443 0.085348 0.023775 -0.564480
    12 1.719570 -0.000004 -0.000001 0.000000 0.000000 -0.762886
    13 1.209169 -0.000004 0.000000 0.000000 0.000000 -0.256535
    14 3.859863 -0.137946 1.332466 0.483960 -0.048432 -0.425646
    15 1.719431 0.000002 0.000000 0.000000 0.000000 -0.496225
    16 1.099667 0.000000 -0.000001 0.000000 0.000000 -0.354423
    17 0.806053 -0.348926 1.321258 -1.287532 -0.366649 -0.722385
    18 1.789778 -0.000002 0.000002 0.000000 0.000000 0.212596
    19 1.207005 0.000000 0.000002 0.000000 0.000000 0.186299
    20 2.033356 1.000772 -1.937610 -2.129147 1.252455 2.502299
    21 6.028145 0.000000 0.000000 1.643982 1.199497 -1.181378
    22 11.692554 0.000001 0.000002 0.000000 0.000000 -0.989517
    23 11.481699 0.000001 0.000001 -1.470421 0.375453 0.632022
    24 3.859680 -0.132567 1.193109 0.076298 0.048710 -1.410444
    25 1.312555 -0.000002 0.000002 0.000000 0.000000 -0.439672
    26 0.729365 0.000000 -0.000001 0.000000 0.000000 -1.116882
    27 3.942307 0.050327 0.431044 0.032629 0.047810 -1.244398
    28 1.539099 -0.000002 0.000000 0.000000 0.000000 -0.858632
    29 1.196321 0.000010 0.000000 0.000000 0.000000 -1.041589
    30 3.883659 -0.050321 -0.431042 0.013663 -0.048012 -1.095524
    31 1.719578 0.000002 0.000000 -0.000001 -0.007971 -1.239096
    32 1.209185 0.000002 0.000000 0.000000 -0.004460 -0.914486
    33 3.859840 -0.148937 -1.331282 -0.130416 -0.094966 -0.552749
    34 1.719421 0.000002 0.000000 0.000000 -0.006613 -0.362970
    35 1.099669 0.000002 -0.000001 0.000000 -0.004211 -0.767908
    36 0.806023 -0.359837 -1.318334 1.402404 0.526435 -0.917775
    37 1.789782 0.000000 -0.000004 -0.170078 0.039352 0.399730
    38 1.206999 0.000002 0.000000 0.000000 0.000000 1.061034
    39 -4.920556 -21.016202 -2.650667 1.575408 0.018513 -0.046592
    40 0.025545 -1.273521 1.753304 0.000000 0.000000 0.000000
    41 0.001032 1.440453 -1.526783 0.000000 0.000000 0.000000
    42 0.004413 0.696487 -1.430595 0.000000 0.000000 0.000000
    43 0.580660 0.349014 -1.430595 0.000000 0.000000 0.000000
    44 0.583444 -0.305904 -1.430599 0.000000 0.000000 0.000000
    45 0.005318 -0.648720 -1.430599 0.000000 0.000000 0.000000
    46 -0.574618 -0.303123 -1.430601 0.000000 0.000000 0.000000
    47 -0.573714 0.348118 -1.430595 0.000000 0.000000 0.000000
  time 24
    0 -0.999512 8.335938 -6.640625 -1.570760 -1.391893 -1.570827
    1 2.033349 1.000767 1.937660 1.596637 -1.286515 2.942961
    2 6.321118 -0.964873 1.468795 -0.314930 -1.134828 -1.851595
    3 11.692554 0.000001 0.000000 0.000000 0.000000 -0.836324
    4 11.481670 0.000001 -0.000031 -0.087289 -0.294854 0.525534
    5 3.859711 -0.142405 -1.191975 -0.491314 0.054897 -1.089461
    6 1.312555 -0.000002 0.000000 0.000000 0.000000 -0.435484
    7 0.729363 -0.000002 -0.000002 0.000000 0.000000 -0.240207
    8 3.942337 0.046767 -0.431443 -0.150125 0.076994 -0.776666
    9 1.539097 0.000000 0.000000 0.000000 0.000000 -0.409593
    10 1.196325 -0.000002 -0.000001 0.000000 0.000000 -0.581464
    11 3.883698 -0.046765 0.431443 0.085348 0.023775 -0.564480
    12 1.719570 -0.000004 -0.000001 0.000000 0.000000 -0.762886
    13 1.209169 -0.000004 0.000000 0.000000 0.000000 -0.256535
    14 3.859863 -0.137946 1.332466 0.483960 -0.048432 -0.425646
    15 1.719431 0.000002 0.000000 0.000000 0.000000 -0.496225
    16 1.099667 0.000000 -0.000001 0.000000 0.000000 -0.354423
    17 0.806053 -0.348926 1.321258 -1.287532 -0.366649 -0.722385
    18 1.789778 -0.000002 0.000002 0.000000 0.000000 0.212596
    19 1.207005 0.000000 0.000002 0.000000 0.000000 0.186299
    20 2.033356 1.000772 -1.937610 -2.129147 1.252455 2.502299
    21 6.028145 0.000000 0.000000 1.648585 1.199972 -1.177329
    22 11.692554 0.000001 0.000002 0.000000 0.000000 -0.987742
    23 11.481699 0.000001 0.000001 -1.471233 0.362825 0.631296
    24 3.859680 -0.132567 1.193109 0.076298 0.048710 -1.410444
    25 1.312555 -0.000002 0.000002 0.000000 0.000000 -0.439672
    26 0.729365 0.000000 -0.000001 0.000000 0.000000 -1.116882
    27 3.942307 0.050327 0.431044 0.032629 0.047810 -1.244398
    28 1.539099 -0.000002 0.000000 0.000000 0.000000 -0.858632
    29 1.196321 0.000010 0.000000 0.000000 0.000000 -1.041589
    30 3.883659 -0.050321 -0.431042 0.013675 -0.048012 -1.095524
    31 1.719578 0.000002 0.000000 -0.000001 -0.007971 -1.239096
    32 1.209185 0.000002 0.000000 0.000000 -0.004460 -0.914486
    33 3.859840 -0.148937 -1.331282 -0.130416 -0.094966 -0.552749
    34 1.719421 0.000002 0.000000 0.000000 -0.006613 -0.362970
    35 1.099669 0.000002 -0.000001 0.000000 -0.004211 -0.767908
    36 0.806023 -0.359837 -1.318334 1.402404 0.526435 -0.917775
    37 1.789782 0.000000 -0.000004 -0.170078 0.039352 0.399730
    38 1.206999 0.000002 0.000000 0.000000 0.000000 1.061034
    39 -4.877586 -21.027921 -2.662387 1.576695 0.018340 -0.035552
    40 0.025545 -1.273521 1.753304 0.000000 0.000000 0.000000
    41 0.001032 1.440453 -1.526783 0.000000 0.000000 0.000000
    42 0.004413 0.696487 -1.430595 0.000000 0.000000 0.000000
    43 0.580660 0.349014 -1.430595 0.000000 0.000000 0.000000
    44 0.583444 -0.305904 -1.430599 0.000000 0.000000 0.000000
    45 0.005318 -0.648720 -1.430599 0.000000 0.000000 0.000000
    46 -0.574618 -0.303123 -1.430601 0.000000 0.000000 0.000000
    47 -0.573714 0.348118 -1.430595 0.000000 0.000000 0.000000
  time 25
    0 -0.999512 8.335938 -6.640625 -1.570760 -1.391893 -1.570827
    1 2.033349 1.000767 1.937660 1.596637 -1.286515 2.942961
    2 6.321118 -0.964873 1.468795 -0.310925 -1.133823 -1.855470
    3 11.692554 0.000001 0.000000 0.000000 0.000000 -0.836001
    4 11.481670 0.000001 -0.000031 -0.088118 -0.306271 0.533280
    5 3.859711 -0.142405 -1.191975 -0.491314 0.054897 -1.089461
    6 1.312555 -0.000002 0.000000 0.000000 0.000000 -0.435484
    7 0.729363 -0.000002 -0.000002 0.000000 0.000000 -0.240207
    8 3.942337 0.046767 -0.431443 -0.150125 0.076994 -0.776666
    9 1.539097 0.000000 0.000000 0.000000 0.000000 -0.409593
    10 1.196325 -0.000002 -0.000001 0.000000 0.000000 -0.581464
    11 3.883698 -0.046765 0.431443 0.085348 0.023775 -0.564480
    12 1.719570 -0.000004 -0.000001 0.000000 0.000000 -0.762886
    13 1.209169 -0.000004 0.000000 0.000000 0.000000 -0.256535
    14 3.859863 -0.137946 1.332466 0.483960 -0.048432 -0.425646
    15 1.719431 0.000002 0.000000 0.000000 0.000000 -0.496225
    16 1.099667 0.000000 -0.000001 0.000000 0.000000 -0.354423
    17 0.806053 -0.348926 1.321258 -1.287532 -0.366649 -0.722385
    18 1.789778 -0.000002 0.000002 0.000000 0.000000 0.212596
    19 1.207005 0.000000 0.000002 0.000000 0.000000 0.186299
    20 2.033356 1.000772 -1.937610 -2.129147 1.252455 2.502299
    21 6.028145 0.000000 0.000000 1.652338 1.200249 -1.173978
    22 11.692554 0.000001 0.000002 0.000000 0.000000 -0.986812
    23 11.481699 0.000001 0.000001 -1.471949 0.349663 0.629146
    24 3.859680 -0.132567 1.193109 0.076298 0.048710 -1.410444
    25 1.312555 -0.000002 0.000002 0.000000 0.000000 -0.439672
    26 0.729365 0.000000 -0.000001 0.000000 0.000000 -1.116909
    27 3.942307 0.050327 0.431044 0.032641 0.047810 -1.244398
    28 1.539099 -0.000002 0.000000 0.000000 0.000000 -0.858632
    29 1.196321 0.000010 0.000000 0.000000 0.000000 -1.041589
    30 3.883659 -0.050321 -0.431042 0.013675 -0.048012 -1.095524
    31 1.719578 0.000002 0.000000 -0.000001 -0.007971 -1.239096
    32 1.209185 0.000002 0.000000 0.000000 -0.004460 -0.914486
    33 3.859840 -0.148937 -1.331282 -0.130416 -0.094966 -0.552749
    34 1.719421 0.000002 0.000000 0.000000 -0.006613 -0.362970
    35 1.099669 0.000002 -0.000001 0.000000 -0.004211 -0.767908
    36 0.806023 -0.359837 -1.318334 1.402404 0.526435 -0.917775
    37 1.789782 0.000000 -0.000004 -0.170078 0.039352 0.399730
    38 1.206999 0.000002 0.000000 0.000000 0.000000 1.061034
    39 -4.822896 -21.024015 -2.658480 1.576218 0.017803 -0.023743
    40 0.025545 -1.273521 1.753304 0.000000 0.000000 0.000000
    41 0.001032 1.440453 -1.526783 0.000000 0.000000 0.000000
    42 0.004413 0.696487 -1.430595 0.000000 0.000000 0.000000
    43 0.580660 0.349014 -1.430595 0.000000 0.000000 0.000000
    44 0.583444 -0.305904 -1.430599 0.000000 0.000000 0.000000
    45 0.005318 -0.648720 -1.430599 0.000000 0.000000 0.000000
    46 -0.574618 -0.303123 -1.430601 0.000000 0.000000 0.000000
    47 -0.573714 0.348118 -1.430595 0.000000 0.000000 0.000000
  time 26
    0 -0.999512 8.335938 -6.640625 -1.570760 -1.391893 -1.570827
    1 2.033349 1.000767 1.937660 1.596637 -1.286515 2.942961
    2 6.321118 -0.964873 1.468795 -0.308175 -1.133001 -1.858053
    3 11.692554 0.000001 0.000000 0.000000 0.000000 -0.836606
    4 11.481670 0.000001 -0.000031 -0.088373 -0.317586 0.539908
    5 3.859711 -0.142405 -1.191975 -0.491314 0.054897 -1.089461
    6 1.312555 -0.000002 0.000000 0.000000 0.000000 -0.435484
    7 0.729363 -0.000002 -0.000002 0.000000 0.000000 -0.240207
    8 3.942337 0.046767 -0.431443 -0.150125 0.076994 -0.776666
    9 1.539097 0.000000 0.000000 0.000000 0.000000 -0.409593
    10 1.196325 -0.000002 -0.000001 0.000000 0.000000 -0.581464
    11 3.883698 -0.046765 0.431443 0.085348 0.023775 -0.564480
    12 1.719570 -0.000004 -0.000001 0.000000 0.000000 -0.762886
    13 1.209169 -0.000004 0.000000 0.000000 0.000000 -0.256535
    14 3.859863 -0.137946 1.332466 0.483960 -0.048432 -0.425646
    15 1.719431 0.000002 0.000000 0.000000 0.000000 -0.496225
    16 1.099667 0.000000 -0.000001 0.000000 0.000000 -0.354423
    17 0.806053 -0.348926 1.321258 -1.287532 -0.366649 -0.722385
    18 1.789778 -0.000002 0.000002 0.000000 0.000000 0.212596
    19 1.207005 0.000000 0.000002 0.000000 0.000000 0.186299
    20 2.033356 1.000772 -1.937610 -2.129147 1.252455 2.502299
    21 6.028145 0.000000 0.000000 1.655040 1.200526 -1.171493
    22 11.692554 0.000001 0.000002 0.000000 0.000000 -0.986516
    23 11.481699 0.000001 0.000001 -1.472761 0.337595 0.627052
    24 3.859680 -0.132567 1.193109 0.076298 0.048710 -1.410444
    25 1.312555 -0.000002 0.000002 0.000000 0.000000 -0.439672
    26 0.729365 0.000000 -0.000001 0.000000 0.000000 -1.116882
    27 3.942307 0.050327 0.431044 0.032629 0.047810 -1.244398
    28 1.539099 -0.000002 0.000000 0.000000 0.000000 -0.858632
    29 1.196321 0.000010 0.000000 0.000000 0.000000 -1.041589
    30 3.883659 -0.050321 -0.431042 0.013675 -0.048012 -1.095524
    31 1.719578 0.000002 0.000000 -0.000001 -0.007971 -1.239096
    32 1.209185 0.000002 0.000000 0.000000 -0.004460 -0.914486
    33 3.859840 -0.148937 -1.331282 -0.130416 -0.094966 -0.552749
    34 1.719421 0.000002 0.000000 0.000000 -0.006613 -0.362970
    35 1.099669 0.000002 -0.000001 0.000000 -0.004211 -0.767908
    36 0.806023 -0.359837 -1.318334 1.402404 0.526435 -0.917775
    37 1.789782 0.000000 -0.000004 -0.170078 0.039352 0.399730
    38 1.206999 0.000002 0.000000 0.000000 0.000000 1.061034
    39 -4.764301 -21.012296 -2.642855 1.574454 0.017208 -0.012633
    40 0.025545 -1.273521 1.753304 0.000000 0.000000 0.000000
    41 0.001032 1.440453 -1.526783 0.000000 0.000000 0.000000
    42 0.004413 0.696487 -1.430595 0.000000 0.000000 0.000000
    43 0.580660 0.349014 -1.430595 0.000000 0.000000 0.000000
    44 0.583444 -0.305904 -1.430599 0.000000 0.000000 0.000000
    45 0.005318 -0.648720 -1.430599 0.000000 0.000000 0.000000
    46 -0.574618 -0.303123 -1.430601 0.000000 0.000000 0.000000
    47 -0.573714 0.348118 -1.430595 0.000000 0.000000 0.000000
  time 27
    0 -0.999512 8.335938 -6.640625 -1.570760 -1.391893 -1.570827
    1 2.033349 1.000767 1.937660 1.596637 -1.286515 2.942961
    2 6.321118 -0.964873 1.468795 -0.306534 -1.132407 -1.859593
    3 11.692554 0.000001 0.000000 0.000000 0.000000 -0.837574
    4 11.481670 0.000001 -0.000031 -0.088118 -0.327632 0.544796
    5 3.859711 -0.142405 -1.191975 -0.491314 0.054897 -1.089461
    6 1.312555 -0.000002 0.000000 0.000000 0.000000 -0.435484
    7 0.729363 -0.000002 -0.000002 0.000000 0.000000 -0.240207
    8 3.942337 0.046767 -0.431443 -0.150125 0.076994 -0.776666
    9 1.539097 0.000000 0.000000 0.000000 0.000000 -0.409593
    10 1.196325 -0.000002 -0.000001 0.000000 0.000000 -0.581464
    11 3.883698 -0.046765 0.431443 0.085348 0.023775 -0.564480
    12 1.719570 -0.000004 -0.000001 0.000000 0.000000 -0.762886
    13 1.209169 -0.000004 0.000000 0.000000 0.000000 -0.256535
    14 3.859863 -0.137946 1.332466 0.483960 -0.048432 -0.425646
    15 1.719431 0.000002 0.000000 0.000000 0.000000 -0.496225
    16 1.099667 0.000000 -0.000001 0.000000 0.000000 -0.354423
    17 0.806053 -0.348926 1.321258 -1.287532 -0.366649 -0.722385
    18 1.789778 -0.000002 0.000002 0.000000 0.000000 0.212596
    19 1.207005 0.000000 0.000002 0.000000 0.000000 0.186299
    20 2.033356 1.000772 -1.937610 -2.129147 1.252455 2.502299
    21 6.028145 0.000000 0.000000 1.656791 1.200684 -1.169957
    22 11.692554 0.000001 0.000002 0.000000 0.000000 -0.986939
    23 11.481699 0.000001 0.000001 -1.473621 0.327623 0.624233
    24 3.859680 -0.132567 1.193109 0.076298 0.048710 -1.410444
    25 1.312555 -0.000002 0.000002 0.000000 0.000000 -0.439672
    26 0.729365 0.000000 -0.000001 0.000000 0.000000 -1.116882
    27 3.942307 0.050327 0.431044 0.032641 0.047810 -1.244398
    28 1.539099 -0.000002 0.000000 0.000000 0.000000 -0.858632
    29 1.196321 0.000010 0.000000 0.000000 0.000000 -1.041589
    30 3.883659 -0.050321 -0.431042 0.013675 -0.048012 -1.095524
    31 1.719578 0.000002 0.000000 -0.000001 -0.007971 -1.239096
    32 1.209185 0.000002 0.000000 0.000000 -0.004460 -0.914486
    33 3.859840 -0.148937 -1.331282 -0.130416 -0.094966 -0.552749
    34 1.719421 0.000002 0.000000 0.000000 -0.006613 -0.362970
    35 1.099669 0.000002 -0.000001 0.000000 -0.004211 -0.767908
    36 0.806023 -0.359837 -1.318334 1.402404 0.526435 -0.917775
    37 1.789782 0.000000 -0.000004 -0.170078 0.039352 0.399730
    38 1.206999 0.000002 0.000000 0.000000 0.000000 1.061034
    39 -4.713518 -20.992764 -2.615510 1.571738 0.016748 -0.003131
    40 0.025545 -1.273521 1.753304 0.000000 0.000000 0.000000
    41 0.001032 1.440453 -1.526783 0.000000 0.000000 0.000000
    42 0.004413 0.696487 -1.430595 0.000000 0.000000 0.000000
    43 0.580660 0.349014 -1.430595 0.000000 0.000000 0.000000
    44 0.583444 -0.305904 -1.430599 0.000000 0.000000 0.000000
    45 0.005318 -0.648720 -1.430599 0.000000 0.000000 0.000000
    46 -0.574618 -0.303123 -1.430601 0.000000 0.000000 0.000000
    47 -0.573714 0.348118 -1.430595 0.000000 0.000000 0.000000
  time 28
    0 -0.999512 8.335938 -6.640625 -1.570760 -1.391893 -1.570827
    1 2.033349 1.000767 1.937660 1.596637 -1.286515 2.942961
    2 6.321118 -0.964873 1.468795 -0.305666 -1.132041 -1.860338
    3 11.692554 0.000001 0.000000 0.000000 0.000000 -0.838542
    4 11.481670 0.000001 -0.000031 -0.087480 -0.335469 0.547157
    5 3.859711 -0.142405 -1.191975 -0.491314 0.054897 -1.089461
    6 1.312555 -0.000002 0.000000 0.000000 0.000000 -0.435484
    7 0.729363 -0.000002 -0.000002 0.000000 0.000000 -0.240207
    8 3.942337 0.046767 -0.431443 -0.150125 0.076994 -0.776666
    9 1.539097 0.000000 0.000000 0.000000 0.000000 -0.409593
    10 1.196325 -0.000002 -0.000001 0.000000 0.000000 -0.581464
    11 3.883698 -0.046765 0.431443 0.085348 0.023775 -0.564480
    12 1.719570 -0.000004 -0.000001 0.000000 0.000000 -0.762886
    13 1.209169 -0.000004 0.000000 0.000000 0.000000 -0.256535
    14 3.859863 -0.137946 1.332466 0.483960 -0.048432 -0.425646
    15 1.719431 0.000002 0.000000 0.000000 0.000000 -0.496225
    16 1.099667 0.000000 -0.000001 0.000000 0.000000 -0.354423
    17 0.806053 -0.348926 1.321258 -1.287532 -0.366649 -0.722385
    18 1.789778 -0.000002 0.000002 0.000000 0.000000 0.212596
    19 1.207005 0.000000 0.000002 0.000000 0.000000 0.186299
    20 2.033356 1.000772 -1.937610 -2.129147 1.252455 2.502299
    21 6.028145 0.000000 0.000000 1.657491 1.200684 -1.169258
    22 11.692554 0.000001 0.000002 0.000000 0.000000 -0.987784
    23 11.481699 0.000001 0.000001 -1.474528 0.320840 0.621273
    24 3.859680 -0.132567 1.193109 0.076298 0.048710 -1.410444
    25 1.312555 -0.000002 0.000002 0.000000 0.000000 -0.439672
    26 0.729365 0.000000 -0.000001 0.000000 0.000000 -1.116882
    27 3.942307 0.050327 0.431044 0.032629 0.047810 -1.244398
    28 1.539099 -0.000002 0.000000 0.000000 0.000000 -0.858632
    29 1.196321 0.000010 0.000000 0.000000 0.000000 -1.041589
    30 3.883659 -0.050321 -0.431042 0.013675 -0.048012 -1.095524
    31 1.719578 0.000002 0.000000 -0.000001 -0.007971 -1.239096
    32 1.209185 0.000002 0.000000 0.000000 -0.004460 -0.914486
    33 3.859840 -0.148937 -1.331282 -0.130416 -0.094966 -0.552749
    34 1.719421 0.000002 0.000000 0.000000 -0.006613 -0.362970
    35 1.099669 0.000002 -0.000001 0.000000 -0.004211 -0.767908
    36 0.806023 -0.359837 -1.318334 1.402404 0.526435 -0.917775
    37 1.789782 0.000000 -0.000004 -0.170078 0.039352 0.399730
    38 1.206999 0.000002 0.000000 0.000000 0.000000 1.061034
    39 -4.670548 -20.969326 -2.580353 1.568353 0.016672 0.003507
    40 0.025545 -1.273521 1.753304 0.000000 0.000000 0.000000
    41 0.001032 1.440453 -1.526783 0.000000 0.000000 0.000000
    42 0.004413 0.696487 -1.430595 0.000000 0.000000 0.000000
    43 0.580660 0.349014 -1.430595 0.000000 0.000000 0.000000
    44 0.583444 -0.305904 -1.430599 0.000000 0.000000 0.000000
    45 0.005318 -0.648720 -1.430599 0.000000 0.000000 0.000000
    46 -0.574618 -0.303123 -1.430601 0.000000 0.000000 0.000000
    47 -0.573714 0.348118 -1.430595 0.000000 0.000000 0.000000
  time 29
    0 -0.999512 8.335938 -6.640625 -1.570760 -1.391893 -1.570827
    1 2.033349 1.000767 1.937660 1.596637 -1.286515 2.942961
    2 6.321118 -0.964873 1.468795 -0.305183 -1.131950 -1.860785
    3 11.692554 0.000001 0.000000 0.000000 0.000000 -0.838784
    4 11.481670 0.000001 -0.000031 -0.086652 -0.339950 0.545997
    5 3.859711 -0.142405 -1.191975 -0.491314 0.054897 -1.089461
    6 1.312555 -0.000002 0.000000 0.000000 0.000000 -0.435484
    7 0.729363 -0.000002 -0.000002 0.000000 0.000000 -0.240207
    8 3.942337 0.046767 -0.431443 -0.150125 0.076994 -0.776666
    9 1.539097 0.000000 0.000000 0.000000 0.000000 -0.409593
    10 1.196325 -0.000002 -0.000001 0.000000 0.000000 -0.581464
    11 3.883698 -0.046765 0.431443 0.085348 0.023775 -0.564480
    12 1.719570 -0.000004 -0.000001 0.000000 0.000000 -0.762886
    13 1.209169 -0.000004 0.000000 0.000000 0.000000 -0.256535
    14 3.859863 -0.137946 1.332466 0.483960 -0.048432 -0.425646
    15 1.719431 0.000002 0.000000 0.000000 0.000000 -0.496225
    16 1.099667 0.000000 -0.000001 0.000000 0.000000 -0.354423
    17 0.806053 -0.348926 1.321258 -1.287532 -0.366649 -0.722385
    18 1.789778 -0.000002 0.000002 0.000000 0.000000 0.212596
    19 1.207005 0.000000 0.000002 0.000000 0.000000 0.186299
    20 2.033356 1.000772 -1.937610 -2.129147 1.252455 2.502299
    21 6.028145 0.000000 0.000000 1.657491 1.200526 -1.169258
    22 11.692554 0.000001 0.000002 0.000000 0.000000 -0.989010
    23 11.481699 0.000001 0.000001 -1.475722 0.318301 0.618286
    24 3.859680 -0.132567 1.193109 0.076298 0.048710 -1.410444
    25 1.312555 -0.000002 0.000002 0.000000 0.000000 -0.439672
    26 0.729365 0.000000 -0.000001 0.000000 0.000000 -1.116882
    27 3.942307 0.050327 0.431044 0.032641 0.047810 -1.244398
    28 1.539099 -0.000002 0.000000 0.000000 0.000000 -0.858632
    29 1.196321 0.000010 0.000000 0.000000 0.000000 -1.041589
    30 3.883659 -0.050321 -0.431042 0.013675 -0.048012 -1.095524
    31 1.719578 0.000002 0.000000 -0.000001 -0.007971 -1.239096
    32 1.209185 0.000002 0.000000 0.000000 -0.004460 -0.914486
    33 3.859840 -0.148937 -1.331282 -0.130416 -0.094966 -0.552749
    34 1.719421 0.000002 0.000000 0.000000 -0.006613 -0.362970
    35 1.099669 0.000002 -0.000001 0.000000 -0.004211 -0.767908
    36 0.806023 -0.359837 -1.318334 1.402404 0.526435 -0.917775
    37 1.789782 0.000000 -0.000004 -0.170078 0.039352 0.399730
    38 1.206999 0.000002 0.000000 0.000000 0.000000 1.061034
    39 -4.651016 -20.949794 -2.549102 1.564683 0.017151 0.006163
    40 0.025545 -1.273521 1.753304 0.000000 0.000000 0.000000
    41 0.001032 1.440453 -1.526783 0.000000 0.000000 0.000000
    42 0.004413 0.696487 -1.430595 0.000000 0.000000 0.000000
    43 0.580660 0.349014 -1.430595 0.000000 0.000000 0.000000
    44 0.583444 -0.305904 -1.430599 0.000000 0.000000 0.000000
    45 0.005318 -0.648720 -1.430599 0.000000 0.000000 0.000000
    46 -0.574618 -0.303123 -1.430601 0.000000 0.000000 0.000000
    47 -0.573714 0.348118 -1.430595 0.000000 0.000000 0.000000
  time 30
    0 -0.999512 8.335938 -6.640625 -1.570760 -1.391893 -1.570827
    1 2.033349 1.000767 1.937660 1.596637 -1.286515 2.942961
    2 6.321118 -0.964873 1.468795 -0.304508 -1.132178 -1.861629
    3 11.692554 0.000001 0.000000 0.000000 0.000000 -0.837453
    4 11.481670 0.000001 -0.000031 -0.086142 -0.339479 0.540902
    5 3.859711 -0.142405 -1.191975 -0.491314 0.054897 -1.089461
    6 1.312555 -0.000002 0.000000 0.000000 0.000000 -0.435484
    7 0.729363 -0.000002 -0.000002 0.000000 0.000000 -0.240207
    8 3.942337 0.046767 -0.431443 -0.150125 0.076994 -0.776666
    9 1.539097 0.000000 0.000000 0.000000 0.000000 -0.409593
    10 1.196325 -0.000002 -0.000001 0.000000 0.000000 -0.581464
    11 3.883698 -0.046765 0.431443 0.085348 0.023775 -0.564480
    12 1.719570 -0.000004 -0.000001 0.000000 0.000000 -0.762886
    13 1.209169 -0.000004 0.000000 0.000000 0.000000 -0.256535
    14 3.859863 -0.137946 1.332466 0.483960 -0.048432 -0.425646
    15 1.719431 0.000002 0.000000 0.000000 0.000000 -0.496225
    16 1.099667 0.000000 -0.000001 0.000000 0.000000 -0.354423
    17 0.806053 -0.348926 1.321258 -1.287532 -0.366649 -0.722385
    18 1.789778 -0.000002 0.000002 0.000000 0.000000 0.212596
    19 1.207005 0.000000 0.000002 0.000000 0.000000 0.186299
    20 2.033356 1.000772 -1.937610 -2.129147 1.252455 2.502299
    21 6.028145 0.000000 0.000000 1.657041 1.200209 -1.169677
    22 11.692554 0.000001 0.000002 0.000000 0.000000 -0.989897
    23 11.481699 0.000001 0.000001 -1.477155 0.321230 0.615829
    24 3.859680 -0.132567 1.193109 0.076298 0.048710 -1.410444
    25 1.312555 -0.000002 0.000002 0.000000 0.000000 -0.439672
    26 0.729365 0.000000 -0.000001 0.000000 0.000000 -1.116882
    27 3.942307 0.050327 0.431044 0.032629 0.047810 -1.244423
    28 1.539099 -0.000002 0.000000 0.000000 0.000000 -0.858632
    29 1.196321 0.000010 0.000000 0.000000 0.000000 -1.041589
    30 3.883659 -0.050321 -0.431042 0.013675 -0.048012 -1.095524
    31 1.719578 0.000002 0.000000 -0.000001 -0.007971 -1.239096
    32 1.209185 0.000002 0.000000 0.000000 -0.004460 -0.914486
    33 3.859840 -0.148937 -1.331282 -0.130416 -0.094966 -0.552749
    34 1.719421 0.000002 0.000000 0.000000 -0.006613 -0.362970
    35 1.099669 0.000002 -0.000001 0.000000 -0.004211 -0.767908
    36 0.806023 -0.359837 -1.318334 1.402404 0.526435 -0.917775
    37 1.789782 0.000000 -0.000004 -0.170078 0.039352 0.399730
    38 1.206999 0.000002 0.000000 0.000000 0.000000 1.061034
    39 -4.666642 -20.938075 -2.525664 1.561871 0.018340 0.003507
    40 0.025545 -1.273521 1.753304 0.000000 0.000000 0.000000
    41 0.001032 1.440453 -1.526783 0.000000 0.000000 0.000000
    42 0.004413 0.696487 -1.430595 0.000000 0.000000 0.000000
    43 0.580660 0.349014 -1.430595 0.000000 0.000000 0.000000
    44 0.583444 -0.305904 -1.430599 0.000000 0.000000 0.000000
    45 0.005318 -0.648720 -1.430599 0.000000 0.000000 0.000000
    46 -0.574618 -0.303123 -1.430601 0.000000 0.000000 0.000000
    47 -0.573714 0.348118 -1.430595 0.000000 0.000000 0.000000
end
