version 1
nodes
  0 "ValveBiped.Bip01_Spine4" -1
  1 "ValveBiped.Bip01_L_Clavicle" 0
  2 "ValveBiped.Bip01_L_UpperArm" 1
  3 "ValveBiped.Bip01_L_Forearm" 2
  4 "ValveBiped.Bip01_L_Hand" 3
  5 "ValveBiped.Bip01_L_Finger4" 4
  6 "ValveBiped.Bip01_L_Finger41" 5
  7 "ValveBiped.Bip01_L_Finger42" 6
  8 "ValveBiped.Bip01_L_Finger3" 4
  9 "ValveBiped.Bip01_L_Finger31" 8
  10 "ValveBiped.Bip01_L_Finger32" 9
  11 "ValveBiped.Bip01_L_Finger2" 4
  12 "ValveBiped.Bip01_L_Finger21" 11
  13 "ValveBiped.Bip01_L_Finger22" 12
  14 "ValveBiped.Bip01_L_Finger1" 4
  15 "ValveBiped.Bip01_L_Finger11" 14
  16 "ValveBiped.Bip01_L_Finger12" 15
  17 "ValveBiped.Bip01_L_Finger0" 4
  18 "ValveBiped.Bip01_L_Finger01" 17
  19 "ValveBiped.Bip01_L_Finger02" 18
  20 "ValveBiped.Bip01_R_Clavicle" 0
  21 "ValveBiped.Bip01_R_UpperArm" 20
  22 "ValveBiped.Bip01_R_Forearm" 21
  23 "ValveBiped.Bip01_R_Hand" 22
  24 "ValveBiped.Bip01_R_Finger4" 23
  25 "ValveBiped.Bip01_R_Finger41" 24
  26 "ValveBiped.Bip01_R_Finger42" 25
  27 "ValveBiped.Bip01_R_Finger3" 23
  28 "ValveBiped.Bip01_R_Finger31" 27
  29 "ValveBiped.Bip01_R_Finger32" 28
  30 "ValveBiped.Bip01_R_Finger2" 23
  31 "ValveBiped.Bip01_R_Finger21" 30
  32 "ValveBiped.Bip01_R_Finger22" 31
  33 "ValveBiped.Bip01_R_Finger1" 23
  34 "ValveBiped.Bip01_R_Finger11" 33
  35 "ValveBiped.Bip01_R_Finger12" 34
  36 "ValveBiped.Bip01_R_Finger0" 23
  37 "ValveBiped.Bip01_R_Finger01" 36
  38 "ValveBiped.Bip01_R_Finger02" 37
  39 "Python" -1
  40 "Cylinder_release" 39
  41 "Cylinder" 40
  42 "Bullet1" 41
  43 "Bullet2" 41
  44 "Bullet3" 41
  45 "Bullet4" 41
  46 "Bullet5" 41
  47 "Bullet6" 41
end
skeleton
  time 0
    0 -0.999512 8.335938 -6.640625 -1.570760 -1.391893 -1.570827
    1 2.033349 1.000767 1.937660 1.596637 -1.286515 2.942961
    2 6.321118 -0.964873 1.468795 -0.304508 -1.132178 -1.861629
    3 11.692554 0.000001 0.000000 0.000000 0.000000 -0.837453
    4 11.481670 0.000001 -0.000031 -0.086142 -0.339479 0.540902
    5 3.859711 -0.142405 -1.191975 -0.491314 0.054897 -1.089461
    6 1.312555 -0.000002 0.000000 0.000000 0.000000 -0.435484
    7 0.729363 -0.000002 -0.000002 0.000000 0.000000 -0.240207
    8 3.942337 0.046767 -0.431443 -0.150138 0.076984 -0.776668
    9 1.539097 0.000000 0.000000 0.000000 0.000000 -0.409593
    10 1.196325 -0.000002 -0.000001 0.000000 0.000000 -0.581464
    11 3.883698 -0.046765 0.431443 0.085347 0.023775 -0.564480
    12 1.719570 -0.000004 -0.000001 0.000000 0.000000 -0.762886
    13 1.209169 -0.000004 0.000000 0.000000 0.000000 -0.256535
    14 3.859863 -0.137946 1.332466 0.483960 -0.048432 -0.425648
    15 1.719431 0.000002 0.000000 0.000000 0.000000 -0.496225
    16 1.099667 0.000000 -0.000001 0.000000 0.000000 -0.354423
    17 0.806053 -0.348926 1.321258 -1.287532 -0.366649 -0.722385
    18 1.789778 -0.000002 0.000002 0.000000 0.000000 0.212596
    19 1.207005 0.000000 0.000002 0.000000 0.000000 0.186299
    20 2.033356 1.000772 -1.937610 -2.129147 1.252455 2.502299
    21 6.028145 0.000000 0.000000 1.657041 1.200209 -1.169677
    22 11.692554 0.000001 0.000002 0.000000 0.000000 -0.989897
    23 11.481699 0.000001 0.000001 -1.477155 0.321230 0.615829
    24 3.859680 -0.132567 1.193109 0.076307 0.048692 -1.410406
    25 1.312555 -0.000002 0.000002 0.000000 0.000000 -0.439672
    26 0.729365 0.000000 -0.000001 0.000000 0.000000 -1.116930
    27 3.942307 0.050327 0.431044 0.032620 0.047811 -1.244425
    28 1.539099 -0.000002 0.000000 0.000000 0.000000 -0.858632
    29 1.196321 0.000010 0.000000 0.000000 0.000000 -1.041623
    30 3.883659 -0.050321 -0.431042 0.013675 -0.048012 -1.095524
    31 1.719578 0.000002 0.000000 0.000001 -0.007970 -1.239096
    32 1.209185 0.000002 0.000000 0.000000 -0.004460 -0.914505
    33 3.859840 -0.148937 -1.331282 -0.130416 -0.094966 -0.552749
    34 1.719421 0.000002 0.000000 0.000000 -0.006613 -0.362970
    35 1.099669 0.000002 -0.000001 0.000000 -0.004211 -0.767895
    36 0.806023 -0.359837 -1.318334 1.402404 0.526435 -0.917775
    37 1.789782 0.000000 -0.000004 -0.170073 0.039345 0.399731
    38 1.206999 0.000002 0.000000 0.000000 0.000000 1.061034
    39 -4.666642 -20.938075 -2.525664 1.561871 0.018340 0.003507
    40 0.025545 -1.273521 1.753304 0.000000 0.000000 0.000000
    41 0.001032 1.440453 -1.526783 0.000000 0.000000 0.000000
    42 0.004413 0.696487 -1.430595 0.000000 0.000000 0.000000
    43 0.580660 0.349014 -1.430595 0.000000 0.000000 0.000000
    44 0.583444 -0.305904 -1.430599 0.000000 0.000000 0.000000
    45 0.005318 -0.648720 -1.430599 0.000000 0.000000 0.000000
    46 -0.574618 -0.303123 -1.430601 0.000000 0.000000 0.000000
    47 -0.573714 0.348118 -1.430595 0.000000 0.000000 0.000000
  time 1
    0 -0.999512 8.335938 -6.640625 -1.570760 -1.391893 -1.570827
    1 2.033349 1.000767 1.937660 1.596637 -1.286515 2.942961
    2 6.321118 -0.964873 1.468795 0.001398 -1.224538 -2.212806
    3 11.692554 0.000001 0.000000 0.000000 0.000000 -0.927062
    4 11.481670 0.000001 -0.000031 0.546941 -0.495821 -0.137366
    5 3.859711 -0.142405 -1.191975 -0.491314 0.054897 -1.089461
    6 1.312555 -0.000002 0.000000 0.000000 0.000000 -0.435484
    7 0.729363 -0.000002 -0.000002 0.000000 0.000000 -0.240207
    8 3.942337 0.046767 -0.431443 -0.150138 0.076984 -0.776668
    9 1.539097 0.000000 0.000000 0.000000 0.000000 -0.409593
    10 1.196325 -0.000002 -0.000001 0.000000 0.000000 -0.581464
    11 3.883698 -0.046765 0.431443 0.085347 0.023775 -0.564480
    12 1.719570 -0.000004 -0.000001 0.000000 0.000000 -0.762886
    13 1.209169 -0.000004 0.000000 0.000000 0.000000 -0.256535
    14 3.859863 -0.137946 1.332466 0.483960 -0.048432 -0.425648
    15 1.719431 0.000002 0.000000 0.000000 0.000000 -0.496225
    16 1.099667 0.000000 -0.000001 0.000000 0.000000 -0.354423
    17 0.806053 -0.348926 1.321258 -1.287532 -0.366649 -0.722385
    18 1.789778 -0.000002 0.000002 0.000000 0.000000 0.212596
    19 1.207005 0.000000 0.000002 0.000000 0.000000 0.186299
    20 2.033356 1.000772 -1.937610 -2.129147 1.252455 2.502299
    21 6.028145 0.000000 0.000000 1.731390 1.189841 -1.096401
    22 11.692554 0.000001 0.000002 0.000000 0.000000 -1.440818
    23 11.481699 0.000001 0.000001 -1.485179 0.353113 0.151322
    24 3.859680 -0.132567 1.193109 0.076307 0.048692 -1.410406
    25 1.312555 -0.000002 0.000002 0.000000 0.000000 -0.439672
    26 0.729365 0.000000 -0.000001 0.000000 0.000000 -1.116930
    27 3.942307 0.050327 0.431044 0.032620 0.047811 -1.244425
    28 1.539099 -0.000002 0.000000 0.000000 0.000000 -0.858632
    29 1.196321 0.000010 0.000000 0.000000 0.000000 -1.041623
    30 3.883659 -0.050321 -0.431042 0.013675 -0.048012 -1.095524
    31 1.719578 0.000002 0.000000 0.000001 -0.007970 -1.239096
    32 1.209185 0.000002 0.000000 0.000000 -0.004460 -0.914505
    33 3.859840 -0.148937 -1.331282 -0.130416 -0.094966 -0.552749
    34 1.719421 0.000002 0.000000 0.000000 -0.006613 -0.362970
    35 1.099669 0.000002 -0.000001 0.000000 -0.004211 -0.767879
    36 0.806023 -0.359837 -1.318334 1.402404 0.526435 -0.917775
    37 1.789782 0.000000 -0.000004 -0.170073 0.039345 0.399731
    38 1.206999 0.000002 0.000000 0.000000 0.000000 1.061034
    39 -6.190126 -12.445628 5.412079 0.660154 -0.092510 0.015526
    40 0.025545 -1.273521 1.753304 0.000000 0.000000 0.000000
    41 0.001032 1.440453 -1.526783 0.000000 0.000000 0.000000
    42 0.004413 0.696487 -1.430595 0.000000 0.000000 0.000000
    43 0.580660 0.349014 -1.430595 0.000000 0.000000 0.000000
    44 0.583444 -0.305904 -1.430599 0.000000 0.000000 0.000000
    45 0.005318 -0.648720 -1.430599 0.000000 0.000000 0.000000
    46 -0.574618 -0.303123 -1.430601 0.000000 0.000000 0.000000
    47 -0.573714 0.348118 -1.430595 0.000000 0.000000 0.000000
  time 2
    0 -0.999512 8.335938 -6.640625 -1.570760 -1.391893 -1.570827
    1 2.033349 1.000767 1.937660 1.596637 -1.286515 2.942961
    2 6.321118 -0.964873 1.468795 -0.055682 -1.217001 -2.150468
    3 11.692554 0.000001 0.000000 0.000000 0.000000 -0.978722
    4 11.481670 0.000001 -0.000031 0.476825 -0.501898 0.008486
    5 3.859711 -0.142405 -1.191975 -0.491314 0.054897 -1.089461
    6 1.312555 -0.000002 0.000000 0.000000 0.000000 -0.435484
    7 0.729363 -0.000002 -0.000002 0.000000 0.000000 -0.240207
    8 3.942337 0.046767 -0.431443 -0.150138 0.076984 -0.776668
    9 1.539097 0.000000 0.000000 0.000000 0.000000 -0.409593
    10 1.196325 -0.000002 -0.000001 0.000000 0.000000 -0.581464
    11 3.883698 -0.046765 0.431443 0.085347 0.023775 -0.564480
    12 1.719570 -0.000004 -0.000001 0.000000 0.000000 -0.762886
    13 1.209169 -0.000004 0.000000 0.000000 0.000000 -0.256535
    14 3.859863 -0.137946 1.332466 0.483960 -0.048432 -0.425648
    15 1.719431 0.000002 0.000000 0.000000 0.000000 -0.496225
    16 1.099667 0.000000 -0.000001 0.000000 0.000000 -0.354423
    17 0.806053 -0.348926 1.321258 -1.287532 -0.366649 -0.722385
    18 1.789778 -0.000002 0.000002 0.000000 0.000000 0.212596
    19 1.207005 0.000000 0.000002 0.000000 0.000000 0.186299
    20 2.033356 1.000772 -1.937610 -2.129147 1.252455 2.502299
    21 6.028145 0.000000 0.000000 1.732340 1.193442 -1.095061
    22 11.692554 0.000001 0.000002 0.000000 0.000000 -1.445298
    23 11.481699 0.000001 0.000001 -1.469895 0.347788 0.269368
    24 3.859680 -0.132567 1.193109 0.076307 0.048692 -1.410406
    25 1.312555 -0.000002 0.000002 0.000000 0.000000 -0.439672
    26 0.729365 0.000000 -0.000001 0.000000 0.000000 -1.116930
    27 3.942307 0.050327 0.431044 0.032620 0.047811 -1.244425
    28 1.539099 -0.000002 0.000000 0.000000 0.000000 -0.858632
    29 1.196321 0.000010 0.000000 0.000000 0.000000 -1.041623
    30 3.883659 -0.050321 -0.431042 0.013663 -0.048012 -1.095524
    31 1.719578 0.000002 0.000000 0.000001 -0.007970 -1.239096
    32 1.209185 0.000002 0.000000 0.000000 -0.004460 -0.914505
    33 3.859840 -0.148937 -1.331282 -0.130416 -0.094966 -0.552749
    34 1.719421 0.000002 0.000000 0.000000 -0.006613 -0.362970
    35 1.099669 0.000002 -0.000001 0.000000 -0.004211 -0.767879
    36 0.806023 -0.359837 -1.318334 1.402404 0.526435 -0.917775
    37 1.789782 0.000000 -0.000004 -0.170073 0.039345 0.399731
    38 1.206999 0.000002 0.000000 0.000000 0.000000 1.061034
    39 -6.123717 -13.140962 5.259730 0.765921 -0.088655 0.015456
    40 0.025545 -1.273521 1.753304 0.000000 0.000000 0.000000
    41 0.001032 1.440453 -1.526783 0.000000 0.000000 0.000000
    42 0.004413 0.696487 -1.430595 0.000000 0.000000 0.000000
    43 0.580660 0.349014 -1.430595 0.000000 0.000000 0.000000
    44 0.583444 -0.305904 -1.430599 0.000000 0.000000 0.000000
    45 0.005318 -0.648720 -1.430599 0.000000 0.000000 0.000000
    46 -0.574618 -0.303123 -1.430601 0.000000 0.000000 0.000000
    47 -0.573714 0.348118 -1.430595 0.000000 0.000000 0.000000
  time 3
    0 -0.999512 8.335938 -6.640625 -1.570760 -1.391893 -1.570827
    1 2.033349 1.000767 1.937660 1.596637 -1.286515 2.942961
    2 6.321118 -0.964873 1.468795 -0.104414 -1.208962 -2.096873
    3 11.692554 0.000001 0.000000 0.000000 0.000000 -1.005016
    4 11.481670 0.000001 -0.000031 0.394089 -0.500752 0.141083
    5 3.859711 -0.142405 -1.191975 -0.491314 0.054897 -1.089461
    6 1.312555 -0.000002 0.000000 0.000000 0.000000 -0.435484
    7 0.729363 -0.000002 -0.000002 0.000000 0.000000 -0.240207
    8 3.942337 0.046767 -0.431443 -0.150138 0.076984 -0.776668
    9 1.539097 0.000000 0.000000 0.000000 0.000000 -0.409593
    10 1.196325 -0.000002 -0.000001 0.000000 0.000000 -0.581464
    11 3.883698 -0.046765 0.431443 0.085347 0.023775 -0.564480
    12 1.719570 -0.000004 -0.000001 0.000000 0.000000 -0.762886
    13 1.209169 -0.000004 0.000000 0.000000 0.000000 -0.256535
    14 3.859863 -0.137946 1.332466 0.483960 -0.048432 -0.425648
    15 1.719431 0.000002 0.000000 0.000000 0.000000 -0.496225
    16 1.099667 0.000000 -0.000001 0.000000 0.000000 -0.354423
    17 0.806053 -0.348926 1.321258 -1.287532 -0.366649 -0.722385
    18 1.789778 -0.000002 0.000002 0.000000 0.000000 0.212596
    19 1.207005 0.000000 0.000002 0.000000 0.000000 0.186299
    20 2.033356 1.000772 -1.937610 -2.129147 1.252455 2.502299
    21 6.028145 0.000000 0.000000 1.729038 1.197558 -1.097714
    22 11.692554 0.000001 0.000002 0.000000 0.000000 -1.424969
    23 11.481699 0.000001 0.000001 -1.460439 0.341318 0.370997
    24 3.859680 -0.132567 1.193109 0.076307 0.048692 -1.410406
    25 1.312555 -0.000002 0.000002 0.000000 0.000000 -0.439672
    26 0.729365 0.000000 -0.000001 0.000000 0.000000 -1.116930
    27 3.942307 0.050327 0.431044 0.032620 0.047811 -1.244425
    28 1.539099 -0.000002 0.000000 0.000000 0.000000 -0.858632
    29 1.196321 0.000010 0.000000 0.000000 0.000000 -1.041623
    30 3.883659 -0.050321 -0.431042 0.013663 -0.048012 -1.095524
    31 1.719578 0.000002 0.000000 0.000001 -0.007970 -1.239096
    32 1.209185 0.000002 0.000000 0.000000 -0.004460 -0.914505
    33 3.859840 -0.148937 -1.331282 -0.130416 -0.094966 -0.552749
    34 1.719421 0.000002 0.000000 0.000000 -0.006613 -0.362970
    35 1.099669 0.000002 -0.000001 0.000000 -0.004211 -0.767879
    36 0.806023 -0.359837 -1.318334 1.402404 0.526435 -0.917775
    37 1.789782 0.000000 -0.000004 -0.170073 0.039345 0.399731
    38 1.206999 0.000002 0.000000 0.000000 0.000000 1.061034
    39 -5.986994 -14.113648 4.837842 0.881317 -0.080332 0.013150
    40 0.025545 -1.273521 1.753304 0.000000 0.000000 0.000000
    41 0.001032 1.440453 -1.526783 0.000000 0.000000 0.000000
    42 0.004413 0.696487 -1.430595 0.000000 0.000000 0.000000
    43 0.580660 0.349014 -1.430595 0.000000 0.000000 0.000000
    44 0.583444 -0.305904 -1.430599 0.000000 0.000000 0.000000
    45 0.005318 -0.648720 -1.430599 0.000000 0.000000 0.000000
    46 -0.574618 -0.303123 -1.430601 0.000000 0.000000 0.000000
    47 -0.573714 0.348118 -1.430595 0.000000 0.000000 0.000000
  time 4
    0 -0.999512 8.335938 -6.640625 -1.570760 -1.391893 -1.570827
    1 2.033349 1.000767 1.937660 1.596637 -1.286515 2.942961
    2 6.321118 -0.964873 1.468795 -0.148129 -1.200740 -2.048344
    3 11.692554 0.000001 0.000000 0.000000 0.000000 -1.012880
    4 11.481670 0.000001 -0.000031 0.304276 -0.489335 0.261501
    5 3.859711 -0.142405 -1.191975 -0.491314 0.054897 -1.089461
    6 1.312555 -0.000002 0.000000 0.000000 0.000000 -0.435484
    7 0.729363 -0.000002 -0.000002 0.000000 0.000000 -0.240207
    8 3.942337 0.046767 -0.431443 -0.150138 0.076984 -0.776668
    9 1.539097 0.000000 0.000000 0.000000 0.000000 -0.409593
    10 1.196325 -0.000002 -0.000001 0.000000 0.000000 -0.581464
    11 3.883698 -0.046765 0.431443 0.085347 0.023775 -0.564480
    12 1.719570 -0.000004 -0.000001 0.000000 0.000000 -0.762886
    13 1.209169 -0.000004 0.000000 0.000000 0.000000 -0.256535
    14 3.859863 -0.137946 1.332466 0.483960 -0.048432 -0.425648
    15 1.719431 0.000002 0.000000 0.000000 0.000000 -0.496225
    16 1.099667 0.000000 -0.000001 0.000000 0.000000 -0.354423
    17 0.806053 -0.348926 1.321258 -1.287532 -0.366649 -0.722385
    18 1.789778 -0.000002 0.000002 0.000000 0.000000 0.212596
    19 1.207005 0.000000 0.000002 0.000000 0.000000 0.186299
    20 2.033356 1.000772 -1.937610 -2.129147 1.252455 2.502299
    21 6.028145 0.000000 0.000000 1.722284 1.201911 -1.103718
    22 11.692554 0.000001 0.000002 0.000000 0.000012 -1.385747
    23 11.481699 0.000001 0.000001 -1.455377 0.335030 0.458583
    24 3.859680 -0.132567 1.193109 0.076307 0.048692 -1.410406
    25 1.312555 -0.000002 0.000002 0.000000 0.000000 -0.439672
    26 0.729365 0.000000 -0.000001 0.000000 0.000000 -1.116930
    27 3.942307 0.050327 0.431044 0.032620 0.047811 -1.244425
    28 1.539099 -0.000002 0.000000 0.000000 0.000000 -0.858632
    29 1.196321 0.000010 0.000000 0.000000 0.000000 -1.041623
    30 3.883659 -0.050321 -0.431042 0.013675 -0.048012 -1.095524
    31 1.719578 0.000002 0.000000 0.000001 -0.007970 -1.239096
    32 1.209185 0.000002 0.000000 0.000000 -0.004460 -0.914505
    33 3.859840 -0.148937 -1.331282 -0.130416 -0.094966 -0.552749
    34 1.719421 0.000002 0.000000 0.000000 -0.006613 -0.362970
    35 1.099669 0.000002 -0.000001 0.000000 -0.004211 -0.767879
    36 0.806023 -0.359837 -1.318334 1.402404 0.526435 -0.917775
    37 1.789782 0.000000 -0.000004 -0.170073 0.039345 0.399731
    38 1.206999 0.000002 0.000000 0.000000 0.000000 1.061034
    39 -5.795582 -15.250401 4.169853 1.002623 -0.068710 0.009516
    40 0.025545 -1.273521 1.753304 0.000000 0.000000 0.000000
    41 0.001032 1.440453 -1.526783 0.000000 0.000000 0.000000
    42 0.004413 0.696487 -1.430595 0.000000 0.000000 0.000000
    43 0.580660 0.349014 -1.430595 0.000000 0.000000 0.000000
    44 0.583444 -0.305904 -1.430599 0.000000 0.000000 0.000000
    45 0.005318 -0.648720 -1.430599 0.000000 0.000000 0.000000
    46 -0.574618 -0.303123 -1.430601 0.000000 0.000000 0.000000
    47 -0.573714 0.348118 -1.430595 0.000000 0.000000 0.000000
  time 5
    0 -0.999512 8.335938 -6.640625 -1.570760 -1.391893 -1.570827
    1 2.033349 1.000767 1.937660 1.596637 -1.286515 2.942961
    2 6.321118 -0.964873 1.468795 -0.187839 -1.192153 -2.004087
    3 11.692554 0.000001 0.000000 0.000000 0.000000 -1.007516
    4 11.481670 0.000001 -0.000031 0.214209 -0.466910 0.367876
    5 3.859711 -0.142405 -1.191975 -0.491314 0.054897 -1.089461
    6 1.312555 -0.000002 0.000000 0.000000 0.000000 -0.435484
    7 0.729363 -0.000002 -0.000002 0.000000 0.000000 -0.240207
    8 3.942337 0.046767 -0.431443 -0.150138 0.076984 -0.776668
    9 1.539097 0.000000 0.000000 0.000000 0.000000 -0.409593
    10 1.196325 -0.000002 -0.000001 0.000000 0.000000 -0.581464
    11 3.883698 -0.046765 0.431443 0.085347 0.023775 -0.564480
    12 1.719570 -0.000004 -0.000001 0.000000 0.000000 -0.762886
    13 1.209169 -0.000004 0.000000 0.000000 0.000000 -0.256535
    14 3.859863 -0.137946 1.332466 0.483960 -0.048432 -0.425648
    15 1.719431 0.000002 0.000000 0.000000 0.000000 -0.496225
    16 1.099667 0.000000 -0.000001 0.000000 0.000000 -0.354423
    17 0.806053 -0.348926 1.321258 -1.287532 -0.366649 -0.722385
    18 1.789778 -0.000002 0.000002 0.000000 0.000000 0.212596
    19 1.207005 0.000000 0.000002 0.000000 0.000000 0.186299
    20 2.033356 1.000772 -1.937610 -2.129147 1.252455 2.502299
    21 6.028145 0.000000 0.000000 1.713178 1.205987 -1.112179
    22 11.692554 0.000001 0.000002 0.000000 0.000000 -1.332029
    23 11.481699 0.000001 0.000001 -1.453275 0.329771 0.532571
    24 3.859680 -0.132567 1.193109 0.076307 0.048692 -1.410406
    25 1.312555 -0.000002 0.000002 0.000000 0.000000 -0.439672
    26 0.729365 0.000000 -0.000001 0.000000 0.000000 -1.116930
    27 3.942307 0.050327 0.431044 0.032620 0.047811 -1.244425
    28 1.539099 -0.000002 0.000000 0.000000 0.000000 -0.858632
    29 1.196321 0.000010 0.000000 0.000000 0.000000 -1.041623
    30 3.883659 -0.050321 -0.431042 0.013675 -0.048012 -1.095524
    31 1.719578 0.000002 0.000000 0.000001 -0.007970 -1.239096
    32 1.209185 0.000002 0.000000 0.000000 -0.004460 -0.914505
    33 3.859840 -0.148937 -1.331282 -0.130416 -0.094966 -0.552749
    34 1.719421 0.000002 0.000000 0.000000 -0.006613 -0.362970
    35 1.099669 0.000002 -0.000001 0.000000 -0.004211 -0.767879
    36 0.806023 -0.359837 -1.318334 1.402404 0.526435 -0.917775
    37 1.789782 0.000000 -0.000004 -0.170073 0.039345 0.399731
    38 1.206999 0.000002 0.000000 0.000000 0.000000 1.061034
    39 -5.584638 -16.449657 3.283107 1.125502 -0.055170 0.005953
    40 0.025545 -1.273521 1.753304 0.000000 0.000000 0.000000
    41 0.001032 1.440453 -1.526783 0.000000 0.000000 0.000000
    42 0.004413 0.696487 -1.430595 0.000000 0.000000 0.000000
    43 0.580660 0.349014 -1.430595 0.000000 0.000000 0.000000
    44 0.583444 -0.305904 -1.430599 0.000000 0.000000 0.000000
    45 0.005318 -0.648720 -1.430599 0.000000 0.000000 0.000000
    46 -0.574618 -0.303123 -1.430601 0.000000 0.000000 0.000000
    47 -0.573714 0.348118 -1.430595 0.000000 0.000000 0.000000
  time 6
    0 -0.999512 8.335938 -6.640625 -1.570760 -1.391893 -1.570827
    1 2.033349 1.000767 1.937660 1.596637 -1.286515 2.942961
    2 6.321118 -0.964873 1.468795 -0.223110 -1.183108 -1.964201
    3 11.692554 0.000001 0.000000 0.000000 0.000000 -0.993321
    4 11.481670 0.000001 -0.000031 0.130007 -0.435216 0.458428
    5 3.859711 -0.142405 -1.191975 -0.491314 0.054897 -1.089461
    6 1.312555 -0.000002 0.000000 0.000000 0.000000 -0.435484
    7 0.729363 -0.000002 -0.000002 0.000000 0.000000 -0.240207
    8 3.942337 0.046767 -0.431443 -0.150138 0.076984 -0.776668
    9 1.539097 0.000000 0.000000 0.000000 0.000000 -0.409593
    10 1.196325 -0.000002 -0.000001 0.000000 0.000000 -0.581464
    11 3.883698 -0.046765 0.431443 0.085347 0.023775 -0.564480
    12 1.719570 -0.000004 -0.000001 0.000000 0.000000 -0.762886
    13 1.209169 -0.000004 0.000000 0.000000 0.000000 -0.256535
    14 3.859863 -0.137946 1.332466 0.483960 -0.048432 -0.425648
    15 1.719431 0.000002 0.000000 0.000000 0.000000 -0.496225
    16 1.099667 0.000000 -0.000001 0.000000 0.000000 -0.354423
    17 0.806053 -0.348926 1.321258 -1.287532 -0.366649 -0.722385
    18 1.789778 -0.000002 0.000002 0.000000 0.000000 0.212596
    19 1.207005 0.000000 0.000002 0.000000 0.000000 0.186299
    20 2.033356 1.000772 -1.937610 -2.129147 1.252455 2.502299
    21 6.028145 0.000000 0.000000 1.702921 1.209628 -1.121897
    22 11.692554 0.000001 0.000002 0.000000 0.000000 -1.270027
    23 11.481699 0.000001 0.000001 -1.452463 0.325631 0.593967
    24 3.859680 -0.132567 1.193109 0.076307 0.048692 -1.410406
    25 1.312555 -0.000002 0.000002 0.000000 0.000000 -0.439672
    26 0.729365 0.000000 -0.000001 0.000000 0.000000 -1.116930
    27 3.942307 0.050327 0.431044 0.032620 0.047811 -1.244425
    28 1.539099 -0.000002 0.000000 0.000000 0.000000 -0.858632
    29 1.196321 0.000010 0.000000 0.000000 0.000000 -1.041623
    30 3.883659 -0.050321 -0.431042 0.013675 -0.048012 -1.095524
    31 1.719578 0.000002 0.000000 0.000001 -0.007970 -1.239096
    32 1.209185 0.000002 0.000000 0.000000 -0.004460 -0.914505
    33 3.859840 -0.148937 -1.331282 -0.130416 -0.094966 -0.552749
    34 1.719421 0.000002 0.000000 0.000000 -0.006613 -0.362970
    35 1.099669 0.000002 -0.000001 0.000000 -0.004211 -0.767879
    36 0.806023 -0.359837 -1.318334 1.402404 0.526435 -0.917775
    37 1.789782 0.000000 -0.000004 -0.170073 0.039345 0.399731
    38 1.206999 0.000002 0.000000 0.000000 0.000000 1.061034
    39 -5.373694 -17.617661 2.232294 1.245426 -0.041170 0.003088
    40 0.025545 -1.273521 1.753304 0.000000 0.000000 0.000000
    41 0.001032 1.440453 -1.526783 0.000000 0.000000 0.000000
    42 0.004413 0.696487 -1.430595 0.000000 0.000000 0.000000
    43 0.580660 0.349014 -1.430595 0.000000 0.000000 0.000000
    44 0.583444 -0.305904 -1.430599 0.000000 0.000000 0.000000
    45 0.005318 -0.648720 -1.430599 0.000000 0.000000 0.000000
    46 -0.574618 -0.303123 -1.430601 0.000000 0.000000 0.000000
    47 -0.573714 0.348118 -1.430595 0.000000 0.000000 0.000000
  time 7
    0 -0.999512 8.335938 -6.640625 -1.570760 -1.391893 -1.570827
    1 2.033349 1.000767 1.937660 1.596637 -1.286515 2.942961
    2 6.321118 -0.964873 1.468795 -0.253266 -1.173745 -1.929580
    3 11.692554 0.000001 0.000000 0.000000 0.000000 -0.974044
    4 11.481670 0.000001 -0.000031 0.056576 -0.397670 0.532286
    5 3.859711 -0.142405 -1.191975 -0.491314 0.054897 -1.089461
    6 1.312555 -0.000002 0.000000 0.000000 0.000000 -0.435484
    7 0.729363 -0.000002 -0.000002 0.000000 0.000000 -0.240207
    8 3.942337 0.046767 -0.431443 -0.150138 0.076984 -0.776668
    9 1.539097 0.000000 0.000000 0.000000 0.000000 -0.409593
    10 1.196325 -0.000002 -0.000001 0.000000 0.000000 -0.581464
    11 3.883698 -0.046765 0.431443 0.085347 0.023775 -0.564480
    12 1.719570 -0.000004 -0.000001 0.000000 0.000000 -0.762886
    13 1.209169 -0.000004 0.000000 0.000000 0.000000 -0.256535
    14 3.859863 -0.137946 1.332466 0.483960 -0.048432 -0.425648
    15 1.719431 0.000002 0.000000 0.000000 0.000000 -0.496225
    16 1.099667 0.000000 -0.000001 0.000000 0.000000 -0.354423
    17 0.806053 -0.348926 1.321258 -1.287532 -0.366649 -0.722385
    18 1.789778 -0.000002 0.000002 0.000000 0.000000 0.212596
    19 1.207005 0.000000 0.000002 0.000000 0.000000 0.186299
    20 2.033356 1.000772 -1.937610 -2.129147 1.252455 2.502299
    21 6.028145 0.000000 0.000000 1.692764 1.212754 -1.131811
    22 11.692554 0.000001 0.000002 0.000000 0.000000 -1.204982
    23 11.481699 0.000001 0.000001 -1.451795 0.322584 0.644614
    24 3.859680 -0.132567 1.193109 0.076307 0.048692 -1.410406
    25 1.312555 -0.000002 0.000002 0.000000 0.000000 -0.439672
    26 0.729365 0.000000 -0.000001 0.000000 0.000000 -1.116930
    27 3.942307 0.050327 0.431044 0.032620 0.047811 -1.244425
    28 1.539099 -0.000002 0.000000 0.000000 0.000000 -0.858632
    29 1.196321 0.000010 0.000000 0.000000 0.000000 -1.041623
    30 3.883659 -0.050321 -0.431042 0.013663 -0.048012 -1.095542
    31 1.719578 0.000002 0.000000 0.000001 -0.007970 -1.239096
    32 1.209185 0.000002 0.000000 0.000000 -0.004460 -0.914505
    33 3.859840 -0.148937 -1.331282 -0.130416 -0.094966 -0.552749
    34 1.719421 0.000002 0.000000 0.000000 -0.006613 -0.362970
    35 1.099669 0.000002 -0.000001 0.000000 -0.004211 -0.767879
    36 0.806023 -0.359837 -1.318334 1.402404 0.526435 -0.917775
    37 1.789782 0.000000 -0.000004 -0.170073 0.039345 0.399731
    38 1.206999 0.000002 0.000000 0.000000 0.000000 1.061034
    39 -5.182282 -18.664568 1.083822 1.357486 -0.028206 0.001271
    40 0.025545 -1.273521 1.753304 0.000000 0.000000 0.000000
    41 0.001032 1.440453 -1.526783 0.000000 0.000000 0.000000
    42 0.004413 0.696487 -1.430595 0.000000 0.000000 0.000000
    43 0.580660 0.349014 -1.430595 0.000000 0.000000 0.000000
    44 0.583444 -0.305904 -1.430599 0.000000 0.000000 0.000000
    45 0.005318 -0.648720 -1.430599 0.000000 0.000000 0.000000
    46 -0.574618 -0.303123 -1.430601 0.000000 0.000000 0.000000
    47 -0.573714 0.348118 -1.430595 0.000000 0.000000 0.000000
  time 8
    0 -0.999512 8.335938 -6.640625 -1.570760 -1.391893 -1.570827
    1 2.033349 1.000767 1.937660 1.596637 -1.286515 2.942961
    2 6.321118 -0.964873 1.468795 -0.277922 -1.164518 -1.900720
    3 11.692554 0.000001 0.000000 0.000000 0.000000 -0.953235
    4 11.481670 0.000001 -0.000031 -0.002959 -0.358876 0.589616
    5 3.859711 -0.142405 -1.191975 -0.491314 0.054897 -1.089461
    6 1.312555 -0.000002 0.000000 0.000000 0.000000 -0.435484
    7 0.729363 -0.000002 -0.000002 0.000000 0.000000 -0.240207
    8 3.942337 0.046767 -0.431443 -0.150138 0.076984 -0.776668
    9 1.539097 0.000000 0.000000 0.000000 0.000000 -0.409593
    10 1.196325 -0.000002 -0.000001 0.000000 0.000000 -0.581464
    11 3.883698 -0.046765 0.431443 0.085347 0.023775 -0.564480
    12 1.719570 -0.000004 -0.000001 0.000000 0.000000 -0.762886
    13 1.209169 -0.000004 0.000000 0.000000 0.000000 -0.256535
    14 3.859863 -0.137946 1.332466 0.483960 -0.048432 -0.425648
    15 1.719431 0.000002 0.000000 0.000000 0.000000 -0.496225
    16 1.099667 0.000000 -0.000001 0.000000 0.000000 -0.354423
    17 0.806053 -0.348926 1.321258 -1.287532 -0.366649 -0.722385
    18 1.789778 -0.000002 0.000002 0.000000 0.000000 0.212596
    19 1.207005 0.000000 0.000002 0.000000 0.000000 0.186299
    20 2.033356 1.000772 -1.937610 -2.129147 1.252455 2.502299
    21 6.028145 0.000000 0.000000 1.683708 1.215208 -1.140942
    22 11.692554 0.000001 0.000002 0.000000 0.000000 -1.142219
    23 11.481699 0.000001 0.000001 -1.450219 0.320202 0.683898
    24 3.859680 -0.132567 1.193109 0.076307 0.048692 -1.410406
    25 1.312555 -0.000002 0.000002 0.000000 0.000000 -0.439672
    26 0.729365 0.000000 -0.000001 0.000000 0.000000 -1.116930
    27 3.942307 0.050327 0.431044 0.032620 0.047811 -1.244425
    28 1.539099 -0.000002 0.000000 0.000000 0.000000 -0.858632
    29 1.196321 0.000010 0.000000 0.000000 0.000000 -1.041623
    30 3.883659 -0.050321 -0.431042 0.013675 -0.048012 -1.095524
    31 1.719578 0.000002 0.000000 0.000001 -0.007970 -1.239096
    32 1.209185 0.000002 0.000000 0.000000 -0.004460 -0.914505
    33 3.859840 -0.148937 -1.331282 -0.130416 -0.094966 -0.552749
    34 1.719421 0.000002 0.000000 0.000000 -0.006613 -0.362970
    35 1.099669 0.000002 -0.000001 0.000000 -0.004211 -0.767879
    36 0.806023 -0.359837 -1.318334 1.402404 0.526435 -0.917775
    37 1.789782 0.000000 -0.000004 -0.170073 0.039345 0.399731
    38 1.206999 0.000002 0.000000 0.000000 0.000000 1.061034
    39 -5.026028 -19.543501 -0.049026 1.456866 -0.017677 0.000643
    40 0.025545 -1.273521 1.753304 0.000000 0.000000 0.000000
    41 0.001032 1.440453 -1.526783 0.000000 0.000000 0.000000
    42 0.004413 0.696487 -1.430595 0.000000 0.000000 0.000000
    43 0.580660 0.349014 -1.430595 0.000000 0.000000 0.000000
    44 0.583444 -0.305904 -1.430599 0.000000 0.000000 0.000000
    45 0.005318 -0.648720 -1.430599 0.000000 0.000000 0.000000
    46 -0.574618 -0.303123 -1.430601 0.000000 0.000000 0.000000
    47 -0.573714 0.348118 -1.430595 0.000000 0.000000 0.000000
  time 9
    0 -0.999512 8.335938 -6.640625 -1.570760 -1.391893 -1.570827
    1 2.033349 1.000767 1.937660 1.596637 -1.286515 2.942961
    2 6.321118 -0.964873 1.468795 -0.296836 -1.156205 -1.878120
    3 11.692554 0.000001 0.000000 0.000000 0.000000 -0.933998
    4 11.481670 0.000001 -0.000031 -0.046686 -0.323581 0.631744
    5 3.859711 -0.142405 -1.191975 -0.491314 0.054897 -1.089461
    6 1.312555 -0.000002 0.000000 0.000000 0.000000 -0.435484
    7 0.729363 -0.000002 -0.000002 0.000000 0.000000 -0.240207
    8 3.942337 0.046767 -0.431443 -0.150138 0.076984 -0.776668
    9 1.539097 0.000000 0.000000 0.000000 0.000000 -0.409593
    10 1.196325 -0.000002 -0.000001 0.000000 0.000000 -0.581464
    11 3.883698 -0.046765 0.431443 0.085347 0.023775 -0.564480
    12 1.719570 -0.000004 -0.000001 0.000000 0.000000 -0.762886
    13 1.209169 -0.000004 0.000000 0.000000 0.000000 -0.256535
    14 3.859863 -0.137946 1.332466 0.483960 -0.048432 -0.425648
    15 1.719431 0.000002 0.000000 0.000000 0.000000 -0.496225
    16 1.099667 0.000000 -0.000001 0.000000 0.000000 -0.354423
    17 0.806053 -0.348926 1.321258 -1.287532 -0.366649 -0.722385
    18 1.789778 -0.000002 0.000002 0.000000 0.000000 0.212596
    19 1.207005 0.000000 0.000002 0.000000 0.000000 0.186299
    20 2.033356 1.000772 -1.937610 -2.129147 1.252455 2.502299
    21 6.028145 0.000000 0.000000 1.676454 1.216949 -1.148482
    22 11.692554 0.000001 0.000002 0.000000 0.000000 -1.087444
    23 11.481699 0.000001 0.000001 -1.447066 0.318054 0.713298
    24 3.859680 -0.132567 1.193109 0.076307 0.048692 -1.410406
    25 1.312555 -0.000002 0.000002 0.000000 0.000000 -0.439672
    26 0.729365 0.000000 -0.000001 0.000000 0.000000 -1.116930
    27 3.942307 0.050327 0.431044 0.032620 0.047811 -1.244425
    28 1.539099 -0.000002 0.000000 0.000000 0.000000 -0.858632
    29 1.196321 0.000010 0.000000 0.000000 0.000000 -1.041623
    30 3.883659 -0.050321 -0.431042 0.013675 -0.048012 -1.095524
    31 1.719578 0.000002 0.000000 0.000001 -0.007970 -1.239096
    32 1.209185 0.000002 0.000000 0.000000 -0.004460 -0.914505
    33 3.859840 -0.148937 -1.331282 -0.130416 -0.094966 -0.552749
    34 1.719421 0.000002 0.000000 0.000000 -0.006613 -0.362970
    35 1.099669 0.000002 -0.000001 0.000000 -0.004211 -0.767879
    36 0.806023 -0.359837 -1.318334 1.402404 0.526435 -0.917775
    37 1.789782 0.000000 -0.000004 -0.170073 0.039345 0.399731
    38 1.206999 0.000002 0.000000 0.000000 0.000000 1.061034
    39 -4.912743 -20.215397 -1.060775 1.538563 -0.010907 0.000852
    40 0.025545 -1.273521 1.753304 0.000000 0.000000 0.000000
    41 0.001032 1.440453 -1.526783 0.000000 0.000000 0.000000
    42 0.004413 0.696487 -1.430595 0.000000 0.000000 0.000000
    43 0.580660 0.349014 -1.430595 0.000000 0.000000 0.000000
    44 0.583444 -0.305904 -1.430599 0.000000 0.000000 0.000000
    45 0.005318 -0.648720 -1.430599 0.000000 0.000000 0.000000
    46 -0.574618 -0.303123 -1.430601 0.000000 0.000000 0.000000
    47 -0.573714 0.348118 -1.430595 0.000000 0.000000 0.000000
  time 10
    0 -0.999512 8.335938 -6.640625 -1.570760 -1.391893 -1.570827
    1 2.033349 1.000767 1.937660 1.596637 -1.286515 2.942961
    2 6.321118 -0.964873 1.468795 -0.310105 -1.149810 -1.861977
    3 11.692554 0.000001 0.000000 0.000000 0.000000 -0.919440
    4 11.481670 0.000001 -0.000031 -0.073712 -0.296409 0.660036
    5 3.859711 -0.142405 -1.191975 -0.491314 0.054897 -1.089461
    6 1.312555 -0.000002 0.000000 0.000000 0.000000 -0.435484
    7 0.729363 -0.000002 -0.000002 0.000000 0.000000 -0.240207
    8 3.942337 0.046767 -0.431443 -0.150138 0.076984 -0.776668
    9 1.539097 0.000000 0.000000 0.000000 0.000000 -0.409593
    10 1.196325 -0.000002 -0.000001 0.000000 0.000000 -0.581464
    11 3.883698 -0.046765 0.431443 0.085347 0.023775 -0.564480
    12 1.719570 -0.000004 -0.000001 0.000000 0.000000 -0.762886
    13 1.209169 -0.000004 0.000000 0.000000 0.000000 -0.256535
    14 3.859863 -0.137946 1.332466 0.483960 -0.048432 -0.425648
    15 1.719431 0.000002 0.000000 0.000000 0.000000 -0.496225
    16 1.099667 0.000000 -0.000001 0.000000 0.000000 -0.354423
    17 0.806053 -0.348926 1.321258 -1.287532 -0.366649 -0.722385
    18 1.789778 -0.000002 0.000002 0.000000 0.000000 0.212596
    19 1.207005 0.000000 0.000002 0.000000 0.000000 0.186299
    20 2.033356 1.000772 -1.937610 -2.129147 1.252455 2.502299
    21 6.028145 0.000000 0.000000 1.671600 1.217978 -1.153704
    22 11.692554 0.000001 0.000002 0.000000 0.000000 -1.046151
    23 11.481699 0.000001 0.000001 -1.441765 0.315776 0.733344
    24 3.859680 -0.132567 1.193109 0.076307 0.048692 -1.410406
    25 1.312555 -0.000002 0.000002 0.000000 0.000000 -0.439672
    26 0.729365 0.000000 -0.000001 0.000000 0.000000 -1.116930
    27 3.942307 0.050327 0.431044 0.032620 0.047811 -1.244425
    28 1.539099 -0.000002 0.000000 0.000000 0.000000 -0.858632
    29 1.196321 0.000010 0.000000 0.000000 0.000000 -1.041623
    30 3.883659 -0.050321 -0.431042 0.013663 -0.048012 -1.095524
    31 1.719578 0.000002 0.000000 0.000001 -0.007970 -1.239096
    32 1.209185 0.000002 0.000000 0.000000 -0.004460 -0.914505
    33 3.859840 -0.148937 -1.331282 -0.130416 -0.094966 -0.552749
    34 1.719421 0.000002 0.000000 0.000000 -0.006613 -0.362970
    35 1.099669 0.000002 -0.000001 0.000000 -0.004211 -0.767879
    36 0.806023 -0.359837 -1.318334 1.402404 0.526435 -0.917775
    37 1.789782 0.000000 -0.000004 -0.170073 0.039345 0.399731
    38 1.206999 0.000002 0.000000 0.000000 0.000000 1.061034
    39 -4.842428 -20.668535 -1.838143 1.597333 -0.009085 0.001551
    40 0.025545 -1.273521 1.753304 0.000000 0.000000 0.000000
    41 0.001032 1.440453 -1.526783 0.000000 0.000000 0.000000
    42 0.004413 0.696487 -1.430595 0.000000 0.000000 0.000000
    43 0.580660 0.349014 -1.430595 0.000000 0.000000 0.000000
    44 0.583444 -0.305904 -1.430599 0.000000 0.000000 0.000000
    45 0.005318 -0.648720 -1.430599 0.000000 0.000000 0.000000
    46 -0.574618 -0.303123 -1.430601 0.000000 0.000000 0.000000
    47 -0.573714 0.348118 -1.430595 0.000000 0.000000 0.000000
  time 11
    0 -0.999512 8.335938 -6.640625 -1.570760 -1.391893 -1.570827
    1 2.033349 1.000767 1.937660 1.596637 -1.286515 2.942961
    2 6.321118 -0.964873 1.468795 -0.315895 -1.144831 -1.854129
    3 11.692554 0.000001 0.000000 0.000000 0.000000 -0.906656
    4 11.481670 0.000001 -0.000031 -0.092516 -0.283539 0.670599
    5 3.859711 -0.142405 -1.191975 -0.491314 0.054897 -1.089461
    6 1.312555 -0.000002 0.000000 0.000000 0.000000 -0.435484
    7 0.729363 -0.000002 -0.000002 0.000000 0.000000 -0.240207
    8 3.942337 0.046767 -0.431443 -0.150138 0.076984 -0.776668
    9 1.539097 0.000000 0.000000 0.000000 0.000000 -0.409593
    10 1.196325 -0.000002 -0.000001 0.000000 0.000000 -0.581464
    11 3.883698 -0.046765 0.431443 0.085347 0.023775 -0.564480
    12 1.719570 -0.000004 -0.000001 0.000000 0.000000 -0.762886
    13 1.209169 -0.000004 0.000000 0.000000 0.000000 -0.256535
    14 3.859863 -0.137946 1.332466 0.483960 -0.048432 -0.425648
    15 1.719431 0.000002 0.000000 0.000000 0.000000 -0.496225
    16 1.099667 0.000000 -0.000001 0.000000 0.000000 -0.354423
    17 0.806053 -0.348926 1.321258 -1.287532 -0.366649 -0.722385
    18 1.789778 -0.000002 0.000002 0.000000 0.000000 0.212596
    19 1.207005 0.000000 0.000002 0.000000 0.000000 0.186299
    20 2.033356 1.000772 -1.937610 -2.129147 1.252455 2.502299
    21 6.028145 0.000000 0.000000 1.668548 1.218057 -1.157083
    22 11.692554 0.000001 0.000002 0.000000 0.000000 -1.019144
    23 11.481699 0.000001 0.000001 -1.443532 0.313953 0.738817
    24 3.859680 -0.132567 1.193109 0.076307 0.048692 -1.410433
    25 1.312555 -0.000002 0.000002 0.000000 0.000000 -0.439672
    26 0.729365 0.000000 -0.000001 0.000000 0.000000 -1.116930
    27 3.942307 0.050327 0.431044 0.032620 0.047811 -1.244425
    28 1.539099 -0.000002 0.000000 0.000000 0.000000 -0.858632
    29 1.196321 0.000010 0.000000 0.000000 0.000000 -1.041623
    30 3.883659 -0.050321 -0.431042 0.013675 -0.048012 -1.095524
    31 1.719578 0.000002 0.000000 0.000001 -0.007970 -1.239096
    32 1.209185 0.000002 0.000000 0.000000 -0.004460 -0.914505
    33 3.859840 -0.148937 -1.331282 -0.130416 -0.094966 -0.552749
    34 1.719421 0.000002 0.000000 0.000000 -0.006613 -0.362970
    35 1.099669 0.000002 -0.000001 0.000000 -0.004211 -0.767879
    36 0.806023 -0.359837 -1.318334 1.402404 0.526435 -0.917775
    37 1.789782 0.000000 -0.000004 -0.170073 0.039345 0.399731
    38 1.206999 0.000002 0.000000 0.000000 0.000000 1.061034
    39 -4.783833 -20.930262 -2.330345 1.630174 -0.003792 0.002948
    40 0.025545 -1.273521 1.753304 0.000000 0.000000 0.000000
    41 0.001032 1.440453 -1.526783 0.000000 0.000000 0.000000
    42 0.004413 0.696487 -1.430595 0.000000 0.000000 0.000000
    43 0.580660 0.349014 -1.430595 0.000000 0.000000 0.000000
    44 0.583444 -0.305904 -1.430599 0.000000 0.000000 0.000000
    45 0.005318 -0.648720 -1.430599 0.000000 0.000000 0.000000
    46 -0.574618 -0.303123 -1.430601 0.000000 0.000000 0.000000
    47 -0.573714 0.348118 -1.430595 0.000000 0.000000 0.000000
  time 12
    0 -0.999512 8.335938 -6.640625 -1.570760 -1.391893 -1.570827
    1 2.033349 1.000767 1.937660 1.596637 -1.286515 2.942961
    2 6.321118 -0.964873 1.468795 -0.314930 -1.139943 -1.853433
    3 11.692554 0.000001 0.000000 0.000000 0.000000 -0.891573
    4 11.481670 0.000001 -0.000031 -0.110300 -0.285176 0.662604
    5 3.859711 -0.142405 -1.191975 -0.491314 0.054897 -1.089461
    6 1.312555 -0.000002 0.000000 0.000000 0.000000 -0.435484
    7 0.729363 -0.000002 -0.000002 0.000000 0.000000 -0.240207
    8 3.942337 0.046767 -0.431443 -0.150138 0.076984 -0.776668
    9 1.539097 0.000000 0.000000 0.000000 0.000000 -0.409593
    10 1.196325 -0.000002 -0.000001 0.000000 0.000000 -0.581464
    11 3.883698 -0.046765 0.431443 0.085347 0.023775 -0.564480
    12 1.719570 -0.000004 -0.000001 0.000000 0.000000 -0.762886
    13 1.209169 -0.000004 0.000000 0.000000 0.000000 -0.256535
    14 3.859863 -0.137946 1.332466 0.483960 -0.048432 -0.425648
    15 1.719431 0.000002 0.000000 0.000000 0.000000 -0.496225
    16 1.099667 0.000000 -0.000001 0.000000 0.000000 -0.354423
    17 0.806053 -0.348926 1.321258 -1.287532 -0.366649 -0.722385
    18 1.789778 -0.000002 0.000002 0.000000 0.000000 0.212596
    19 1.207005 0.000000 0.000002 0.000000 0.000000 0.186299
    20 2.033356 1.000772 -1.937610 -2.129147 1.252455 2.502299
    21 6.028145 0.000000 0.000000 1.666097 1.216791 -1.159792
    22 11.692554 0.000001 0.000002 0.000000 0.000000 -1.001520
    23 11.481699 0.000001 0.000001 -1.456523 0.313484 0.728291
    24 3.859680 -0.132567 1.193109 0.076307 0.048692 -1.410406
    25 1.312555 -0.000002 0.000002 0.000000 0.000000 -0.439672
    26 0.729365 0.000000 -0.000001 0.000000 0.000000 -1.116930
    27 3.942307 0.050327 0.431044 0.032620 0.047811 -1.244425
    28 1.539099 -0.000002 0.000000 0.000000 0.000000 -0.858632
    29 1.196321 0.000010 0.000000 0.000000 0.000000 -1.041623
    30 3.883659 -0.050321 -0.431042 0.013675 -0.048012 -1.095524
    31 1.719578 0.000002 0.000000 0.000001 -0.007970 -1.239096
    32 1.209185 0.000002 0.000000 0.000000 -0.004460 -0.914505
    33 3.859840 -0.148937 -1.331282 -0.130416 -0.094966 -0.552749
    34 1.719421 0.000002 0.000000 0.000000 -0.006613 -0.362970
    35 1.099669 0.000002 -0.000001 0.000000 -0.004211 -0.767879
    36 0.806023 -0.359837 -1.318334 1.402404 0.526435 -0.917775
    37 1.789782 0.000000 -0.000004 -0.170073 0.039345 0.399731
    38 1.206999 0.000002 0.000000 0.000000 0.000000 1.061034
    39 -4.709612 -21.066985 -2.619416 1.640994 0.009403 0.005534
    40 0.025545 -1.273521 1.753304 0.000000 0.000000 0.000000
    41 0.001032 1.440453 -1.526783 0.000000 0.000000 0.000000
    42 0.004413 0.696487 -1.430595 0.000000 0.000000 0.000000
    43 0.580660 0.349014 -1.430595 0.000000 0.000000 0.000000
    44 0.583444 -0.305904 -1.430599 0.000000 0.000000 0.000000
    45 0.005318 -0.648720 -1.430599 0.000000 0.000000 0.000000
    46 -0.574618 -0.303123 -1.430601 0.000000 0.000000 0.000000
    47 -0.573714 0.348118 -1.430595 0.000000 0.000000 0.000000
  time 13
    0 -0.999512 8.335938 -6.640625 -1.570760 -1.391893 -1.570827
    1 2.033349 1.000767 1.937660 1.596637 -1.286515 2.942961
    2 6.321118 -0.964873 1.468795 -0.310491 -1.135787 -1.856662
    3 11.692554 0.000001 0.000000 0.000000 0.000000 -0.875563
    4 11.481670 0.000001 -0.000031 -0.122411 -0.296634 0.641561
    5 3.859711 -0.142405 -1.191975 -0.491314 0.054897 -1.089461
    6 1.312555 -0.000002 0.000000 0.000000 0.000000 -0.435484
    7 0.729363 -0.000002 -0.000002 0.000000 0.000000 -0.240207
    8 3.942337 0.046767 -0.431443 -0.150138 0.076984 -0.776668
    9 1.539097 0.000000 0.000000 0.000000 0.000000 -0.409593
    10 1.196325 -0.000002 -0.000001 0.000000 0.000000 -0.581464
    11 3.883698 -0.046765 0.431443 0.085347 0.023775 -0.564480
    12 1.719570 -0.000004 -0.000001 0.000000 0.000000 -0.762886
    13 1.209169 -0.000004 0.000000 0.000000 0.000000 -0.256535
    14 3.859863 -0.137946 1.332466 0.483960 -0.048432 -0.425648
    15 1.719431 0.000002 0.000000 0.000000 0.000000 -0.496225
    16 1.099667 0.000000 -0.000001 0.000000 0.000000 -0.354423
    17 0.806053 -0.348926 1.321258 -1.287532 -0.366649 -0.722385
    18 1.789778 -0.000002 0.000002 0.000000 0.000000 0.212596
    19 1.207005 0.000000 0.000002 0.000000 0.000000 0.186299
    20 2.033356 1.000772 -1.937610 -2.129147 1.252455 2.502299
    21 6.028145 0.000000 0.000000 1.664045 1.214258 -1.162110
    22 11.692554 0.000001 0.000002 0.000000 0.000000 -0.991334
    23 11.481699 0.000001 0.000001 -1.472666 0.313706 0.706345
    24 3.859680 -0.132567 1.193109 0.076307 0.048692 -1.410406
    25 1.312555 -0.000002 0.000002 0.000000 0.000000 -0.439672
    26 0.729365 0.000000 -0.000001 0.000000 0.000000 -1.116930
    27 3.942307 0.050327 0.431044 0.032620 0.047811 -1.244425
    28 1.539099 -0.000002 0.000000 0.000000 0.000000 -0.858632
    29 1.196321 0.000010 0.000000 0.000000 0.000000 -1.041623
    30 3.883659 -0.050321 -0.431042 0.013675 -0.048012 -1.095524
    31 1.719578 0.000002 0.000000 0.000001 -0.007970 -1.239096
    32 1.209185 0.000002 0.000000 0.000000 -0.004460 -0.914505
    33 3.859840 -0.148937 -1.331282 -0.130416 -0.094966 -0.552749
    34 1.719421 0.000002 0.000000 0.000000 -0.006613 -0.362970
    35 1.099669 0.000002 -0.000001 0.000000 -0.004211 -0.767879
    36 0.806023 -0.359837 -1.318334 1.402404 0.526435 -0.917775
    37 1.789782 0.000000 -0.000004 -0.170073 0.039345 0.399731
    38 1.206999 0.000002 0.000000 0.000000 0.000000 1.061034
    39 -4.643203 -21.113861 -2.744420 1.635179 0.023518 0.008189
    40 0.025545 -1.273521 1.753304 0.000000 0.000000 0.000000
    41 0.001032 1.440453 -1.526783 0.000000 0.000000 0.000000
    42 0.004413 0.696487 -1.430595 0.000000 0.000000 0.000000
    43 0.580660 0.349014 -1.430595 0.000000 0.000000 0.000000
    44 0.583444 -0.305904 -1.430599 0.000000 0.000000 0.000000
    45 0.005318 -0.648720 -1.430599 0.000000 0.000000 0.000000
    46 -0.574618 -0.303123 -1.430601 0.000000 0.000000 0.000000
    47 -0.573714 0.348118 -1.430595 0.000000 0.000000 0.000000
  time 14
    0 -0.999512 8.335938 -6.640625 -1.570760 -1.391893 -1.570827
    1 2.033349 1.000767 1.937660 1.596637 -1.286515 2.942961
    2 6.321118 -0.964873 1.468795 -0.305762 -1.132955 -1.860487
    3 11.692554 0.000001 0.000000 0.000000 0.000000 -0.860440
    4 11.481670 0.000001 -0.000031 -0.123877 -0.312225 0.612896
    5 3.859711 -0.142405 -1.191975 -0.491314 0.054897 -1.089461
    6 1.312555 -0.000002 0.000000 0.000000 0.000000 -0.435484
    7 0.729363 -0.000002 -0.000002 0.000000 0.000000 -0.240207
    8 3.942337 0.046767 -0.431443 -0.150138 0.076984 -0.776668
    9 1.539097 0.000000 0.000000 0.000000 0.000000 -0.409593
    10 1.196325 -0.000002 -0.000001 0.000000 0.000000 -0.581464
    11 3.883698 -0.046765 0.431443 0.085347 0.023775 -0.564480
    12 1.719570 -0.000004 -0.000001 0.000000 0.000000 -0.762886
    13 1.209169 -0.000004 0.000000 0.000000 0.000000 -0.256535
    14 3.859863 -0.137946 1.332466 0.483960 -0.048432 -0.425648
    15 1.719431 0.000002 0.000000 0.000000 0.000000 -0.496225
    16 1.099667 0.000000 -0.000001 0.000000 0.000000 -0.354423
    17 0.806053 -0.348926 1.321258 -1.287532 -0.366649 -0.722385
    18 1.789778 -0.000002 0.000002 0.000000 0.000000 0.212596
    19 1.207005 0.000000 0.000002 0.000000 0.000000 0.186299
    20 2.033356 1.000772 -1.937610 -2.129147 1.252455 2.502299
    21 6.028145 0.000000 0.000000 1.662144 1.210459 -1.164288
    22 11.692554 0.000001 0.000002 0.000000 0.000000 -0.986812
    23 11.481699 0.000001 0.000001 -1.483746 0.314122 0.678314
    24 3.859680 -0.132567 1.193109 0.076307 0.048692 -1.410406
    25 1.312555 -0.000002 0.000002 0.000000 0.000000 -0.439672
    26 0.729365 0.000000 -0.000001 0.000000 0.000000 -1.116930
    27 3.942307 0.050327 0.431044 0.032620 0.047811 -1.244425
    28 1.539099 -0.000002 0.000000 0.000000 0.000000 -0.858632
    29 1.196321 0.000010 0.000000 0.000000 0.000000 -1.041623
    30 3.883659 -0.050321 -0.431042 0.013675 -0.048012 -1.095524
    31 1.719578 0.000002 0.000000 0.000001 -0.007970 -1.239096
    32 1.209185 0.000002 0.000000 0.000000 -0.004460 -0.914505
    33 3.859840 -0.148937 -1.331282 -0.130416 -0.094966 -0.552749
    34 1.719421 0.000002 0.000000 0.000000 -0.006613 -0.362970
    35 1.099669 0.000002 -0.000001 0.000000 -0.004211 -0.767879
    36 0.806023 -0.359837 -1.318334 1.402404 0.526435 -0.917775
    37 1.789782 0.000000 -0.000004 -0.170073 0.039345 0.399731
    38 1.206999 0.000002 0.000000 0.000000 0.000000 1.061034
    39 -4.604140 -21.098236 -2.752233 1.618020 0.031746 0.009516
    40 0.025545 -1.273521 1.753304 0.000000 0.000000 0.000000
    41 0.001032 1.440453 -1.526783 0.000000 0.000000 0.000000
    42 0.004413 0.696487 -1.430595 0.000000 0.000000 0.000000
    43 0.580660 0.349014 -1.430595 0.000000 0.000000 0.000000
    44 0.583444 -0.305904 -1.430599 0.000000 0.000000 0.000000
    45 0.005318 -0.648720 -1.430599 0.000000 0.000000 0.000000
    46 -0.574618 -0.303123 -1.430601 0.000000 0.000000 0.000000
    47 -0.573714 0.348118 -1.430595 0.000000 0.000000 0.000000
  time 15
    0 -0.999512 8.335938 -6.640625 -1.570760 -1.391893 -1.570827
    1 2.033349 1.000767 1.937660 1.596637 -1.286515 2.942961
    2 6.321118 -0.964873 1.468795 -0.303446 -1.131630 -1.862473
    3 11.692554 0.000001 0.000000 0.000000 0.000000 -0.848140
    4 11.481670 0.000001 -0.000031 -0.112786 -0.326814 0.581373
    5 3.859711 -0.142405 -1.191975 -0.491314 0.054897 -1.089461
    6 1.312555 -0.000002 0.000000 0.000000 0.000000 -0.435484
    7 0.729363 -0.000002 -0.000002 0.000000 0.000000 -0.240207
    8 3.942337 0.046767 -0.431443 -0.150138 0.076984 -0.776668
    9 1.539097 0.000000 0.000000 0.000000 0.000000 -0.409593
    10 1.196325 -0.000002 -0.000001 0.000000 0.000000 -0.581464
    11 3.883698 -0.046765 0.431443 0.085347 0.023775 -0.564480
    12 1.719570 -0.000004 -0.000001 0.000000 0.000000 -0.762886
    13 1.209169 -0.000004 0.000000 0.000000 0.000000 -0.256535
    14 3.859863 -0.137946 1.332466 0.483960 -0.048432 -0.425648
    15 1.719431 0.000002 0.000000 0.000000 0.000000 -0.496225
    16 1.099667 0.000000 -0.000001 0.000000 0.000000 -0.354423
    17 0.806053 -0.348926 1.321258 -1.287532 -0.366649 -0.722385
    18 1.789778 -0.000002 0.000002 0.000000 0.000000 0.212596
    19 1.207005 0.000000 0.000002 0.000000 0.000000 0.186299
    20 2.033356 1.000772 -1.937610 -2.129147 1.252455 2.502299
    21 6.028145 0.000000 0.000000 1.660193 1.205987 -1.166466
    22 11.692554 0.000001 0.000002 0.000000 0.000000 -0.986305
    23 11.481699 0.000001 0.000001 -1.485608 0.315632 0.649472
    24 3.859680 -0.132567 1.193109 0.076307 0.048692 -1.410406
    25 1.312555 -0.000002 0.000002 0.000000 0.000000 -0.439672
    26 0.729365 0.000000 -0.000001 0.000000 0.000000 -1.116930
    27 3.942307 0.050327 0.431044 0.032620 0.047811 -1.244425
    28 1.539099 -0.000002 0.000000 0.000000 0.000000 -0.858632
    29 1.196321 0.000010 0.000000 0.000000 0.000000 -1.041623
    30 3.883659 -0.050321 -0.431042 0.013675 -0.048012 -1.095524
    31 1.719578 0.000002 0.000000 0.000001 -0.007970 -1.239096
    32 1.209185 0.000002 0.000000 0.000000 -0.004460 -0.914505
    33 3.859840 -0.148937 -1.331282 -0.130416 -0.094966 -0.552749
    34 1.719421 0.000002 0.000000 0.000000 -0.006613 -0.362970
    35 1.099669 0.000002 -0.000001 0.000000 -0.004211 -0.767879
    36 0.806023 -0.359837 -1.318334 1.402404 0.526435 -0.917775
    37 1.789782 0.000000 -0.000004 -0.170073 0.039345 0.399731
    38 1.206999 0.000002 0.000000 0.000000 0.000000 1.061034
    39 -4.608046 -21.043547 -2.685825 1.594712 0.030422 0.008678
    40 0.025545 -1.273521 1.753304 0.000000 0.000000 0.000000
    41 0.001032 1.440453 -1.526783 0.000000 0.000000 0.000000
    42 0.004413 0.696487 -1.430595 0.000000 0.000000 0.000000
    43 0.580660 0.349014 -1.430595 0.000000 0.000000 0.000000
    44 0.583444 -0.305904 -1.430599 0.000000 0.000000 0.000000
    45 0.005318 -0.648720 -1.430599 0.000000 0.000000 0.000000
    46 -0.574618 -0.303123 -1.430601 0.000000 0.000000 0.000000
    47 -0.573714 0.348118 -1.430595 0.000000 0.000000 0.000000
  time 16
    0 -0.999512 8.335938 -6.640625 -1.570760 -1.391893 -1.570827
    1 2.033349 1.000767 1.937660 1.596637 -1.286515 2.942961
    2 6.321118 -0.964873 1.468795 -0.302578 -1.131539 -1.863368
    3 11.692554 0.000001 0.000000 0.000000 0.000000 -0.838300
    4 11.481670 0.000001 -0.000031 -0.095512 -0.338906 0.549891
    5 3.859711 -0.142405 -1.191975 -0.491314 0.054897 -1.089461
    6 1.312555 -0.000002 0.000000 0.000000 0.000000 -0.435484
    7 0.729363 -0.000002 -0.000002 0.000000 0.000000 -0.240207
    8 3.942337 0.046767 -0.431443 -0.150138 0.076984 -0.776699
    9 1.539097 0.000000 0.000000 0.000000 0.000000 -0.409593
    10 1.196325 -0.000002 -0.000001 0.000000 0.000000 -0.581464
    11 3.883698 -0.046765 0.431443 0.085347 0.023775 -0.564480
    12 1.719570 -0.000004 -0.000001 0.000000 0.000000 -0.762886
    13 1.209169 -0.000004 0.000000 0.000000 0.000000 -0.256535
    14 3.859863 -0.137946 1.332466 0.483960 -0.048432 -0.425648
    15 1.719431 0.000002 0.000000 0.000000 0.000000 -0.496225
    16 1.099667 0.000000 -0.000001 0.000000 0.000000 -0.354423
    17 0.806053 -0.348926 1.321258 -1.287532 -0.366649 -0.722385
    18 1.789778 -0.000002 0.000002 0.000000 0.000000 0.212596
    19 1.207005 0.000000 0.000002 0.000000 0.000000 0.186299
    20 2.033356 1.000772 -1.937610 -2.129147 1.252455 2.502299
    21 6.028145 0.000000 0.000000 1.658142 1.201555 -1.168588
    22 11.692554 0.000001 0.000002 0.000000 0.000000 -0.988122
    23 11.481699 0.000001 0.000001 -1.482313 0.318471 0.622194
    24 3.859680 -0.132567 1.193109 0.076307 0.048692 -1.410406
    25 1.312555 -0.000002 0.000002 0.000000 0.000000 -0.439672
    26 0.729365 0.000000 -0.000001 0.000000 0.000000 -1.116930
    27 3.942307 0.050327 0.431044 0.032620 0.047811 -1.244425
    28 1.539099 -0.000002 0.000000 0.000000 0.000000 -0.858632
    29 1.196321 0.000010 0.000000 0.000000 0.000000 -1.041623
    30 3.883659 -0.050321 -0.431042 0.013675 -0.048012 -1.095524
    31 1.719578 0.000002 0.000000 0.000001 -0.007970 -1.239096
    32 1.209185 0.000002 0.000000 0.000000 -0.004460 -0.914505
    33 3.859840 -0.148937 -1.331282 -0.130416 -0.094966 -0.552749
    34 1.719421 0.000002 0.000000 0.000000 -0.006613 -0.362970
    35 1.099669 0.000002 -0.000001 0.000000 -0.004211 -0.767879
    36 0.806023 -0.359837 -1.318334 1.402404 0.526435 -0.917775
    37 1.789782 0.000000 -0.000004 -0.170073 0.039345 0.399719
    38 1.206999 0.000002 0.000000 0.000000 0.000000 1.061034
    39 -4.635391 -20.969326 -2.576446 1.569593 0.024074 0.006163
    40 0.025545 -1.273521 1.753304 0.000000 0.000000 0.000000
    41 0.001032 1.440453 -1.526783 0.000000 0.000000 0.000000
    42 0.004413 0.696487 -1.430595 0.000000 0.000000 0.000000
    43 0.580660 0.349014 -1.430595 0.000000 0.000000 0.000000
    44 0.583444 -0.305904 -1.430599 0.000000 0.000000 0.000000
    45 0.005318 -0.648720 -1.430599 0.000000 0.000000 0.000000
    46 -0.574618 -0.303123 -1.430601 0.000000 0.000000 0.000000
    47 -0.573714 0.348118 -1.430595 0.000000 0.000000 0.000000
  time 17
    0 -0.999512 8.335938 -6.640625 -1.570760 -1.391893 -1.570827
    1 2.033349 1.000767 1.937660 1.596637 -1.286515 2.942961
    2 6.321118 -0.964873 1.468795 -0.301709 -1.131904 -1.864411
    3 11.692554 0.000001 0.000000 0.000000 0.000000 -0.830436
    4 11.481670 0.000001 -0.000031 -0.079704 -0.348093 0.522386
    5 3.859711 -0.142405 -1.191975 -0.491314 0.054897 -1.089461
    6 1.312555 -0.000002 0.000000 0.000000 0.000000 -0.435484
    7 0.729363 -0.000002 -0.000002 0.000000 0.000000 -0.240207
    8 3.942337 0.046767 -0.431443 -0.150138 0.076984 -0.776668
    9 1.539097 0.000000 0.000000 0.000000 0.000000 -0.409593
    10 1.196325 -0.000002 -0.000001 0.000000 0.000000 -0.581464
    11 3.883698 -0.046765 0.431443 0.085347 0.023775 -0.564480
    12 1.719570 -0.000004 -0.000001 0.000000 0.000000 -0.762886
    13 1.209169 -0.000004 0.000000 0.000000 0.000000 -0.256535
    14 3.859863 -0.137946 1.332466 0.483960 -0.048432 -0.425648
    15 1.719431 0.000002 0.000000 0.000000 0.000000 -0.496225
    16 1.099667 0.000000 -0.000001 0.000000 0.000000 -0.354423
    17 0.806053 -0.348926 1.321258 -1.287532 -0.366649 -0.722385
    18 1.789778 -0.000002 0.000002 0.000000 0.000000 0.212596
    19 1.207005 0.000000 0.000002 0.000000 0.000000 0.186299
    20 2.033356 1.000772 -1.937610 -2.129147 1.252455 2.502299
    21 6.028145 0.000000 0.000000 1.656290 1.198032 -1.170515
    22 11.692554 0.000001 0.000002 0.000000 0.000000 -0.990658
    23 11.481699 0.000001 0.000001 -1.479304 0.321999 0.599384
    24 3.859680 -0.132567 1.193109 0.076307 0.048692 -1.410406
    25 1.312555 -0.000002 0.000002 0.000000 0.000000 -0.439672
    26 0.729365 0.000000 -0.000001 0.000000 0.000000 -1.116930
    27 3.942307 0.050327 0.431044 0.032620 0.047811 -1.244425
    28 1.539099 -0.000002 0.000000 0.000000 0.000000 -0.858632
    29 1.196321 0.000010 0.000000 0.000000 0.000000 -1.041623
    30 3.883659 -0.050321 -0.431042 0.013675 -0.048012 -1.095524
    31 1.719578 0.000002 0.000000 0.000001 -0.007970 -1.239096
    32 1.209185 0.000002 0.000000 0.000000 -0.004460 -0.914505
    33 3.859840 -0.148937 -1.331282 -0.130416 -0.094966 -0.552749
    34 1.719421 0.000002 0.000000 0.000000 -0.006613 -0.362970
    35 1.099669 0.000002 -0.000001 0.000000 -0.004211 -0.767879
    36 0.806023 -0.359837 -1.318334 1.402404 0.526435 -0.917775
    37 1.789782 0.000000 -0.000004 -0.170073 0.039345 0.399731
    38 1.206999 0.000002 0.000000 0.000000 0.000000 1.061034
    39 -4.666642 -20.887292 -2.463162 1.547429 0.018359 0.003298
    40 0.025545 -1.273521 1.753304 0.000000 0.000000 0.000000
    41 0.001032 1.440453 -1.526783 0.000000 0.000000 0.000000
    42 0.004413 0.696487 -1.430595 0.000000 0.000000 0.000000
    43 0.580660 0.349014 -1.430595 0.000000 0.000000 0.000000
    44 0.583444 -0.305904 -1.430599 0.000000 0.000000 0.000000
    45 0.005318 -0.648720 -1.430599 0.000000 0.000000 0.000000
    46 -0.574618 -0.303123 -1.430601 0.000000 0.000000 0.000000
    47 -0.573714 0.348118 -1.430595 0.000000 0.000000 0.000000
  time 18
    0 -0.999512 8.335938 -6.640625 -1.570760 -1.391893 -1.570827
    1 2.033349 1.000767 1.937660 1.596637 -1.286515 2.942961
    2 6.321118 -0.964873 1.468795 -0.301613 -1.132178 -1.864709
    3 11.692554 0.000001 0.000000 0.000000 0.000000 -0.827734
    4 11.481670 0.000001 -0.000031 -0.073776 -0.350712 0.512113
    5 3.859711 -0.142405 -1.191975 -0.491314 0.054897 -1.089461
    6 1.312555 -0.000002 0.000000 0.000000 0.000000 -0.435484
    7 0.729363 -0.000002 -0.000002 0.000000 0.000000 -0.240207
    8 3.942337 0.046767 -0.431443 -0.150138 0.076984 -0.776668
    9 1.539097 0.000000 0.000000 0.000000 0.000000 -0.409593
    10 1.196325 -0.000002 -0.000001 0.000000 0.000000 -0.581464
    11 3.883698 -0.046765 0.431443 0.085347 0.023775 -0.564480
    12 1.719570 -0.000004 -0.000001 0.000000 0.000000 -0.762886
    13 1.209169 -0.000004 0.000000 0.000000 0.000000 -0.256535
    14 3.859863 -0.137946 1.332466 0.483960 -0.048432 -0.425648
    15 1.719431 0.000002 0.000000 0.000000 0.000000 -0.496225
    16 1.099667 0.000000 -0.000001 0.000000 0.000000 -0.354423
    17 0.806053 -0.348926 1.321258 -1.287532 -0.366649 -0.722385
    18 1.789778 -0.000002 0.000002 0.000000 0.000000 0.212596
    19 1.207005 0.000000 0.000002 0.000000 0.000000 0.186299
    20 2.033356 1.000772 -1.937610 -2.129147 1.252455 2.502299
    21 6.028145 0.000000 0.000000 1.655440 1.196806 -1.171381
    22 11.692554 0.000001 0.000002 0.000000 0.000000 -0.991672
    23 11.481699 0.000001 0.000001 -1.478110 0.323964 0.591650
    24 3.859680 -0.132567 1.193109 0.076307 0.048692 -1.410406
    25 1.312555 -0.000002 0.000002 0.000000 0.000000 -0.439672
    26 0.729365 0.000000 -0.000001 0.000000 0.000000 -1.116930
    27 3.942307 0.050327 0.431044 0.032620 0.047811 -1.244425
    28 1.539099 -0.000002 0.000000 0.000000 0.000000 -0.858632
    29 1.196321 0.000010 0.000000 0.000000 0.000000 -1.041623
    30 3.883659 -0.050321 -0.431042 0.013675 -0.048012 -1.095524
    31 1.719578 0.000002 0.000000 0.000001 -0.007970 -1.239096
    32 1.209185 0.000002 0.000000 0.000000 -0.004460 -0.914505
    33 3.859840 -0.148937 -1.331282 -0.130416 -0.094966 -0.552749
    34 1.719421 0.000002 0.000000 0.000000 -0.006613 -0.362970
    35 1.099669 0.000002 -0.000001 0.000000 -0.004211 -0.767879
    36 0.806023 -0.359837 -1.318334 1.402404 0.526435 -0.917775
    37 1.789782 0.000000 -0.000004 -0.170073 0.039345 0.399731
    38 1.206999 0.000002 0.000000 0.000000 0.000000 1.061034
    39 -4.678361 -20.863854 -2.424098 1.539421 0.016192 0.001621
    40 0.025545 -1.273521 1.753304 0.000000 0.000000 0.000000
    41 0.001032 1.440453 -1.526783 0.000000 0.000000 0.000000
    42 0.004413 0.696487 -1.430595 0.000000 0.000000 0.000000
    43 0.580660 0.349014 -1.430595 0.000000 0.000000 0.000000
    44 0.583444 -0.305904 -1.430599 0.000000 0.000000 0.000000
    45 0.005318 -0.648720 -1.430599 0.000000 0.000000 0.000000
    46 -0.574618 -0.303123 -1.430601 0.000000 0.000000 0.000000
    47 -0.573714 0.348118 -1.430595 0.000000 0.000000 0.000000
  time 19
    0 -0.999512 8.335938 -6.640625 -1.570760 -1.391893 -1.570827
    1 2.033349 1.000767 1.937660 1.596637 -1.286515 2.942961
    2 6.321118 -0.964873 1.468795 -0.302288 -1.132178 -1.863964
    3 11.692554 0.000001 0.000000 0.000000 0.000000 -0.829952
    4 11.481670 0.000001 -0.000031 -0.076772 -0.348073 0.518326
    5 3.859711 -0.142405 -1.191975 -0.491314 0.054897 -1.089461
    6 1.312555 -0.000002 0.000000 0.000000 0.000000 -0.435484
    7 0.729363 -0.000002 -0.000002 0.000000 0.000000 -0.240207
    8 3.942337 0.046767 -0.431443 -0.150138 0.076984 -0.776668
    9 1.539097 0.000000 0.000000 0.000000 0.000000 -0.409593
    10 1.196325 -0.000002 -0.000001 0.000000 0.000000 -0.581464
    11 3.883698 -0.046765 0.431443 0.085347 0.023775 -0.564480
    12 1.719570 -0.000004 -0.000001 0.000000 0.000000 -0.762886
    13 1.209169 -0.000004 0.000000 0.000000 0.000000 -0.256535
    14 3.859863 -0.137946 1.332466 0.483960 -0.048432 -0.425648
    15 1.719431 0.000002 0.000000 0.000000 0.000000 -0.496225
    16 1.099667 0.000000 -0.000001 0.000000 0.000000 -0.354423
    17 0.806053 -0.348926 1.321258 -1.287532 -0.366649 -0.722385
    18 1.789778 -0.000002 0.000002 0.000000 0.000000 0.212596
    19 1.207005 0.000000 0.000002 0.000000 0.000000 0.186299
    20 2.033356 1.000772 -1.937610 -2.129147 1.252455 2.502299
    21 6.028145 0.000000 0.000000 1.655690 1.197558 -1.171074
    22 11.692554 0.000001 0.000002 0.000000 0.000000 -0.991419
    23 11.481699 0.000001 0.000001 -1.478206 0.323691 0.596843
    24 3.859680 -0.132567 1.193109 0.076307 0.048692 -1.410406
    25 1.312555 -0.000002 0.000002 0.000000 0.000000 -0.439672
    26 0.729365 0.000000 -0.000001 0.000000 0.000000 -1.116930
    27 3.942307 0.050327 0.431044 0.032620 0.047811 -1.244425
    28 1.539099 -0.000002 0.000000 0.000000 0.000000 -0.858632
    29 1.196321 0.000010 0.000000 0.000000 0.000000 -1.041623
    30 3.883659 -0.050321 -0.431042 0.013675 -0.048012 -1.095524
    31 1.719578 0.000002 0.000000 0.000001 -0.007970 -1.239096
    32 1.209185 0.000002 0.000000 0.000000 -0.004460 -0.914505
    33 3.859840 -0.148937 -1.331282 -0.130416 -0.094966 -0.552749
    34 1.719421 0.000002 0.000000 0.000000 -0.006613 -0.362970
    35 1.099669 0.000002 -0.000001 0.000000 -0.004211 -0.767879
    36 0.806023 -0.359837 -1.318334 1.402404 0.526435 -0.917775
    37 1.789782 0.000000 -0.000004 -0.170073 0.039345 0.399731
    38 1.206999 0.000002 0.000000 0.000000 0.000000 1.061034
    39 -4.674454 -20.879479 -2.443630 1.544378 0.017036 0.001760
    40 0.025545 -1.273521 1.753304 0.000000 0.000000 0.000000
    41 0.001032 1.440453 -1.526783 0.000000 0.000000 0.000000
    42 0.004413 0.696487 -1.430595 0.000000 0.000000 0.000000
    43 0.580660 0.349014 -1.430595 0.000000 0.000000 0.000000
    44 0.583444 -0.305904 -1.430599 0.000000 0.000000 0.000000
    45 0.005318 -0.648720 -1.430599 0.000000 0.000000 0.000000
    46 -0.574618 -0.303123 -1.430601 0.000000 0.000000 0.000000
    47 -0.573714 0.348118 -1.430595 0.000000 0.000000 0.000000
  time 20
    0 -0.999512 8.335938 -6.640625 -1.570760 -1.391893 -1.570827
    1 2.033349 1.000767 1.937660 1.596637 -1.286515 2.942961
    2 6.321118 -0.964873 1.468795 -0.302867 -1.132041 -1.863268
    3 11.692554 0.000001 0.000000 0.000000 0.000000 -0.833743
    4 11.481670 0.000001 -0.000031 -0.083911 -0.343653 0.530795
    5 3.859711 -0.142405 -1.191975 -0.491314 0.054897 -1.089461
    6 1.312555 -0.000002 0.000000 0.000000 0.000000 -0.435484
    7 0.729363 -0.000002 -0.000002 0.000000 0.000000 -0.240207
    8 3.942337 0.046767 -0.431443 -0.150138 0.076984 -0.776668
    9 1.539097 0.000000 0.000000 0.000000 0.000000 -0.409593
    10 1.196325 -0.000002 -0.000001 0.000000 0.000000 -0.581464
    11 3.883698 -0.046765 0.431443 0.085347 0.023775 -0.564480
    12 1.719570 -0.000004 -0.000001 0.000000 0.000000 -0.762886
    13 1.209169 -0.000004 0.000000 0.000000 0.000000 -0.256535
    14 3.859863 -0.137946 1.332466 0.483960 -0.048432 -0.425648
    15 1.719431 0.000002 0.000000 0.000000 0.000000 -0.496225
    16 1.099667 0.000000 -0.000001 0.000000 0.000000 -0.354423
    17 0.806053 -0.348926 1.321258 -1.287532 -0.366649 -0.722385
    18 1.789778 -0.000002 0.000002 0.000000 0.000000 0.212596
    19 1.207005 0.000000 0.000002 0.000000 0.000000 0.186299
    20 2.033356 1.000772 -1.937610 -2.129147 1.252455 2.502299
    21 6.028145 0.000000 0.000000 1.656440 1.199141 -1.170320
    22 11.692554 0.000001 0.000002 0.000000 0.000000 -0.990531
    23 11.481699 0.000001 0.000001 -1.479495 0.322428 0.607397
    24 3.859680 -0.132567 1.193109 0.076307 0.048692 -1.410406
    25 1.312555 -0.000002 0.000002 0.000000 0.000000 -0.439672
    26 0.729365 0.000000 -0.000001 0.000000 0.000000 -1.116930
    27 3.942307 0.050327 0.431044 0.032620 0.047811 -1.244425
    28 1.539099 -0.000002 0.000000 0.000000 0.000000 -0.858632
    29 1.196321 0.000010 0.000000 0.000000 0.000000 -1.041623
    30 3.883659 -0.050321 -0.431042 0.013675 -0.048012 -1.095524
    31 1.719578 0.000002 0.000000 0.000001 -0.007970 -1.239096
    32 1.209185 0.000002 0.000000 0.000000 -0.004460 -0.914505
    33 3.859840 -0.148937 -1.331282 -0.130416 -0.094966 -0.552749
    34 1.719421 0.000002 0.000000 0.000000 -0.006613 -0.362970
    35 1.099669 0.000002 -0.000001 0.000000 -0.004211 -0.767895
    36 0.806023 -0.359837 -1.318334 1.402404 0.526435 -0.917775
    37 1.789782 0.000000 -0.000004 -0.170073 0.039345 0.399731
    38 1.206999 0.000002 0.000000 0.000000 0.000000 1.061034
    39 -4.662735 -20.910730 -2.490506 1.554340 0.019548 0.002739
    40 0.025545 -1.273521 1.753304 0.000000 0.000000 0.000000
    41 0.001032 1.440453 -1.526783 0.000000 0.000000 0.000000
    42 0.004413 0.696487 -1.430595 0.000000 0.000000 0.000000
    43 0.580660 0.349014 -1.430595 0.000000 0.000000 0.000000
    44 0.583444 -0.305904 -1.430599 0.000000 0.000000 0.000000
    45 0.005318 -0.648720 -1.430599 0.000000 0.000000 0.000000
    46 -0.574618 -0.303123 -1.430601 0.000000 0.000000 0.000000
    47 -0.573714 0.348118 -1.430595 0.000000 0.000000 0.000000
  time 21
    0 -0.999512 8.335938 -6.640625 -1.570760 -1.391893 -1.570827
    1 2.033349 1.000767 1.937660 1.596637 -1.286515 2.942961
    2 6.321118 -0.964873 1.468795 -0.303157 -1.131950 -1.862921
    3 11.692554 0.000001 0.000000 0.000000 0.000000 -0.836364
    4 11.481670 0.000001 -0.000031 -0.088883 -0.340666 0.539328
    5 3.859711 -0.142405 -1.191975 -0.491314 0.054897 -1.089461
    6 1.312555 -0.000002 0.000000 0.000000 0.000000 -0.435484
    7 0.729363 -0.000002 -0.000002 0.000000 0.000000 -0.240207
    8 3.942337 0.046767 -0.431443 -0.150138 0.076984 -0.776668
    9 1.539097 0.000000 0.000000 0.000000 0.000000 -0.409593
    10 1.196325 -0.000002 -0.000001 0.000000 0.000000 -0.581464
    11 3.883698 -0.046765 0.431443 0.085347 0.023775 -0.564480
    12 1.719570 -0.000004 -0.000001 0.000000 0.000000 -0.762886
    13 1.209169 -0.000004 0.000000 0.000000 0.000000 -0.256535
    14 3.859863 -0.137946 1.332466 0.483960 -0.048432 -0.425648
    15 1.719431 0.000002 0.000000 0.000000 0.000000 -0.496225
    16 1.099667 0.000000 -0.000001 0.000000 0.000000 -0.354423
    17 0.806053 -0.348926 1.321258 -1.287532 -0.366649 -0.722385
    18 1.789778 -0.000002 0.000002 0.000000 0.000000 0.212596
    19 1.207005 0.000000 0.000002 0.000000 0.000000 0.186299
    20 2.033356 1.000772 -1.937610 -2.129147 1.252455 2.502299
    21 6.028145 0.000000 0.000000 1.656991 1.200249 -1.169705
    22 11.692554 0.000001 0.000002 0.000000 0.000000 -0.989897
    23 11.481699 0.000001 0.000001 -1.480450 0.321491 0.614628
    24 3.859680 -0.132567 1.193109 0.076307 0.048692 -1.410406
    25 1.312555 -0.000002 0.000002 0.000000 0.000000 -0.439672
    26 0.729365 0.000000 -0.000001 0.000000 0.000000 -1.116930
    27 3.942307 0.050327 0.431044 0.032620 0.047811 -1.244425
    28 1.539099 -0.000002 0.000000 0.000000 0.000000 -0.858632
    29 1.196321 0.000010 0.000000 0.000000 0.000000 -1.041623
    30 3.883659 -0.050321 -0.431042 0.013675 -0.048012 -1.095524
    31 1.719578 0.000002 0.000000 0.000001 -0.007970 -1.239096
    32 1.209185 0.000002 0.000000 0.000000 -0.004460 -0.914505
    33 3.859840 -0.148937 -1.331282 -0.130416 -0.094966 -0.552749
    34 1.719421 0.000002 0.000000 0.000000 -0.006613 -0.362970
    35 1.099669 0.000002 -0.000001 0.000000 -0.004211 -0.767879
    36 0.806023 -0.359837 -1.318334 1.402404 0.526435 -0.917775
    37 1.789782 0.000000 -0.000004 -0.170073 0.039345 0.399731
    38 1.206999 0.000002 0.000000 0.000000 0.000000 1.061034
    39 -4.654922 -20.934168 -2.525664 1.561251 0.021428 0.003507
    40 0.025545 -1.273521 1.753304 0.000000 0.000000 0.000000
    41 0.001032 1.440453 -1.526783 0.000000 0.000000 0.000000
    42 0.004413 0.696487 -1.430595 0.000000 0.000000 0.000000
    43 0.580660 0.349014 -1.430595 0.000000 0.000000 0.000000
    44 0.583444 -0.305904 -1.430599 0.000000 0.000000 0.000000
    45 0.005318 -0.648720 -1.430599 0.000000 0.000000 0.000000
    46 -0.574618 -0.303123 -1.430601 0.000000 0.000000 0.000000
    47 -0.573714 0.348118 -1.430595 0.000000 0.000000 0.000000
  time 22
    0 -0.999512 8.335938 -6.640625 -1.570760 -1.391893 -1.570827
    1 2.033349 1.000767 1.937660 1.596637 -1.286515 2.942961
    2 6.321118 -0.964873 1.468795 -0.303012 -1.131950 -1.863119
    3 11.692554 0.000001 0.000000 0.000000 0.000000 -0.835396
    4 11.481670 0.000001 -0.000031 -0.087289 -0.341873 0.536677
    5 3.859711 -0.142405 -1.191975 -0.491314 0.054897 -1.089461
    6 1.312555 -0.000002 0.000000 0.000000 0.000000 -0.435484
    7 0.729363 -0.000002 -0.000002 0.000000 0.000000 -0.240207
    8 3.942337 0.046767 -0.431443 -0.150138 0.076984 -0.776668
    9 1.539097 0.000000 0.000000 0.000000 0.000000 -0.409593
    10 1.196325 -0.000002 -0.000001 0.000000 0.000000 -0.581464
    11 3.883698 -0.046765 0.431443 0.085347 0.023775 -0.564480
    12 1.719570 -0.000004 -0.000001 0.000000 0.000000 -0.762886
    13 1.209169 -0.000004 0.000000 0.000000 0.000000 -0.256535
    14 3.859863 -0.137946 1.332466 0.483960 -0.048432 -0.425648
    15 1.719431 0.000002 0.000000 0.000000 0.000000 -0.496225
    16 1.099667 0.000000 -0.000001 0.000000 0.000000 -0.354423
    17 0.806053 -0.348926 1.321258 -1.287532 -0.366649 -0.722385
    18 1.789778 -0.000002 0.000002 0.000000 0.000000 0.212596
    19 1.207005 0.000000 0.000002 0.000000 0.000000 0.186299
    20 2.033356 1.000772 -1.937610 -2.129147 1.252455 2.502299
    21 6.028145 0.000000 0.000000 1.656891 1.199932 -1.169873
    22 11.692554 0.000001 0.000002 0.000000 0.000000 -0.990024
    23 11.481699 0.000001 0.000001 -1.480164 0.321556 0.612143
    24 3.859680 -0.132567 1.193109 0.076307 0.048692 -1.410433
    25 1.312555 -0.000002 0.000002 0.000000 0.000000 -0.439672
    26 0.729365 0.000000 -0.000001 0.000000 0.000000 -1.116930
    27 3.942307 0.050327 0.431044 0.032620 0.047811 -1.244425
    28 1.539099 -0.000002 0.000000 0.000000 0.000000 -0.858632
    29 1.196321 0.000010 0.000000 0.000000 0.000000 -1.041623
    30 3.883659 -0.050321 -0.431042 0.013675 -0.048012 -1.095542
    31 1.719578 0.000002 0.000000 0.000001 -0.007970 -1.239096
    32 1.209185 0.000002 0.000000 0.000000 -0.004460 -0.914505
    33 3.859840 -0.148937 -1.331282 -0.130416 -0.094966 -0.552749
    34 1.719421 0.000002 0.000000 0.000000 -0.006613 -0.362970
    35 1.099669 0.000002 -0.000001 0.000000 -0.004211 -0.767879
    36 0.806023 -0.359837 -1.318334 1.402404 0.526435 -0.917775
    37 1.789782 0.000000 -0.000004 -0.170073 0.039345 0.399731
    38 1.206999 0.000002 0.000000 0.000000 0.000000 1.061034
    39 -4.654922 -20.930262 -2.513945 1.559011 0.020814 0.003437
    40 0.025545 -1.273521 1.753304 0.000000 0.000000 0.000000
    41 0.001032 1.440453 -1.526783 0.000000 0.000000 0.000000
    42 0.004413 0.696487 -1.430595 0.000000 0.000000 0.000000
    43 0.580660 0.349014 -1.430595 0.000000 0.000000 0.000000
    44 0.583444 -0.305904 -1.430599 0.000000 0.000000 0.000000
    45 0.005318 -0.648720 -1.430599 0.000000 0.000000 0.000000
    46 -0.574618 -0.303123 -1.430601 0.000000 0.000000 0.000000
    47 -0.573714 0.348118 -1.430595 0.000000 0.000000 0.000000
  time 23
    0 -0.999512 8.335938 -6.640625 -1.570760 -1.391893 -1.570827
    1 2.033349 1.000767 1.937660 1.596637 -1.286515 2.942961
    2 6.321118 -0.964873 1.468795 -0.302626 -1.131950 -1.863517
    3 11.692554 0.000001 0.000000 0.000000 0.000000 -0.833662
    4 11.481670 0.000001 -0.000031 -0.084357 -0.344042 0.531623
    5 3.859711 -0.142405 -1.191975 -0.491314 0.054897 -1.089461
    6 1.312555 -0.000002 0.000000 0.000000 0.000000 -0.435484
    7 0.729363 -0.000002 -0.000002 0.000000 0.000000 -0.240207
    8 3.942337 0.046767 -0.431443 -0.150138 0.076984 -0.776668
    9 1.539097 0.000000 0.000000 0.000000 0.000000 -0.409593
    10 1.196325 -0.000002 -0.000001 0.000000 0.000000 -0.581464
    11 3.883698 -0.046765 0.431443 0.085347 0.023775 -0.564480
    12 1.719570 -0.000004 -0.000001 0.000000 0.000000 -0.762886
    13 1.209169 -0.000004 0.000000 0.000000 0.000000 -0.256535
    14 3.859863 -0.137946 1.332466 0.483960 -0.048432 -0.425648
    15 1.719431 0.000002 0.000000 0.000000 0.000000 -0.496225
    16 1.099667 0.000000 -0.000001 0.000000 0.000000 -0.354423
    17 0.806053 -0.348926 1.321258 -1.287532 -0.366649 -0.722385
    18 1.789778 -0.000002 0.000002 0.000000 0.000000 0.212596
    19 1.207005 0.000000 0.000002 0.000000 0.000000 0.186299
    20 2.033356 1.000772 -1.937610 -2.129147 1.252455 2.502299
    21 6.028145 0.000000 0.000000 1.656691 1.199220 -1.170068
    22 11.692554 0.000001 0.000002 0.000000 0.000000 -0.990235
    23 11.481699 0.000001 0.000001 -1.479686 0.321751 0.607899
    24 3.859680 -0.132567 1.193109 0.076307 0.048692 -1.410406
    25 1.312555 -0.000002 0.000002 0.000000 0.000000 -0.439672
    26 0.729365 0.000000 -0.000001 0.000000 0.000000 -1.116930
    27 3.942307 0.050327 0.431044 0.032620 0.047811 -1.244425
    28 1.539099 -0.000002 0.000000 0.000000 0.000000 -0.858632
    29 1.196321 0.000010 0.000000 0.000000 0.000000 -1.041623
    30 3.883659 -0.050321 -0.431042 0.013675 -0.048012 -1.095524
    31 1.719578 0.000002 0.000000 0.000001 -0.007970 -1.239096
    32 1.209185 0.000002 0.000000 0.000000 -0.004460 -0.914505
    33 3.859840 -0.148937 -1.331282 -0.130416 -0.094966 -0.552749
    34 1.719421 0.000002 0.000000 0.000000 -0.006613 -0.362970
    35 1.099669 0.000002 -0.000001 0.000000 -0.004211 -0.767879
    36 0.806023 -0.359837 -1.318334 1.402404 0.526435 -0.917775
    37 1.789782 0.000000 -0.000004 -0.170073 0.039345 0.399731
    38 1.206999 0.000002 0.000000 0.000000 0.000000 1.061034
    39 -4.658829 -20.914637 -2.498319 1.554864 0.019702 0.003368
    40 0.025545 -1.273521 1.753304 0.000000 0.000000 0.000000
    41 0.001032 1.440453 -1.526783 0.000000 0.000000 0.000000
    42 0.004413 0.696487 -1.430595 0.000000 0.000000 0.000000
    43 0.580660 0.349014 -1.430595 0.000000 0.000000 0.000000
    44 0.583444 -0.305904 -1.430599 0.000000 0.000000 0.000000
    45 0.005318 -0.648720 -1.430599 0.000000 0.000000 0.000000
    46 -0.574618 -0.303123 -1.430601 0.000000 0.000000 0.000000
    47 -0.573714 0.348118 -1.430595 0.000000 0.000000 0.000000
  time 24
    0 -0.999512 8.335938 -6.640625 -1.570760 -1.391893 -1.570827
    1 2.033349 1.000767 1.937660 1.596637 -1.286515 2.942961
    2 6.321118 -0.964873 1.468795 -0.302433 -1.131950 -1.863666
    3 11.692554 0.000001 0.000000 0.000000 0.000000 -0.832775
    4 11.481670 0.000001 -0.000031 -0.082700 -0.345208 0.528848
    5 3.859711 -0.142405 -1.191975 -0.491314 0.054897 -1.089461
    6 1.312555 -0.000002 0.000000 0.000000 0.000000 -0.435484
    7 0.729363 -0.000002 -0.000002 0.000000 0.000000 -0.240207
    8 3.942337 0.046767 -0.431443 -0.150138 0.076984 -0.776668
    9 1.539097 0.000000 0.000000 0.000000 0.000000 -0.409593
    10 1.196325 -0.000002 -0.000001 0.000000 0.000000 -0.581464
    11 3.883698 -0.046765 0.431443 0.085347 0.023775 -0.564480
    12 1.719570 -0.000004 -0.000001 0.000000 0.000000 -0.762886
    13 1.209169 -0.000004 0.000000 0.000000 0.000000 -0.256535
    14 3.859863 -0.137946 1.332466 0.483960 -0.048432 -0.425648
    15 1.719431 0.000002 0.000000 0.000000 0.000000 -0.496225
    16 1.099667 0.000000 -0.000001 0.000000 0.000000 -0.354423
    17 0.806053 -0.348926 1.321258 -1.287532 -0.366649 -0.722385
    18 1.789778 -0.000002 0.000002 0.000000 0.000000 0.212596
    19 1.207005 0.000000 0.000002 0.000000 0.000000 0.186299
    20 2.033356 1.000772 -1.937610 -2.129147 1.252455 2.502299
    21 6.028145 0.000000 0.000000 1.656591 1.198824 -1.170236
    22 11.692554 0.000001 0.000002 0.000000 0.000000 -0.990362
    23 11.481699 0.000001 0.000001 -1.479447 0.321842 0.605442
    24 3.859680 -0.132567 1.193109 0.076307 0.048692 -1.410406
    25 1.312555 -0.000002 0.000002 0.000000 0.000000 -0.439672
    26 0.729365 0.000000 -0.000001 0.000000 0.000000 -1.116930
    27 3.942307 0.050327 0.431044 0.032620 0.047811 -1.244425
    28 1.539099 -0.000002 0.000000 0.000000 0.000000 -0.858632
    29 1.196321 0.000010 0.000000 0.000000 0.000000 -1.041623
    30 3.883659 -0.050321 -0.431042 0.013675 -0.048012 -1.095524
    31 1.719578 0.000002 0.000000 0.000001 -0.007970 -1.239096
    32 1.209185 0.000002 0.000000 0.000000 -0.004460 -0.914505
    33 3.859840 -0.148937 -1.331282 -0.130416 -0.094966 -0.552749
    34 1.719421 0.000002 0.000000 0.000000 -0.006613 -0.362970
    35 1.099669 0.000002 -0.000001 0.000000 -0.004211 -0.767879
    36 0.806023 -0.359837 -1.318334 1.402404 0.526435 -0.917775
    37 1.789782 0.000000 -0.000004 -0.170073 0.039345 0.399731
    38 1.206999 0.000002 0.000000 0.000000 0.000000 1.061034
    39 -4.662735 -20.906824 -2.486600 1.552624 0.019088 0.003368
    40 0.025545 -1.273521 1.753304 0.000000 0.000000 0.000000
    41 0.001032 1.440453 -1.526783 0.000000 0.000000 0.000000
    42 0.004413 0.696487 -1.430595 0.000000 0.000000 0.000000
    43 0.580660 0.349014 -1.430595 0.000000 0.000000 0.000000
    44 0.583444 -0.305904 -1.430599 0.000000 0.000000 0.000000
    45 0.005318 -0.648720 -1.430599 0.000000 0.000000 0.000000
    46 -0.574618 -0.303123 -1.430601 0.000000 0.000000 0.000000
    47 -0.573714 0.348118 -1.430595 0.000000 0.000000 0.000000
end
