version 1
nodes
  0 "ValveBiped.Bip01_Spine4" -1
  1 "ValveBiped.Bip01_L_Clavicle" 0
  2 "ValveBiped.Bip01_L_UpperArm" 1
  3 "ValveBiped.Bip01_L_Forearm" 2
  4 "ValveBiped.Bip01_L_Hand" 3
  5 "ValveBiped.Bip01_L_Finger4" 4
  6 "ValveBiped.Bip01_L_Finger41" 5
  7 "ValveBiped.Bip01_L_Finger42" 6
  8 "ValveBiped.Bip01_L_Finger3" 4
  9 "ValveBiped.Bip01_L_Finger31" 8
  10 "ValveBiped.Bip01_L_Finger32" 9
  11 "ValveBiped.Bip01_L_Finger2" 4
  12 "ValveBiped.Bip01_L_Finger21" 11
  13 "ValveBiped.Bip01_L_Finger22" 12
  14 "ValveBiped.Bip01_L_Finger1" 4
  15 "ValveBiped.Bip01_L_Finger11" 14
  16 "ValveBiped.Bip01_L_Finger12" 15
  17 "ValveBiped.Bip01_L_Finger0" 4
  18 "ValveBiped.Bip01_L_Finger01" 17
  19 "ValveBiped.Bip01_L_Finger02" 18
  20 "ValveBiped.Bip01_R_Clavicle" 0
  21 "ValveBiped.Bip01_R_UpperArm" 20
  22 "ValveBiped.Bip01_R_Forearm" 21
  23 "ValveBiped.Bip01_R_Hand" 22
  24 "ValveBiped.Bip01_R_Finger4" 23
  25 "ValveBiped.Bip01_R_Finger41" 24
  26 "ValveBiped.Bip01_R_Finger42" 25
  27 "ValveBiped.Bip01_R_Finger3" 23
  28 "ValveBiped.Bip01_R_Finger31" 27
  29 "ValveBiped.Bip01_R_Finger32" 28
  30 "ValveBiped.Bip01_R_Finger2" 23
  31 "ValveBiped.Bip01_R_Finger21" 30
  32 "ValveBiped.Bip01_R_Finger22" 31
  33 "ValveBiped.Bip01_R_Finger1" 23
  34 "ValveBiped.Bip01_R_Finger11" 33
  35 "ValveBiped.Bip01_R_Finger12" 34
  36 "ValveBiped.Bip01_R_Finger0" 23
  37 "ValveBiped.Bip01_R_Finger01" 36
  38 "ValveBiped.Bip01_R_Finger02" 37
  39 "Python" -1
  40 "Cylinder_release" 39
  41 "Cylinder" 40
  42 "Bullet1" 41
  43 "Bullet2" 41
  44 "Bullet3" 41
  45 "Bullet4" 41
  46 "Bullet5" 41
  47 "Bullet6" 41
end
skeleton
  time 0
    0 -0.999512 8.335938 -6.640625 -1.570760 -1.391893 -1.570827
    1 2.033349 1.000767 1.937660 1.596637 -1.286515 2.942961
    2 6.321118 -0.964873 1.468795 -0.304508 -1.132178 -1.861629
    3 11.692554 0.000001 0.000000 0.000000 0.000000 -0.837453
    4 11.481670 0.000001 -0.000031 -0.086142 -0.339479 0.540902
    5 3.859711 -0.142405 -1.191975 -0.491314 0.054897 -1.089461
    6 1.312555 -0.000002 0.000000 0.000000 0.000000 -0.435484
    7 0.729363 -0.000002 -0.000002 0.000000 0.000000 -0.240207
    8 3.942337 0.046767 -0.431443 -0.150125 0.076994 -0.776666
    9 1.539097 0.000000 0.000000 0.000000 0.000000 -0.409593
    10 1.196325 -0.000002 -0.000001 0.000000 0.000000 -0.581464
    11 3.883698 -0.046765 0.431443 0.085347 0.023775 -0.564480
    12 1.719570 -0.000004 -0.000001 0.000000 0.000000 -0.762886
    13 1.209169 -0.000004 0.000000 0.000000 0.000000 -0.256535
    14 3.859863 -0.137946 1.332466 0.483960 -0.048432 -0.425648
    15 1.719431 0.000002 0.000000 0.000000 0.000000 -0.496225
    16 1.099667 0.000000 -0.000001 0.000000 0.000000 -0.354423
    17 0.806053 -0.348926 1.321258 -1.287532 -0.366649 -0.722385
    18 1.789778 -0.000002 0.000002 0.000000 0.000000 0.212596
    19 1.207005 0.000000 0.000002 0.000000 0.000000 0.186299
    20 2.033356 1.000772 -1.937610 -2.129147 1.252455 2.502299
    21 6.028145 0.000000 0.000000 1.657041 1.200209 -1.169677
    22 11.692554 0.000001 0.000002 0.000000 0.000000 -0.989897
    23 11.481699 0.000001 0.000001 -1.477155 0.321230 0.615829
    24 3.859680 -0.132567 1.193109 0.076298 0.048710 -1.410444
    25 1.312555 -0.000002 0.000002 0.000000 0.000000 -0.439672
    26 0.729365 0.000000 -0.000001 0.000000 0.000000 -1.116930
    27 3.942307 0.050327 0.431044 0.032620 0.047811 -1.244425
    28 1.539099 -0.000002 0.000000 0.000000 0.000000 -0.858632
    29 1.196321 0.000010 0.000000 0.000000 0.000000 -1.041589
    30 3.883659 -0.050321 -0.431042 0.013675 -0.048012 -1.095524
    31 1.719578 0.000002 0.000000 0.000001 -0.007970 -1.239096
    32 1.209185 0.000002 0.000000 0.000000 -0.004460 -0.914505
    33 3.859840 -0.148937 -1.331282 -0.130416 -0.094966 -0.552749
    34 1.719421 0.000002 0.000000 0.000000 -0.006613 -0.362970
    35 1.099669 0.000002 -0.000001 0.000000 -0.004211 -0.767908
    36 0.806023 -0.359837 -1.318334 1.402404 0.526435 -0.917775
    37 1.789782 0.000000 -0.000004 -0.170078 0.039352 0.399730
    38 1.206999 0.000002 0.000000 0.000000 0.000000 1.061016
    39 -4.666642 -20.938075 -2.525664 1.561871 0.018340 0.003507
    40 0.025545 -1.273521 1.753304 0.000000 0.000000 0.000000
    41 0.001032 1.440453 -1.526783 0.000000 0.000000 0.000000
    42 0.004413 0.696487 -1.430595 0.000000 0.000000 0.000000
    43 0.580660 0.349014 -1.430595 0.000000 0.000000 0.000000
    44 0.583444 -0.305904 -1.430599 0.000000 0.000000 0.000000
    45 0.005318 -0.648720 -1.430599 0.000000 0.000000 0.000000
    46 -0.574618 -0.303123 -1.430601 0.000000 0.000000 0.000000
    47 -0.573714 0.348118 -1.430595 0.000000 0.000000 0.000000
  time 1
    0 -0.999512 8.335938 -6.640625 -1.570760 -1.391893 -1.570827
    1 2.033349 1.000767 1.937660 1.596637 -1.286515 2.942961
    2 6.321118 -0.964873 1.468795 -0.302674 -1.131265 -1.863219
    3 11.692554 0.000001 0.000000 0.000000 0.000000 -0.836606
    4 11.481670 0.000001 -0.000031 -0.089010 -0.343244 0.548524
    5 3.859711 -0.142405 -1.191975 -0.491314 0.054897 -1.089461
    6 1.312555 -0.000002 0.000000 0.000000 0.000000 -0.435484
    7 0.729363 -0.000002 -0.000002 0.000000 0.000000 -0.240207
    8 3.942337 0.046767 -0.431443 -0.150125 0.076994 -0.776666
    9 1.539097 0.000000 0.000000 0.000000 0.000000 -0.409593
    10 1.196325 -0.000002 -0.000001 0.000000 0.000000 -0.581464
    11 3.883698 -0.046765 0.431443 0.085347 0.023775 -0.564480
    12 1.719570 -0.000004 -0.000001 0.000000 0.000000 -0.762886
    13 1.209169 -0.000004 0.000000 0.000000 0.000000 -0.256535
    14 3.859863 -0.137946 1.332466 0.483960 -0.048432 -0.425648
    15 1.719431 0.000002 0.000000 0.000000 0.000000 -0.496225
    16 1.099667 0.000000 -0.000001 0.000000 0.000000 -0.354423
    17 0.806053 -0.348926 1.321258 -1.287532 -0.366649 -0.722385
    18 1.789778 -0.000002 0.000002 0.000000 0.000000 0.212596
    19 1.207005 0.000000 0.000002 0.000000 0.000000 0.186299
    20 2.033356 1.000772 -1.937610 -2.129147 1.252455 2.502299
    21 6.028145 0.000000 0.000000 1.659242 1.200684 -1.167723
    22 11.692554 0.000001 0.000002 0.000000 0.000000 -0.986685
    23 11.481699 0.000001 0.000001 -1.476916 0.313875 0.617951
    24 3.859680 -0.132567 1.193109 0.076298 0.048710 -1.410444
    25 1.312555 -0.000002 0.000002 0.000000 0.000000 -0.439672
    26 0.729365 0.000000 -0.000001 0.000000 0.000000 -1.116930
    27 3.942307 0.050327 0.431044 0.032620 0.047811 -1.244425
    28 1.539099 -0.000002 0.000000 0.000000 0.000000 -0.858632
    29 1.196321 0.000010 0.000000 0.000000 0.000000 -1.041589
    30 3.883659 -0.050321 -0.431042 0.013675 -0.048012 -1.095524
    31 1.719578 0.000002 0.000000 0.000001 -0.007970 -1.239096
    32 1.209185 0.000002 0.000000 0.000000 -0.004460 -0.914505
    33 3.859840 -0.148937 -1.331282 -0.130416 -0.094966 -0.552749
    34 1.719421 0.000002 0.000000 0.000000 -0.006613 -0.362970
    35 1.099669 0.000002 -0.000001 0.000000 -0.004211 -0.767908
    36 0.806023 -0.359837 -1.318334 1.402404 0.526435 -0.917775
    37 1.789782 0.000000 -0.000004 -0.170078 0.039352 0.399730
    38 1.206999 0.000002 0.000000 0.000000 0.000000 1.061016
    39 -4.635391 -20.965419 -2.580353 1.566638 0.018052 0.010075
    40 0.025545 -1.273521 1.753304 0.000000 0.000000 0.000000
    41 0.001032 1.440453 -1.526783 0.000000 0.000000 0.000000
    42 0.004413 0.696487 -1.430595 0.000000 0.000000 0.000000
    43 0.580660 0.349014 -1.430595 0.000000 0.000000 0.000000
    44 0.583444 -0.305904 -1.430599 0.000000 0.000000 0.000000
    45 0.005318 -0.648720 -1.430599 0.000000 0.000000 0.000000
    46 -0.574618 -0.303123 -1.430601 0.000000 0.000000 0.000000
    47 -0.573714 0.348118 -1.430595 0.000000 0.000000 0.000000
  time 2
    0 -0.999512 8.335938 -6.640625 -1.570760 -1.391893 -1.570827
    1 2.033349 1.000767 1.937660 1.596637 -1.286515 2.942961
    2 6.321118 -0.964873 1.468795 -0.297560 -1.128570 -1.867590
    3 11.692554 0.000001 0.000000 0.000000 0.000000 -0.834106
    4 11.481670 0.000001 -0.000031 -0.097041 -0.352963 0.569443
    5 3.859711 -0.142405 -1.191975 -0.491314 0.054897 -1.089461
    6 1.312555 -0.000002 0.000000 0.000000 0.000000 -0.435484
    7 0.729363 -0.000002 -0.000002 0.000000 0.000000 -0.240207
    8 3.942337 0.046767 -0.431443 -0.150125 0.076994 -0.776666
    9 1.539097 0.000000 0.000000 0.000000 0.000000 -0.409593
    10 1.196325 -0.000002 -0.000001 0.000000 0.000000 -0.581464
    11 3.883698 -0.046765 0.431443 0.085347 0.023775 -0.564480
    12 1.719570 -0.000004 -0.000001 0.000000 0.000000 -0.762886
    13 1.209169 -0.000004 0.000000 0.000000 0.000000 -0.256535
    14 3.859863 -0.137946 1.332466 0.483960 -0.048432 -0.425648
    15 1.719431 0.000002 0.000000 0.000000 0.000000 -0.496225
    16 1.099667 0.000000 -0.000001 0.000000 0.000000 -0.354423
    17 0.806053 -0.348926 1.321258 -1.287532 -0.366649 -0.722385
    18 1.789778 -0.000002 0.000002 0.000000 0.000000 0.212596
    19 1.207005 0.000000 0.000002 0.000000 0.000000 0.186299
    20 2.033356 1.000772 -1.937610 -2.129147 1.252455 2.502299
    21 6.028145 0.000000 0.000000 1.665246 1.201990 -1.162473
    22 11.692554 0.000001 0.000002 0.000000 0.000000 -0.977387
    23 11.481699 0.000001 0.000001 -1.476056 0.293735 0.622781
    24 3.859680 -0.132567 1.193109 0.076298 0.048710 -1.410444
    25 1.312555 -0.000002 0.000002 0.000000 0.000000 -0.439672
    26 0.729365 0.000000 -0.000001 0.000000 0.000000 -1.116930
    27 3.942307 0.050327 0.431044 0.032620 0.047811 -1.244425
    28 1.539099 -0.000002 0.000000 0.000000 0.000000 -0.858632
    29 1.196321 0.000010 0.000000 0.000000 0.000000 -1.041589
    30 3.883659 -0.050321 -0.431042 0.013675 -0.048012 -1.095524
    31 1.719578 0.000002 0.000000 0.000001 -0.007970 -1.239096
    32 1.209185 0.000002 0.000000 0.000000 -0.004460 -0.914505
    33 3.859840 -0.148937 -1.331282 -0.130416 -0.094966 -0.552749
    34 1.719421 0.000002 0.000000 0.000000 -0.006613 -0.362970
    35 1.099669 0.000002 -0.000001 0.000000 -0.004211 -0.767908
    36 0.806023 -0.359837 -1.318334 1.402404 0.526435 -0.917775
    37 1.789782 0.000000 -0.000004 -0.170078 0.039352 0.399730
    38 1.206999 0.000002 0.000000 0.000000 0.000000 1.061016
    39 -4.553357 -21.043547 -2.732701 1.580127 0.017093 0.027684
    40 0.025545 -1.273521 1.753304 0.000000 0.000000 0.000000
    41 0.001032 1.440453 -1.526783 0.000000 0.000000 0.000000
    42 0.004413 0.696487 -1.430595 0.000000 0.000000 0.000000
    43 0.580660 0.349014 -1.430595 0.000000 0.000000 0.000000
    44 0.583444 -0.305904 -1.430599 0.000000 0.000000 0.000000
    45 0.005318 -0.648720 -1.430599 0.000000 0.000000 0.000000
    46 -0.574618 -0.303123 -1.430601 0.000000 0.000000 0.000000
    47 -0.573714 0.348118 -1.430595 0.000000 0.000000 0.000000
  time 3
    0 -0.999512 8.335938 -6.640625 -1.570760 -1.391893 -1.570827
    1 2.033349 1.000767 1.937660 1.596637 -1.286515 2.942961
    2 6.321118 -0.964873 1.468795 -0.289695 -1.124733 -1.874544
    3 11.692554 0.000001 0.000000 0.000000 0.000000 -0.829710
    4 11.481670 0.000001 -0.000031 -0.110045 -0.366283 0.600842
    5 3.859711 -0.142405 -1.191975 -0.491314 0.054897 -1.089461
    6 1.312555 -0.000002 0.000000 0.000000 0.000000 -0.435484
    7 0.729363 -0.000002 -0.000002 0.000000 0.000000 -0.240207
    8 3.942337 0.046767 -0.431443 -0.150125 0.076994 -0.776666
    9 1.539097 0.000000 0.000000 0.000000 0.000000 -0.409593
    10 1.196325 -0.000002 -0.000001 0.000000 0.000000 -0.581464
    11 3.883698 -0.046765 0.431443 0.085347 0.023775 -0.564480
    12 1.719570 -0.000004 -0.000001 0.000000 0.000000 -0.762886
    13 1.209169 -0.000004 0.000000 0.000000 0.000000 -0.256535
    14 3.859863 -0.137946 1.332466 0.483960 -0.048432 -0.425648
    15 1.719431 0.000002 0.000000 0.000000 0.000000 -0.496225
    16 1.099667 0.000000 -0.000001 0.000000 0.000000 -0.354423
    17 0.806053 -0.348926 1.321258 -1.287532 -0.366649 -0.722385
    18 1.789778 -0.000002 0.000002 0.000000 0.000000 0.212596
    19 1.207005 0.000000 0.000002 0.000000 0.000000 0.186299
    20 2.033356 1.000772 -1.937610 -2.129147 1.252455 2.502299
    21 6.028145 0.000000 0.000000 1.673952 1.204246 -1.154821
    22 11.692554 0.000001 0.000002 0.000000 0.000000 -0.962890
    23 11.481699 0.000001 0.000001 -1.475388 0.264469 0.630403
    24 3.859680 -0.132567 1.193109 0.076298 0.048710 -1.410444
    25 1.312555 -0.000002 0.000002 0.000000 0.000000 -0.439672
    26 0.729365 0.000000 -0.000001 0.000000 0.000000 -1.116930
    27 3.942307 0.050327 0.431044 0.032620 0.047811 -1.244425
    28 1.539099 -0.000002 0.000000 0.000000 0.000000 -0.858632
    29 1.196321 0.000010 0.000000 0.000000 0.000000 -1.041589
    30 3.883659 -0.050321 -0.431042 0.013675 -0.048012 -1.095542
    31 1.719578 0.000002 0.000000 0.000001 -0.007970 -1.239096
    32 1.209185 0.000002 0.000000 0.000000 -0.004460 -0.914505
    33 3.859840 -0.148937 -1.331282 -0.130416 -0.094966 -0.552749
    34 1.719421 0.000002 0.000000 0.000000 -0.006613 -0.362970
    35 1.099669 0.000002 -0.000001 0.000000 -0.004211 -0.767908
    36 0.806023 -0.359837 -1.318334 1.402404 0.526435 -0.917775
    37 1.789782 0.000000 -0.000004 -0.170078 0.039352 0.399730
    38 1.206999 0.000002 0.000000 0.000000 0.000000 1.061016
    39 -4.432259 -21.156832 -2.967083 1.600861 0.015252 0.053467
    40 0.025545 -1.273521 1.753304 0.000000 0.000000 0.000000
    41 0.001032 1.440453 -1.526783 0.000000 0.000000 0.000000
    42 0.004413 0.696487 -1.430595 0.000000 0.000000 0.000000
    43 0.580660 0.349014 -1.430595 0.000000 0.000000 0.000000
    44 0.583444 -0.305904 -1.430599 0.000000 0.000000 0.000000
    45 0.005318 -0.648720 -1.430599 0.000000 0.000000 0.000000
    46 -0.574618 -0.303123 -1.430601 0.000000 0.000000 0.000000
    47 -0.573714 0.348118 -1.430595 0.000000 0.000000 0.000000
  time 4
    0 -0.999512 8.335938 -6.640625 -1.570760 -1.391893 -1.570827
    1 2.033349 1.000767 1.937660 1.596637 -1.286515 2.942961
    2 6.321118 -0.964873 1.468795 -0.279514 -1.120074 -1.883634
    3 11.692554 0.000001 0.000000 0.000000 0.000000 -0.823177
    4 11.481670 0.000001 -0.000031 -0.127319 -0.380667 0.639573
    5 3.859711 -0.142405 -1.191975 -0.491314 0.054897 -1.089461
    6 1.312555 -0.000002 0.000000 0.000000 0.000000 -0.435484
    7 0.729363 -0.000002 -0.000002 0.000000 0.000000 -0.240207
    8 3.942337 0.046767 -0.431443 -0.150125 0.076994 -0.776666
    9 1.539097 0.000000 0.000000 0.000000 0.000000 -0.409593
    10 1.196325 -0.000002 -0.000001 0.000000 0.000000 -0.581464
    11 3.883698 -0.046765 0.431443 0.085347 0.023775 -0.564480
    12 1.719570 -0.000004 -0.000001 0.000000 0.000000 -0.762886
    13 1.209169 -0.000004 0.000000 0.000000 0.000000 -0.256535
    14 3.859863 -0.137946 1.332466 0.483960 -0.048432 -0.425648
    15 1.719431 0.000002 0.000000 0.000000 0.000000 -0.496225
    16 1.099667 0.000000 -0.000001 0.000000 0.000000 -0.354423
    17 0.806053 -0.348926 1.321258 -1.287532 -0.366649 -0.722385
    18 1.789778 -0.000002 0.000002 0.000000 0.000000 0.212596
    19 1.207005 0.000000 0.000002 0.000000 0.000000 0.186299
    20 2.033356 1.000772 -1.937610 -2.129147 1.252455 2.502299
    21 6.028145 0.000000 0.000000 1.684409 1.207214 -1.145578
    22 11.692554 0.000001 0.000002 0.000000 0.000000 -0.943702
    23 11.481699 0.000001 0.000001 -1.475292 0.229449 0.639868
    24 3.859680 -0.132567 1.193109 0.076298 0.048710 -1.410444
    25 1.312555 -0.000002 0.000002 0.000000 0.000000 -0.439672
    26 0.729365 0.000000 -0.000001 0.000000 0.000000 -1.116930
    27 3.942307 0.050327 0.431044 0.032620 0.047811 -1.244425
    28 1.539099 -0.000002 0.000000 0.000000 0.000000 -0.858632
    29 1.196321 0.000010 0.000000 0.000000 0.000000 -1.041589
    30 3.883659 -0.050321 -0.431042 0.013675 -0.048012 -1.095524
    31 1.719578 0.000002 0.000000 0.000001 -0.007970 -1.239096
    32 1.209185 0.000002 0.000000 0.000000 -0.004460 -0.914505
    33 3.859840 -0.148937 -1.331282 -0.130416 -0.094966 -0.552749
    34 1.719421 0.000002 0.000000 0.000000 -0.006613 -0.362970
    35 1.099669 0.000002 -0.000001 0.000000 -0.004211 -0.767908
    36 0.806023 -0.359837 -1.318334 1.402404 0.526435 -0.917775
    37 1.789782 0.000000 -0.000004 -0.170078 0.039352 0.399730
    38 1.206999 0.000002 0.000000 0.000000 0.000000 1.061016
    39 -4.283817 -21.293554 -3.271780 1.627457 0.012299 0.084211
    40 0.025545 -1.273521 1.753304 0.000000 0.000000 0.000000
    41 0.001032 1.440453 -1.526783 0.000000 0.000000 0.000000
    42 0.004413 0.696487 -1.430595 0.000000 0.000000 0.000000
    43 0.580660 0.349014 -1.430595 0.000000 0.000000 0.000000
    44 0.583444 -0.305904 -1.430599 0.000000 0.000000 0.000000
    45 0.005318 -0.648720 -1.430599 0.000000 0.000000 0.000000
    46 -0.574618 -0.303123 -1.430601 0.000000 0.000000 0.000000
    47 -0.573714 0.348118 -1.430595 0.000000 0.000000 0.000000
  time 5
    0 -0.999512 8.335938 -6.640625 -1.570760 -1.391893 -1.570827
    1 2.033349 1.000767 1.937660 1.596637 -1.286515 2.942961
    2 6.321118 -0.964873 1.468795 -0.267886 -1.115049 -1.894214
    3 11.692554 0.000001 0.000000 0.000000 0.000000 -0.814587
    4 11.481670 0.000001 -0.000031 -0.148035 -0.393700 0.682819
    5 3.859711 -0.142405 -1.191975 -0.491314 0.054897 -1.089461
    6 1.312555 -0.000002 0.000000 0.000000 0.000000 -0.435484
    7 0.729363 -0.000002 -0.000002 0.000000 0.000000 -0.240207
    8 3.942337 0.046767 -0.431443 -0.150125 0.076994 -0.776666
    9 1.539097 0.000000 0.000000 0.000000 0.000000 -0.409593
    10 1.196325 -0.000002 -0.000001 0.000000 0.000000 -0.581464
    11 3.883698 -0.046765 0.431443 0.085347 0.023775 -0.564480
    12 1.719570 -0.000004 -0.000001 0.000000 0.000000 -0.762886
    13 1.209169 -0.000004 0.000000 0.000000 0.000000 -0.256535
    14 3.859863 -0.137946 1.332466 0.483960 -0.048432 -0.425648
    15 1.719431 0.000002 0.000000 0.000000 0.000000 -0.496225
    16 1.099667 0.000000 -0.000001 0.000000 0.000000 -0.354423
    17 0.806053 -0.348926 1.321258 -1.287532 -0.366649 -0.722385
    18 1.789778 -0.000002 0.000002 0.000000 0.000000 0.212596
    19 1.207005 0.000000 0.000002 0.000000 0.000000 0.186299
    20 2.033356 1.000772 -1.937610 -2.129147 1.252455 2.502299
    21 6.028145 0.000000 0.000000 1.695616 1.210934 -1.135608
    22 11.692554 0.000001 0.000002 0.000000 0.000000 -0.920710
    23 11.481699 0.000001 0.000001 -1.476104 0.192086 0.650533
    24 3.859680 -0.132567 1.193109 0.076298 0.048710 -1.410444
    25 1.312555 -0.000002 0.000002 0.000000 0.000000 -0.439672
    26 0.729365 0.000000 -0.000001 0.000000 0.000000 -1.116930
    27 3.942307 0.050327 0.431044 0.032620 0.047811 -1.244425
    28 1.539099 -0.000002 0.000000 0.000000 0.000000 -0.858632
    29 1.196321 0.000010 0.000000 0.000000 0.000000 -1.041589
    30 3.883659 -0.050321 -0.431042 0.013675 -0.048012 -1.095524
    31 1.719578 0.000002 0.000000 0.000001 -0.007970 -1.239096
    32 1.209185 0.000002 0.000000 0.000000 -0.004460 -0.914505
    33 3.859840 -0.148937 -1.331282 -0.130416 -0.094966 -0.552749
    34 1.719421 0.000002 0.000000 0.000000 -0.006613 -0.362970
    35 1.099669 0.000002 -0.000001 0.000000 -0.004211 -0.767908
    36 0.806023 -0.359837 -1.318334 1.402404 0.526435 -0.917775
    37 1.789782 0.000000 -0.000004 -0.170078 0.039352 0.399730
    38 1.206999 0.000002 0.000000 0.000000 0.000000 1.061016
    39 -4.123656 -21.445903 -3.631166 1.658487 0.008118 0.116982
    40 0.025545 -1.273521 1.753304 0.000000 0.000000 0.000000
    41 0.001032 1.440453 -1.526783 0.000000 0.000000 0.000000
    42 0.004413 0.696487 -1.430595 0.000000 0.000000 0.000000
    43 0.580660 0.349014 -1.430595 0.000000 0.000000 0.000000
    44 0.583444 -0.305904 -1.430599 0.000000 0.000000 0.000000
    45 0.005318 -0.648720 -1.430599 0.000000 0.000000 0.000000
    46 -0.574618 -0.303123 -1.430601 0.000000 0.000000 0.000000
    47 -0.573714 0.348118 -1.430595 0.000000 0.000000 0.000000
  time 6
    0 -0.999512 8.335938 -6.640625 -1.570760 -1.391893 -1.570827
    1 2.033349 1.000767 1.937660 1.596637 -1.286515 2.942961
    2 6.321118 -0.964873 1.468795 -0.255727 -1.110025 -1.905390
    3 11.692554 0.000001 0.000000 0.000000 0.000000 -0.804505
    4 11.481670 0.000001 -0.000031 -0.171046 -0.403072 0.727349
    5 3.859711 -0.142405 -1.191975 -0.491314 0.054897 -1.089461
    6 1.312555 -0.000002 0.000000 0.000000 0.000000 -0.435484
    7 0.729363 -0.000002 -0.000002 0.000000 0.000000 -0.240207
    8 3.942337 0.046767 -0.431443 -0.150125 0.076994 -0.776666
    9 1.539097 0.000000 0.000000 0.000000 0.000000 -0.409593
    10 1.196325 -0.000002 -0.000001 0.000000 0.000000 -0.581464
    11 3.883698 -0.046765 0.431443 0.085347 0.023775 -0.564480
    12 1.719570 -0.000004 -0.000001 0.000000 0.000000 -0.762886
    13 1.209169 -0.000004 0.000000 0.000000 0.000000 -0.256535
    14 3.859863 -0.137946 1.332466 0.483960 -0.048432 -0.425648
    15 1.719431 0.000002 0.000000 0.000000 0.000000 -0.496225
    16 1.099667 0.000000 -0.000001 0.000000 0.000000 -0.354423
    17 0.806053 -0.348926 1.321258 -1.287532 -0.366649 -0.722385
    18 1.789778 -0.000002 0.000002 0.000000 0.000000 0.212596
    19 1.207005 0.000000 0.000002 0.000000 0.000000 0.186299
    20 2.033356 1.000772 -1.937610 -2.129147 1.252455 2.502299
    21 6.028145 0.000000 0.000000 1.706523 1.215208 -1.125834
    22 11.692554 0.000001 0.000002 0.000000 0.000000 -0.895013
    23 11.481699 0.000001 0.000001 -1.477967 0.155764 0.662176
    24 3.859680 -0.132567 1.193109 0.076298 0.048710 -1.410444
    25 1.312555 -0.000002 0.000002 0.000000 0.000000 -0.439672
    26 0.729365 0.000000 -0.000001 0.000000 0.000000 -1.116930
    27 3.942307 0.050327 0.431044 0.032620 0.047811 -1.244425
    28 1.539099 -0.000002 0.000000 0.000000 0.000000 -0.858632
    29 1.196321 0.000010 0.000000 0.000000 0.000000 -1.041589
    30 3.883659 -0.050321 -0.431042 0.013675 -0.048012 -1.095524
    31 1.719578 0.000002 0.000000 0.000001 -0.007970 -1.239096
    32 1.209185 0.000002 0.000000 0.000000 -0.004460 -0.914505
    33 3.859840 -0.148937 -1.331282 -0.130416 -0.094966 -0.552749
    34 1.719421 0.000002 0.000000 0.000000 -0.006613 -0.362970
    35 1.099669 0.000002 -0.000001 0.000000 -0.004211 -0.767908
    36 0.806023 -0.359837 -1.318334 1.402404 0.526435 -0.917775
    37 1.789782 0.000000 -0.000004 -0.170078 0.039352 0.399730
    38 1.206999 0.000002 0.000000 0.000000 0.000000 1.061016
    39 -3.959589 -21.598251 -4.033522 1.692615 0.002844 0.148634
    40 0.025545 -1.273521 1.753304 0.000000 0.000000 0.000000
    41 0.001032 1.440453 -1.526783 0.000000 0.000000 0.000000
    42 0.004413 0.696487 -1.430595 0.000000 0.000000 0.000000
    43 0.580660 0.349014 -1.430595 0.000000 0.000000 0.000000
    44 0.583444 -0.305904 -1.430599 0.000000 0.000000 0.000000
    45 0.005318 -0.648720 -1.430599 0.000000 0.000000 0.000000
    46 -0.574618 -0.303123 -1.430601 0.000000 0.000000 0.000000
    47 -0.573714 0.348118 -1.430595 0.000000 0.000000 0.000000
  time 7
    0 -0.999512 8.335938 -6.640625 -1.570760 -1.391893 -1.570827
    1 2.033349 1.000767 1.937660 1.596637 -1.286515 2.942961
    2 6.321118 -0.964873 1.468795 -0.244581 -1.105229 -1.915622
    3 11.692554 0.000001 0.000000 0.000000 0.000000 -0.793657
    4 11.481670 0.000001 -0.000031 -0.194758 -0.406714 0.770098
    5 3.859711 -0.142405 -1.191975 -0.491314 0.054897 -1.089461
    6 1.312555 -0.000002 0.000000 0.000000 0.000000 -0.435484
    7 0.729363 -0.000002 -0.000002 0.000000 0.000000 -0.240207
    8 3.942337 0.046767 -0.431443 -0.150125 0.076994 -0.776666
    9 1.539097 0.000000 0.000000 0.000000 0.000000 -0.409593
    10 1.196325 -0.000002 -0.000001 0.000000 0.000000 -0.581464
    11 3.883698 -0.046765 0.431443 0.085347 0.023775 -0.564480
    12 1.719570 -0.000004 -0.000001 0.000000 0.000000 -0.762886
    13 1.209169 -0.000004 0.000000 0.000000 0.000000 -0.256535
    14 3.859863 -0.137946 1.332466 0.483960 -0.048432 -0.425648
    15 1.719431 0.000002 0.000000 0.000000 0.000000 -0.496225
    16 1.099667 0.000000 -0.000001 0.000000 0.000000 -0.354423
    17 0.806053 -0.348926 1.321258 -1.287532 -0.366649 -0.722385
    18 1.789778 -0.000002 0.000002 0.000000 0.000000 0.212596
    19 1.207005 0.000000 0.000002 0.000000 0.000000 0.186299
    20 2.033356 1.000772 -1.937610 -2.129147 1.252455 2.502299
    21 6.028145 0.000000 0.000000 1.716130 1.219759 -1.117206
    22 11.692554 0.000001 0.000002 0.000000 0.000000 -0.867879
    23 11.481699 0.000001 0.000001 -1.480689 0.123882 0.674656
    24 3.859680 -0.132567 1.193109 0.076298 0.048710 -1.410444
    25 1.312555 -0.000002 0.000002 0.000000 0.000000 -0.439672
    26 0.729365 0.000000 -0.000001 0.000000 0.000000 -1.116930
    27 3.942307 0.050327 0.431044 0.032620 0.047811 -1.244425
    28 1.539099 -0.000002 0.000000 0.000000 0.000000 -0.858632
    29 1.196321 0.000010 0.000000 0.000000 0.000000 -1.041607
    30 3.883659 -0.050321 -0.431042 0.013675 -0.048012 -1.095524
    31 1.719578 0.000002 0.000000 0.000001 -0.007970 -1.239096
    32 1.209185 0.000002 0.000000 0.000000 -0.004460 -0.914505
    33 3.859840 -0.148937 -1.331282 -0.130416 -0.094966 -0.552749
    34 1.719421 0.000002 0.000000 0.000000 -0.006613 -0.362970
    35 1.099669 0.000002 -0.000001 0.000000 -0.004211 -0.767908
    36 0.806023 -0.359837 -1.318334 1.402404 0.526435 -0.917775
    37 1.789782 0.000000 -0.000004 -0.170078 0.039352 0.399730
    38 1.206999 0.000002 0.000000 0.000000 0.000000 1.061016
    39 -3.811147 -21.754506 -4.463223 1.728459 -0.003063 0.176444
    40 0.025545 -1.273521 1.753304 0.000000 0.000000 0.000000
    41 0.001032 1.440453 -1.526783 0.000000 0.000000 0.000000
    42 0.004413 0.696487 -1.430595 0.000000 0.000000 0.000000
    43 0.580660 0.349014 -1.430595 0.000000 0.000000 0.000000
    44 0.583444 -0.305904 -1.430599 0.000000 0.000000 0.000000
    45 0.005318 -0.648720 -1.430599 0.000000 0.000000 0.000000
    46 -0.574618 -0.303123 -1.430601 0.000000 0.000000 0.000000
    47 -0.573714 0.348118 -1.430595 0.000000 0.000000 0.000000
  time 8
    0 -0.999512 8.335938 -6.640625 -1.570760 -1.391893 -1.570827
    1 2.033349 1.000767 1.937660 1.596637 -1.286515 2.942961
    2 6.321118 -0.964873 1.468795 -0.235462 -1.100844 -1.923867
    3 11.692554 0.000001 0.000000 0.000000 0.000000 -0.783010
    4 11.481670 0.000001 -0.000031 -0.217450 -0.404156 0.808995
    5 3.859711 -0.142405 -1.191975 -0.491314 0.054897 -1.089461
    6 1.312555 -0.000002 0.000000 0.000000 0.000000 -0.435484
    7 0.729363 -0.000002 -0.000002 0.000000 0.000000 -0.240207
    8 3.942337 0.046767 -0.431443 -0.150125 0.076994 -0.776666
    9 1.539097 0.000000 0.000000 0.000000 0.000000 -0.409593
    10 1.196325 -0.000002 -0.000001 0.000000 0.000000 -0.581464
    11 3.883698 -0.046765 0.431443 0.085347 0.023775 -0.564480
    12 1.719570 -0.000004 -0.000001 0.000000 0.000000 -0.762886
    13 1.209169 -0.000004 0.000000 0.000000 0.000000 -0.256535
    14 3.859863 -0.137946 1.332466 0.483960 -0.048432 -0.425648
    15 1.719431 0.000002 0.000000 0.000000 0.000000 -0.496225
    16 1.099667 0.000000 -0.000001 0.000000 0.000000 -0.354423
    17 0.806053 -0.348926 1.321258 -1.287532 -0.366649 -0.722385
    18 1.789778 -0.000002 0.000002 0.000000 0.000000 0.212596
    19 1.207005 0.000000 0.000002 0.000000 0.000000 0.186299
    20 2.033356 1.000772 -1.937610 -2.129147 1.252455 2.502299
    21 6.028145 0.000000 0.000000 1.723885 1.224310 -1.110196
    22 11.692554 0.000001 0.000002 0.000000 0.000000 -0.840619
    23 11.481699 0.000001 0.000001 -1.483937 0.098170 0.687807
    24 3.859680 -0.132567 1.193109 0.076298 0.048710 -1.410444
    25 1.312555 -0.000002 0.000002 0.000000 0.000000 -0.439672
    26 0.729365 0.000000 -0.000001 0.000000 0.000000 -1.116930
    27 3.942307 0.050327 0.431044 0.032620 0.047811 -1.244425
    28 1.539099 -0.000002 0.000000 0.000000 0.000000 -0.858632
    29 1.196321 0.000010 0.000000 0.000000 0.000000 -1.041607
    30 3.883659 -0.050321 -0.431042 0.013675 -0.048012 -1.095524
    31 1.719578 0.000002 0.000000 0.000001 -0.007970 -1.239096
    32 1.209185 0.000002 0.000000 0.000000 -0.004460 -0.914505
    33 3.859840 -0.148937 -1.331282 -0.130416 -0.094966 -0.552749
    34 1.719421 0.000002 0.000000 0.000000 -0.006613 -0.362970
    35 1.099669 0.000002 -0.000001 0.000000 -0.004211 -0.767908
    36 0.806023 -0.359837 -1.318334 1.402404 0.526435 -0.917775
    37 1.789782 0.000000 -0.000004 -0.170078 0.039352 0.399730
    38 1.206999 0.000002 0.000000 0.000000 0.000000 1.061016
    39 -3.686143 -21.899042 -4.904642 1.764922 -0.009066 0.198664
    40 0.025545 -1.273521 1.753304 0.000000 0.000000 0.000000
    41 0.001032 1.440453 -1.526783 0.000000 0.000000 0.000000
    42 0.004413 0.696487 -1.430595 0.000000 0.000000 0.000000
    43 0.580660 0.349014 -1.430595 0.000000 0.000000 0.000000
    44 0.583444 -0.305904 -1.430599 0.000000 0.000000 0.000000
    45 0.005318 -0.648720 -1.430599 0.000000 0.000000 0.000000
    46 -0.574618 -0.303123 -1.430601 0.000000 0.000000 0.000000
    47 -0.573714 0.348118 -1.430595 0.000000 0.000000 0.000000
  time 9
    0 -0.999512 8.335938 -6.640625 -1.570760 -1.391893 -1.570827
    1 2.033349 1.000767 1.937660 1.596637 -1.286515 2.942961
    2 6.321118 -0.964873 1.468795 -0.227983 -1.096870 -1.930474
    3 11.692554 0.000001 0.000000 0.000000 0.000000 -0.772928
    4 11.481670 0.000001 -0.000031 -0.238421 -0.397097 0.843625
    5 3.859711 -0.142405 -1.191975 -0.491314 0.054897 -1.089461
    6 1.312555 -0.000002 0.000000 0.000000 0.000000 -0.435484
    7 0.729363 -0.000002 -0.000002 0.000000 0.000000 -0.240207
    8 3.942337 0.046767 -0.431443 -0.150125 0.076994 -0.776666
    9 1.539097 0.000000 0.000000 0.000000 0.000000 -0.409593
    10 1.196325 -0.000002 -0.000001 0.000000 0.000000 -0.581464
    11 3.883698 -0.046765 0.431443 0.085347 0.023775 -0.564480
    12 1.719570 -0.000004 -0.000001 0.000000 0.000000 -0.762886
    13 1.209169 -0.000004 0.000000 0.000000 0.000000 -0.256535
    14 3.859863 -0.137946 1.332466 0.483960 -0.048432 -0.425648
    15 1.719431 0.000002 0.000000 0.000000 0.000000 -0.496225
    16 1.099667 0.000000 -0.000001 0.000000 0.000000 -0.354423
    17 0.806053 -0.348926 1.321258 -1.287532 -0.366649 -0.722385
    18 1.789778 -0.000002 0.000002 0.000000 0.000000 0.212596
    19 1.207005 0.000000 0.000002 0.000000 0.000000 0.186299
    20 2.033356 1.000772 -1.937610 -2.129147 1.252455 2.502299
    21 6.028145 0.000000 0.000000 1.730139 1.228742 -1.104499
    22 11.692554 0.000001 0.000002 0.000000 0.000000 -0.813992
    23 11.481699 0.000001 0.000001 -1.487471 0.077705 0.701013
    24 3.859680 -0.132567 1.193109 0.076298 0.048710 -1.410444
    25 1.312555 -0.000002 0.000002 0.000000 0.000000 -0.439672
    26 0.729365 0.000000 -0.000001 0.000000 0.000000 -1.116930
    27 3.942307 0.050327 0.431044 0.032620 0.047811 -1.244425
    28 1.539099 -0.000002 0.000000 0.000000 0.000000 -0.858632
    29 1.196321 0.000010 0.000000 0.000000 0.000000 -1.041589
    30 3.883659 -0.050321 -0.431042 0.013675 -0.048012 -1.095524
    31 1.719578 0.000002 0.000000 0.000001 -0.007970 -1.239096
    32 1.209185 0.000002 0.000000 0.000000 -0.004460 -0.914505
    33 3.859840 -0.148937 -1.331282 -0.130416 -0.094966 -0.552749
    34 1.719421 0.000002 0.000000 0.000000 -0.006613 -0.362970
    35 1.099669 0.000002 -0.000001 0.000000 -0.004211 -0.767908
    36 0.806023 -0.359837 -1.318334 1.402404 0.526435 -0.917775
    37 1.789782 0.000000 -0.000004 -0.170078 0.039352 0.399730
    38 1.206999 0.000002 0.000000 0.000000 0.000000 1.061016
    39 -3.580671 -22.031858 -5.342156 1.800623 -0.014973 0.216202
    40 0.025545 -1.273521 1.753304 0.000000 0.000000 0.000000
    41 0.001032 1.440453 -1.526783 0.000000 0.000000 0.000000
    42 0.004413 0.696487 -1.430595 0.000000 0.000000 0.000000
    43 0.580660 0.349014 -1.430595 0.000000 0.000000 0.000000
    44 0.583444 -0.305904 -1.430599 0.000000 0.000000 0.000000
    45 0.005318 -0.648720 -1.430599 0.000000 0.000000 0.000000
    46 -0.574618 -0.303123 -1.430601 0.000000 0.000000 0.000000
    47 -0.573714 0.348118 -1.430595 0.000000 0.000000 0.000000
  time 10
    0 -0.999512 8.335938 -6.640625 -1.570760 -1.391893 -1.570827
    1 2.033349 1.000767 1.937660 1.596637 -1.286515 2.942961
    2 6.321118 -0.964873 1.468795 -0.222193 -1.093490 -1.935590
    3 11.692554 0.000001 0.000000 0.000000 0.000000 -0.763774
    4 11.481670 0.000001 -0.000031 -0.256842 -0.386969 0.873491
    5 3.859711 -0.142405 -1.191975 -0.491314 0.054897 -1.089461
    6 1.312555 -0.000002 0.000000 0.000000 0.000000 -0.435484
    7 0.729363 -0.000002 -0.000002 0.000000 0.000000 -0.240207
    8 3.942337 0.046767 -0.431443 -0.150125 0.076994 -0.776666
    9 1.539097 0.000000 0.000000 0.000000 0.000000 -0.409593
    10 1.196325 -0.000002 -0.000001 0.000000 0.000000 -0.581464
    11 3.883698 -0.046765 0.431443 0.085347 0.023775 -0.564480
    12 1.719570 -0.000004 -0.000001 0.000000 0.000000 -0.762886
    13 1.209169 -0.000004 0.000000 0.000000 0.000000 -0.256535
    14 3.859863 -0.137946 1.332466 0.483960 -0.048432 -0.425648
    15 1.719431 0.000002 0.000000 0.000000 0.000000 -0.496225
    16 1.099667 0.000000 -0.000001 0.000000 0.000000 -0.354423
    17 0.806053 -0.348926 1.321258 -1.287532 -0.366649 -0.722385
    18 1.789778 -0.000002 0.000002 0.000000 0.000000 0.212596
    19 1.207005 0.000000 0.000002 0.000000 0.000000 0.186299
    20 2.033356 1.000772 -1.937610 -2.129147 1.252455 2.502299
    21 6.028145 0.000000 0.000000 1.735042 1.232937 -1.100031
    22 11.692554 0.000001 0.000002 0.000000 0.000000 -0.788887
    23 11.481699 0.000001 0.000001 -1.490957 0.061952 0.713661
    24 3.859680 -0.132567 1.193109 0.076298 0.048710 -1.410444
    25 1.312555 -0.000002 0.000002 0.000000 0.000000 -0.439672
    26 0.729365 0.000000 -0.000001 0.000000 0.000000 -1.116930
    27 3.942307 0.050327 0.431044 0.032620 0.047811 -1.244425
    28 1.539099 -0.000002 0.000000 0.000000 0.000000 -0.858632
    29 1.196321 0.000010 0.000000 0.000000 0.000000 -1.041607
    30 3.883659 -0.050321 -0.431042 0.013675 -0.048012 -1.095524
    31 1.719578 0.000002 0.000000 0.000001 -0.007970 -1.239096
    32 1.209185 0.000002 0.000000 0.000000 -0.004460 -0.914505
    33 3.859840 -0.148937 -1.331282 -0.130416 -0.094966 -0.552749
    34 1.719421 0.000002 0.000000 0.000000 -0.006613 -0.362970
    35 1.099669 0.000002 -0.000001 0.000000 -0.004211 -0.767908
    36 0.806023 -0.359837 -1.318334 1.402404 0.526435 -0.917775
    37 1.789782 0.000000 -0.000004 -0.170078 0.039352 0.399730
    38 1.206999 0.000002 0.000000 0.000000 0.000000 1.061016
    39 -3.494731 -22.149049 -5.760137 1.834417 -0.020458 0.229408
    40 0.025545 -1.273521 1.753304 0.000000 0.000000 0.000000
    41 0.001032 1.440453 -1.526783 0.000000 0.000000 0.000000
    42 0.004413 0.696487 -1.430595 0.000000 0.000000 0.000000
    43 0.580660 0.349014 -1.430595 0.000000 0.000000 0.000000
    44 0.583444 -0.305904 -1.430599 0.000000 0.000000 0.000000
    45 0.005318 -0.648720 -1.430599 0.000000 0.000000 0.000000
    46 -0.574618 -0.303123 -1.430601 0.000000 0.000000 0.000000
    47 -0.573714 0.348118 -1.430595 0.000000 0.000000 0.000000
  time 11
    0 -0.999512 8.335938 -6.640625 -1.570760 -1.391893 -1.570827
    1 2.033349 1.000767 1.937660 1.596637 -1.286515 2.942961
    2 6.321118 -0.964873 1.468795 -0.217995 -1.090612 -1.939216
    3 11.692554 0.000001 0.000000 0.000000 0.000000 -0.755789
    4 11.481670 0.000001 -0.000031 -0.272395 -0.375347 0.898345
    5 3.859711 -0.142405 -1.191975 -0.491314 0.054897 -1.089461
    6 1.312555 -0.000002 0.000000 0.000000 0.000000 -0.435484
    7 0.729363 -0.000002 -0.000002 0.000000 0.000000 -0.240207
    8 3.942337 0.046767 -0.431443 -0.150125 0.076994 -0.776666
    9 1.539097 0.000000 0.000000 0.000000 0.000000 -0.409593
    10 1.196325 -0.000002 -0.000001 0.000000 0.000000 -0.581464
    11 3.883698 -0.046765 0.431443 0.085347 0.023775 -0.564480
    12 1.719570 -0.000004 -0.000001 0.000000 0.000000 -0.762886
    13 1.209169 -0.000004 0.000000 0.000000 0.000000 -0.256535
    14 3.859863 -0.137946 1.332466 0.483960 -0.048432 -0.425648
    15 1.719431 0.000002 0.000000 0.000000 0.000000 -0.496225
    16 1.099667 0.000000 -0.000001 0.000000 0.000000 -0.354423
    17 0.806053 -0.348926 1.321258 -1.287532 -0.366649 -0.722385
    18 1.789778 -0.000002 0.000002 0.000000 0.000000 0.212596
    19 1.207005 0.000000 0.000002 0.000000 0.000000 0.186299
    20 2.033356 1.000772 -1.937610 -2.129147 1.252455 2.502299
    21 6.028145 0.000000 0.000000 1.738795 1.236736 -1.096597
    22 11.692554 0.000001 0.000002 0.000000 0.000000 -0.766191
    23 11.481699 0.000001 0.000001 -1.494157 0.050379 0.725275
    24 3.859680 -0.132567 1.193109 0.076298 0.048710 -1.410444
    25 1.312555 -0.000002 0.000002 0.000000 0.000000 -0.439672
    26 0.729365 0.000000 -0.000001 0.000000 0.000000 -1.116930
    27 3.942307 0.050327 0.431044 0.032620 0.047811 -1.244425
    28 1.539099 -0.000002 0.000000 0.000000 0.000000 -0.858632
    29 1.196321 0.000010 0.000000 0.000000 0.000000 -1.041589
    30 3.883659 -0.050321 -0.431042 0.013675 -0.048012 -1.095524
    31 1.719578 0.000002 0.000000 0.000001 -0.007970 -1.239096
    32 1.209185 0.000002 0.000000 0.000000 -0.004460 -0.914505
    33 3.859840 -0.148937 -1.331282 -0.130416 -0.094966 -0.552749
    34 1.719421 0.000002 0.000000 0.000000 -0.006613 -0.362970
    35 1.099669 0.000002 -0.000001 0.000000 -0.004211 -0.767908
    36 0.806023 -0.359837 -1.318334 1.402404 0.526435 -0.917775
    37 1.789782 0.000000 -0.000004 -0.170078 0.039352 0.399730
    38 1.206999 0.000002 0.000000 0.000000 0.000000 1.061016
    39 -3.424416 -22.250615 -6.142962 1.864922 -0.025310 0.238981
    40 0.025545 -1.273521 1.753304 0.000000 0.000000 0.000000
    41 0.001032 1.440453 -1.526783 0.000000 0.000000 0.000000
    42 0.004413 0.696487 -1.430595 0.000000 0.000000 0.000000
    43 0.580660 0.349014 -1.430595 0.000000 0.000000 0.000000
    44 0.583444 -0.305904 -1.430599 0.000000 0.000000 0.000000
    45 0.005318 -0.648720 -1.430599 0.000000 0.000000 0.000000
    46 -0.574618 -0.303123 -1.430601 0.000000 0.000000 0.000000
    47 -0.573714 0.348118 -1.430595 0.000000 0.000000 0.000000
  time 12
    0 -0.999512 8.335938 -6.640625 -1.570760 -1.391893 -1.570827
    1 2.033349 1.000767 1.937660 1.596637 -1.286515 2.942961
    2 6.321118 -0.964873 1.468795 -0.215052 -1.088237 -1.941550
    3 11.692554 0.000001 0.000000 0.000000 0.000000 -0.749215
    4 11.481670 0.000001 -0.000031 -0.284761 -0.363787 0.917980
    5 3.859711 -0.142405 -1.191975 -0.491314 0.054897 -1.089461
    6 1.312555 -0.000002 0.000000 0.000000 0.000000 -0.435484
    7 0.729363 -0.000002 -0.000002 0.000000 0.000000 -0.240207
    8 3.942337 0.046767 -0.431443 -0.150125 0.076994 -0.776666
    9 1.539097 0.000000 0.000000 0.000000 0.000000 -0.409593
    10 1.196325 -0.000002 -0.000001 0.000000 0.000000 -0.581464
    11 3.883698 -0.046765 0.431443 0.085347 0.023775 -0.564480
    12 1.719570 -0.000004 -0.000001 0.000000 0.000000 -0.762886
    13 1.209169 -0.000004 0.000000 0.000000 0.000000 -0.256535
    14 3.859863 -0.137946 1.332466 0.483960 -0.048432 -0.425648
    15 1.719431 0.000002 0.000000 0.000000 0.000000 -0.496225
    16 1.099667 0.000000 -0.000001 0.000000 0.000000 -0.354423
    17 0.806053 -0.348926 1.321258 -1.287532 -0.366649 -0.722385
    18 1.789778 -0.000002 0.000002 0.000000 0.000000 0.212596
    19 1.207005 0.000000 0.000002 0.000000 0.000000 0.186299
    20 2.033356 1.000772 -1.937610 -2.129147 1.252455 2.502299
    21 6.028145 0.000000 0.000000 1.741496 1.240020 -1.094111
    22 11.692554 0.000001 0.000002 0.000000 0.000000 -0.746876
    23 11.481699 0.000001 0.000001 -1.497118 0.042516 0.735131
    24 3.859680 -0.132567 1.193109 0.076298 0.048710 -1.410444
    25 1.312555 -0.000002 0.000002 0.000000 0.000000 -0.439672
    26 0.729365 0.000000 -0.000001 0.000000 0.000000 -1.116930
    27 3.942307 0.050327 0.431044 0.032620 0.047811 -1.244425
    28 1.539099 -0.000002 0.000000 0.000000 0.000000 -0.858632
    29 1.196321 0.000010 0.000000 0.000000 0.000000 -1.041607
    30 3.883659 -0.050321 -0.431042 0.013675 -0.048012 -1.095524
    31 1.719578 0.000002 0.000000 0.000001 -0.007970 -1.239096
    32 1.209185 0.000002 0.000000 0.000000 -0.004460 -0.914505
    33 3.859840 -0.148937 -1.331282 -0.130416 -0.094966 -0.552749
    34 1.719421 0.000002 0.000000 0.000000 -0.006613 -0.362970
    35 1.099669 0.000002 -0.000001 0.000000 -0.004211 -0.767908
    36 0.806023 -0.359837 -1.318334 1.402404 0.526435 -0.917775
    37 1.789782 0.000000 -0.000004 -0.170078 0.039352 0.399730
    38 1.206999 0.000002 0.000000 0.000000 0.000000 1.061016
    39 -3.377540 -22.324836 -6.471097 1.890947 -0.029299 0.245549
    40 0.025545 -1.273521 1.753304 0.000000 0.000000 0.000000
    41 0.001032 1.440453 -1.526783 0.000000 0.000000 0.000000
    42 0.004413 0.696487 -1.430595 0.000000 0.000000 0.000000
    43 0.580660 0.349014 -1.430595 0.000000 0.000000 0.000000
    44 0.583444 -0.305904 -1.430599 0.000000 0.000000 0.000000
    45 0.005318 -0.648720 -1.430599 0.000000 0.000000 0.000000
    46 -0.574618 -0.303123 -1.430601 0.000000 0.000000 0.000000
    47 -0.573714 0.348118 -1.430595 0.000000 0.000000 0.000000
  time 13
    0 -0.999512 8.335938 -6.640625 -1.570760 -1.391893 -1.570827
    1 2.033349 1.000767 1.937660 1.596637 -1.286515 2.942961
    2 6.321118 -0.964873 1.468795 -0.213170 -1.086547 -1.942892
    3 11.692554 0.000001 0.000000 0.000000 0.000000 -0.744376
    4 11.481670 0.000001 -0.000031 -0.293685 -0.353720 0.932147
    5 3.859711 -0.142405 -1.191975 -0.491314 0.054897 -1.089461
    6 1.312555 -0.000002 0.000000 0.000000 0.000000 -0.435484
    7 0.729363 -0.000002 -0.000002 0.000000 0.000000 -0.240207
    8 3.942337 0.046767 -0.431443 -0.150125 0.076994 -0.776666
    9 1.539097 0.000000 0.000000 0.000000 0.000000 -0.409593
    10 1.196325 -0.000002 -0.000001 0.000000 0.000000 -0.581464
    11 3.883698 -0.046765 0.431443 0.085347 0.023775 -0.564480
    12 1.719570 -0.000004 -0.000001 0.000000 0.000000 -0.762886
    13 1.209169 -0.000004 0.000000 0.000000 0.000000 -0.256535
    14 3.859863 -0.137946 1.332466 0.483960 -0.048432 -0.425648
    15 1.719431 0.000002 0.000000 0.000000 0.000000 -0.496225
    16 1.099667 0.000000 -0.000001 0.000000 0.000000 -0.354423
    17 0.806053 -0.348926 1.321258 -1.287532 -0.366649 -0.722385
    18 1.789778 -0.000002 0.000002 0.000000 0.000000 0.212596
    19 1.207005 0.000000 0.000002 0.000000 0.000000 0.186299
    20 2.033356 1.000772 -1.937610 -2.129147 1.252455 2.502299
    21 6.028145 0.000000 0.000000 1.743248 1.242593 -1.092492
    22 11.692554 0.000001 0.000002 0.000000 0.000000 -0.731999
    23 11.481699 0.000001 0.000001 -1.498933 0.037295 0.743116
    24 3.859680 -0.132567 1.193109 0.076298 0.048710 -1.410444
    25 1.312555 -0.000002 0.000002 0.000000 0.000000 -0.439672
    26 0.729365 0.000000 -0.000001 0.000000 0.000000 -1.116930
    27 3.942307 0.050327 0.431044 0.032620 0.047811 -1.244425
    28 1.539099 -0.000002 0.000000 0.000000 0.000000 -0.858632
    29 1.196321 0.000010 0.000000 0.000000 0.000000 -1.041589
    30 3.883659 -0.050321 -0.431042 0.013675 -0.048012 -1.095524
    31 1.719578 0.000002 0.000000 0.000001 -0.007970 -1.239096
    32 1.209185 0.000002 0.000000 0.000000 -0.004460 -0.914505
    33 3.859840 -0.148937 -1.331282 -0.130416 -0.094966 -0.552749
    34 1.719421 0.000002 0.000000 0.000000 -0.006613 -0.362970
    35 1.099669 0.000002 -0.000001 0.000000 -0.004211 -0.767908
    36 0.806023 -0.359837 -1.318334 1.402404 0.526435 -0.917775
    37 1.789782 0.000000 -0.000004 -0.170078 0.039352 0.399730
    38 1.206999 0.000002 0.000000 0.000000 0.000000 1.061037
    39 -3.342382 -22.387338 -6.725011 1.911204 -0.032233 0.249462
    40 0.025545 -1.273521 1.753304 0.000000 0.000000 0.000000
    41 0.001032 1.440453 -1.526783 0.000000 0.000000 0.000000
    42 0.004413 0.696487 -1.430595 0.000000 0.000000 0.000000
    43 0.580660 0.349014 -1.430595 0.000000 0.000000 0.000000
    44 0.583444 -0.305904 -1.430599 0.000000 0.000000 0.000000
    45 0.005318 -0.648720 -1.430599 0.000000 0.000000 0.000000
    46 -0.574618 -0.303123 -1.430601 0.000000 0.000000 0.000000
    47 -0.573714 0.348118 -1.430595 0.000000 0.000000 0.000000
  time 14
    0 -0.999512 8.335938 -6.640625 -1.570760 -1.391893 -1.570827
    1 2.033349 1.000767 1.937660 1.596637 -1.286515 2.942961
    2 6.321118 -0.964873 1.468795 -0.212350 -1.085542 -1.943488
    3 11.692554 0.000001 0.000000 0.000000 0.000000 -0.741351
    4 11.481670 0.000001 -0.000031 -0.299166 -0.346661 0.940763
    5 3.859711 -0.142405 -1.191975 -0.491314 0.054897 -1.089461
    6 1.312555 -0.000002 0.000000 0.000000 0.000000 -0.435484
    7 0.729363 -0.000002 -0.000002 0.000000 0.000000 -0.240207
    8 3.942337 0.046767 -0.431443 -0.150125 0.076994 -0.776666
    9 1.539097 0.000000 0.000000 0.000000 0.000000 -0.409593
    10 1.196325 -0.000002 -0.000001 0.000000 0.000000 -0.581464
    11 3.883698 -0.046765 0.431443 0.085347 0.023775 -0.564480
    12 1.719570 -0.000004 -0.000001 0.000000 0.000000 -0.762886
    13 1.209169 -0.000004 0.000000 0.000000 0.000000 -0.256535
    14 3.859863 -0.137946 1.332466 0.483960 -0.048432 -0.425648
    15 1.719431 0.000002 0.000000 0.000000 0.000000 -0.496225
    16 1.099667 0.000000 -0.000001 0.000000 0.000000 -0.354423
    17 0.806053 -0.348926 1.321258 -1.287532 -0.366649 -0.722385
    18 1.789778 -0.000002 0.000002 0.000000 0.000000 0.212596
    19 1.207005 0.000000 0.000002 0.000000 0.000000 0.186299
    20 2.033356 1.000772 -1.937610 -2.129147 1.252455 2.502299
    21 6.028145 0.000000 0.000000 1.744248 1.244176 -1.091626
    22 11.692554 0.000001 0.000002 0.000000 0.000000 -0.722320
    23 11.481699 0.000001 0.000001 -1.500223 0.034678 0.748253
    24 3.859680 -0.132567 1.193109 0.076298 0.048710 -1.410444
    25 1.312555 -0.000002 0.000002 0.000000 0.000000 -0.439672
    26 0.729365 0.000000 -0.000001 0.000000 0.000000 -1.116930
    27 3.942307 0.050327 0.431044 0.032620 0.047811 -1.244425
    28 1.539099 -0.000002 0.000000 0.000000 0.000000 -0.858632
    29 1.196321 0.000010 0.000000 0.000000 0.000000 -1.041607
    30 3.883659 -0.050321 -0.431042 0.013663 -0.048012 -1.095524
    31 1.719578 0.000002 0.000000 0.000001 -0.007970 -1.239096
    32 1.209185 0.000002 0.000000 0.000000 -0.004460 -0.914505
    33 3.859840 -0.148937 -1.331282 -0.130416 -0.094966 -0.552749
    34 1.719421 0.000002 0.000000 0.000000 -0.006613 -0.362970
    35 1.099669 0.000002 -0.000001 0.000000 -0.004211 -0.767908
    36 0.806023 -0.359837 -1.318334 1.402404 0.526435 -0.917775
    37 1.789782 0.000000 -0.000004 -0.170078 0.039352 0.399730
    38 1.206999 0.000002 0.000000 0.000000 0.000000 1.061016
    39 -3.322851 -22.422495 -6.889078 1.924264 -0.034036 0.251488
    40 0.025545 -1.273521 1.753304 0.000000 0.000000 0.000000
    41 0.001032 1.440453 -1.526783 0.000000 0.000000 0.000000
    42 0.004413 0.696487 -1.430595 0.000000 0.000000 0.000000
    43 0.580660 0.349014 -1.430595 0.000000 0.000000 0.000000
    44 0.583444 -0.305904 -1.430599 0.000000 0.000000 0.000000
    45 0.005318 -0.648720 -1.430599 0.000000 0.000000 0.000000
    46 -0.574618 -0.303123 -1.430601 0.000000 0.000000 0.000000
    47 -0.573714 0.348118 -1.430595 0.000000 0.000000 0.000000
  time 15
    0 -0.999512 8.335938 -6.640625 -1.570760 -1.391893 -1.570827
    1 2.033349 1.000767 1.937660 1.596637 -1.286515 2.942961
    2 6.321118 -0.964873 1.468795 -0.212157 -1.085131 -1.943637
    3 11.692554 0.000001 0.000000 0.000000 0.000000 -0.740343
    4 11.481670 0.000001 -0.000031 -0.301079 -0.344001 0.943704
    5 3.859711 -0.142405 -1.191975 -0.491314 0.054897 -1.089461
    6 1.312555 -0.000002 0.000000 0.000000 0.000000 -0.435484
    7 0.729363 -0.000002 -0.000002 0.000000 0.000000 -0.240207
    8 3.942337 0.046767 -0.431443 -0.150125 0.076994 -0.776666
    9 1.539097 0.000000 0.000000 0.000000 0.000000 -0.409593
    10 1.196325 -0.000002 -0.000001 0.000000 0.000000 -0.581464
    11 3.883698 -0.046765 0.431443 0.085347 0.023775 -0.564480
    12 1.719570 -0.000004 -0.000001 0.000000 0.000000 -0.762886
    13 1.209169 -0.000004 0.000000 0.000000 0.000000 -0.256535
    14 3.859863 -0.137946 1.332466 0.483960 -0.048432 -0.425648
    15 1.719431 0.000002 0.000000 0.000000 0.000000 -0.496225
    16 1.099667 0.000000 -0.000001 0.000000 0.000000 -0.354423
    17 0.806053 -0.348926 1.321258 -1.287532 -0.366649 -0.722385
    18 1.789778 -0.000002 0.000002 0.000000 0.000000 0.212596
    19 1.207005 0.000000 0.000002 0.000000 0.000000 0.186299
    20 2.033356 1.000772 -1.937610 -2.129147 1.252455 2.502299
    21 6.028145 0.000000 0.000000 1.744498 1.244809 -1.091347
    22 11.692554 0.000001 0.000002 0.000000 0.000000 -0.718981
    23 11.481699 0.000001 0.000001 -1.500653 0.033923 0.750096
    24 3.859680 -0.132567 1.193109 0.076298 0.048710 -1.410444
    25 1.312555 -0.000002 0.000002 0.000000 0.000000 -0.439672
    26 0.729365 0.000000 -0.000001 0.000000 0.000000 -1.116930
    27 3.942307 0.050327 0.431044 0.032620 0.047811 -1.244425
    28 1.539099 -0.000002 0.000000 0.000000 0.000000 -0.858632
    29 1.196321 0.000010 0.000000 0.000000 0.000000 -1.041589
    30 3.883659 -0.050321 -0.431042 0.013675 -0.048012 -1.095524
    31 1.719578 0.000002 0.000000 0.000001 -0.007970 -1.239096
    32 1.209185 0.000002 0.000000 0.000000 -0.004460 -0.914505
    33 3.859840 -0.148937 -1.331282 -0.130416 -0.094966 -0.552749
    34 1.719421 0.000002 0.000000 0.000000 -0.006613 -0.362970
    35 1.099669 0.000002 -0.000001 0.000000 -0.004211 -0.767908
    36 0.806023 -0.359837 -1.318334 1.402404 0.526435 -0.917775
    37 1.789782 0.000000 -0.000004 -0.170078 0.039352 0.399730
    38 1.206999 0.000002 0.000000 0.000000 0.000000 1.061016
    39 -3.318944 -22.438121 -6.947674 1.928936 -0.034611 0.252047
    40 0.025545 -1.273521 1.753304 0.000000 0.000000 0.000000
    41 0.001032 1.440453 -1.526783 0.000000 0.000000 0.000000
    42 0.004413 0.696487 -1.430595 0.000000 0.000000 0.000000
    43 0.580660 0.349014 -1.430595 0.000000 0.000000 0.000000
    44 0.583444 -0.305904 -1.430599 0.000000 0.000000 0.000000
    45 0.005318 -0.648720 -1.430599 0.000000 0.000000 0.000000
    46 -0.574618 -0.303123 -1.430601 0.000000 0.000000 0.000000
    47 -0.573714 0.348118 -1.430595 0.000000 0.000000 0.000000
end
