version 1
nodes
  0 "ValveBiped.Bip01_Spine4" -1
  1 "ValveBiped.Bip01_L_Clavicle" 0
  2 "ValveBiped.Bip01_L_UpperArm" 1
  3 "ValveBiped.Bip01_L_Forearm" 2
  4 "ValveBiped.Bip01_L_Hand" 3
  5 "ValveBiped.Bip01_L_Finger4" 4
  6 "ValveBiped.Bip01_L_Finger41" 5
  7 "ValveBiped.Bip01_L_Finger42" 6
  8 "ValveBiped.Bip01_L_Finger3" 4
  9 "ValveBiped.Bip01_L_Finger31" 8
  10 "ValveBiped.Bip01_L_Finger32" 9
  11 "ValveBiped.Bip01_L_Finger2" 4
  12 "ValveBiped.Bip01_L_Finger21" 11
  13 "ValveBiped.Bip01_L_Finger22" 12
  14 "ValveBiped.Bip01_L_Finger1" 4
  15 "ValveBiped.Bip01_L_Finger11" 14
  16 "ValveBiped.Bip01_L_Finger12" 15
  17 "ValveBiped.Bip01_L_Finger0" 4
  18 "ValveBiped.Bip01_L_Finger01" 17
  19 "ValveBiped.Bip01_L_Finger02" 18
  20 "ValveBiped.Bip01_R_Clavicle" 0
  21 "ValveBiped.Bip01_R_UpperArm" 20
  22 "ValveBiped.Bip01_R_Forearm" 21
  23 "ValveBiped.Bip01_R_Hand" 22
  24 "ValveBiped.Bip01_R_Finger4" 23
  25 "ValveBiped.Bip01_R_Finger41" 24
  26 "ValveBiped.Bip01_R_Finger42" 25
  27 "ValveBiped.Bip01_R_Finger3" 23
  28 "ValveBiped.Bip01_R_Finger31" 27
  29 "ValveBiped.Bip01_R_Finger32" 28
  30 "ValveBiped.Bip01_R_Finger2" 23
  31 "ValveBiped.Bip01_R_Finger21" 30
  32 "ValveBiped.Bip01_R_Finger22" 31
  33 "ValveBiped.Bip01_R_Finger1" 23
  34 "ValveBiped.Bip01_R_Finger11" 33
  35 "ValveBiped.Bip01_R_Finger12" 34
  36 "ValveBiped.Bip01_R_Finger0" 23
  37 "ValveBiped.Bip01_R_Finger01" 36
  38 "ValveBiped.Bip01_R_Finger02" 37
  39 "Python" -1
  40 "Cylinder_release" 39
  41 "Cylinder" 40
  42 "Bullet1" 41
  43 "Bullet2" 41
  44 "Bullet3" 41
  45 "Bullet4" 41
  46 "Bullet5" 41
  47 "Bullet6" 41
end
skeleton
  time 0
    0 -0.999512 8.335938 -6.640625 -1.570760 -1.391893 -1.570827
    1 2.033349 1.000767 1.937660 1.596637 -1.286515 2.942961
    2 6.321118 -0.964873 1.468795 -0.212157 -1.085131 -1.943637
    3 11.692554 0.000001 0.000000 0.000000 0.000000 -0.740343
    4 11.481670 0.000001 -0.000031 -0.301079 -0.344001 0.943704
    5 3.859711 -0.142405 -1.191975 -0.491312 0.054898 -1.089461
    6 1.312555 -0.000002 0.000000 0.000000 0.000000 -0.435484
    7 0.729363 -0.000002 -0.000002 0.000000 0.000000 -0.240207
    8 3.942337 0.046767 -0.431443 -0.150125 0.076994 -0.776666
    9 1.539097 0.000000 0.000000 0.000000 0.000000 -0.409593
    10 1.196325 -0.000002 -0.000001 0.000000 0.000000 -0.581464
    11 3.883698 -0.046765 0.431443 0.085347 0.023775 -0.564480
    12 1.719570 -0.000004 -0.000001 0.000000 0.000000 -0.762886
    13 1.209169 -0.000004 0.000000 0.000000 0.000000 -0.256535
    14 3.859863 -0.137946 1.332466 0.483960 -0.048432 -0.425648
    15 1.719431 0.000002 0.000000 0.000000 0.000000 -0.496225
    16 1.099667 0.000000 -0.000001 0.000000 0.000000 -0.354423
    17 0.806053 -0.348926 1.321258 -1.287532 -0.366649 -0.722385
    18 1.789778 -0.000002 0.000002 0.000000 0.000000 0.212596
    19 1.207005 0.000000 0.000002 0.000000 0.000000 0.186299
    20 2.033356 1.000772 -1.937610 -2.129147 1.252455 2.502299
    21 6.028145 0.000000 0.000000 1.744498 1.244809 -1.091347
    22 11.692554 0.000001 0.000002 0.000000 0.000000 -0.718981
    23 11.481699 0.000001 0.000001 -1.500653 0.033923 0.750096
    24 3.859680 -0.132567 1.193109 0.076307 0.048692 -1.410406
    25 1.312555 -0.000002 0.000002 0.000000 0.000000 -0.439672
    26 0.729365 0.000000 -0.000001 0.000000 0.000000 -1.116930
    27 3.942307 0.050327 0.431044 0.032619 0.047813 -1.244423
    28 1.539099 -0.000002 0.000000 0.000000 0.000000 -0.858632
    29 1.196321 0.000010 0.000000 0.000000 0.000000 -1.041607
    30 3.883659 -0.050321 -0.431042 0.013675 -0.048012 -1.095524
    31 1.719578 0.000002 0.000000 -0.000001 -0.007971 -1.239096
    32 1.209185 0.000002 0.000000 0.000000 -0.004460 -0.914505
    33 3.859840 -0.148937 -1.331282 -0.130416 -0.094966 -0.552749
    34 1.719421 0.000002 0.000000 0.000000 -0.006613 -0.362970
    35 1.099669 0.000002 -0.000001 0.000000 -0.004211 -0.767879
    36 0.806023 -0.359837 -1.318334 1.402404 0.526435 -0.917775
    37 1.789782 0.000000 -0.000004 -0.170078 0.039352 0.399730
    38 1.206999 0.000002 0.000000 0.000000 0.000000 1.061034
    39 -3.318944 -22.438121 -6.947674 1.928936 -0.034611 0.252047
    40 0.025545 -1.273521 1.753304 0.000000 0.000000 0.000000
    41 0.001032 1.440453 -1.526783 0.000000 0.000000 0.000000
    42 0.004413 0.696487 -1.430595 0.000000 0.000000 0.000000
    43 0.580660 0.349014 -1.430595 0.000000 0.000000 0.000000
    44 0.583444 -0.305904 -1.430599 0.000000 0.000000 0.000000
    45 0.005318 -0.648720 -1.430599 0.000000 0.000000 0.000000
    46 -0.574618 -0.303123 -1.430601 0.000000 0.000000 0.000000
    47 -0.573714 0.348118 -1.430595 0.000000 0.000000 0.000000
  time 1
    0 -0.999512 8.335938 -6.640625 -1.570760 -1.391893 -1.570827
    1 2.033349 1.000767 1.937660 1.596637 -1.286515 2.942961
    2 6.321118 -0.964873 1.468795 -0.214087 -1.085405 -1.941550
    3 11.692554 0.000001 0.000000 0.000000 0.000000 -0.741835
    4 11.481670 0.000001 -0.000031 -0.297318 -0.346579 0.937035
    5 3.859711 -0.142405 -1.191975 -0.491312 0.054898 -1.089461
    6 1.312555 -0.000002 0.000000 0.000000 0.000000 -0.435484
    7 0.729363 -0.000002 -0.000002 0.000000 0.000000 -0.240207
    8 3.942337 0.046767 -0.431443 -0.150125 0.076994 -0.776666
    9 1.539097 0.000000 0.000000 0.000000 0.000000 -0.409593
    10 1.196325 -0.000002 -0.000001 0.000000 0.000000 -0.581464
    11 3.883698 -0.046765 0.431443 0.085347 0.023775 -0.564480
    12 1.719570 -0.000004 -0.000001 0.000000 0.000000 -0.762886
    13 1.209169 -0.000004 0.000000 0.000000 0.000000 -0.256535
    14 3.859863 -0.137946 1.332466 0.483960 -0.048432 -0.425648
    15 1.719431 0.000002 0.000000 0.000000 0.000000 -0.496225
    16 1.099667 0.000000 -0.000001 0.000000 0.000000 -0.354423
    17 0.806053 -0.348926 1.321258 -1.287532 -0.366649 -0.722385
    18 1.789778 -0.000002 0.000002 0.000000 0.000000 0.212596
    19 1.207005 0.000000 0.000002 0.000000 0.000000 0.186299
    20 2.033356 1.000772 -1.937610 -2.129147 1.252455 2.502299
    21 6.028145 0.000000 0.000000 1.742997 1.243345 -1.092799
    22 11.692554 0.000001 0.000002 0.000000 0.000000 -0.723588
    23 11.481699 0.000001 0.000001 -1.499220 0.037139 0.746550
    24 3.859680 -0.132567 1.193109 0.076307 0.048692 -1.410406
    25 1.312555 -0.000002 0.000002 0.000000 0.000000 -0.439672
    26 0.729365 0.000000 -0.000001 0.000000 0.000000 -1.116930
    27 3.942307 0.050327 0.431044 0.032619 0.047813 -1.244423
    28 1.539099 -0.000002 0.000000 0.000000 0.000000 -0.858632
    29 1.196321 0.000010 0.000000 0.000000 0.000000 -1.041607
    30 3.883659 -0.050321 -0.431042 0.013675 -0.048012 -1.095524
    31 1.719578 0.000002 0.000000 -0.000001 -0.007971 -1.239096
    32 1.209185 0.000002 0.000000 0.000000 -0.004460 -0.914505
    33 3.859840 -0.148937 -1.331282 -0.130416 -0.094966 -0.552749
    34 1.719421 0.000002 0.000000 0.000000 -0.006613 -0.362970
    35 1.099669 0.000002 -0.000001 0.000000 -0.004211 -0.767879
    36 0.806023 -0.359837 -1.318334 1.402404 0.526435 -0.917775
    37 1.789782 0.000000 -0.000004 -0.170078 0.039352 0.399730
    38 1.206999 0.000002 0.000000 0.000000 0.000000 1.061034
    39 -3.338476 -22.422495 -6.877359 1.922120 -0.033671 0.249182
    40 0.025545 -1.273521 1.753304 0.000000 0.000000 0.000000
    41 0.001032 1.440453 -1.526783 0.000000 0.000000 0.000000
    42 0.004413 0.696487 -1.430595 0.000000 0.000000 0.000000
    43 0.580660 0.349014 -1.430595 0.000000 0.000000 0.000000
    44 0.583444 -0.305904 -1.430599 0.000000 0.000000 0.000000
    45 0.005318 -0.648720 -1.430599 0.000000 0.000000 0.000000
    46 -0.574618 -0.303123 -1.430601 0.000000 0.000000 0.000000
    47 -0.573714 0.348118 -1.430595 0.000000 0.000000 0.000000
  time 2
    0 -0.999512 8.335938 -6.640625 -1.570760 -1.391893 -1.570827
    1 2.033349 1.000767 1.937660 1.596637 -1.286515 2.942961
    2 6.321118 -0.964873 1.468795 -0.219443 -1.086273 -1.936087
    3 11.692554 0.000001 0.000000 0.000000 0.000000 -0.745707
    4 11.481670 0.000001 -0.000031 -0.287056 -0.353270 0.918353
    5 3.859711 -0.142405 -1.191975 -0.491312 0.054898 -1.089461
    6 1.312555 -0.000002 0.000000 0.000000 0.000000 -0.435484
    7 0.729363 -0.000002 -0.000002 0.000000 0.000000 -0.240207
    8 3.942337 0.046767 -0.431443 -0.150125 0.076994 -0.776666
    9 1.539097 0.000000 0.000000 0.000000 0.000000 -0.409593
    10 1.196325 -0.000002 -0.000001 0.000000 0.000000 -0.581464
    11 3.883698 -0.046765 0.431443 0.085347 0.023775 -0.564480
    12 1.719570 -0.000004 -0.000001 0.000000 0.000000 -0.762886
    13 1.209169 -0.000004 0.000000 0.000000 0.000000 -0.256535
    14 3.859863 -0.137946 1.332466 0.483960 -0.048432 -0.425648
    15 1.719431 0.000002 0.000000 0.000000 0.000000 -0.496225
    16 1.099667 0.000000 -0.000001 0.000000 0.000000 -0.354423
    17 0.806053 -0.348926 1.321258 -1.287532 -0.366649 -0.722385
    18 1.789778 -0.000002 0.000002 0.000000 0.000000 0.212596
    19 1.207005 0.000000 0.000002 0.000000 0.000000 0.186299
    20 2.033356 1.000772 -1.937610 -2.129147 1.252455 2.502299
    21 6.028145 0.000000 0.000000 1.738945 1.239704 -1.096708
    22 11.692554 0.000001 0.000002 0.000000 0.000000 -0.736098
    23 11.481699 0.000001 0.000001 -1.495447 0.046226 0.736918
    24 3.859680 -0.132567 1.193109 0.076307 0.048692 -1.410406
    25 1.312555 -0.000002 0.000002 0.000000 0.000000 -0.439672
    26 0.729365 0.000000 -0.000001 0.000000 0.000000 -1.116930
    27 3.942307 0.050327 0.431044 0.032619 0.047813 -1.244423
    28 1.539099 -0.000002 0.000000 0.000000 0.000000 -0.858632
    29 1.196321 0.000010 0.000000 0.000000 0.000000 -1.041589
    30 3.883659 -0.050321 -0.431042 0.013675 -0.048012 -1.095524
    31 1.719578 0.000002 0.000000 -0.000001 -0.007971 -1.239096
    32 1.209185 0.000002 0.000000 0.000000 -0.004460 -0.914505
    33 3.859840 -0.148937 -1.331282 -0.130416 -0.094966 -0.552749
    34 1.719421 0.000002 0.000000 0.000000 -0.006613 -0.362970
    35 1.099669 0.000002 -0.000001 0.000000 -0.004211 -0.767879
    36 0.806023 -0.359837 -1.318334 1.402404 0.526435 -0.917775
    37 1.789782 0.000000 -0.000004 -0.170078 0.039352 0.399730
    38 1.206999 0.000002 0.000000 0.000000 0.000000 1.061034
    39 -3.385352 -22.387338 -6.689853 1.903578 -0.030967 0.241287
    40 0.025545 -1.273521 1.753304 0.000000 0.000000 0.000000
    41 0.001032 1.440453 -1.526783 0.000000 0.000000 0.000000
    42 0.004413 0.696487 -1.430595 0.000000 0.000000 0.000000
    43 0.580660 0.349014 -1.430595 0.000000 0.000000 0.000000
    44 0.583444 -0.305904 -1.430599 0.000000 0.000000 0.000000
    45 0.005318 -0.648720 -1.430599 0.000000 0.000000 0.000000
    46 -0.574618 -0.303123 -1.430601 0.000000 0.000000 0.000000
    47 -0.573714 0.348118 -1.430595 0.000000 0.000000 0.000000
  time 3
    0 -0.999512 8.335938 -6.640625 -1.570760 -1.391893 -1.570827
    1 2.033349 1.000767 1.937660 1.596637 -1.286515 2.942961
    2 6.321118 -0.964873 1.468795 -0.227163 -1.087734 -1.928189
    3 11.692554 0.000001 0.000000 0.000000 0.000000 -0.751151
    4 11.481670 0.000001 -0.000031 -0.271503 -0.362416 0.889605
    5 3.859711 -0.142405 -1.191975 -0.491312 0.054898 -1.089461
    6 1.312555 -0.000002 0.000000 0.000000 0.000000 -0.435484
    7 0.729363 -0.000002 -0.000002 0.000000 0.000000 -0.240207
    8 3.942337 0.046767 -0.431443 -0.150125 0.076994 -0.776666
    9 1.539097 0.000000 0.000000 0.000000 0.000000 -0.409593
    10 1.196325 -0.000002 -0.000001 0.000000 0.000000 -0.581464
    11 3.883698 -0.046765 0.431443 0.085347 0.023775 -0.564480
    12 1.719570 -0.000004 -0.000001 0.000000 0.000000 -0.762886
    13 1.209169 -0.000004 0.000000 0.000000 0.000000 -0.256535
    14 3.859863 -0.137946 1.332466 0.483960 -0.048432 -0.425648
    15 1.719431 0.000002 0.000000 0.000000 0.000000 -0.496225
    16 1.099667 0.000000 -0.000001 0.000000 0.000000 -0.354423
    17 0.806053 -0.348926 1.321258 -1.287532 -0.366649 -0.722385
    18 1.789778 -0.000002 0.000002 0.000000 0.000000 0.212596
    19 1.207005 0.000000 0.000002 0.000000 0.000000 0.186299
    20 2.033356 1.000772 -1.937610 -2.129147 1.252455 2.502299
    21 6.028145 0.000000 0.000000 1.732891 1.234401 -1.102545
    22 11.692554 0.000001 0.000002 0.000000 0.000000 -0.754441
    23 11.481699 0.000001 0.000001 -1.490337 0.060507 0.722483
    24 3.859680 -0.132567 1.193109 0.076307 0.048692 -1.410406
    25 1.312555 -0.000002 0.000002 0.000000 0.000000 -0.439672
    26 0.729365 0.000000 -0.000001 0.000000 0.000000 -1.116930
    27 3.942307 0.050327 0.431044 0.032619 0.047813 -1.244423
    28 1.539099 -0.000002 0.000000 0.000000 0.000000 -0.858632
    29 1.196321 0.000010 0.000000 0.000000 0.000000 -1.041589
    30 3.883659 -0.050321 -0.431042 0.013675 -0.048012 -1.095542
    31 1.719578 0.000002 0.000000 -0.000001 -0.007971 -1.239096
    32 1.209185 0.000002 0.000000 0.000000 -0.004460 -0.914505
    33 3.859840 -0.148937 -1.331282 -0.130416 -0.094966 -0.552749
    34 1.719421 0.000002 0.000000 0.000000 -0.006613 -0.362970
    35 1.099669 0.000002 -0.000001 0.000000 -0.004211 -0.767895
    36 0.806023 -0.359837 -1.318334 1.402404 0.526435 -0.917775
    37 1.789782 0.000000 -0.000004 -0.170078 0.039352 0.399730
    38 1.206999 0.000002 0.000000 0.000000 0.000000 1.061034
    39 -3.463480 -22.324836 -6.408595 1.875885 -0.026844 0.229059
    40 0.025545 -1.273521 1.753304 0.000000 0.000000 0.000000
    41 0.001032 1.440453 -1.526783 0.000000 0.000000 0.000000
    42 0.004413 0.696487 -1.430595 0.000000 0.000000 0.000000
    43 0.580660 0.349014 -1.430595 0.000000 0.000000 0.000000
    44 0.583444 -0.305904 -1.430599 0.000000 0.000000 0.000000
    45 0.005318 -0.648720 -1.430599 0.000000 0.000000 0.000000
    46 -0.574618 -0.303123 -1.430601 0.000000 0.000000 0.000000
    47 -0.573714 0.348118 -1.430595 0.000000 0.000000 0.000000
  time 4
    0 -0.999512 8.335938 -6.640625 -1.570760 -1.391893 -1.570827
    1 2.033349 1.000767 1.937660 1.596637 -1.286515 2.942961
    2 6.321118 -0.964873 1.468795 -0.236234 -1.089836 -1.919149
    3 11.692554 0.000001 0.000000 0.000000 0.000000 -0.757442
    4 11.481670 0.000001 -0.000031 -0.251998 -0.372360 0.853028
    5 3.859711 -0.142405 -1.191975 -0.491312 0.054898 -1.089461
    6 1.312555 -0.000002 0.000000 0.000000 0.000000 -0.435484
    7 0.729363 -0.000002 -0.000002 0.000000 0.000000 -0.240207
    8 3.942337 0.046767 -0.431443 -0.150125 0.076994 -0.776666
    9 1.539097 0.000000 0.000000 0.000000 0.000000 -0.409593
    10 1.196325 -0.000002 -0.000001 0.000000 0.000000 -0.581464
    11 3.883698 -0.046765 0.431443 0.085347 0.023775 -0.564480
    12 1.719570 -0.000004 -0.000001 0.000000 0.000000 -0.762886
    13 1.209169 -0.000004 0.000000 0.000000 0.000000 -0.256535
    14 3.859863 -0.137946 1.332466 0.483960 -0.048432 -0.425648
    15 1.719431 0.000002 0.000000 0.000000 0.000000 -0.496225
    16 1.099667 0.000000 -0.000001 0.000000 0.000000 -0.354423
    17 0.806053 -0.348926 1.321258 -1.287532 -0.366649 -0.722385
    18 1.789778 -0.000002 0.000002 0.000000 0.000000 0.212596
    19 1.207005 0.000000 0.000002 0.000000 0.000000 0.186299
    20 2.033356 1.000772 -1.937610 -2.129147 1.252455 2.502299
    21 6.028145 0.000000 0.000000 1.725486 1.228227 -1.109554
    22 11.692554 0.000001 0.000002 0.000000 0.000000 -0.776799
    23 11.481699 0.000001 0.000001 -1.484940 0.079280 0.704586
    24 3.859680 -0.132567 1.193109 0.076307 0.048692 -1.410406
    25 1.312555 -0.000002 0.000002 0.000000 0.000000 -0.439672
    26 0.729365 0.000000 -0.000001 0.000000 0.000000 -1.116930
    27 3.942307 0.050327 0.431044 0.032619 0.047813 -1.244423
    28 1.539099 -0.000002 0.000000 0.000000 0.000000 -0.858632
    29 1.196321 0.000010 0.000000 0.000000 0.000000 -1.041589
    30 3.883659 -0.050321 -0.431042 0.013675 -0.048012 -1.095542
    31 1.719578 0.000002 0.000000 -0.000001 -0.007971 -1.239096
    32 1.209185 0.000002 0.000000 0.000000 -0.004460 -0.914505
    33 3.859840 -0.148937 -1.331282 -0.130416 -0.094966 -0.552749
    34 1.719421 0.000002 0.000000 0.000000 -0.006613 -0.362970
    35 1.099669 0.000002 -0.000001 0.000000 -0.004211 -0.767895
    36 0.806023 -0.359837 -1.318334 1.402404 0.526435 -0.917775
    37 1.789782 0.000000 -0.000004 -0.170078 0.039352 0.399730
    38 1.206999 0.000002 0.000000 0.000000 0.000000 1.061034
    39 -3.557233 -22.242802 -6.057021 1.841519 -0.021589 0.213058
    40 0.025545 -1.273521 1.753304 0.000000 0.000000 0.000000
    41 0.001032 1.440453 -1.526783 0.000000 0.000000 0.000000
    42 0.004413 0.696487 -1.430595 0.000000 0.000000 0.000000
    43 0.580660 0.349014 -1.430595 0.000000 0.000000 0.000000
    44 0.583444 -0.305904 -1.430599 0.000000 0.000000 0.000000
    45 0.005318 -0.648720 -1.430599 0.000000 0.000000 0.000000
    46 -0.574618 -0.303123 -1.430601 0.000000 0.000000 0.000000
    47 -0.573714 0.348118 -1.430595 0.000000 0.000000 0.000000
  time 5
    0 -0.999512 8.335938 -6.640625 -1.570760 -1.391893 -1.570827
    1 2.033349 1.000767 1.937660 1.596637 -1.286515 2.942961
    2 6.321118 -0.964873 1.468795 -0.245691 -1.092622 -1.909910
    3 11.692554 0.000001 0.000000 0.000000 0.000000 -0.763895
    4 11.481670 0.000001 -0.000031 -0.229752 -0.381690 0.810610
    5 3.859711 -0.142405 -1.191975 -0.491312 0.054898 -1.089461
    6 1.312555 -0.000002 0.000000 0.000000 0.000000 -0.435484
    7 0.729363 -0.000002 -0.000002 0.000000 0.000000 -0.240207
    8 3.942337 0.046767 -0.431443 -0.150125 0.076994 -0.776666
    9 1.539097 0.000000 0.000000 0.000000 0.000000 -0.409593
    10 1.196325 -0.000002 -0.000001 0.000000 0.000000 -0.581464
    11 3.883698 -0.046765 0.431443 0.085347 0.023775 -0.564480
    12 1.719570 -0.000004 -0.000001 0.000000 0.000000 -0.762886
    13 1.209169 -0.000004 0.000000 0.000000 0.000000 -0.256535
    14 3.859863 -0.137946 1.332466 0.483960 -0.048432 -0.425648
    15 1.719431 0.000002 0.000000 0.000000 0.000000 -0.496225
    16 1.099667 0.000000 -0.000001 0.000000 0.000000 -0.354423
    17 0.806053 -0.348926 1.321258 -1.287532 -0.366649 -0.722385
    18 1.789778 -0.000002 0.000002 0.000000 0.000000 0.212596
    19 1.207005 0.000000 0.000002 0.000000 0.000000 0.186299
    20 2.033356 1.000772 -1.937610 -2.129147 1.252455 2.502299
    21 6.028145 0.000000 0.000000 1.717331 1.221896 -1.117206
    22 11.692554 0.000001 0.000002 0.000000 0.000000 -0.801397
    23 11.481699 0.000001 0.000001 -1.480068 0.101724 0.684679
    24 3.859680 -0.132567 1.193109 0.076307 0.048692 -1.410406
    25 1.312555 -0.000002 0.000002 0.000000 0.000000 -0.439672
    26 0.729365 0.000000 -0.000001 0.000000 0.000000 -1.116930
    27 3.942307 0.050327 0.431044 0.032619 0.047813 -1.244423
    28 1.539099 -0.000002 0.000000 0.000000 0.000000 -0.858632
    29 1.196321 0.000010 0.000000 0.000000 0.000000 -1.041589
    30 3.883659 -0.050321 -0.431042 0.013675 -0.048012 -1.095524
    31 1.719578 0.000002 0.000000 -0.000001 -0.007971 -1.239096
    32 1.209185 0.000002 0.000000 0.000000 -0.004460 -0.914505
    33 3.859840 -0.148937 -1.331282 -0.130416 -0.094966 -0.552749
    34 1.719421 0.000002 0.000000 0.000000 -0.006613 -0.362970
    35 1.099669 0.000002 -0.000001 0.000000 -0.004211 -0.767879
    36 0.806023 -0.359837 -1.318334 1.402404 0.526435 -0.917775
    37 1.789782 0.000000 -0.000004 -0.170078 0.039352 0.399730
    38 1.206999 0.000002 0.000000 0.000000 0.000000 1.061034
    39 -3.670517 -22.133424 -5.654665 1.802863 -0.015567 0.194192
    40 0.025545 -1.273521 1.753304 0.000000 0.000000 0.000000
    41 0.001032 1.440453 -1.526783 0.000000 0.000000 0.000000
    42 0.004413 0.696487 -1.430595 0.000000 0.000000 0.000000
    43 0.580660 0.349014 -1.430595 0.000000 0.000000 0.000000
    44 0.583444 -0.305904 -1.430599 0.000000 0.000000 0.000000
    45 0.005318 -0.648720 -1.430599 0.000000 0.000000 0.000000
    46 -0.574618 -0.303123 -1.430601 0.000000 0.000000 0.000000
    47 -0.573714 0.348118 -1.430595 0.000000 0.000000 0.000000
  time 6
    0 -0.999512 8.335938 -6.640625 -1.570760 -1.391893 -1.570827
    1 2.033349 1.000767 1.937660 1.596637 -1.286515 2.942961
    2 6.321118 -0.964873 1.468795 -0.254617 -1.096002 -1.901466
    3 11.692554 0.000001 0.000000 0.000000 0.000000 -0.770105
    4 11.481670 0.000001 -0.000031 -0.206550 -0.389179 0.764920
    5 3.859711 -0.142405 -1.191975 -0.491312 0.054898 -1.089461
    6 1.312555 -0.000002 0.000000 0.000000 0.000000 -0.435484
    7 0.729363 -0.000002 -0.000002 0.000000 0.000000 -0.240207
    8 3.942337 0.046767 -0.431443 -0.150125 0.076994 -0.776666
    9 1.539097 0.000000 0.000000 0.000000 0.000000 -0.409593
    10 1.196325 -0.000002 -0.000001 0.000000 0.000000 -0.581464
    11 3.883698 -0.046765 0.431443 0.085347 0.023775 -0.564480
    12 1.719570 -0.000004 -0.000001 0.000000 0.000000 -0.762886
    13 1.209169 -0.000004 0.000000 0.000000 0.000000 -0.256535
    14 3.859863 -0.137946 1.332466 0.483960 -0.048432 -0.425648
    15 1.719431 0.000002 0.000000 0.000000 0.000000 -0.496225
    16 1.099667 0.000000 -0.000001 0.000000 0.000000 -0.354423
    17 0.806053 -0.348926 1.321258 -1.287532 -0.366649 -0.722385
    18 1.789778 -0.000002 0.000002 0.000000 0.000000 0.212596
    19 1.207005 0.000000 0.000002 0.000000 0.000000 0.186299
    20 2.033356 1.000772 -1.937610 -2.129147 1.252455 2.502299
    21 6.028145 0.000000 0.000000 1.708825 1.215841 -1.125053
    22 11.692554 0.000001 0.000002 0.000000 0.000000 -0.827052
    23 11.481699 0.000001 0.000001 -1.476821 0.127006 0.664493
    24 3.859680 -0.132567 1.193109 0.076307 0.048692 -1.410406
    25 1.312555 -0.000002 0.000002 0.000000 0.000000 -0.439672
    26 0.729365 0.000000 -0.000001 0.000000 0.000000 -1.116930
    27 3.942307 0.050327 0.431044 0.032619 0.047813 -1.244423
    28 1.539099 -0.000002 0.000000 0.000000 0.000000 -0.858632
    29 1.196321 0.000010 0.000000 0.000000 0.000000 -1.041589
    30 3.883659 -0.050321 -0.431042 0.013663 -0.048012 -1.095524
    31 1.719578 0.000002 0.000000 -0.000001 -0.007971 -1.239096
    32 1.209185 0.000002 0.000000 0.000000 -0.004460 -0.914505
    33 3.859840 -0.148937 -1.331282 -0.130416 -0.094966 -0.552749
    34 1.719421 0.000002 0.000000 0.000000 -0.006613 -0.362970
    35 1.099669 0.000002 -0.000001 0.000000 -0.004211 -0.767879
    36 0.806023 -0.359837 -1.318334 1.402404 0.526435 -0.917775
    37 1.789782 0.000000 -0.000004 -0.170078 0.039352 0.399730
    38 1.206999 0.000002 0.000000 0.000000 0.000000 1.061034
    39 -3.787709 -22.008420 -5.224965 1.762300 -0.008989 0.172950
    40 0.025545 -1.273521 1.753304 0.000000 0.000000 0.000000
    41 0.001032 1.440453 -1.526783 0.000000 0.000000 0.000000
    42 0.004413 0.696487 -1.430595 0.000000 0.000000 0.000000
    43 0.580660 0.349014 -1.430595 0.000000 0.000000 0.000000
    44 0.583444 -0.305904 -1.430599 0.000000 0.000000 0.000000
    45 0.005318 -0.648720 -1.430599 0.000000 0.000000 0.000000
    46 -0.574618 -0.303123 -1.430601 0.000000 0.000000 0.000000
    47 -0.573714 0.348118 -1.430595 0.000000 0.000000 0.000000
  time 7
    0 -0.999512 8.335938 -6.640625 -1.570760 -1.391893 -1.570827
    1 2.033349 1.000767 1.937660 1.596637 -1.286515 2.942961
    2 6.321118 -0.964873 1.468795 -0.262723 -1.099976 -1.894214
    3 11.692554 0.000001 0.000000 0.000000 0.000000 -0.776235
    4 11.481670 0.000001 -0.000031 -0.183794 -0.393762 0.718816
    5 3.859711 -0.142405 -1.191975 -0.491312 0.054898 -1.089461
    6 1.312555 -0.000002 0.000000 0.000000 0.000000 -0.435484
    7 0.729363 -0.000002 -0.000002 0.000000 0.000000 -0.240207
    8 3.942337 0.046767 -0.431443 -0.150125 0.076994 -0.776666
    9 1.539097 0.000000 0.000000 0.000000 0.000000 -0.409593
    10 1.196325 -0.000002 -0.000001 0.000000 0.000000 -0.581464
    11 3.883698 -0.046765 0.431443 0.085347 0.023775 -0.564480
    12 1.719570 -0.000004 -0.000001 0.000000 0.000000 -0.762886
    13 1.209169 -0.000004 0.000000 0.000000 0.000000 -0.256535
    14 3.859863 -0.137946 1.332466 0.483960 -0.048432 -0.425648
    15 1.719431 0.000002 0.000000 0.000000 0.000000 -0.496225
    16 1.099667 0.000000 -0.000001 0.000000 0.000000 -0.354423
    17 0.806053 -0.348926 1.321258 -1.287532 -0.366649 -0.722385
    18 1.789778 -0.000002 0.000002 0.000000 0.000000 0.212596
    19 1.207005 0.000000 0.000002 0.000000 0.000000 0.186299
    20 2.033356 1.000772 -1.937610 -2.129147 1.252455 2.502299
    21 6.028145 0.000000 0.000000 1.700419 1.210617 -1.132760
    22 11.692554 0.000001 0.000002 0.000000 0.000000 -0.852664
    23 11.481699 0.000001 0.000001 -1.475149 0.153981 0.644865
    24 3.859680 -0.132567 1.193109 0.076307 0.048692 -1.410406
    25 1.312555 -0.000002 0.000002 0.000000 0.000000 -0.439672
    26 0.729365 0.000000 -0.000001 0.000000 0.000000 -1.116930
    27 3.942307 0.050327 0.431044 0.032619 0.047813 -1.244423
    28 1.539099 -0.000002 0.000000 0.000000 0.000000 -0.858632
    29 1.196321 0.000010 0.000000 0.000000 0.000000 -1.041589
    30 3.883659 -0.050321 -0.431042 0.013675 -0.048012 -1.095542
    31 1.719578 0.000002 0.000000 -0.000001 -0.007971 -1.239096
    32 1.209185 0.000002 0.000000 0.000000 -0.004460 -0.914505
    33 3.859840 -0.148937 -1.331282 -0.130416 -0.094966 -0.552749
    34 1.719421 0.000002 0.000000 0.000000 -0.006613 -0.362970
    35 1.099669 0.000002 -0.000001 0.000000 -0.004211 -0.767879
    36 0.806023 -0.359837 -1.318334 1.402404 0.526435 -0.917775
    37 1.789782 0.000000 -0.000004 -0.170078 0.039352 0.399730
    38 1.206999 0.000002 0.000000 0.000000 0.000000 1.061034
    39 -3.912712 -21.863884 -4.787451 1.722119 -0.002066 0.150242
    40 0.025545 -1.273521 1.753304 0.000000 0.000000 0.000000
    41 0.001032 1.440453 -1.526783 0.000000 0.000000 0.000000
    42 0.004413 0.696487 -1.430595 0.000000 0.000000 0.000000
    43 0.580660 0.349014 -1.430595 0.000000 0.000000 0.000000
    44 0.583444 -0.305904 -1.430599 0.000000 0.000000 0.000000
    45 0.005318 -0.648720 -1.430599 0.000000 0.000000 0.000000
    46 -0.574618 -0.303123 -1.430601 0.000000 0.000000 0.000000
    47 -0.573714 0.348118 -1.430595 0.000000 0.000000 0.000000
  time 8
    0 -0.999512 8.335938 -6.640625 -1.570760 -1.391893 -1.570827
    1 2.033349 1.000767 1.937660 1.596637 -1.286515 2.942961
    2 6.321118 -0.964873 1.468795 -0.269575 -1.104498 -1.888601
    3 11.692554 0.000001 0.000000 0.000000 0.000000 -0.782607
    4 11.481670 0.000001 -0.000031 -0.163142 -0.394826 0.675197
    5 3.859711 -0.142405 -1.191975 -0.491312 0.054898 -1.089461
    6 1.312555 -0.000002 0.000000 0.000000 0.000000 -0.435484
    7 0.729363 -0.000002 -0.000002 0.000000 0.000000 -0.240207
    8 3.942337 0.046767 -0.431443 -0.150125 0.076994 -0.776666
    9 1.539097 0.000000 0.000000 0.000000 0.000000 -0.409593
    10 1.196325 -0.000002 -0.000001 0.000000 0.000000 -0.581464
    11 3.883698 -0.046765 0.431443 0.085347 0.023775 -0.564480
    12 1.719570 -0.000004 -0.000001 0.000000 0.000000 -0.762886
    13 1.209169 -0.000004 0.000000 0.000000 0.000000 -0.256535
    14 3.859863 -0.137946 1.332466 0.483960 -0.048432 -0.425648
    15 1.719431 0.000002 0.000000 0.000000 0.000000 -0.496225
    16 1.099667 0.000000 -0.000001 0.000000 0.000000 -0.354423
    17 0.806053 -0.348926 1.321258 -1.287532 -0.366649 -0.722385
    18 1.789778 -0.000002 0.000002 0.000000 0.000000 0.212596
    19 1.207005 0.000000 0.000002 0.000000 0.000000 0.186299
    20 2.033356 1.000772 -1.937610 -2.129147 1.252455 2.502299
    21 6.028145 0.000000 0.000000 1.692314 1.206383 -1.139965
    22 11.692554 0.000001 0.000002 0.000000 0.000000 -0.877558
    23 11.481699 0.000001 0.000001 -1.475961 0.181801 0.628421
    24 3.859680 -0.132567 1.193109 0.076307 0.048692 -1.410406
    25 1.312555 -0.000002 0.000002 0.000000 0.000000 -0.439672
    26 0.729365 0.000000 -0.000001 0.000000 0.000000 -1.116930
    27 3.942307 0.050327 0.431044 0.032619 0.047813 -1.244423
    28 1.539099 -0.000002 0.000000 0.000000 0.000000 -0.858632
    29 1.196321 0.000010 0.000000 0.000000 0.000000 -1.041607
    30 3.883659 -0.050321 -0.431042 0.013675 -0.048012 -1.095524
    31 1.719578 0.000002 0.000000 -0.000001 -0.007971 -1.239096
    32 1.209185 0.000002 0.000000 0.000000 -0.004460 -0.914505
    33 3.859840 -0.148937 -1.331282 -0.130416 -0.094966 -0.552749
    34 1.719421 0.000002 0.000000 0.000000 -0.006613 -0.362970
    35 1.099669 0.000002 -0.000001 0.000000 -0.004211 -0.767879
    36 0.806023 -0.359837 -1.318334 1.402404 0.526435 -0.917775
    37 1.789782 0.000000 -0.000004 -0.170078 0.039352 0.399730
    38 1.206999 0.000002 0.000000 0.000000 0.000000 1.061034
    39 -4.033810 -21.707630 -4.357751 1.684607 0.005203 0.126834
    40 0.025545 -1.273521 1.753304 0.000000 0.000000 0.000000
    41 0.001032 1.440453 -1.526783 0.000000 0.000000 0.000000
    42 0.004413 0.696487 -1.430595 0.000000 0.000000 0.000000
    43 0.580660 0.349014 -1.430595 0.000000 0.000000 0.000000
    44 0.583444 -0.305904 -1.430599 0.000000 0.000000 0.000000
    45 0.005318 -0.648720 -1.430599 0.000000 0.000000 0.000000
    46 -0.574618 -0.303123 -1.430601 0.000000 0.000000 0.000000
    47 -0.573714 0.348118 -1.430595 0.000000 0.000000 0.000000
  time 9
    0 -0.999512 8.335938 -6.640625 -1.570760 -1.391893 -1.570827
    1 2.033349 1.000767 1.937660 1.596637 -1.286515 2.942961
    2 6.321118 -0.964873 1.468795 -0.275751 -1.109340 -1.883783
    3 11.692554 0.000001 0.000000 0.000000 0.000000 -0.790027
    4 11.481670 0.000001 -0.000031 -0.145166 -0.391675 0.637419
    5 3.859711 -0.142405 -1.191975 -0.491312 0.054898 -1.089461
    6 1.312555 -0.000002 0.000000 0.000000 0.000000 -0.435484
    7 0.729363 -0.000002 -0.000002 0.000000 0.000000 -0.240207
    8 3.942337 0.046767 -0.431443 -0.150125 0.076994 -0.776666
    9 1.539097 0.000000 0.000000 0.000000 0.000000 -0.409593
    10 1.196325 -0.000002 -0.000001 0.000000 0.000000 -0.581464
    11 3.883698 -0.046765 0.431443 0.085347 0.023775 -0.564480
    12 1.719570 -0.000004 -0.000001 0.000000 0.000000 -0.762886
    13 1.209169 -0.000004 0.000000 0.000000 0.000000 -0.256535
    14 3.859863 -0.137946 1.332466 0.483960 -0.048432 -0.425648
    15 1.719431 0.000002 0.000000 0.000000 0.000000 -0.496225
    16 1.099667 0.000000 -0.000001 0.000000 0.000000 -0.354423
    17 0.806053 -0.348926 1.321258 -1.287532 -0.366649 -0.722385
    18 1.789778 -0.000002 0.000002 0.000000 0.000000 0.212596
    19 1.207005 0.000000 0.000002 0.000000 0.000000 0.186299
    20 2.033356 1.000772 -1.937610 -2.129147 1.252455 2.502299
    21 6.028145 0.000000 0.000000 1.684809 1.203494 -1.146499
    22 11.692554 0.000001 0.000002 0.000000 0.000000 -0.901268
    23 11.481699 0.000001 0.000001 -1.477728 0.209375 0.616834
    24 3.859680 -0.132567 1.193109 0.076307 0.048692 -1.410433
    25 1.312555 -0.000002 0.000002 0.000000 0.000000 -0.439672
    26 0.729365 0.000000 -0.000001 0.000000 0.000000 -1.116930
    27 3.942307 0.050327 0.431044 0.032619 0.047813 -1.244423
    28 1.539099 -0.000002 0.000000 0.000000 0.000000 -0.858632
    29 1.196321 0.000010 0.000000 0.000000 0.000000 -1.041607
    30 3.883659 -0.050321 -0.431042 0.013675 -0.048012 -1.095524
    31 1.719578 0.000002 0.000000 -0.000001 -0.007971 -1.239096
    32 1.209185 0.000002 0.000000 0.000000 -0.004460 -0.914505
    33 3.859840 -0.148937 -1.331282 -0.130416 -0.094966 -0.552749
    34 1.719421 0.000002 0.000000 0.000000 -0.006613 -0.362970
    35 1.099669 0.000002 -0.000001 0.000000 -0.004211 -0.767879
    36 0.806023 -0.359837 -1.318334 1.402404 0.526435 -0.917775
    37 1.789782 0.000000 -0.000004 -0.170078 0.039352 0.399730
    38 1.206999 0.000002 0.000000 0.000000 0.000000 1.061034
    39 -4.151001 -21.551375 -3.951488 1.651909 0.011570 0.103217
    40 0.025545 -1.273521 1.753304 0.000000 0.000000 0.000000
    41 0.001032 1.440453 -1.526783 0.000000 0.000000 0.000000
    42 0.004413 0.696487 -1.430595 0.000000 0.000000 0.000000
    43 0.580660 0.349014 -1.430595 0.000000 0.000000 0.000000
    44 0.583444 -0.305904 -1.430599 0.000000 0.000000 0.000000
    45 0.005318 -0.648720 -1.430599 0.000000 0.000000 0.000000
    46 -0.574618 -0.303123 -1.430601 0.000000 0.000000 0.000000
    47 -0.573714 0.348118 -1.430595 0.000000 0.000000 0.000000
  time 10
    0 -0.999512 8.335938 -6.640625 -1.570760 -1.391893 -1.570827
    1 2.033349 1.000767 1.937660 1.596637 -1.286515 2.942961
    2 6.321118 -0.964873 1.468795 -0.281830 -1.114410 -1.879064
    3 11.692554 0.000001 0.000000 0.000000 0.000000 -0.798940
    4 11.481670 0.000001 -0.000031 -0.129104 -0.384616 0.606434
    5 3.859711 -0.142405 -1.191975 -0.491312 0.054898 -1.089461
    6 1.312555 -0.000002 0.000000 0.000000 0.000000 -0.435484
    7 0.729363 -0.000002 -0.000002 0.000000 0.000000 -0.240207
    8 3.942337 0.046767 -0.431443 -0.150125 0.076994 -0.776666
    9 1.539097 0.000000 0.000000 0.000000 0.000000 -0.409593
    10 1.196325 -0.000002 -0.000001 0.000000 0.000000 -0.581464
    11 3.883698 -0.046765 0.431443 0.085347 0.023775 -0.564480
    12 1.719570 -0.000004 -0.000001 0.000000 0.000000 -0.762886
    13 1.209169 -0.000004 0.000000 0.000000 0.000000 -0.256535
    14 3.859863 -0.137946 1.332466 0.483960 -0.048432 -0.425648
    15 1.719431 0.000002 0.000000 0.000000 0.000000 -0.496225
    16 1.099667 0.000000 -0.000001 0.000000 0.000000 -0.354423
    17 0.806053 -0.348926 1.321258 -1.287532 -0.366649 -0.722385
    18 1.789778 -0.000002 0.000002 0.000000 0.000000 0.212596
    19 1.207005 0.000000 0.000002 0.000000 0.000000 0.186299
    20 2.033356 1.000772 -1.937610 -2.129147 1.252455 2.502299
    21 6.028145 0.000000 0.000000 1.677955 1.201555 -1.152392
    22 11.692554 0.000001 0.000002 0.000000 0.000000 -0.923415
    23 11.481699 0.000001 0.000001 -1.479018 0.235959 0.610133
    24 3.859680 -0.132567 1.193109 0.076307 0.048692 -1.410406
    25 1.312555 -0.000002 0.000002 0.000000 0.000000 -0.439672
    26 0.729365 0.000000 -0.000001 0.000000 0.000000 -1.116930
    27 3.942307 0.050327 0.431044 0.032619 0.047813 -1.244423
    28 1.539099 -0.000002 0.000000 0.000000 0.000000 -0.858632
    29 1.196321 0.000010 0.000000 0.000000 0.000000 -1.041589
    30 3.883659 -0.050321 -0.431042 0.013675 -0.048012 -1.095524
    31 1.719578 0.000002 0.000000 -0.000001 -0.007971 -1.239096
    32 1.209185 0.000002 0.000000 0.000000 -0.004460 -0.914505
    33 3.859840 -0.148937 -1.331282 -0.130416 -0.094966 -0.552749
    34 1.719421 0.000002 0.000000 0.000000 -0.006613 -0.362970
    35 1.099669 0.000002 -0.000001 0.000000 -0.004211 -0.767879
    36 0.806023 -0.359837 -1.318334 1.402404 0.526435 -0.917775
    37 1.789782 0.000000 -0.000004 -0.170078 0.039352 0.399730
    38 1.206999 0.000002 0.000000 0.000000 0.000000 1.061034
    39 -4.268192 -21.402933 -3.580383 1.624455 0.015943 0.079949
    40 0.025545 -1.273521 1.753304 0.000000 0.000000 0.000000
    41 0.001032 1.440453 -1.526783 0.000000 0.000000 0.000000
    42 0.004413 0.696487 -1.430595 0.000000 0.000000 0.000000
    43 0.580660 0.349014 -1.430595 0.000000 0.000000 0.000000
    44 0.583444 -0.305904 -1.430599 0.000000 0.000000 0.000000
    45 0.005318 -0.648720 -1.430599 0.000000 0.000000 0.000000
    46 -0.574618 -0.303123 -1.430601 0.000000 0.000000 0.000000
    47 -0.573714 0.348118 -1.430595 0.000000 0.000000 0.000000
  time 11
    0 -0.999512 8.335938 -6.640625 -1.570760 -1.391893 -1.570827
    1 2.033349 1.000767 1.937660 1.596637 -1.286515 2.942961
    2 6.321118 -0.964873 1.468795 -0.287910 -1.119434 -1.874544
    3 11.692554 0.000001 0.000000 0.000000 0.000000 -0.808578
    4 11.481670 0.000001 -0.000031 -0.115144 -0.374897 0.581870
    5 3.859711 -0.142405 -1.191975 -0.491312 0.054898 -1.089461
    6 1.312555 -0.000002 0.000000 0.000000 0.000000 -0.435484
    7 0.729363 -0.000002 -0.000002 0.000000 0.000000 -0.240207
    8 3.942337 0.046767 -0.431443 -0.150125 0.076994 -0.776666
    9 1.539097 0.000000 0.000000 0.000000 0.000000 -0.409593
    10 1.196325 -0.000002 -0.000001 0.000000 0.000000 -0.581464
    11 3.883698 -0.046765 0.431443 0.085347 0.023775 -0.564480
    12 1.719570 -0.000004 -0.000001 0.000000 0.000000 -0.762886
    13 1.209169 -0.000004 0.000000 0.000000 0.000000 -0.256535
    14 3.859863 -0.137946 1.332466 0.483960 -0.048432 -0.425648
    15 1.719431 0.000002 0.000000 0.000000 0.000000 -0.496225
    16 1.099667 0.000000 -0.000001 0.000000 0.000000 -0.354423
    17 0.806053 -0.348926 1.321258 -1.287532 -0.366649 -0.722385
    18 1.789778 -0.000002 0.000002 0.000000 0.000000 0.212596
    19 1.207005 0.000000 0.000002 0.000000 0.000000 0.186299
    20 2.033356 1.000772 -1.937610 -2.129147 1.252455 2.502299
    21 6.028145 0.000000 0.000000 1.671700 1.200407 -1.157642
    22 11.692554 0.000001 0.000002 0.000000 0.000000 -0.943660
    23 11.481699 0.000001 0.000001 -1.479638 0.260889 0.607453
    24 3.859680 -0.132567 1.193109 0.076307 0.048692 -1.410406
    25 1.312555 -0.000002 0.000002 0.000000 0.000000 -0.439672
    26 0.729365 0.000000 -0.000001 0.000000 0.000000 -1.116930
    27 3.942307 0.050327 0.431044 0.032619 0.047813 -1.244423
    28 1.539099 -0.000002 0.000000 0.000000 0.000000 -0.858632
    29 1.196321 0.000010 0.000000 0.000000 0.000000 -1.041589
    30 3.883659 -0.050321 -0.431042 0.013675 -0.048012 -1.095524
    31 1.719578 0.000002 0.000000 -0.000001 -0.007971 -1.239096
    32 1.209185 0.000002 0.000000 0.000000 -0.004460 -0.914505
    33 3.859840 -0.148937 -1.331282 -0.130416 -0.094966 -0.552749
    34 1.719421 0.000002 0.000000 0.000000 -0.006613 -0.362970
    35 1.099669 0.000002 -0.000001 0.000000 -0.004211 -0.767879
    36 0.806023 -0.359837 -1.318334 1.402404 0.526435 -0.917775
    37 1.789782 0.000000 -0.000004 -0.170078 0.039352 0.399730
    38 1.206999 0.000002 0.000000 0.000000 0.000000 1.061034
    39 -4.381477 -21.258397 -3.248342 1.602005 0.018417 0.057869
    40 0.025545 -1.273521 1.753304 0.000000 0.000000 0.000000
    41 0.001032 1.440453 -1.526783 0.000000 0.000000 0.000000
    42 0.004413 0.696487 -1.430595 0.000000 0.000000 0.000000
    43 0.580660 0.349014 -1.430595 0.000000 0.000000 0.000000
    44 0.583444 -0.305904 -1.430599 0.000000 0.000000 0.000000
    45 0.005318 -0.648720 -1.430599 0.000000 0.000000 0.000000
    46 -0.574618 -0.303123 -1.430601 0.000000 0.000000 0.000000
    47 -0.573714 0.348118 -1.430595 0.000000 0.000000 0.000000
  time 12
    0 -0.999512 8.335938 -6.640625 -1.570760 -1.391893 -1.570827
    1 2.033349 1.000767 1.937660 1.596637 -1.286515 2.942961
    2 6.321118 -0.964873 1.468795 -0.293700 -1.124093 -1.870123
    3 11.692554 0.000001 0.000000 0.000000 0.000000 -0.818499
    4 11.481670 0.000001 -0.000031 -0.103416 -0.363746 0.563395
    5 3.859711 -0.142405 -1.191975 -0.491312 0.054898 -1.089461
    6 1.312555 -0.000002 0.000000 0.000000 0.000000 -0.435484
    7 0.729363 -0.000002 -0.000002 0.000000 0.000000 -0.240207
    8 3.942337 0.046767 -0.431443 -0.150125 0.076994 -0.776666
    9 1.539097 0.000000 0.000000 0.000000 0.000000 -0.409593
    10 1.196325 -0.000002 -0.000001 0.000000 0.000000 -0.581464
    11 3.883698 -0.046765 0.431443 0.085347 0.023775 -0.564480
    12 1.719570 -0.000004 -0.000001 0.000000 0.000000 -0.762886
    13 1.209169 -0.000004 0.000000 0.000000 0.000000 -0.256535
    14 3.859863 -0.137946 1.332466 0.483960 -0.048432 -0.425648
    15 1.719431 0.000002 0.000000 0.000000 0.000000 -0.496225
    16 1.099667 0.000000 -0.000001 0.000000 0.000000 -0.354423
    17 0.806053 -0.348926 1.321258 -1.287532 -0.366649 -0.722385
    18 1.789778 -0.000002 0.000002 0.000000 0.000000 0.212596
    19 1.207005 0.000000 0.000002 0.000000 0.000000 0.186299
    20 2.033356 1.000772 -1.937610 -2.129147 1.252455 2.502299
    21 6.028145 0.000000 0.000000 1.666197 1.199932 -1.162193
    22 11.692554 0.000001 0.000002 0.000000 0.000000 -0.961411
    23 11.481699 0.000001 0.000001 -1.479495 0.283359 0.607983
    24 3.859680 -0.132567 1.193109 0.076307 0.048692 -1.410433
    25 1.312555 -0.000002 0.000002 0.000000 0.000000 -0.439672
    26 0.729365 0.000000 -0.000001 0.000000 0.000000 -1.116930
    27 3.942307 0.050327 0.431044 0.032619 0.047813 -1.244423
    28 1.539099 -0.000002 0.000000 0.000000 0.000000 -0.858632
    29 1.196321 0.000010 0.000000 0.000000 0.000000 -1.041589
    30 3.883659 -0.050321 -0.431042 0.013675 -0.048012 -1.095524
    31 1.719578 0.000002 0.000000 -0.000001 -0.007971 -1.239096
    32 1.209185 0.000002 0.000000 0.000000 -0.004460 -0.914505
    33 3.859840 -0.148937 -1.331282 -0.130416 -0.094966 -0.552749
    34 1.719421 0.000002 0.000000 0.000000 -0.006613 -0.362970
    35 1.099669 0.000002 -0.000001 0.000000 -0.004211 -0.767879
    36 0.806023 -0.359837 -1.318334 1.402404 0.526435 -0.917775
    37 1.789782 0.000000 -0.000004 -0.170078 0.039352 0.399730
    38 1.206999 0.000002 0.000000 0.000000 0.000000 1.061034
    39 -4.483042 -21.137300 -2.963177 1.584464 0.019395 0.037675
    40 0.025545 -1.273521 1.753304 0.000000 0.000000 0.000000
    41 0.001032 1.440453 -1.526783 0.000000 0.000000 0.000000
    42 0.004413 0.696487 -1.430595 0.000000 0.000000 0.000000
    43 0.580660 0.349014 -1.430595 0.000000 0.000000 0.000000
    44 0.583444 -0.305904 -1.430599 0.000000 0.000000 0.000000
    45 0.005318 -0.648720 -1.430599 0.000000 0.000000 0.000000
    46 -0.574618 -0.303123 -1.430601 0.000000 0.000000 0.000000
    47 -0.573714 0.348118 -1.430595 0.000000 0.000000 0.000000
  time 13
    0 -0.999512 8.335938 -6.640625 -1.570760 -1.391893 -1.570827
    1 2.033349 1.000767 1.937660 1.596637 -1.286515 2.942961
    2 6.321118 -0.964873 1.468795 -0.298814 -1.128159 -1.866099
    3 11.692554 0.000001 0.000000 0.000000 0.000000 -0.827532
    4 11.481670 0.000001 -0.000031 -0.094428 -0.352615 0.550595
    5 3.859711 -0.142405 -1.191975 -0.491312 0.054898 -1.089461
    6 1.312555 -0.000002 0.000000 0.000000 0.000000 -0.435484
    7 0.729363 -0.000002 -0.000002 0.000000 0.000000 -0.240207
    8 3.942337 0.046767 -0.431443 -0.150125 0.076994 -0.776666
    9 1.539097 0.000000 0.000000 0.000000 0.000000 -0.409593
    10 1.196325 -0.000002 -0.000001 0.000000 0.000000 -0.581464
    11 3.883698 -0.046765 0.431443 0.085347 0.023775 -0.564480
    12 1.719570 -0.000004 -0.000001 0.000000 0.000000 -0.762886
    13 1.209169 -0.000004 0.000000 0.000000 0.000000 -0.256535
    14 3.859863 -0.137946 1.332466 0.483960 -0.048432 -0.425648
    15 1.719431 0.000002 0.000000 0.000000 0.000000 -0.496225
    16 1.099667 0.000000 -0.000001 0.000000 0.000000 -0.354423
    17 0.806053 -0.348926 1.321258 -1.287532 -0.366649 -0.722385
    18 1.789778 -0.000002 0.000002 0.000000 0.000000 0.212596
    19 1.207005 0.000000 0.000002 0.000000 0.000000 0.186299
    20 2.033356 1.000772 -1.937610 -2.129147 1.252455 2.502299
    21 6.028145 0.000000 0.000000 1.661644 1.199853 -1.165935
    22 11.692554 0.000001 0.000002 0.000000 0.000000 -0.975950
    23 11.481699 0.000001 0.000001 -1.478874 0.302288 0.610887
    24 3.859680 -0.132567 1.193109 0.076307 0.048692 -1.410406
    25 1.312555 -0.000002 0.000002 0.000000 0.000000 -0.439672
    26 0.729365 0.000000 -0.000001 0.000000 0.000000 -1.116930
    27 3.942307 0.050327 0.431044 0.032619 0.047813 -1.244423
    28 1.539099 -0.000002 0.000000 0.000000 0.000000 -0.858632
    29 1.196321 0.000010 0.000000 0.000000 0.000000 -1.041589
    30 3.883659 -0.050321 -0.431042 0.013675 -0.048012 -1.095524
    31 1.719578 0.000002 0.000000 -0.000001 -0.007971 -1.239096
    32 1.209185 0.000002 0.000000 0.000000 -0.004460 -0.914505
    33 3.859840 -0.148937 -1.331282 -0.130416 -0.094966 -0.552749
    34 1.719421 0.000002 0.000000 0.000000 -0.006613 -0.362970
    35 1.099669 0.000002 -0.000001 0.000000 -0.004211 -0.767879
    36 0.806023 -0.359837 -1.318334 1.402404 0.526435 -0.917775
    37 1.789782 0.000000 -0.000004 -0.170078 0.039352 0.399730
    38 1.206999 0.000002 0.000000 0.000000 0.000000 1.061034
    39 -4.572889 -21.035734 -2.736608 1.571881 0.019299 0.020766
    40 0.025545 -1.273521 1.753304 0.000000 0.000000 0.000000
    41 0.001032 1.440453 -1.526783 0.000000 0.000000 0.000000
    42 0.004413 0.696487 -1.430595 0.000000 0.000000 0.000000
    43 0.580660 0.349014 -1.430595 0.000000 0.000000 0.000000
    44 0.583444 -0.305904 -1.430599 0.000000 0.000000 0.000000
    45 0.005318 -0.648720 -1.430599 0.000000 0.000000 0.000000
    46 -0.574618 -0.303123 -1.430601 0.000000 0.000000 0.000000
    47 -0.573714 0.348118 -1.430595 0.000000 0.000000 0.000000
  time 14
    0 -0.999512 8.335938 -6.640625 -1.570760 -1.391893 -1.570827
    1 2.033349 1.000767 1.937660 1.596637 -1.286515 2.942961
    2 6.321118 -0.964873 1.468795 -0.302771 -1.130991 -1.863020
    3 11.692554 0.000001 0.000000 0.000000 0.000000 -0.834509
    4 11.481670 0.000001 -0.000031 -0.088373 -0.343510 0.543263
    5 3.859711 -0.142405 -1.191975 -0.491312 0.054898 -1.089461
    6 1.312555 -0.000002 0.000000 0.000000 0.000000 -0.435484
    7 0.729363 -0.000002 -0.000002 0.000000 0.000000 -0.240207
    8 3.942337 0.046767 -0.431443 -0.150125 0.076994 -0.776666
    9 1.539097 0.000000 0.000000 0.000000 0.000000 -0.409593
    10 1.196325 -0.000002 -0.000001 0.000000 0.000000 -0.581464
    11 3.883698 -0.046765 0.431443 0.085347 0.023775 -0.564480
    12 1.719570 -0.000004 -0.000001 0.000000 0.000000 -0.762886
    13 1.209169 -0.000004 0.000000 0.000000 0.000000 -0.256535
    14 3.859863 -0.137946 1.332466 0.483960 -0.048432 -0.425648
    15 1.719431 0.000002 0.000000 0.000000 0.000000 -0.496225
    16 1.099667 0.000000 -0.000001 0.000000 0.000000 -0.354423
    17 0.806053 -0.348926 1.321258 -1.287532 -0.366649 -0.722385
    18 1.789778 -0.000002 0.000002 0.000000 0.000000 0.212596
    19 1.207005 0.000000 0.000002 0.000000 0.000000 0.186299
    20 2.033356 1.000772 -1.937610 -2.129147 1.252455 2.502299
    21 6.028145 0.000000 0.000000 1.658342 1.200051 -1.168588
    22 11.692554 0.000001 0.000002 0.000000 0.000000 -0.986009
    23 11.481699 0.000001 0.000001 -1.477871 0.315854 0.614265
    24 3.859680 -0.132567 1.193109 0.076307 0.048692 -1.410406
    25 1.312555 -0.000002 0.000002 0.000000 0.000000 -0.439672
    26 0.729365 0.000000 -0.000001 0.000000 0.000000 -1.116930
    27 3.942307 0.050327 0.431044 0.032619 0.047813 -1.244423
    28 1.539099 -0.000002 0.000000 0.000000 0.000000 -0.858632
    29 1.196321 0.000010 0.000000 0.000000 0.000000 -1.041589
    30 3.883659 -0.050321 -0.431042 0.013675 -0.048012 -1.095524
    31 1.719578 0.000002 0.000000 -0.000001 -0.007971 -1.239096
    32 1.209185 0.000002 0.000000 0.000000 -0.004460 -0.914505
    33 3.859840 -0.148937 -1.331282 -0.130416 -0.094966 -0.552749
    34 1.719421 0.000002 0.000000 0.000000 -0.006613 -0.362970
    35 1.099669 0.000002 -0.000001 0.000000 -0.004211 -0.767879
    36 0.806023 -0.359837 -1.318334 1.402404 0.526435 -0.917775
    37 1.789782 0.000000 -0.000004 -0.170078 0.039352 0.399730
    38 1.206999 0.000002 0.000000 0.000000 0.000000 1.061034
    39 -4.639297 -20.965419 -2.584259 1.564302 0.018685 0.008468
    40 0.025545 -1.273521 1.753304 0.000000 0.000000 0.000000
    41 0.001032 1.440453 -1.526783 0.000000 0.000000 0.000000
    42 0.004413 0.696487 -1.430595 0.000000 0.000000 0.000000
    43 0.580660 0.349014 -1.430595 0.000000 0.000000 0.000000
    44 0.583444 -0.305904 -1.430599 0.000000 0.000000 0.000000
    45 0.005318 -0.648720 -1.430599 0.000000 0.000000 0.000000
    46 -0.574618 -0.303123 -1.430601 0.000000 0.000000 0.000000
    47 -0.573714 0.348118 -1.430595 0.000000 0.000000 0.000000
  time 15
    0 -0.999512 8.335938 -6.640625 -1.570760 -1.391893 -1.570827
    1 2.033349 1.000767 1.937660 1.596637 -1.286515 2.942961
    2 6.321118 -0.964873 1.468795 -0.304508 -1.132178 -1.861629
    3 11.692554 0.000001 0.000000 0.000000 0.000000 -0.837453
    4 11.481670 0.000001 -0.000031 -0.086142 -0.339479 0.540902
    5 3.859711 -0.142405 -1.191975 -0.491312 0.054898 -1.089461
    6 1.312555 -0.000002 0.000000 0.000000 0.000000 -0.435484
    7 0.729363 -0.000002 -0.000002 0.000000 0.000000 -0.240207
    8 3.942337 0.046767 -0.431443 -0.150125 0.076994 -0.776666
    9 1.539097 0.000000 0.000000 0.000000 0.000000 -0.409593
    10 1.196325 -0.000002 -0.000001 0.000000 0.000000 -0.581464
    11 3.883698 -0.046765 0.431443 0.085347 0.023775 -0.564480
    12 1.719570 -0.000004 -0.000001 0.000000 0.000000 -0.762886
    13 1.209169 -0.000004 0.000000 0.000000 0.000000 -0.256535
    14 3.859863 -0.137946 1.332466 0.483960 -0.048432 -0.425648
    15 1.719431 0.000002 0.000000 0.000000 0.000000 -0.496225
    16 1.099667 0.000000 -0.000001 0.000000 0.000000 -0.354423
    17 0.806053 -0.348926 1.321258 -1.287532 -0.366649 -0.722385
    18 1.789778 -0.000002 0.000002 0.000000 0.000000 0.212596
    19 1.207005 0.000000 0.000002 0.000000 0.000000 0.186299
    20 2.033356 1.000772 -1.937610 -2.129147 1.252455 2.502299
    21 6.028145 0.000000 0.000000 1.657041 1.200209 -1.169677
    22 11.692554 0.000001 0.000002 0.000000 0.000000 -0.989897
    23 11.481699 0.000001 0.000001 -1.477155 0.321230 0.615829
    24 3.859680 -0.132567 1.193109 0.076307 0.048692 -1.410406
    25 1.312555 -0.000002 0.000002 0.000000 0.000000 -0.439672
    26 0.729365 0.000000 -0.000001 0.000000 0.000000 -1.116930
    27 3.942307 0.050327 0.431044 0.032619 0.047813 -1.244423
    28 1.539099 -0.000002 0.000000 0.000000 0.000000 -0.858632
    29 1.196321 0.000010 0.000000 0.000000 0.000000 -1.041589
    30 3.883659 -0.050321 -0.431042 0.013675 -0.048012 -1.095524
    31 1.719578 0.000002 0.000000 -0.000001 -0.007971 -1.239096
    32 1.209185 0.000002 0.000000 0.000000 -0.004460 -0.914505
    33 3.859840 -0.148937 -1.331282 -0.130416 -0.094966 -0.552749
    34 1.719421 0.000002 0.000000 0.000000 -0.006613 -0.362970
    35 1.099669 0.000002 -0.000001 0.000000 -0.004211 -0.767895
    36 0.806023 -0.359837 -1.318334 1.402404 0.526435 -0.917775
    37 1.789782 0.000000 -0.000004 -0.170078 0.039352 0.399730
    38 1.206999 0.000002 0.000000 0.000000 0.000000 1.061034
    39 -4.666642 -20.938075 -2.525664 1.561871 0.018340 0.003507
    40 0.025545 -1.273521 1.753304 0.000000 0.000000 0.000000
    41 0.001032 1.440453 -1.526783 0.000000 0.000000 0.000000
    42 0.004413 0.696487 -1.430595 0.000000 0.000000 0.000000
    43 0.580660 0.349014 -1.430595 0.000000 0.000000 0.000000
    44 0.583444 -0.305904 -1.430599 0.000000 0.000000 0.000000
    45 0.005318 -0.648720 -1.430599 0.000000 0.000000 0.000000
    46 -0.574618 -0.303123 -1.430601 0.000000 0.000000 0.000000
    47 -0.573714 0.348118 -1.430595 0.000000 0.000000 0.000000
end
