version 1
nodes
  0 "ValveBiped.Bip01_Spine4" -1
  1 "ValveBiped.Bip01_L_Clavicle" 0
  2 "ValveBiped.Bip01_L_UpperArm" 1
  3 "ValveBiped.Bip01_L_Forearm" 2
  4 "ValveBiped.Bip01_L_Hand" 3
  5 "ValveBiped.Bip01_L_Finger4" 4
  6 "ValveBiped.Bip01_L_Finger41" 5
  7 "ValveBiped.Bip01_L_Finger42" 6
  8 "ValveBiped.Bip01_L_Finger3" 4
  9 "ValveBiped.Bip01_L_Finger31" 8
  10 "ValveBiped.Bip01_L_Finger32" 9
  11 "ValveBiped.Bip01_L_Finger2" 4
  12 "ValveBiped.Bip01_L_Finger21" 11
  13 "ValveBiped.Bip01_L_Finger22" 12
  14 "ValveBiped.Bip01_L_Finger1" 4
  15 "ValveBiped.Bip01_L_Finger11" 14
  16 "ValveBiped.Bip01_L_Finger12" 15
  17 "ValveBiped.Bip01_L_Finger0" 4
  18 "ValveBiped.Bip01_L_Finger01" 17
  19 "ValveBiped.Bip01_L_Finger02" 18
  20 "ValveBiped.Bip01_R_Clavicle" 0
  21 "ValveBiped.Bip01_R_UpperArm" 20
  22 "ValveBiped.Bip01_R_Forearm" 21
  23 "ValveBiped.Bip01_R_Hand" 22
  24 "ValveBiped.Bip01_R_Finger4" 23
  25 "ValveBiped.Bip01_R_Finger41" 24
  26 "ValveBiped.Bip01_R_Finger42" 25
  27 "ValveBiped.Bip01_R_Finger3" 23
  28 "ValveBiped.Bip01_R_Finger31" 27
  29 "ValveBiped.Bip01_R_Finger32" 28
  30 "ValveBiped.Bip01_R_Finger2" 23
  31 "ValveBiped.Bip01_R_Finger21" 30
  32 "ValveBiped.Bip01_R_Finger22" 31
  33 "ValveBiped.Bip01_R_Finger1" 23
  34 "ValveBiped.Bip01_R_Finger11" 33
  35 "ValveBiped.Bip01_R_Finger12" 34
  36 "ValveBiped.Bip01_R_Finger0" 23
  37 "ValveBiped.Bip01_R_Finger01" 36
  38 "ValveBiped.Bip01_R_Finger02" 37
  39 "Python" -1
  40 "Cylinder_release" 39
  41 "Cylinder" 40
  42 "Bullet1" 41
  43 "Bullet2" 41
  44 "Bullet3" 41
  45 "Bullet4" 41
  46 "Bullet5" 41
  47 "Bullet6" 41
end
skeleton
  time 0
    0 0.000000 -0.000006 0.000000 -1.570798 -1.391899 -3.141590
    1 2.033349 1.000767 1.937660 1.596637 -1.286515 2.942961
    2 -5.375000 -10.390625 -7.968750 -2.987816 0.057524 -1.316376
    3 11.692554 0.000001 0.000000 0.000000 0.000000 -0.749289
    4 11.481670 0.000001 -0.000031 1.573165 -0.028073 0.044377
    5 3.859711 -0.142405 -1.191975 -0.455313 0.199067 -0.807798
    6 1.312555 -0.000002 0.000000 0.000000 0.000000 -0.435484
    7 0.729363 -0.000002 -0.000002 0.000000 0.000000 -0.240207
    8 3.942337 0.046767 -0.431443 -0.140122 0.094050 -0.659668
    9 1.539097 0.000000 0.000000 0.000000 0.000000 -0.350688
    10 1.196325 -0.000002 -0.000001 0.000000 0.000000 -0.581464
    11 3.883698 -0.046765 0.431443 0.085347 0.023775 -0.564480
    12 1.719570 -0.000004 -0.000001 0.000000 0.000000 -0.409455
    13 1.209169 -0.000004 0.000000 0.000000 0.000000 -0.256535
    14 3.859863 -0.137946 1.332466 0.346540 -0.052913 -0.488994
    15 1.719431 0.000002 0.000000 0.000000 0.000000 -0.417685
    16 1.099667 0.000000 -0.000001 0.000000 0.000000 -0.295519
    17 0.806053 -0.348926 1.321258 -1.164361 -0.633075 -0.925395
    18 1.789778 -0.000002 0.000002 0.000000 0.000000 0.212545
    19 1.207005 0.000000 0.000002 0.000000 0.000000 0.284516
    20 2.033356 1.000772 -1.937610 -1.668474 1.286518 2.942953
    21 6.028145 0.000000 0.000000 1.639479 -0.008065 -0.586846
    22 11.692554 0.000001 0.000002 0.000000 0.000000 -0.060372
    23 11.481699 0.000001 0.000001 -1.564937 0.106606 0.044193
    24 3.859680 -0.132567 1.193109 0.466236 -0.158066 -0.878825
    25 1.312555 -0.000002 0.000002 0.000000 0.000000 -0.439672
    26 0.729365 0.000000 -0.000001 0.000000 0.000000 -0.244271
    27 3.942307 0.050327 0.431044 0.150078 -0.079191 -0.810205
    28 1.539099 -0.000002 0.000000 0.000000 0.000000 -0.247771
    29 1.196321 0.000010 0.000000 0.000000 0.000000 -0.430761
    30 3.883659 -0.050321 -0.431042 -0.085905 -0.026404 -0.587695
    31 1.719578 0.000002 0.000000 0.000000 -0.007974 -0.366437
    32 1.209185 0.000002 0.000000 0.000000 -0.004461 -0.216376
    33 3.859840 -0.148937 -1.331282 -0.354419 0.038567 -0.532001
    34 1.719421 0.000002 0.000000 0.000000 -0.006613 -0.362970
    35 1.099669 0.000002 -0.000001 0.000000 -0.004211 -0.244312
    36 0.806023 -0.359837 -1.318334 1.221410 0.673635 -0.793558
    37 1.789782 0.000000 -0.000004 0.000000 0.000000 0.228555
    38 1.206999 0.000002 0.000000 0.000000 0.000000 0.362905
    39 -6.644531 -21.328125 -2.703125 1.561866 0.018346 0.003613
    40 0.025545 -1.273521 1.753304 0.000000 0.000000 0.000000
    41 0.001032 1.440453 -1.526783 0.000000 0.000000 0.000000
    42 0.004413 0.696487 -1.430595 0.000000 0.000000 0.000000
    43 0.580660 0.349014 -1.430595 0.000000 0.000000 0.000000
    44 0.583444 -0.305904 -1.430599 0.000000 0.000000 0.000000
    45 0.005318 -0.648720 -1.430599 0.000000 0.000000 0.000000
    46 -0.574618 -0.303123 -1.430601 0.000000 0.000000 0.000000
    47 -0.573714 0.348118 -1.430595 0.000000 0.000000 0.000000
end
