version 1
nodes
  0 "crossbow_model.weapon_base" -1
  1 "crossbow_model.bowr1" 0
  2 "crossbow_model.bowr2" 1
  3 "crossbow_model.bowr3" 2
  4 "crossbow_model.bowr4" 3
  5 "crossbow_model.bowr5" 4
  6 "crossbow_model.bowr6" 5
  7 "crossbow_model.bowr_wheel" 6
  8 "crossbow_model.bowl1" 0
  9 "crossbow_model.bowl2" 8
  10 "crossbow_model.bowl3" 9
  11 "crossbow_model.bowl4" 10
  12 "crossbow_model.bowl5" 11
  13 "crossbow_model.bowl6" 12
  14 "crossbow_model.bowl_wheel" 13
  15 "crossbow_model.bolt" 0
  16 "crossbow_model.pull" 0
  17 "crossbow_model.wire" 0
  18 "crossbow_model.Spark2" 0
  19 "l_wrist" -1
  20 "l_thumb_low" 19
  21 "l_thumb_mid" 20
  22 "l_thumb_tip" 21
  23 "l_index_low" 19
  24 "l_index_mid" 23
  25 "l_index_tip" 24
  26 "l_middle_low" 19
  27 "l_middle_mid" 26
  28 "l_middle_tip" 27
  29 "l_ring_low" 19
  30 "l_ring_mid" 29
  31 "l_ring_tip" 30
  32 "l_pinky_low" 19
  33 "l_pinky_mid" 32
  34 "l_pinky_tip" 33
  35 "l_upperarm" -1
  36 "l_forearm" 35
  37 "r_wrist" -1
  38 "r_thumb_low" 37
  39 "r_thumb_mid" 38
  40 "r_thumb_tip" 39
  41 "r_index_low" 37
  42 "r_index_mid" 41
  43 "r_index_tip" 42
  44 "r_middle_low" 37
  45 "r_middle_mid" 44
  46 "r_middle_tip" 45
  47 "r_ring_low" 37
  48 "r_ring_mid" 47
  49 "r_ring_tip" 48
  50 "r_pinky_low" 37
  51 "r_pinky_mid" 50
  52 "r_pinky_tip" 51
  53 "r_upperarm" -1
  54 "r_forearm" 53
  55 "ValveBiped.Bip01_L_UpperArm" 35
  56 "ValveBiped.Bip01_L_Forearm" 36
  57 "ValveBiped.Bip01_L_Hand" 19
  58 "ValveBiped.Bip01_L_Finger0" 20
  59 "ValveBiped.Bip01_L_Finger01" 21
  60 "ValveBiped.Bip01_L_Finger02" 22
  61 "ValveBiped.Bip01_L_Finger1" 23
  62 "ValveBiped.Bip01_L_Finger11" 24
  63 "ValveBiped.Bip01_L_Finger12" 25
  64 "ValveBiped.Bip01_L_Finger2" 26
  65 "ValveBiped.Bip01_L_Finger21" 27
  66 "ValveBiped.Bip01_L_Finger22" 28
  67 "ValveBiped.Bip01_L_Finger3" 29
  68 "ValveBiped.Bip01_L_Finger31" 30
  69 "ValveBiped.Bip01_L_Finger32" 31
  70 "ValveBiped.Bip01_L_Finger4" 32
  71 "ValveBiped.Bip01_L_Finger41" 33
  72 "ValveBiped.Bip01_L_Finger42" 34
  73 "ValveBiped.Bip01_R_UpperArm" 53
  74 "ValveBiped.Bip01_R_Forearm" 54
  75 "ValveBiped.Bip01_R_Hand" 37
  76 "ValveBiped.Bip01_R_Finger0" 38
  77 "ValveBiped.Bip01_R_Finger01" 39
  78 "ValveBiped.Bip01_R_Finger02" 40
  79 "ValveBiped.Bip01_R_Finger1" 41
  80 "ValveBiped.Bip01_R_Finger11" 42
  81 "ValveBiped.Bip01_R_Finger12" 43
  82 "ValveBiped.Bip01_R_Finger2" 44
  83 "ValveBiped.Bip01_R_Finger21" 45
  84 "ValveBiped.Bip01_R_Finger22" 46
  85 "ValveBiped.Bip01_R_Finger3" 47
  86 "ValveBiped.Bip01_R_Finger31" 48
  87 "ValveBiped.Bip01_R_Finger32" 49
  88 "ValveBiped.Bip01_R_Finger4" 50
  89 "ValveBiped.Bip01_R_Finger41" 51
  90 "ValveBiped.Bip01_R_Finger42" 52
end
skeleton
  time 0
    0 -0.869141 -18.093750 -9.804688 2.313799 -0.716641 -4.549331
    1 1.602392 15.810356 -4.239069 -1.570791 1.453891 -1.570792
    2 2.106979 0.000008 0.000000 0.000000 0.000000 -0.289078
    3 2.198853 0.000000 0.000001 0.005241 0.016373 -0.201464
    4 2.200351 -0.000008 0.000008 0.000465 0.001424 -0.122120
    5 2.258553 -0.000013 -0.000005 -0.007121 -0.018610 -0.113143
    6 2.304474 -0.000002 0.000001 -0.000063 0.000836 -0.151620
    7 2.754811 0.166965 -0.731880 2.561896 -1.565270 -1.567591
    8 1.602386 15.817284 3.928030 -1.570794 -1.440985 -1.570804
    9 2.106978 -0.000011 0.000000 0.000003 -0.000001 0.252912
    10 2.165398 0.000002 -0.000002 -0.042679 0.017068 0.175168
    11 2.110378 0.000002 -0.000002 0.001858 -0.005415 0.168740
    12 2.226635 -0.000013 0.000001 0.029119 -0.023216 0.128196
    13 2.304460 0.000006 -0.000004 -0.000046 -0.000684 0.123999
    14 2.813987 0.009438 -0.732745 -2.553997 -1.565304 -1.567112
    15 2.439703 10.751080 -0.106320 0.000001 0.000000 -1.570796
    16 2.040268 -2.875322 -0.052909 -0.000003 0.000000 1.570796
    17 -0.518020 2.382971 0.515877 -0.055396 -0.341920 -1.052481
    18 2.266786 16.501297 -0.311092 0.000001 0.000000 -1.570796
    19 3.160156 -20.421875 -11.984375 1.398883 -1.115794 -1.486893
    20 2.473575 0.628721 -1.303334 2.323667 0.383178 0.380823
    21 1.832617 0.000000 -0.000004 -3.023870 -0.006009 -0.161369
    22 1.003336 0.000000 0.000003 2.903518 -0.018428 0.072555
    23 4.823799 -0.430293 -1.419616 0.116193 -0.020078 -0.166575
    24 2.187960 0.000000 -0.000011 0.050253 0.038370 1.115316
    25 1.100958 0.000008 0.000010 0.032222 -0.080343 0.490955
    26 4.987793 -0.588135 -0.482800 0.240576 -0.052109 0.178176
    27 1.890100 -0.000006 0.000004 -0.071899 0.004011 1.259310
    28 1.310925 -0.000002 0.000001 0.022851 0.076662 0.411713
    29 5.117876 -0.665211 0.445601 0.089344 -0.184785 0.608027
    30 1.655293 0.000000 0.000001 -0.039562 0.134203 1.044566
    31 0.869586 0.000004 0.000006 0.057666 -0.031828 0.217997
    32 5.150560 -0.592267 1.346776 -0.375042 -0.027942 1.219035
    33 1.157244 0.000004 0.000011 0.034830 0.039189 0.490097
    34 1.019835 0.000004 0.000011 -1.467664 -0.051051 0.396031
    35 4.679688 -2.404297 -9.656250 -2.296145 0.866542 -1.953887
    36 12.695432 -0.000005 0.000001 -0.212994 0.297029 -1.548734
    37 -10.117188 -18.125000 -17.250000 2.377010 -0.530113 -0.394493
    38 2.474129 -0.485417 -1.382847 1.349114 0.371396 -0.523342
    39 1.832172 -0.000001 0.000001 -2.638245 0.021714 0.611148
    40 1.042032 0.000000 0.000000 -2.898935 -0.187378 -0.094133
    41 4.823236 0.677341 -1.337761 0.194928 0.165945 -0.119482
    42 2.152369 -0.000003 0.000000 0.054298 -0.057794 -0.575185
    43 1.056617 0.000002 0.000000 0.224003 -0.058058 -0.539134
    44 4.985044 0.893762 -0.374954 0.052714 0.026422 -0.473278
    45 1.830180 0.000010 -0.000001 0.389985 -0.003162 -1.463776
    46 1.561353 0.000001 0.000000 0.100752 -0.050203 -1.133848
    47 5.116426 0.722720 0.545802 0.253303 0.009774 -0.925453
    48 1.752730 -0.000005 0.000000 -0.201802 0.024646 -0.948344
    49 0.869359 -0.000001 0.000000 0.036248 0.150759 -1.080583
    50 5.118731 0.342195 1.413550 -0.041671 0.154675 -1.169245
    51 1.176319 0.000005 0.000001 -0.567548 0.062509 -0.265395
    52 0.970203 0.000000 0.000002 2.156760 1.015941 -1.458550
    53 -7.507813 3.996094 -14.851563 -2.533445 0.521821 -1.992467
    54 12.706350 -0.000002 -0.000004 -0.053213 0.249916 -0.980332
    55 0.000000 0.000000 0.000000 0.000000 0.000000 0.000000
    56 1.200003 -0.000001 0.000000 0.000000 0.000000 0.000000
    57 -0.000002 -0.300000 -0.000002 -3.141593 0.000000 -0.174533
    58 0.000000 0.000000 0.000000 0.000000 0.000000 0.000000
    59 0.000000 0.000000 0.000000 -3.141593 0.000000 0.000000
    60 0.000000 0.000000 -0.000001 0.000000 0.000000 0.349066
    61 -0.000002 0.000000 -0.000001 -3.141593 0.000000 0.000000
    62 0.000000 -0.000002 -0.000003 -3.141593 0.000000 0.000000
    63 0.000000 0.000002 0.000001 -3.141593 0.000000 0.000000
    64 -0.000002 -0.000002 0.000000 -3.141593 0.000000 0.000000
    65 0.000000 0.000002 -0.000001 -3.141593 0.000000 0.000000
    66 0.000002 0.000002 0.000001 -3.141593 0.000000 0.000000
    67 -0.000003 0.000000 0.000006 -3.141593 0.000000 0.000000
    68 0.000000 0.000000 0.000000 -3.141593 0.000000 0.000000
    69 0.000000 0.000001 0.000000 -3.141592 0.000000 0.000000
    70 0.000001 0.000000 0.000008 -3.141593 0.000000 0.000000
    71 0.000000 0.000000 0.000004 -3.141593 0.000000 0.000000
    72 0.000000 -0.000001 0.000000 -1.570796 0.000000 0.000000
    73 0.000000 0.000000 0.000000 0.000000 0.000000 0.000000
    74 1.200001 -0.000001 0.000000 0.000000 0.000000 0.000000
    75 0.000000 0.300000 0.000000 0.000000 0.000000 0.174533
    76 0.000000 0.000000 0.000000 0.000000 0.000000 0.000000
    77 0.000000 0.000000 0.000000 -3.141592 0.000000 0.000000
    78 0.000000 0.000000 0.000000 0.000000 0.000000 0.349066
    79 0.000000 0.000000 0.000000 0.000000 0.000000 0.000000
    80 0.000000 -0.000001 0.000000 0.000000 0.000000 0.000000
    81 0.000000 0.000000 0.000000 0.000000 0.000000 0.000000
    82 0.000000 0.000000 0.000000 0.000000 0.000000 0.000000
    83 -0.000002 0.000000 0.000000 0.000000 0.000000 0.000000
    84 0.000001 0.000000 0.000000 0.000000 0.000000 -0.000001
    85 0.000000 -0.000002 0.000000 0.000000 0.000000 0.000000
    86 -0.000001 0.000000 0.000000 0.000000 0.000000 0.000000
    87 -0.000001 0.000000 0.000000 0.000000 0.000000 0.000000
    88 0.000000 0.000003 0.000000 0.000000 0.000000 0.000000
    89 0.000000 0.000000 0.000000 0.000000 0.000000 0.000000
    90 -0.000001 0.000000 0.000000 -1.570797 0.000000 0.000000
  time 1
    0 -0.869141 -18.093750 -9.804688 2.313799 -0.716641 -4.549331
    1 1.602392 15.810356 -4.239069 -1.570791 1.453891 -1.570792
    2 2.106979 0.000008 0.000000 0.000000 0.000000 -0.289078
    3 2.198853 0.000000 0.000001 0.005241 0.016373 -0.201464
    4 2.200351 -0.000008 0.000008 0.000465 0.001424 -0.122120
    5 2.258553 -0.000013 -0.000005 -0.007121 -0.018610 -0.113143
    6 2.304474 -0.000002 0.000001 -0.000063 0.000836 -0.151620
    7 2.754811 0.166965 -0.731880 2.561896 -1.565270 -1.567591
    8 1.602386 15.817284 3.928030 -1.570794 -1.440985 -1.570804
    9 2.106978 -0.000011 0.000000 0.000003 -0.000001 0.252912
    10 2.165398 0.000002 -0.000002 -0.042679 0.017068 0.175168
    11 2.110378 0.000002 -0.000002 0.001858 -0.005415 0.168740
    12 2.226635 -0.000013 0.000001 0.029119 -0.023216 0.128196
    13 2.304460 0.000006 -0.000004 -0.000046 -0.000684 0.123999
    14 2.813987 0.009438 -0.732745 -2.553997 -1.565304 -1.567112
    15 2.439703 10.751080 -0.106320 0.000001 0.000000 -1.570796
    16 2.040268 -2.875322 -0.052909 -0.000003 0.000000 1.570796
    17 -0.518020 2.382971 0.515877 -0.055396 -0.341920 -1.052481
    18 2.266786 16.501297 -0.311092 0.000001 0.000000 -1.570796
    19 3.160156 -20.421875 -11.984375 1.398883 -1.115794 -1.486893
    20 2.473575 0.628721 -1.303334 2.323667 0.383178 0.380823
    21 1.832617 0.000000 -0.000004 -3.023870 -0.006009 -0.161369
    22 1.003336 0.000000 0.000003 2.903518 -0.018428 0.072555
    23 4.823799 -0.430293 -1.419616 0.116193 -0.020078 -0.166575
    24 2.187960 0.000000 -0.000011 0.050253 0.038370 1.115316
    25 1.100958 0.000008 0.000010 0.032222 -0.080343 0.490955
    26 4.987793 -0.588135 -0.482800 0.240576 -0.052109 0.178176
    27 1.890100 -0.000006 0.000004 -0.071899 0.004011 1.259310
    28 1.310925 -0.000002 0.000001 0.022851 0.076662 0.411713
    29 5.117876 -0.665211 0.445601 0.089344 -0.184785 0.608027
    30 1.655293 0.000000 0.000001 -0.039562 0.134203 1.044566
    31 0.869586 0.000004 0.000006 0.057666 -0.031828 0.217997
    32 5.150560 -0.592267 1.346776 -0.375042 -0.027942 1.219035
    33 1.157244 0.000004 0.000011 0.034830 0.039189 0.490097
    34 1.019835 0.000004 0.000011 -1.467664 -0.051051 0.396031
    35 4.679688 -2.404297 -9.656250 -2.296145 0.866542 -1.953887
    36 12.695432 -0.000005 0.000001 -0.212994 0.297029 -1.548734
    37 -10.117188 -18.125000 -17.250000 2.377010 -0.530113 -0.394493
    38 2.474129 -0.485417 -1.382847 1.349114 0.371396 -0.523342
    39 1.832172 -0.000001 0.000001 -2.638245 0.021714 0.611148
    40 1.042032 0.000000 0.000000 -2.898935 -0.187378 -0.094133
    41 4.823236 0.677341 -1.337761 0.194928 0.165945 -0.119482
    42 2.152369 -0.000003 0.000000 0.054298 -0.057794 -0.575185
    43 1.056617 0.000002 0.000000 0.224003 -0.058058 -0.539134
    44 4.985044 0.893762 -0.374954 0.052714 0.026422 -0.473278
    45 1.830180 0.000010 -0.000001 0.389985 -0.003162 -1.463776
    46 1.561353 0.000001 0.000000 0.100752 -0.050203 -1.133848
    47 5.116426 0.722720 0.545802 0.253303 0.009774 -0.925453
    48 1.752730 -0.000005 0.000000 -0.201802 0.024646 -0.948344
    49 0.869359 -0.000001 0.000000 0.036248 0.150759 -1.080583
    50 5.118731 0.342195 1.413550 -0.041671 0.154675 -1.169245
    51 1.176319 0.000005 0.000001 -0.567548 0.062509 -0.265395
    52 0.970203 0.000000 0.000002 2.156760 1.015941 -1.458550
    53 -7.507813 3.996094 -14.851563 -2.533445 0.521821 -1.992467
    54 12.706350 -0.000002 -0.000004 -0.053213 0.249916 -0.980332
    55 0.000000 0.000000 0.000000 0.000000 0.000000 0.000000
    56 1.200003 -0.000001 0.000000 0.000000 0.000000 0.000000
    57 -0.000002 -0.300000 -0.000002 -3.141593 0.000000 -0.174533
    58 0.000000 0.000000 0.000000 0.000000 0.000000 0.000000
    59 0.000000 0.000000 0.000000 -3.141593 0.000000 0.000000
    60 0.000000 0.000000 -0.000001 0.000000 0.000000 0.349066
    61 -0.000002 0.000000 -0.000001 -3.141593 0.000000 0.000000
    62 0.000000 -0.000002 -0.000003 -3.141593 0.000000 0.000000
    63 0.000000 0.000002 0.000001 -3.141593 0.000000 0.000000
    64 -0.000002 -0.000002 0.000000 -3.141593 0.000000 0.000000
    65 0.000000 0.000002 -0.000001 -3.141593 0.000000 0.000000
    66 0.000002 0.000002 0.000001 -3.141593 0.000000 0.000000
    67 -0.000003 0.000000 0.000006 -3.141593 0.000000 0.000000
    68 0.000000 0.000000 0.000000 -3.141593 0.000000 0.000000
    69 0.000000 0.000001 0.000000 -3.141592 0.000000 0.000000
    70 0.000001 0.000000 0.000008 -3.141593 0.000000 0.000000
    71 0.000000 0.000000 0.000004 -3.141593 0.000000 0.000000
    72 0.000000 -0.000001 0.000000 -1.570796 0.000000 0.000000
    73 0.000000 0.000000 0.000000 0.000000 0.000000 0.000000
    74 1.200001 -0.000001 0.000000 0.000000 0.000000 0.000000
    75 0.000000 0.300000 0.000000 0.000000 0.000000 0.174533
    76 0.000000 0.000000 0.000000 0.000000 0.000000 0.000000
    77 0.000000 0.000000 0.000000 -3.141592 0.000000 0.000000
    78 0.000000 0.000000 0.000000 0.000000 0.000000 0.349066
    79 0.000000 0.000000 0.000000 0.000000 0.000000 0.000000
    80 0.000000 -0.000001 0.000000 0.000000 0.000000 0.000000
    81 0.000000 0.000000 0.000000 0.000000 0.000000 0.000000
    82 0.000000 0.000000 0.000000 0.000000 0.000000 0.000000
    83 -0.000002 0.000000 0.000000 0.000000 0.000000 0.000000
    84 0.000001 0.000000 0.000000 0.000000 0.000000 -0.000001
    85 0.000000 -0.000002 0.000000 0.000000 0.000000 0.000000
    86 -0.000001 0.000000 0.000000 0.000000 0.000000 0.000000
    87 -0.000001 0.000000 0.000000 0.000000 0.000000 0.000000
    88 0.000000 0.000003 0.000000 0.000000 0.000000 0.000000
    89 0.000000 0.000000 0.000000 0.000000 0.000000 0.000000
    90 -0.000001 0.000000 0.000000 -1.570797 0.000000 0.000000
end
