version 1
nodes
  0 "tag_view" -1
  1 "tag_ads" 0
  2 "tag_torso" 1
  3 "tag_weapon_right" 2
  4 "tag_weapon" 3
  5 "j_foregrip" 4
  6 "j_shell" 4
  7 "j_shelldoor" 4
  8 "tag_flash" 4
  9 "tag_sight_on" 4
  10 "j_ejectport" 4
end
skeleton
time 0
  0  0.000000 0.000000 0.000000  0.000000 -0.000000 0.000000
  1  0.000000 0.000000 0.000000  0.000000 -0.000000 0.000000
  2  0.000000 0.000000 0.000000  0.000000 -0.000000 0.000000
  3  0.000000 0.000000 0.000000  0.000000 -0.000000 0.000000
  4  0.000000 0.000000 0.000000  0.000000 -0.000000 0.000000
  5  7.954000 -0.000003 0.000001  0.000000 -0.000000 0.000000
  6  -2.283000 0.000002 0.425000  0.000000 -0.000000 0.000000
  7  -3.914001 0.000002 0.093999  0.000000 -0.000000 0.000000
  8  22.851000 -0.001011 1.857002  0.000000 -0.000000 0.000000
  9  -0.000001 0.000000 2.000000  0.000000 -0.000000 0.000000
  10  -2.282001 0.000001 1.827000  0.000000 -0.000000 0.000000
end
triangles
phy
  0  -3.317000 -0.393002 18.590694  -0.277721 0.204596 -0.938622  0.000000 0.000000 1 0 1.000000
  0  -3.317000 0.116102 18.590694  -0.752739 0.281413 0.595139  0.000000 0.000000 1 0 1.000000
  0  -1.523888 -0.138449 17.554363  0.123965 0.485639 -0.865325  0.000000 0.000000 1 0 1.000000
phy
  0  -3.317000 0.116102 18.590694  -0.752739 0.281413 0.595139  0.000000 0.000000 1 0 1.000000
  0  -1.806594 0.376890 17.767040  0.033541 0.249110 0.967894  0.000000 0.000000 1 0 1.000000
  0  -1.523888 -0.138449 17.554363  0.123965 0.485639 -0.865325  0.000000 0.000000 1 0 1.000000
phy
  0  -3.317000 0.116102 18.590694  -0.752739 0.281413 0.595139  0.000000 0.000000 1 0 1.000000
  0  -3.317000 -0.393002 18.590694  -0.277721 0.204596 -0.938622  0.000000 0.000000 1 0 1.000000
  0  -4.210645 -0.451899 23.468866  -0.989142 0.146962 -0.000027  0.000000 0.000000 1 0 1.000000
phy
  0  -4.164144 0.661819 24.288418  -0.181422 -0.077506 0.980346  0.000000 0.000000 1 0 1.000000
  0  -3.317000 0.116102 18.590694  -0.752739 0.281413 0.595139  0.000000 0.000000 1 0 1.000000
  0  -4.210645 -0.451899 23.468866  -0.989142 0.146962 -0.000027  0.000000 0.000000 1 0 1.000000
phy
  0  -3.317000 0.116102 18.590694  -0.752739 0.281413 0.595139  0.000000 0.000000 1 0 1.000000
  0  -4.164144 0.661819 24.288418  -0.181422 -0.077506 0.980346  0.000000 0.000000 1 0 1.000000
  0  -1.806594 0.376890 17.767040  0.033541 0.249110 0.967894  0.000000 0.000000 1 0 1.000000
phy
  0  10.554571 -0.986668 24.359667  0.009029 -0.252421 -0.967575  0.000000 0.000000 1 0 1.000000
  0  -1.746530 -0.519020 25.951929  -0.026883 -0.440311 -0.897443  0.000000 0.000000 1 0 1.000000
  0  -4.164144 -0.938719 24.288418  -0.087757 -0.074599 -0.993345  0.000000 0.000000 1 0 1.000000
phy
  0  10.554571 -0.986668 24.359667  0.009029 -0.252421 -0.967575  0.000000 0.000000 1 0 1.000000
  0  -4.164144 -0.938719 24.288418  -0.087757 -0.074599 -0.993345  0.000000 0.000000 1 0 1.000000
  0  9.934936 -0.994717 23.930784  0.002754 0.032749 -0.999460  0.000000 0.000000 1 0 1.000000
phy
  0  -1.746530 -0.519020 25.951929  -0.026883 -0.440311 -0.897443  0.000000 0.000000 1 0 1.000000
  0  10.554571 -0.986668 24.359667  0.009029 -0.252421 -0.967575  0.000000 0.000000 1 0 1.000000
  0  11.304536 -0.187681 26.874905  0.118392 -0.929698 -0.348776  0.000000 0.000000 1 0 1.000000
phy
  0  10.554571 -0.986668 24.359667  0.009029 -0.252421 -0.967575  0.000000 0.000000 1 0 1.000000
  0  11.656564 -0.881958 23.928673  0.093603 0.201396 -0.975027  0.000000 0.000000 1 0 1.000000
  0  11.304536 -0.187681 26.874905  0.118392 -0.929698 -0.348776  0.000000 0.000000 1 0 1.000000
phy
  0  11.656564 -0.881958 23.928673  0.093603 0.201396 -0.975027  0.000000 0.000000 1 0 1.000000
  0  10.554571 -0.986668 24.359667  0.009029 -0.252421 -0.967575  0.000000 0.000000 1 0 1.000000
  0  9.934936 -0.994717 23.930784  0.002754 0.032749 -0.999460  0.000000 0.000000 1 0 1.000000
phy
  0  13.189592 -0.443571 24.083279  0.616288 0.020406 -0.787256  0.000000 0.000000 1 0 1.000000
  0  11.636290 -0.466129 22.443888  0.225224 0.545001 -0.807618  0.000000 0.000000 1 0 1.000000
  0  11.636290 0.138283 22.408779  0.303375 0.678649 0.668879  0.000000 0.000000 1 0 1.000000
phy
  0  11.636290 0.138283 22.408779  0.303375 0.678649 0.668879  0.000000 0.000000 1 0 1.000000
  0  13.228065 0.148272 24.089539  0.557705 -0.180286 0.810224  0.000000 0.000000 1 0 1.000000
  0  13.189592 -0.443571 24.083279  0.616288 0.020406 -0.787256  0.000000 0.000000 1 0 1.000000
phy
  0  -1.806594 0.376890 17.767040  0.033541 0.249110 0.967894  0.000000 0.000000 1 0 1.000000
  0  11.636290 0.138283 22.408779  0.303375 0.678649 0.668879  0.000000 0.000000 1 0 1.000000
  0  -1.523888 -0.138449 17.554363  0.123965 0.485639 -0.865325  0.000000 0.000000 1 0 1.000000
phy
  0  11.636290 0.138283 22.408779  0.303375 0.678649 0.668879  0.000000 0.000000 1 0 1.000000
  0  11.636290 -0.466129 22.443888  0.225224 0.545001 -0.807618  0.000000 0.000000 1 0 1.000000
  0  -1.523888 -0.138449 17.554363  0.123965 0.485639 -0.865325  0.000000 0.000000 1 0 1.000000
phy
  0  11.587336 0.730888 23.826838  0.130805 0.276571 0.952049  0.000000 0.000000 1 0 1.000000
  0  13.228065 0.148272 24.089539  0.557705 -0.180286 0.810224  0.000000 0.000000 1 0 1.000000
  0  11.636290 0.138283 22.408779  0.303375 0.678649 0.668879  0.000000 0.000000 1 0 1.000000
phy
  0  -1.806594 0.376890 17.767040  0.033541 0.249110 0.967894  0.000000 0.000000 1 0 1.000000
  0  11.587336 0.730888 23.826838  0.130805 0.276571 0.952049  0.000000 0.000000 1 0 1.000000
  0  11.636290 0.138283 22.408779  0.303375 0.678649 0.668879  0.000000 0.000000 1 0 1.000000
phy
  0  -1.806594 0.376890 17.767040  0.033541 0.249110 0.967894  0.000000 0.000000 1 0 1.000000
  0  -4.164144 0.661819 24.288418  -0.181422 -0.077506 0.980346  0.000000 0.000000 1 0 1.000000
  0  0.134568 0.828527 21.629400  -0.040341 0.058162 0.997492  0.000000 0.000000 1 0 1.000000
phy
  0  0.134568 0.828527 21.629400  -0.040341 0.058162 0.997492  0.000000 0.000000 1 0 1.000000
  0  9.782407 1.296778 25.518585  0.021583 -0.115620 0.993059  0.000000 0.000000 1 0 1.000000
  0  -1.806594 0.376890 17.767040  0.033541 0.249110 0.967894  0.000000 0.000000 1 0 1.000000
phy
  0  -4.164144 0.661819 24.288418  -0.181422 -0.077506 0.980346  0.000000 0.000000 1 0 1.000000
  0  9.782407 1.296778 25.518585  0.021583 -0.115620 0.993059  0.000000 0.000000 1 0 1.000000
  0  0.134568 0.828527 21.629400  -0.040341 0.058162 0.997492  0.000000 0.000000 1 0 1.000000
phy
  0  -1.746530 -0.519020 25.951929  -0.026883 -0.440311 -0.897443  0.000000 0.000000 1 0 1.000000
  0  11.304536 -0.187681 26.874905  0.118392 -0.929698 -0.348776  0.000000 0.000000 1 0 1.000000
  0  -1.746530 0.226828 25.967222  -0.076752 -0.712753 0.697203  0.000000 0.000000 1 0 1.000000
phy
  0  -1.746530 0.226828 25.967222  -0.076752 -0.712753 0.697203  0.000000 0.000000 1 0 1.000000
  0  -2.566593 -0.138451 25.627195  -0.568668 -0.822550 -0.005309  0.000000 0.000000 1 0 1.000000
  0  -1.746530 -0.519020 25.951929  -0.026883 -0.440311 -0.897443  0.000000 0.000000 1 0 1.000000
phy
  0  -1.746530 -0.519020 25.951929  -0.026883 -0.440311 -0.897443  0.000000 0.000000 1 0 1.000000
  0  -2.566593 -0.138451 25.627195  -0.568668 -0.822550 -0.005309  0.000000 0.000000 1 0 1.000000
  0  -4.164144 -0.938719 24.288418  -0.087757 -0.074599 -0.993345  0.000000 0.000000 1 0 1.000000
phy
  0  -4.164144 0.661819 24.288418  -0.181422 -0.077506 0.980346  0.000000 0.000000 1 0 1.000000
  0  -2.566593 -0.138451 25.627195  -0.568668 -0.822550 -0.005309  0.000000 0.000000 1 0 1.000000
  0  -1.746530 0.226828 25.967222  -0.076752 -0.712753 0.697203  0.000000 0.000000 1 0 1.000000
phy
  0  -1.746530 0.226828 25.967222  -0.076752 -0.712753 0.697203  0.000000 0.000000 1 0 1.000000
  0  9.782407 1.296778 25.518585  0.021583 -0.115620 0.993059  0.000000 0.000000 1 0 1.000000
  0  -4.164144 0.661819 24.288418  -0.181422 -0.077506 0.980346  0.000000 0.000000 1 0 1.000000
phy
  0  11.304536 -0.187681 26.874905  0.118392 -0.929698 -0.348776  0.000000 0.000000 1 0 1.000000
  0  9.782407 1.296778 25.518585  0.021583 -0.115620 0.993059  0.000000 0.000000 1 0 1.000000
  0  -1.746530 0.226828 25.967222  -0.076752 -0.712753 0.697203  0.000000 0.000000 1 0 1.000000
phy
  0  -3.317000 -0.393002 18.590694  -0.277721 0.204596 -0.938622  0.000000 0.000000 1 0 1.000000
  0  -4.164144 -0.938719 24.288418  -0.087757 -0.074599 -0.993345  0.000000 0.000000 1 0 1.000000
  0  -4.210645 -0.451899 23.468866  -0.989142 0.146962 -0.000027  0.000000 0.000000 1 0 1.000000
phy
  0  -4.164144 -0.938719 24.288418  -0.087757 -0.074599 -0.993345  0.000000 0.000000 1 0 1.000000
  0  -3.317000 -0.393002 18.590694  -0.277721 0.204596 -0.938622  0.000000 0.000000 1 0 1.000000
  0  -0.756723 -0.899975 20.719242  0.008077 0.129741 -0.991515  0.000000 0.000000 1 0 1.000000
phy
  0  -0.756723 -0.899975 20.719242  0.008077 0.129741 -0.991515  0.000000 0.000000 1 0 1.000000
  0  -3.317000 -0.393002 18.590694  -0.277721 0.204596 -0.938622  0.000000 0.000000 1 0 1.000000
  0  -1.523888 -0.138449 17.554363  0.123965 0.485639 -0.865325  0.000000 0.000000 1 0 1.000000
phy
  0  11.656564 -0.881958 23.928673  0.093603 0.201396 -0.975027  0.000000 0.000000 1 0 1.000000
  0  13.189592 -0.443571 24.083279  0.616288 0.020406 -0.787256  0.000000 0.000000 1 0 1.000000
  0  11.304536 -0.187681 26.874905  0.118392 -0.929698 -0.348776  0.000000 0.000000 1 0 1.000000
phy
  0  13.189592 -0.443571 24.083279  0.616288 0.020406 -0.787256  0.000000 0.000000 1 0 1.000000
  0  11.656564 -0.881958 23.928673  0.093603 0.201396 -0.975027  0.000000 0.000000 1 0 1.000000
  0  11.636290 -0.466129 22.443888  0.225224 0.545001 -0.807618  0.000000 0.000000 1 0 1.000000
phy
  0  -0.756723 -0.899975 20.719242  0.008077 0.129741 -0.991515  0.000000 0.000000 1 0 1.000000
  0  11.656564 -0.881958 23.928673  0.093603 0.201396 -0.975027  0.000000 0.000000 1 0 1.000000
  0  9.934936 -0.994717 23.930784  0.002754 0.032749 -0.999460  0.000000 0.000000 1 0 1.000000
phy
  0  11.656564 -0.881958 23.928673  0.093603 0.201396 -0.975027  0.000000 0.000000 1 0 1.000000
  0  -0.756723 -0.899975 20.719242  0.008077 0.129741 -0.991515  0.000000 0.000000 1 0 1.000000
  0  -1.523888 -0.138449 17.554363  0.123965 0.485639 -0.865325  0.000000 0.000000 1 0 1.000000
phy
  0  11.636290 -0.466129 22.443888  0.225224 0.545001 -0.807618  0.000000 0.000000 1 0 1.000000
  0  11.656564 -0.881958 23.928673  0.093603 0.201396 -0.975027  0.000000 0.000000 1 0 1.000000
  0  -1.523888 -0.138449 17.554363  0.123965 0.485639 -0.865325  0.000000 0.000000 1 0 1.000000
phy
  0  13.189592 -0.443571 24.083279  0.616288 0.020406 -0.787256  0.000000 0.000000 1 0 1.000000
  0  13.228065 0.148272 24.089539  0.557705 -0.180286 0.810224  0.000000 0.000000 1 0 1.000000
  0  11.304536 -0.187681 26.874905  0.118392 -0.929698 -0.348776  0.000000 0.000000 1 0 1.000000
phy
  0  -1.806594 0.376890 17.767040  0.033541 0.249110 0.967894  0.000000 0.000000 1 0 1.000000
  0  9.782407 1.296778 25.518585  0.021583 -0.115620 0.993059  0.000000 0.000000 1 0 1.000000
  0  11.587336 0.730888 23.826838  0.130805 0.276571 0.952049  0.000000 0.000000 1 0 1.000000
phy
  0  11.304536 -0.187681 26.874905  0.118392 -0.929698 -0.348776  0.000000 0.000000 1 0 1.000000
  0  13.228065 0.148272 24.089539  0.557705 -0.180286 0.810224  0.000000 0.000000 1 0 1.000000
  0  9.782407 1.296778 25.518585  0.021583 -0.115620 0.993059  0.000000 0.000000 1 0 1.000000
phy
  0  -4.164144 -0.938719 24.288418  -0.087757 -0.074599 -0.993345  0.000000 0.000000 1 0 1.000000
  0  -0.756723 -0.899975 20.719242  0.008077 0.129741 -0.991515  0.000000 0.000000 1 0 1.000000
  0  9.934936 -0.994717 23.930784  0.002754 0.032749 -0.999460  0.000000 0.000000 1 0 1.000000
phy
  0  -4.164144 -0.938719 24.288418  -0.087757 -0.074599 -0.993345  0.000000 0.000000 1 0 1.000000
  0  -2.566593 -0.138451 25.627195  -0.568668 -0.822550 -0.005309  0.000000 0.000000 1 0 1.000000
  0  -4.164144 0.661819 24.288418  -0.181422 -0.077506 0.980346  0.000000 0.000000 1 0 1.000000
phy
  0  -4.164144 -0.938719 24.288418  -0.087757 -0.074599 -0.993345  0.000000 0.000000 1 0 1.000000
  0  -4.164144 0.661819 24.288418  -0.181422 -0.077506 0.980346  0.000000 0.000000 1 0 1.000000
  0  -4.210645 -0.451899 23.468866  -0.989142 0.146962 -0.000027  0.000000 0.000000 1 0 1.000000
phy
  0  9.782407 1.296778 25.518585  0.021583 -0.115620 0.993059  0.000000 0.000000 1 0 1.000000
  0  13.228065 0.148272 24.089539  0.557705 -0.180286 0.810224  0.000000 0.000000 1 0 1.000000
  0  11.587336 0.730888 23.826838  0.130805 0.276571 0.952049  0.000000 0.000000 1 0 1.000000
end
