version 1
nodes
  0 "ValveBiped" -1
  1 "ValveBiped.Bip01_R_Hand" 0
  2 "ValveBiped.bone" 1
  3 "ValveBiped.Muzzle" 2
end
skeleton
  time 0
    0 0.000000 0.000000 0.000000 1.570788 0.000007 -0.000007
    1 -1.040719 -1.864250 -1.514839 0.693781 -1.558477 0.808123
    2 2.361367 -2.987601 -2.569650 -1.562627 0.063518 -1.564194
    3 -1.904834 2.566494 13.397079 -0.036863 -0.001976 0.000045
  time 1
    0 0.000000 0.000000 0.000000 1.570788 0.000007 -0.000007
    1 -1.040719 -1.864250 -1.514839 0.693781 -1.558477 0.808123
    2 2.361367 -2.987601 -2.569650 -1.562627 0.063518 -1.564194
    3 -1.904834 2.566494 13.397079 -0.036863 -0.001976 0.000045
end
