version 1
nodes
  0 "ValveBiped.Bip01_R_Hand" -1
  1 "ValveBiped.Weapon_bone" 0
  2 "ValveBiped.w_shotgun" 1
  3 "ValveBiped.muzzle" 1
end
skeleton
  time 0
    0  0.312503 -16.719320 0.282627  -0.043130 2.924096 -1.599993
    1  5.000032 -1.499927 -5.000012  -0.000000 0.000004 0.000007
    2  4.107141 1.396096 -0.366368  -1.345231 0.037834 1.552555
    3  28.579802 0.623307 -5.976171  -1.605105 0.226160 -0.006789
end
triangles
  phy
    0  3.508886 -4.152801 -2.479289  0.211502 0.593096 0.776855  0.000000 0.000000 1 0 1.000000
    0  0.425218 -25.342129 0.689632  0.510019 0.724593 0.463514  0.000000 0.000000 1 0 1.000000
    0  0.906427 -4.482317 -5.727989  0.219360 0.820328 0.528150  0.000000 0.000000 1 0 1.000000
  phy
    0  3.508886 -4.152801 -2.479289  0.211502 0.593096 0.776855  0.000000 0.000000 1 0 1.000000
    0  6.238113 -3.603070 1.051744  0.224437 0.096922 0.969657  0.000000 0.000000 1 0 1.000000
    0  0.425218 -25.342129 0.689632  0.510019 0.724593 0.463514  0.000000 0.000000 1 0 1.000000
  phy
    0  3.508886 -4.152801 -2.479289  0.211502 0.593096 0.776855  0.000000 0.000000 1 0 1.000000
    0  0.906427 -4.482317 -5.727989  0.219360 0.820328 0.528150  0.000000 0.000000 1 0 1.000000
    0  3.975755 -1.914528 -2.517137  -0.242663 0.582033 0.776114  0.000000 0.000000 1 0 1.000000
  phy
    0  3.975755 -1.914528 -2.517137  -0.242663 0.582033 0.776114  0.000000 0.000000 1 0 1.000000
    0  6.238113 -3.603070 1.051744  0.224437 0.096922 0.969657  0.000000 0.000000 1 0 1.000000
    0  3.508886 -4.152801 -2.479289  0.211502 0.593096 0.776855  0.000000 0.000000 1 0 1.000000
  phy
    0  -5.895967 -4.699572 -4.443494  0.246129 0.095845 -0.964486  0.000000 0.000000 1 0 1.000000
    0  -4.473221 -6.895103 -4.845255  0.348253 0.744665 -0.569380  0.000000 0.000000 1 0 1.000000
    0  0.425218 -25.342129 0.689632  0.510019 0.724593 0.463514  0.000000 0.000000 1 0 1.000000
  phy
    0  -4.473221 -6.895103 -4.845255  0.348253 0.744665 -0.569380  0.000000 0.000000 1 0 1.000000
    0  -5.895967 -4.699572 -4.443494  0.246129 0.095845 -0.964486  0.000000 0.000000 1 0 1.000000
    0  -4.187362 -4.476772 -5.832355  0.243685 0.963698 -0.109107  0.000000 0.000000 1 0 1.000000
  phy
    0  0.425218 -25.342129 0.689632  0.510019 0.724593 0.463514  0.000000 0.000000 1 0 1.000000
    0  -4.473221 -6.895103 -4.845255  0.348253 0.744665 -0.569380  0.000000 0.000000 1 0 1.000000
    0  -4.187362 -4.476772 -5.832355  0.243685 0.963698 -0.109107  0.000000 0.000000 1 0 1.000000
  phy
    0  3.975755 -1.914528 -2.517137  -0.242663 0.582033 0.776114  0.000000 0.000000 1 0 1.000000
    0  0.906427 -4.482317 -5.727989  0.219360 0.820328 0.528150  0.000000 0.000000 1 0 1.000000
    0  0.726493 -1.875710 -5.747353  -0.286192 0.903681 0.318519  0.000000 0.000000 1 0 1.000000
  phy
    0  5.864534 -2.234846 1.046270  -0.406516 0.195051 0.892581  0.000000 0.000000 1 0 1.000000
    0  6.238113 -3.603070 1.051744  0.224437 0.096922 0.969657  0.000000 0.000000 1 0 1.000000
    0  3.975755 -1.914528 -2.517137  -0.242663 0.582033 0.776114  0.000000 0.000000 1 0 1.000000
  phy
    0  3.975755 -1.914528 -2.517137  -0.242663 0.582033 0.776114  0.000000 0.000000 1 0 1.000000
    0  -0.308421 8.288931 -1.599801  -0.551521 0.770073 0.320643  0.000000 0.000000 1 0 1.000000
    0  5.864534 -2.234846 1.046270  -0.406516 0.195051 0.892581  0.000000 0.000000 1 0 1.000000
  phy
    0  3.975755 -1.914528 -2.517137  -0.242663 0.582033 0.776114  0.000000 0.000000 1 0 1.000000
    0  0.726493 -1.875710 -5.747353  -0.286192 0.903681 0.318519  0.000000 0.000000 1 0 1.000000
    0  -0.308421 8.288931 -1.599801  -0.551521 0.770073 0.320643  0.000000 0.000000 1 0 1.000000
  phy
    0  0.140553 8.339673 -0.010714  -0.442301 0.209722 0.872001  0.000000 0.000000 1 0 1.000000
    0  0.217753 9.396991 3.061291  -0.511586 0.023688 0.858905  0.000000 0.000000 1 0 1.000000
    0  5.864534 -2.234846 1.046270  -0.406516 0.195051 0.892581  0.000000 0.000000 1 0 1.000000
  phy
    0  5.864534 -2.234846 1.046270  -0.406516 0.195051 0.892581  0.000000 0.000000 1 0 1.000000
    0  -0.308421 8.288931 -1.599801  -0.551521 0.770073 0.320643  0.000000 0.000000 1 0 1.000000
    0  0.140553 8.339673 -0.010714  -0.442301 0.209722 0.872001  0.000000 0.000000 1 0 1.000000
  phy
    0  0.140553 8.339673 -0.010714  -0.442301 0.209722 0.872001  0.000000 0.000000 1 0 1.000000
    0  -0.308421 8.288931 -1.599801  -0.551521 0.770073 0.320643  0.000000 0.000000 1 0 1.000000
    0  0.217753 9.396991 3.061291  -0.511586 0.023688 0.858905  0.000000 0.000000 1 0 1.000000
  phy
    0  0.082348 -25.741966 6.066576  0.445769 -0.835241 -0.321965  0.000000 0.000000 1 0 1.000000
    0  0.467299 -3.487946 8.947268  0.076508 -0.773181 -0.629554  0.000000 0.000000 1 0 1.000000
    0  -5.551301 -4.549929 0.341190  0.103425 -0.438660 -0.892682  0.000000 0.000000 1 0 1.000000
  phy
    0  -5.551301 -4.549929 0.341190  0.103425 -0.438660 -0.892682  0.000000 0.000000 1 0 1.000000
    0  0.467299 -3.487946 8.947268  0.076508 -0.773181 -0.629554  0.000000 0.000000 1 0 1.000000
    0  -5.580589 -3.716813 0.387358  0.019216 -0.462268 -0.886532  0.000000 0.000000 1 0 1.000000
  phy
    0  0.467299 -3.487946 8.947268  0.076508 -0.773181 -0.629554  0.000000 0.000000 1 0 1.000000
    0  3.222147 -3.146963 7.562773  0.135451 -0.770709 0.622623  0.000000 0.000000 1 0 1.000000
    0  0.451736 -2.723520 8.950893  -0.181642 -0.795792 -0.577686  0.000000 0.000000 1 0 1.000000
  phy
    0  0.467299 -3.487946 8.947268  0.076508 -0.773181 -0.629554  0.000000 0.000000 1 0 1.000000
    0  0.082348 -25.741966 6.066576  0.445769 -0.835241 -0.321965  0.000000 0.000000 1 0 1.000000
    0  3.222147 -3.146963 7.562773  0.135451 -0.770709 0.622623  0.000000 0.000000 1 0 1.000000
  phy
    0  -5.580589 -3.716813 0.387358  0.019216 -0.462268 -0.886532  0.000000 0.000000 1 0 1.000000
    0  0.467299 -3.487946 8.947268  0.076508 -0.773181 -0.629554  0.000000 0.000000 1 0 1.000000
    0  0.451736 -2.723520 8.950893  -0.181642 -0.795792 -0.577686  0.000000 0.000000 1 0 1.000000
  phy
    0  -5.580589 -3.716813 0.387358  0.019216 -0.462268 -0.886532  0.000000 0.000000 1 0 1.000000
    0  -5.895967 -4.699572 -4.443494  0.246129 0.095845 -0.964486  0.000000 0.000000 1 0 1.000000
    0  -5.551301 -4.549929 0.341190  0.103425 -0.438660 -0.892682  0.000000 0.000000 1 0 1.000000
  phy
    0  -5.895967 -4.699572 -4.443494  0.246129 0.095845 -0.964486  0.000000 0.000000 1 0 1.000000
    0  -5.580589 -3.716813 0.387358  0.019216 -0.462268 -0.886532  0.000000 0.000000 1 0 1.000000
    0  -5.649095 -2.046169 0.346502  -0.155201 -0.408420 -0.899503  0.000000 0.000000 1 0 1.000000
  phy
    0  -5.855513 -2.028248 -4.432168  -0.418741 0.171028 -0.891855  0.000000 0.000000 1 0 1.000000
    0  -5.895967 -4.699572 -4.443494  0.246129 0.095845 -0.964486  0.000000 0.000000 1 0 1.000000
    0  -5.649095 -2.046169 0.346502  -0.155201 -0.408420 -0.899503  0.000000 0.000000 1 0 1.000000
  phy
    0  -5.551301 -4.549929 0.341190  0.103425 -0.438660 -0.892682  0.000000 0.000000 1 0 1.000000
    0  -5.895967 -4.699572 -4.443494  0.246129 0.095845 -0.964486  0.000000 0.000000 1 0 1.000000
    0  0.082348 -25.741966 6.066576  0.445769 -0.835241 -0.321965  0.000000 0.000000 1 0 1.000000
  phy
    0  -5.895967 -4.699572 -4.443494  0.246129 0.095845 -0.964486  0.000000 0.000000 1 0 1.000000
    0  0.425218 -25.342129 0.689632  0.510019 0.724593 0.463514  0.000000 0.000000 1 0 1.000000
    0  0.082348 -25.741966 6.066576  0.445769 -0.835241 -0.321965  0.000000 0.000000 1 0 1.000000
  phy
    0  -4.431240 -1.980998 -5.831129  -0.346655 0.912317 -0.217965  0.000000 0.000000 1 0 1.000000
    0  -5.895967 -4.699572 -4.443494  0.246129 0.095845 -0.964486  0.000000 0.000000 1 0 1.000000
    0  -5.855513 -2.028248 -4.432168  -0.418741 0.171028 -0.891855  0.000000 0.000000 1 0 1.000000
  phy
    0  -5.895967 -4.699572 -4.443494  0.246129 0.095845 -0.964486  0.000000 0.000000 1 0 1.000000
    0  -4.431240 -1.980998 -5.831129  -0.346655 0.912317 -0.217965  0.000000 0.000000 1 0 1.000000
    0  -4.187362 -4.476772 -5.832355  0.243685 0.963698 -0.109107  0.000000 0.000000 1 0 1.000000
  phy
    0  -1.169075 8.216282 -0.076931  -0.522541 0.230291 -0.820925  0.000000 0.000000 1 0 1.000000
    0  -5.855513 -2.028248 -4.432168  -0.418741 0.171028 -0.891855  0.000000 0.000000 1 0 1.000000
    0  -1.146847 9.050272 3.024473  -0.555241 0.076488 -0.828165  0.000000 0.000000 1 0 1.000000
  phy
    0  -5.855513 -2.028248 -4.432168  -0.418741 0.171028 -0.891855  0.000000 0.000000 1 0 1.000000
    0  -1.169075 8.216282 -0.076931  -0.522541 0.230291 -0.820925  0.000000 0.000000 1 0 1.000000
    0  -0.308421 8.288931 -1.599801  -0.551521 0.770073 0.320643  0.000000 0.000000 1 0 1.000000
  phy
    0  -1.169075 8.216282 -0.076931  -0.522541 0.230291 -0.820925  0.000000 0.000000 1 0 1.000000
    0  -1.146847 9.050272 3.024473  -0.555241 0.076488 -0.828165  0.000000 0.000000 1 0 1.000000
    0  -0.308421 8.288931 -1.599801  -0.551521 0.770073 0.320643  0.000000 0.000000 1 0 1.000000
  phy
    0  0.726493 -1.875710 -5.747353  -0.286192 0.903681 0.318519  0.000000 0.000000 1 0 1.000000
    0  -4.431240 -1.980998 -5.831129  -0.346655 0.912317 -0.217965  0.000000 0.000000 1 0 1.000000
    0  -0.308421 8.288931 -1.599801  -0.551521 0.770073 0.320643  0.000000 0.000000 1 0 1.000000
  phy
    0  -4.431240 -1.980998 -5.831129  -0.346655 0.912317 -0.217965  0.000000 0.000000 1 0 1.000000
    0  0.726493 -1.875710 -5.747353  -0.286192 0.903681 0.318519  0.000000 0.000000 1 0 1.000000
    0  -4.187362 -4.476772 -5.832355  0.243685 0.963698 -0.109107  0.000000 0.000000 1 0 1.000000
  phy
    0  -4.431240 -1.980998 -5.831129  -0.346655 0.912317 -0.217965  0.000000 0.000000 1 0 1.000000
    0  -5.855513 -2.028248 -4.432168  -0.418741 0.171028 -0.891855  0.000000 0.000000 1 0 1.000000
    0  -0.308421 8.288931 -1.599801  -0.551521 0.770073 0.320643  0.000000 0.000000 1 0 1.000000
  phy
    0  -5.855513 -2.028248 -4.432168  -0.418741 0.171028 -0.891855  0.000000 0.000000 1 0 1.000000
    0  -1.841535 7.546448 4.238884  -0.250407 -0.432005 -0.866411  0.000000 0.000000 1 0 1.000000
    0  -1.146847 9.050272 3.024473  -0.555241 0.076488 -0.828165  0.000000 0.000000 1 0 1.000000
  phy
    0  -1.841535 7.546448 4.238884  -0.250407 -0.432005 -0.866411  0.000000 0.000000 1 0 1.000000
    0  -5.855513 -2.028248 -4.432168  -0.418741 0.171028 -0.891855  0.000000 0.000000 1 0 1.000000
    0  -5.649095 -2.046169 0.346502  -0.155201 -0.408420 -0.899503  0.000000 0.000000 1 0 1.000000
  phy
    0  0.451736 -2.723520 8.950893  -0.181642 -0.795792 -0.577686  0.000000 0.000000 1 0 1.000000
    0  -1.841535 7.546448 4.238884  -0.250407 -0.432005 -0.866411  0.000000 0.000000 1 0 1.000000
    0  -5.649095 -2.046169 0.346502  -0.155201 -0.408420 -0.899503  0.000000 0.000000 1 0 1.000000
  phy
    0  0.451736 -2.723520 8.950893  -0.181642 -0.795792 -0.577686  0.000000 0.000000 1 0 1.000000
    0  -0.376474 9.398040 4.392282  -0.430304 -0.828973 0.357270  0.000000 0.000000 1 0 1.000000
    0  -1.841535 7.546448 4.238884  -0.250407 -0.432005 -0.866411  0.000000 0.000000 1 0 1.000000
  phy
    0  -1.146847 9.050272 3.024473  -0.555241 0.076488 -0.828165  0.000000 0.000000 1 0 1.000000
    0  -1.841535 7.546448 4.238884  -0.250407 -0.432005 -0.866411  0.000000 0.000000 1 0 1.000000
    0  -0.376474 9.398040 4.392282  -0.430304 -0.828973 0.357270  0.000000 0.000000 1 0 1.000000
  phy
    0  0.726493 -1.875710 -5.747353  -0.286192 0.903681 0.318519  0.000000 0.000000 1 0 1.000000
    0  0.906427 -4.482317 -5.727989  0.219360 0.820328 0.528150  0.000000 0.000000 1 0 1.000000
    0  -4.187362 -4.476772 -5.832355  0.243685 0.963698 -0.109107  0.000000 0.000000 1 0 1.000000
  phy
    0  0.906427 -4.482317 -5.727989  0.219360 0.820328 0.528150  0.000000 0.000000 1 0 1.000000
    0  0.277905 -15.071375 -2.801294  0.294371 0.955633 0.010525  0.000000 0.000000 1 0 1.000000
    0  -4.187362 -4.476772 -5.832355  0.243685 0.963698 -0.109107  0.000000 0.000000 1 0 1.000000
  phy
    0  0.277905 -15.071375 -2.801294  0.294371 0.955633 0.010525  0.000000 0.000000 1 0 1.000000
    0  0.906427 -4.482317 -5.727989  0.219360 0.820328 0.528150  0.000000 0.000000 1 0 1.000000
    0  0.425218 -25.342129 0.689632  0.510019 0.724593 0.463514  0.000000 0.000000 1 0 1.000000
  phy
    0  0.217753 9.396991 3.061291  -0.511586 0.023688 0.858905  0.000000 0.000000 1 0 1.000000
    0  4.782789 -0.193408 5.163862  -0.374027 -0.340119 0.862799  0.000000 0.000000 1 0 1.000000
    0  5.864534 -2.234846 1.046270  -0.406516 0.195051 0.892581  0.000000 0.000000 1 0 1.000000
  phy
    0  4.782789 -0.193408 5.163862  -0.374027 -0.340119 0.862799  0.000000 0.000000 1 0 1.000000
    0  6.238113 -3.603070 1.051744  0.224437 0.096922 0.969657  0.000000 0.000000 1 0 1.000000
    0  5.864534 -2.234846 1.046270  -0.406516 0.195051 0.892581  0.000000 0.000000 1 0 1.000000
  phy
    0  5.228416 -3.065249 5.168110  0.160284 -0.423436 0.891634  0.000000 0.000000 1 0 1.000000
    0  4.782789 -0.193408 5.163862  -0.374027 -0.340119 0.862799  0.000000 0.000000 1 0 1.000000
    0  3.191302 -2.098627 7.459240  -0.314350 -0.784242 0.534928  0.000000 0.000000 1 0 1.000000
  phy
    0  3.191302 -2.098627 7.459240  -0.314350 -0.784242 0.534928  0.000000 0.000000 1 0 1.000000
    0  3.222147 -3.146963 7.562773  0.135451 -0.770709 0.622623  0.000000 0.000000 1 0 1.000000
    0  5.228416 -3.065249 5.168110  0.160284 -0.423436 0.891634  0.000000 0.000000 1 0 1.000000
  phy
    0  0.451736 -2.723520 8.950893  -0.181642 -0.795792 -0.577686  0.000000 0.000000 1 0 1.000000
    0  3.222147 -3.146963 7.562773  0.135451 -0.770709 0.622623  0.000000 0.000000 1 0 1.000000
    0  3.191302 -2.098627 7.459240  -0.314350 -0.784242 0.534928  0.000000 0.000000 1 0 1.000000
  phy
    0  3.191302 -2.098627 7.459240  -0.314350 -0.784242 0.534928  0.000000 0.000000 1 0 1.000000
    0  -0.376474 9.398040 4.392282  -0.430304 -0.828973 0.357270  0.000000 0.000000 1 0 1.000000
    0  0.451736 -2.723520 8.950893  -0.181642 -0.795792 -0.577686  0.000000 0.000000 1 0 1.000000
  phy
    0  4.782789 -0.193408 5.163862  -0.374027 -0.340119 0.862799  0.000000 0.000000 1 0 1.000000
    0  -0.376474 9.398040 4.392282  -0.430304 -0.828973 0.357270  0.000000 0.000000 1 0 1.000000
    0  3.191302 -2.098627 7.459240  -0.314350 -0.784242 0.534928  0.000000 0.000000 1 0 1.000000
  phy
    0  -5.580589 -3.716813 0.387358  0.019216 -0.462268 -0.886532  0.000000 0.000000 1 0 1.000000
    0  0.451736 -2.723520 8.950893  -0.181642 -0.795792 -0.577686  0.000000 0.000000 1 0 1.000000
    0  -5.649095 -2.046169 0.346502  -0.155201 -0.408420 -0.899503  0.000000 0.000000 1 0 1.000000
  phy
    0  -1.146847 9.050272 3.024473  -0.555241 0.076488 -0.828165  0.000000 0.000000 1 0 1.000000
    0  0.217753 9.396991 3.061291  -0.511586 0.023688 0.858905  0.000000 0.000000 1 0 1.000000
    0  -0.308421 8.288931 -1.599801  -0.551521 0.770073 0.320643  0.000000 0.000000 1 0 1.000000
  phy
    0  0.217753 9.396991 3.061291  -0.511586 0.023688 0.858905  0.000000 0.000000 1 0 1.000000
    0  -1.146847 9.050272 3.024473  -0.555241 0.076488 -0.828165  0.000000 0.000000 1 0 1.000000
    0  -0.376474 9.398040 4.392282  -0.430304 -0.828973 0.357270  0.000000 0.000000 1 0 1.000000
  phy
    0  0.217753 9.396991 3.061291  -0.511586 0.023688 0.858905  0.000000 0.000000 1 0 1.000000
    0  -0.376474 9.398040 4.392282  -0.430304 -0.828973 0.357270  0.000000 0.000000 1 0 1.000000
    0  4.782789 -0.193408 5.163862  -0.374027 -0.340119 0.862799  0.000000 0.000000 1 0 1.000000
  phy
    0  5.228416 -3.065249 5.168110  0.160284 -0.423436 0.891634  0.000000 0.000000 1 0 1.000000
    0  6.238113 -3.603070 1.051744  0.224437 0.096922 0.969657  0.000000 0.000000 1 0 1.000000
    0  4.782789 -0.193408 5.163862  -0.374027 -0.340119 0.862799  0.000000 0.000000 1 0 1.000000
  phy
    0  3.222147 -3.146963 7.562773  0.135451 -0.770709 0.622623  0.000000 0.000000 1 0 1.000000
    0  0.082348 -25.741966 6.066576  0.445769 -0.835241 -0.321965  0.000000 0.000000 1 0 1.000000
    0  5.228416 -3.065249 5.168110  0.160284 -0.423436 0.891634  0.000000 0.000000 1 0 1.000000
  phy
    0  5.228416 -3.065249 5.168110  0.160284 -0.423436 0.891634  0.000000 0.000000 1 0 1.000000
    0  0.082348 -25.741966 6.066576  0.445769 -0.835241 -0.321965  0.000000 0.000000 1 0 1.000000
    0  6.238113 -3.603070 1.051744  0.224437 0.096922 0.969657  0.000000 0.000000 1 0 1.000000
  phy
    0  0.277905 -15.071375 -2.801294  0.294371 0.955633 0.010525  0.000000 0.000000 1 0 1.000000
    0  0.425218 -25.342129 0.689632  0.510019 0.724593 0.463514  0.000000 0.000000 1 0 1.000000
    0  -4.187362 -4.476772 -5.832355  0.243685 0.963698 -0.109107  0.000000 0.000000 1 0 1.000000
  phy
    0  6.238113 -3.603070 1.051744  0.224437 0.096922 0.969657  0.000000 0.000000 1 0 1.000000
    0  0.082348 -25.741966 6.066576  0.445769 -0.835241 -0.321965  0.000000 0.000000 1 0 1.000000
    0  0.425218 -25.342129 0.689632  0.510019 0.724593 0.463514  0.000000 0.000000 1 0 1.000000
end
