version 1
nodes
  0 "Base" -1
end
skeleton
  time 0
    0 0 0 0 0 0 0
end
triangles
  phy
    0 18.824312 0.248312 -0.148832 0.325292 -0.493748 -0.806473 0.000000 0.000000 1 0 1.000000
    0 20.467787 0.248400 0.191927 -0.230943 0.608808 -0.758958 0.000000 0.000000 1 0 1.000000
    0 18.824385 -0.895403 -0.148901 0.484113 -0.820882 0.302964 0.000000 0.000000 1 0 1.000000
  phy
    0 18.824385 -0.895403 -0.148901 0.484113 -0.820882 0.302964 0.000000 0.000000 1 0 1.000000
    0 20.467787 0.248400 0.191927 -0.230943 0.608808 -0.758958 0.000000 0.000000 1 0 1.000000
    0 20.467857 -0.895317 0.191856 -0.037845 0.214654 0.975957 0.000000 0.000000 1 0 1.000000
  phy
    0 18.824385 -0.895403 -0.148901 0.484113 -0.820882 0.302964 0.000000 0.000000 1 0 1.000000
    0 2.365217 1.281790 30.227243 0.261711 -0.567834 -0.780430 0.000000 0.000000 1 0 1.000000
    0 18.824312 0.248312 -0.148832 0.325292 -0.493748 -0.806473 0.000000 0.000000 1 0 1.000000
  phy
    0 18.824312 0.248312 -0.148832 0.325292 -0.493748 -0.806473 0.000000 0.000000 1 0 1.000000
    0 2.365217 1.281790 30.227243 0.261711 -0.567834 -0.780430 0.000000 0.000000 1 0 1.000000
    0 20.467787 0.248400 0.191927 -0.230943 0.608808 -0.758958 0.000000 0.000000 1 0 1.000000
  phy
    0 20.467857 -0.895317 0.191856 -0.037845 0.214654 0.975957 0.000000 0.000000 1 0 1.000000
    0 2.365383 -2.572558 30.227156 0.183001 -0.535837 0.824251 0.000000 0.000000 1 0 1.000000
    0 18.824385 -0.895403 -0.148901 0.484113 -0.820882 0.302964 0.000000 0.000000 1 0 1.000000
  phy
    0 18.824385 -0.895403 -0.148901 0.484113 -0.820882 0.302964 0.000000 0.000000 1 0 1.000000
    0 2.365383 -2.572558 30.227156 0.183001 -0.535837 0.824251 0.000000 0.000000 1 0 1.000000
    0 2.365217 1.281790 30.227243 0.261711 -0.567834 -0.780430 0.000000 0.000000 1 0 1.000000
  phy
    0 4.916986 -2.572709 35.565491 -0.328387 0.651697 0.683706 0.000000 0.000000 1 0 1.000000
    0 2.365383 -2.572558 30.227156 0.183001 -0.535837 0.824251 0.000000 0.000000 1 0 1.000000
    0 20.467857 -0.895317 0.191856 -0.037845 0.214654 0.975957 0.000000 0.000000 1 0 1.000000
  phy
    0 4.916986 -2.572709 35.565491 -0.328387 0.651697 0.683706 0.000000 0.000000 1 0 1.000000
    0 20.467857 -0.895317 0.191856 -0.037845 0.214654 0.975957 0.000000 0.000000 1 0 1.000000
    0 20.467787 0.248400 0.191927 -0.230943 0.608808 -0.758958 0.000000 0.000000 1 0 1.000000
  phy
    0 2.365217 1.281790 30.227243 0.261711 -0.567834 -0.780430 0.000000 0.000000 1 0 1.000000
    0 2.365383 -2.572558 30.227156 0.183001 -0.535837 0.824251 0.000000 0.000000 1 0 1.000000
    0 4.916735 1.281631 35.565712 -0.358554 0.469131 -0.807066 0.000000 0.000000 1 0 1.000000
  phy
    0 2.365217 1.281790 30.227243 0.261711 -0.567834 -0.780430 0.000000 0.000000 1 0 1.000000
    0 4.916735 1.281631 35.565712 -0.358554 0.469131 -0.807066 0.000000 0.000000 1 0 1.000000
    0 20.467787 0.248400 0.191927 -0.230943 0.608808 -0.758958 0.000000 0.000000 1 0 1.000000
  phy
    0 4.916735 1.281631 35.565712 -0.358554 0.469131 -0.807066 0.000000 0.000000 1 0 1.000000
    0 2.365383 -2.572558 30.227156 0.183001 -0.535837 0.824251 0.000000 0.000000 1 0 1.000000
    0 4.916986 -2.572709 35.565491 -0.328387 0.651697 0.683706 0.000000 0.000000 1 0 1.000000
  phy
    0 4.916735 1.281631 35.565712 -0.358554 0.469131 -0.807066 0.000000 0.000000 1 0 1.000000
    0 4.916986 -2.572709 35.565491 -0.328387 0.651697 0.683706 0.000000 0.000000 1 0 1.000000
    0 20.467787 0.248400 0.191927 -0.230943 0.608808 -0.758958 0.000000 0.000000 1 0 1.000000
  phy
    0 -1.212276 -5.123465 22.076990 0.471387 0.722548 0.505687 0.000000 0.000000 1 0 1.000000
    0 -22.324574 -10.066406 -0.036102 0.741863 0.665840 0.079349 0.000000 0.000000 1 0 1.000000
    0 -0.985837 3.673792 22.077604 0.618404 0.764695 -0.181159 0.000000 0.000000 1 0 1.000000
  phy
    0 -22.324574 -10.066406 -0.036102 0.741863 0.665840 0.079349 0.000000 0.000000 1 0 1.000000
    0 -22.212246 7.739670 0.078569 0.725369 0.679177 -0.112061 0.000000 0.000000 1 0 1.000000
    0 -0.985837 3.673792 22.077604 0.618404 0.764695 -0.181159 0.000000 0.000000 1 0 1.000000
  phy
    0 -22.324574 -10.066406 -0.036102 0.741863 0.665840 0.079349 0.000000 0.000000 1 0 1.000000
    0 -24.536776 7.739483 0.646479 -0.568703 -0.772972 -0.281232 0.000000 0.000000 1 0 1.000000
    0 -22.212246 7.739670 0.078569 0.725369 0.679177 -0.112061 0.000000 0.000000 1 0 1.000000
  phy
    0 -24.536776 7.739483 0.646479 -0.568703 -0.772972 -0.281232 0.000000 0.000000 1 0 1.000000
    0 -22.324574 -10.066406 -0.036102 0.741863 0.665840 0.079349 0.000000 0.000000 1 0 1.000000
    0 -24.649111 -10.066595 0.531807 -0.656121 -0.733554 0.177210 0.000000 0.000000 1 0 1.000000
  phy
    0 -1.212276 -5.123465 22.076990 0.471387 0.722548 0.505687 0.000000 0.000000 1 0 1.000000
    0 -24.649111 -10.066595 0.531807 -0.656121 -0.733554 0.177210 0.000000 0.000000 1 0 1.000000
    0 -22.324574 -10.066406 -0.036102 0.741863 0.665840 0.079349 0.000000 0.000000 1 0 1.000000
  phy
    0 -1.212276 -5.123465 22.076990 0.471387 0.722548 0.505687 0.000000 0.000000 1 0 1.000000
    0 -0.985837 3.673792 22.077604 0.618404 0.764695 -0.181159 0.000000 0.000000 1 0 1.000000
    0 -4.444881 -5.123677 22.077425 -0.782781 -0.576569 0.234141 0.000000 0.000000 1 0 1.000000
  phy
    0 -4.444881 -5.123677 22.077425 -0.782781 -0.576569 0.234141 0.000000 0.000000 1 0 1.000000
    0 -0.985837 3.673792 22.077604 0.618404 0.764695 -0.181159 0.000000 0.000000 1 0 1.000000
    0 -4.785570 3.673456 22.078112 -0.709691 -0.698623 -0.090909 0.000000 0.000000 1 0 1.000000
  phy
    0 -4.444881 -5.123677 22.077425 -0.782781 -0.576569 0.234141 0.000000 0.000000 1 0 1.000000
    0 -24.649111 -10.066595 0.531807 -0.656121 -0.733554 0.177210 0.000000 0.000000 1 0 1.000000
    0 -1.212276 -5.123465 22.076990 0.471387 0.722548 0.505687 0.000000 0.000000 1 0 1.000000
  phy
    0 -4.785570 3.673456 22.078112 -0.709691 -0.698623 -0.090909 0.000000 0.000000 1 0 1.000000
    0 -24.649111 -10.066595 0.531807 -0.656121 -0.733554 0.177210 0.000000 0.000000 1 0 1.000000
    0 -4.444881 -5.123677 22.077425 -0.782781 -0.576569 0.234141 0.000000 0.000000 1 0 1.000000
  phy
    0 -24.536776 7.739483 0.646479 -0.568703 -0.772972 -0.281232 0.000000 0.000000 1 0 1.000000
    0 -24.649111 -10.066595 0.531807 -0.656121 -0.733554 0.177210 0.000000 0.000000 1 0 1.000000
    0 -4.785570 3.673456 22.078112 -0.709691 -0.698623 -0.090909 0.000000 0.000000 1 0 1.000000
  phy
    0 -22.212246 7.739670 0.078569 0.725369 0.679177 -0.112061 0.000000 0.000000 1 0 1.000000
    0 -24.536776 7.739483 0.646479 -0.568703 -0.772972 -0.281232 0.000000 0.000000 1 0 1.000000
    0 -0.985837 3.673792 22.077604 0.618404 0.764695 -0.181159 0.000000 0.000000 1 0 1.000000
  phy
    0 -24.536776 7.739483 0.646479 -0.568703 -0.772972 -0.281232 0.000000 0.000000 1 0 1.000000
    0 -4.785570 3.673456 22.078112 -0.709691 -0.698623 -0.090909 0.000000 0.000000 1 0 1.000000
    0 -0.985837 3.673792 22.077604 0.618404 0.764695 -0.181159 0.000000 0.000000 1 0 1.000000
  phy
    0 -4.218027 -2.333095 18.478704 0.113555 -0.573016 0.811639 0.000000 0.000000 1 0 1.000000
    0 -4.218212 0.484831 18.478876 0.405259 -0.541817 -0.736342 0.000000 0.000000 1 0 1.000000
    0 -0.304365 -2.332829 18.365141 0.291988 0.782748 0.549590 0.000000 0.000000 1 0 1.000000
  phy
    0 -0.304365 -2.332829 18.365141 0.291988 0.782748 0.549590 0.000000 0.000000 1 0 1.000000
    0 -4.218212 0.484831 18.478876 0.405259 -0.541817 -0.736342 0.000000 0.000000 1 0 1.000000
    0 -0.304551 0.485096 18.365313 0.123695 0.331881 -0.935176 0.000000 0.000000 1 0 1.000000
  phy
    0 -4.218027 -2.333095 18.478704 0.113555 -0.573016 0.811639 0.000000 0.000000 1 0 1.000000
    0 -0.304422 -2.333478 28.977579 -0.127182 0.331613 0.934803 0.000000 0.000000 1 0 1.000000
    0 -4.331593 -2.333735 28.863974 -0.399107 -0.533240 0.745901 0.000000 0.000000 1 0 1.000000
  phy
    0 -4.218027 -2.333095 18.478704 0.113555 -0.573016 0.811639 0.000000 0.000000 1 0 1.000000
    0 -0.304365 -2.332829 18.365141 0.291988 0.782748 0.549590 0.000000 0.000000 1 0 1.000000
    0 -0.304422 -2.333478 28.977579 -0.127182 0.331613 0.934803 0.000000 0.000000 1 0 1.000000
  phy
    0 -4.218027 -2.333095 18.478704 0.113555 -0.573016 0.811639 0.000000 0.000000 1 0 1.000000
    0 -4.331593 -2.333735 28.863974 -0.399107 -0.533240 0.745901 0.000000 0.000000 1 0 1.000000
    0 -4.331778 0.484190 28.864145 -0.104571 -0.573476 -0.812521 0.000000 0.000000 1 0 1.000000
  phy
    0 -4.331778 0.484190 28.864145 -0.104571 -0.573476 -0.812521 0.000000 0.000000 1 0 1.000000
    0 -4.218212 0.484831 18.478876 0.405259 -0.541817 -0.736342 0.000000 0.000000 1 0 1.000000
    0 -4.218027 -2.333095 18.478704 0.113555 -0.573016 0.811639 0.000000 0.000000 1 0 1.000000
  phy
    0 -0.304551 0.485096 18.365313 0.123695 0.331881 -0.935176 0.000000 0.000000 1 0 1.000000
    0 -4.218212 0.484831 18.478876 0.405259 -0.541817 -0.736342 0.000000 0.000000 1 0 1.000000
    0 -4.331778 0.484190 28.864145 -0.104571 -0.573476 -0.812521 0.000000 0.000000 1 0 1.000000
  phy
    0 -0.304551 0.485096 18.365313 0.123695 0.331881 -0.935176 0.000000 0.000000 1 0 1.000000
    0 -4.331778 0.484190 28.864145 -0.104571 -0.573476 -0.812521 0.000000 0.000000 1 0 1.000000
    0 -0.304608 0.484447 28.977751 -0.296808 0.774213 -0.559017 0.000000 0.000000 1 0 1.000000
  phy
    0 -0.304551 0.485096 18.365313 0.123695 0.331881 -0.935176 0.000000 0.000000 1 0 1.000000
    0 -0.304608 0.484447 28.977751 -0.296808 0.774213 -0.559017 0.000000 0.000000 1 0 1.000000
    0 -0.304365 -2.332829 18.365141 0.291988 0.782748 0.549590 0.000000 0.000000 1 0 1.000000
  phy
    0 -0.304365 -2.332829 18.365141 0.291988 0.782748 0.549590 0.000000 0.000000 1 0 1.000000
    0 -0.304608 0.484447 28.977751 -0.296808 0.774213 -0.559017 0.000000 0.000000 1 0 1.000000
    0 -0.304422 -2.333478 28.977579 -0.127182 0.331613 0.934803 0.000000 0.000000 1 0 1.000000
  phy
    0 -4.331593 -2.333735 28.863974 -0.399107 -0.533240 0.745901 0.000000 0.000000 1 0 1.000000
    0 -0.304608 0.484447 28.977751 -0.296808 0.774213 -0.559017 0.000000 0.000000 1 0 1.000000
    0 -4.331778 0.484190 28.864145 -0.104571 -0.573476 -0.812521 0.000000 0.000000 1 0 1.000000
  phy
    0 -0.304422 -2.333478 28.977579 -0.127182 0.331613 0.934803 0.000000 0.000000 1 0 1.000000
    0 -0.304608 0.484447 28.977751 -0.296808 0.774213 -0.559017 0.000000 0.000000 1 0 1.000000
    0 -4.331593 -2.333735 28.863974 -0.399107 -0.533240 0.745901 0.000000 0.000000 1 0 1.000000
  phy
    0 2.857622 -3.657995 60.456207 -0.570781 0.757636 0.316540 0.000000 0.000000 1 0 1.000000
    0 -8.360732 8.124546 60.456863 -0.431095 -0.411245 -0.803140 0.000000 0.000000 1 0 1.000000
    0 -11.877618 -3.105733 60.456161 -0.264098 -0.962421 0.063231 0.000000 0.000000 1 0 1.000000
  phy
    0 3.263102 4.648457 60.456711 -0.098491 0.716875 -0.690210 0.000000 0.000000 1 0 1.000000
    0 -8.360732 8.124546 60.456863 -0.431095 -0.411245 -0.803140 0.000000 0.000000 1 0 1.000000
    0 2.857622 -3.657995 60.456207 -0.570781 0.757636 0.316540 0.000000 0.000000 1 0 1.000000
  phy
    0 -11.877618 -3.105733 60.456161 -0.264098 -0.962421 0.063231 0.000000 0.000000 1 0 1.000000
    0 -2.797183 -9.857669 60.455795 -0.102244 -0.034900 0.994147 0.000000 0.000000 1 0 1.000000
    0 2.857622 -3.657995 60.456207 -0.570781 0.757636 0.316540 0.000000 0.000000 1 0 1.000000
  phy
    0 2.857622 -3.657995 60.456207 -0.570781 0.757636 0.316540 0.000000 0.000000 1 0 1.000000
    0 3.207012 -3.645553 27.074644 0.035002 0.920859 0.388322 0.000000 0.000000 1 0 1.000000
    0 3.263102 4.648457 60.456711 -0.098491 0.716875 -0.690210 0.000000 0.000000 1 0 1.000000
  phy
    0 3.207012 -3.645553 27.074644 0.035002 0.920859 0.388322 0.000000 0.000000 1 0 1.000000
    0 2.857622 -3.657995 60.456207 -0.570781 0.757636 0.316540 0.000000 0.000000 1 0 1.000000
    0 -2.797183 -9.857669 60.455795 -0.102244 -0.034900 0.994147 0.000000 0.000000 1 0 1.000000
  phy
    0 3.263102 4.648457 60.456711 -0.098491 0.716875 -0.690210 0.000000 0.000000 1 0 1.000000
    0 3.207012 -3.645553 27.074644 0.035002 0.920859 0.388322 0.000000 0.000000 1 0 1.000000
    0 3.618271 4.779276 27.075163 0.401432 0.656070 -0.639081 0.000000 0.000000 1 0 1.000000
  phy
    0 -2.731408 -10.156170 27.074217 0.596841 -0.026350 0.801927 0.000000 0.000000 1 0 1.000000
    0 3.207012 -3.645553 27.074644 0.035002 0.920859 0.388322 0.000000 0.000000 1 0 1.000000
    0 -2.797183 -9.857669 60.455795 -0.102244 -0.034900 0.994147 0.000000 0.000000 1 0 1.000000
  phy
    0 3.207012 -3.645553 27.074644 0.035002 0.920859 0.388322 0.000000 0.000000 1 0 1.000000
    0 -2.731408 -10.156170 27.074217 0.596841 -0.026350 0.801927 0.000000 0.000000 1 0 1.000000
    0 3.618271 4.779276 27.075163 0.401432 0.656070 -0.639081 0.000000 0.000000 1 0 1.000000
  phy
    0 -11.877618 -3.105733 60.456161 -0.264098 -0.962421 0.063231 0.000000 0.000000 1 0 1.000000
    0 -8.360732 8.124546 60.456863 -0.431095 -0.411245 -0.803140 0.000000 0.000000 1 0 1.000000
    0 -8.543963 8.416374 27.075315 0.272207 -0.435025 -0.858287 0.000000 0.000000 1 0 1.000000
  phy
    0 -8.543963 8.416374 27.075315 0.272207 -0.435025 -0.858287 0.000000 0.000000 1 0 1.000000
    0 -12.163769 -3.142553 27.074591 0.127910 -0.854997 0.502613 0.000000 0.000000 1 0 1.000000
    0 -11.877618 -3.105733 60.456161 -0.264098 -0.962421 0.063231 0.000000 0.000000 1 0 1.000000
  phy
    0 -11.877618 -3.105733 60.456161 -0.264098 -0.962421 0.063231 0.000000 0.000000 1 0 1.000000
    0 -12.163769 -3.142553 27.074591 0.127910 -0.854997 0.502613 0.000000 0.000000 1 0 1.000000
    0 -2.797183 -9.857669 60.455795 -0.102244 -0.034900 0.994147 0.000000 0.000000 1 0 1.000000
  phy
    0 3.263102 4.648457 60.456711 -0.098491 0.716875 -0.690210 0.000000 0.000000 1 0 1.000000
    0 -8.543963 8.416374 27.075315 0.272207 -0.435025 -0.858287 0.000000 0.000000 1 0 1.000000
    0 -8.360732 8.124546 60.456863 -0.431095 -0.411245 -0.803140 0.000000 0.000000 1 0 1.000000
  phy
    0 -8.543963 8.416374 27.075315 0.272207 -0.435025 -0.858287 0.000000 0.000000 1 0 1.000000
    0 3.263102 4.648457 60.456711 -0.098491 0.716875 -0.690210 0.000000 0.000000 1 0 1.000000
    0 3.618271 4.779276 27.075163 0.401432 0.656070 -0.639081 0.000000 0.000000 1 0 1.000000
  phy
    0 -8.543963 8.416374 27.075315 0.272207 -0.435025 -0.858287 0.000000 0.000000 1 0 1.000000
    0 -2.731408 -10.156170 27.074217 0.596841 -0.026350 0.801927 0.000000 0.000000 1 0 1.000000
    0 -12.163769 -3.142553 27.074591 0.127910 -0.854997 0.502613 0.000000 0.000000 1 0 1.000000
  phy
    0 -2.731408 -10.156170 27.074217 0.596841 -0.026350 0.801927 0.000000 0.000000 1 0 1.000000
    0 -8.543963 8.416374 27.075315 0.272207 -0.435025 -0.858287 0.000000 0.000000 1 0 1.000000
    0 3.618271 4.779276 27.075163 0.401432 0.656070 -0.639081 0.000000 0.000000 1 0 1.000000
  phy
    0 -2.797183 -9.857669 60.455795 -0.102244 -0.034900 0.994147 0.000000 0.000000 1 0 1.000000
    0 -12.163769 -3.142553 27.074591 0.127910 -0.854997 0.502613 0.000000 0.000000 1 0 1.000000
    0 -2.731408 -10.156170 27.074217 0.596841 -0.026350 0.801927 0.000000 0.000000 1 0 1.000000
end
