version 1
nodes
  0 "Base" -1
  1 "Leftright" 0
  2 "Gun" 1
  3 "Barrel" 2
  4 "cover" 2
end
skeleton
  time 0
    0 0.746094 0.235840 17.875000 1.570792 0.000003 -0.000003
    1 0.332457 15.529400 -0.220378 0.000000 0.000000 0.000000
    2 2.006938 17.841656 7.452808 0.000000 0.000000 0.000000
    3 1.671227 1.473721 -4.730693 0.000002 0.000000 0.000000
    4 2.516212 0.478184 -0.870787 0.000000 -0.392675 0.000000
  time 1
    0 0.746094 0.235840 17.875000 1.570792 0.000003 -0.000003
    1 0.332457 15.529400 -0.220378 0.000000 0.000000 0.000000
    2 2.006938 17.841656 7.452808 0.000000 0.000000 0.000000
    3 1.671227 1.473721 -4.484591 0.000002 0.000000 0.000000
    4 2.516212 0.478184 -0.870787 0.000000 -0.381685 0.000000
  time 2
    0 0.746094 0.235840 17.875000 1.570792 0.000003 -0.000003
    1 0.332457 15.529400 -0.220378 0.000000 0.000000 0.000000
    2 2.006938 17.841656 7.452808 0.000000 0.000000 0.000000
    3 1.671227 1.473721 -3.808789 0.000002 0.000000 0.000000
    4 2.516212 0.478184 -0.870787 0.000000 -0.351856 0.000000
  time 3
    0 0.746094 0.235840 17.875000 1.570792 0.000003 -0.000003
    1 0.332457 15.529400 -0.220378 0.000000 0.000000 0.000000
    2 2.006938 17.841656 7.452808 0.000000 0.000000 0.000000
    3 1.671227 1.473721 -2.816572 0.000002 0.000000 0.000000
    4 2.516212 0.478184 -0.870787 0.000000 -0.307860 0.000000
  time 4
    0 0.746094 0.235840 17.875000 1.570792 0.000003 -0.000003
    1 0.332457 15.529400 -0.220378 0.000000 0.000000 0.000000
    2 2.006938 17.841656 7.452808 0.000000 0.000000 0.000000
    3 1.671227 1.473721 -1.609504 0.000002 0.000000 0.000000
    4 2.516212 0.478184 -0.870787 0.000000 -0.254469 0.000000
  time 5
    0 0.746094 0.235840 17.875000 1.570792 0.000003 -0.000003
    1 0.332457 15.529400 -0.220378 0.000000 0.000000 0.000000
    2 2.006938 17.841656 7.452808 0.000000 0.000000 0.000000
    3 1.671227 1.473721 -0.296963 0.000002 0.000000 0.000000
    4 2.516212 0.478184 -0.870787 0.000000 -0.196344 0.000000
  time 6
    0 0.746094 0.235840 17.875000 1.570792 0.000003 -0.000003
    1 0.332457 15.529400 -0.220378 0.000000 0.000000 0.000000
    2 2.006938 17.841656 7.452808 0.000000 0.000000 0.000000
    3 1.671227 1.473721 1.015577 0.000002 0.000000 0.000000
    4 2.516212 0.478184 -0.870787 0.000000 -0.138206 0.000000
  time 7
    0 0.746094 0.235840 17.875000 1.570792 0.000003 -0.000003
    1 0.332457 15.529400 -0.220378 0.000000 0.000000 0.000000
    2 2.006938 17.841656 7.452808 0.000000 0.000000 0.000000
    3 1.671227 1.473721 2.222645 0.000002 0.000000 0.000000
    4 2.516212 0.478184 -0.870787 0.000000 -0.084815 0.000000
  time 8
    0 0.746094 0.235840 17.875000 1.570792 0.000003 -0.000003
    1 0.332457 15.529400 -0.220378 0.000000 0.000000 0.000000
    2 2.006938 17.841656 7.452808 0.000000 0.000000 0.000000
    3 1.671227 1.473721 3.214862 0.000002 0.000000 0.000000
    4 2.516212 0.478184 -0.870787 0.000000 -0.040832 0.000000
  time 9
    0 0.746094 0.235840 17.875000 1.570792 0.000003 -0.000003
    1 0.332457 15.529400 -0.220378 0.000000 0.000000 0.000000
    2 2.006938 17.841656 7.452808 0.000000 0.000000 0.000000
    3 1.671227 1.473721 3.878945 0.000002 0.000000 0.000000
    4 2.516212 0.478184 -0.870787 0.000000 -0.010990 0.000000
  time 10
    0 0.746094 0.235840 17.875000 1.570792 0.000003 -0.000003
    1 0.332457 15.529400 -0.220378 0.000000 0.000000 0.000000
    2 2.006938 17.841656 7.452808 0.000000 0.000000 0.000000
    3 1.671227 1.473721 4.132859 0.000002 0.000000 0.000000
    4 2.516212 0.478184 -0.870787 0.000000 0.000000 0.000000
end
