version 1
nodes
  0 "Base" -1
  1 "Leftright" 0
  2 "Gun" 1
  3 "Barrel" 2
  4 "cover" 2
end
skeleton
  time 0
    0 0.746094 0.235840 17.875000 1.570792 0.000003 -0.000003
    1 0.332457 15.529400 -0.220378 0.000000 0.000000 0.000000
    2 2.006938 17.841656 7.452808 0.000000 0.000000 0.000000
    3 1.670898 1.473633 -4.730469 0.000002 0.000000 0.000000
    4 2.516212 0.478184 -0.870787 0.000000 -0.392685 0.000000
  time 1
    0 0.746094 0.235840 17.875000 1.570792 0.000003 -0.000003
    1 0.332457 15.529400 -0.220378 0.000000 0.000000 0.000000
    2 2.006938 17.841656 7.452808 0.000000 0.000000 0.000000
    3 1.670898 1.473633 -4.730469 0.000002 0.000000 0.000000
    4 2.516212 0.478184 -0.870787 0.000000 -0.392685 0.000000
  time 2
    0 0.746094 0.235840 17.875000 1.570792 0.000003 -0.000003
    1 0.332457 15.529400 -0.220378 0.000000 0.000000 0.000000
    2 2.006938 17.841656 7.452808 0.000000 0.000000 0.000000
    3 1.670898 1.473633 -4.730469 0.000002 0.000000 0.000000
    4 2.516212 0.478184 -0.870787 0.000000 -0.392685 0.000000
  time 3
    0 0.746094 0.235840 17.875000 1.570792 0.000003 -0.000003
    1 0.332457 15.529400 -0.220378 0.000000 0.000000 0.000000
    2 2.006938 17.841656 7.452808 0.000000 0.000000 0.000000
    3 1.670898 1.473633 -4.730469 0.000002 0.000000 0.000000
    4 2.516212 0.478184 -0.870787 0.000000 -0.392685 0.000000
  time 4
    0 0.746094 0.235840 17.875000 1.570792 0.000003 -0.000003
    1 0.332457 15.529400 -0.220378 0.000000 0.000000 0.000000
    2 2.006938 17.841656 7.452808 0.000000 0.000000 0.000000
    3 1.670898 1.473633 -4.730469 0.000002 0.000000 0.000000
    4 2.516212 0.478184 -0.870787 0.000000 -0.392685 0.000000
  time 5
    0 0.746094 0.235840 17.875000 1.570792 0.000003 -0.000003
    1 0.332457 15.529400 -0.220378 0.000000 0.000000 0.000000
    2 2.006938 17.841656 7.452808 0.000000 0.000000 0.000000
    3 1.670898 1.473633 -4.730469 0.000002 0.000000 0.000000
    4 2.516212 0.478184 -0.870787 0.000000 -0.392685 0.000000
  time 6
    0 0.746094 0.235840 17.875000 1.570792 0.000003 -0.000003
    1 0.332457 15.529400 -0.220378 0.000000 0.000000 0.000000
    2 2.006938 17.841656 7.452808 0.000000 0.000000 0.000000
    3 1.670898 1.473633 -4.730469 0.000002 0.000000 0.000000
    4 2.516212 0.478184 -0.870787 0.000000 -0.392685 0.000000
  time 7
    0 0.746094 0.235840 17.875000 1.570792 0.000003 -0.000003
    1 0.332457 15.529400 -0.220378 0.000000 0.000000 0.000000
    2 2.006938 17.841656 7.452808 0.000000 0.000000 0.000000
    3 1.670898 1.473633 -4.730469 0.000002 0.000000 0.000000
    4 2.516212 0.478184 -0.870787 0.000000 -0.392685 0.000000
  time 8
    0 0.746094 0.235840 17.875000 1.570792 0.000003 -0.000003
    1 0.332457 15.529400 -0.220378 0.000000 0.000000 0.000000
    2 2.006938 17.841656 7.452808 0.000000 0.000000 0.000000
    3 1.670898 1.473633 -4.730469 0.000002 0.000000 0.000000
    4 2.516212 0.478184 -0.870787 0.000000 -0.392685 0.000000
  time 9
    0 0.746094 0.235840 17.875000 1.570792 0.000003 -0.000003
    1 0.332457 15.529400 -0.220378 0.000000 0.000000 0.000000
    2 2.006938 17.841656 7.452808 0.000000 0.000000 0.000000
    3 1.670898 1.473633 -4.730469 0.000002 0.000000 0.000000
    4 2.516212 0.478184 -0.870787 0.000000 -0.392685 0.000000
  time 10
    0 0.746094 0.235840 17.875000 1.570792 0.000003 -0.000003
    1 0.332457 15.529400 -0.220378 0.000000 0.000000 0.000000
    2 2.006938 17.841656 7.452808 0.000000 0.000000 0.000000
    3 1.670898 1.473633 -4.730469 0.000002 0.000000 0.000000
    4 2.516212 0.478184 -0.870787 0.000000 -0.392685 0.000000
end
