version 1
nodes
  0 "smg" -1
  1 "smg_magbullet" 0
  2 "smg_bolt" 0
  3 "smg_boltpull" 0
  4 "smg_boltrelease" 0
  5 "smg_trigger" 0
  6 "smg_selectfire" 0
  7 "smg_mag" 0
  8 "smg_magbull2" 7
  9 "smg_magbull1" 8
  10 "smg_grip" 0
  11 "smg_stock" 0
  12 "l_wrist" -1
  13 "l_thumb_low" 12
  14 "l_thumb_mid" 13
  15 "l_thumb_tip" 14
  16 "l_index_low" 12
  17 "l_index_mid" 16
  18 "l_index_tip" 17
  19 "l_middle_low" 12
  20 "l_middle_mid" 19
  21 "l_middle_tip" 20
  22 "l_ring_low" 12
  23 "l_ring_mid" 22
  24 "l_ring_tip" 23
  25 "l_pinky_low" 12
  26 "l_pinky_mid" 25
  27 "l_pinky_tip" 26
  28 "l_upperarm" -1
  29 "l_forearm" 28
  30 "r_wrist" -1
  31 "r_thumb_low" 30
  32 "r_thumb_mid" 31
  33 "r_thumb_tip" 32
  34 "r_index_low" 30
  35 "r_index_mid" 34
  36 "r_index_tip" 35
  37 "r_middle_low" 30
  38 "r_middle_mid" 37
  39 "r_middle_tip" 38
  40 "r_ring_low" 30
  41 "r_ring_mid" 40
  42 "r_ring_tip" 41
  43 "r_pinky_low" 30
  44 "r_pinky_mid" 43
  45 "r_pinky_tip" 44
  46 "r_upperarm" -1
  47 "r_forearm" 46
  48 "ValveBiped.Bip01_L_UpperArm" 28
  49 "ValveBiped.Bip01_L_Forearm" 29
  50 "ValveBiped.Bip01_L_Hand" 12
  51 "ValveBiped.Bip01_L_Finger0" 13
  52 "ValveBiped.Bip01_L_Finger01" 14
  53 "ValveBiped.Bip01_L_Finger02" 15
  54 "ValveBiped.Bip01_L_Finger1" 16
  55 "ValveBiped.Bip01_L_Finger11" 17
  56 "ValveBiped.Bip01_L_Finger12" 18
  57 "ValveBiped.Bip01_L_Finger2" 19
  58 "ValveBiped.Bip01_L_Finger21" 20
  59 "ValveBiped.Bip01_L_Finger22" 21
  60 "ValveBiped.Bip01_L_Finger3" 22
  61 "ValveBiped.Bip01_L_Finger31" 23
  62 "ValveBiped.Bip01_L_Finger32" 24
  63 "ValveBiped.Bip01_L_Finger4" 25
  64 "ValveBiped.Bip01_L_Finger41" 26
  65 "ValveBiped.Bip01_L_Finger42" 27
  66 "ValveBiped.Bip01_R_UpperArm" 46
  67 "ValveBiped.Bip01_R_Forearm" 47
  68 "ValveBiped.Bip01_R_Hand" 30
  69 "ValveBiped.Bip01_R_Finger0" 31
  70 "ValveBiped.Bip01_R_Finger01" 32
  71 "ValveBiped.Bip01_R_Finger02" 33
  72 "ValveBiped.Bip01_R_Finger1" 34
  73 "ValveBiped.Bip01_R_Finger11" 35
  74 "ValveBiped.Bip01_R_Finger12" 36
  75 "ValveBiped.Bip01_R_Finger2" 37
  76 "ValveBiped.Bip01_R_Finger21" 38
  77 "ValveBiped.Bip01_R_Finger22" 39
  78 "ValveBiped.Bip01_R_Finger3" 40
  79 "ValveBiped.Bip01_R_Finger31" 41
  80 "ValveBiped.Bip01_R_Finger32" 42
  81 "ValveBiped.Bip01_R_Finger4" 43
  82 "ValveBiped.Bip01_R_Finger41" 44
  83 "ValveBiped.Bip01_R_Finger42" 45
end
skeleton
  time 0
    0 -4.935002 -16.674564 -4.246470 -1.605629 0.000000 -1.570801
    1 -1.180664 -1.033203 0.041046 0.000000 0.000004 0.000000
    2 -1.935547 -1.362305 0.225952 0.000000 0.000002 0.000000
    3 -4.549240 -1.689358 -0.012529 0.000000 0.000000 0.000000
    4 4.331499 0.360595 -0.709097 0.000015 0.000003 0.056022
    5 3.513922 0.962076 -0.004281 0.000004 -0.000001 1.176003
    6 2.855053 0.477292 0.679213 -0.000001 -0.000004 2.896619
    7 1.649902 5.878080 0.032496 -0.000003 0.000002 -1.570796
    8 6.587842 -0.691444 0.025964 -0.000001 -0.000001 1.570796
    9 0.000002 -0.241401 -0.052690 0.000001 0.000001 0.000000
    10 10.620066 1.884898 -0.004843 -1.570796 -0.000002 1.570796
    11 -9.087198 1.359573 -0.008167 -0.000003 0.000002 -1.570796
    12 -2.480645 -24.352275 -8.212248 3.073372 -0.030059 -2.101122
    13 1.473659 0.639418 -1.295234 2.246183 0.440257 0.736868
    14 1.832607 0.000002 -0.000008 3.095520 0.033661 0.402397
    15 1.003335 0.000005 0.000001 -3.040061 -0.014385 -0.167803
    16 3.823895 -0.419603 -1.411520 0.229129 -0.129700 0.759577
    17 2.187956 0.000010 0.000000 -0.012082 -0.011908 1.896829
    18 1.100960 0.000002 0.000000 0.384821 -0.022925 0.395360
    19 3.987863 -0.577452 -0.474712 0.106909 -0.099139 0.745896
    20 1.890109 -0.000010 -0.000001 -0.024571 -0.089012 1.713779
    21 1.310925 0.000000 0.000000 0.487416 0.014826 0.431452
    22 4.117986 -0.654534 0.453695 0.083857 -0.114196 0.864680
    23 1.655294 0.000008 0.000000 -0.039797 0.033474 1.386062
    24 0.869582 0.000004 0.000000 0.072305 -0.050347 0.567074
    25 4.150630 -0.581594 1.354863 -0.339030 -0.077155 0.722463
    26 1.157247 -0.000010 -0.000002 -0.226722 -0.320708 1.453911
    27 1.019835 -0.000006 0.000000 -1.463105 -0.151684 0.429397
    28 7.406140 -6.039003 -8.901889 -1.640481 0.573412 -1.934215
    29 12.695427 -0.000020 -0.000008 -0.117920 0.279676 -1.217359
    30 -5.519798 -13.920227 -8.188808 3.035983 0.007670 -1.559826
    31 1.474215 -0.497926 -1.376118 0.979422 0.426184 -0.250703
    32 1.832179 -0.000010 -0.000002 -2.526087 -0.301597 0.609649
    33 1.042025 -0.000004 -0.000009 -2.896631 -0.278775 -0.192766
    34 3.823320 0.664865 -1.331676 0.244544 0.361997 0.003988
    35 2.152367 -0.000001 0.000004 0.123680 -0.231520 -0.430903
    36 1.056622 -0.000011 0.000000 0.258036 -0.115105 -0.370410
    37 3.985134 0.881805 -0.368986 0.128322 -0.008132 -0.090211
    38 1.830183 0.000015 0.000000 0.063848 -0.073976 -1.510189
    39 1.561352 0.000008 -0.000004 0.027653 -0.015736 -1.357356
    40 4.116518 0.711272 0.551869 0.187923 0.006580 -0.361666
    41 1.752727 0.000006 0.000000 0.026521 0.029537 -1.405331
    42 0.869359 -0.000006 0.000000 0.015642 -0.073583 -0.926120
    43 4.118826 0.331223 1.419829 0.128888 -0.005990 -0.280207
    44 1.176321 0.000006 0.000000 -0.027338 0.139049 -0.923507
    45 0.970199 -0.000002 -0.000004 1.655571 0.044659 -1.487344
    46 -7.606037 1.001330 -4.120493 -2.810117 1.005612 -2.160531
    47 12.706336 -0.000035 -0.000009 -0.295204 0.288129 -1.838176
    48 0.000000 0.000000 -0.000003 0.000000 0.000000 0.000000
    49 1.200000 0.000000 0.000010 0.000000 0.000000 0.000000
    50 0.000010 -0.300000 0.000000 3.141593 0.000000 -0.174533
    51 0.000000 -0.000001 0.000000 0.000000 0.000000 0.000000
    52 -0.000003 0.000000 0.000001 3.141592 0.000000 0.000000
    53 0.000006 0.000000 0.000004 0.000000 0.000000 0.349065
    54 0.000000 0.000000 0.000000 3.141593 0.000000 0.000000
    55 -0.000008 -0.000006 0.000000 3.141593 0.000000 0.000000
    56 0.000002 -0.000002 0.000000 3.141593 0.000000 0.000000
    57 0.000014 -0.000004 0.000000 3.141593 0.000000 0.000000
    58 -0.000001 0.000000 0.000000 3.141593 0.000000 -0.000001
    59 0.000000 0.000000 0.000000 3.141593 0.000000 0.000000
    60 0.000010 0.000017 0.000000 3.141593 0.000000 -0.000001
    61 0.000000 0.000004 0.000000 3.141593 0.000000 -0.000001
    62 0.000000 0.000006 0.000000 3.141593 0.000000 -0.000001
    63 0.000001 0.000002 0.000000 3.141593 0.000000 0.000000
    64 0.000000 0.000000 0.000000 -3.141592 0.000000 0.000000
    65 0.000000 0.000000 0.000000 -1.570797 -0.000001 0.000000
    66 0.000000 0.000000 0.000000 0.000000 0.000000 0.000000
    67 1.200000 0.000000 0.000000 0.000000 0.000000 0.000000
    68 0.000009 0.299994 0.000000 0.000000 0.000000 0.174533
    69 -0.000001 -0.000001 -0.000004 0.000000 0.000000 0.000000
    70 -0.000010 0.000000 -0.000003 -3.141592 0.000001 0.000000
    71 0.000000 0.000000 0.000000 0.000001 -0.000001 0.349065
    72 0.000000 -0.000003 0.000000 0.000000 0.000000 0.000000
    73 0.000003 0.000000 0.000000 0.000000 0.000000 0.000000
    74 -0.000010 -0.000006 0.000000 -0.000001 0.000000 0.000000
    75 0.000019 0.000002 0.000000 0.000000 0.000000 0.000000
    76 0.000001 0.000004 0.000000 0.000000 0.000000 -0.000001
    77 0.000000 0.000000 0.000000 0.000000 0.000000 -0.000001
    78 0.000001 -0.000002 0.000000 0.000000 0.000000 -0.000001
    79 0.000000 0.000000 0.000000 0.000000 0.000000 -0.000001
    80 0.000001 0.000008 0.000000 0.000000 0.000000 0.000000
    81 -0.000003 0.000004 0.000000 0.000000 0.000000 0.000000
    82 -0.000007 -0.000008 0.000000 0.000000 0.000000 -0.000001
    83 0.000000 0.000002 -0.000002 -1.570796 0.000000 0.000000
  time 1
    0 -4.935002 -16.655033 -4.340223 -1.602267 -0.010647 -1.574209
    1 -1.180664 -1.033203 0.041046 0.000000 0.000004 0.000000
    2 -1.935547 -1.362305 0.225952 0.000000 0.000002 0.000000
    3 -4.549240 -1.689358 -0.012529 0.000000 0.000000 0.000000
    4 4.331499 0.360595 -0.709097 0.000015 0.000003 0.056022
    5 3.513922 0.962076 -0.004281 0.000004 -0.000001 1.176003
    6 2.855053 0.477292 0.679213 -0.000001 -0.000004 2.896619
    7 1.649902 5.878080 0.032496 -0.000003 0.000002 -1.570796
    8 6.587842 -0.691444 0.025964 -0.000001 -0.000001 1.570796
    9 0.000002 -0.241401 -0.052690 0.000001 0.000001 0.000000
    10 10.620066 1.884898 -0.004843 -1.570796 -0.000002 1.570796
    11 -9.087198 1.359573 -0.008167 -0.000003 0.000002 -1.570796
    12 -2.355641 -24.289773 -8.302094 2.985411 -0.045795 -2.080116
    13 1.473659 0.639418 -1.295234 2.251587 0.399266 0.825231
    14 1.832607 0.000002 -0.000008 3.095532 0.033649 0.402397
    15 1.003335 0.000005 0.000001 -3.040061 -0.014385 -0.167803
    16 3.823895 -0.419603 -1.411520 0.238261 -0.117066 0.702682
    17 2.187956 0.000010 0.000000 -0.008679 -0.016761 1.667263
    18 1.100960 0.000002 0.000000 0.384821 -0.022913 0.395360
    19 3.987863 -0.577452 -0.474712 0.113541 -0.092427 0.688690
    20 1.890109 -0.000010 -0.000001 -0.008870 -0.093579 1.543084
    21 1.310925 0.000000 0.000000 0.487019 0.014586 0.421953
    22 4.117986 -0.654534 0.453695 0.092091 -0.109665 0.810483
    23 1.655294 0.000008 0.000000 -0.044051 0.026667 1.232552
    24 0.869582 0.000004 0.000000 0.072305 -0.050335 0.567074
    25 4.150630 -0.593313 1.354863 -0.331972 -0.094404 0.670801
    26 1.157247 -0.000010 -0.000002 -0.136382 -0.369102 1.184175
    27 1.019835 -0.000006 0.000000 -1.463105 -0.151684 0.429397
    28 7.406140 -6.039003 -8.901889 -1.642956 0.585750 -1.930438
    29 12.695427 -0.000020 -0.000008 -0.122419 0.281234 -1.233490
    30 -5.496359 -13.943666 -8.309906 3.039207 -0.003009 -1.562526
    31 1.474215 -0.497926 -1.376118 0.979422 0.426184 -0.250703
    32 1.832179 -0.000010 -0.000002 -2.526087 -0.301597 0.609630
    33 1.042025 -0.000004 -0.000009 -2.896631 -0.278775 -0.192766
    34 3.823320 0.664865 -1.331676 0.244544 0.361997 0.003988
    35 2.152367 -0.000001 0.000004 0.123680 -0.231520 -0.430903
    36 1.056622 -0.000011 0.000000 0.258036 -0.115105 -0.370410
    37 3.985134 0.881805 -0.368986 0.128322 -0.008132 -0.090211
    38 1.830183 0.000015 0.000000 0.063848 -0.073976 -1.510189
    39 1.561352 0.000008 -0.000004 0.027653 -0.015736 -1.357356
    40 4.116518 0.711272 0.551869 0.187923 0.006580 -0.361666
    41 1.752727 0.000006 0.000000 0.026521 0.029537 -1.405331
    42 0.869359 -0.000006 0.000000 0.015642 -0.073583 -0.926120
    43 4.118826 0.331223 1.419829 0.128888 -0.005990 -0.280207
    44 1.176321 0.000006 0.000000 -0.027338 0.139049 -0.923484
    45 0.970199 -0.000002 -0.000004 1.655571 0.044659 -1.487344
    46 -7.606037 1.001330 -4.120493 -2.822673 1.005445 -2.167341
    47 12.706336 -0.000035 -0.000009 -0.293381 0.288440 -1.832269
    48 0.000000 0.000000 -0.000003 0.000000 0.000000 0.000000
    49 1.200000 0.000000 0.000010 0.000000 0.000000 0.000000
    50 0.000010 -0.300000 0.000000 3.141593 0.000000 -0.174533
    51 0.000000 -0.000001 0.000000 0.000000 0.000000 0.000000
    52 -0.000003 0.000000 0.000001 3.141592 0.000000 0.000000
    53 0.000006 0.000000 0.000004 0.000000 0.000000 0.349065
    54 0.000000 0.000000 0.000000 3.141593 0.000000 0.000000
    55 -0.000008 -0.000006 0.000000 3.141593 0.000000 0.000000
    56 0.000002 -0.000002 0.000000 3.141593 0.000000 0.000000
    57 0.000014 -0.000004 0.000000 3.141593 0.000000 0.000000
    58 -0.000001 0.000000 0.000000 3.141593 0.000000 -0.000001
    59 0.000000 0.000000 0.000000 3.141593 0.000000 0.000000
    60 0.000010 0.000017 0.000000 3.141593 0.000000 -0.000001
    61 0.000000 0.000004 0.000000 3.141593 0.000000 -0.000001
    62 0.000000 0.000006 0.000000 3.141593 0.000000 -0.000001
    63 0.000001 0.000002 0.000000 3.141593 0.000000 0.000000
    64 0.000000 0.000000 0.000000 -3.141592 0.000000 0.000000
    65 0.000000 0.000000 0.000000 -1.570797 -0.000001 0.000000
    66 0.000000 0.000000 0.000000 0.000000 0.000000 0.000000
    67 1.200000 0.000000 0.000000 0.000000 0.000000 0.000000
    68 0.000009 0.299994 0.000000 0.000000 0.000000 0.174533
    69 -0.000001 -0.000001 -0.000004 0.000000 0.000000 0.000000
    70 -0.000010 0.000000 -0.000003 -3.141592 0.000001 0.000000
    71 0.000000 0.000000 0.000000 0.000001 -0.000001 0.349065
    72 0.000000 -0.000003 0.000000 0.000000 0.000000 0.000000
    73 0.000003 0.000000 0.000000 0.000000 0.000000 0.000000
    74 -0.000010 -0.000006 0.000000 -0.000001 0.000000 0.000000
    75 0.000019 0.000002 0.000000 0.000000 0.000000 0.000000
    76 0.000001 0.000004 0.000000 0.000000 0.000000 -0.000001
    77 0.000000 0.000000 0.000000 0.000000 0.000000 -0.000001
    78 0.000001 -0.000002 0.000000 0.000000 0.000000 -0.000001
    79 0.000000 0.000000 0.000000 0.000000 0.000000 -0.000001
    80 0.000001 0.000008 0.000000 0.000000 0.000000 0.000000
    81 -0.000003 0.000004 0.000000 0.000000 0.000000 0.000000
    82 -0.000007 -0.000008 0.000000 0.000000 0.000000 -0.000001
    83 0.000000 0.000002 -0.000002 -1.570796 0.000000 0.000000
  time 2
    0 -4.931096 -16.580812 -4.758204 -1.588998 -0.035519 -1.589327
    1 -1.180664 -1.033203 0.041046 0.000000 0.000004 0.000000
    2 -1.935547 -1.362305 0.225952 0.000000 0.000002 0.000000
    3 -4.549240 -1.689358 -0.012529 0.000000 0.000000 0.000000
    4 4.331499 0.360595 -0.709097 0.000015 0.000003 0.056022
    5 3.513922 0.962076 -0.004281 0.000004 -0.000001 1.176003
    6 2.855053 0.477292 0.679213 -0.000001 -0.000004 2.896619
    7 1.649902 5.878080 0.032496 -0.000003 0.000002 -1.570796
    8 6.587842 -0.691444 0.025964 -0.000001 -0.000001 1.570796
    9 0.000002 -0.241401 -0.052690 0.000001 0.000001 0.000000
    10 10.620066 1.884898 -0.004843 -1.570796 -0.000002 1.570796
    11 -9.087198 1.359573 -0.008167 -0.000003 0.000002 -1.570796
    12 -2.066570 -24.102268 -8.778671 2.784123 -0.069498 -2.037163
    13 1.473659 0.639418 -1.295234 2.253973 0.317300 1.015554
    14 1.832607 0.000002 -0.000008 3.095532 0.033661 0.402397
    15 1.003335 0.000005 0.000001 -3.040061 -0.014385 -0.167803
    16 3.780925 -0.400072 -1.411520 0.254315 -0.084109 0.567023
    17 2.187956 0.000010 0.000000 0.002119 -0.021855 1.121677
    18 1.100960 0.000002 0.000000 0.384821 -0.023021 0.395360
    19 3.980050 -0.577452 -0.474712 0.126496 -0.075517 0.550216
    20 1.890109 -0.000010 -0.000001 0.029314 -0.091242 1.134159
    21 1.310925 0.000000 0.000000 0.485899 0.013819 0.393343
    22 4.098454 -0.654534 0.453695 0.108246 -0.096468 0.675148
    23 1.655294 0.000008 0.000000 -0.050391 0.008547 0.861594
    24 0.869582 0.000004 0.000000 0.072305 -0.050383 0.567074
    25 4.076409 -0.655815 1.354863 -0.313851 -0.136890 0.541218
    26 1.157247 -0.000010 -0.000002 0.104220 -0.380535 0.540764
    27 1.019835 -0.000006 0.000000 -1.463105 -0.151684 0.429397
    28 7.406140 -6.039003 -8.901889 -1.646668 0.629744 -1.920856
    29 12.695427 -0.000020 -0.000008 -0.134304 0.284961 -1.276191
    30 -5.402606 -13.955385 -8.794296 3.052371 -0.028017 -1.578154
    31 1.474215 -0.497926 -1.376118 0.979422 0.426184 -0.250703
    32 1.832179 -0.000010 -0.000002 -2.526087 -0.301597 0.609630
    33 1.042025 -0.000004 -0.000009 -2.896631 -0.278775 -0.192766
    34 3.823320 0.664865 -1.331676 0.244544 0.361997 0.003988
    35 2.152367 -0.000001 0.000004 0.123680 -0.231520 -0.430903
    36 1.056622 -0.000011 0.000000 0.258036 -0.115105 -0.370410
    37 3.985134 0.881805 -0.368986 0.128322 -0.008132 -0.090211
    38 1.830183 0.000015 0.000000 0.063848 -0.073976 -1.510189
    39 1.561352 0.000008 -0.000004 0.027653 -0.015736 -1.357356
    40 4.116518 0.711272 0.551869 0.187923 0.006580 -0.361666
    41 1.752727 0.000006 0.000000 0.026521 0.029537 -1.405331
    42 0.869359 -0.000006 0.000000 0.015642 -0.073583 -0.926120
    43 4.118826 0.331223 1.419829 0.128888 -0.005990 -0.280207
    44 1.176321 0.000006 0.000000 -0.027338 0.139049 -0.923507
    45 0.970199 -0.000002 -0.000004 1.655571 0.044659 -1.487344
    46 -7.606037 1.001330 -4.120493 -2.882820 1.005445 -2.200954
    47 12.706336 -0.000035 -0.000009 -0.288525 0.289783 -1.815040
    48 0.000000 0.000000 -0.000003 0.000000 0.000000 0.000000
    49 1.200000 0.000000 0.000010 0.000000 0.000000 0.000000
    50 0.000010 -0.300000 0.000000 3.141593 0.000000 -0.174533
    51 0.000000 -0.000001 0.000000 0.000000 0.000000 0.000000
    52 -0.000003 0.000000 0.000001 3.141592 0.000000 0.000000
    53 0.000006 0.000000 0.000004 0.000000 0.000000 0.349065
    54 0.000000 0.000000 0.000000 3.141593 0.000000 0.000000
    55 -0.000008 -0.000006 0.000000 3.141593 0.000000 0.000000
    56 0.000002 -0.000002 0.000000 3.141593 0.000000 0.000000
    57 0.000014 -0.000004 0.000000 3.141593 0.000000 0.000000
    58 -0.000001 0.000000 0.000000 3.141593 0.000000 -0.000001
    59 0.000000 0.000000 0.000000 3.141593 0.000000 0.000000
    60 0.000010 0.000017 0.000000 3.141593 0.000000 -0.000001
    61 0.000000 0.000004 0.000000 3.141593 0.000000 -0.000001
    62 0.000000 0.000006 0.000000 3.141593 0.000000 -0.000001
    63 0.000001 0.000002 0.000000 3.141593 0.000000 0.000000
    64 0.000000 0.000000 0.000000 -3.141592 0.000000 0.000000
    65 0.000000 0.000000 0.000000 -1.570797 -0.000001 0.000000
    66 0.000000 0.000000 0.000000 0.000000 0.000000 0.000000
    67 1.200000 0.000000 0.000000 0.000000 0.000000 0.000000
    68 0.000009 0.299994 0.000000 0.000000 0.000000 0.174533
    69 -0.000001 -0.000001 -0.000004 0.000000 0.000000 0.000000
    70 -0.000010 0.000000 -0.000003 -3.141592 0.000001 0.000000
    71 0.000000 0.000000 0.000000 0.000001 -0.000001 0.349065
    72 0.000000 -0.000003 0.000000 0.000000 0.000000 0.000000
    73 0.000003 0.000000 0.000000 0.000000 0.000000 0.000000
    74 -0.000010 -0.000006 0.000000 -0.000001 0.000000 0.000000
    75 0.000019 0.000002 0.000000 0.000000 0.000000 0.000000
    76 0.000001 0.000004 0.000000 0.000000 0.000000 -0.000001
    77 0.000000 0.000000 0.000000 0.000000 0.000000 -0.000001
    78 0.000001 -0.000002 0.000000 0.000000 0.000000 -0.000001
    79 0.000000 0.000000 0.000000 0.000000 0.000000 -0.000001
    80 0.000001 0.000008 0.000000 0.000000 0.000000 0.000000
    81 -0.000003 0.000004 0.000000 0.000000 0.000000 0.000000
    82 -0.000007 -0.000008 0.000000 0.000000 0.000000 -0.000001
    83 0.000000 0.000002 -0.000002 -1.570796 0.000000 0.000000
  time 3
    0 -4.927190 -16.447995 -5.480882 -1.567346 -0.070162 -1.619139
    1 -1.180664 -1.033203 0.041046 0.000000 0.000004 0.000000
    2 -1.935547 -1.362305 0.225952 0.000000 0.000002 0.000000
    3 -4.549240 -1.689358 -0.012529 0.000000 0.000000 0.000000
    4 4.331499 0.360595 -0.709097 0.000015 0.000003 0.056022
    5 3.513922 0.962076 -0.004281 0.000004 -0.000001 1.176003
    6 2.855053 0.477292 0.679213 -0.000001 -0.000004 2.896619
    7 1.649902 5.878080 0.032496 -0.000003 0.000002 -1.570796
    8 6.587842 -0.691444 0.025964 -0.000001 -0.000001 1.570796
    9 0.000002 -0.241401 -0.052690 0.000001 0.000001 0.000000
    10 10.620066 1.884898 -0.004843 -1.570796 -0.000002 1.570796
    11 -9.087198 1.359573 -0.008167 -0.000003 0.000002 -1.570796
    12 -1.843907 -23.942107 -9.536507 2.674902 -0.084268 -2.024125
    13 1.473659 0.639418 -1.295234 2.260527 0.296130 1.117992
    14 1.832607 0.000002 -0.000008 3.095520 0.033661 0.402397
    15 1.003335 0.000005 0.000001 -3.040061 -0.014385 -0.167803
    16 3.765300 -0.403978 -1.411520 0.256765 -0.056061 0.463551
    17 2.187956 0.000010 0.000000 0.005907 -0.015839 0.740120
    18 1.100960 0.000002 0.000000 0.384821 -0.023009 0.395324
    19 3.987863 -0.577452 -0.474712 0.131584 -0.062669 0.443313
    20 1.890109 -0.000010 -0.000001 0.053256 -0.075614 0.828708
    21 1.310925 0.000000 0.000000 0.484070 0.012525 0.346637
    22 4.102360 -0.677973 0.453695 0.113986 -0.083932 0.560951
    23 1.655294 0.000008 0.000000 -0.051697 -0.005284 0.583441
    24 0.869582 0.000004 0.000000 0.072305 -0.050335 0.566938
    25 4.064690 -0.698785 1.354863 -0.302477 -0.173605 0.432039
    26 1.157247 -0.000010 -0.000002 0.222053 -0.323894 0.205390
    27 1.019835 -0.000006 0.000000 -1.463141 -0.151684 0.429397
    28 7.406140 -6.039003 -8.901889 -1.649238 0.682545 -1.913486
    29 12.695427 -0.000020 -0.000008 -0.142849 0.287322 -1.306635
    30 -5.242445 -13.955385 -9.622446 3.073461 -0.062879 -1.607848
    31 1.474215 -0.497926 -1.376118 0.979422 0.426184 -0.250703
    32 1.832179 -0.000010 -0.000002 -2.526087 -0.301597 0.609630
    33 1.042025 -0.000004 -0.000009 -2.896631 -0.278775 -0.192766
    34 3.823320 0.664865 -1.331676 0.244544 0.361997 0.003988
    35 2.152367 -0.000001 0.000004 0.123680 -0.231520 -0.430903
    36 1.056622 -0.000011 0.000000 0.258036 -0.115105 -0.370410
    37 3.985134 0.881805 -0.368986 0.128322 -0.008132 -0.090211
    38 1.830183 0.000015 0.000000 0.063848 -0.073976 -1.510189
    39 1.561352 0.000008 -0.000004 0.027653 -0.015736 -1.357356
    40 4.116518 0.711272 0.551869 0.187923 0.006580 -0.361666
    41 1.752727 0.000006 0.000000 0.026521 0.029537 -1.405331
    42 0.869359 -0.000006 0.000000 0.015642 -0.073583 -0.926120
    43 4.118826 0.331223 1.419829 0.128888 -0.005990 -0.280207
    44 1.176321 0.000006 0.000000 -0.027338 0.139049 -0.923530
    45 0.970199 -0.000002 -0.000004 1.655571 0.044659 -1.487344
    46 -7.606037 1.001330 -4.120493 -2.981746 1.001274 -2.253061
    47 12.706336 -0.000035 -0.000009 -0.280050 0.291568 -1.785197
    48 0.000000 0.000000 -0.000003 0.000000 0.000000 0.000000
    49 1.200000 0.000000 0.000010 0.000000 0.000000 0.000000
    50 0.000010 -0.300000 0.000000 3.141593 0.000000 -0.174533
    51 0.000000 -0.000001 0.000000 0.000000 0.000000 0.000000
    52 -0.000003 0.000000 0.000001 3.141592 0.000000 0.000000
    53 0.000006 0.000000 0.000004 0.000000 0.000000 0.349065
    54 0.000000 0.000000 0.000000 3.141593 0.000000 0.000000
    55 -0.000008 -0.000006 0.000000 3.141593 0.000000 0.000000
    56 0.000002 -0.000002 0.000000 3.141593 0.000000 0.000000
    57 0.000014 -0.000004 0.000000 3.141593 0.000000 0.000000
    58 -0.000001 0.000000 0.000000 3.141593 0.000000 -0.000001
    59 0.000000 0.000000 0.000000 3.141593 0.000000 0.000000
    60 0.000010 0.000017 0.000000 3.141593 0.000000 -0.000001
    61 0.000000 0.000004 0.000000 3.141593 0.000000 -0.000001
    62 0.000000 0.000006 0.000000 3.141593 0.000000 -0.000001
    63 0.000001 0.000002 0.000000 3.141593 0.000000 0.000000
    64 0.000000 0.000000 0.000000 -3.141592 0.000000 0.000000
    65 0.000000 0.000000 0.000000 -1.570797 -0.000001 0.000000
    66 0.000000 0.000000 0.000000 0.000000 0.000000 0.000000
    67 1.200000 0.000000 0.000000 0.000000 0.000000 0.000000
    68 0.000009 0.299994 0.000000 0.000000 0.000000 0.174533
    69 -0.000001 -0.000001 -0.000004 0.000000 0.000000 0.000000
    70 -0.000010 0.000000 -0.000003 -3.141592 0.000001 0.000000
    71 0.000000 0.000000 0.000000 0.000001 -0.000001 0.349065
    72 0.000000 -0.000003 0.000000 0.000000 0.000000 0.000000
    73 0.000003 0.000000 0.000000 0.000000 0.000000 0.000000
    74 -0.000010 -0.000006 0.000000 -0.000001 0.000000 0.000000
    75 0.000019 0.000002 0.000000 0.000000 0.000000 0.000000
    76 0.000001 0.000004 0.000000 0.000000 0.000000 -0.000001
    77 0.000000 0.000000 0.000000 0.000000 0.000000 -0.000001
    78 0.000001 -0.000002 0.000000 0.000000 0.000000 -0.000001
    79 0.000000 0.000000 0.000000 0.000000 0.000000 -0.000001
    80 0.000001 0.000008 0.000000 0.000000 0.000000 0.000000
    81 -0.000003 0.000004 0.000000 0.000000 0.000000 0.000000
    82 -0.000007 -0.000008 0.000000 0.000000 0.000000 -0.000001
    83 0.000000 0.000002 -0.000002 -1.570796 0.000000 0.000000
  time 4
    0 -4.919377 -16.268302 -6.449662 -1.537043 -0.110000 -1.660875
    1 -1.180664 -1.033203 0.041046 0.000000 0.000004 0.000000
    2 -1.935547 -1.362305 0.225952 0.000000 0.000002 0.000000
    3 -4.549240 -1.689358 -0.012529 0.000000 0.000000 0.000000
    4 4.331499 0.360595 -0.709097 0.000015 0.000003 0.056022
    5 3.513922 0.962076 -0.004281 0.000004 -0.000001 1.176003
    6 2.855053 0.477292 0.679213 -0.000001 -0.000004 2.896619
    7 1.649902 5.878080 0.032496 -0.000003 0.000002 -1.570796
    8 6.587842 -0.691444 0.025964 -0.000001 -0.000001 1.570796
    9 0.000002 -0.241401 -0.052690 0.000001 0.000001 0.000000
    10 10.620066 1.884898 -0.004843 -1.570796 -0.000002 1.570796
    11 -9.087198 1.359573 -0.008167 -0.000003 0.000002 -1.570796
    12 -1.691559 -23.848354 -10.536537 2.662036 -0.097629 -2.043899
    13 1.473659 0.639418 -1.295234 2.283351 0.332450 1.137866
    14 1.832607 0.000002 -0.000008 3.093567 0.027513 0.286395
    15 1.003335 0.000005 0.000001 -3.039989 -0.013258 -0.165437
    16 3.773113 -0.388352 -1.411520 0.225714 -0.027802 0.405595
    17 2.187956 0.000010 0.000000 -0.002854 -0.006311 0.536490
    18 1.100960 0.000002 0.000000 0.384462 -0.021798 0.377447
    19 3.980050 -0.577452 -0.474712 0.111639 -0.057588 0.381964
    20 1.890109 -0.000010 -0.000001 0.060613 -0.058619 0.642000
    21 1.310925 0.000000 0.000000 0.481830 0.010679 0.285352
    22 4.098454 -0.662347 0.453695 0.096069 -0.085310 0.477712
    23 1.655294 0.000008 0.000000 -0.051793 -0.010976 0.424964
    24 0.869582 0.000004 0.000000 0.073851 -0.048429 0.541638
    25 4.064690 -0.698785 1.354863 -0.311070 -0.212584 0.358105
    26 1.157247 -0.000010 -0.000002 0.243913 -0.289385 0.134345
    27 1.019835 -0.000006 0.000000 -1.459150 -0.145476 0.409563
    28 7.406140 -6.039003 -8.901889 -1.652665 0.739583 -1.909524
    29 12.695427 -0.000020 -0.000008 -0.146626 0.288257 -1.319762
    30 -5.027595 -13.943666 -10.692791 3.103192 -0.103057 -1.649334
    31 1.474215 -0.497926 -1.376118 0.979422 0.426184 -0.250703
    32 1.832179 -0.000010 -0.000002 -2.526087 -0.301597 0.609649
    33 1.042025 -0.000004 -0.000009 -2.896631 -0.278775 -0.192766
    34 3.823320 0.664865 -1.331676 0.244544 0.361997 0.003988
    35 2.152367 -0.000001 0.000004 0.123680 -0.231520 -0.430903
    36 1.056622 -0.000011 0.000000 0.258036 -0.115105 -0.370410
    37 3.985134 0.881805 -0.368986 0.128322 -0.008132 -0.090211
    38 1.830183 0.000015 0.000000 0.063848 -0.073976 -1.510189
    39 1.561352 0.000008 -0.000004 0.027653 -0.015736 -1.357356
    40 4.116518 0.711272 0.551869 0.187923 0.006580 -0.361666
    41 1.752727 0.000006 0.000000 0.026521 0.029537 -1.405331
    42 0.869359 -0.000006 0.000000 0.015642 -0.073583 -0.926120
    43 4.118826 0.331223 1.419829 0.128888 -0.005990 -0.280207
    44 1.176321 0.000006 0.000000 -0.027338 0.139049 -0.923484
    45 0.970199 -0.000002 -0.000004 1.655571 0.044659 -1.487344
    46 -7.606037 1.001330 -4.120493 -3.102594 0.988594 -2.306792
    47 12.706336 -0.000035 -0.000009 -0.267109 0.293977 -1.740402
    48 0.000000 0.000000 -0.000003 0.000000 0.000000 0.000000
    49 1.200000 0.000000 0.000010 0.000000 0.000000 0.000000
    50 0.000010 -0.300000 0.000000 3.141593 0.000000 -0.174533
    51 0.000000 -0.000001 0.000000 0.000000 0.000000 0.000000
    52 -0.000003 0.000000 0.000001 3.141592 0.000000 0.000000
    53 0.000006 0.000000 0.000004 0.000000 0.000000 0.349065
    54 0.000000 0.000000 0.000000 3.141593 0.000000 0.000000
    55 -0.000008 -0.000006 0.000000 3.141593 0.000000 0.000000
    56 0.000002 -0.000002 0.000000 3.141593 0.000000 0.000000
    57 0.000014 -0.000004 0.000000 3.141593 0.000000 0.000000
    58 -0.000001 0.000000 0.000000 3.141593 0.000000 -0.000001
    59 0.000000 0.000000 0.000000 3.141593 0.000000 0.000000
    60 0.000010 0.000017 0.000000 3.141593 0.000000 -0.000001
    61 0.000000 0.000004 0.000000 3.141593 0.000000 -0.000001
    62 0.000000 0.000006 0.000000 3.141593 0.000000 -0.000001
    63 0.000001 0.000002 0.000000 3.141593 0.000000 0.000000
    64 0.000000 0.000000 0.000000 -3.141592 0.000000 0.000000
    65 0.000000 0.000000 0.000000 -1.570797 -0.000001 0.000000
    66 0.000000 0.000000 0.000000 0.000000 0.000000 0.000000
    67 1.200000 0.000000 0.000000 0.000000 0.000000 0.000000
    68 0.000009 0.299994 0.000000 0.000000 0.000000 0.174533
    69 -0.000001 -0.000001 -0.000004 0.000000 0.000000 0.000000
    70 -0.000010 0.000000 -0.000003 -3.141592 0.000001 0.000000
    71 0.000000 0.000000 0.000000 0.000001 -0.000001 0.349065
    72 0.000000 -0.000003 0.000000 0.000000 0.000000 0.000000
    73 0.000003 0.000000 0.000000 0.000000 0.000000 0.000000
    74 -0.000010 -0.000006 0.000000 -0.000001 0.000000 0.000000
    75 0.000019 0.000002 0.000000 0.000000 0.000000 0.000000
    76 0.000001 0.000004 0.000000 0.000000 0.000000 -0.000001
    77 0.000000 0.000000 0.000000 0.000000 0.000000 -0.000001
    78 0.000001 -0.000002 0.000000 0.000000 0.000000 -0.000001
    79 0.000000 0.000000 0.000000 0.000000 0.000000 -0.000001
    80 0.000001 0.000008 0.000000 0.000000 0.000000 0.000000
    81 -0.000003 0.000004 0.000000 0.000000 0.000000 0.000000
    82 -0.000007 -0.000008 0.000000 0.000000 0.000000 -0.000001
    83 0.000000 0.000002 -0.000002 -1.570796 0.000000 0.000000
  time 5
    0 -4.911564 -16.100328 -7.359846 -1.506740 -0.124120 -1.700340
    1 -1.180664 -1.033203 0.041046 0.000000 0.000004 0.000000
    2 -1.935547 -1.362305 0.225952 0.000000 0.000002 0.000000
    3 -4.549240 -1.689358 -0.012529 0.000000 0.000000 0.000000
    4 4.331499 0.360595 -0.709097 0.000015 0.000003 0.056022
    5 3.513922 0.962076 -0.004281 0.000004 -0.000001 1.176003
    6 2.855053 0.477292 0.679213 -0.000001 -0.000004 2.896619
    7 1.649902 5.878080 0.032496 -0.000003 0.000002 -1.570796
    8 6.587842 -0.691444 0.025964 -0.000001 -0.000001 1.570796
    9 0.000002 -0.241401 -0.052690 0.000001 0.000001 0.000000
    10 10.620066 1.884898 -0.004843 -1.570796 -0.000002 1.570796
    11 -9.087198 1.359573 -0.008167 -0.000003 0.000002 -1.570796
    12 -1.425925 -23.649129 -11.786575 2.648532 -0.088654 -2.063601
    13 1.473659 0.639418 -1.295234 2.317127 0.388804 1.149295
    14 1.832607 0.000002 -0.000008 3.093267 0.012280 0.035639
    15 1.003335 0.000005 0.000001 -3.039773 -0.009963 -0.158242
    16 3.777019 -0.407884 -1.411520 0.143308 0.016962 0.357833
    17 2.187956 0.000010 0.000000 -0.022413 0.001479 0.362096
    18 1.100960 0.000002 0.000000 0.382928 -0.018635 0.324560
    19 3.987863 -0.577452 -0.474712 0.053284 -0.057133 0.330713
    20 1.890109 -0.000010 -0.000001 0.060421 -0.040655 0.462026
    21 1.310925 0.000000 0.000000 0.479363 0.008438 0.215762
    22 4.098454 -0.662347 0.453695 0.047724 -0.109231 0.388434
    23 1.655294 0.000008 0.000000 -0.051697 -0.013074 0.287524
    24 0.869582 0.000004 0.000000 0.078286 -0.042569 0.466259
    25 4.080315 -0.667534 1.354863 -0.339798 -0.275134 0.287258
    26 1.157247 -0.000010 -0.000002 0.254327 -0.237792 0.082264
    27 1.019835 -0.000006 0.000000 -1.448220 -0.126781 0.351402
    28 7.406140 -6.039003 -8.901889 -1.661327 0.815025 -1.904734
    29 12.695427 -0.000020 -0.000008 -0.152552 0.289659 -1.340242
    30 -4.816651 -13.857725 -11.649852 3.133550 -0.117524 -1.688547
    31 1.474215 -0.497926 -1.376118 0.979422 0.426184 -0.250703
    32 1.832179 -0.000010 -0.000002 -2.526087 -0.301597 0.609630
    33 1.042025 -0.000004 -0.000009 -2.896631 -0.278775 -0.192766
    34 3.823320 0.664865 -1.331676 0.244544 0.361997 0.003988
    35 2.152367 -0.000001 0.000004 0.123680 -0.231520 -0.430903
    36 1.056622 -0.000011 0.000000 0.258036 -0.115105 -0.370410
    37 3.985134 0.881805 -0.368986 0.128322 -0.008132 -0.090211
    38 1.830183 0.000015 0.000000 0.063848 -0.073976 -1.510189
    39 1.561352 0.000008 -0.000004 0.027653 -0.015736 -1.357356
    40 4.116518 0.711272 0.551869 0.187923 0.006580 -0.361666
    41 1.752727 0.000006 0.000000 0.026521 0.029537 -1.405331
    42 0.869359 -0.000006 0.000000 0.015642 -0.073583 -0.926120
    43 4.118826 0.331223 1.419829 0.128888 -0.005990 -0.280207
    44 1.176321 0.000006 0.000000 -0.027338 0.139049 -0.923484
    45 0.970199 -0.000002 -0.000004 1.655571 0.044659 -1.487344
    46 -7.606037 1.001330 -4.120493 -3.208735 0.972877 -2.346153
    47 12.706336 -0.000035 -0.000009 -0.255925 0.295583 -1.702437
    48 0.000000 0.000000 -0.000003 0.000000 0.000000 0.000000
    49 1.200000 0.000000 0.000010 0.000000 0.000000 0.000000
    50 0.000010 -0.300000 0.000000 3.141593 0.000000 -0.174533
    51 0.000000 -0.000001 0.000000 0.000000 0.000000 0.000000
    52 -0.000003 0.000000 0.000001 3.141592 0.000000 0.000000
    53 0.000006 0.000000 0.000004 0.000000 0.000000 0.349065
    54 0.000000 0.000000 0.000000 3.141593 0.000000 0.000000
    55 -0.000008 -0.000006 0.000000 3.141593 0.000000 0.000000
    56 0.000002 -0.000002 0.000000 3.141593 0.000000 0.000000
    57 0.000014 -0.000004 0.000000 3.141593 0.000000 0.000000
    58 -0.000001 0.000000 0.000000 3.141593 0.000000 -0.000001
    59 0.000000 0.000000 0.000000 3.141593 0.000000 0.000000
    60 0.000010 0.000017 0.000000 3.141593 0.000000 -0.000001
    61 0.000000 0.000004 0.000000 3.141593 0.000000 -0.000001
    62 0.000000 0.000006 0.000000 3.141593 0.000000 -0.000001
    63 0.000001 0.000002 0.000000 3.141593 0.000000 0.000000
    64 0.000000 0.000000 0.000000 -3.141592 0.000000 0.000000
    65 0.000000 0.000000 0.000000 -1.570797 -0.000001 0.000000
    66 0.000000 0.000000 0.000000 0.000000 0.000000 0.000000
    67 1.200000 0.000000 0.000000 0.000000 0.000000 0.000000
    68 0.000009 0.299994 0.000000 0.000000 0.000000 0.174533
    69 -0.000001 -0.000001 -0.000004 0.000000 0.000000 0.000000
    70 -0.000010 0.000000 -0.000003 -3.141592 0.000001 0.000000
    71 0.000000 0.000000 0.000000 0.000001 -0.000001 0.349065
    72 0.000000 -0.000003 0.000000 0.000000 0.000000 0.000000
    73 0.000003 0.000000 0.000000 0.000000 0.000000 0.000000
    74 -0.000010 -0.000006 0.000000 -0.000001 0.000000 0.000000
    75 0.000019 0.000002 0.000000 0.000000 0.000000 0.000000
    76 0.000001 0.000004 0.000000 0.000000 0.000000 -0.000001
    77 0.000000 0.000000 0.000000 0.000000 0.000000 -0.000001
    78 0.000001 -0.000002 0.000000 0.000000 0.000000 -0.000001
    79 0.000000 0.000000 0.000000 0.000000 0.000000 -0.000001
    80 0.000001 0.000008 0.000000 0.000000 0.000000 0.000000
    81 -0.000003 0.000004 0.000000 0.000000 0.000000 0.000000
    82 -0.000007 -0.000008 0.000000 0.000000 0.000000 -0.000001
    83 0.000000 0.000002 -0.000002 -1.570796 0.000000 0.000000
  time 6
    0 -4.911564 -16.010482 -8.129401 -1.481458 -0.092256 -1.733559
    1 -1.180664 -1.033203 0.041046 0.000000 0.000004 0.000000
    2 -1.935547 -1.362305 0.225952 0.000000 0.000002 0.000000
    3 -4.549240 -1.689358 -0.012529 0.000000 0.000000 0.000000
    4 4.331499 0.360595 -0.709097 0.000015 0.000003 0.056022
    5 3.513922 0.962076 -0.004281 0.000004 -0.000001 1.176003
    6 2.855053 0.477292 0.679213 -0.000001 -0.000004 2.896619
    7 1.649902 5.878080 0.032496 -0.000003 0.000002 -1.570796
    8 6.587842 -0.691444 0.025964 -0.000001 -0.000001 1.570796
    9 0.000002 -0.241401 -0.052690 0.000001 0.000001 0.000000
    10 10.620066 1.884898 -0.004843 -1.570796 -0.000002 1.570796
    11 -9.087198 1.359573 -0.008167 -0.000003 0.000002 -1.570796
    12 -1.039195 -23.297556 -13.290528 2.625903 -0.040523 -2.079609
    13 1.473659 0.639418 -1.295234 2.358837 0.459716 1.154165
    14 1.832607 0.000002 -0.000008 3.099056 0.002381 -0.080787
    15 1.003335 0.000005 0.000001 -3.039486 -0.004653 -0.147217
    16 3.808270 -0.419603 -1.407614 0.019198 0.071263 0.318019
    17 2.187956 0.000010 0.000000 -0.049175 0.005650 0.227767
    18 1.100960 0.000002 0.000000 0.380123 -0.013781 0.243631
    19 3.987863 -0.577452 -0.474712 -0.035598 -0.062705 0.292317
    20 1.890109 -0.000010 -0.000001 0.053595 -0.024643 0.302958
    21 1.310925 0.000000 0.000000 0.477123 0.006005 0.146171
    22 4.110173 -0.662347 0.453695 -0.022482 -0.156109 0.301519
    23 1.655294 0.000008 0.000000 -0.052069 -0.011516 0.178724
    24 0.869582 0.000004 0.000000 0.083918 -0.032897 0.350373
    25 4.115473 -0.659721 1.354863 -0.383350 -0.357055 0.225121
    26 1.157247 -0.000010 -0.000002 0.253932 -0.174923 0.049927
    27 1.019835 -0.000006 0.000000 -1.433803 -0.096915 0.262739
    28 7.406140 -6.039003 -8.901889 -1.680935 0.909244 -1.903904
    29 12.695427 -0.000020 -0.000008 -0.160123 0.291253 -1.367049
    30 -4.621333 -13.654594 -12.345185 3.158893 -0.085993 -1.721438
    31 1.474215 -0.497926 -1.376118 0.979422 0.426184 -0.250703
    32 1.832179 -0.000010 -0.000002 -2.526087 -0.301597 0.609630
    33 1.042025 -0.000004 -0.000009 -2.896631 -0.278775 -0.192766
    34 3.823320 0.664865 -1.331676 0.244544 0.361997 0.003988
    35 2.152367 -0.000001 0.000004 0.123680 -0.231520 -0.430903
    36 1.056622 -0.000011 0.000000 0.258036 -0.115105 -0.370410
    37 3.985134 0.881805 -0.368986 0.128322 -0.008132 -0.090211
    38 1.830183 0.000015 0.000000 0.063848 -0.073976 -1.510189
    39 1.561352 0.000008 -0.000004 0.027653 -0.015736 -1.357356
    40 4.116518 0.711272 0.551869 0.187923 0.006580 -0.361666
    41 1.752727 0.000006 0.000000 0.026521 0.029537 -1.405331
    42 0.869359 -0.000006 0.000000 0.015642 -0.073583 -0.926120
    43 4.118826 0.331223 1.419829 0.128888 -0.005990 -0.280207
    44 1.176321 0.000006 0.000000 -0.027338 0.139049 -0.923484
    45 0.970199 -0.000002 -0.000004 1.655571 0.044659 -1.487344
    46 -7.606037 1.001330 -4.120493 -3.295590 0.958862 -2.375143
    47 12.706336 -0.000035 -0.000009 -0.250262 0.296254 -1.682747
    48 0.000000 0.000000 -0.000003 0.000000 0.000000 0.000000
    49 1.200000 0.000000 0.000010 0.000000 0.000000 0.000000
    50 0.000010 -0.300000 0.000000 3.141593 0.000000 -0.174533
    51 0.000000 -0.000001 0.000000 0.000000 0.000000 0.000000
    52 -0.000003 0.000000 0.000001 3.141592 0.000000 0.000000
    53 0.000006 0.000000 0.000004 0.000000 0.000000 0.349065
    54 0.000000 0.000000 0.000000 3.141593 0.000000 0.000000
    55 -0.000008 -0.000006 0.000000 3.141593 0.000000 0.000000
    56 0.000002 -0.000002 0.000000 3.141593 0.000000 0.000000
    57 0.000014 -0.000004 0.000000 3.141593 0.000000 0.000000
    58 -0.000001 0.000000 0.000000 3.141593 0.000000 -0.000001
    59 0.000000 0.000000 0.000000 3.141593 0.000000 0.000000
    60 0.000010 0.000017 0.000000 3.141593 0.000000 -0.000001
    61 0.000000 0.000004 0.000000 3.141593 0.000000 -0.000001
    62 0.000000 0.000006 0.000000 3.141593 0.000000 -0.000001
    63 0.000001 0.000002 0.000000 3.141593 0.000000 0.000000
    64 0.000000 0.000000 0.000000 -3.141592 0.000000 0.000000
    65 0.000000 0.000000 0.000000 -1.570797 -0.000001 0.000000
    66 0.000000 0.000000 0.000000 0.000000 0.000000 0.000000
    67 1.200000 0.000000 0.000000 0.000000 0.000000 0.000000
    68 0.000009 0.299994 0.000000 0.000000 0.000000 0.174533
    69 -0.000001 -0.000001 -0.000004 0.000000 0.000000 0.000000
    70 -0.000010 0.000000 -0.000003 -3.141592 0.000001 0.000000
    71 0.000000 0.000000 0.000000 0.000001 -0.000001 0.349065
    72 0.000000 -0.000003 0.000000 0.000000 0.000000 0.000000
    73 0.000003 0.000000 0.000000 0.000000 0.000000 0.000000
    74 -0.000010 -0.000006 0.000000 -0.000001 0.000000 0.000000
    75 0.000019 0.000002 0.000000 0.000000 0.000000 0.000000
    76 0.000001 0.000004 0.000000 0.000000 0.000000 -0.000001
    77 0.000000 0.000000 0.000000 0.000000 0.000000 -0.000001
    78 0.000001 -0.000002 0.000000 0.000000 0.000000 -0.000001
    79 0.000000 0.000000 0.000000 0.000000 0.000000 -0.000001
    80 0.000001 0.000008 0.000000 0.000000 0.000000 0.000000
    81 -0.000003 0.000004 0.000000 0.000000 0.000000 0.000000
    82 -0.000007 -0.000008 0.000000 0.000000 0.000000 -0.000001
    83 0.000000 0.000002 -0.000002 -1.570796 0.000000 0.000000
  time 7
    0 -4.907658 -15.928448 -8.848173 -1.462720 -0.003413 -1.759040
    1 -1.180664 -1.033203 0.041046 0.000000 0.000004 0.000000
    2 -1.935547 -1.362305 0.225952 0.000000 0.000002 0.000000
    3 -4.549240 -1.689358 -0.012529 0.000000 0.000000 0.000000
    4 4.331499 0.360595 -0.709097 0.000015 0.000003 0.056022
    5 3.513922 0.962076 -0.004281 0.000004 -0.000001 1.176003
    6 2.855053 0.477292 0.679213 -0.000001 -0.000004 2.896619
    7 1.649902 5.878080 0.032496 -0.000003 0.000002 -1.570796
    8 6.587842 -0.691444 0.025964 -0.000001 -0.000001 1.570796
    9 0.000002 -0.241401 -0.052690 0.000001 0.000001 0.000000
    10 10.620066 1.884898 -0.004843 -1.570796 -0.000002 1.570796
    11 -9.087198 1.359573 -0.008167 -0.000003 0.000002 -1.570796
    12 -0.558712 -22.594409 -15.060113 2.591777 0.056827 -2.095255
    13 1.473659 0.639418 -1.295234 2.402042 0.533194 1.155460
    14 1.832607 0.000002 -0.000008 3.108643 -0.004091 -0.068231
    15 1.003335 0.000005 0.000001 -3.038898 0.001171 -0.134698
    16 3.812176 -0.419603 -1.411520 -0.120985 0.124772 0.284499
    17 2.187956 0.000010 0.000000 -0.077926 0.006141 0.138618
    18 1.100960 0.000002 0.000000 0.376732 -0.008556 0.151505
    19 3.987863 -0.577452 -0.474712 -0.136427 -0.072689 0.268273
    20 1.890109 -0.000010 -0.000001 0.043261 -0.013054 0.177755
    21 1.310925 0.000000 0.000000 0.475280 0.003776 0.084870
    22 4.110173 -0.654534 0.453695 -0.098764 -0.216676 0.228705
    23 1.655294 0.000008 0.000000 -0.053183 -0.007657 0.102929
    24 0.869582 0.000004 0.000000 0.089156 -0.021332 0.218569
    25 4.142817 -0.608938 1.354863 -0.433026 -0.444951 0.178603
    26 1.157247 -0.000010 -0.000002 0.246717 -0.111149 0.033999
    27 1.019835 -0.000006 0.000000 -1.420596 -0.061488 0.162707
    28 7.406140 -6.039003 -8.901889 -1.715583 1.031131 -1.913947
    29 12.695427 -0.000020 -0.000008 -0.172277 0.293290 -1.409196
    30 -4.410389 -13.240519 -12.841294 3.178818 0.002598 -1.746869
    31 1.474215 -0.497926 -1.376118 0.979422 0.426184 -0.250703
    32 1.832179 -0.000010 -0.000002 -2.526087 -0.301597 0.609630
    33 1.042025 -0.000004 -0.000009 -2.896631 -0.278775 -0.192766
    34 3.823320 0.664865 -1.331676 0.244544 0.361997 0.003988
    35 2.152367 -0.000001 0.000004 0.123680 -0.231520 -0.430903
    36 1.056622 -0.000011 0.000000 0.258036 -0.115105 -0.370410
    37 3.985134 0.881805 -0.368986 0.128322 -0.008132 -0.090211
    38 1.830183 0.000015 0.000000 0.063848 -0.073976 -1.510189
    39 1.561352 0.000008 -0.000004 0.027653 -0.015736 -1.357356
    40 4.116518 0.711272 0.551869 0.187923 0.006580 -0.361666
    41 1.752727 0.000006 0.000000 0.026521 0.029537 -1.405331
    42 0.869359 -0.000006 0.000000 0.015642 -0.073583 -0.926120
    43 4.118826 0.331223 1.419829 0.128888 -0.005990 -0.280207
    44 1.176321 0.000006 0.000000 -0.027338 0.139049 -0.923530
    45 0.970199 -0.000002 -0.000004 1.655571 0.044659 -1.487344
    46 -7.606037 1.001330 -4.120493 -3.385914 0.945848 -2.410193
    47 12.706336 -0.000035 -0.000009 -0.252319 0.296147 -1.689946
    48 0.000000 0.000000 -0.000003 0.000000 0.000000 0.000000
    49 1.200000 0.000000 0.000010 0.000000 0.000000 0.000000
    50 0.000010 -0.300000 0.000000 3.141593 0.000000 -0.174533
    51 0.000000 -0.000001 0.000000 0.000000 0.000000 0.000000
    52 -0.000003 0.000000 0.000001 3.141592 0.000000 0.000000
    53 0.000006 0.000000 0.000004 0.000000 0.000000 0.349065
    54 0.000000 0.000000 0.000000 3.141593 0.000000 0.000000
    55 -0.000008 -0.000006 0.000000 3.141593 0.000000 0.000000
    56 0.000002 -0.000002 0.000000 3.141593 0.000000 0.000000
    57 0.000014 -0.000004 0.000000 3.141593 0.000000 0.000000
    58 -0.000001 0.000000 0.000000 3.141593 0.000000 -0.000001
    59 0.000000 0.000000 0.000000 3.141593 0.000000 0.000000
    60 0.000010 0.000017 0.000000 3.141593 0.000000 -0.000001
    61 0.000000 0.000004 0.000000 3.141593 0.000000 -0.000001
    62 0.000000 0.000006 0.000000 3.141593 0.000000 -0.000001
    63 0.000001 0.000002 0.000000 3.141593 0.000000 0.000000
    64 0.000000 0.000000 0.000000 -3.141592 0.000000 0.000000
    65 0.000000 0.000000 0.000000 -1.570797 -0.000001 0.000000
    66 0.000000 0.000000 0.000000 0.000000 0.000000 0.000000
    67 1.200000 0.000000 0.000000 0.000000 0.000000 0.000000
    68 0.000009 0.299994 0.000000 0.000000 0.000000 0.174533
    69 -0.000001 -0.000001 -0.000004 0.000000 0.000000 0.000000
    70 -0.000010 0.000000 -0.000003 -3.141592 0.000001 0.000000
    71 0.000000 0.000000 0.000000 0.000001 -0.000001 0.349065
    72 0.000000 -0.000003 0.000000 0.000000 0.000000 0.000000
    73 0.000003 0.000000 0.000000 0.000000 0.000000 0.000000
    74 -0.000010 -0.000006 0.000000 -0.000001 0.000000 0.000000
    75 0.000019 0.000002 0.000000 0.000000 0.000000 0.000000
    76 0.000001 0.000004 0.000000 0.000000 0.000000 -0.000001
    77 0.000000 0.000000 0.000000 0.000000 0.000000 -0.000001
    78 0.000001 -0.000002 0.000000 0.000000 0.000000 -0.000001
    79 0.000000 0.000000 0.000000 0.000000 0.000000 -0.000001
    80 0.000001 0.000008 0.000000 0.000000 0.000000 0.000000
    81 -0.000003 0.000004 0.000000 0.000000 0.000000 0.000000
    82 -0.000007 -0.000008 0.000000 0.000000 0.000000 -0.000001
    83 0.000000 0.000002 -0.000002 -1.570796 0.000000 0.000000
  time 8
    0 -4.899845 -15.678440 -9.617727 -1.447479 0.101362 -1.778276
    1 -1.180664 -1.033203 0.041046 0.000000 0.000004 0.000000
    2 -1.935547 -1.362305 0.225952 0.000000 0.000002 0.000000
    3 -4.549240 -1.689358 -0.012529 0.000000 0.000000 0.000000
    4 4.331499 0.360595 -0.709097 0.000015 0.000003 0.056022
    5 3.513922 0.962076 -0.004281 0.000004 -0.000001 1.176003
    6 2.855053 0.477292 0.679213 -0.000001 -0.000004 2.896619
    7 1.649902 5.878080 0.032496 -0.000003 0.000002 -1.570796
    8 6.587842 -0.691444 0.025964 -0.000001 -0.000001 1.570796
    9 0.000002 -0.241401 -0.052690 0.000001 0.000001 0.000000
    10 10.620066 1.884898 -0.004843 -1.570796 -0.000002 1.570796
    11 -9.087198 1.359573 -0.008167 -0.000003 0.000002 -1.570796
    12 -0.058696 -21.539690 -16.739852 2.559841 0.166009 -2.112566
    13 1.473659 0.639418 -1.295234 2.438549 0.594730 1.155460
    14 1.832607 0.000002 -0.000008 3.121575 -0.013103 -0.036010
    15 1.003335 0.000005 0.000001 -3.038359 0.006348 -0.123641
    16 3.823895 -0.419603 -1.411520 -0.243499 0.166879 0.258409
    17 2.187956 0.000010 0.000000 -0.102075 0.005170 0.089256
    18 1.100960 0.000002 0.000000 0.373136 -0.004121 0.070540
    19 3.987863 -0.577452 -0.474712 -0.225179 -0.082732 0.256769
    20 1.890109 -0.000010 -0.000001 0.033383 -0.006247 0.093582
    21 1.310925 0.000000 0.000000 0.473933 0.001870 0.038165
    22 4.117986 -0.654534 0.453695 -0.163768 -0.274278 0.178368
    23 1.655294 0.000008 0.000000 -0.054490 -0.003186 0.057994
    24 0.869582 0.000004 0.000000 0.092332 -0.010594 0.102874
    25 4.150630 -0.593313 1.354863 -0.477728 -0.520268 0.150453
    26 1.157247 -0.000010 -0.000002 0.237561 -0.058193 0.029332
    27 1.019835 -0.000006 0.000000 -1.412003 -0.029609 0.075238
    28 7.406140 -6.039003 -8.901889 -1.777073 1.166311 -1.951904
    29 12.695427 -0.000020 -0.000008 -0.189081 0.295435 -1.467159
    30 -4.215070 -12.623313 -13.302246 3.195206 0.107153 -1.766547
    31 1.474215 -0.497926 -1.376118 0.979422 0.426184 -0.250703
    32 1.832179 -0.000010 -0.000002 -2.526087 -0.301597 0.609649
    33 1.042025 -0.000004 -0.000009 -2.896631 -0.278775 -0.192766
    34 3.823320 0.664865 -1.331676 0.244544 0.361997 0.003988
    35 2.152367 -0.000001 0.000004 0.123680 -0.231520 -0.430903
    36 1.056622 -0.000011 0.000000 0.258036 -0.115105 -0.370410
    37 3.985134 0.881805 -0.368986 0.128322 -0.008132 -0.090211
    38 1.830183 0.000015 0.000000 0.063848 -0.073976 -1.510189
    39 1.561352 0.000008 -0.000004 0.027653 -0.015736 -1.357356
    40 4.116518 0.711272 0.551869 0.187923 0.006580 -0.361666
    41 1.752727 0.000006 0.000000 0.026521 0.029537 -1.405331
    42 0.869359 -0.000006 0.000000 0.015642 -0.073583 -0.926120
    43 4.118826 0.331223 1.419829 0.128888 -0.005990 -0.280207
    44 1.176321 0.000006 0.000000 -0.027338 0.139049 -0.923507
    45 0.970199 -0.000002 -0.000004 1.655571 0.044659 -1.487344
    46 -7.606037 1.001330 -4.120493 -3.494691 0.928162 -2.455677
    47 12.706336 -0.000035 -0.000009 -0.259636 0.295236 -1.714620
    48 0.000000 0.000000 -0.000003 0.000000 0.000000 0.000000
    49 1.200000 0.000000 0.000010 0.000000 0.000000 0.000000
    50 0.000010 -0.300000 0.000000 3.141593 0.000000 -0.174533
    51 0.000000 -0.000001 0.000000 0.000000 0.000000 0.000000
    52 -0.000003 0.000000 0.000001 3.141592 0.000000 0.000000
    53 0.000006 0.000000 0.000004 0.000000 0.000000 0.349065
    54 0.000000 0.000000 0.000000 3.141593 0.000000 0.000000
    55 -0.000008 -0.000006 0.000000 3.141593 0.000000 0.000000
    56 0.000002 -0.000002 0.000000 3.141593 0.000000 0.000000
    57 0.000014 -0.000004 0.000000 3.141593 0.000000 0.000000
    58 -0.000001 0.000000 0.000000 3.141593 0.000000 -0.000001
    59 0.000000 0.000000 0.000000 3.141593 0.000000 0.000000
    60 0.000010 0.000017 0.000000 3.141593 0.000000 -0.000001
    61 0.000000 0.000004 0.000000 3.141593 0.000000 -0.000001
    62 0.000000 0.000006 0.000000 3.141593 0.000000 -0.000001
    63 0.000001 0.000002 0.000000 3.141593 0.000000 0.000000
    64 0.000000 0.000000 0.000000 -3.141592 0.000000 0.000000
    65 0.000000 0.000000 0.000000 -1.570797 -0.000001 0.000000
    66 0.000000 0.000000 0.000000 0.000000 0.000000 0.000000
    67 1.200000 0.000000 0.000000 0.000000 0.000000 0.000000
    68 0.000009 0.299994 0.000000 0.000000 0.000000 0.174533
    69 -0.000001 -0.000001 -0.000004 0.000000 0.000000 0.000000
    70 -0.000010 0.000000 -0.000003 -3.141592 0.000001 0.000000
    71 0.000000 0.000000 0.000000 0.000001 -0.000001 0.349065
    72 0.000000 -0.000003 0.000000 0.000000 0.000000 0.000000
    73 0.000003 0.000000 0.000000 0.000000 0.000000 0.000000
    74 -0.000010 -0.000006 0.000000 -0.000001 0.000000 0.000000
    75 0.000019 0.000002 0.000000 0.000000 0.000000 0.000000
    76 0.000001 0.000004 0.000000 0.000000 0.000000 -0.000001
    77 0.000000 0.000000 0.000000 0.000000 0.000000 -0.000001
    78 0.000001 -0.000002 0.000000 0.000000 0.000000 -0.000001
    79 0.000000 0.000000 0.000000 0.000000 0.000000 -0.000001
    80 0.000001 0.000008 0.000000 0.000000 0.000000 0.000000
    81 -0.000003 0.000004 0.000000 0.000000 0.000000 0.000000
    82 -0.000007 -0.000008 0.000000 0.000000 0.000000 -0.000001
    83 0.000000 0.000002 -0.000002 -1.570796 0.000000 0.000000
  time 9
    0 -4.614680 -14.654972 -10.734949 -1.431386 0.250717 -1.793253
    1 -1.180664 -1.033203 0.041046 0.000000 0.000004 0.000000
    2 -1.935547 -1.362305 0.225952 0.000000 0.000002 0.000000
    3 -4.549240 -1.689358 -0.012529 0.000000 0.000000 0.000000
    4 4.331499 0.360595 -0.709097 0.000015 0.000003 0.056022
    5 3.513922 0.962076 -0.004281 0.000004 -0.000001 1.176003
    6 2.855053 0.477292 0.679213 -0.000001 -0.000004 2.896619
    7 1.649902 5.878080 0.032496 -0.000003 0.000002 -1.570796
    8 6.587842 -0.691444 0.025964 -0.000001 -0.000001 1.570796
    9 0.000002 -0.241401 -0.052690 0.000001 0.000001 0.000000
    10 10.620066 1.884898 -0.004843 -1.570796 -0.000002 1.570796
    11 -9.087198 1.359573 -0.008167 -0.000003 0.000002 -1.570796
    12 0.738203 -19.356029 -18.626628 2.519693 0.314911 -2.136759
    13 1.473659 0.639418 -1.295234 2.461948 0.633846 1.155291
    14 1.832607 0.000002 -0.000008 3.131930 -0.021061 -0.003887
    15 1.003335 0.000005 0.000001 -3.038096 0.009884 -0.116401
    16 3.823895 -0.419603 -1.411520 -0.322824 0.192393 0.242266
    17 2.187956 0.000010 0.000000 -0.117607 0.004224 0.068293
    18 1.100960 0.000002 0.000000 0.370679 -0.001569 0.017440
    19 3.987863 -0.577452 -0.474712 -0.283258 -0.089395 0.253125
    20 1.890109 -0.000010 -0.000001 0.026778 -0.002843 0.048246
    21 1.310925 0.000000 0.000000 0.473196 0.000852 0.009522
    22 4.117986 -0.654534 0.453695 -0.205703 -0.313378 0.151217
    23 1.655294 0.000008 0.000000 -0.055556 -0.000010 0.036769
    24 0.869582 0.000004 0.000000 0.093794 -0.003427 0.027440
    25 4.150630 -0.581594 1.354863 -0.508277 -0.568713 0.137564
    26 1.157247 -0.000010 -0.000002 0.230753 -0.024628 0.029554
    27 1.019835 -0.000006 0.000000 -1.407808 -0.008313 0.018312
    28 7.406140 -6.039003 -8.901889 -2.071388 1.378761 -2.209410
    29 12.695427 -0.000020 -0.000008 -0.227809 0.296934 -1.599294
    30 -3.707242 -11.111548 -13.907733 3.213205 0.256317 -1.780612
    31 1.474215 -0.497926 -1.376118 0.979422 0.426184 -0.250703
    32 1.832179 -0.000010 -0.000002 -2.526087 -0.301597 0.609649
    33 1.042025 -0.000004 -0.000009 -2.896631 -0.278775 -0.192766
    34 3.823320 0.664865 -1.331676 0.244544 0.361997 0.003988
    35 2.152367 -0.000001 0.000004 0.123680 -0.231520 -0.430903
    36 1.056622 -0.000011 0.000000 0.258036 -0.115105 -0.370410
    37 3.985134 0.881805 -0.368986 0.128322 -0.008132 -0.090211
    38 1.830183 0.000015 0.000000 0.063848 -0.073976 -1.510189
    39 1.561352 0.000008 -0.000004 0.027653 -0.015736 -1.357356
    40 4.116518 0.711272 0.551869 0.187923 0.006580 -0.361666
    41 1.752727 0.000006 0.000000 0.026509 0.029537 -1.405331
    42 0.869359 -0.000006 0.000000 0.015642 -0.073583 -0.926120
    43 4.118826 0.331223 1.419829 0.128888 -0.005990 -0.280207
    44 1.176321 0.000006 0.000000 -0.027338 0.139049 -0.923530
    45 0.970199 -0.000002 -0.000004 1.655571 0.044659 -1.487344
    46 -7.606037 1.001330 -4.120493 -3.697399 0.887118 -2.523278
    47 12.706336 -0.000035 -0.000009 -0.281703 0.291317 -1.791412
    48 0.000000 0.000000 -0.000003 0.000000 0.000000 0.000000
    49 1.200000 0.000000 0.000010 0.000000 0.000000 0.000000
    50 0.000010 -0.300000 0.000000 3.141593 0.000000 -0.174533
    51 0.000000 -0.000001 0.000000 0.000000 0.000000 0.000000
    52 -0.000003 0.000000 0.000001 3.141592 0.000000 0.000000
    53 0.000006 0.000000 0.000004 0.000000 0.000000 0.349065
    54 0.000000 0.000000 0.000000 3.141593 0.000000 0.000000
    55 -0.000008 -0.000006 0.000000 3.141593 0.000000 0.000000
    56 0.000002 -0.000002 0.000000 3.141593 0.000000 0.000000
    57 0.000014 -0.000004 0.000000 3.141593 0.000000 0.000000
    58 -0.000001 0.000000 0.000000 3.141593 0.000000 -0.000001
    59 0.000000 0.000000 0.000000 3.141593 0.000000 0.000000
    60 0.000010 0.000017 0.000000 3.141593 0.000000 -0.000001
    61 0.000000 0.000004 0.000000 3.141593 0.000000 -0.000001
    62 0.000000 0.000006 0.000000 3.141593 0.000000 -0.000001
    63 0.000001 0.000002 0.000000 3.141593 0.000000 0.000000
    64 0.000000 0.000000 0.000000 -3.141592 0.000000 0.000000
    65 0.000000 0.000000 0.000000 -1.570797 -0.000001 0.000000
    66 0.000000 0.000000 0.000000 0.000000 0.000000 0.000000
    67 1.200000 0.000000 0.000000 0.000000 0.000000 0.000000
    68 0.000009 0.299994 0.000000 0.000000 0.000000 0.174533
    69 -0.000001 -0.000001 -0.000004 0.000000 0.000000 0.000000
    70 -0.000010 0.000000 -0.000003 -3.141592 0.000001 0.000000
    71 0.000000 0.000000 0.000000 0.000001 -0.000001 0.349065
    72 0.000000 -0.000003 0.000000 0.000000 0.000000 0.000000
    73 0.000003 0.000000 0.000000 0.000000 0.000000 0.000000
    74 -0.000010 -0.000006 0.000000 -0.000001 0.000000 0.000000
    75 0.000019 0.000002 0.000000 0.000000 0.000000 0.000000
    76 0.000001 0.000004 0.000000 0.000000 0.000000 -0.000001
    77 0.000000 0.000000 0.000000 0.000000 0.000000 -0.000001
    78 0.000001 -0.000002 0.000000 0.000000 0.000000 -0.000001
    79 0.000000 0.000000 0.000000 0.000000 0.000000 -0.000001
    80 0.000001 0.000008 0.000000 0.000000 0.000000 0.000000
    81 -0.000003 0.000004 0.000000 0.000000 0.000000 0.000000
    82 -0.000007 -0.000008 0.000000 0.000000 0.000000 -0.000001
    83 0.000000 0.000002 -0.000002 -1.570796 0.000000 0.000000
  time 10
    0 -4.337328 -13.822915 -11.371687 -1.423855 0.341885 -1.798079
    1 -1.180664 -1.033203 0.041046 0.000000 0.000004 0.000000
    2 -1.935547 -1.362305 0.225952 0.000000 0.000002 0.000000
    3 -4.549240 -1.689358 -0.012529 0.000000 0.000000 0.000000
    4 4.331499 0.360595 -0.709097 0.000015 0.000003 0.056022
    5 3.513922 0.962076 -0.004281 0.000004 -0.000001 1.176003
    6 2.855053 0.477292 0.679213 -0.000001 -0.000004 2.896619
    7 1.649902 5.878080 0.032496 -0.000003 0.000002 -1.570796
    8 6.587842 -0.691444 0.025964 -0.000001 -0.000001 1.570796
    9 0.000002 -0.241401 -0.052690 0.000001 0.000001 0.000000
    10 10.620066 1.884898 -0.004843 -1.570796 -0.000002 1.570796
    11 -9.087198 1.359573 -0.008167 -0.000003 0.000002 -1.570796
    12 1.289001 -17.801294 -19.568063 2.492593 0.403729 -2.151970
    13 1.473659 0.639418 -1.295234 2.469738 0.646775 1.155122
    14 1.832607 0.000002 -0.000008 3.135549 -0.023805 0.008310
    15 1.003335 0.000005 0.000001 -3.037976 0.010975 -0.113971
    16 3.823895 -0.419603 -1.411520 -0.349346 0.200646 0.237132
    17 2.187956 0.000010 0.000000 -0.122832 0.003756 0.063367
    18 1.100960 0.000002 0.000000 0.369864 -0.000718 -0.000331
    19 3.987863 -0.577452 -0.474712 -0.302845 -0.091540 0.252700
    20 1.890109 -0.000010 -0.000001 0.024552 -0.001956 0.034974
    21 1.310925 0.000000 0.000000 0.472955 0.000360 0.000023
    22 4.117986 -0.654534 0.453695 -0.219808 -0.326877 0.143287
    23 1.655294 0.000008 0.000000 -0.055844 0.001176 0.031312
    24 0.869582 0.000004 0.000000 0.094021 -0.001030 0.002113
    25 4.150630 -0.581594 1.354863 -0.518751 -0.584830 0.134373
    26 1.157247 -0.000010 -0.000002 0.228345 -0.013457 0.030443
    27 1.019835 -0.000006 0.000000 -1.406741 -0.001026 -0.000841
    28 7.406140 -6.039003 -8.901889 -3.104155 1.443651 -3.186639
    29 12.695427 -0.000020 -0.000008 -0.253107 0.295184 -1.686040
    30 -3.324418 -10.033390 -14.200711 3.222116 0.347413 -1.784448
    31 1.474215 -0.497926 -1.376118 0.979422 0.426184 -0.250703
    32 1.832179 -0.000010 -0.000002 -2.526087 -0.301597 0.609630
    33 1.042025 -0.000004 -0.000009 -2.896631 -0.278775 -0.192766
    34 3.823320 0.664865 -1.331676 0.244544 0.361997 0.003988
    35 2.152367 -0.000001 0.000004 0.123680 -0.231520 -0.430903
    36 1.056622 -0.000011 0.000000 0.258036 -0.115105 -0.370410
    37 3.985134 0.881805 -0.368986 0.128322 -0.008132 -0.090211
    38 1.830183 0.000015 0.000000 0.063848 -0.073976 -1.510189
    39 1.561352 0.000008 -0.000004 0.027653 -0.015736 -1.357356
    40 4.116518 0.711272 0.551869 0.187923 0.006580 -0.361666
    41 1.752727 0.000006 0.000000 0.026509 0.029549 -1.405331
    42 0.869359 -0.000006 0.000000 0.015630 -0.073583 -0.926120
    43 4.118826 0.331223 1.419829 0.128888 -0.005990 -0.280207
    44 1.176321 0.000006 0.000000 -0.027338 0.139049 -0.923484
    45 0.970199 -0.000002 -0.000004 1.655571 0.044659 -1.487344
    46 -7.606037 1.001330 -4.120493 -3.815264 0.860389 -2.543646
    47 12.706336 -0.000035 -0.000009 -0.296779 0.287602 -1.844083
    48 0.000000 0.000000 -0.000003 0.000000 0.000000 0.000000
    49 1.200000 0.000000 0.000010 0.000000 0.000000 0.000000
    50 0.000010 -0.300000 0.000000 3.141593 0.000000 -0.174533
    51 0.000000 -0.000001 0.000000 0.000000 0.000000 0.000000
    52 -0.000003 0.000000 0.000001 3.141592 0.000000 0.000000
    53 0.000006 0.000000 0.000004 0.000000 0.000000 0.349065
    54 0.000000 0.000000 0.000000 3.141593 0.000000 0.000000
    55 -0.000008 -0.000006 0.000000 3.141593 0.000000 0.000000
    56 0.000002 -0.000002 0.000000 3.141593 0.000000 0.000000
    57 0.000014 -0.000004 0.000000 3.141593 0.000000 0.000000
    58 -0.000001 0.000000 0.000000 3.141593 0.000000 -0.000001
    59 0.000000 0.000000 0.000000 3.141593 0.000000 0.000000
    60 0.000010 0.000017 0.000000 3.141593 0.000000 -0.000001
    61 0.000000 0.000004 0.000000 3.141593 0.000000 -0.000001
    62 0.000000 0.000006 0.000000 3.141593 0.000000 -0.000001
    63 0.000001 0.000002 0.000000 3.141593 0.000000 0.000000
    64 0.000000 0.000000 0.000000 -3.141592 0.000000 0.000000
    65 0.000000 0.000000 0.000000 -1.570797 -0.000001 0.000000
    66 0.000000 0.000000 0.000000 0.000000 0.000000 0.000000
    67 1.200000 0.000000 0.000000 0.000000 0.000000 0.000000
    68 0.000009 0.299994 0.000000 0.000000 0.000000 0.174533
    69 -0.000001 -0.000001 -0.000004 0.000000 0.000000 0.000000
    70 -0.000010 0.000000 -0.000003 -3.141592 0.000001 0.000000
    71 0.000000 0.000000 0.000000 0.000001 -0.000001 0.349065
    72 0.000000 -0.000003 0.000000 0.000000 0.000000 0.000000
    73 0.000003 0.000000 0.000000 0.000000 0.000000 0.000000
    74 -0.000010 -0.000006 0.000000 -0.000001 0.000000 0.000000
    75 0.000019 0.000002 0.000000 0.000000 0.000000 0.000000
    76 0.000001 0.000004 0.000000 0.000000 0.000000 -0.000001
    77 0.000000 0.000000 0.000000 0.000000 0.000000 -0.000001
    78 0.000001 -0.000002 0.000000 0.000000 0.000000 -0.000001
    79 0.000000 0.000000 0.000000 0.000000 0.000000 -0.000001
    80 0.000001 0.000008 0.000000 0.000000 0.000000 0.000000
    81 -0.000003 0.000004 0.000000 0.000000 0.000000 0.000000
    82 -0.000007 -0.000008 0.000000 0.000000 0.000000 -0.000001
    83 0.000000 0.000002 -0.000002 -1.570796 0.000000 0.000000
end
