version 1
nodes
  0 "smg" -1
  1 "smg_magbullet" 0
  2 "smg_bolt" 0
  3 "smg_boltpull" 0
  4 "smg_boltrelease" 0
  5 "smg_trigger" 0
  6 "smg_selectfire" 0
  7 "smg_mag" 0
  8 "smg_magbull2" 7
  9 "smg_magbull1" 8
  10 "smg_grip" 0
  11 "smg_stock" 0
  12 "l_wrist" -1
  13 "l_thumb_low" 12
  14 "l_thumb_mid" 13
  15 "l_thumb_tip" 14
  16 "l_index_low" 12
  17 "l_index_mid" 16
  18 "l_index_tip" 17
  19 "l_middle_low" 12
  20 "l_middle_mid" 19
  21 "l_middle_tip" 20
  22 "l_ring_low" 12
  23 "l_ring_mid" 22
  24 "l_ring_tip" 23
  25 "l_pinky_low" 12
  26 "l_pinky_mid" 25
  27 "l_pinky_tip" 26
  28 "l_upperarm" -1
  29 "l_forearm" 28
  30 "r_wrist" -1
  31 "r_thumb_low" 30
  32 "r_thumb_mid" 31
  33 "r_thumb_tip" 32
  34 "r_index_low" 30
  35 "r_index_mid" 34
  36 "r_index_tip" 35
  37 "r_middle_low" 30
  38 "r_middle_mid" 37
  39 "r_middle_tip" 38
  40 "r_ring_low" 30
  41 "r_ring_mid" 40
  42 "r_ring_tip" 41
  43 "r_pinky_low" 30
  44 "r_pinky_mid" 43
  45 "r_pinky_tip" 44
  46 "r_upperarm" -1
  47 "r_forearm" 46
  48 "ValveBiped.Bip01_L_UpperArm" 28
  49 "ValveBiped.Bip01_L_Forearm" 29
  50 "ValveBiped.Bip01_L_Hand" 12
  51 "ValveBiped.Bip01_L_Finger0" 13
  52 "ValveBiped.Bip01_L_Finger01" 14
  53 "ValveBiped.Bip01_L_Finger02" 15
  54 "ValveBiped.Bip01_L_Finger1" 16
  55 "ValveBiped.Bip01_L_Finger11" 17
  56 "ValveBiped.Bip01_L_Finger12" 18
  57 "ValveBiped.Bip01_L_Finger2" 19
  58 "ValveBiped.Bip01_L_Finger21" 20
  59 "ValveBiped.Bip01_L_Finger22" 21
  60 "ValveBiped.Bip01_L_Finger3" 22
  61 "ValveBiped.Bip01_L_Finger31" 23
  62 "ValveBiped.Bip01_L_Finger32" 24
  63 "ValveBiped.Bip01_L_Finger4" 25
  64 "ValveBiped.Bip01_L_Finger41" 26
  65 "ValveBiped.Bip01_L_Finger42" 27
  66 "ValveBiped.Bip01_R_UpperArm" 46
  67 "ValveBiped.Bip01_R_Forearm" 47
  68 "ValveBiped.Bip01_R_Hand" 30
  69 "ValveBiped.Bip01_R_Finger0" 31
  70 "ValveBiped.Bip01_R_Finger01" 32
  71 "ValveBiped.Bip01_R_Finger02" 33
  72 "ValveBiped.Bip01_R_Finger1" 34
  73 "ValveBiped.Bip01_R_Finger11" 35
  74 "ValveBiped.Bip01_R_Finger12" 36
  75 "ValveBiped.Bip01_R_Finger2" 37
  76 "ValveBiped.Bip01_R_Finger21" 38
  77 "ValveBiped.Bip01_R_Finger22" 39
  78 "ValveBiped.Bip01_R_Finger3" 40
  79 "ValveBiped.Bip01_R_Finger31" 41
  80 "ValveBiped.Bip01_R_Finger32" 42
  81 "ValveBiped.Bip01_R_Finger4" 43
  82 "ValveBiped.Bip01_R_Finger41" 44
  83 "ValveBiped.Bip01_R_Finger42" 45
end
skeleton
  time 0
    0 -4.935002 -16.674564 -4.246470 -1.605629 0.000000 -1.570801
    1 -1.174805 -1.046875 0.043671 0.000000 0.000004 0.000000
    2 -1.935547 -1.361328 0.226196 0.000000 0.000002 0.000000
    3 -4.549240 -1.689358 -0.012529 0.000000 0.000000 0.000000
    4 4.331499 0.360595 -0.709097 0.000015 0.000003 0.056022
    5 3.513922 0.962076 -0.004281 0.000004 -0.000001 1.176003
    6 2.855053 0.477292 0.679213 -0.000001 -0.000004 2.896619
    7 1.649902 5.878080 0.032496 -0.000003 0.000002 -1.570796
    8 6.587842 -0.691444 0.025964 -0.000001 -0.000001 1.570796
    9 0.000002 -0.241401 -0.052690 0.000001 0.000001 0.000000
    10 10.620066 1.884898 -0.004843 -1.570796 -0.000002 1.570796
    11 -9.087198 1.359573 -0.008167 -0.000003 0.000002 -1.570796
    12 -2.480645 -24.352275 -8.212248 3.073372 -0.030059 -2.101122
    13 1.473659 0.639418 -1.295234 2.246127 0.440239 0.736993
    14 1.832607 0.000002 -0.000008 3.110046 0.047491 0.758067
    15 1.003335 0.000005 0.000001 -3.040001 -0.014397 -0.167803
    16 3.823895 -0.419603 -1.411520 0.229111 -0.129702 0.759604
    17 2.187956 0.000010 0.000000 -0.012073 -0.011780 1.896838
    18 1.100960 0.000002 0.000000 0.384940 -0.022913 0.395371
    19 3.987863 -0.577452 -0.474712 0.106881 -0.099190 0.745908
    20 1.890109 -0.000010 -0.000001 -0.024571 -0.089012 1.713779
    21 1.310925 0.000000 0.000000 0.487414 0.014708 0.431447
    22 4.117986 -0.654534 0.453695 0.083847 -0.114161 0.864721
    23 1.655294 0.000008 0.000000 -0.039666 0.033468 1.386069
    24 0.869582 0.000004 0.000000 0.072424 -0.050415 0.567060
    25 4.150630 -0.581594 1.354863 -0.339133 -0.077116 0.722457
    26 1.157247 -0.000010 -0.000002 -0.226802 -0.320736 1.454288
    27 1.019835 -0.000006 0.000000 -1.463035 -0.151736 0.429393
    28 7.406140 -6.039003 -8.901889 -1.640481 0.573412 -1.934215
    29 12.695427 -0.000020 -0.000008 -0.117920 0.279676 -1.217359
    30 -5.519798 -13.920227 -8.188808 3.035983 0.007670 -1.559826
    31 1.474215 -0.497926 -1.376118 0.979422 0.426184 -0.250703
    32 1.832179 -0.000010 -0.000002 -2.526087 -0.301597 0.609649
    33 1.042025 -0.000004 -0.000009 -2.896973 -0.278863 -0.192682
    34 3.823320 0.664865 -1.331676 0.244544 0.361997 0.003988
    35 2.152367 -0.000001 0.000004 0.123680 -0.231520 -0.430903
    36 1.056622 -0.000011 0.000000 0.258036 -0.115105 -0.370410
    37 3.985134 0.881805 -0.368986 0.128322 -0.008132 -0.090211
    38 1.830183 0.000015 0.000000 0.063848 -0.073976 -1.510189
    39 1.561352 0.000008 -0.000004 0.027653 -0.015736 -1.357356
    40 4.116518 0.711272 0.551869 0.187923 0.006580 -0.361666
    41 1.752727 0.000006 0.000000 0.026437 0.029573 -1.405299
    42 0.869359 -0.000006 0.000000 0.015642 -0.073583 -0.926098
    43 4.118826 0.331223 1.419829 0.128888 -0.005990 -0.280207
    44 1.176321 0.000006 0.000000 -0.027338 0.139044 -0.923531
    45 0.970199 -0.000002 -0.000004 1.655571 0.044659 -1.487344
    46 -7.606037 1.001330 -4.120493 -2.810117 1.005612 -2.160531
    47 12.706336 -0.000035 -0.000009 -0.295204 0.288129 -1.838176
    48 0.000000 0.000000 -0.000003 0.000000 0.000000 0.000000
    49 1.200000 0.000000 0.000010 0.000000 0.000000 0.000000
    50 0.000010 -0.300000 0.000000 3.141593 0.000000 -0.174533
    51 0.000000 -0.000001 0.000000 0.000000 0.000000 0.000000
    52 -0.000003 0.000000 0.000001 3.141592 0.000000 0.000000
    53 0.000006 0.000000 0.000004 0.000000 0.000000 0.349065
    54 0.000000 0.000000 0.000000 3.141593 0.000000 0.000000
    55 -0.000008 -0.000006 0.000000 3.141593 0.000000 0.000000
    56 0.000002 -0.000002 0.000000 3.141593 0.000000 0.000000
    57 0.000014 -0.000004 0.000000 3.141593 0.000000 0.000000
    58 -0.000001 0.000000 0.000000 3.141593 0.000000 -0.000001
    59 0.000000 0.000000 0.000000 3.141593 0.000000 0.000000
    60 0.000010 0.000017 0.000000 3.141593 0.000000 -0.000001
    61 0.000000 0.000004 0.000000 3.141593 0.000000 -0.000001
    62 0.000000 0.000006 0.000000 3.141593 0.000000 -0.000001
    63 0.000001 0.000002 0.000000 3.141593 0.000000 0.000000
    64 0.000000 0.000000 0.000000 -3.141592 0.000000 0.000000
    65 0.000000 0.000000 0.000000 -1.570797 -0.000001 0.000000
    66 0.000000 0.000000 0.000000 0.000000 0.000000 0.000000
    67 1.200000 0.000000 0.000000 0.000000 0.000000 0.000000
    68 0.000009 0.299994 0.000000 0.000000 0.000000 0.174533
    69 -0.000001 -0.000001 -0.000004 0.000000 0.000000 0.000000
    70 -0.000010 0.000000 -0.000003 -3.141592 0.000001 0.000000
    71 0.000000 0.000000 0.000000 0.000001 -0.000001 0.349065
    72 0.000000 -0.000003 0.000000 0.000000 0.000000 0.000000
    73 0.000003 0.000000 0.000000 0.000000 0.000000 0.000000
    74 -0.000010 -0.000006 0.000000 -0.000001 0.000000 0.000000
    75 0.000019 0.000002 0.000000 0.000000 0.000000 0.000000
    76 0.000001 0.000004 0.000000 0.000000 0.000000 -0.000001
    77 0.000000 0.000000 0.000000 0.000000 0.000000 -0.000001
    78 0.000001 -0.000002 0.000000 0.000000 0.000000 -0.000001
    79 0.000000 0.000000 0.000000 0.000000 0.000000 -0.000001
    80 0.000001 0.000008 0.000000 0.000000 0.000000 0.000000
    81 -0.000003 0.000004 0.000000 0.000000 0.000000 0.000000
    82 -0.000007 -0.000008 0.000000 0.000000 0.000000 -0.000001
    83 0.000000 0.000002 -0.000002 -1.570796 0.000000 0.000000
  time 1
    0 -5.017036 -16.635501 -4.324597 -1.587743 -0.031955 -1.561787
    1 -1.174805 -1.046875 0.043671 0.000000 0.000004 0.000000
    2 -1.935547 -1.361328 0.226196 0.000000 0.000002 0.000000
    3 -4.549240 -1.689358 -0.012529 0.000000 0.000000 0.000000
    4 4.331499 0.360595 -0.709097 0.000015 0.000003 0.056022
    5 3.513922 0.962076 -0.004281 0.000004 -0.000001 1.176003
    6 2.855053 0.477292 0.679213 -0.000001 -0.000004 2.896619
    7 1.649902 5.878080 0.032496 -0.000003 0.000002 -1.570796
    8 6.587842 -0.691444 0.025964 -0.000001 -0.000001 1.570796
    9 0.000002 -0.241401 -0.052690 0.000001 0.000001 0.000000
    10 10.620066 1.884898 -0.004843 -1.570796 -0.000002 1.570796
    11 -9.087198 1.359573 -0.008167 -0.000003 0.000002 -1.570796
    12 -2.425956 -24.410871 -7.997397 3.105125 -0.048773 -2.093009
    13 1.473659 0.639418 -1.295234 2.246127 0.440239 0.736993
    14 1.832607 0.000002 -0.000008 3.110046 0.047491 0.758067
    15 1.003335 0.000005 0.000001 -3.040001 -0.014385 -0.167803
    16 3.823895 -0.419603 -1.411520 0.229111 -0.129702 0.759604
    17 2.187956 0.000010 0.000000 -0.012073 -0.011780 1.896838
    18 1.100960 0.000002 0.000000 0.384940 -0.022913 0.395371
    19 3.987863 -0.577452 -0.474712 0.106881 -0.099190 0.745908
    20 1.890109 -0.000010 -0.000001 -0.024571 -0.089012 1.713897
    21 1.310925 0.000000 0.000000 0.487414 0.014708 0.431447
    22 4.117986 -0.654534 0.453695 0.083847 -0.114161 0.864721
    23 1.655294 0.000008 0.000000 -0.039666 0.033468 1.386069
    24 0.869582 0.000004 0.000000 0.072424 -0.050415 0.567060
    25 4.150630 -0.581594 1.354863 -0.339133 -0.077116 0.722457
    26 1.157247 -0.000010 -0.000002 -0.226802 -0.320736 1.454288
    27 1.019835 -0.000006 0.000000 -1.463035 -0.151736 0.429393
    28 7.406140 -6.039003 -8.901889 -1.644955 0.561240 -1.933478
    29 12.695427 -0.000020 -0.000008 -0.116577 0.279076 -1.212535
    30 -5.558861 -14.017887 -8.360689 3.053580 -0.024534 -1.551302
    31 1.474215 -0.497926 -1.376118 0.979422 0.426184 -0.250703
    32 1.832179 -0.000010 -0.000002 -2.526087 -0.301597 0.609649
    33 1.042025 -0.000004 -0.000009 -2.896937 -0.278851 -0.192682
    34 3.823320 0.664865 -1.331676 0.244544 0.361997 0.003988
    35 2.152367 -0.000001 0.000004 0.123680 -0.231520 -0.430903
    36 1.056622 -0.000011 0.000000 0.258036 -0.115105 -0.370410
    37 3.985134 0.881805 -0.368986 0.128322 -0.008132 -0.090211
    38 1.830183 0.000015 0.000000 0.063848 -0.073976 -1.510189
    39 1.561352 0.000008 -0.000004 0.027653 -0.015736 -1.357356
    40 4.116518 0.711272 0.551869 0.187923 0.006580 -0.361666
    41 1.752727 0.000006 0.000000 0.026437 0.029573 -1.405267
    42 0.869359 -0.000006 0.000000 0.015642 -0.073583 -0.926098
    43 4.118826 0.331223 1.419829 0.128888 -0.005990 -0.280207
    44 1.176321 0.000006 0.000000 -0.027338 0.139044 -0.923531
    45 0.970199 -0.000002 -0.000004 1.655571 0.044659 -1.487344
    46 -7.606037 1.001330 -4.120493 -2.820176 1.005312 -2.168403
    47 12.706336 -0.000035 -0.000009 -0.291272 0.289112 -1.824639
    48 0.000000 0.000000 -0.000003 0.000000 0.000000 0.000000
    49 1.200000 0.000000 0.000010 0.000000 0.000000 0.000000
    50 0.000010 -0.300000 0.000000 3.141593 0.000000 -0.174533
    51 0.000000 -0.000001 0.000000 0.000000 0.000000 0.000000
    52 -0.000003 0.000000 0.000001 3.141592 0.000000 0.000000
    53 0.000006 0.000000 0.000004 0.000000 0.000000 0.349065
    54 0.000000 0.000000 0.000000 3.141593 0.000000 0.000000
    55 -0.000008 -0.000006 0.000000 3.141593 0.000000 0.000000
    56 0.000002 -0.000002 0.000000 3.141593 0.000000 0.000000
    57 0.000014 -0.000004 0.000000 3.141593 0.000000 0.000000
    58 -0.000001 0.000000 0.000000 3.141593 0.000000 -0.000001
    59 0.000000 0.000000 0.000000 3.141593 0.000000 0.000000
    60 0.000010 0.000017 0.000000 3.141593 0.000000 -0.000001
    61 0.000000 0.000004 0.000000 3.141593 0.000000 -0.000001
    62 0.000000 0.000006 0.000000 3.141593 0.000000 -0.000001
    63 0.000001 0.000002 0.000000 3.141593 0.000000 0.000000
    64 0.000000 0.000000 0.000000 -3.141592 0.000000 0.000000
    65 0.000000 0.000000 0.000000 -1.570797 -0.000001 0.000000
    66 0.000000 0.000000 0.000000 0.000000 0.000000 0.000000
    67 1.200000 0.000000 0.000000 0.000000 0.000000 0.000000
    68 0.000009 0.299994 0.000000 0.000000 0.000000 0.174533
    69 -0.000001 -0.000001 -0.000004 0.000000 0.000000 0.000000
    70 -0.000010 0.000000 -0.000003 -3.141592 0.000001 0.000000
    71 0.000000 0.000000 0.000000 0.000001 -0.000001 0.349065
    72 0.000000 -0.000003 0.000000 0.000000 0.000000 0.000000
    73 0.000003 0.000000 0.000000 0.000000 0.000000 0.000000
    74 -0.000010 -0.000006 0.000000 -0.000001 0.000000 0.000000
    75 0.000019 0.000002 0.000000 0.000000 0.000000 0.000000
    76 0.000001 0.000004 0.000000 0.000000 0.000000 -0.000001
    77 0.000000 0.000000 0.000000 0.000000 0.000000 -0.000001
    78 0.000001 -0.000002 0.000000 0.000000 0.000000 -0.000001
    79 0.000000 0.000000 0.000000 0.000000 0.000000 -0.000001
    80 0.000001 0.000008 0.000000 0.000000 0.000000 0.000000
    81 -0.000003 0.000004 0.000000 0.000000 0.000000 0.000000
    82 -0.000007 -0.000008 0.000000 0.000000 0.000000 -0.000001
    83 0.000000 0.000002 -0.000002 -1.570796 0.000000 0.000000
  time 2
    0 -5.102976 -16.553467 -4.480852 -1.570439 -0.064303 -1.543900
    1 -1.174805 -1.046875 0.043671 0.000000 0.000004 0.000000
    2 -1.935547 -1.361328 0.226196 0.000000 0.000002 0.000000
    3 -4.549240 -1.689358 -0.012529 0.000000 0.000000 0.000000
    4 4.331499 0.360595 -0.709097 0.000015 0.000003 0.056022
    5 3.513922 0.962076 -0.004281 0.000004 -0.000001 1.176003
    6 2.855053 0.477292 0.679213 -0.000001 -0.000004 2.896619
    7 1.649902 5.878080 0.032496 -0.000003 0.000002 -1.570796
    8 6.587842 -0.691444 0.025964 -0.000001 -0.000001 1.570796
    9 0.000002 -0.241401 -0.052690 0.000001 0.000001 0.000000
    10 10.620066 1.884898 -0.004843 -1.570796 -0.000002 1.570796
    11 -9.087198 1.359573 -0.008167 -0.000003 0.000002 -1.570796
    12 -2.300952 -24.387433 -7.856768 3.136697 -0.067768 -2.076277
    13 1.473659 0.639418 -1.295234 2.246127 0.440239 0.736993
    14 1.832607 0.000002 -0.000008 3.110046 0.047491 0.758067
    15 1.003335 0.000005 0.000001 -3.040001 -0.014397 -0.167803
    16 3.823895 -0.419603 -1.411520 0.229111 -0.129702 0.759604
    17 2.187956 0.000010 0.000000 -0.012073 -0.011780 1.896838
    18 1.100960 0.000002 0.000000 0.384940 -0.022913 0.395371
    19 3.987863 -0.577452 -0.474712 0.106881 -0.099190 0.745908
    20 1.890109 -0.000010 -0.000001 -0.024571 -0.089012 1.713779
    21 1.310925 0.000000 0.000000 0.487414 0.014708 0.431447
    22 4.117986 -0.654534 0.453695 0.083847 -0.114161 0.864721
    23 1.655294 0.000008 0.000000 -0.039666 0.033468 1.386069
    24 0.869582 0.000004 0.000000 0.072424 -0.050415 0.567060
    25 4.150630 -0.581594 1.354863 -0.339133 -0.077116 0.722457
    26 1.157247 -0.000010 -0.000002 -0.226802 -0.320736 1.454288
    27 1.019835 -0.000006 0.000000 -1.463035 -0.151736 0.429393
    28 7.406140 -6.039003 -8.901889 -1.649238 0.559163 -1.930162
    29 12.695427 -0.000020 -0.000008 -0.119179 0.280011 -1.222024
    30 -5.613550 -14.068669 -8.606790 3.070550 -0.056982 -1.532619
    31 1.474215 -0.497926 -1.376118 0.979422 0.426184 -0.250703
    32 1.832179 -0.000010 -0.000002 -2.526087 -0.301597 0.609649
    33 1.042025 -0.000004 -0.000009 -2.896973 -0.278851 -0.192682
    34 3.823320 0.664865 -1.331676 0.244544 0.361997 0.003988
    35 2.152367 -0.000001 0.000004 0.123680 -0.231520 -0.430903
    36 1.056622 -0.000011 0.000000 0.258036 -0.115105 -0.370410
    37 3.985134 0.881805 -0.368986 0.128322 -0.008132 -0.090211
    38 1.830183 0.000015 0.000000 0.063848 -0.073976 -1.510189
    39 1.561352 0.000008 -0.000004 0.027653 -0.015736 -1.357356
    40 4.116518 0.711272 0.551869 0.187923 0.006580 -0.361666
    41 1.752727 0.000006 0.000000 0.026437 0.029573 -1.405299
    42 0.869359 -0.000006 0.000000 0.015642 -0.073583 -0.926098
    43 4.118826 0.331223 1.419829 0.128888 -0.005990 -0.280207
    44 1.176321 0.000006 0.000000 -0.027338 0.139044 -0.923531
    45 0.970199 -0.000002 -0.000004 1.655571 0.044659 -1.487344
    46 -7.606037 1.001330 -4.120493 -2.841820 1.006713 -2.185897
    47 12.706336 -0.000035 -0.000009 -0.287848 0.289939 -1.812578
    48 0.000000 0.000000 -0.000003 0.000000 0.000000 0.000000
    49 1.200000 0.000000 0.000010 0.000000 0.000000 0.000000
    50 0.000010 -0.300000 0.000000 3.141593 0.000000 -0.174533
    51 0.000000 -0.000001 0.000000 0.000000 0.000000 0.000000
    52 -0.000003 0.000000 0.000001 3.141592 0.000000 0.000000
    53 0.000006 0.000000 0.000004 0.000000 0.000000 0.349065
    54 0.000000 0.000000 0.000000 3.141593 0.000000 0.000000
    55 -0.000008 -0.000006 0.000000 3.141593 0.000000 0.000000
    56 0.000002 -0.000002 0.000000 3.141593 0.000000 0.000000
    57 0.000014 -0.000004 0.000000 3.141593 0.000000 0.000000
    58 -0.000001 0.000000 0.000000 3.141593 0.000000 -0.000001
    59 0.000000 0.000000 0.000000 3.141593 0.000000 0.000000
    60 0.000010 0.000017 0.000000 3.141593 0.000000 -0.000001
    61 0.000000 0.000004 0.000000 3.141593 0.000000 -0.000001
    62 0.000000 0.000006 0.000000 3.141593 0.000000 -0.000001
    63 0.000001 0.000002 0.000000 3.141593 0.000000 0.000000
    64 0.000000 0.000000 0.000000 -3.141592 0.000000 0.000000
    65 0.000000 0.000000 0.000000 -1.570797 -0.000001 0.000000
    66 0.000000 0.000000 0.000000 0.000000 0.000000 0.000000
    67 1.200000 0.000000 0.000000 0.000000 0.000000 0.000000
    68 0.000009 0.299994 0.000000 0.000000 0.000000 0.174533
    69 -0.000001 -0.000001 -0.000004 0.000000 0.000000 0.000000
    70 -0.000010 0.000000 -0.000003 -3.141592 0.000001 0.000000
    71 0.000000 0.000000 0.000000 0.000001 -0.000001 0.349065
    72 0.000000 -0.000003 0.000000 0.000000 0.000000 0.000000
    73 0.000003 0.000000 0.000000 0.000000 0.000000 0.000000
    74 -0.000010 -0.000006 0.000000 -0.000001 0.000000 0.000000
    75 0.000019 0.000002 0.000000 0.000000 0.000000 0.000000
    76 0.000001 0.000004 0.000000 0.000000 0.000000 -0.000001
    77 0.000000 0.000000 0.000000 0.000000 0.000000 -0.000001
    78 0.000001 -0.000002 0.000000 0.000000 0.000000 -0.000001
    79 0.000000 0.000000 0.000000 0.000000 0.000000 -0.000001
    80 0.000001 0.000008 0.000000 0.000000 0.000000 0.000000
    81 -0.000003 0.000004 0.000000 0.000000 0.000000 0.000000
    82 -0.000007 -0.000008 0.000000 0.000000 0.000000 -0.000001
    83 0.000000 0.000002 -0.000002 -1.570796 0.000000 0.000000
  time 3
    0 -5.048287 -16.475340 -4.625388 -1.582050 -0.056012 -1.526368
    1 -1.174805 -1.046875 0.043671 0.000000 0.000004 0.000000
    2 -1.935547 -1.361328 0.226196 0.000000 0.000002 0.000000
    3 -4.549240 -1.689358 -0.012529 0.000000 0.000000 0.000000
    4 4.331499 0.360595 -0.709097 0.000015 0.000003 0.056022
    5 3.513922 0.962076 -0.004281 0.000004 -0.000001 1.176003
    6 2.855053 0.477292 0.679213 -0.000001 -0.000004 2.896619
    7 1.649902 5.878080 0.032496 -0.000003 0.000002 -1.570796
    8 6.587842 -0.691444 0.025964 -0.000001 -0.000001 1.570796
    9 0.000002 -0.241401 -0.052690 0.000001 0.000001 0.000000
    10 10.620066 1.884898 -0.004843 -1.570796 -0.000002 1.570796
    11 -9.087198 1.359573 -0.008167 -0.000003 0.000002 -1.570796
    12 -2.156417 -24.238991 -8.091150 3.122097 -0.066601 -2.058386
    13 1.473659 0.639418 -1.295234 2.246127 0.440239 0.736993
    14 1.832607 0.000002 -0.000008 3.110046 0.047491 0.758067
    15 1.003335 0.000005 0.000001 -3.040001 -0.014385 -0.167803
    16 3.823895 -0.419603 -1.411520 0.229111 -0.129702 0.759604
    17 2.187956 0.000010 0.000000 -0.012073 -0.011780 1.896838
    18 1.100960 0.000002 0.000000 0.384940 -0.022913 0.395371
    19 3.987863 -0.577452 -0.474712 0.106881 -0.099190 0.745908
    20 1.890109 -0.000010 -0.000001 -0.024571 -0.089012 1.713897
    21 1.310925 0.000000 0.000000 0.487414 0.014708 0.431447
    22 4.117986 -0.654534 0.453695 0.083847 -0.114161 0.864721
    23 1.655294 0.000008 0.000000 -0.039666 0.033468 1.386069
    24 0.869582 0.000004 0.000000 0.072424 -0.050415 0.567060
    25 4.150630 -0.581594 1.354863 -0.339133 -0.077116 0.722457
    26 1.157247 -0.000010 -0.000002 -0.226802 -0.320736 1.454288
    27 1.019835 -0.000006 0.000000 -1.463035 -0.151736 0.429393
    28 7.406140 -6.039003 -8.901889 -1.649238 0.584670 -1.925002
    29 12.695427 -0.000020 -0.000008 -0.127472 0.282876 -1.251361
    30 -5.652614 -13.974916 -8.723981 3.058953 -0.048595 -1.515783
    31 1.474215 -0.497926 -1.376118 0.979422 0.426184 -0.250703
    32 1.832179 -0.000010 -0.000002 -2.526087 -0.301597 0.609649
    33 1.042025 -0.000004 -0.000009 -2.896937 -0.278851 -0.192682
    34 3.823320 0.664865 -1.331676 0.244544 0.361997 0.003988
    35 2.152367 -0.000001 0.000004 0.123680 -0.231520 -0.430903
    36 1.056622 -0.000011 0.000000 0.258036 -0.115105 -0.370410
    37 3.985134 0.881805 -0.368986 0.128322 -0.008132 -0.090211
    38 1.830183 0.000015 0.000000 0.063848 -0.073976 -1.510189
    39 1.561352 0.000008 -0.000004 0.027653 -0.015736 -1.357356
    40 4.116518 0.711272 0.551869 0.187923 0.006580 -0.361666
    41 1.752727 0.000006 0.000000 0.026437 0.029573 -1.405299
    42 0.869359 -0.000006 0.000000 0.015642 -0.073583 -0.926098
    43 4.118826 0.331223 1.419829 0.128888 -0.005990 -0.280207
    44 1.176321 0.000006 0.000000 -0.027338 0.139044 -0.923531
    45 0.970199 -0.000002 -0.000004 1.655571 0.044659 -1.487344
    46 -7.606037 1.001330 -4.120493 -2.865962 1.011018 -2.207702
    47 12.706336 -0.000035 -0.000009 -0.289866 0.289351 -1.819532
    48 0.000000 0.000000 -0.000003 0.000000 0.000000 0.000000
    49 1.200000 0.000000 0.000010 0.000000 0.000000 0.000000
    50 0.000010 -0.300000 0.000000 3.141593 0.000000 -0.174533
    51 0.000000 -0.000001 0.000000 0.000000 0.000000 0.000000
    52 -0.000003 0.000000 0.000001 3.141592 0.000000 0.000000
    53 0.000006 0.000000 0.000004 0.000000 0.000000 0.349065
    54 0.000000 0.000000 0.000000 3.141593 0.000000 0.000000
    55 -0.000008 -0.000006 0.000000 3.141593 0.000000 0.000000
    56 0.000002 -0.000002 0.000000 3.141593 0.000000 0.000000
    57 0.000014 -0.000004 0.000000 3.141593 0.000000 0.000000
    58 -0.000001 0.000000 0.000000 3.141593 0.000000 -0.000001
    59 0.000000 0.000000 0.000000 3.141593 0.000000 0.000000
    60 0.000010 0.000017 0.000000 3.141593 0.000000 -0.000001
    61 0.000000 0.000004 0.000000 3.141593 0.000000 -0.000001
    62 0.000000 0.000006 0.000000 3.141593 0.000000 -0.000001
    63 0.000001 0.000002 0.000000 3.141593 0.000000 0.000000
    64 0.000000 0.000000 0.000000 -3.141592 0.000000 0.000000
    65 0.000000 0.000000 0.000000 -1.570797 -0.000001 0.000000
    66 0.000000 0.000000 0.000000 0.000000 0.000000 0.000000
    67 1.200000 0.000000 0.000000 0.000000 0.000000 0.000000
    68 0.000009 0.299994 0.000000 0.000000 0.000000 0.174533
    69 -0.000001 -0.000001 -0.000004 0.000000 0.000000 0.000000
    70 -0.000010 0.000000 -0.000003 -3.141592 0.000001 0.000000
    71 0.000000 0.000000 0.000000 0.000001 -0.000001 0.349065
    72 0.000000 -0.000003 0.000000 0.000000 0.000000 0.000000
    73 0.000003 0.000000 0.000000 0.000000 0.000000 0.000000
    74 -0.000010 -0.000006 0.000000 -0.000001 0.000000 0.000000
    75 0.000019 0.000002 0.000000 0.000000 0.000000 0.000000
    76 0.000001 0.000004 0.000000 0.000000 0.000000 -0.000001
    77 0.000000 0.000000 0.000000 0.000000 0.000000 -0.000001
    78 0.000001 -0.000002 0.000000 0.000000 0.000000 -0.000001
    79 0.000000 0.000000 0.000000 0.000000 0.000000 -0.000001
    80 0.000001 0.000008 0.000000 0.000000 0.000000 0.000000
    81 -0.000003 0.000004 0.000000 0.000000 0.000000 0.000000
    82 -0.000007 -0.000008 0.000000 0.000000 0.000000 -0.000001
    83 0.000000 0.000002 -0.000002 -1.570796 0.000000 0.000000
  time 4
    0 -4.880313 -16.385493 -4.777736 -1.615715 -0.030460 -1.506777
    1 -1.174805 -1.046875 0.043671 0.000000 0.000004 0.000000
    2 -1.935547 -1.361328 0.226196 0.000000 0.000002 0.000000
    3 -4.549240 -1.689358 -0.012529 0.000000 0.000000 0.000000
    4 4.331499 0.360595 -0.709097 0.000015 0.000003 0.056022
    5 3.513922 0.962076 -0.004281 0.000004 -0.000001 1.176003
    6 2.855053 0.477292 0.679213 -0.000001 -0.000004 2.896619
    7 1.649902 5.878080 0.032496 -0.000003 0.000002 -1.570796
    8 6.587842 -0.691444 0.025964 -0.000001 -0.000001 1.570796
    9 0.000002 -0.241401 -0.052690 0.000001 0.000001 0.000000
    10 10.620066 1.884898 -0.004843 -1.570796 -0.000002 1.570796
    11 -9.087198 1.359573 -0.008167 -0.000003 0.000002 -1.570796
    12 -1.972817 -24.008515 -8.532570 3.080307 -0.061651 -2.037018
    13 1.473659 0.639418 -1.295234 2.246127 0.440239 0.736993
    14 1.832607 0.000002 -0.000008 3.110046 0.047491 0.758067
    15 1.003335 0.000005 0.000001 -3.040001 -0.014397 -0.167803
    16 3.823895 -0.419603 -1.411520 0.229111 -0.129702 0.759604
    17 2.187956 0.000010 0.000000 -0.012073 -0.011780 1.896838
    18 1.100960 0.000002 0.000000 0.384940 -0.022913 0.395371
    19 3.987863 -0.577452 -0.474712 0.106881 -0.099190 0.745908
    20 1.890109 -0.000010 -0.000001 -0.024571 -0.089012 1.713897
    21 1.310925 0.000000 0.000000 0.487414 0.014708 0.431447
    22 4.117986 -0.654534 0.453695 0.083847 -0.114161 0.864721
    23 1.655294 0.000008 0.000000 -0.039666 0.033468 1.386069
    24 0.869582 0.000004 0.000000 0.072424 -0.050415 0.567060
    25 4.150630 -0.581594 1.354863 -0.339133 -0.077116 0.722457
    26 1.157247 -0.000010 -0.000002 -0.226802 -0.320736 1.454288
    27 1.019835 -0.000006 0.000000 -1.463035 -0.151736 0.429393
    28 7.406140 -6.039003 -8.901889 -1.647715 0.625465 -1.918000
    29 12.695427 -0.000020 -0.000008 -0.138887 0.286135 -1.292006
    30 -5.672146 -13.803036 -8.794296 3.025640 -0.022716 -1.495324
    31 1.474215 -0.497926 -1.376118 0.979422 0.426184 -0.250703
    32 1.832179 -0.000010 -0.000002 -2.526087 -0.301597 0.609649
    33 1.042025 -0.000004 -0.000009 -2.896937 -0.278827 -0.192682
    34 3.823320 0.664865 -1.331676 0.244544 0.361997 0.003988
    35 2.152367 -0.000001 0.000004 0.123680 -0.231520 -0.430903
    36 1.056622 -0.000011 0.000000 0.258036 -0.115105 -0.370410
    37 3.985134 0.881805 -0.368986 0.128322 -0.008132 -0.090211
    38 1.830183 0.000015 0.000000 0.063848 -0.073976 -1.510189
    39 1.561352 0.000008 -0.000004 0.027653 -0.015736 -1.357356
    40 4.116518 0.711272 0.551869 0.187923 0.006580 -0.361666
    41 1.752727 0.000006 0.000000 0.026437 0.029573 -1.405299
    42 0.869359 -0.000006 0.000000 0.015642 -0.073583 -0.926098
    43 4.118826 0.331223 1.419829 0.128888 -0.005990 -0.280207
    44 1.176321 0.000006 0.000000 -0.027338 0.139044 -0.923531
    45 0.970199 -0.000002 -0.000004 1.655571 0.044659 -1.487344
    46 -7.606037 1.001330 -4.120493 -2.893989 1.016157 -2.232818
    47 12.706336 -0.000035 -0.000009 -0.294006 0.288381 -1.834361
    48 0.000000 0.000000 -0.000003 0.000000 0.000000 0.000000
    49 1.200000 0.000000 0.000010 0.000000 0.000000 0.000000
    50 0.000010 -0.300000 0.000000 3.141593 0.000000 -0.174533
    51 0.000000 -0.000001 0.000000 0.000000 0.000000 0.000000
    52 -0.000003 0.000000 0.000001 3.141592 0.000000 0.000000
    53 0.000006 0.000000 0.000004 0.000000 0.000000 0.349065
    54 0.000000 0.000000 0.000000 3.141593 0.000000 0.000000
    55 -0.000008 -0.000006 0.000000 3.141593 0.000000 0.000000
    56 0.000002 -0.000002 0.000000 3.141593 0.000000 0.000000
    57 0.000014 -0.000004 0.000000 3.141593 0.000000 0.000000
    58 -0.000001 0.000000 0.000000 3.141593 0.000000 -0.000001
    59 0.000000 0.000000 0.000000 3.141593 0.000000 0.000000
    60 0.000010 0.000017 0.000000 3.141593 0.000000 -0.000001
    61 0.000000 0.000004 0.000000 3.141593 0.000000 -0.000001
    62 0.000000 0.000006 0.000000 3.141593 0.000000 -0.000001
    63 0.000001 0.000002 0.000000 3.141593 0.000000 0.000000
    64 0.000000 0.000000 0.000000 -3.141592 0.000000 0.000000
    65 0.000000 0.000000 0.000000 -1.570797 -0.000001 0.000000
    66 0.000000 0.000000 0.000000 0.000000 0.000000 0.000000
    67 1.200000 0.000000 0.000000 0.000000 0.000000 0.000000
    68 0.000009 0.299994 0.000000 0.000000 0.000000 0.174533
    69 -0.000001 -0.000001 -0.000004 0.000000 0.000000 0.000000
    70 -0.000010 0.000000 -0.000003 -3.141592 0.000001 0.000000
    71 0.000000 0.000000 0.000000 0.000001 -0.000001 0.349065
    72 0.000000 -0.000003 0.000000 0.000000 0.000000 0.000000
    73 0.000003 0.000000 0.000000 0.000000 0.000000 0.000000
    74 -0.000010 -0.000006 0.000000 -0.000001 0.000000 0.000000
    75 0.000019 0.000002 0.000000 0.000000 0.000000 0.000000
    76 0.000001 0.000004 0.000000 0.000000 0.000000 -0.000001
    77 0.000000 0.000000 0.000000 0.000000 0.000000 -0.000001
    78 0.000001 -0.000002 0.000000 0.000000 0.000000 -0.000001
    79 0.000000 0.000000 0.000000 0.000000 0.000000 -0.000001
    80 0.000001 0.000008 0.000000 0.000000 0.000000 0.000000
    81 -0.000003 0.000004 0.000000 0.000000 0.000000 0.000000
    82 -0.000007 -0.000008 0.000000 0.000000 0.000000 -0.000001
    83 0.000000 0.000002 -0.000002 -1.570796 0.000000 0.000000
  time 5
    0 -4.614680 -16.291740 -4.949616 -1.666145 0.009952 -1.485980
    1 -1.174805 -1.046875 0.043671 0.000000 0.000004 0.000000
    2 -1.935547 -1.361328 0.226196 0.000000 0.000002 0.000000
    3 -4.549240 -1.689358 -0.012529 0.000000 0.000000 0.000000
    4 4.331499 0.360595 -0.709097 0.000015 0.000003 0.056022
    5 3.513922 0.962076 -0.004281 0.000004 -0.000001 1.176003
    6 2.855053 0.477292 0.679213 -0.000001 -0.000004 2.896619
    7 1.649902 5.878080 0.032496 -0.000003 0.000002 -1.570796
    8 6.587842 -0.691444 0.025964 -0.000001 -0.000001 1.570796
    9 0.000002 -0.241401 -0.052690 0.000001 0.000001 0.000000
    10 10.620066 1.884898 -0.004843 -1.570796 -0.000002 1.570796
    11 -9.087198 1.359573 -0.008167 -0.000003 0.000002 -1.570796
    12 -1.769686 -23.711631 -9.126338 3.016982 -0.051992 -2.013622
    13 1.473659 0.639418 -1.295234 2.246127 0.440239 0.736993
    14 1.832607 0.000002 -0.000008 3.110046 0.047491 0.758067
    15 1.003335 0.000005 0.000001 -3.040001 -0.014397 -0.167803
    16 3.823895 -0.419603 -1.411520 0.229111 -0.129702 0.759604
    17 2.187956 0.000010 0.000000 -0.012073 -0.011780 1.896838
    18 1.100960 0.000002 0.000000 0.384940 -0.022913 0.395371
    19 3.987863 -0.577452 -0.474712 0.106881 -0.099190 0.745908
    20 1.890109 -0.000010 -0.000001 -0.024571 -0.089012 1.713897
    21 1.310925 0.000000 0.000000 0.487414 0.014708 0.431447
    22 4.117986 -0.654534 0.453695 0.083847 -0.114161 0.864721
    23 1.655294 0.000008 0.000000 -0.039666 0.033468 1.386069
    24 0.869582 0.000004 0.000000 0.072424 -0.050415 0.567060
    25 4.150630 -0.581594 1.354863 -0.339133 -0.077116 0.722457
    26 1.157247 -0.000010 -0.000002 -0.226802 -0.320736 1.454288
    27 1.019835 -0.000006 0.000000 -1.463035 -0.151736 0.429393
    28 7.406140 -6.039003 -8.901889 -1.644955 0.677975 -1.910261
    29 12.695427 -0.000020 -0.000008 -0.152468 0.289635 -1.340242
    30 -5.672146 -13.568654 -8.817734 2.975581 0.018257 -1.475504
    31 1.474215 -0.497926 -1.376118 0.979422 0.426184 -0.250703
    32 1.832179 -0.000010 -0.000002 -2.526087 -0.301597 0.609649
    33 1.042025 -0.000004 -0.000009 -2.896901 -0.278827 -0.192682
    34 3.823320 0.664865 -1.331676 0.244544 0.361997 0.003988
    35 2.152367 -0.000001 0.000004 0.123680 -0.231520 -0.430903
    36 1.056622 -0.000011 0.000000 0.258036 -0.115105 -0.370410
    37 3.985134 0.881805 -0.368986 0.128322 -0.008132 -0.090211
    38 1.830183 0.000015 0.000000 0.063848 -0.073976 -1.510189
    39 1.561352 0.000008 -0.000004 0.027653 -0.015736 -1.357356
    40 4.116518 0.711272 0.551869 0.187923 0.006580 -0.361666
    41 1.752727 0.000006 0.000000 0.026437 0.029573 -1.405299
    42 0.869359 -0.000006 0.000000 0.015642 -0.073583 -0.926098
    43 4.118826 0.331223 1.419829 0.128888 -0.005990 -0.280207
    44 1.176321 0.000006 0.000000 -0.027338 0.139044 -0.923531
    45 0.970199 -0.000002 -0.000004 1.655571 0.044659 -1.487344
    46 -7.606037 1.001330 -4.120493 -2.922640 1.021262 -2.258059
    47 12.706336 -0.000035 -0.000009 -0.300034 0.286811 -1.855282
    48 0.000000 0.000000 -0.000003 0.000000 0.000000 0.000000
    49 1.200000 0.000000 0.000010 0.000000 0.000000 0.000000
    50 0.000010 -0.300000 0.000000 3.141593 0.000000 -0.174533
    51 0.000000 -0.000001 0.000000 0.000000 0.000000 0.000000
    52 -0.000003 0.000000 0.000001 3.141592 0.000000 0.000000
    53 0.000006 0.000000 0.000004 0.000000 0.000000 0.349065
    54 0.000000 0.000000 0.000000 3.141593 0.000000 0.000000
    55 -0.000008 -0.000006 0.000000 3.141593 0.000000 0.000000
    56 0.000002 -0.000002 0.000000 3.141593 0.000000 0.000000
    57 0.000014 -0.000004 0.000000 3.141593 0.000000 0.000000
    58 -0.000001 0.000000 0.000000 3.141593 0.000000 -0.000001
    59 0.000000 0.000000 0.000000 3.141593 0.000000 0.000000
    60 0.000010 0.000017 0.000000 3.141593 0.000000 -0.000001
    61 0.000000 0.000004 0.000000 3.141593 0.000000 -0.000001
    62 0.000000 0.000006 0.000000 3.141593 0.000000 -0.000001
    63 0.000001 0.000002 0.000000 3.141593 0.000000 0.000000
    64 0.000000 0.000000 0.000000 -3.141592 0.000000 0.000000
    65 0.000000 0.000000 0.000000 -1.570797 -0.000001 0.000000
    66 0.000000 0.000000 0.000000 0.000000 0.000000 0.000000
    67 1.200000 0.000000 0.000000 0.000000 0.000000 0.000000
    68 0.000009 0.299994 0.000000 0.000000 0.000000 0.174533
    69 -0.000001 -0.000001 -0.000004 0.000000 0.000000 0.000000
    70 -0.000010 0.000000 -0.000003 -3.141592 0.000001 0.000000
    71 0.000000 0.000000 0.000000 0.000001 -0.000001 0.349065
    72 0.000000 -0.000003 0.000000 0.000000 0.000000 0.000000
    73 0.000003 0.000000 0.000000 0.000000 0.000000 0.000000
    74 -0.000010 -0.000006 0.000000 -0.000001 0.000000 0.000000
    75 0.000019 0.000002 0.000000 0.000000 0.000000 0.000000
    76 0.000001 0.000004 0.000000 0.000000 0.000000 -0.000001
    77 0.000000 0.000000 0.000000 0.000000 0.000000 -0.000001
    78 0.000001 -0.000002 0.000000 0.000000 0.000000 -0.000001
    79 0.000000 0.000000 0.000000 0.000000 0.000000 -0.000001
    80 0.000001 0.000008 0.000000 0.000000 0.000000 0.000000
    81 -0.000003 0.000004 0.000000 0.000000 0.000000 0.000000
    82 -0.000007 -0.000008 0.000000 0.000000 0.000000 -0.000001
    83 0.000000 0.000002 -0.000002 -1.570796 0.000000 0.000000
  time 6
    0 -4.290451 -16.194081 -5.113684 -1.722537 0.058111 -1.468306
    1 -1.174805 -1.046875 0.043671 0.000000 0.000004 0.000000
    2 -1.935547 -1.361328 0.226196 0.000000 0.000002 0.000000
    3 -4.549240 -1.689358 -0.012529 0.000000 0.000000 0.000000
    4 4.331499 0.360595 -0.709097 0.000015 0.000003 0.056022
    5 3.513922 0.962076 -0.004281 0.000004 -0.000001 1.176003
    6 2.855053 0.477292 0.679213 -0.000001 -0.000004 2.896619
    7 1.649902 5.878080 0.032496 -0.000003 0.000002 -1.570796
    8 6.587842 -0.691444 0.025964 -0.000001 -0.000001 1.570796
    9 0.000002 -0.241401 -0.052690 0.000001 0.000001 0.000000
    10 10.620066 1.884898 -0.004843 -1.570796 -0.000002 1.570796
    11 -9.087198 1.359573 -0.008167 -0.000003 0.000002 -1.570796
    12 -1.570461 -23.367870 -9.778702 2.943803 -0.038712 -1.990733
    13 1.473659 0.639418 -1.295234 2.246127 0.440239 0.736993
    14 1.832607 0.000002 -0.000008 3.110046 0.047491 0.758067
    15 1.003335 0.000005 0.000001 -3.040001 -0.014397 -0.167803
    16 3.823895 -0.419603 -1.411520 0.229111 -0.129702 0.759604
    17 2.187956 0.000010 0.000000 -0.012073 -0.011780 1.896838
    18 1.100960 0.000002 0.000000 0.384940 -0.022913 0.395371
    19 3.987863 -0.577452 -0.474712 0.106881 -0.099190 0.745908
    20 1.890109 -0.000010 -0.000001 -0.024571 -0.089012 1.713779
    21 1.310925 0.000000 0.000000 0.487414 0.014708 0.431447
    22 4.117986 -0.654534 0.453695 0.083847 -0.114161 0.864721
    23 1.655294 0.000008 0.000000 -0.039666 0.033468 1.386069
    24 0.869582 0.000004 0.000000 0.072424 -0.050415 0.567060
    25 4.150630 -0.581594 1.354863 -0.339133 -0.077116 0.722457
    26 1.157247 -0.000010 -0.000002 -0.226802 -0.320736 1.454288
    27 1.019835 -0.000006 0.000000 -1.463035 -0.151736 0.429393
    28 7.406140 -6.039003 -8.901889 -1.640005 0.734681 -1.901785
    29 12.695427 -0.000020 -0.000008 -0.166351 0.292307 -1.388795
    30 -5.633082 -13.345991 -8.794296 2.919746 0.067036 -1.458313
    31 1.474215 -0.497926 -1.376118 0.979422 0.426184 -0.250703
    32 1.832179 -0.000010 -0.000002 -2.526087 -0.301597 0.609649
    33 1.042025 -0.000004 -0.000009 -2.896937 -0.278839 -0.192682
    34 3.823320 0.664865 -1.331676 0.244544 0.361997 0.003988
    35 2.152367 -0.000001 0.000004 0.123680 -0.231520 -0.430903
    36 1.056622 -0.000011 0.000000 0.258036 -0.115105 -0.370410
    37 3.985134 0.881805 -0.368986 0.128322 -0.008132 -0.090211
    38 1.830183 0.000015 0.000000 0.063848 -0.073976 -1.510189
    39 1.561352 0.000008 -0.000004 0.027653 -0.015736 -1.357356
    40 4.116518 0.711272 0.551869 0.187923 0.006580 -0.361666
    41 1.752727 0.000006 0.000000 0.026425 0.029573 -1.405299
    42 0.869359 -0.000006 0.000000 0.015642 -0.073583 -0.926098
    43 4.118826 0.331223 1.419829 0.128888 -0.005990 -0.280207
    44 1.176321 0.000006 0.000000 -0.027338 0.139044 -0.923531
    45 0.970199 -0.000002 -0.000004 1.655571 0.044659 -1.487344
    46 -7.606037 1.001330 -4.120493 -2.949210 1.025300 -2.279114
    47 12.706336 -0.000035 -0.000009 -0.306322 0.284929 -1.877987
    48 0.000000 0.000000 -0.000003 0.000000 0.000000 0.000000
    49 1.200000 0.000000 0.000010 0.000000 0.000000 0.000000
    50 0.000010 -0.300000 0.000000 3.141593 0.000000 -0.174533
    51 0.000000 -0.000001 0.000000 0.000000 0.000000 0.000000
    52 -0.000003 0.000000 0.000001 3.141592 0.000000 0.000000
    53 0.000006 0.000000 0.000004 0.000000 0.000000 0.349065
    54 0.000000 0.000000 0.000000 3.141593 0.000000 0.000000
    55 -0.000008 -0.000006 0.000000 3.141593 0.000000 0.000000
    56 0.000002 -0.000002 0.000000 3.141593 0.000000 0.000000
    57 0.000014 -0.000004 0.000000 3.141593 0.000000 0.000000
    58 -0.000001 0.000000 0.000000 3.141593 0.000000 -0.000001
    59 0.000000 0.000000 0.000000 3.141593 0.000000 0.000000
    60 0.000010 0.000017 0.000000 3.141593 0.000000 -0.000001
    61 0.000000 0.000004 0.000000 3.141593 0.000000 -0.000001
    62 0.000000 0.000006 0.000000 3.141593 0.000000 -0.000001
    63 0.000001 0.000002 0.000000 3.141593 0.000000 0.000000
    64 0.000000 0.000000 0.000000 -3.141592 0.000000 0.000000
    65 0.000000 0.000000 0.000000 -1.570797 -0.000001 0.000000
    66 0.000000 0.000000 0.000000 0.000000 0.000000 0.000000
    67 1.200000 0.000000 0.000000 0.000000 0.000000 0.000000
    68 0.000009 0.299994 0.000000 0.000000 0.000000 0.174533
    69 -0.000001 -0.000001 -0.000004 0.000000 0.000000 0.000000
    70 -0.000010 0.000000 -0.000003 -3.141592 0.000001 0.000000
    71 0.000000 0.000000 0.000000 0.000001 -0.000001 0.349065
    72 0.000000 -0.000003 0.000000 0.000000 0.000000 0.000000
    73 0.000003 0.000000 0.000000 0.000000 0.000000 0.000000
    74 -0.000010 -0.000006 0.000000 -0.000001 0.000000 0.000000
    75 0.000019 0.000002 0.000000 0.000000 0.000000 0.000000
    76 0.000001 0.000004 0.000000 0.000000 0.000000 -0.000001
    77 0.000000 0.000000 0.000000 0.000000 0.000000 -0.000001
    78 0.000001 -0.000002 0.000000 0.000000 0.000000 -0.000001
    79 0.000000 0.000000 0.000000 0.000000 0.000000 -0.000001
    80 0.000001 0.000008 0.000000 0.000000 0.000000 0.000000
    81 -0.000003 0.000004 0.000000 0.000000 0.000000 0.000000
    82 -0.000007 -0.000008 0.000000 0.000000 0.000000 -0.000001
    83 0.000000 0.000002 -0.000002 -1.570796 0.000000 0.000000
  time 7
    0 -3.966223 -16.100328 -5.273845 -1.771354 0.103431 -1.454323
    1 -1.174805 -1.046875 0.043671 0.000000 0.000004 0.000000
    2 -1.935547 -1.361328 0.226196 0.000000 0.000002 0.000000
    3 -4.549240 -1.689358 -0.012529 0.000000 0.000000 0.000000
    4 4.331499 0.360595 -0.709097 0.000015 0.000003 0.056022
    5 3.513922 0.962076 -0.004281 0.000004 -0.000001 1.176003
    6 2.855053 0.477292 0.679213 -0.000001 -0.000004 2.896619
    7 1.649902 5.878080 0.032496 -0.000003 0.000002 -1.570796
    8 6.587842 -0.691444 0.025964 -0.000001 -0.000001 1.570796
    9 0.000002 -0.241401 -0.052690 0.000001 0.000001 0.000000
    10 10.620066 1.884898 -0.004843 -1.570796 -0.000002 1.570796
    11 -9.087198 1.359573 -0.008167 -0.000003 0.000002 -1.570796
    12 -1.379049 -23.039735 -10.349032 2.879201 -0.023500 -1.970814
    13 1.473659 0.639418 -1.295234 2.246127 0.440239 0.736993
    14 1.832607 0.000002 -0.000008 3.110046 0.047491 0.758067
    15 1.003335 0.000005 0.000001 -3.040001 -0.014397 -0.167803
    16 3.823895 -0.419603 -1.411520 0.229111 -0.129702 0.759604
    17 2.187956 0.000010 0.000000 -0.012073 -0.011780 1.896838
    18 1.100960 0.000002 0.000000 0.384940 -0.022913 0.395371
    19 3.987863 -0.577452 -0.474712 0.106881 -0.099190 0.745908
    20 1.890109 -0.000010 -0.000001 -0.024571 -0.089012 1.713779
    21 1.310925 0.000000 0.000000 0.487414 0.014708 0.431447
    22 4.117986 -0.654534 0.453695 0.083847 -0.114161 0.864721
    23 1.655294 0.000008 0.000000 -0.039666 0.033468 1.386069
    24 0.869582 0.000004 0.000000 0.072424 -0.050415 0.567060
    25 4.150630 -0.581594 1.354863 -0.339133 -0.077116 0.722457
    26 1.157247 -0.000010 -0.000002 -0.226802 -0.320736 1.454288
    27 1.019835 -0.000006 0.000000 -1.463035 -0.151736 0.429393
    28 7.406140 -6.039003 -8.901889 -1.635436 0.786568 -1.894046
    29 12.695427 -0.000020 -0.000008 -0.178975 0.294381 -1.432128
    30 -5.547142 -13.135047 -8.759138 2.871254 0.112775 -1.444745
    31 1.474215 -0.497926 -1.376118 0.979422 0.426184 -0.250703
    32 1.832179 -0.000010 -0.000002 -2.526087 -0.301597 0.609649
    33 1.042025 -0.000004 -0.000009 -2.896901 -0.278827 -0.192682
    34 3.823320 0.664865 -1.331676 0.244544 0.361997 0.003988
    35 2.152367 -0.000001 0.000004 0.123680 -0.231520 -0.430903
    36 1.056622 -0.000011 0.000000 0.258036 -0.115105 -0.370410
    37 3.985134 0.881805 -0.368986 0.128322 -0.008132 -0.090211
    38 1.830183 0.000015 0.000000 0.063848 -0.073976 -1.510189
    39 1.561352 0.000008 -0.000004 0.027653 -0.015736 -1.357356
    40 4.116518 0.711272 0.551869 0.187923 0.006580 -0.361666
    41 1.752727 0.000006 0.000000 0.026461 0.029573 -1.405299
    42 0.869359 -0.000006 0.000000 0.015642 -0.073583 -0.926098
    43 4.118826 0.331223 1.419829 0.128888 -0.005990 -0.280207
    44 1.176321 0.000006 0.000000 -0.027338 0.139044 -0.923531
    45 0.970199 -0.000002 -0.000004 1.655571 0.044659 -1.487344
    46 -7.606037 1.001330 -4.120493 -2.971409 1.027402 -2.293547
    47 12.706336 -0.000035 -0.000009 -0.311829 0.283083 -1.897615
    48 0.000000 0.000000 -0.000003 0.000000 0.000000 0.000000
    49 1.200000 0.000000 0.000010 0.000000 0.000000 0.000000
    50 0.000010 -0.300000 0.000000 3.141593 0.000000 -0.174533
    51 0.000000 -0.000001 0.000000 0.000000 0.000000 0.000000
    52 -0.000003 0.000000 0.000001 3.141592 0.000000 0.000000
    53 0.000006 0.000000 0.000004 0.000000 0.000000 0.349065
    54 0.000000 0.000000 0.000000 3.141593 0.000000 0.000000
    55 -0.000008 -0.000006 0.000000 3.141593 0.000000 0.000000
    56 0.000002 -0.000002 0.000000 3.141593 0.000000 0.000000
    57 0.000014 -0.000004 0.000000 3.141593 0.000000 0.000000
    58 -0.000001 0.000000 0.000000 3.141593 0.000000 -0.000001
    59 0.000000 0.000000 0.000000 3.141593 0.000000 0.000000
    60 0.000010 0.000017 0.000000 3.141593 0.000000 -0.000001
    61 0.000000 0.000004 0.000000 3.141593 0.000000 -0.000001
    62 0.000000 0.000006 0.000000 3.141593 0.000000 -0.000001
    63 0.000001 0.000002 0.000000 3.141593 0.000000 0.000000
    64 0.000000 0.000000 0.000000 -3.141592 0.000000 0.000000
    65 0.000000 0.000000 0.000000 -1.570797 -0.000001 0.000000
    66 0.000000 0.000000 0.000000 0.000000 0.000000 0.000000
    67 1.200000 0.000000 0.000000 0.000000 0.000000 0.000000
    68 0.000009 0.299994 0.000000 0.000000 0.000000 0.174533
    69 -0.000001 -0.000001 -0.000004 0.000000 0.000000 0.000000
    70 -0.000010 0.000000 -0.000003 -3.141592 0.000001 0.000000
    71 0.000000 0.000000 0.000000 0.000001 -0.000001 0.349065
    72 0.000000 -0.000003 0.000000 0.000000 0.000000 0.000000
    73 0.000003 0.000000 0.000000 0.000000 0.000000 0.000000
    74 -0.000010 -0.000006 0.000000 -0.000001 0.000000 0.000000
    75 0.000019 0.000002 0.000000 0.000000 0.000000 0.000000
    76 0.000001 0.000004 0.000000 0.000000 0.000000 -0.000001
    77 0.000000 0.000000 0.000000 0.000000 0.000000 -0.000001
    78 0.000001 -0.000002 0.000000 0.000000 0.000000 -0.000001
    79 0.000000 0.000000 0.000000 0.000000 0.000000 -0.000001
    80 0.000001 0.000008 0.000000 0.000000 0.000000 0.000000
    81 -0.000003 0.000004 0.000000 0.000000 0.000000 0.000000
    82 -0.000007 -0.000008 0.000000 0.000000 0.000000 -0.000001
    83 0.000000 0.000002 -0.000002 -1.570796 0.000000 0.000000
  time 8
    0 -3.692777 -16.018294 -5.414474 -1.802688 0.136911 -1.442895
    1 -1.174805 -1.046875 0.043671 0.000000 0.000004 0.000000
    2 -1.935547 -1.361328 0.226196 0.000000 0.000002 0.000000
    3 -4.549240 -1.689358 -0.012529 0.000000 0.000000 0.000000
    4 4.331499 0.360595 -0.709097 0.000015 0.000003 0.056022
    5 3.513922 0.962076 -0.004281 0.000004 -0.000001 1.176003
    6 2.855053 0.477292 0.679213 -0.000001 -0.000004 2.896619
    7 1.649902 5.878080 0.032496 -0.000003 0.000002 -1.570796
    8 6.587842 -0.691444 0.025964 -0.000001 -0.000001 1.570796
    9 0.000002 -0.241401 -0.052690 0.000001 0.000001 0.000000
    10 10.620066 1.884898 -0.004843 -1.570796 -0.000002 1.570796
    11 -9.087198 1.359573 -0.008167 -0.000003 0.000002 -1.570796
    12 -1.183731 -22.754570 -10.786545 2.835403 -0.009575 -1.954806
    13 1.473659 0.639418 -1.295234 2.246127 0.440239 0.736993
    14 1.832607 0.000002 -0.000008 3.110046 0.047491 0.758067
    15 1.003335 0.000005 0.000001 -3.040013 -0.014397 -0.167803
    16 3.823895 -0.419603 -1.411520 0.229111 -0.129702 0.759604
    17 2.187956 0.000010 0.000000 -0.012073 -0.011780 1.896838
    18 1.100960 0.000002 0.000000 0.384940 -0.022913 0.395371
    19 3.987863 -0.577452 -0.474712 0.106881 -0.099190 0.745908
    20 1.890109 -0.000010 -0.000001 -0.024571 -0.089012 1.713897
    21 1.310925 0.000000 0.000000 0.487414 0.014708 0.431447
    22 4.117986 -0.654534 0.453695 0.083847 -0.114161 0.864721
    23 1.655294 0.000008 0.000000 -0.039666 0.033468 1.386069
    24 0.869582 0.000004 0.000000 0.072424 -0.050415 0.567060
    25 4.150630 -0.581594 1.354863 -0.339133 -0.077116 0.722457
    26 1.157247 -0.000010 -0.000002 -0.226802 -0.320736 1.454288
    27 1.019835 -0.000006 0.000000 -1.463035 -0.151736 0.429393
    28 7.406140 -6.039003 -8.901889 -1.633723 0.828194 -1.886952
    29 12.695427 -0.000020 -0.000008 -0.189467 0.295471 -1.468582
    30 -5.441670 -12.982699 -8.755232 2.840269 0.146644 -1.433450
    31 1.474215 -0.497926 -1.376118 0.979422 0.426184 -0.250703
    32 1.832179 -0.000010 -0.000002 -2.526087 -0.301597 0.609649
    33 1.042025 -0.000004 -0.000009 -2.896901 -0.278839 -0.192682
    34 3.823320 0.664865 -1.331676 0.244544 0.361997 0.003988
    35 2.152367 -0.000001 0.000004 0.123680 -0.231520 -0.430903
    36 1.056622 -0.000011 0.000000 0.258036 -0.115105 -0.370410
    37 3.985134 0.881805 -0.368986 0.128322 -0.008132 -0.090211
    38 1.830183 0.000015 0.000000 0.063848 -0.073976 -1.510189
    39 1.561352 0.000008 -0.000004 0.027653 -0.015736 -1.357356
    40 4.116518 0.711272 0.551869 0.187923 0.006580 -0.361666
    41 1.752727 0.000006 0.000000 0.026437 0.029573 -1.405299
    42 0.869359 -0.000006 0.000000 0.015642 -0.073583 -0.926098
    43 4.118826 0.331223 1.419829 0.128888 -0.005990 -0.280207
    44 1.176321 0.000006 0.000000 -0.027338 0.139044 -0.923531
    45 0.970199 -0.000002 -0.000004 1.655571 0.044659 -1.487344
    46 -7.606037 1.001330 -4.120493 -2.991944 1.027469 -2.302981
    47 12.706336 -0.000035 -0.000009 -0.315683 0.281957 -1.910968
    48 0.000000 0.000000 -0.000003 0.000000 0.000000 0.000000
    49 1.200000 0.000000 0.000010 0.000000 0.000000 0.000000
    50 0.000010 -0.300000 0.000000 3.141593 0.000000 -0.174533
    51 0.000000 -0.000001 0.000000 0.000000 0.000000 0.000000
    52 -0.000003 0.000000 0.000001 3.141592 0.000000 0.000000
    53 0.000006 0.000000 0.000004 0.000000 0.000000 0.349065
    54 0.000000 0.000000 0.000000 3.141593 0.000000 0.000000
    55 -0.000008 -0.000006 0.000000 3.141593 0.000000 0.000000
    56 0.000002 -0.000002 0.000000 3.141593 0.000000 0.000000
    57 0.000014 -0.000004 0.000000 3.141593 0.000000 0.000000
    58 -0.000001 0.000000 0.000000 3.141593 0.000000 -0.000001
    59 0.000000 0.000000 0.000000 3.141593 0.000000 0.000000
    60 0.000010 0.000017 0.000000 3.141593 0.000000 -0.000001
    61 0.000000 0.000004 0.000000 3.141593 0.000000 -0.000001
    62 0.000000 0.000006 0.000000 3.141593 0.000000 -0.000001
    63 0.000001 0.000002 0.000000 3.141593 0.000000 0.000000
    64 0.000000 0.000000 0.000000 -3.141592 0.000000 0.000000
    65 0.000000 0.000000 0.000000 -1.570797 -0.000001 0.000000
    66 0.000000 0.000000 0.000000 0.000000 0.000000 0.000000
    67 1.200000 0.000000 0.000000 0.000000 0.000000 0.000000
    68 0.000009 0.299994 0.000000 0.000000 0.000000 0.174533
    69 -0.000001 -0.000001 -0.000004 0.000000 0.000000 0.000000
    70 -0.000010 0.000000 -0.000003 -3.141592 0.000001 0.000000
    71 0.000000 0.000000 0.000000 0.000001 -0.000001 0.349065
    72 0.000000 -0.000003 0.000000 0.000000 0.000000 0.000000
    73 0.000003 0.000000 0.000000 0.000000 0.000000 0.000000
    74 -0.000010 -0.000006 0.000000 -0.000001 0.000000 0.000000
    75 0.000019 0.000002 0.000000 0.000000 0.000000 0.000000
    76 0.000001 0.000004 0.000000 0.000000 0.000000 -0.000001
    77 0.000000 0.000000 0.000000 0.000000 0.000000 -0.000001
    78 0.000001 -0.000002 0.000000 0.000000 0.000000 -0.000001
    79 0.000000 0.000000 0.000000 0.000000 0.000000 -0.000001
    80 0.000001 0.000008 0.000000 0.000000 0.000000 0.000000
    81 -0.000003 0.000004 0.000000 0.000000 0.000000 0.000000
    82 -0.000007 -0.000008 0.000000 0.000000 0.000000 -0.000001
    83 0.000000 0.000002 -0.000002 -1.570796 0.000000 0.000000
  time 9
    0 -3.497458 -15.940167 -5.535572 -1.812281 0.154580 -1.432106
    1 -1.174805 -1.046875 0.043671 0.000000 0.000004 0.000000
    2 -1.935547 -1.361328 0.226196 0.000000 0.000002 0.000000
    3 -4.549240 -1.689358 -0.012529 0.000000 0.000000 0.000000
    4 4.331499 0.360595 -0.709097 0.000015 0.000003 0.056022
    5 3.513922 0.962076 -0.004281 0.000004 -0.000001 1.176003
    6 2.855053 0.477292 0.679213 -0.000001 -0.000004 2.896619
    7 1.649902 5.878080 0.032496 -0.000003 0.000002 -1.570796
    8 6.587842 -0.691444 0.025964 -0.000001 -0.000001 1.570796
    9 0.000002 -0.241401 -0.052690 0.000001 0.000001 0.000000
    10 10.620066 1.884898 -0.004843 -1.570796 -0.000002 1.570796
    11 -9.087198 1.359573 -0.008167 -0.000003 0.000002 -1.570796
    12 -0.968880 -22.578784 -11.040459 2.818705 0.001049 -1.942565
    13 1.473659 0.639418 -1.295234 2.246127 0.440239 0.736993
    14 1.832607 0.000002 -0.000008 3.110046 0.047491 0.758067
    15 1.003335 0.000005 0.000001 -3.040001 -0.014397 -0.167803
    16 3.823895 -0.419603 -1.411520 0.229111 -0.129702 0.759604
    17 2.187956 0.000010 0.000000 -0.012073 -0.011780 1.896838
    18 1.100960 0.000002 0.000000 0.384940 -0.022913 0.395371
    19 3.987863 -0.577452 -0.474712 0.106881 -0.099190 0.745908
    20 1.890109 -0.000010 -0.000001 -0.024571 -0.089012 1.713779
    21 1.310925 0.000000 0.000000 0.487414 0.014708 0.431447
    22 4.117986 -0.654534 0.453695 0.083847 -0.114161 0.864721
    23 1.655294 0.000008 0.000000 -0.039666 0.033468 1.386069
    24 0.869582 0.000004 0.000000 0.072424 -0.050415 0.567060
    25 4.150630 -0.581594 1.354863 -0.339133 -0.077116 0.722457
    26 1.157247 -0.000010 -0.000002 -0.226802 -0.320736 1.454288
    27 1.019835 -0.000006 0.000000 -1.463035 -0.151736 0.429393
    28 7.406140 -6.039003 -8.901889 -1.637340 0.857482 -1.881056
    29 12.695427 -0.000020 -0.000008 -0.197760 0.296167 -1.496812
    30 -5.320573 -12.881133 -8.794296 2.830866 0.164350 -1.422723
    31 1.474215 -0.497926 -1.376118 0.979422 0.426184 -0.250703
    32 1.832179 -0.000010 -0.000002 -2.526087 -0.301597 0.609630
    33 1.042025 -0.000004 -0.000009 -2.896973 -0.278827 -0.192682
    34 3.823320 0.664865 -1.331676 0.244544 0.361997 0.003988
    35 2.152367 -0.000001 0.000004 0.123680 -0.231520 -0.430903
    36 1.056622 -0.000011 0.000000 0.258036 -0.115105 -0.370410
    37 3.985134 0.881805 -0.368986 0.128322 -0.008132 -0.090211
    38 1.830183 0.000015 0.000000 0.063848 -0.073976 -1.510189
    39 1.561352 0.000008 -0.000004 0.027653 -0.015736 -1.357356
    40 4.116518 0.711272 0.551869 0.187923 0.006580 -0.361666
    41 1.752727 0.000006 0.000000 0.026425 0.029573 -1.405267
    42 0.869359 -0.000006 0.000000 0.015642 -0.073583 -0.926098
    43 4.118826 0.331223 1.419829 0.128888 -0.005990 -0.280207
    44 1.176321 0.000006 0.000000 -0.027338 0.139044 -0.923531
    45 0.970199 -0.000002 -0.000004 1.655571 0.044659 -1.487344
    46 -7.606037 1.001330 -4.120493 -3.012617 1.025967 -2.310103
    47 12.706336 -0.000035 -0.000009 -0.317258 0.281382 -1.916998
    48 0.000000 0.000000 -0.000003 0.000000 0.000000 0.000000
    49 1.200000 0.000000 0.000010 0.000000 0.000000 0.000000
    50 0.000010 -0.300000 0.000000 3.141593 0.000000 -0.174533
    51 0.000000 -0.000001 0.000000 0.000000 0.000000 0.000000
    52 -0.000003 0.000000 0.000001 3.141592 0.000000 0.000000
    53 0.000006 0.000000 0.000004 0.000000 0.000000 0.349065
    54 0.000000 0.000000 0.000000 3.141593 0.000000 0.000000
    55 -0.000008 -0.000006 0.000000 3.141593 0.000000 0.000000
    56 0.000002 -0.000002 0.000000 3.141593 0.000000 0.000000
    57 0.000014 -0.000004 0.000000 3.141593 0.000000 0.000000
    58 -0.000001 0.000000 0.000000 3.141593 0.000000 -0.000001
    59 0.000000 0.000000 0.000000 3.141593 0.000000 0.000000
    60 0.000010 0.000017 0.000000 3.141593 0.000000 -0.000001
    61 0.000000 0.000004 0.000000 3.141593 0.000000 -0.000001
    62 0.000000 0.000006 0.000000 3.141593 0.000000 -0.000001
    63 0.000001 0.000002 0.000000 3.141593 0.000000 0.000000
    64 0.000000 0.000000 0.000000 -3.141592 0.000000 0.000000
    65 0.000000 0.000000 0.000000 -1.570797 -0.000001 0.000000
    66 0.000000 0.000000 0.000000 0.000000 0.000000 0.000000
    67 1.200000 0.000000 0.000000 0.000000 0.000000 0.000000
    68 0.000009 0.299994 0.000000 0.000000 0.000000 0.174533
    69 -0.000001 -0.000001 -0.000004 0.000000 0.000000 0.000000
    70 -0.000010 0.000000 -0.000003 -3.141592 0.000001 0.000000
    71 0.000000 0.000000 0.000000 0.000001 -0.000001 0.349065
    72 0.000000 -0.000003 0.000000 0.000000 0.000000 0.000000
    73 0.000003 0.000000 0.000000 0.000000 0.000000 0.000000
    74 -0.000010 -0.000006 0.000000 -0.000001 0.000000 0.000000
    75 0.000019 0.000002 0.000000 0.000000 0.000000 0.000000
    76 0.000001 0.000004 0.000000 0.000000 0.000000 -0.000001
    77 0.000000 0.000000 0.000000 0.000000 0.000000 -0.000001
    78 0.000001 -0.000002 0.000000 0.000000 0.000000 -0.000001
    79 0.000000 0.000000 0.000000 0.000000 0.000000 -0.000001
    80 0.000001 0.000008 0.000000 0.000000 0.000000 0.000000
    81 -0.000003 0.000004 0.000000 0.000000 0.000000 0.000000
    82 -0.000007 -0.000008 0.000000 0.000000 0.000000 -0.000001
    83 0.000000 0.000002 -0.000002 -1.570796 0.000000 0.000000
  time 10
    0 -3.352923 -15.889384 -5.644950 -1.809367 0.162901 -1.421672
    1 -1.174805 -1.046875 0.043671 0.000000 0.000004 0.000000
    2 -1.935547 -1.361328 0.226196 0.000000 0.000002 0.000000
    3 -4.549240 -1.689358 -0.012529 0.000000 0.000000 0.000000
    4 4.331499 0.360595 -0.709097 0.000015 0.000003 0.056022
    5 3.513922 0.962076 -0.004281 0.000004 -0.000001 1.176003
    6 2.855053 0.477292 0.679213 -0.000001 -0.000004 2.896619
    7 1.649902 5.878080 0.032496 -0.000003 0.000002 -1.570796
    8 6.587842 -0.691444 0.025964 -0.000001 -0.000001 1.570796
    9 0.000002 -0.241401 -0.052690 0.000001 0.000001 0.000000
    10 10.620066 1.884898 -0.004843 -1.570796 -0.000002 1.570796
    11 -9.087198 1.359573 -0.008167 -0.000003 0.000002 -1.570796
    12 -0.750124 -22.442061 -11.208433 2.817154 0.009541 -1.932569
    13 1.473659 0.639418 -1.295234 2.246127 0.440239 0.736993
    14 1.832607 0.000002 -0.000008 3.110046 0.047491 0.758067
    15 1.003335 0.000005 0.000001 -3.040001 -0.014397 -0.167803
    16 3.823895 -0.419603 -1.411520 0.229111 -0.129702 0.759604
    17 2.187956 0.000010 0.000000 -0.012073 -0.011780 1.896838
    18 1.100960 0.000002 0.000000 0.384940 -0.022913 0.395371
    19 3.987863 -0.577452 -0.474712 0.106881 -0.099190 0.745908
    20 1.890109 -0.000010 -0.000001 -0.024571 -0.089012 1.713897
    21 1.310925 0.000000 0.000000 0.487414 0.014708 0.431447
    22 4.117986 -0.654534 0.453695 0.083847 -0.114161 0.864721
    23 1.655294 0.000008 0.000000 -0.039666 0.033468 1.386069
    24 0.869582 0.000004 0.000000 0.072424 -0.050415 0.567060
    25 4.150630 -0.581594 1.354863 -0.339133 -0.077116 0.722457
    26 1.157247 -0.000010 -0.000002 -0.226802 -0.320736 1.454288
    27 1.019835 -0.000006 0.000000 -1.463035 -0.151736 0.429393
    28 7.406140 -6.039003 -8.901889 -1.644479 0.879832 -1.876449
    29 12.695427 -0.000020 -0.000008 -0.204693 0.296694 -1.520614
    30 -5.199475 -12.810818 -8.888048 2.833866 0.172676 -1.412707
    31 1.474215 -0.497926 -1.376118 0.979422 0.426184 -0.250703
    32 1.832179 -0.000010 -0.000002 -2.526087 -0.301597 0.609630
    33 1.042025 -0.000004 -0.000009 -2.896973 -0.278851 -0.192682
    34 3.823320 0.664865 -1.331676 0.244544 0.361997 0.003988
    35 2.152367 -0.000001 0.000004 0.123680 -0.231520 -0.430903
    36 1.056622 -0.000011 0.000000 0.258036 -0.115105 -0.370410
    37 3.985134 0.881805 -0.368986 0.128322 -0.008132 -0.090211
    38 1.830183 0.000015 0.000000 0.063848 -0.073976 -1.510189
    39 1.561352 0.000008 -0.000004 0.027653 -0.015736 -1.357356
    40 4.116518 0.711272 0.551869 0.187923 0.006580 -0.361666
    41 1.752727 0.000006 0.000000 0.026449 0.029573 -1.405236
    42 0.869359 -0.000006 0.000000 0.015630 -0.073583 -0.926098
    43 4.118826 0.331223 1.419829 0.128888 -0.005990 -0.280207
    44 1.176321 0.000006 0.000000 -0.027338 0.139044 -0.923531
    45 0.970199 -0.000002 -0.000004 1.655571 0.044659 -1.487344
    46 -7.606037 1.001330 -4.120493 -3.034192 1.023598 -2.316851
    47 12.706336 -0.000035 -0.000009 -0.317896 0.281190 -1.919028
    48 0.000000 0.000000 -0.000003 0.000000 0.000000 0.000000
    49 1.200000 0.000000 0.000010 0.000000 0.000000 0.000000
    50 0.000010 -0.300000 0.000000 3.141593 0.000000 -0.174533
    51 0.000000 -0.000001 0.000000 0.000000 0.000000 0.000000
    52 -0.000003 0.000000 0.000001 3.141592 0.000000 0.000000
    53 0.000006 0.000000 0.000004 0.000000 0.000000 0.349065
    54 0.000000 0.000000 0.000000 3.141593 0.000000 0.000000
    55 -0.000008 -0.000006 0.000000 3.141593 0.000000 0.000000
    56 0.000002 -0.000002 0.000000 3.141593 0.000000 0.000000
    57 0.000014 -0.000004 0.000000 3.141593 0.000000 0.000000
    58 -0.000001 0.000000 0.000000 3.141593 0.000000 -0.000001
    59 0.000000 0.000000 0.000000 3.141593 0.000000 0.000000
    60 0.000010 0.000017 0.000000 3.141593 0.000000 -0.000001
    61 0.000000 0.000004 0.000000 3.141593 0.000000 -0.000001
    62 0.000000 0.000006 0.000000 3.141593 0.000000 -0.000001
    63 0.000001 0.000002 0.000000 3.141593 0.000000 0.000000
    64 0.000000 0.000000 0.000000 -3.141592 0.000000 0.000000
    65 0.000000 0.000000 0.000000 -1.570797 -0.000001 0.000000
    66 0.000000 0.000000 0.000000 0.000000 0.000000 0.000000
    67 1.200000 0.000000 0.000000 0.000000 0.000000 0.000000
    68 0.000009 0.299994 0.000000 0.000000 0.000000 0.174533
    69 -0.000001 -0.000001 -0.000004 0.000000 0.000000 0.000000
    70 -0.000010 0.000000 -0.000003 -3.141592 0.000001 0.000000
    71 0.000000 0.000000 0.000000 0.000001 -0.000001 0.349065
    72 0.000000 -0.000003 0.000000 0.000000 0.000000 0.000000
    73 0.000003 0.000000 0.000000 0.000000 0.000000 0.000000
    74 -0.000010 -0.000006 0.000000 -0.000001 0.000000 0.000000
    75 0.000019 0.000002 0.000000 0.000000 0.000000 0.000000
    76 0.000001 0.000004 0.000000 0.000000 0.000000 -0.000001
    77 0.000000 0.000000 0.000000 0.000000 0.000000 -0.000001
    78 0.000001 -0.000002 0.000000 0.000000 0.000000 -0.000001
    79 0.000000 0.000000 0.000000 0.000000 0.000000 -0.000001
    80 0.000001 0.000008 0.000000 0.000000 0.000000 0.000000
    81 -0.000003 0.000004 0.000000 0.000000 0.000000 0.000000
    82 -0.000007 -0.000008 0.000000 0.000000 0.000000 -0.000001
    83 0.000000 0.000002 -0.000002 -1.570796 0.000000 0.000000
  time 11
    0 -3.227919 -15.822976 -5.746516 -1.803719 0.169002 -1.413013
    1 -1.174805 -1.046875 0.043671 0.000000 0.000004 0.000000
    2 -1.935547 -1.361328 0.226196 0.000000 0.000002 0.000000
    3 -4.549240 -1.689358 -0.012529 0.000000 0.000000 0.000000
    4 4.331499 0.360595 -0.709097 0.000015 0.000003 0.056022
    5 3.513922 0.962076 -0.004281 0.000004 -0.000001 1.176003
    6 2.855053 0.477292 0.679213 -0.000001 -0.000004 2.896619
    7 1.649902 5.878080 0.032496 -0.000003 0.000002 -1.570796
    8 6.587842 -0.691444 0.025964 -0.000001 -0.000001 1.570796
    9 0.000002 -0.241401 -0.052690 0.000001 0.000001 0.000000
    10 10.620066 1.884898 -0.004843 -1.570796 -0.000002 1.570796
    11 -9.087198 1.359573 -0.008167 -0.000003 0.000002 -1.570796
    12 -0.550899 -22.320963 -11.345156 2.818705 0.017509 -1.924746
    13 1.473659 0.639418 -1.295234 2.246127 0.440239 0.736993
    14 1.832607 0.000002 -0.000008 3.110046 0.047491 0.758067
    15 1.003335 0.000005 0.000001 -3.040001 -0.014397 -0.167803
    16 3.823895 -0.419603 -1.411520 0.229111 -0.129702 0.759604
    17 2.187956 0.000010 0.000000 -0.012073 -0.011780 1.896838
    18 1.100960 0.000002 0.000000 0.384940 -0.022913 0.395371
    19 3.987863 -0.577452 -0.474712 0.106881 -0.099190 0.745908
    20 1.890109 -0.000010 -0.000001 -0.024571 -0.089012 1.713897
    21 1.310925 0.000000 0.000000 0.487414 0.014708 0.431447
    22 4.117986 -0.654534 0.453695 0.083847 -0.114161 0.864721
    23 1.655294 0.000008 0.000000 -0.039666 0.033468 1.386069
    24 0.869582 0.000004 0.000000 0.072424 -0.050415 0.567060
    25 4.150630 -0.581594 1.354863 -0.339133 -0.077116 0.722457
    26 1.157247 -0.000010 -0.000002 -0.226802 -0.320736 1.454288
    27 1.019835 -0.000006 0.000000 -1.463035 -0.151736 0.429393
    28 7.406140 -6.039003 -8.901889 -1.651808 0.899523 -1.872856
    29 12.695427 -0.000020 -0.000008 -0.210770 0.296934 -1.541411
    30 -5.090097 -12.744410 -8.973989 2.839508 0.178756 -1.403543
    31 1.474215 -0.497926 -1.376118 0.979422 0.426184 -0.250703
    32 1.832179 -0.000010 -0.000002 -2.526087 -0.301597 0.609630
    33 1.042025 -0.000004 -0.000009 -2.896937 -0.278839 -0.192682
    34 3.823320 0.664865 -1.331676 0.244544 0.361997 0.003988
    35 2.152367 -0.000001 0.000004 0.123680 -0.231520 -0.430903
    36 1.056622 -0.000011 0.000000 0.258036 -0.115105 -0.370410
    37 3.985134 0.881805 -0.368986 0.128322 -0.008132 -0.090211
    38 1.830183 0.000015 0.000000 0.063848 -0.073976 -1.510189
    39 1.561352 0.000008 -0.000004 0.027653 -0.015736 -1.357356
    40 4.116518 0.711272 0.551869 0.187923 0.006580 -0.361666
    41 1.752727 0.000006 0.000000 0.026425 0.029573 -1.405299
    42 0.869359 -0.000006 0.000000 0.015642 -0.073583 -0.926098
    43 4.118826 0.331223 1.419829 0.128888 -0.005990 -0.280207
    44 1.176321 0.000006 0.000000 -0.027338 0.139044 -0.923531
    45 0.970199 -0.000002 -0.000004 1.655571 0.044659 -1.487344
    46 -7.606037 1.001330 -4.120493 -3.055212 1.021229 -2.323411
    47 12.706336 -0.000035 -0.000009 -0.318182 0.281058 -1.920444
    48 0.000000 0.000000 -0.000003 0.000000 0.000000 0.000000
    49 1.200000 0.000000 0.000010 0.000000 0.000000 0.000000
    50 0.000010 -0.300000 0.000000 3.141593 0.000000 -0.174533
    51 0.000000 -0.000001 0.000000 0.000000 0.000000 0.000000
    52 -0.000003 0.000000 0.000001 3.141592 0.000000 0.000000
    53 0.000006 0.000000 0.000004 0.000000 0.000000 0.349065
    54 0.000000 0.000000 0.000000 3.141593 0.000000 0.000000
    55 -0.000008 -0.000006 0.000000 3.141593 0.000000 0.000000
    56 0.000002 -0.000002 0.000000 3.141593 0.000000 0.000000
    57 0.000014 -0.000004 0.000000 3.141593 0.000000 0.000000
    58 -0.000001 0.000000 0.000000 3.141593 0.000000 -0.000001
    59 0.000000 0.000000 0.000000 3.141593 0.000000 0.000000
    60 0.000010 0.000017 0.000000 3.141593 0.000000 -0.000001
    61 0.000000 0.000004 0.000000 3.141593 0.000000 -0.000001
    62 0.000000 0.000006 0.000000 3.141593 0.000000 -0.000001
    63 0.000001 0.000002 0.000000 3.141593 0.000000 0.000000
    64 0.000000 0.000000 0.000000 -3.141592 0.000000 0.000000
    65 0.000000 0.000000 0.000000 -1.570797 -0.000001 0.000000
    66 0.000000 0.000000 0.000000 0.000000 0.000000 0.000000
    67 1.200000 0.000000 0.000000 0.000000 0.000000 0.000000
    68 0.000009 0.299994 0.000000 0.000000 0.000000 0.174533
    69 -0.000001 -0.000001 -0.000004 0.000000 0.000000 0.000000
    70 -0.000010 0.000000 -0.000003 -3.141592 0.000001 0.000000
    71 0.000000 0.000000 0.000000 0.000001 -0.000001 0.349065
    72 0.000000 -0.000003 0.000000 0.000000 0.000000 0.000000
    73 0.000003 0.000000 0.000000 0.000000 0.000000 0.000000
    74 -0.000010 -0.000006 0.000000 -0.000001 0.000000 0.000000
    75 0.000019 0.000002 0.000000 0.000000 0.000000 0.000000
    76 0.000001 0.000004 0.000000 0.000000 0.000000 -0.000001
    77 0.000000 0.000000 0.000000 0.000000 0.000000 -0.000001
    78 0.000001 -0.000002 0.000000 0.000000 0.000000 -0.000001
    79 0.000000 0.000000 0.000000 0.000000 0.000000 -0.000001
    80 0.000001 0.000008 0.000000 0.000000 0.000000 0.000000
    81 -0.000003 0.000004 0.000000 0.000000 0.000000 0.000000
    82 -0.000007 -0.000008 0.000000 0.000000 0.000000 -0.000001
    83 0.000000 0.000002 -0.000002 -1.570796 0.000000 0.000000
  time 12
    0 -3.134166 -15.780006 -5.832456 -1.796726 0.172687 -1.407193
    1 -1.174805 -1.046875 0.043671 0.000000 0.000004 0.000000
    2 -1.935547 -1.361328 0.226196 0.000000 0.000002 0.000000
    3 -4.549240 -1.689358 -0.012529 0.000000 0.000000 0.000000
    4 4.331499 0.360595 -0.709097 0.000015 0.000003 0.056022
    5 3.513922 0.962076 -0.004281 0.000004 -0.000001 1.176003
    6 2.855053 0.477292 0.679213 -0.000001 -0.000004 2.896619
    7 1.649902 5.878080 0.032496 -0.000003 0.000002 -1.570796
    8 6.587842 -0.691444 0.025964 -0.000001 -0.000001 1.570796
    9 0.000002 -0.241401 -0.052690 0.000001 0.000001 0.000000
    10 10.620066 1.884898 -0.004843 -1.570796 -0.000002 1.570796
    11 -9.087198 1.359573 -0.008167 -0.000003 0.000002 -1.570796
    12 -0.386831 -22.235023 -11.442815 2.823176 0.023988 -1.919386
    13 1.473659 0.639418 -1.295234 2.246127 0.440239 0.736993
    14 1.832607 0.000002 -0.000008 3.110046 0.047491 0.758067
    15 1.003335 0.000005 0.000001 -3.040001 -0.014397 -0.167803
    16 3.823895 -0.419603 -1.411520 0.229111 -0.129702 0.759604
    17 2.187956 0.000010 0.000000 -0.012073 -0.011780 1.896838
    18 1.100960 0.000002 0.000000 0.384940 -0.022913 0.395371
    19 3.987863 -0.577452 -0.474712 0.106881 -0.099190 0.745908
    20 1.890109 -0.000010 -0.000001 -0.024571 -0.089012 1.713779
    21 1.310925 0.000000 0.000000 0.487414 0.014708 0.431447
    22 4.117986 -0.654534 0.453695 0.083847 -0.114161 0.864721
    23 1.655294 0.000008 0.000000 -0.039666 0.033468 1.386069
    24 0.869582 0.000004 0.000000 0.072424 -0.050415 0.567060
    25 4.150630 -0.581594 1.354863 -0.339133 -0.077116 0.722457
    26 1.157247 -0.000010 -0.000002 -0.226802 -0.320736 1.454288
    27 1.019835 -0.000006 0.000000 -1.463035 -0.151736 0.429393
    28 7.406140 -6.039003 -8.901889 -1.658852 0.914603 -1.870737
    29 12.695427 -0.000020 -0.000008 -0.215420 0.296946 -1.557305
    30 -4.992438 -12.689721 -9.063835 2.846627 0.182285 -1.396936
    31 1.474215 -0.497926 -1.376118 0.979422 0.426184 -0.250703
    32 1.832179 -0.000010 -0.000002 -2.526087 -0.301597 0.609649
    33 1.042025 -0.000004 -0.000009 -2.896973 -0.278827 -0.192682
    34 3.823320 0.664865 -1.331676 0.244544 0.361997 0.003988
    35 2.152367 -0.000001 0.000004 0.123680 -0.231520 -0.430903
    36 1.056622 -0.000011 0.000000 0.258036 -0.115105 -0.370410
    37 3.985134 0.881805 -0.368986 0.128322 -0.008132 -0.090211
    38 1.830183 0.000015 0.000000 0.063848 -0.073976 -1.510189
    39 1.561352 0.000008 -0.000004 0.027653 -0.015736 -1.357356
    40 4.116518 0.711272 0.551869 0.187923 0.006580 -0.361666
    41 1.752727 0.000006 0.000000 0.026485 0.029573 -1.405299
    42 0.869359 -0.000006 0.000000 0.015642 -0.073571 -0.926098
    43 4.118826 0.331223 1.419829 0.128888 -0.005990 -0.280207
    44 1.176321 0.000006 0.000000 -0.027338 0.139044 -0.923531
    45 0.970199 -0.000002 -0.000004 1.655571 0.044659 -1.487344
    46 -7.606037 1.001330 -4.120493 -3.073596 1.018993 -2.329034
    47 12.706336 -0.000035 -0.000009 -0.318443 0.280974 -1.920874
    48 0.000000 0.000000 -0.000003 0.000000 0.000000 0.000000
    49 1.200000 0.000000 0.000010 0.000000 0.000000 0.000000
    50 0.000010 -0.300000 0.000000 3.141593 0.000000 -0.174533
    51 0.000000 -0.000001 0.000000 0.000000 0.000000 0.000000
    52 -0.000003 0.000000 0.000001 3.141592 0.000000 0.000000
    53 0.000006 0.000000 0.000004 0.000000 0.000000 0.349065
    54 0.000000 0.000000 0.000000 3.141593 0.000000 0.000000
    55 -0.000008 -0.000006 0.000000 3.141593 0.000000 0.000000
    56 0.000002 -0.000002 0.000000 3.141593 0.000000 0.000000
    57 0.000014 -0.000004 0.000000 3.141593 0.000000 0.000000
    58 -0.000001 0.000000 0.000000 3.141593 0.000000 -0.000001
    59 0.000000 0.000000 0.000000 3.141593 0.000000 0.000000
    60 0.000010 0.000017 0.000000 3.141593 0.000000 -0.000001
    61 0.000000 0.000004 0.000000 3.141593 0.000000 -0.000001
    62 0.000000 0.000006 0.000000 3.141593 0.000000 -0.000001
    63 0.000001 0.000002 0.000000 3.141593 0.000000 0.000000
    64 0.000000 0.000000 0.000000 -3.141592 0.000000 0.000000
    65 0.000000 0.000000 0.000000 -1.570797 -0.000001 0.000000
    66 0.000000 0.000000 0.000000 0.000000 0.000000 0.000000
    67 1.200000 0.000000 0.000000 0.000000 0.000000 0.000000
    68 0.000009 0.299994 0.000000 0.000000 0.000000 0.174533
    69 -0.000001 -0.000001 -0.000004 0.000000 0.000000 0.000000
    70 -0.000010 0.000000 -0.000003 -3.141592 0.000001 0.000000
    71 0.000000 0.000000 0.000000 0.000001 -0.000001 0.349065
    72 0.000000 -0.000003 0.000000 0.000000 0.000000 0.000000
    73 0.000003 0.000000 0.000000 0.000000 0.000000 0.000000
    74 -0.000010 -0.000006 0.000000 -0.000001 0.000000 0.000000
    75 0.000019 0.000002 0.000000 0.000000 0.000000 0.000000
    76 0.000001 0.000004 0.000000 0.000000 0.000000 -0.000001
    77 0.000000 0.000000 0.000000 0.000000 0.000000 -0.000001
    78 0.000001 -0.000002 0.000000 0.000000 0.000000 -0.000001
    79 0.000000 0.000000 0.000000 0.000000 0.000000 -0.000001
    80 0.000001 0.000008 0.000000 0.000000 0.000000 0.000000
    81 -0.000003 0.000004 0.000000 0.000000 0.000000 0.000000
    82 -0.000007 -0.000008 0.000000 0.000000 0.000000 -0.000001
    83 0.000000 0.000002 -0.000002 -1.570796 0.000000 0.000000
  time 13
    0 -3.075571 -15.748755 -5.894958 -1.790181 0.174197 -1.403218
    1 -1.174805 -1.046875 0.043671 0.000000 0.000004 0.000000
    2 -1.935547 -1.361328 0.226196 0.000000 0.000002 0.000000
    3 -4.549240 -1.689358 -0.012529 0.000000 0.000000 0.000000
    4 4.331499 0.360595 -0.709097 0.000015 0.000003 0.056022
    5 3.513922 0.962076 -0.004281 0.000004 -0.000001 1.176003
    6 2.855053 0.477292 0.679213 -0.000001 -0.000004 2.896619
    7 1.649902 5.878080 0.032496 -0.000003 0.000002 -1.570796
    8 6.587842 -0.691444 0.025964 -0.000001 -0.000001 1.570796
    9 0.000002 -0.241401 -0.052690 0.000001 0.000001 0.000000
    10 10.620066 1.884898 -0.004843 -1.570796 -0.000002 1.570796
    11 -9.087198 1.359573 -0.008167 -0.000003 0.000002 -1.570796
    12 -0.277453 -22.176428 -11.505317 2.827921 0.028697 -1.916489
    13 1.473659 0.639418 -1.295234 2.246127 0.440239 0.736993
    14 1.832607 0.000002 -0.000008 3.110046 0.047491 0.758067
    15 1.003335 0.000005 0.000001 -3.040001 -0.014385 -0.167803
    16 3.823895 -0.419603 -1.411520 0.229111 -0.129702 0.759604
    17 2.187956 0.000010 0.000000 -0.012073 -0.011780 1.896838
    18 1.100960 0.000002 0.000000 0.384940 -0.022913 0.395371
    19 3.987863 -0.577452 -0.474712 0.106881 -0.099190 0.745908
    20 1.890109 -0.000010 -0.000001 -0.024571 -0.089012 1.713779
    21 1.310925 0.000000 0.000000 0.487414 0.014708 0.431447
    22 4.117986 -0.654534 0.453695 0.083847 -0.114161 0.864721
    23 1.655294 0.000008 0.000000 -0.039666 0.033468 1.386069
    24 0.869582 0.000004 0.000000 0.072424 -0.050415 0.567060
    25 4.150630 -0.581594 1.354863 -0.339133 -0.077116 0.722457
    26 1.157247 -0.000010 -0.000002 -0.226802 -0.320736 1.454288
    27 1.019835 -0.000006 0.000000 -1.463035 -0.151736 0.429393
    28 7.406140 -6.039003 -8.901889 -1.664087 0.924324 -1.869355
    29 12.695427 -0.000020 -0.000008 -0.218492 0.296946 -1.567664
    30 -4.922123 -12.646751 -9.130243 2.853209 0.183721 -1.392887
    31 1.474215 -0.497926 -1.376118 0.979422 0.426184 -0.250703
    32 1.832179 -0.000010 -0.000002 -2.526087 -0.301597 0.609630
    33 1.042025 -0.000004 -0.000009 -2.896937 -0.278851 -0.192682
    34 3.823320 0.664865 -1.331676 0.244544 0.361997 0.003988
    35 2.152367 -0.000001 0.000004 0.123680 -0.231520 -0.430903
    36 1.056622 -0.000011 0.000000 0.258036 -0.115105 -0.370410
    37 3.985134 0.881805 -0.368986 0.128322 -0.008132 -0.090211
    38 1.830183 0.000015 0.000000 0.063848 -0.073976 -1.510189
    39 1.561352 0.000008 -0.000004 0.027653 -0.015736 -1.357356
    40 4.116518 0.711272 0.551869 0.187923 0.006580 -0.361666
    41 1.752727 0.000006 0.000000 0.026425 0.029573 -1.405299
    42 0.869359 -0.000006 0.000000 0.015642 -0.073571 -0.926098
    43 4.118826 0.331223 1.419829 0.128888 -0.005990 -0.280207
    44 1.176321 0.000006 0.000000 -0.027338 0.139044 -0.923531
    45 0.970199 -0.000002 -0.000004 1.655571 0.044659 -1.487344
    46 -7.606037 1.001330 -4.120493 -3.086985 1.017191 -2.333158
    47 12.706336 -0.000035 -0.000009 -0.318456 0.280998 -1.920874
    48 0.000000 0.000000 -0.000003 0.000000 0.000000 0.000000
    49 1.200000 0.000000 0.000010 0.000000 0.000000 0.000000
    50 0.000010 -0.300000 0.000000 3.141593 0.000000 -0.174533
    51 0.000000 -0.000001 0.000000 0.000000 0.000000 0.000000
    52 -0.000003 0.000000 0.000001 3.141592 0.000000 0.000000
    53 0.000006 0.000000 0.000004 0.000000 0.000000 0.349065
    54 0.000000 0.000000 0.000000 3.141593 0.000000 0.000000
    55 -0.000008 -0.000006 0.000000 3.141593 0.000000 0.000000
    56 0.000002 -0.000002 0.000000 3.141593 0.000000 0.000000
    57 0.000014 -0.000004 0.000000 3.141593 0.000000 0.000000
    58 -0.000001 0.000000 0.000000 3.141593 0.000000 -0.000001
    59 0.000000 0.000000 0.000000 3.141593 0.000000 0.000000
    60 0.000010 0.000017 0.000000 3.141593 0.000000 -0.000001
    61 0.000000 0.000004 0.000000 3.141593 0.000000 -0.000001
    62 0.000000 0.000006 0.000000 3.141593 0.000000 -0.000001
    63 0.000001 0.000002 0.000000 3.141593 0.000000 0.000000
    64 0.000000 0.000000 0.000000 -3.141592 0.000000 0.000000
    65 0.000000 0.000000 0.000000 -1.570797 -0.000001 0.000000
    66 0.000000 0.000000 0.000000 0.000000 0.000000 0.000000
    67 1.200000 0.000000 0.000000 0.000000 0.000000 0.000000
    68 0.000009 0.299994 0.000000 0.000000 0.000000 0.174533
    69 -0.000001 -0.000001 -0.000004 0.000000 0.000000 0.000000
    70 -0.000010 0.000000 -0.000003 -3.141592 0.000001 0.000000
    71 0.000000 0.000000 0.000000 0.000001 -0.000001 0.349065
    72 0.000000 -0.000003 0.000000 0.000000 0.000000 0.000000
    73 0.000003 0.000000 0.000000 0.000000 0.000000 0.000000
    74 -0.000010 -0.000006 0.000000 -0.000001 0.000000 0.000000
    75 0.000019 0.000002 0.000000 0.000000 0.000000 0.000000
    76 0.000001 0.000004 0.000000 0.000000 0.000000 -0.000001
    77 0.000000 0.000000 0.000000 0.000000 0.000000 -0.000001
    78 0.000001 -0.000002 0.000000 0.000000 0.000000 -0.000001
    79 0.000000 0.000000 0.000000 0.000000 0.000000 -0.000001
    80 0.000001 0.000008 0.000000 0.000000 0.000000 0.000000
    81 -0.000003 0.000004 0.000000 0.000000 0.000000 0.000000
    82 -0.000007 -0.000008 0.000000 0.000000 0.000000 -0.000001
    83 0.000000 0.000002 -0.000002 -1.570796 0.000000 0.000000
  time 14
    0 -3.048226 -15.729223 -5.930115 -1.785609 0.174484 -1.400662
    1 -1.174805 -1.046875 0.043671 0.000000 0.000004 0.000000
    2 -1.935547 -1.361328 0.226196 0.000000 0.000002 0.000000
    3 -4.549240 -1.689358 -0.012529 0.000000 0.000000 0.000000
    4 4.331499 0.360595 -0.709097 0.000015 0.000003 0.056022
    5 3.513922 0.962076 -0.004281 0.000004 -0.000001 1.176003
    6 2.855053 0.477292 0.679213 -0.000001 -0.000004 2.896619
    7 1.649902 5.878080 0.032496 -0.000003 0.000002 -1.570796
    8 6.587842 -0.691444 0.025964 -0.000001 -0.000001 1.570796
    9 0.000002 -0.241401 -0.052690 0.000001 0.000001 0.000000
    10 10.620066 1.884898 -0.004843 -1.570796 -0.000002 1.570796
    11 -9.087198 1.359573 -0.008167 -0.000003 0.000002 -1.570796
    12 -0.218857 -22.137364 -11.536568 2.831662 0.030991 -1.915330
    13 1.473659 0.639418 -1.295234 2.246127 0.440239 0.736993
    14 1.832607 0.000002 -0.000008 3.110046 0.047491 0.758067
    15 1.003335 0.000005 0.000001 -3.040001 -0.014385 -0.167803
    16 3.823895 -0.419603 -1.411520 0.229111 -0.129702 0.759604
    17 2.187956 0.000010 0.000000 -0.012073 -0.011780 1.896838
    18 1.100960 0.000002 0.000000 0.384940 -0.022913 0.395371
    19 3.987863 -0.577452 -0.474712 0.106881 -0.099190 0.745908
    20 1.890109 -0.000010 -0.000001 -0.024571 -0.089012 1.713779
    21 1.310925 0.000000 0.000000 0.487414 0.014708 0.431447
    22 4.117986 -0.654534 0.453695 0.083847 -0.114161 0.864721
    23 1.655294 0.000008 0.000000 -0.039666 0.033468 1.386069
    24 0.869582 0.000004 0.000000 0.072424 -0.050415 0.567060
    25 4.150630 -0.581594 1.354863 -0.339133 -0.077116 0.722457
    26 1.157247 -0.000010 -0.000002 -0.226802 -0.320736 1.454288
    27 1.019835 -0.000006 0.000000 -1.463035 -0.151736 0.429393
    28 7.406140 -6.039003 -8.901889 -1.667038 0.929143 -1.868618
    29 12.695427 -0.000020 -0.000008 -0.220053 0.296946 -1.573041
    30 -4.883059 -12.627219 -9.165401 2.857687 0.183996 -1.391040
    31 1.474215 -0.497926 -1.376118 0.979422 0.426184 -0.250703
    32 1.832179 -0.000010 -0.000002 -2.526087 -0.301597 0.609649
    33 1.042025 -0.000004 -0.000009 -2.896901 -0.278827 -0.192682
    34 3.823320 0.664865 -1.331676 0.244544 0.361997 0.003988
    35 2.152367 -0.000001 0.000004 0.123680 -0.231520 -0.430903
    36 1.056622 -0.000011 0.000000 0.258036 -0.115105 -0.370410
    37 3.985134 0.881805 -0.368986 0.128322 -0.008132 -0.090211
    38 1.830183 0.000015 0.000000 0.063848 -0.073976 -1.510189
    39 1.561352 0.000008 -0.000004 0.027653 -0.015736 -1.357356
    40 4.116518 0.711272 0.551869 0.187923 0.006580 -0.361666
    41 1.752727 0.000006 0.000000 0.026473 0.029573 -1.405299
    42 0.869359 -0.000006 0.000000 0.015642 -0.073583 -0.926098
    43 4.118826 0.331223 1.419829 0.128888 -0.005990 -0.280207
    44 1.176321 0.000006 0.000000 -0.027338 0.139044 -0.923531
    45 0.970199 -0.000002 -0.000004 1.655571 0.044659 -1.487344
    46 -7.606037 1.001330 -4.120493 -3.094824 1.016257 -2.335594
    47 12.706336 -0.000035 -0.000009 -0.318417 0.281022 -1.920813
    48 0.000000 0.000000 -0.000003 0.000000 0.000000 0.000000
    49 1.200000 0.000000 0.000010 0.000000 0.000000 0.000000
    50 0.000010 -0.300000 0.000000 3.141593 0.000000 -0.174533
    51 0.000000 -0.000001 0.000000 0.000000 0.000000 0.000000
    52 -0.000003 0.000000 0.000001 3.141592 0.000000 0.000000
    53 0.000006 0.000000 0.000004 0.000000 0.000000 0.349065
    54 0.000000 0.000000 0.000000 3.141593 0.000000 0.000000
    55 -0.000008 -0.000006 0.000000 3.141593 0.000000 0.000000
    56 0.000002 -0.000002 0.000000 3.141593 0.000000 0.000000
    57 0.000014 -0.000004 0.000000 3.141593 0.000000 0.000000
    58 -0.000001 0.000000 0.000000 3.141593 0.000000 -0.000001
    59 0.000000 0.000000 0.000000 3.141593 0.000000 0.000000
    60 0.000010 0.000017 0.000000 3.141593 0.000000 -0.000001
    61 0.000000 0.000004 0.000000 3.141593 0.000000 -0.000001
    62 0.000000 0.000006 0.000000 3.141593 0.000000 -0.000001
    63 0.000001 0.000002 0.000000 3.141593 0.000000 0.000000
    64 0.000000 0.000000 0.000000 -3.141592 0.000000 0.000000
    65 0.000000 0.000000 0.000000 -1.570797 -0.000001 0.000000
    66 0.000000 0.000000 0.000000 0.000000 0.000000 0.000000
    67 1.200000 0.000000 0.000000 0.000000 0.000000 0.000000
    68 0.000009 0.299994 0.000000 0.000000 0.000000 0.174533
    69 -0.000001 -0.000001 -0.000004 0.000000 0.000000 0.000000
    70 -0.000010 0.000000 -0.000003 -3.141592 0.000001 0.000000
    71 0.000000 0.000000 0.000000 0.000001 -0.000001 0.349065
    72 0.000000 -0.000003 0.000000 0.000000 0.000000 0.000000
    73 0.000003 0.000000 0.000000 0.000000 0.000000 0.000000
    74 -0.000010 -0.000006 0.000000 -0.000001 0.000000 0.000000
    75 0.000019 0.000002 0.000000 0.000000 0.000000 0.000000
    76 0.000001 0.000004 0.000000 0.000000 0.000000 -0.000001
    77 0.000000 0.000000 0.000000 0.000000 0.000000 -0.000001
    78 0.000001 -0.000002 0.000000 0.000000 0.000000 -0.000001
    79 0.000000 0.000000 0.000000 0.000000 0.000000 -0.000001
    80 0.000001 0.000008 0.000000 0.000000 0.000000 0.000000
    81 -0.000003 0.000004 0.000000 0.000000 0.000000 0.000000
    82 -0.000007 -0.000008 0.000000 0.000000 0.000000 -0.000001
    83 0.000000 0.000002 -0.000002 -1.570796 0.000000 0.000000
  time 15
    0 -3.040413 -15.713598 -5.941834 -1.784040 0.174363 -1.400165
    1 -1.174805 -1.046875 0.043671 0.000000 0.000004 0.000000
    2 -1.935547 -1.361328 0.226196 0.000000 0.000002 0.000000
    3 -4.549240 -1.689358 -0.012529 0.000000 0.000000 0.000000
    4 4.331499 0.360595 -0.709097 0.000015 0.000003 0.056022
    5 3.513922 0.962076 -0.004281 0.000004 -0.000001 1.176003
    6 2.855053 0.477292 0.679213 -0.000001 -0.000004 2.896619
    7 1.649902 5.878080 0.032496 -0.000003 0.000002 -1.570796
    8 6.587842 -0.691444 0.025964 -0.000001 -0.000001 1.570796
    9 0.000002 -0.241401 -0.052690 0.000001 0.000001 0.000000
    10 10.620066 1.884898 -0.004843 -1.570796 -0.000002 1.570796
    11 -9.087198 1.359573 -0.008167 -0.000003 0.000002 -1.570796
    12 -0.203232 -22.145177 -11.536568 2.833487 0.031715 -1.915040
    13 1.473659 0.639418 -1.295234 2.246127 0.440239 0.736993
    14 1.832607 0.000002 -0.000008 3.110046 0.047491 0.758067
    15 1.003335 0.000005 0.000001 -3.040001 -0.014397 -0.167803
    16 3.823895 -0.419603 -1.411520 0.229111 -0.129702 0.759604
    17 2.187956 0.000010 0.000000 -0.012073 -0.011780 1.896838
    18 1.100960 0.000002 0.000000 0.384940 -0.022913 0.395371
    19 3.987863 -0.577452 -0.474712 0.106881 -0.099190 0.745908
    20 1.890109 -0.000010 -0.000001 -0.024571 -0.089012 1.713897
    21 1.310925 0.000000 0.000000 0.487414 0.014708 0.431447
    22 4.117986 -0.654534 0.453695 0.083847 -0.114161 0.864721
    23 1.655294 0.000008 0.000000 -0.039666 0.033468 1.386069
    24 0.869582 0.000004 0.000000 0.072424 -0.050415 0.567060
    25 4.150630 -0.581594 1.354863 -0.339133 -0.077116 0.722457
    26 1.157247 -0.000010 -0.000002 -0.226802 -0.320736 1.454288
    27 1.019835 -0.000006 0.000000 -1.463035 -0.151736 0.429393
    28 7.406140 -6.039003 -8.901889 -1.667609 0.930514 -1.868434
    29 12.695427 -0.000020 -0.000008 -0.220473 0.296946 -1.574227
    30 -4.871340 -12.619406 -9.181026 2.859209 0.183935 -1.390543
    31 1.474215 -0.497926 -1.376118 0.979422 0.426184 -0.250703
    32 1.832179 -0.000010 -0.000002 -2.526087 -0.301597 0.609649
    33 1.042025 -0.000004 -0.000009 -2.896901 -0.278851 -0.192682
    34 3.823320 0.664865 -1.331676 0.244544 0.361997 0.003988
    35 2.152367 -0.000001 0.000004 0.123680 -0.231520 -0.430903
    36 1.056622 -0.000011 0.000000 0.258036 -0.115105 -0.370410
    37 3.985134 0.881805 -0.368986 0.128322 -0.008132 -0.090211
    38 1.830183 0.000015 0.000000 0.063848 -0.073976 -1.510189
    39 1.561352 0.000008 -0.000004 0.027653 -0.015736 -1.357356
    40 4.116518 0.711272 0.551869 0.187923 0.006580 -0.361666
    41 1.752727 0.000006 0.000000 0.026437 0.029573 -1.405236
    42 0.869359 -0.000006 0.000000 0.015642 -0.073583 -0.926098
    43 4.118826 0.331223 1.419829 0.128888 -0.005990 -0.280207
    44 1.176321 0.000006 0.000000 -0.027338 0.139044 -0.923531
    45 0.970199 -0.000002 -0.000004 1.655571 0.044659 -1.487344
    46 -7.606037 1.001330 -4.120493 -3.097183 1.015923 -2.336219
    47 12.706336 -0.000035 -0.000009 -0.318391 0.281034 -1.920690
    48 0.000000 0.000000 -0.000003 0.000000 0.000000 0.000000
    49 1.200000 0.000000 0.000010 0.000000 0.000000 0.000000
    50 0.000010 -0.300000 0.000000 3.141593 0.000000 -0.174533
    51 0.000000 -0.000001 0.000000 0.000000 0.000000 0.000000
    52 -0.000003 0.000000 0.000001 3.141592 0.000000 0.000000
    53 0.000006 0.000000 0.000004 0.000000 0.000000 0.349065
    54 0.000000 0.000000 0.000000 3.141593 0.000000 0.000000
    55 -0.000008 -0.000006 0.000000 3.141593 0.000000 0.000000
    56 0.000002 -0.000002 0.000000 3.141593 0.000000 0.000000
    57 0.000014 -0.000004 0.000000 3.141593 0.000000 0.000000
    58 -0.000001 0.000000 0.000000 3.141593 0.000000 -0.000001
    59 0.000000 0.000000 0.000000 3.141593 0.000000 0.000000
    60 0.000010 0.000017 0.000000 3.141593 0.000000 -0.000001
    61 0.000000 0.000004 0.000000 3.141593 0.000000 -0.000001
    62 0.000000 0.000006 0.000000 3.141593 0.000000 -0.000001
    63 0.000001 0.000002 0.000000 3.141593 0.000000 0.000000
    64 0.000000 0.000000 0.000000 -3.141592 0.000000 0.000000
    65 0.000000 0.000000 0.000000 -1.570797 -0.000001 0.000000
    66 0.000000 0.000000 0.000000 0.000000 0.000000 0.000000
    67 1.200000 0.000000 0.000000 0.000000 0.000000 0.000000
    68 0.000009 0.299994 0.000000 0.000000 0.000000 0.174533
    69 -0.000001 -0.000001 -0.000004 0.000000 0.000000 0.000000
    70 -0.000010 0.000000 -0.000003 -3.141592 0.000001 0.000000
    71 0.000000 0.000000 0.000000 0.000001 -0.000001 0.349065
    72 0.000000 -0.000003 0.000000 0.000000 0.000000 0.000000
    73 0.000003 0.000000 0.000000 0.000000 0.000000 0.000000
    74 -0.000010 -0.000006 0.000000 -0.000001 0.000000 0.000000
    75 0.000019 0.000002 0.000000 0.000000 0.000000 0.000000
    76 0.000001 0.000004 0.000000 0.000000 0.000000 -0.000001
    77 0.000000 0.000000 0.000000 0.000000 0.000000 -0.000001
    78 0.000001 -0.000002 0.000000 0.000000 0.000000 -0.000001
    79 0.000000 0.000000 0.000000 0.000000 0.000000 -0.000001
    80 0.000001 0.000008 0.000000 0.000000 0.000000 0.000000
    81 -0.000003 0.000004 0.000000 0.000000 0.000000 0.000000
    82 -0.000007 -0.000008 0.000000 0.000000 0.000000 -0.000001
    83 0.000000 0.000002 -0.000002 -1.570796 0.000000 0.000000
end
