version 1
nodes
  0 "smg" -1
  1 "smg_magbullet" 0
  2 "smg_bolt" 0
  3 "smg_boltpull" 0
  4 "smg_boltrelease" 0
  5 "smg_trigger" 0
  6 "smg_selectfire" 0
  7 "smg_mag" 0
  8 "smg_magbull2" 7
  9 "smg_magbull1" 8
  10 "smg_grip" 0
  11 "smg_stock" 0
  12 "l_wrist" -1
  13 "l_thumb_low" 12
  14 "l_thumb_mid" 13
  15 "l_thumb_tip" 14
  16 "l_index_low" 12
  17 "l_index_mid" 16
  18 "l_index_tip" 17
  19 "l_middle_low" 12
  20 "l_middle_mid" 19
  21 "l_middle_tip" 20
  22 "l_ring_low" 12
  23 "l_ring_mid" 22
  24 "l_ring_tip" 23
  25 "l_pinky_low" 12
  26 "l_pinky_mid" 25
  27 "l_pinky_tip" 26
  28 "l_upperarm" -1
  29 "l_forearm" 28
  30 "r_wrist" -1
  31 "r_thumb_low" 30
  32 "r_thumb_mid" 31
  33 "r_thumb_tip" 32
  34 "r_index_low" 30
  35 "r_index_mid" 34
  36 "r_index_tip" 35
  37 "r_middle_low" 30
  38 "r_middle_mid" 37
  39 "r_middle_tip" 38
  40 "r_ring_low" 30
  41 "r_ring_mid" 40
  42 "r_ring_tip" 41
  43 "r_pinky_low" 30
  44 "r_pinky_mid" 43
  45 "r_pinky_tip" 44
  46 "r_upperarm" -1
  47 "r_forearm" 46
  48 "ValveBiped.Bip01_L_UpperArm" 28
  49 "ValveBiped.Bip01_L_Forearm" 29
  50 "ValveBiped.Bip01_L_Hand" 12
  51 "ValveBiped.Bip01_L_Finger0" 13
  52 "ValveBiped.Bip01_L_Finger01" 14
  53 "ValveBiped.Bip01_L_Finger02" 15
  54 "ValveBiped.Bip01_L_Finger1" 16
  55 "ValveBiped.Bip01_L_Finger11" 17
  56 "ValveBiped.Bip01_L_Finger12" 18
  57 "ValveBiped.Bip01_L_Finger2" 19
  58 "ValveBiped.Bip01_L_Finger21" 20
  59 "ValveBiped.Bip01_L_Finger22" 21
  60 "ValveBiped.Bip01_L_Finger3" 22
  61 "ValveBiped.Bip01_L_Finger31" 23
  62 "ValveBiped.Bip01_L_Finger32" 24
  63 "ValveBiped.Bip01_L_Finger4" 25
  64 "ValveBiped.Bip01_L_Finger41" 26
  65 "ValveBiped.Bip01_L_Finger42" 27
  66 "ValveBiped.Bip01_R_UpperArm" 46
  67 "ValveBiped.Bip01_R_Forearm" 47
  68 "ValveBiped.Bip01_R_Hand" 30
  69 "ValveBiped.Bip01_R_Finger0" 31
  70 "ValveBiped.Bip01_R_Finger01" 32
  71 "ValveBiped.Bip01_R_Finger02" 33
  72 "ValveBiped.Bip01_R_Finger1" 34
  73 "ValveBiped.Bip01_R_Finger11" 35
  74 "ValveBiped.Bip01_R_Finger12" 36
  75 "ValveBiped.Bip01_R_Finger2" 37
  76 "ValveBiped.Bip01_R_Finger21" 38
  77 "ValveBiped.Bip01_R_Finger22" 39
  78 "ValveBiped.Bip01_R_Finger3" 40
  79 "ValveBiped.Bip01_R_Finger31" 41
  80 "ValveBiped.Bip01_R_Finger32" 42
  81 "ValveBiped.Bip01_R_Finger4" 43
  82 "ValveBiped.Bip01_R_Finger41" 44
  83 "ValveBiped.Bip01_R_Finger42" 45
end
skeleton
  time 0
    0 -3.019531 -15.718750 -5.937500 -1.784174 0.174438 -1.400135
    1 -0.991211 -1.335938 -0.025543 0.000000 0.000004 0.000000
    2 -1.938477 -1.362305 0.224854 0.000000 0.000002 0.000000
    3 -4.549240 -1.689358 -0.012529 0.000000 0.000000 0.000000
    4 4.331499 0.360595 -0.709097 0.000015 0.000003 0.056022
    5 3.513922 0.962076 -0.004281 0.000004 -0.000001 1.176003
    6 2.855053 0.477292 0.679213 -0.000001 -0.000004 2.896619
    7 1.649902 5.878080 0.032496 -0.000003 0.000002 -1.570796
    8 6.587842 -0.691444 0.025964 -0.000001 -0.000001 1.570796
    9 0.000002 -0.241401 -0.052690 0.000001 0.000001 0.000000
    10 10.620066 1.884898 -0.004843 -1.570796 -0.000002 1.570796
    11 -9.087198 1.359573 -0.008167 -0.000003 0.000002 -1.570796
    12 -0.197876 -22.140625 -11.539063 2.832694 0.031841 -1.914872
    13 1.473659 0.639418 -1.295234 2.246122 0.440238 0.736988
    14 1.832607 0.000002 -0.000008 3.110046 0.047491 0.758067
    15 1.003335 0.000005 0.000001 -3.039631 -0.014360 -0.167795
    16 3.823895 -0.419603 -1.411520 0.229111 -0.129702 0.759604
    17 2.187956 0.000010 0.000000 -0.012074 -0.011778 1.896838
    18 1.100960 0.000002 0.000000 0.384940 -0.022913 0.395371
    19 3.987863 -0.577452 -0.474712 0.106879 -0.099185 0.745908
    20 1.890109 -0.000010 -0.000001 -0.024603 -0.088998 1.713905
    21 1.310925 0.000000 0.000000 0.487412 0.014701 0.431451
    22 4.117986 -0.654534 0.453695 0.083847 -0.114161 0.864721
    23 1.655294 0.000008 0.000000 -0.039666 0.033468 1.386069
    24 0.869582 0.000004 0.000000 0.072424 -0.050415 0.567060
    25 4.150630 -0.581594 1.354863 -0.339133 -0.077116 0.722457
    26 1.157247 -0.000010 -0.000002 -0.226790 -0.320738 1.454285
    27 1.019835 -0.000006 0.000000 -1.463034 -0.151735 0.429389
    28 7.398438 -6.027344 -8.898438 -1.667891 0.930561 -1.868161
    29 12.695427 -0.000020 -0.000008 -0.220511 0.297038 -1.574619
    30 -4.855469 -12.617188 -9.179688 2.859017 0.183946 -1.390523
    31 1.474215 -0.497926 -1.376118 0.979422 0.426184 -0.250703
    32 1.832179 -0.000010 -0.000002 -2.526066 -0.301603 0.609625
    33 1.042025 -0.000004 -0.000009 -2.896631 -0.278775 -0.192766
    34 3.823320 0.664865 -1.331676 0.244544 0.361997 0.003988
    35 2.152367 -0.000001 0.000004 0.123680 -0.231520 -0.430903
    36 1.056622 -0.000011 0.000000 0.258033 -0.115109 -0.370410
    37 3.985134 0.881805 -0.368986 0.128322 -0.008132 -0.090211
    38 1.830183 0.000015 0.000000 0.063848 -0.073976 -1.510189
    39 1.561352 0.000008 -0.000004 0.027649 -0.015737 -1.357356
    40 4.116518 0.711272 0.551869 0.187927 0.006579 -0.361666
    41 1.752727 0.000006 0.000000 0.026400 0.029662 -1.405366
    42 0.869359 -0.000006 0.000000 0.015652 -0.073591 -0.926163
    43 4.118826 0.331223 1.419829 0.128888 -0.005990 -0.280207
    44 1.176321 0.000006 0.000000 -0.027338 0.139044 -0.923531
    45 0.970199 -0.000002 -0.000004 1.655571 0.044659 -1.487344
    46 -7.605469 0.997559 -4.121094 -3.096915 1.016084 -2.335987
    47 12.706336 -0.000035 -0.000009 -0.318382 0.281020 -1.920750
    48 0.000000 0.000000 -0.000003 0.000000 0.000000 0.000000
    49 1.200000 0.000000 0.000010 0.000000 0.000000 0.000000
    50 0.000010 -0.300000 0.000000 3.141593 0.000000 -0.174533
    51 0.000000 -0.000001 0.000000 0.000000 0.000000 0.000000
    52 -0.000003 0.000000 0.000001 3.141592 0.000000 0.000000
    53 0.000006 0.000000 0.000004 0.000000 0.000000 0.349065
    54 0.000000 0.000000 0.000000 3.141593 0.000000 0.000000
    55 -0.000008 -0.000006 0.000000 3.141593 0.000000 0.000000
    56 0.000002 -0.000002 0.000000 3.141593 0.000000 0.000000
    57 0.000014 -0.000004 0.000000 3.141593 0.000000 0.000000
    58 -0.000001 0.000000 0.000000 3.141593 0.000000 -0.000001
    59 0.000000 0.000000 0.000000 3.141593 0.000000 0.000000
    60 0.000010 0.000017 0.000000 3.141593 0.000000 -0.000001
    61 0.000000 0.000004 0.000000 3.141593 0.000000 -0.000001
    62 0.000000 0.000006 0.000000 3.141593 0.000000 -0.000001
    63 0.000001 0.000002 0.000000 3.141593 0.000000 0.000000
    64 0.000000 0.000000 0.000000 -3.141592 0.000000 0.000000
    65 0.000000 0.000000 0.000000 -1.570797 -0.000001 0.000000
    66 0.000000 0.000000 0.000000 0.000000 0.000000 0.000000
    67 1.200000 0.000000 0.000000 0.000000 0.000000 0.000000
    68 0.000009 0.299994 0.000000 0.000000 0.000000 0.174533
    69 -0.000001 -0.000001 -0.000004 0.000000 0.000000 0.000000
    70 -0.000010 0.000000 -0.000003 -3.141592 0.000001 0.000000
    71 0.000000 0.000000 0.000000 0.000001 -0.000001 0.349065
    72 0.000000 -0.000003 0.000000 0.000000 0.000000 0.000000
    73 0.000003 0.000000 0.000000 0.000000 0.000000 0.000000
    74 -0.000010 -0.000006 0.000000 -0.000001 0.000000 0.000000
    75 0.000019 0.000002 0.000000 0.000000 0.000000 0.000000
    76 0.000001 0.000004 0.000000 0.000000 0.000000 -0.000001
    77 0.000000 0.000000 0.000000 0.000000 0.000000 -0.000001
    78 0.000001 -0.000002 0.000000 0.000000 0.000000 -0.000001
    79 0.000000 0.000000 0.000000 0.000000 0.000000 -0.000001
    80 0.000001 0.000008 0.000000 0.000000 0.000000 0.000000
    81 -0.000003 0.000004 0.000000 0.000000 0.000000 0.000000
    82 -0.000007 -0.000008 0.000000 0.000000 0.000000 -0.000001
    83 0.000000 0.000002 -0.000002 -1.570796 0.000000 0.000000
  time 1
    0 -3.019531 -15.718750 -5.937500 -1.784174 0.174438 -1.400135
    1 -0.991211 -1.335938 -0.025543 0.000000 0.000004 0.000000
    2 -1.938477 -1.362305 0.224854 0.000000 0.000002 0.000000
    3 -4.549240 -1.689358 -0.012529 0.000000 0.000000 0.000000
    4 4.331499 0.360595 -0.709097 0.000015 0.000003 0.056022
    5 3.513922 0.962076 -0.004281 0.000004 -0.000001 1.176003
    6 2.855053 0.477292 0.679213 -0.000001 -0.000004 2.896619
    7 1.649902 5.878080 0.032496 -0.000003 0.000002 -1.570796
    8 6.587842 -0.691444 0.025964 -0.000001 -0.000001 1.570796
    9 0.000002 -0.241401 -0.052690 0.000001 0.000001 0.000000
    10 10.620066 1.884898 -0.004843 -1.570796 -0.000002 1.570796
    11 -9.087198 1.359573 -0.008167 -0.000003 0.000002 -1.570796
    12 -0.197876 -22.140625 -11.539063 2.832694 0.031841 -1.914872
    13 1.473659 0.639418 -1.295234 2.246122 0.440238 0.736988
    14 1.832607 0.000002 -0.000008 3.110046 0.047491 0.758067
    15 1.003335 0.000005 0.000001 -3.039631 -0.014360 -0.167795
    16 3.823895 -0.419603 -1.411520 0.229111 -0.129702 0.759604
    17 2.187956 0.000010 0.000000 -0.012074 -0.011778 1.896838
    18 1.100960 0.000002 0.000000 0.384940 -0.022913 0.395371
    19 3.987863 -0.577452 -0.474712 0.106879 -0.099185 0.745908
    20 1.890109 -0.000010 -0.000001 -0.024603 -0.088998 1.713905
    21 1.310925 0.000000 0.000000 0.487412 0.014701 0.431451
    22 4.117986 -0.654534 0.453695 0.083847 -0.114161 0.864721
    23 1.655294 0.000008 0.000000 -0.039666 0.033468 1.386069
    24 0.869582 0.000004 0.000000 0.072424 -0.050415 0.567060
    25 4.150630 -0.581594 1.354863 -0.339133 -0.077116 0.722457
    26 1.157247 -0.000010 -0.000002 -0.226790 -0.320738 1.454285
    27 1.019835 -0.000006 0.000000 -1.463034 -0.151735 0.429389
    28 7.398438 -6.027344 -8.898438 -1.667891 0.930561 -1.868161
    29 12.695427 -0.000020 -0.000008 -0.220511 0.297038 -1.574619
    30 -4.855469 -12.617188 -9.179688 2.859017 0.183946 -1.390523
    31 1.474215 -0.497926 -1.376118 0.979422 0.426184 -0.250703
    32 1.832179 -0.000010 -0.000002 -2.526066 -0.301603 0.609625
    33 1.042025 -0.000004 -0.000009 -2.896631 -0.278775 -0.192766
    34 3.823320 0.664865 -1.331676 0.244544 0.361997 0.003988
    35 2.152367 -0.000001 0.000004 0.123680 -0.231520 -0.430903
    36 1.056622 -0.000011 0.000000 0.258033 -0.115109 -0.370410
    37 3.985134 0.881805 -0.368986 0.128322 -0.008132 -0.090211
    38 1.830183 0.000015 0.000000 0.063848 -0.073976 -1.510189
    39 1.561352 0.000008 -0.000004 0.027649 -0.015737 -1.357356
    40 4.116518 0.711272 0.551869 0.187927 0.006579 -0.361666
    41 1.752727 0.000006 0.000000 0.026400 0.029662 -1.405366
    42 0.869359 -0.000006 0.000000 0.015652 -0.073591 -0.926163
    43 4.118826 0.331223 1.419829 0.128888 -0.005990 -0.280207
    44 1.176321 0.000006 0.000000 -0.027338 0.139044 -0.923531
    45 0.970199 -0.000002 -0.000004 1.655571 0.044659 -1.487344
    46 -7.605469 0.997559 -4.121094 -3.096915 1.016084 -2.335987
    47 12.706336 -0.000035 -0.000009 -0.318382 0.281020 -1.920750
    48 0.000000 0.000000 -0.000003 0.000000 0.000000 0.000000
    49 1.200000 0.000000 0.000010 0.000000 0.000000 0.000000
    50 0.000010 -0.300000 0.000000 3.141593 0.000000 -0.174533
    51 0.000000 -0.000001 0.000000 0.000000 0.000000 0.000000
    52 -0.000003 0.000000 0.000001 3.141592 0.000000 0.000000
    53 0.000006 0.000000 0.000004 0.000000 0.000000 0.349065
    54 0.000000 0.000000 0.000000 3.141593 0.000000 0.000000
    55 -0.000008 -0.000006 0.000000 3.141593 0.000000 0.000000
    56 0.000002 -0.000002 0.000000 3.141593 0.000000 0.000000
    57 0.000014 -0.000004 0.000000 3.141593 0.000000 0.000000
    58 -0.000001 0.000000 0.000000 3.141593 0.000000 -0.000001
    59 0.000000 0.000000 0.000000 3.141593 0.000000 0.000000
    60 0.000010 0.000017 0.000000 3.141593 0.000000 -0.000001
    61 0.000000 0.000004 0.000000 3.141593 0.000000 -0.000001
    62 0.000000 0.000006 0.000000 3.141593 0.000000 -0.000001
    63 0.000001 0.000002 0.000000 3.141593 0.000000 0.000000
    64 0.000000 0.000000 0.000000 -3.141592 0.000000 0.000000
    65 0.000000 0.000000 0.000000 -1.570797 -0.000001 0.000000
    66 0.000000 0.000000 0.000000 0.000000 0.000000 0.000000
    67 1.200000 0.000000 0.000000 0.000000 0.000000 0.000000
    68 0.000009 0.299994 0.000000 0.000000 0.000000 0.174533
    69 -0.000001 -0.000001 -0.000004 0.000000 0.000000 0.000000
    70 -0.000010 0.000000 -0.000003 -3.141592 0.000001 0.000000
    71 0.000000 0.000000 0.000000 0.000001 -0.000001 0.349065
    72 0.000000 -0.000003 0.000000 0.000000 0.000000 0.000000
    73 0.000003 0.000000 0.000000 0.000000 0.000000 0.000000
    74 -0.000010 -0.000006 0.000000 -0.000001 0.000000 0.000000
    75 0.000019 0.000002 0.000000 0.000000 0.000000 0.000000
    76 0.000001 0.000004 0.000000 0.000000 0.000000 -0.000001
    77 0.000000 0.000000 0.000000 0.000000 0.000000 -0.000001
    78 0.000001 -0.000002 0.000000 0.000000 0.000000 -0.000001
    79 0.000000 0.000000 0.000000 0.000000 0.000000 -0.000001
    80 0.000001 0.000008 0.000000 0.000000 0.000000 0.000000
    81 -0.000003 0.000004 0.000000 0.000000 0.000000 0.000000
    82 -0.000007 -0.000008 0.000000 0.000000 0.000000 -0.000001
    83 0.000000 0.000002 -0.000002 -1.570796 0.000000 0.000000
end
