version 1
nodes
  0 "ar2_weapon" -1
  1 "ar2_mag" 0
  2 "ar2_big_hammer" 0
  3 "ar2_vent" 0
  4 "ar2_arm1" 0
  5 "ar2_arm1_tip" 4
  6 "ar2_arm2" 0
  7 "ar2_arm2_tip" 6
  8 "ar2_mag_loader2" -1
  9 "ar2_mag_loader1" 8
  10 "l_wrist" -1
  11 "l_thumb_low" 10
  12 "l_thumb_mid" 11
  13 "l_thumb_tip" 12
  14 "l_index_low" 10
  15 "l_index_mid" 14
  16 "l_index_tip" 15
  17 "l_middle_low" 10
  18 "l_middle_mid" 17
  19 "l_middle_tip" 18
  20 "l_ring_low" 10
  21 "l_ring_mid" 20
  22 "l_ring_tip" 21
  23 "l_pinky_low" 10
  24 "l_pinky_mid" 23
  25 "l_pinky_tip" 24
  26 "l_upperarm" -1
  27 "l_forearm" 26
  28 "r_wrist" -1
  29 "r_thumb_low" 28
  30 "r_thumb_mid" 29
  31 "r_thumb_tip" 30
  32 "r_index_low" 28
  33 "r_index_mid" 32
  34 "r_index_tip" 33
  35 "r_middle_low" 28
  36 "r_middle_mid" 35
  37 "r_middle_tip" 36
  38 "r_ring_low" 28
  39 "r_ring_mid" 38
  40 "r_ring_tip" 39
  41 "r_pinky_low" 28
  42 "r_pinky_mid" 41
  43 "r_pinky_tip" 42
  44 "r_upperarm" -1
  45 "r_forearm" 44
  46 "ar2_core" 0
  47 "ar2_mag_core" 9
  48 "ValveBiped.Bip01_L_UpperArm" 26
  49 "ValveBiped.Bip01_L_Forearm" 27
  50 "ValveBiped.Bip01_L_Hand" 10
  51 "ValveBiped.Bip01_L_Finger0" 11
  52 "ValveBiped.Bip01_L_Finger01" 12
  53 "ValveBiped.Bip01_L_Finger02" 13
  54 "ValveBiped.Bip01_L_Finger1" 14
  55 "ValveBiped.Bip01_L_Finger11" 15
  56 "ValveBiped.Bip01_L_Finger12" 16
  57 "ValveBiped.Bip01_L_Finger2" 17
  58 "ValveBiped.Bip01_L_Finger21" 18
  59 "ValveBiped.Bip01_L_Finger22" 19
  60 "ValveBiped.Bip01_L_Finger3" 20
  61 "ValveBiped.Bip01_L_Finger31" 21
  62 "ValveBiped.Bip01_L_Finger32" 22
  63 "ValveBiped.Bip01_L_Finger4" 23
  64 "ValveBiped.Bip01_L_Finger41" 24
  65 "ValveBiped.Bip01_L_Finger42" 25
  66 "ValveBiped.Bip01_R_UpperArm" 44
  67 "ValveBiped.Bip01_R_Forearm" 45
  68 "ValveBiped.Bip01_R_Hand" 28
  69 "ValveBiped.Bip01_R_Finger0" 29
  70 "ValveBiped.Bip01_R_Finger01" 30
  71 "ValveBiped.Bip01_R_Finger02" 31
  72 "ValveBiped.Bip01_R_Finger1" 32
  73 "ValveBiped.Bip01_R_Finger11" 33
  74 "ValveBiped.Bip01_R_Finger12" 34
  75 "ValveBiped.Bip01_R_Finger2" 35
  76 "ValveBiped.Bip01_R_Finger21" 36
  77 "ValveBiped.Bip01_R_Finger22" 37
  78 "ValveBiped.Bip01_R_Finger3" 38
  79 "ValveBiped.Bip01_R_Finger31" 39
  80 "ValveBiped.Bip01_R_Finger32" 40
  81 "ValveBiped.Bip01_R_Finger4" 41
  82 "ValveBiped.Bip01_R_Finger41" 42
  83 "ValveBiped.Bip01_R_Finger42" 43
end
skeleton
  time 0
    0 -5.183594 -15.195313 -7.273438 -1.930690 0.218575 -1.387262
    1 9.243773 6.139962 1.326173 -0.000001 0.000001 -1.570796
    2 3.442229 -1.240687 -0.005672 -0.000002 -0.000003 0.000000
    3 17.667921 -1.384574 1.233112 0.000000 -0.000003 -3.141592
    4 13.081079 -1.084008 0.792839 1.570797 -0.879478 -3.141593
    5 0.758741 0.000010 -0.000001 -1.570796 0.000000 -1.124720
    6 12.977262 -1.858502 0.676013 0.518314 -0.428322 -2.516407
    7 0.562688 -0.000006 -0.000004 -0.013014 -0.008068 -0.959463
    8 -2.734375 -23.406250 -11.437500 -2.857986 -0.683735 0.001508
    9 2.341381 0.000021 0.000003 1.570738 1.242323 -0.000046
    10 0.025299 -18.140625 -14.398438 2.682787 0.189558 -1.496798
    11 1.473635 0.639422 -1.295233 1.873507 0.766141 0.332870
    12 1.832607 -0.000004 0.000007 3.131157 0.007152 0.847622
    13 1.003331 0.000000 0.000000 -3.095898 0.121084 0.034206
    14 3.823887 -0.419591 -1.411516 0.069795 0.155286 0.207665
    15 2.187963 0.000000 0.000000 -0.165860 -0.079982 1.419145
    16 1.100958 -0.000014 0.000000 0.087789 -0.052676 -0.184191
    17 3.987879 -0.577435 -0.474708 0.200523 0.169224 0.195907
    18 1.890100 -0.000008 0.000000 -0.153902 -0.042688 1.467060
    19 1.310926 0.000015 0.000000 -0.029742 0.074262 -0.259851
    20 4.117973 -0.654501 0.453699 0.085604 0.094078 0.260901
    21 1.655293 0.000002 0.000000 -0.029300 -0.049151 1.283708
    22 0.869586 0.000011 0.000000 0.062963 -0.019303 0.011257
    23 4.150639 -0.581580 1.354867 -0.178489 0.129533 0.002321
    24 1.157248 -0.000013 -0.000002 0.194852 -0.267810 1.185099
    25 1.019835 0.000002 0.000002 -1.675132 0.086213 0.371308
    26 3.421875 -5.000000 -5.121094 -0.852933 1.404042 -0.912473
    27 12.695436 0.000001 0.000018 -0.271046 0.292637 -1.748183
    28 -7.886719 -10.226563 -9.265625 2.712740 0.229358 -1.379089
    29 1.474217 -0.497913 -1.376119 1.283295 0.486352 -0.349530
    30 1.832175 -0.000001 0.000001 -2.584529 -0.154324 0.716779
    31 1.042012 0.000000 -0.000006 -2.947027 -0.173385 -0.033771
    32 3.823319 0.664870 -1.331676 0.158599 0.157845 -0.009983
    33 2.152367 0.000010 0.000000 0.024731 -0.002662 0.007918
    34 1.056626 -0.000010 0.000000 0.270444 0.003305 -0.009267
    35 3.985126 0.881823 -0.368987 0.187084 0.205031 -0.528366
    36 1.830173 0.000000 0.000000 0.309987 -0.029019 -1.518072
    37 1.561352 0.000013 0.000000 0.027381 0.000717 -1.353498
    38 4.116548 0.711289 0.551868 0.372889 0.175494 -0.950855
    39 1.752729 -0.000006 0.000000 0.065686 0.077348 -1.199519
    40 0.869356 0.000002 0.000000 0.010553 -0.055944 -0.881565
    41 4.118825 0.331244 1.419828 0.091711 0.246075 -1.081329
    42 1.176325 -0.000002 0.000000 0.019562 0.360396 -0.780529
    43 0.970213 0.000000 0.000000 1.685049 0.078253 -1.123261
    44 -9.257813 -1.000000 -5.121094 2.694887 1.062926 -2.917612
    45 12.706341 0.000001 0.000000 -0.423553 0.217005 -2.341356
    46 11.809021 -1.206475 0.191726 -0.000002 -0.000003 0.000000
    47 0.598399 -0.643255 -0.162013 0.000000 -1.570796 -0.835635
    48 0.000010 0.000000 0.000011 0.000000 0.000000 0.000000
    49 1.200000 0.000000 0.000000 0.000000 0.000000 0.000000
    50 0.000010 -0.300000 0.000000 -3.141593 0.000000 -0.174533
    51 0.000000 -0.000001 0.000003 0.000001 -0.000001 0.000000
    52 0.000002 0.000000 -0.000002 -3.141593 0.000001 0.000000
    53 0.000002 0.000000 0.000002 0.000000 0.000000 0.349066
    54 0.000000 0.000000 0.000000 -3.141593 0.000000 0.000000
    55 0.000002 -0.000002 0.000000 -3.141593 0.000000 -0.000001
    56 0.000007 0.000004 0.000000 -3.141593 0.000000 -0.000001
    57 0.000001 -0.000004 0.000000 -3.141593 0.000000 0.000000
    58 0.000002 0.000010 0.000000 -3.141593 0.000000 0.000000
    59 0.000000 0.000000 0.000000 -3.141593 0.000000 0.000000
    60 -0.000001 -0.000004 0.000000 -3.141593 0.000000 0.000000
    61 0.000000 -0.000004 0.000000 -3.141593 0.000000 0.000000
    62 0.000001 -0.000002 0.000000 -3.141593 0.000000 0.000001
    63 0.000001 -0.000002 0.000000 3.141592 0.000000 -0.000001
    64 0.000000 0.000000 0.000000 -3.141593 0.000000 0.000000
    65 0.000000 0.000000 0.000000 -1.570797 -0.000001 0.000000
    66 0.000000 0.000000 0.000000 0.000000 0.000000 0.000000
    67 1.200001 0.000000 0.000000 0.000000 0.000000 0.000000
    68 0.000000 0.300000 0.000000 0.000000 0.000000 0.174533
    69 0.000000 0.000000 -0.000001 0.000000 0.000000 0.000000
    70 0.000000 0.000000 -0.000001 -3.141593 0.000000 0.000000
    71 0.000000 0.000000 0.000000 0.000001 0.000000 0.349065
    72 -0.000004 0.000003 0.000000 0.000000 0.000000 0.000000
    73 0.000009 -0.000006 0.000000 0.000000 0.000000 -0.000001
    74 0.000000 -0.000002 -0.000001 0.000000 -0.000001 -0.000001
    75 0.000000 0.000000 0.000000 0.000000 0.000000 0.000000
    76 0.000000 0.000000 0.000000 0.000000 0.000000 0.000001
    77 0.000000 0.000002 0.000000 0.000000 0.000000 0.000000
    78 -0.000007 -0.000013 0.000000 0.000000 0.000000 0.000001
    79 0.000000 0.000000 0.000000 0.000000 0.000000 0.000000
    80 0.000000 0.000000 0.000000 0.000000 0.000000 0.000000
    81 0.000000 0.000000 0.000000 0.000000 0.000000 0.000000
    82 0.000000 0.000000 0.000000 0.000000 0.000000 0.000000
    83 0.000000 0.000000 0.000004 -1.570797 0.000001 0.000000
  time 1
    0 -5.183594 -15.195313 -7.273438 -1.930690 0.218575 -1.387262
    1 9.243773 6.139962 1.326173 -0.000001 0.000001 -1.570796
    2 3.442229 -1.240687 -0.005672 -0.000002 -0.000003 0.000000
    3 17.667921 -1.384574 1.233112 0.000000 -0.000003 -3.141592
    4 13.081079 -1.084008 0.792839 1.570797 -0.879478 -3.141593
    5 0.758741 0.000010 -0.000001 -1.570796 0.000000 -1.124720
    6 12.977262 -1.858502 0.676013 0.518314 -0.428322 -2.516407
    7 0.562688 -0.000006 -0.000004 -0.013014 -0.008068 -0.959463
    8 -2.734375 -23.406250 -11.437500 -2.857986 -0.683735 0.001508
    9 2.341381 0.000021 0.000003 1.570738 1.242323 -0.000046
    10 0.025299 -18.140625 -14.398438 2.682787 0.189558 -1.496798
    11 1.473635 0.639422 -1.295233 1.873507 0.766141 0.332870
    12 1.832607 -0.000004 0.000007 3.131157 0.007152 0.847622
    13 1.003331 0.000000 0.000000 -3.095898 0.121084 0.034206
    14 3.823887 -0.419591 -1.411516 0.069795 0.155286 0.207665
    15 2.187963 0.000000 0.000000 -0.165860 -0.079982 1.419145
    16 1.100958 -0.000014 0.000000 0.087789 -0.052676 -0.184191
    17 3.987879 -0.577435 -0.474708 0.200523 0.169224 0.195907
    18 1.890100 -0.000008 0.000000 -0.153902 -0.042688 1.467060
    19 1.310926 0.000015 0.000000 -0.029742 0.074262 -0.259851
    20 4.117973 -0.654501 0.453699 0.085604 0.094078 0.260901
    21 1.655293 0.000002 0.000000 -0.029300 -0.049151 1.283708
    22 0.869586 0.000011 0.000000 0.062963 -0.019303 0.011257
    23 4.150639 -0.581580 1.354867 -0.178489 0.129533 0.002321
    24 1.157248 -0.000013 -0.000002 0.194852 -0.267810 1.185099
    25 1.019835 0.000002 0.000002 -1.675132 0.086213 0.371308
    26 3.421875 -5.000000 -5.121094 -0.852933 1.404042 -0.912473
    27 12.695436 0.000001 0.000018 -0.271046 0.292637 -1.748183
    28 -7.886719 -10.226563 -9.265625 2.712740 0.229358 -1.379089
    29 1.474217 -0.497913 -1.376119 1.283295 0.486352 -0.349530
    30 1.832175 -0.000001 0.000001 -2.584529 -0.154324 0.716779
    31 1.042012 0.000000 -0.000006 -2.947027 -0.173385 -0.033771
    32 3.823319 0.664870 -1.331676 0.158599 0.157845 -0.009983
    33 2.152367 0.000010 0.000000 0.024731 -0.002662 0.007918
    34 1.056626 -0.000010 0.000000 0.270444 0.003305 -0.009267
    35 3.985126 0.881823 -0.368987 0.187084 0.205031 -0.528366
    36 1.830173 0.000000 0.000000 0.309987 -0.029019 -1.518072
    37 1.561352 0.000013 0.000000 0.027381 0.000717 -1.353498
    38 4.116548 0.711289 0.551868 0.372889 0.175494 -0.950855
    39 1.752729 -0.000006 0.000000 0.065686 0.077348 -1.199519
    40 0.869356 0.000002 0.000000 0.010553 -0.055944 -0.881565
    41 4.118825 0.331244 1.419828 0.091711 0.246075 -1.081329
    42 1.176325 -0.000002 0.000000 0.019562 0.360396 -0.780529
    43 0.970213 0.000000 0.000000 1.685049 0.078253 -1.123261
    44 -9.257813 -1.000000 -5.121094 2.694887 1.062926 -2.917612
    45 12.706341 0.000001 0.000000 -0.423553 0.217005 -2.341356
    46 11.809021 -1.206475 0.191726 -0.000002 -0.000003 0.000000
    47 0.598399 -0.643255 -0.162013 0.000000 -1.570796 -0.835635
    48 0.000010 0.000000 0.000011 0.000000 0.000000 0.000000
    49 1.200000 0.000000 0.000000 0.000000 0.000000 0.000000
    50 0.000010 -0.300000 0.000000 -3.141593 0.000000 -0.174533
    51 0.000000 -0.000001 0.000003 0.000001 -0.000001 0.000000
    52 0.000002 0.000000 -0.000002 -3.141593 0.000001 0.000000
    53 0.000002 0.000000 0.000002 0.000000 0.000000 0.349066
    54 0.000000 0.000000 0.000000 -3.141593 0.000000 0.000000
    55 0.000002 -0.000002 0.000000 -3.141593 0.000000 -0.000001
    56 0.000007 0.000004 0.000000 -3.141593 0.000000 -0.000001
    57 0.000001 -0.000004 0.000000 -3.141593 0.000000 0.000000
    58 0.000002 0.000010 0.000000 -3.141593 0.000000 0.000000
    59 0.000000 0.000000 0.000000 -3.141593 0.000000 0.000000
    60 -0.000001 -0.000004 0.000000 -3.141593 0.000000 0.000000
    61 0.000000 -0.000004 0.000000 -3.141593 0.000000 0.000000
    62 0.000001 -0.000002 0.000000 -3.141593 0.000000 0.000001
    63 0.000001 -0.000002 0.000000 3.141592 0.000000 -0.000001
    64 0.000000 0.000000 0.000000 -3.141593 0.000000 0.000000
    65 0.000000 0.000000 0.000000 -1.570797 -0.000001 0.000000
    66 0.000000 0.000000 0.000000 0.000000 0.000000 0.000000
    67 1.200001 0.000000 0.000000 0.000000 0.000000 0.000000
    68 0.000000 0.300000 0.000000 0.000000 0.000000 0.174533
    69 0.000000 0.000000 -0.000001 0.000000 0.000000 0.000000
    70 0.000000 0.000000 -0.000001 -3.141593 0.000000 0.000000
    71 0.000000 0.000000 0.000000 0.000001 0.000000 0.349065
    72 -0.000004 0.000003 0.000000 0.000000 0.000000 0.000000
    73 0.000009 -0.000006 0.000000 0.000000 0.000000 -0.000001
    74 0.000000 -0.000002 -0.000001 0.000000 -0.000001 -0.000001
    75 0.000000 0.000000 0.000000 0.000000 0.000000 0.000000
    76 0.000000 0.000000 0.000000 0.000000 0.000000 0.000001
    77 0.000000 0.000002 0.000000 0.000000 0.000000 0.000000
    78 -0.000007 -0.000013 0.000000 0.000000 0.000000 0.000001
    79 0.000000 0.000000 0.000000 0.000000 0.000000 0.000000
    80 0.000000 0.000000 0.000000 0.000000 0.000000 0.000000
    81 0.000000 0.000000 0.000000 0.000000 0.000000 0.000000
    82 0.000000 0.000000 0.000000 0.000000 0.000000 0.000000
    83 0.000000 0.000000 0.000004 -1.570797 0.000001 0.000000
  time 2
    0 -5.183594 -15.195313 -7.273438 -1.930690 0.218575 -1.387262
    1 9.243773 6.139962 1.326173 -0.000001 0.000001 -1.570796
    2 3.442229 -1.240687 -0.005672 -0.000002 -0.000003 0.000000
    3 17.667921 -1.384574 1.233112 0.000000 -0.000003 -3.141592
    4 13.081079 -1.084008 0.792839 1.570797 -0.879478 -3.141593
    5 0.758741 0.000010 -0.000001 -1.570796 0.000000 -1.124720
    6 12.977262 -1.858502 0.676013 0.518314 -0.428322 -2.516407
    7 0.562688 -0.000006 -0.000004 -0.013014 -0.008068 -0.959463
    8 -2.734375 -23.406250 -11.437500 -2.857986 -0.683735 0.001508
    9 2.341381 0.000021 0.000003 1.570738 1.242323 -0.000046
    10 0.025299 -18.140625 -14.398438 2.682787 0.189558 -1.496798
    11 1.473635 0.639422 -1.295233 1.873507 0.766141 0.332870
    12 1.832607 -0.000004 0.000007 3.131157 0.007152 0.847622
    13 1.003331 0.000000 0.000000 -3.095898 0.121084 0.034206
    14 3.823887 -0.419591 -1.411516 0.069795 0.155286 0.207665
    15 2.187963 0.000000 0.000000 -0.165860 -0.079982 1.419145
    16 1.100958 -0.000014 0.000000 0.087789 -0.052676 -0.184191
    17 3.987879 -0.577435 -0.474708 0.200523 0.169224 0.195907
    18 1.890100 -0.000008 0.000000 -0.153902 -0.042688 1.467060
    19 1.310926 0.000015 0.000000 -0.029742 0.074262 -0.259851
    20 4.117973 -0.654501 0.453699 0.085604 0.094078 0.260901
    21 1.655293 0.000002 0.000000 -0.029300 -0.049151 1.283708
    22 0.869586 0.000011 0.000000 0.062963 -0.019303 0.011257
    23 4.150639 -0.581580 1.354867 -0.178489 0.129533 0.002321
    24 1.157248 -0.000013 -0.000002 0.194852 -0.267810 1.185099
    25 1.019835 0.000002 0.000002 -1.675132 0.086213 0.371308
    26 3.421875 -5.000000 -5.121094 -0.852933 1.404042 -0.912473
    27 12.695436 0.000001 0.000018 -0.271046 0.292637 -1.748183
    28 -7.886719 -10.226563 -9.265625 2.712740 0.229358 -1.379089
    29 1.474217 -0.497913 -1.376119 1.283295 0.486352 -0.349530
    30 1.832175 -0.000001 0.000001 -2.584529 -0.154324 0.716779
    31 1.042012 0.000000 -0.000006 -2.947027 -0.173385 -0.033771
    32 3.823319 0.664870 -1.331676 0.158599 0.157845 -0.009983
    33 2.152367 0.000010 0.000000 0.024731 -0.002662 0.007918
    34 1.056626 -0.000010 0.000000 0.270444 0.003305 -0.009267
    35 3.985126 0.881823 -0.368987 0.187084 0.205031 -0.528366
    36 1.830173 0.000000 0.000000 0.309987 -0.029019 -1.518072
    37 1.561352 0.000013 0.000000 0.027381 0.000717 -1.353498
    38 4.116548 0.711289 0.551868 0.372889 0.175494 -0.950855
    39 1.752729 -0.000006 0.000000 0.065686 0.077348 -1.199519
    40 0.869356 0.000002 0.000000 0.010553 -0.055944 -0.881565
    41 4.118825 0.331244 1.419828 0.091711 0.246075 -1.081329
    42 1.176325 -0.000002 0.000000 0.019562 0.360396 -0.780529
    43 0.970213 0.000000 0.000000 1.685049 0.078253 -1.123261
    44 -9.257813 -1.000000 -5.121094 2.694887 1.062926 -2.917612
    45 12.706341 0.000001 0.000000 -0.423553 0.217005 -2.341356
    46 11.809021 -1.206475 0.191726 -0.000002 -0.000003 0.000000
    47 0.598399 -0.643255 -0.162013 0.000000 -1.570796 -0.835635
    48 0.000010 0.000000 0.000011 0.000000 0.000000 0.000000
    49 1.200000 0.000000 0.000000 0.000000 0.000000 0.000000
    50 0.000010 -0.300000 0.000000 -3.141593 0.000000 -0.174533
    51 0.000000 -0.000001 0.000003 0.000001 -0.000001 0.000000
    52 0.000002 0.000000 -0.000002 -3.141593 0.000001 0.000000
    53 0.000002 0.000000 0.000002 0.000000 0.000000 0.349066
    54 0.000000 0.000000 0.000000 -3.141593 0.000000 0.000000
    55 0.000002 -0.000002 0.000000 -3.141593 0.000000 -0.000001
    56 0.000007 0.000004 0.000000 -3.141593 0.000000 -0.000001
    57 0.000001 -0.000004 0.000000 -3.141593 0.000000 0.000000
    58 0.000002 0.000010 0.000000 -3.141593 0.000000 0.000000
    59 0.000000 0.000000 0.000000 -3.141593 0.000000 0.000000
    60 -0.000001 -0.000004 0.000000 -3.141593 0.000000 0.000000
    61 0.000000 -0.000004 0.000000 -3.141593 0.000000 0.000000
    62 0.000001 -0.000002 0.000000 -3.141593 0.000000 0.000001
    63 0.000001 -0.000002 0.000000 3.141592 0.000000 -0.000001
    64 0.000000 0.000000 0.000000 -3.141593 0.000000 0.000000
    65 0.000000 0.000000 0.000000 -1.570797 -0.000001 0.000000
    66 0.000000 0.000000 0.000000 0.000000 0.000000 0.000000
    67 1.200001 0.000000 0.000000 0.000000 0.000000 0.000000
    68 0.000000 0.300000 0.000000 0.000000 0.000000 0.174533
    69 0.000000 0.000000 -0.000001 0.000000 0.000000 0.000000
    70 0.000000 0.000000 -0.000001 -3.141593 0.000000 0.000000
    71 0.000000 0.000000 0.000000 0.000001 0.000000 0.349065
    72 -0.000004 0.000003 0.000000 0.000000 0.000000 0.000000
    73 0.000009 -0.000006 0.000000 0.000000 0.000000 -0.000001
    74 0.000000 -0.000002 -0.000001 0.000000 -0.000001 -0.000001
    75 0.000000 0.000000 0.000000 0.000000 0.000000 0.000000
    76 0.000000 0.000000 0.000000 0.000000 0.000000 0.000001
    77 0.000000 0.000002 0.000000 0.000000 0.000000 0.000000
    78 -0.000007 -0.000013 0.000000 0.000000 0.000000 0.000001
    79 0.000000 0.000000 0.000000 0.000000 0.000000 0.000000
    80 0.000000 0.000000 0.000000 0.000000 0.000000 0.000000
    81 0.000000 0.000000 0.000000 0.000000 0.000000 0.000000
    82 0.000000 0.000000 0.000000 0.000000 0.000000 0.000000
    83 0.000000 0.000000 0.000004 -1.570797 0.000001 0.000000
end
