version 1
nodes
  0 "ar2_weapon" -1
  1 "ar2_mag" 0
  2 "ar2_big_hammer" 0
  3 "ar2_vent" 0
  4 "ar2_arm1" 0
  5 "ar2_arm1_tip" 4
  6 "ar2_arm2" 0
  7 "ar2_arm2_tip" 6
  8 "ar2_mag_loader2" -1
  9 "ar2_mag_loader1" 8
  10 "l_wrist" -1
  11 "l_thumb_low" 10
  12 "l_thumb_mid" 11
  13 "l_thumb_tip" 12
  14 "l_index_low" 10
  15 "l_index_mid" 14
  16 "l_index_tip" 15
  17 "l_middle_low" 10
  18 "l_middle_mid" 17
  19 "l_middle_tip" 18
  20 "l_ring_low" 10
  21 "l_ring_mid" 20
  22 "l_ring_tip" 21
  23 "l_pinky_low" 10
  24 "l_pinky_mid" 23
  25 "l_pinky_tip" 24
  26 "l_upperarm" -1
  27 "l_forearm" 26
  28 "r_wrist" -1
  29 "r_thumb_low" 28
  30 "r_thumb_mid" 29
  31 "r_thumb_tip" 30
  32 "r_index_low" 28
  33 "r_index_mid" 32
  34 "r_index_tip" 33
  35 "r_middle_low" 28
  36 "r_middle_mid" 35
  37 "r_middle_tip" 36
  38 "r_ring_low" 28
  39 "r_ring_mid" 38
  40 "r_ring_tip" 39
  41 "r_pinky_low" 28
  42 "r_pinky_mid" 41
  43 "r_pinky_tip" 42
  44 "r_upperarm" -1
  45 "r_forearm" 44
  46 "ar2_core" 0
  47 "ar2_mag_core" 9
  48 "ValveBiped.Bip01_L_UpperArm" 26
  49 "ValveBiped.Bip01_L_Forearm" 27
  50 "ValveBiped.Bip01_L_Hand" 10
  51 "ValveBiped.Bip01_L_Finger0" 11
  52 "ValveBiped.Bip01_L_Finger01" 12
  53 "ValveBiped.Bip01_L_Finger02" 13
  54 "ValveBiped.Bip01_L_Finger1" 14
  55 "ValveBiped.Bip01_L_Finger11" 15
  56 "ValveBiped.Bip01_L_Finger12" 16
  57 "ValveBiped.Bip01_L_Finger2" 17
  58 "ValveBiped.Bip01_L_Finger21" 18
  59 "ValveBiped.Bip01_L_Finger22" 19
  60 "ValveBiped.Bip01_L_Finger3" 20
  61 "ValveBiped.Bip01_L_Finger31" 21
  62 "ValveBiped.Bip01_L_Finger32" 22
  63 "ValveBiped.Bip01_L_Finger4" 23
  64 "ValveBiped.Bip01_L_Finger41" 24
  65 "ValveBiped.Bip01_L_Finger42" 25
  66 "ValveBiped.Bip01_R_UpperArm" 44
  67 "ValveBiped.Bip01_R_Forearm" 45
  68 "ValveBiped.Bip01_R_Hand" 28
  69 "ValveBiped.Bip01_R_Finger0" 29
  70 "ValveBiped.Bip01_R_Finger01" 30
  71 "ValveBiped.Bip01_R_Finger02" 31
  72 "ValveBiped.Bip01_R_Finger1" 32
  73 "ValveBiped.Bip01_R_Finger11" 33
  74 "ValveBiped.Bip01_R_Finger12" 34
  75 "ValveBiped.Bip01_R_Finger2" 35
  76 "ValveBiped.Bip01_R_Finger21" 36
  77 "ValveBiped.Bip01_R_Finger22" 37
  78 "ValveBiped.Bip01_R_Finger3" 38
  79 "ValveBiped.Bip01_R_Finger31" 39
  80 "ValveBiped.Bip01_R_Finger32" 40
  81 "ValveBiped.Bip01_R_Finger4" 41
  82 "ValveBiped.Bip01_R_Finger41" 42
  83 "ValveBiped.Bip01_R_Finger42" 43
end
skeleton
  time 0
    0 -5.185570 -15.196336 -7.274400 -1.930700 0.218562 -1.387845
    1 9.243773 6.139962 1.326173 -0.000001 0.000001 -1.570796
    2 3.442229 -1.240687 -0.005672 -0.000002 -0.000003 0.000000
    3 17.667921 -1.384574 1.233112 0.000000 -0.000003 -3.141592
    4 13.081079 -1.084008 0.792839 1.570797 -0.879478 -3.141593
    5 0.758741 0.000010 -0.000001 -1.570796 0.000000 -1.124720
    6 12.977262 -1.858502 0.676013 0.518314 -0.428322 -2.516407
    7 0.562688 -0.000006 -0.000004 -0.013014 -0.008068 -0.959463
    8 -2.759993 -23.412538 -11.435115 -2.858161 -0.683716 0.001381
    9 2.341381 0.000021 0.000003 1.570762 1.242323 -0.000034
    10 0.023337 -18.145055 -14.396030 2.682971 0.189565 -1.496785
    11 1.473635 0.639422 -1.295233 1.873628 0.766133 0.332959
    12 1.832607 -0.000004 0.000007 3.133799 0.005998 0.847615
    13 1.003331 0.000000 0.000000 -3.095899 0.121084 0.034207
    14 3.823887 -0.419591 -1.411516 0.069804 0.155291 0.207670
    15 2.187963 0.000000 0.000000 -0.165860 -0.079982 1.419145
    16 1.100958 -0.000014 0.000000 0.087789 -0.052675 -0.184191
    17 3.987879 -0.577435 -0.474708 0.200599 0.169222 0.195927
    18 1.890100 -0.000008 0.000000 -0.153900 -0.042693 1.467061
    19 1.310926 0.000015 0.000000 -0.029735 0.074255 -0.259839
    20 4.117973 -0.654501 0.453699 0.085702 0.094073 0.260959
    21 1.655293 0.000002 0.000000 -0.029300 -0.049151 1.283708
    22 0.869586 0.000011 0.000000 0.062910 -0.019307 0.011262
    23 4.150639 -0.581580 1.354867 -0.178487 0.129533 0.002321
    24 1.157248 -0.000013 -0.000002 0.194854 -0.267811 1.185099
    25 1.019835 0.000002 0.000002 -1.675132 0.086216 0.371310
    26 3.429456 -5.007721 -5.116617 -0.853099 1.404018 -0.912561
    27 12.695436 0.000001 0.000018 -0.271040 0.292522 -1.748204
    28 -7.890964 -10.228708 -9.270873 2.712891 0.229343 -1.379179
    29 1.474217 -0.497913 -1.376119 1.283295 0.486353 -0.349532
    30 1.832175 -0.000001 0.000001 -2.584533 -0.154298 0.716799
    31 1.042012 0.000000 -0.000006 -2.947082 -0.173403 -0.033749
    32 3.823319 0.664870 -1.331676 0.158623 0.157899 -0.009964
    33 2.152367 0.000010 0.000000 0.024740 -0.002780 0.007872
    34 1.056626 -0.000010 0.000000 0.270433 0.003319 -0.009414
    35 3.985126 0.881823 -0.368987 0.187088 0.205030 -0.528361
    36 1.830173 0.000000 0.000000 0.309985 -0.029021 -1.518072
    37 1.561352 0.000013 0.000000 0.027381 0.000717 -1.353498
    38 4.116548 0.711289 0.551868 0.372897 0.175497 -0.950866
    39 1.752729 -0.000006 0.000000 0.065677 0.077340 -1.199500
    40 0.869356 0.000002 0.000000 0.010535 -0.055956 -0.881549
    41 4.118825 0.331244 1.419828 0.091710 0.246073 -1.081329
    42 1.176325 -0.000002 0.000000 0.019561 0.360394 -0.780529
    43 0.970213 0.000000 0.000000 1.685136 0.078242 -1.123240
    44 -9.258431 -0.998731 -5.116617 -3.588480 1.062680 -2.917799
    45 12.706341 0.000001 0.000000 -0.423556 0.216868 -2.341418
    46 11.809021 -1.206475 0.191726 -0.000002 -0.000003 0.000000
    47 0.598399 -0.643255 -0.162013 0.000000 -1.570796 -0.835635
    48 0.000010 0.000000 0.000011 0.000000 0.000000 0.000000
    49 1.200000 0.000000 0.000000 0.000000 0.000000 0.000000
    50 0.000010 -0.300000 0.000000 -3.141593 0.000000 -0.174533
    51 0.000000 -0.000001 0.000003 0.000001 -0.000001 0.000000
    52 0.000002 0.000000 -0.000002 -3.141593 0.000001 0.000000
    53 0.000002 0.000000 0.000002 0.000000 0.000000 0.349066
    54 0.000000 0.000000 0.000000 -3.141593 0.000000 0.000000
    55 0.000002 -0.000002 0.000000 -3.141593 0.000000 -0.000001
    56 0.000007 0.000004 0.000000 -3.141593 0.000000 -0.000001
    57 0.000001 -0.000004 0.000000 -3.141593 0.000000 0.000000
    58 0.000002 0.000010 0.000000 -3.141593 0.000000 0.000000
    59 0.000000 0.000000 0.000000 -3.141593 0.000000 0.000000
    60 -0.000001 -0.000004 0.000000 -3.141593 0.000000 0.000000
    61 0.000000 -0.000004 0.000000 -3.141593 0.000000 0.000000
    62 0.000001 -0.000002 0.000000 -3.141593 0.000000 0.000001
    63 0.000001 -0.000002 0.000000 3.141592 0.000000 -0.000001
    64 0.000000 0.000000 0.000000 -3.141593 0.000000 0.000000
    65 0.000000 0.000000 0.000000 -1.570797 -0.000001 0.000000
    66 0.000000 0.000000 0.000000 0.000000 0.000000 0.000000
    67 1.200001 0.000000 0.000000 0.000000 0.000000 0.000000
    68 0.000000 0.300000 0.000000 0.000000 0.000000 0.174533
    69 0.000000 0.000000 -0.000001 0.000000 0.000000 0.000000
    70 0.000000 0.000000 -0.000001 -3.141593 0.000000 0.000000
    71 0.000000 0.000000 0.000000 0.000001 0.000000 0.349065
    72 -0.000004 0.000003 0.000000 0.000000 0.000000 0.000000
    73 0.000009 -0.000006 0.000000 0.000000 0.000000 -0.000001
    74 0.000000 -0.000002 -0.000001 0.000000 -0.000001 -0.000001
    75 0.000000 0.000000 0.000000 0.000000 0.000000 0.000000
    76 0.000000 0.000000 0.000000 0.000000 0.000000 0.000001
    77 0.000000 0.000002 0.000000 0.000000 0.000000 0.000000
    78 -0.000007 -0.000013 0.000000 0.000000 0.000000 0.000001
    79 0.000000 0.000000 0.000000 0.000000 0.000000 0.000000
    80 0.000000 0.000000 0.000000 0.000000 0.000000 0.000000
    81 0.000000 0.000000 0.000000 0.000000 0.000000 0.000000
    82 0.000000 0.000000 0.000000 0.000000 0.000000 0.000000
    83 0.000000 0.000000 0.000004 -1.570797 0.000001 0.000000
  time 1
    0 -5.189477 -15.192429 -7.254868 -1.925911 0.221904 -1.392657
    1 9.243773 6.139962 1.326173 -0.000001 0.000001 -1.570796
    2 3.442229 -1.240687 -0.005672 -0.000002 -0.000003 0.000000
    3 17.667921 -1.384574 1.233112 0.000000 -0.000003 -3.141592
    4 13.081079 -1.084008 0.792839 1.570797 -0.879478 -3.141593
    5 0.758741 0.000010 -0.000001 -1.570796 0.000000 -1.124720
    6 12.977262 -1.858502 0.676013 0.518314 -0.428322 -2.516407
    7 0.562688 -0.000006 -0.000004 -0.013014 -0.008068 -0.959463
    8 -2.795150 -23.408632 -11.446834 -2.852997 -0.687687 -0.007749
    9 2.341381 0.000021 0.000003 1.570750 1.242323 -0.000034
    10 0.031150 -18.145055 -14.372592 2.687300 0.193373 -1.501855
    11 1.473635 0.639422 -1.295233 1.875416 0.772137 0.335587
    12 1.832607 -0.000004 0.000007 3.133799 0.005998 0.847615
    13 1.003331 0.000000 0.000000 -3.095899 0.121084 0.034207
    14 3.823887 -0.419591 -1.411516 0.069804 0.155291 0.207670
    15 2.187963 0.000000 0.000000 -0.165860 -0.079982 1.419145
    16 1.100958 -0.000014 0.000000 0.087789 -0.052675 -0.184191
    17 3.987879 -0.577435 -0.474708 0.200599 0.169210 0.195927
    18 1.890100 -0.000008 0.000000 -0.153900 -0.042693 1.467061
    19 1.310926 0.000015 0.000000 -0.029735 0.074255 -0.259839
    20 4.117973 -0.654501 0.453699 0.085714 0.094073 0.260959
    21 1.655293 0.000002 0.000000 -0.029300 -0.049151 1.283708
    22 0.869586 0.000011 0.000000 0.062910 -0.019307 0.011274
    23 4.150639 -0.581580 1.354867 -0.178487 0.129533 0.002321
    24 1.157248 -0.000013 -0.000002 0.194854 -0.267811 1.185099
    25 1.019835 0.000002 0.000002 -1.675132 0.086216 0.371310
    26 3.429456 -5.007721 -5.116617 -0.856772 1.404018 -0.915119
    27 12.695436 0.000001 0.000018 -0.271513 0.292438 -1.749742
    28 -7.855806 -10.193551 -9.243528 2.717737 0.232639 -1.383932
    29 1.474217 -0.497913 -1.376119 1.283295 0.486353 -0.349532
    30 1.832175 -0.000001 0.000001 -2.584533 -0.154298 0.716799
    31 1.042012 0.000000 -0.000006 -2.947082 -0.173415 -0.033749
    32 3.823319 0.664870 -1.331676 0.158360 0.160008 -0.014464
    33 2.152367 0.000010 0.000000 0.024848 -0.006675 0.005905
    34 1.056626 -0.000010 0.000000 0.270137 0.002173 -0.017409
    35 3.985126 0.881823 -0.368987 0.187088 0.205030 -0.528361
    36 1.830173 0.000000 0.000000 0.309985 -0.029021 -1.518072
    37 1.561352 0.000013 0.000000 0.027381 0.000717 -1.353498
    38 4.116548 0.711289 0.551868 0.372897 0.175497 -0.950866
    39 1.752729 -0.000006 0.000000 0.065677 0.077340 -1.199500
    40 0.869356 0.000002 0.000000 0.010535 -0.055968 -0.881549
    41 4.118825 0.331244 1.419828 0.091710 0.246073 -1.081329
    42 1.176325 -0.000002 0.000000 0.019561 0.360394 -0.780529
    43 0.970213 0.000000 0.000000 1.685136 0.078242 -1.123257
    44 -9.258431 -0.998731 -5.116617 -3.587522 1.062273 -2.913466
    45 12.706341 0.000001 0.000000 -0.424080 0.216521 -2.343706
    46 11.809021 -1.206475 0.191726 -0.000002 -0.000003 0.000000
    47 0.598399 -0.643255 -0.162013 0.000000 -1.570796 -0.835635
    48 0.000010 0.000000 0.000011 0.000000 0.000000 0.000000
    49 1.200000 0.000000 0.000000 0.000000 0.000000 0.000000
    50 0.000010 -0.300000 0.000000 -3.141593 0.000000 -0.174533
    51 0.000000 -0.000001 0.000003 0.000001 -0.000001 0.000000
    52 0.000002 0.000000 -0.000002 -3.141593 0.000001 0.000000
    53 0.000002 0.000000 0.000002 0.000000 0.000000 0.349066
    54 0.000000 0.000000 0.000000 -3.141593 0.000000 0.000000
    55 0.000002 -0.000002 0.000000 -3.141593 0.000000 -0.000001
    56 0.000007 0.000004 0.000000 -3.141593 0.000000 -0.000001
    57 0.000001 -0.000004 0.000000 -3.141593 0.000000 0.000000
    58 0.000002 0.000010 0.000000 -3.141593 0.000000 0.000000
    59 0.000000 0.000000 0.000000 -3.141593 0.000000 0.000000
    60 -0.000001 -0.000004 0.000000 -3.141593 0.000000 0.000000
    61 0.000000 -0.000004 0.000000 -3.141593 0.000000 0.000000
    62 0.000001 -0.000002 0.000000 -3.141593 0.000000 0.000001
    63 0.000001 -0.000002 0.000000 3.141592 0.000000 -0.000001
    64 0.000000 0.000000 0.000000 -3.141593 0.000000 0.000000
    65 0.000000 0.000000 0.000000 -1.570797 -0.000001 0.000000
    66 0.000000 0.000000 0.000000 0.000000 0.000000 0.000000
    67 1.200001 0.000000 0.000000 0.000000 0.000000 0.000000
    68 0.000000 0.300000 0.000000 0.000000 0.000000 0.174533
    69 0.000000 0.000000 -0.000001 0.000000 0.000000 0.000000
    70 0.000000 0.000000 -0.000001 -3.141593 0.000000 0.000000
    71 0.000000 0.000000 0.000000 0.000001 0.000000 0.349065
    72 -0.000004 0.000003 0.000000 0.000000 0.000000 0.000000
    73 0.000009 -0.000006 0.000000 0.000000 0.000000 -0.000001
    74 0.000000 -0.000002 -0.000001 0.000000 -0.000001 -0.000001
    75 0.000000 0.000000 0.000000 0.000000 0.000000 0.000000
    76 0.000000 0.000000 0.000000 0.000000 0.000000 0.000001
    77 0.000000 0.000002 0.000000 0.000000 0.000000 0.000000
    78 -0.000007 -0.000013 0.000000 0.000000 0.000000 0.000001
    79 0.000000 0.000000 0.000000 0.000000 0.000000 0.000000
    80 0.000000 0.000000 0.000000 0.000000 0.000000 0.000000
    81 0.000000 0.000000 0.000000 0.000000 0.000000 0.000000
    82 0.000000 0.000000 0.000000 0.000000 0.000000 0.000000
    83 0.000000 0.000000 0.000004 -1.570797 0.000001 0.000000
  time 2
    0 -5.201196 -15.192429 -7.200179 -1.910316 0.228008 -1.406080
    1 9.243773 6.139962 1.326173 -0.000001 0.000001 -1.570796
    2 3.442229 -1.240687 -0.005672 -0.000002 -0.000003 0.000000
    3 17.667921 -1.384574 1.233112 0.000000 -0.000003 -3.141592
    4 13.081079 -1.084008 0.792839 1.570797 -0.879478 -3.141593
    5 0.758741 0.000010 -0.000001 -1.570796 0.000000 -1.124720
    6 12.977262 -1.858502 0.676013 0.518314 -0.428322 -2.516407
    7 0.562688 -0.000006 -0.000004 -0.013014 -0.008068 -0.959463
    8 -2.884997 -23.412538 -11.427302 -2.841235 -0.701483 -0.032033
    9 2.341381 0.000021 0.000003 1.570762 1.242323 -0.000046
    10 0.070214 -18.176306 -14.274933 2.702008 0.201109 -1.515813
    11 1.473635 0.639422 -1.295233 1.881011 0.789802 0.343519
    12 1.832607 -0.000004 0.000007 3.133799 0.005998 0.847592
    13 1.003331 0.000000 0.000000 -3.095899 0.121084 0.034207
    14 3.823887 -0.419591 -1.411516 0.069804 0.155291 0.207670
    15 2.187963 0.000000 0.000000 -0.165860 -0.079982 1.419145
    16 1.100958 -0.000014 0.000000 0.087789 -0.052675 -0.184191
    17 3.987879 -0.577435 -0.474708 0.200599 0.169222 0.195927
    18 1.890100 -0.000008 0.000000 -0.153900 -0.042693 1.467061
    19 1.310926 0.000015 0.000000 -0.029735 0.074255 -0.259839
    20 4.117973 -0.654501 0.453699 0.085714 0.094073 0.260959
    21 1.655293 0.000002 0.000000 -0.029300 -0.049151 1.283708
    22 0.869586 0.000011 0.000000 0.062910 -0.019307 0.011262
    23 4.150639 -0.581580 1.354867 -0.178487 0.129533 0.002321
    24 1.157248 -0.000013 -0.000002 0.194854 -0.267811 1.185099
    25 1.019835 0.000002 0.000002 -1.675132 0.086216 0.371310
    26 3.429456 -5.007721 -5.116617 -0.883585 1.404234 -0.936038
    27 12.695436 0.000001 0.000018 -0.272788 0.292283 -1.754223
    28 -7.754241 -10.146675 -9.184933 2.733418 0.238632 -1.397051
    29 1.474217 -0.497913 -1.376119 1.283295 0.486353 -0.349532
    30 1.832175 -0.000001 0.000001 -2.584533 -0.154298 0.716821
    31 1.042012 0.000000 -0.000006 -2.947082 -0.173415 -0.033749
    32 3.823319 0.664870 -1.331676 0.157065 0.166528 -0.028044
    33 2.152367 0.000010 0.000000 0.025351 -0.018444 0.000078
    34 1.056626 -0.000010 0.000000 0.269445 -0.001131 -0.041736
    35 3.985126 0.881823 -0.368987 0.187088 0.205030 -0.528361
    36 1.830173 0.000000 0.000000 0.309985 -0.029021 -1.518072
    37 1.561352 0.000013 0.000000 0.027381 0.000717 -1.353498
    38 4.116548 0.711289 0.551868 0.372897 0.175497 -0.950866
    39 1.752729 -0.000006 0.000000 0.065677 0.077340 -1.199500
    40 0.869356 0.000002 0.000000 0.010535 -0.055944 -0.881549
    41 4.118825 0.331244 1.419828 0.091710 0.246073 -1.081329
    42 1.176325 -0.000002 0.000000 0.019561 0.360394 -0.780529
    43 0.970213 0.000000 0.000000 1.685136 0.078242 -1.123257
    44 -9.258431 -0.998731 -5.116617 -3.585703 1.060011 -2.900556
    45 12.706341 0.000001 0.000000 -0.425259 0.215275 -2.349120
    46 11.809021 -1.206475 0.191726 -0.000002 -0.000003 0.000000
    47 0.598399 -0.643255 -0.162013 0.000000 -1.570796 -0.835635
    48 0.000010 0.000000 0.000011 0.000000 0.000000 0.000000
    49 1.200000 0.000000 0.000000 0.000000 0.000000 0.000000
    50 0.000010 -0.300000 0.000000 -3.141593 0.000000 -0.174533
    51 0.000000 -0.000001 0.000003 0.000001 -0.000001 0.000000
    52 0.000002 0.000000 -0.000002 -3.141593 0.000001 0.000000
    53 0.000002 0.000000 0.000002 0.000000 0.000000 0.349066
    54 0.000000 0.000000 0.000000 -3.141593 0.000000 0.000000
    55 0.000002 -0.000002 0.000000 -3.141593 0.000000 -0.000001
    56 0.000007 0.000004 0.000000 -3.141593 0.000000 -0.000001
    57 0.000001 -0.000004 0.000000 -3.141593 0.000000 0.000000
    58 0.000002 0.000010 0.000000 -3.141593 0.000000 0.000000
    59 0.000000 0.000000 0.000000 -3.141593 0.000000 0.000000
    60 -0.000001 -0.000004 0.000000 -3.141593 0.000000 0.000000
    61 0.000000 -0.000004 0.000000 -3.141593 0.000000 0.000000
    62 0.000001 -0.000002 0.000000 -3.141593 0.000000 0.000001
    63 0.000001 -0.000002 0.000000 3.141592 0.000000 -0.000001
    64 0.000000 0.000000 0.000000 -3.141593 0.000000 0.000000
    65 0.000000 0.000000 0.000000 -1.570797 -0.000001 0.000000
    66 0.000000 0.000000 0.000000 0.000000 0.000000 0.000000
    67 1.200001 0.000000 0.000000 0.000000 0.000000 0.000000
    68 0.000000 0.300000 0.000000 0.000000 0.000000 0.174533
    69 0.000000 0.000000 -0.000001 0.000000 0.000000 0.000000
    70 0.000000 0.000000 -0.000001 -3.141593 0.000000 0.000000
    71 0.000000 0.000000 0.000000 0.000001 0.000000 0.349065
    72 -0.000004 0.000003 0.000000 0.000000 0.000000 0.000000
    73 0.000009 -0.000006 0.000000 0.000000 0.000000 -0.000001
    74 0.000000 -0.000002 -0.000001 0.000000 -0.000001 -0.000001
    75 0.000000 0.000000 0.000000 0.000000 0.000000 0.000000
    76 0.000000 0.000000 0.000000 0.000000 0.000000 0.000001
    77 0.000000 0.000002 0.000000 0.000000 0.000000 0.000000
    78 -0.000007 -0.000013 0.000000 0.000000 0.000000 0.000001
    79 0.000000 0.000000 0.000000 0.000000 0.000000 0.000000
    80 0.000000 0.000000 0.000000 0.000000 0.000000 0.000000
    81 0.000000 0.000000 0.000000 0.000000 0.000000 0.000000
    82 0.000000 0.000000 0.000000 0.000000 0.000000 0.000000
    83 0.000000 0.000000 0.000004 -1.570797 0.000001 0.000000
  time 3
    0 -5.212915 -15.192429 -7.137677 -1.889072 0.228272 -1.420834
    1 9.243773 6.139962 1.326173 -0.000001 0.000001 -1.570796
    2 3.442229 -1.240687 -0.005672 -0.000002 -0.000003 0.000000
    3 17.667921 -1.384574 1.233112 0.000000 -0.000003 -3.141592
    4 13.081079 -1.084008 0.792839 1.570797 -0.879478 -3.141593
    5 0.758741 0.000010 -0.000001 -1.570796 0.000000 -1.124720
    6 12.977262 -1.858502 0.676013 0.518314 -0.428322 -2.516407
    7 0.562688 -0.000006 -0.000004 -0.013014 -0.008068 -0.959463
    8 -2.967031 -23.439883 -11.345268 -2.835402 -0.721667 -0.055470
    9 2.341381 0.000021 0.000003 1.570762 1.242323 -0.000034
    10 0.148341 -18.254433 -14.106959 2.723000 0.203659 -1.531142
    11 1.473635 0.639422 -1.295233 1.890163 0.816876 0.356166
    12 1.832607 -0.000004 0.000007 3.133799 0.005998 0.847592
    13 1.003331 0.000000 0.000000 -3.095899 0.121084 0.034207
    14 3.823887 -0.419591 -1.411516 0.069804 0.155291 0.207670
    15 2.187963 0.000000 0.000000 -0.165860 -0.079982 1.419145
    16 1.100958 -0.000014 0.000000 0.087789 -0.052675 -0.184191
    17 3.987879 -0.577435 -0.474708 0.200599 0.169222 0.195927
    18 1.890100 -0.000008 0.000000 -0.153900 -0.042693 1.467061
    19 1.310926 0.000015 0.000000 -0.029735 0.074255 -0.259839
    20 4.117973 -0.654501 0.453699 0.085714 0.094073 0.260959
    21 1.655293 0.000002 0.000000 -0.029300 -0.049151 1.283708
    22 0.869586 0.000011 0.000000 0.062910 -0.019307 0.011262
    23 4.150639 -0.581580 1.354867 -0.178487 0.129533 0.002321
    24 1.157248 -0.000013 -0.000002 0.194854 -0.267811 1.185099
    25 1.019835 0.000002 0.000002 -1.675132 0.086216 0.371310
    26 3.429456 -5.007721 -5.116617 -0.945016 1.403414 -0.985093
    27 12.695436 0.000001 0.000018 -0.274149 0.292091 -1.758971
    28 -7.621424 -10.088079 -9.145869 2.754683 0.238685 -1.411691
    29 1.474217 -0.497913 -1.376119 1.283295 0.486353 -0.349532
    30 1.832175 -0.000001 0.000001 -2.584533 -0.154298 0.716799
    31 1.042012 0.000000 -0.000006 -2.947082 -0.173391 -0.033749
    32 3.823319 0.664870 -1.331676 0.154932 0.177074 -0.050509
    33 2.152367 0.000010 0.000000 0.026130 -0.038014 -0.009610
    34 1.056626 -0.000010 0.000000 0.268490 -0.006727 -0.081914
    35 3.985126 0.881823 -0.368987 0.187088 0.205030 -0.528361
    36 1.830173 0.000000 0.000000 0.309985 -0.029021 -1.518072
    37 1.561352 0.000013 0.000000 0.027381 0.000717 -1.353498
    38 4.116548 0.711289 0.551868 0.372897 0.175497 -0.950866
    39 1.752729 -0.000006 0.000000 0.065677 0.077340 -1.199500
    40 0.869356 0.000002 0.000000 0.010535 -0.055944 -0.881549
    41 4.118825 0.331244 1.419828 0.091710 0.246073 -1.081329
    42 1.176325 -0.000002 0.000000 0.019561 0.360394 -0.780529
    43 0.970213 0.000000 0.000000 1.685136 0.078242 -1.123257
    44 -9.258431 -0.998731 -5.116617 -3.585703 1.055487 -2.884816
    45 12.706341 0.000001 0.000000 -0.426045 0.214496 -2.353009
    46 11.809021 -1.206475 0.191726 -0.000002 -0.000003 0.000000
    47 0.598399 -0.643255 -0.162013 0.000000 -1.570796 -0.835635
    48 0.000010 0.000000 0.000011 0.000000 0.000000 0.000000
    49 1.200000 0.000000 0.000000 0.000000 0.000000 0.000000
    50 0.000010 -0.300000 0.000000 -3.141593 0.000000 -0.174533
    51 0.000000 -0.000001 0.000003 0.000001 -0.000001 0.000000
    52 0.000002 0.000000 -0.000002 -3.141593 0.000001 0.000000
    53 0.000002 0.000000 0.000002 0.000000 0.000000 0.349066
    54 0.000000 0.000000 0.000000 -3.141593 0.000000 0.000000
    55 0.000002 -0.000002 0.000000 -3.141593 0.000000 -0.000001
    56 0.000007 0.000004 0.000000 -3.141593 0.000000 -0.000001
    57 0.000001 -0.000004 0.000000 -3.141593 0.000000 0.000000
    58 0.000002 0.000010 0.000000 -3.141593 0.000000 0.000000
    59 0.000000 0.000000 0.000000 -3.141593 0.000000 0.000000
    60 -0.000001 -0.000004 0.000000 -3.141593 0.000000 0.000000
    61 0.000000 -0.000004 0.000000 -3.141593 0.000000 0.000000
    62 0.000001 -0.000002 0.000000 -3.141593 0.000000 0.000001
    63 0.000001 -0.000002 0.000000 3.141592 0.000000 -0.000001
    64 0.000000 0.000000 0.000000 -3.141593 0.000000 0.000000
    65 0.000000 0.000000 0.000000 -1.570797 -0.000001 0.000000
    66 0.000000 0.000000 0.000000 0.000000 0.000000 0.000000
    67 1.200001 0.000000 0.000000 0.000000 0.000000 0.000000
    68 0.000000 0.300000 0.000000 0.000000 0.000000 0.174533
    69 0.000000 0.000000 -0.000001 0.000000 0.000000 0.000000
    70 0.000000 0.000000 -0.000001 -3.141593 0.000000 0.000000
    71 0.000000 0.000000 0.000000 0.000001 0.000000 0.349065
    72 -0.000004 0.000003 0.000000 0.000000 0.000000 0.000000
    73 0.000009 -0.000006 0.000000 0.000000 0.000000 -0.000001
    74 0.000000 -0.000002 -0.000001 0.000000 -0.000001 -0.000001
    75 0.000000 0.000000 0.000000 0.000000 0.000000 0.000000
    76 0.000000 0.000000 0.000000 0.000000 0.000000 0.000001
    77 0.000000 0.000002 0.000000 0.000000 0.000000 0.000000
    78 -0.000007 -0.000013 0.000000 0.000000 0.000000 0.000001
    79 0.000000 0.000000 0.000000 0.000000 0.000000 0.000000
    80 0.000000 0.000000 0.000000 0.000000 0.000000 0.000000
    81 0.000000 0.000000 0.000000 0.000000 0.000000 0.000000
    82 0.000000 0.000000 0.000000 0.000000 0.000000 0.000000
    83 0.000000 0.000000 0.000004 -1.570797 0.000001 0.000000
  time 4
    0 -5.212915 -15.192429 -7.051737 -1.865569 0.220321 -1.435461
    1 9.243773 6.139962 1.326173 -0.000001 0.000001 -1.570796
    2 3.442229 -1.240687 -0.005672 -0.000002 -0.000003 0.000000
    3 17.667921 -1.384574 1.233112 0.000000 -0.000003 -3.141592
    4 13.081079 -1.084008 0.792839 1.570797 -0.879478 -3.141593
    5 0.758741 0.000010 -0.000001 -1.570796 0.000000 -1.124720
    6 12.977262 -1.858502 0.676013 0.518314 -0.428322 -2.516407
    7 0.562688 -0.000006 -0.000004 -0.013014 -0.008068 -0.959463
    8 -3.037345 -23.502384 -11.169482 -2.839514 -0.745728 -0.072506
    9 2.341381 0.000021 0.000003 1.570750 1.242323 -0.000034
    10 0.242094 -18.387250 -13.880389 2.747250 0.198318 -1.546233
    11 1.473635 0.639422 -1.295233 1.901430 0.847376 0.371441
    12 1.832607 -0.000004 0.000007 3.133799 0.005998 0.847615
    13 1.003331 0.000000 0.000000 -3.095899 0.121084 0.034207
    14 3.823887 -0.419591 -1.411516 0.069804 0.155291 0.207670
    15 2.187963 0.000000 0.000000 -0.165860 -0.079982 1.419145
    16 1.100958 -0.000014 0.000000 0.087789 -0.052675 -0.184191
    17 3.987879 -0.577435 -0.474708 0.200599 0.169210 0.195927
    18 1.890100 -0.000008 0.000000 -0.153900 -0.042693 1.467061
    19 1.310926 0.000015 0.000000 -0.029735 0.074255 -0.259839
    20 4.117973 -0.654501 0.453699 0.085714 0.094073 0.260959
    21 1.655293 0.000002 0.000000 -0.029300 -0.049151 1.283708
    22 0.869586 0.000011 0.000000 0.062910 -0.019307 0.011274
    23 4.150639 -0.581580 1.354867 -0.178487 0.129533 0.002321
    24 1.157248 -0.000013 -0.000002 0.194854 -0.267811 1.185099
    25 1.019835 0.000002 0.000002 -1.675132 0.086216 0.371310
    26 3.429456 -5.007721 -5.116617 -1.034729 1.398968 -1.059360
    27 12.695436 0.000001 0.000018 -0.275023 0.291935 -1.761980
    28 -7.476889 -10.049015 -9.145869 2.778137 0.230577 -1.426014
    29 1.474217 -0.497913 -1.376119 1.283295 0.486353 -0.349532
    30 1.832175 -0.000001 0.000001 -2.584533 -0.154298 0.716821
    31 1.042012 0.000000 -0.000006 -2.947082 -0.173415 -0.033749
    32 3.823319 0.664870 -1.331676 0.151660 0.191360 -0.080987
    33 2.152367 0.000010 0.000000 0.027497 -0.064440 -0.022708
    34 1.056626 -0.000010 0.000000 0.267584 -0.014228 -0.136401
    35 3.985126 0.881823 -0.368987 0.187088 0.205030 -0.528361
    36 1.830173 0.000000 0.000000 0.309985 -0.029021 -1.518072
    37 1.561352 0.000013 0.000000 0.027381 0.000717 -1.353498
    38 4.116548 0.711289 0.551868 0.372897 0.175497 -0.950866
    39 1.752729 -0.000006 0.000000 0.065677 0.077340 -1.199500
    40 0.869356 0.000002 0.000000 0.010535 -0.055944 -0.881549
    41 4.118825 0.331244 1.419828 0.091710 0.246073 -1.081329
    42 1.176325 -0.000002 0.000000 0.019561 0.360394 -0.780529
    43 0.970213 0.000000 0.000000 1.685136 0.078242 -1.123240
    44 -9.258431 -0.998731 -5.116617 -3.585894 1.060599 -2.871906
    45 12.706341 0.000001 0.000000 -0.426274 0.214388 -2.354077
    46 11.809021 -1.206475 0.191726 -0.000002 -0.000003 0.000000
    47 0.598399 -0.643255 -0.162013 0.000000 -1.570796 -0.835635
    48 0.000010 0.000000 0.000011 0.000000 0.000000 0.000000
    49 1.200000 0.000000 0.000000 0.000000 0.000000 0.000000
    50 0.000010 -0.300000 0.000000 -3.141593 0.000000 -0.174533
    51 0.000000 -0.000001 0.000003 0.000001 -0.000001 0.000000
    52 0.000002 0.000000 -0.000002 -3.141593 0.000001 0.000000
    53 0.000002 0.000000 0.000002 0.000000 0.000000 0.349066
    54 0.000000 0.000000 0.000000 -3.141593 0.000000 0.000000
    55 0.000002 -0.000002 0.000000 -3.141593 0.000000 -0.000001
    56 0.000007 0.000004 0.000000 -3.141593 0.000000 -0.000001
    57 0.000001 -0.000004 0.000000 -3.141593 0.000000 0.000000
    58 0.000002 0.000010 0.000000 -3.141593 0.000000 0.000000
    59 0.000000 0.000000 0.000000 -3.141593 0.000000 0.000000
    60 -0.000001 -0.000004 0.000000 -3.141593 0.000000 0.000000
    61 0.000000 -0.000004 0.000000 -3.141593 0.000000 0.000000
    62 0.000001 -0.000002 0.000000 -3.141593 0.000000 0.000001
    63 0.000001 -0.000002 0.000000 3.141592 0.000000 -0.000001
    64 0.000000 0.000000 0.000000 -3.141593 0.000000 0.000000
    65 0.000000 0.000000 0.000000 -1.570797 -0.000001 0.000000
    66 0.000000 0.000000 0.000000 0.000000 0.000000 0.000000
    67 1.200001 0.000000 0.000000 0.000000 0.000000 0.000000
    68 0.000000 0.300000 0.000000 0.000000 0.000000 0.174533
    69 0.000000 0.000000 -0.000001 0.000000 0.000000 0.000000
    70 0.000000 0.000000 -0.000001 -3.141593 0.000000 0.000000
    71 0.000000 0.000000 0.000000 0.000001 0.000000 0.349065
    72 -0.000004 0.000003 0.000000 0.000000 0.000000 0.000000
    73 0.000009 -0.000006 0.000000 0.000000 0.000000 -0.000001
    74 0.000000 -0.000002 -0.000001 0.000000 -0.000001 -0.000001
    75 0.000000 0.000000 0.000000 0.000000 0.000000 0.000000
    76 0.000000 0.000000 0.000000 0.000000 0.000000 0.000001
    77 0.000000 0.000002 0.000000 0.000000 0.000000 0.000000
    78 -0.000007 -0.000013 0.000000 0.000000 0.000000 0.000001
    79 0.000000 0.000000 0.000000 0.000000 0.000000 0.000000
    80 0.000000 0.000000 0.000000 0.000000 0.000000 0.000000
    81 0.000000 0.000000 0.000000 0.000000 0.000000 0.000000
    82 0.000000 0.000000 0.000000 0.000000 0.000000 0.000000
    83 0.000000 0.000000 0.000004 -1.570797 0.000001 0.000000
  time 5
    0 -5.216821 -15.192429 -6.946265 -1.838075 0.204507 -1.453190
    1 9.243773 6.139962 1.326173 -0.000001 0.000001 -1.570796
    2 3.442229 -1.240687 -0.005672 -0.000002 -0.000003 0.000000
    3 17.667921 -1.384574 1.233112 0.000000 -0.000003 -3.141592
    4 13.081079 -1.084008 0.792839 1.570797 -0.879478 -3.141593
    5 0.758741 0.000010 -0.000001 -1.570796 0.000000 -1.124720
    6 12.977262 -1.858502 0.676013 0.518314 -0.428322 -2.516407
    7 0.562688 -0.000006 -0.000004 -0.013014 -0.008068 -0.959463
    8 -3.123285 -23.603950 -10.899942 -2.853284 -0.775282 -0.086625
    9 2.341381 0.000021 0.000003 1.570762 1.242323 -0.000046
    10 0.351472 -18.602100 -13.567880 2.776201 0.185602 -1.564247
    11 1.473635 0.639422 -1.295233 1.912370 0.874282 0.385832
    12 1.832607 -0.000004 0.000007 3.133799 0.005998 0.847615
    13 1.003331 0.000000 0.000000 -3.095899 0.121084 0.034207
    14 3.823887 -0.419591 -1.411516 0.069804 0.155291 0.207670
    15 2.187963 0.000000 0.000000 -0.165860 -0.079982 1.419145
    16 1.100958 -0.000014 0.000000 0.087789 -0.052675 -0.184191
    17 3.987879 -0.577435 -0.474708 0.200599 0.169222 0.195927
    18 1.890100 -0.000008 0.000000 -0.153900 -0.042693 1.467061
    19 1.310926 0.000015 0.000000 -0.029735 0.074255 -0.259839
    20 4.117973 -0.654501 0.453699 0.085714 0.094073 0.260959
    21 1.655293 0.000002 0.000000 -0.029300 -0.049151 1.283708
    22 0.869586 0.000011 0.000000 0.062910 -0.019307 0.011262
    23 4.150639 -0.581580 1.354867 -0.178487 0.129533 0.002321
    24 1.157248 -0.000013 -0.000002 0.194854 -0.267811 1.185099
    25 1.019835 0.000002 0.000002 -1.675132 0.086216 0.371310
    26 3.429456 -5.007721 -5.116617 -1.145378 1.387357 -1.152080
    27 12.695436 0.000001 0.000018 -0.275238 0.291887 -1.762783
    28 -7.297196 -10.025577 -9.165401 2.805527 0.214537 -1.443506
    29 1.474217 -0.497913 -1.376119 1.283295 0.486353 -0.349532
    30 1.832175 -0.000001 0.000001 -2.584533 -0.154298 0.716799
    31 1.042012 0.000000 -0.000006 -2.947082 -0.173415 -0.033749
    32 3.823319 0.664870 -1.331676 0.147142 0.208282 -0.117713
    33 2.152367 0.000010 0.000000 0.029450 -0.096152 -0.038494
    34 1.056626 -0.000010 0.000000 0.266991 -0.023381 -0.201765
    35 3.985126 0.881823 -0.368987 0.187088 0.205030 -0.528361
    36 1.830173 0.000000 0.000000 0.309985 -0.029021 -1.518072
    37 1.561352 0.000013 0.000000 0.027381 0.000717 -1.353498
    38 4.116548 0.711289 0.551868 0.372897 0.175497 -0.950866
    39 1.752729 -0.000006 0.000000 0.065677 0.077340 -1.199500
    40 0.869356 0.000002 0.000000 0.010535 -0.055944 -0.881549
    41 4.118825 0.331244 1.419828 0.091710 0.246073 -1.081329
    42 1.176325 -0.000002 0.000000 0.019561 0.360394 -0.780529
    43 0.970213 0.000000 0.000000 1.685136 0.078242 -1.123257
    44 -9.258431 -0.998731 -5.116617 -3.583213 1.087200 -2.860411
    45 12.706341 0.000001 0.000000 -0.425914 0.214603 -2.352399
    46 11.809021 -1.206475 0.191726 -0.000002 -0.000003 0.000000
    47 0.598399 -0.643255 -0.162013 0.000000 -1.570796 -0.835635
    48 0.000010 0.000000 0.000011 0.000000 0.000000 0.000000
    49 1.200000 0.000000 0.000000 0.000000 0.000000 0.000000
    50 0.000010 -0.300000 0.000000 -3.141593 0.000000 -0.174533
    51 0.000000 -0.000001 0.000003 0.000001 -0.000001 0.000000
    52 0.000002 0.000000 -0.000002 -3.141593 0.000001 0.000000
    53 0.000002 0.000000 0.000002 0.000000 0.000000 0.349066
    54 0.000000 0.000000 0.000000 -3.141593 0.000000 0.000000
    55 0.000002 -0.000002 0.000000 -3.141593 0.000000 -0.000001
    56 0.000007 0.000004 0.000000 -3.141593 0.000000 -0.000001
    57 0.000001 -0.000004 0.000000 -3.141593 0.000000 0.000000
    58 0.000002 0.000010 0.000000 -3.141593 0.000000 0.000000
    59 0.000000 0.000000 0.000000 -3.141593 0.000000 0.000000
    60 -0.000001 -0.000004 0.000000 -3.141593 0.000000 0.000000
    61 0.000000 -0.000004 0.000000 -3.141593 0.000000 0.000000
    62 0.000001 -0.000002 0.000000 -3.141593 0.000000 0.000001
    63 0.000001 -0.000002 0.000000 3.141592 0.000000 -0.000001
    64 0.000000 0.000000 0.000000 -3.141593 0.000000 0.000000
    65 0.000000 0.000000 0.000000 -1.570797 -0.000001 0.000000
    66 0.000000 0.000000 0.000000 0.000000 0.000000 0.000000
    67 1.200001 0.000000 0.000000 0.000000 0.000000 0.000000
    68 0.000000 0.300000 0.000000 0.000000 0.000000 0.174533
    69 0.000000 0.000000 -0.000001 0.000000 0.000000 0.000000
    70 0.000000 0.000000 -0.000001 -3.141593 0.000000 0.000000
    71 0.000000 0.000000 0.000000 0.000001 0.000000 0.349065
    72 -0.000004 0.000003 0.000000 0.000000 0.000000 0.000000
    73 0.000009 -0.000006 0.000000 0.000000 0.000000 -0.000001
    74 0.000000 -0.000002 -0.000001 0.000000 -0.000001 -0.000001
    75 0.000000 0.000000 0.000000 0.000000 0.000000 0.000000
    76 0.000000 0.000000 0.000000 0.000000 0.000000 0.000001
    77 0.000000 0.000002 0.000000 0.000000 0.000000 0.000000
    78 -0.000007 -0.000013 0.000000 0.000000 0.000000 0.000001
    79 0.000000 0.000000 0.000000 0.000000 0.000000 0.000000
    80 0.000000 0.000000 0.000000 0.000000 0.000000 0.000000
    81 0.000000 0.000000 0.000000 0.000000 0.000000 0.000000
    82 0.000000 0.000000 0.000000 0.000000 0.000000 0.000000
    83 0.000000 0.000000 0.000004 -1.570797 0.000001 0.000000
  time 6
    0 -5.220728 -15.192429 -6.821261 -1.806823 0.181446 -1.473515
    1 9.243773 6.139962 1.326173 -0.000001 0.000001 -1.570796
    2 3.442229 -1.240687 -0.005672 -0.000002 -0.000003 0.000000
    3 17.667921 -1.384574 1.233112 0.000000 -0.000003 -3.141592
    4 13.081079 -1.084008 0.792839 1.570797 -0.879478 -3.141593
    5 0.758741 0.000010 -0.000001 -1.570796 0.000000 -1.124720
    6 12.977262 -1.858502 0.676013 0.518314 -0.428322 -2.516407
    7 0.562688 -0.000006 -0.000004 -0.013014 -0.008068 -0.959463
    8 -3.224851 -23.732860 -10.540556 -2.876903 -0.809906 -0.096414
    9 2.341381 0.000021 0.000003 1.570762 1.242323 -0.000046
    10 0.468664 -18.879452 -13.192868 2.809760 0.166080 -1.584706
    11 1.473635 0.639422 -1.295233 1.920022 0.891707 0.395876
    12 1.832607 -0.000004 0.000007 3.133799 0.005998 0.847615
    13 1.003331 0.000000 0.000000 -3.095899 0.121084 0.034207
    14 3.823887 -0.419591 -1.411516 0.069804 0.155291 0.207670
    15 2.187963 0.000000 0.000000 -0.165860 -0.079982 1.419145
    16 1.100958 -0.000014 0.000000 0.087789 -0.052675 -0.184191
    17 3.987879 -0.577435 -0.474708 0.200599 0.169222 0.195927
    18 1.890100 -0.000008 0.000000 -0.153900 -0.042693 1.467061
    19 1.310926 0.000015 0.000000 -0.029735 0.074255 -0.259839
    20 4.117973 -0.654501 0.453699 0.085714 0.094073 0.260959
    21 1.655293 0.000002 0.000000 -0.029300 -0.049151 1.283708
    22 0.869586 0.000011 0.000000 0.062910 -0.019307 0.011262
    23 4.150639 -0.581580 1.354867 -0.178487 0.129533 0.002321
    24 1.157248 -0.000013 -0.000002 0.194854 -0.267811 1.185099
    25 1.019835 0.000002 0.000002 -1.675132 0.086216 0.371310
    26 3.429456 -5.007721 -5.116617 -1.256119 1.367199 -1.244891
    27 12.695436 0.000001 0.000018 -0.274722 0.291995 -1.760910
    28 -7.090158 -10.017764 -9.208371 2.836619 0.191182 -1.463596
    29 1.474217 -0.497913 -1.376119 1.283295 0.486353 -0.349532
    30 1.832175 -0.000001 0.000001 -2.584533 -0.154298 0.716799
    31 1.042012 0.000000 -0.000006 -2.947082 -0.173415 -0.033749
    32 3.823319 0.664870 -1.331676 0.141509 0.226666 -0.158032
    33 2.152367 0.000010 0.000000 0.032350 -0.130571 -0.055886
    34 1.056626 -0.000010 0.000000 0.267024 -0.033427 -0.273339
    35 3.985126 0.881823 -0.368987 0.187088 0.205030 -0.528361
    36 1.830173 0.000000 0.000000 0.309985 -0.029021 -1.518072
    37 1.561352 0.000013 0.000000 0.027381 0.000717 -1.353498
    38 4.116548 0.711289 0.551868 0.372897 0.175497 -0.950866
    39 1.752729 -0.000006 0.000000 0.065677 0.077340 -1.199500
    40 0.869356 0.000002 0.000000 0.010535 -0.055968 -0.881549
    41 4.118825 0.331244 1.419828 0.091710 0.246073 -1.081329
    42 1.176325 -0.000002 0.000000 0.019561 0.360394 -0.780529
    43 0.970213 0.000000 0.000000 1.685136 0.078242 -1.123257
    44 -9.258431 -0.998731 -5.116617 -3.576797 1.135426 -2.852983
    45 12.706341 0.000001 0.000000 -0.424948 0.215526 -2.347824
    46 11.809021 -1.206475 0.191726 -0.000002 -0.000003 0.000000
    47 0.598399 -0.643255 -0.162013 0.000000 -1.570796 -0.835635
    48 0.000010 0.000000 0.000011 0.000000 0.000000 0.000000
    49 1.200000 0.000000 0.000000 0.000000 0.000000 0.000000
    50 0.000010 -0.300000 0.000000 -3.141593 0.000000 -0.174533
    51 0.000000 -0.000001 0.000003 0.000001 -0.000001 0.000000
    52 0.000002 0.000000 -0.000002 -3.141593 0.000001 0.000000
    53 0.000002 0.000000 0.000002 0.000000 0.000000 0.349066
    54 0.000000 0.000000 0.000000 -3.141593 0.000000 0.000000
    55 0.000002 -0.000002 0.000000 -3.141593 0.000000 -0.000001
    56 0.000007 0.000004 0.000000 -3.141593 0.000000 -0.000001
    57 0.000001 -0.000004 0.000000 -3.141593 0.000000 0.000000
    58 0.000002 0.000010 0.000000 -3.141593 0.000000 0.000000
    59 0.000000 0.000000 0.000000 -3.141593 0.000000 0.000000
    60 -0.000001 -0.000004 0.000000 -3.141593 0.000000 0.000000
    61 0.000000 -0.000004 0.000000 -3.141593 0.000000 0.000000
    62 0.000001 -0.000002 0.000000 -3.141593 0.000000 0.000001
    63 0.000001 -0.000002 0.000000 3.141592 0.000000 -0.000001
    64 0.000000 0.000000 0.000000 -3.141593 0.000000 0.000000
    65 0.000000 0.000000 0.000000 -1.570797 -0.000001 0.000000
    66 0.000000 0.000000 0.000000 0.000000 0.000000 0.000000
    67 1.200001 0.000000 0.000000 0.000000 0.000000 0.000000
    68 0.000000 0.300000 0.000000 0.000000 0.000000 0.174533
    69 0.000000 0.000000 -0.000001 0.000000 0.000000 0.000000
    70 0.000000 0.000000 -0.000001 -3.141593 0.000000 0.000000
    71 0.000000 0.000000 0.000000 0.000001 0.000000 0.349065
    72 -0.000004 0.000003 0.000000 0.000000 0.000000 0.000000
    73 0.000009 -0.000006 0.000000 0.000000 0.000000 -0.000001
    74 0.000000 -0.000002 -0.000001 0.000000 -0.000001 -0.000001
    75 0.000000 0.000000 0.000000 0.000000 0.000000 0.000000
    76 0.000000 0.000000 0.000000 0.000000 0.000000 0.000001
    77 0.000000 0.000002 0.000000 0.000000 0.000000 0.000000
    78 -0.000007 -0.000013 0.000000 0.000000 0.000000 0.000001
    79 0.000000 0.000000 0.000000 0.000000 0.000000 0.000000
    80 0.000000 0.000000 0.000000 0.000000 0.000000 0.000000
    81 0.000000 0.000000 0.000000 0.000000 0.000000 0.000000
    82 0.000000 0.000000 0.000000 0.000000 0.000000 0.000000
    83 0.000000 0.000000 0.000004 -1.570797 0.000001 0.000000
  time 7
    0 -5.224634 -15.188523 -6.688445 -1.772698 0.152879 -1.495424
    1 9.243773 6.139962 1.326173 -0.000001 0.000001 -1.570796
    2 3.442229 -1.240687 -0.005672 -0.000002 -0.000003 0.000000
    3 17.667921 -1.384574 1.233112 0.000000 -0.000003 -3.141592
    4 13.081079 -1.084008 0.792839 1.570797 -0.879478 -3.141593
    5 0.758741 0.000010 -0.000001 -1.570796 0.000000 -1.124720
    6 12.977262 -1.858502 0.676013 0.518314 -0.428322 -2.516407
    7 0.562688 -0.000006 -0.000004 -0.013014 -0.008068 -0.959463
    8 -3.338136 -23.873489 -10.114762 -2.909224 -0.848218 -0.099802
    9 2.341381 0.000021 0.000003 1.570750 1.242323 -0.000034
    10 0.585855 -19.195868 -12.755355 2.846717 0.141458 -1.606597
    11 1.473635 0.639422 -1.295233 1.922714 0.897712 0.399216
    12 1.832607 -0.000004 0.000007 3.133799 0.005998 0.847615
    13 1.003331 0.000000 0.000000 -3.095899 0.121084 0.034207
    14 3.823887 -0.419591 -1.411516 0.069804 0.155291 0.207670
    15 2.187963 0.000000 0.000000 -0.165860 -0.079982 1.419145
    16 1.100958 -0.000014 0.000000 0.087789 -0.052675 -0.184191
    17 3.987879 -0.577435 -0.474708 0.200599 0.169210 0.195927
    18 1.890100 -0.000008 0.000000 -0.153900 -0.042693 1.467061
    19 1.310926 0.000015 0.000000 -0.029735 0.074255 -0.259839
    20 4.117973 -0.654501 0.453699 0.085714 0.094073 0.260959
    21 1.655293 0.000002 0.000000 -0.029300 -0.049151 1.283708
    22 0.869586 0.000011 0.000000 0.062910 -0.019307 0.011262
    23 4.150639 -0.581580 1.354867 -0.178487 0.129533 0.002321
    24 1.157248 -0.000013 -0.000002 0.194854 -0.267811 1.185099
    25 1.019835 0.000002 0.000002 -1.675132 0.086216 0.371310
    26 3.429456 -5.007721 -5.116617 -1.349689 1.339315 -1.321899
    27 12.695436 0.000001 0.000018 -0.273490 0.292211 -1.756697
    28 -6.863589 -10.033390 -9.259154 2.870466 0.162275 -1.485271
    29 1.474217 -0.497913 -1.376119 1.283295 0.486353 -0.349532
    30 1.832175 -0.000001 0.000001 -2.584533 -0.154298 0.716799
    31 1.042012 0.000000 -0.000006 -2.947082 -0.173415 -0.033749
    32 3.823319 0.664870 -1.331676 0.135134 0.244679 -0.198625
    33 2.152367 0.000010 0.000000 0.035922 -0.165123 -0.073440
    34 1.056626 -0.000010 0.000000 0.267798 -0.043354 -0.344982
    35 3.985126 0.881823 -0.368987 0.187088 0.205030 -0.528361
    36 1.830173 0.000000 0.000000 0.309985 -0.029021 -1.518072
    37 1.561352 0.000013 0.000000 0.027381 0.000717 -1.353498
    38 4.116548 0.711289 0.551868 0.372897 0.175497 -0.950866
    39 1.752729 -0.000006 0.000000 0.065677 0.077340 -1.199500
    40 0.869356 0.000002 0.000000 0.010535 -0.055956 -0.881549
    41 4.118825 0.331244 1.419828 0.091710 0.246073 -1.081329
    42 1.176325 -0.000002 0.000000 0.019561 0.360394 -0.780529
    43 0.970213 0.000000 0.000000 1.685136 0.078242 -1.123257
    44 -9.258431 -0.998731 -5.116617 -3.567125 1.204553 -2.849181
    45 12.706341 0.000001 0.000000 -0.423376 0.217060 -2.340503
    46 11.809021 -1.206475 0.191726 -0.000002 -0.000003 0.000000
    47 0.598399 -0.643255 -0.162013 0.000000 -1.570796 -0.835635
    48 0.000010 0.000000 0.000011 0.000000 0.000000 0.000000
    49 1.200000 0.000000 0.000000 0.000000 0.000000 0.000000
    50 0.000010 -0.300000 0.000000 -3.141593 0.000000 -0.174533
    51 0.000000 -0.000001 0.000003 0.000001 -0.000001 0.000000
    52 0.000002 0.000000 -0.000002 -3.141593 0.000001 0.000000
    53 0.000002 0.000000 0.000002 0.000000 0.000000 0.349066
    54 0.000000 0.000000 0.000000 -3.141593 0.000000 0.000000
    55 0.000002 -0.000002 0.000000 -3.141593 0.000000 -0.000001
    56 0.000007 0.000004 0.000000 -3.141593 0.000000 -0.000001
    57 0.000001 -0.000004 0.000000 -3.141593 0.000000 0.000000
    58 0.000002 0.000010 0.000000 -3.141593 0.000000 0.000000
    59 0.000000 0.000000 0.000000 -3.141593 0.000000 0.000000
    60 -0.000001 -0.000004 0.000000 -3.141593 0.000000 0.000000
    61 0.000000 -0.000004 0.000000 -3.141593 0.000000 0.000000
    62 0.000001 -0.000002 0.000000 -3.141593 0.000000 0.000001
    63 0.000001 -0.000002 0.000000 3.141592 0.000000 -0.000001
    64 0.000000 0.000000 0.000000 -3.141593 0.000000 0.000000
    65 0.000000 0.000000 0.000000 -1.570797 -0.000001 0.000000
    66 0.000000 0.000000 0.000000 0.000000 0.000000 0.000000
    67 1.200001 0.000000 0.000000 0.000000 0.000000 0.000000
    68 0.000000 0.300000 0.000000 0.000000 0.000000 0.174533
    69 0.000000 0.000000 -0.000001 0.000000 0.000000 0.000000
    70 0.000000 0.000000 -0.000001 -3.141593 0.000000 0.000000
    71 0.000000 0.000000 0.000000 0.000001 0.000000 0.349065
    72 -0.000004 0.000003 0.000000 0.000000 0.000000 0.000000
    73 0.000009 -0.000006 0.000000 0.000000 0.000000 -0.000001
    74 0.000000 -0.000002 -0.000001 0.000000 -0.000001 -0.000001
    75 0.000000 0.000000 0.000000 0.000000 0.000000 0.000000
    76 0.000000 0.000000 0.000000 0.000000 0.000000 0.000001
    77 0.000000 0.000002 0.000000 0.000000 0.000000 0.000000
    78 -0.000007 -0.000013 0.000000 0.000000 0.000000 0.000001
    79 0.000000 0.000000 0.000000 0.000000 0.000000 0.000000
    80 0.000000 0.000000 0.000000 0.000000 0.000000 0.000000
    81 0.000000 0.000000 0.000000 0.000000 0.000000 0.000000
    82 0.000000 0.000000 0.000000 0.000000 0.000000 0.000000
    83 0.000000 0.000000 0.000004 -1.570797 0.000001 0.000000
  time 8
    0 -5.228540 -15.188523 -6.555628 -1.737443 0.121744 -1.517079
    1 9.243773 6.139962 1.326173 -0.000001 0.000001 -1.570796
    2 3.442229 -1.240687 -0.005672 -0.000002 -0.000003 0.000000
    3 17.667921 -1.384574 1.233112 0.000000 -0.000003 -3.141592
    4 13.081079 -1.084008 0.792839 1.570797 -0.879478 -3.141593
    5 0.758741 0.000010 -0.000001 -1.570796 0.000000 -1.124720
    6 12.977262 -1.858502 0.676013 0.518314 -0.428322 -2.516407
    7 0.562688 -0.000006 -0.000004 -0.013014 -0.008068 -0.959463
    8 -3.451420 -24.018025 -9.661623 -2.947952 -0.887770 -0.096696
    9 2.341381 0.000021 0.000003 1.570750 1.242323 -0.000034
    10 0.687420 -19.520097 -12.286591 2.885349 0.114372 -1.628249
    11 1.473635 0.639422 -1.295233 1.917465 0.886087 0.392537
    12 1.832607 -0.000004 0.000007 3.133799 0.005998 0.847592
    13 1.003331 0.000000 0.000000 -3.095899 0.121084 0.034207
    14 3.823887 -0.419591 -1.411516 0.069804 0.155291 0.207670
    15 2.187963 0.000000 0.000000 -0.165860 -0.079982 1.419145
    16 1.100958 -0.000014 0.000000 0.087789 -0.052675 -0.184191
    17 3.987879 -0.577435 -0.474708 0.200599 0.169222 0.195927
    18 1.890100 -0.000008 0.000000 -0.153900 -0.042693 1.467061
    19 1.310926 0.000015 0.000000 -0.029735 0.074255 -0.259839
    20 4.117973 -0.654501 0.453699 0.085714 0.094073 0.260959
    21 1.655293 0.000002 0.000000 -0.029300 -0.049151 1.283708
    22 0.869586 0.000011 0.000000 0.062910 -0.019307 0.011262
    23 4.150639 -0.581580 1.354867 -0.178487 0.129533 0.002321
    24 1.157248 -0.000013 -0.000002 0.194854 -0.267811 1.185099
    25 1.019835 0.000002 0.000002 -1.675132 0.086216 0.371310
    26 3.429456 -5.007721 -5.116617 -1.419568 1.306769 -1.377531
    27 12.695436 0.000001 0.000018 -0.271785 0.292378 -1.750812
    28 -6.629206 -10.068547 -9.337281 2.905469 0.130812 -1.506629
    29 1.474217 -0.497913 -1.376119 1.283295 0.486353 -0.349532
    30 1.832175 -0.000001 0.000001 -2.584533 -0.154298 0.716799
    31 1.042012 0.000000 -0.000006 -2.947082 -0.173415 -0.033749
    32 3.823319 0.664870 -1.331676 0.128398 0.261002 -0.236112
    33 2.152367 0.000010 0.000000 0.039541 -0.196511 -0.089785
    34 1.056626 -0.000010 0.000000 0.269132 -0.052387 -0.410620
    35 3.985126 0.881823 -0.368987 0.187088 0.205030 -0.528361
    36 1.830173 0.000000 0.000000 0.309985 -0.029021 -1.518072
    37 1.561352 0.000013 0.000000 0.027381 0.000717 -1.353498
    38 4.116548 0.711289 0.551868 0.372897 0.175497 -0.950866
    39 1.752729 -0.000006 0.000000 0.065677 0.077340 -1.199500
    40 0.869356 0.000002 0.000000 0.010535 -0.055968 -0.881549
    41 4.118825 0.331244 1.419828 0.091710 0.246073 -1.081329
    42 1.176325 -0.000002 0.000000 0.019561 0.360394 -0.780529
    43 0.970213 0.000000 0.000000 1.685117 0.078242 -1.123257
    44 -9.258431 -0.998731 -5.116617 -3.554293 1.288428 -2.850065
    45 12.706341 0.000001 0.000000 -0.421182 0.219170 -2.330361
    46 11.809021 -1.206475 0.191726 -0.000002 -0.000003 0.000000
    47 0.598399 -0.643255 -0.162013 0.000000 -1.570796 -0.835635
    48 0.000010 0.000000 0.000011 0.000000 0.000000 0.000000
    49 1.200000 0.000000 0.000000 0.000000 0.000000 0.000000
    50 0.000010 -0.300000 0.000000 -3.141593 0.000000 -0.174533
    51 0.000000 -0.000001 0.000003 0.000001 -0.000001 0.000000
    52 0.000002 0.000000 -0.000002 -3.141593 0.000001 0.000000
    53 0.000002 0.000000 0.000002 0.000000 0.000000 0.349066
    54 0.000000 0.000000 0.000000 -3.141593 0.000000 0.000000
    55 0.000002 -0.000002 0.000000 -3.141593 0.000000 -0.000001
    56 0.000007 0.000004 0.000000 -3.141593 0.000000 -0.000001
    57 0.000001 -0.000004 0.000000 -3.141593 0.000000 0.000000
    58 0.000002 0.000010 0.000000 -3.141593 0.000000 0.000000
    59 0.000000 0.000000 0.000000 -3.141593 0.000000 0.000000
    60 -0.000001 -0.000004 0.000000 -3.141593 0.000000 0.000000
    61 0.000000 -0.000004 0.000000 -3.141593 0.000000 0.000000
    62 0.000001 -0.000002 0.000000 -3.141593 0.000000 0.000001
    63 0.000001 -0.000002 0.000000 3.141592 0.000000 -0.000001
    64 0.000000 0.000000 0.000000 -3.141593 0.000000 0.000000
    65 0.000000 0.000000 0.000000 -1.570797 -0.000001 0.000000
    66 0.000000 0.000000 0.000000 0.000000 0.000000 0.000000
    67 1.200001 0.000000 0.000000 0.000000 0.000000 0.000000
    68 0.000000 0.300000 0.000000 0.000000 0.000000 0.174533
    69 0.000000 0.000000 -0.000001 0.000000 0.000000 0.000000
    70 0.000000 0.000000 -0.000001 -3.141593 0.000000 0.000000
    71 0.000000 0.000000 0.000000 0.000001 0.000000 0.349065
    72 -0.000004 0.000003 0.000000 0.000000 0.000000 0.000000
    73 0.000009 -0.000006 0.000000 0.000000 0.000000 -0.000001
    74 0.000000 -0.000002 -0.000001 0.000000 -0.000001 -0.000001
    75 0.000000 0.000000 0.000000 0.000000 0.000000 0.000000
    76 0.000000 0.000000 0.000000 0.000000 0.000000 0.000001
    77 0.000000 0.000002 0.000000 0.000000 0.000000 0.000000
    78 -0.000007 -0.000013 0.000000 0.000000 0.000000 0.000001
    79 0.000000 0.000000 0.000000 0.000000 0.000000 0.000000
    80 0.000000 0.000000 0.000000 0.000000 0.000000 0.000000
    81 0.000000 0.000000 0.000000 0.000000 0.000000 0.000000
    82 0.000000 0.000000 0.000000 0.000000 0.000000 0.000000
    83 0.000000 0.000000 0.000004 -1.570797 0.000001 0.000000
  time 9
    0 -5.236353 -15.188523 -6.442343 -1.703085 0.091418 -1.536454
    1 9.243773 6.139962 1.326173 -0.000001 0.000001 -1.570796
    2 3.442229 -1.240687 -0.005672 -0.000002 -0.000003 0.000000
    3 17.667921 -1.384574 1.233112 0.000000 -0.000003 -3.141592
    4 13.081079 -1.084008 0.792839 1.570797 -0.879478 -3.141593
    5 0.758741 0.000010 -0.000001 -1.570796 0.000000 -1.124720
    6 12.977262 -1.858502 0.676013 0.518314 -0.428322 -2.516407
    7 0.562688 -0.000006 -0.000004 -0.013014 -0.008068 -0.959463
    8 -3.556892 -24.139123 -9.224110 -2.989262 -0.925784 -0.087284
    9 2.341381 0.000021 0.000003 1.570750 1.242323 -0.000034
    10 0.777267 -19.816981 -11.821733 2.922818 0.088027 -1.647456
    11 1.473635 0.639422 -1.295233 1.903737 0.853333 0.374658
    12 1.832607 -0.000004 0.000007 3.133799 0.005998 0.847592
    13 1.003331 0.000000 0.000000 -3.095899 0.121084 0.034207
    14 3.823887 -0.419591 -1.411516 0.069804 0.155291 0.207670
    15 2.187963 0.000000 0.000000 -0.165860 -0.079982 1.419145
    16 1.100958 -0.000014 0.000000 0.087789 -0.052675 -0.184191
    17 3.987879 -0.577435 -0.474708 0.200599 0.169222 0.195927
    18 1.890100 -0.000008 0.000000 -0.153900 -0.042693 1.467061
    19 1.310926 0.000015 0.000000 -0.029735 0.074255 -0.259839
    20 4.117973 -0.654501 0.453699 0.085714 0.094073 0.260959
    21 1.655293 0.000002 0.000000 -0.029300 -0.049151 1.283708
    22 0.869586 0.000011 0.000000 0.062910 -0.019307 0.011262
    23 4.150639 -0.581580 1.354867 -0.178487 0.129533 0.002321
    24 1.157248 -0.000013 -0.000002 0.194854 -0.267811 1.185099
    25 1.019835 0.000002 0.000002 -1.675132 0.086216 0.371310
    26 3.429456 -5.007721 -5.116617 -1.468235 1.274396 -1.414619
    27 12.695436 0.000001 0.000018 -0.270023 0.292822 -1.744593
    28 -6.414356 -10.119330 -9.411502 2.939537 0.100089 -1.525705
    29 1.474217 -0.497913 -1.376119 1.283295 0.486353 -0.349532
    30 1.832175 -0.000001 0.000001 -2.584533 -0.154298 0.716799
    31 1.042012 0.000000 -0.000006 -2.947082 -0.173415 -0.033749
    32 3.823319 0.664870 -1.331676 0.122382 0.274377 -0.267593
    33 2.152367 0.000010 0.000000 0.043221 -0.222853 -0.103533
    34 1.056626 -0.000010 0.000000 0.270664 -0.059874 -0.465210
    35 3.985126 0.881823 -0.368987 0.187088 0.205030 -0.528361
    36 1.830173 0.000000 0.000000 0.309985 -0.029021 -1.518072
    37 1.561352 0.000013 0.000000 0.027381 0.000717 -1.353498
    38 4.116548 0.711289 0.551868 0.372897 0.175497 -0.950866
    39 1.752729 -0.000006 0.000000 0.065677 0.077340 -1.199500
    40 0.869356 0.000002 0.000000 0.010535 -0.055968 -0.881549
    41 4.118825 0.331244 1.419828 0.091710 0.246073 -1.081329
    42 1.176325 -0.000002 0.000000 0.019561 0.360394 -0.780529
    43 0.970213 0.000000 0.000000 1.685136 0.078242 -1.123257
    44 -9.258431 -0.998731 -5.116617 -3.541748 1.374520 -2.854575
    45 12.706341 0.000001 0.000000 -0.418644 0.221495 -2.318846
    46 11.809021 -1.206475 0.191726 -0.000002 -0.000003 0.000000
    47 0.598399 -0.643255 -0.162013 0.000000 -1.570796 -0.835635
    48 0.000010 0.000000 0.000011 0.000000 0.000000 0.000000
    49 1.200000 0.000000 0.000000 0.000000 0.000000 0.000000
    50 0.000010 -0.300000 0.000000 -3.141593 0.000000 -0.174533
    51 0.000000 -0.000001 0.000003 0.000001 -0.000001 0.000000
    52 0.000002 0.000000 -0.000002 -3.141593 0.000001 0.000000
    53 0.000002 0.000000 0.000002 0.000000 0.000000 0.349066
    54 0.000000 0.000000 0.000000 -3.141593 0.000000 0.000000
    55 0.000002 -0.000002 0.000000 -3.141593 0.000000 -0.000001
    56 0.000007 0.000004 0.000000 -3.141593 0.000000 -0.000001
    57 0.000001 -0.000004 0.000000 -3.141593 0.000000 0.000000
    58 0.000002 0.000010 0.000000 -3.141593 0.000000 0.000000
    59 0.000000 0.000000 0.000000 -3.141593 0.000000 0.000000
    60 -0.000001 -0.000004 0.000000 -3.141593 0.000000 0.000000
    61 0.000000 -0.000004 0.000000 -3.141593 0.000000 0.000000
    62 0.000001 -0.000002 0.000000 -3.141593 0.000000 0.000001
    63 0.000001 -0.000002 0.000000 3.141592 0.000000 -0.000001
    64 0.000000 0.000000 0.000000 -3.141593 0.000000 0.000000
    65 0.000000 0.000000 0.000000 -1.570797 -0.000001 0.000000
    66 0.000000 0.000000 0.000000 0.000000 0.000000 0.000000
    67 1.200001 0.000000 0.000000 0.000000 0.000000 0.000000
    68 0.000000 0.300000 0.000000 0.000000 0.000000 0.174533
    69 0.000000 0.000000 -0.000001 0.000000 0.000000 0.000000
    70 0.000000 0.000000 -0.000001 -3.141593 0.000000 0.000000
    71 0.000000 0.000000 0.000000 0.000001 0.000000 0.349065
    72 -0.000004 0.000003 0.000000 0.000000 0.000000 0.000000
    73 0.000009 -0.000006 0.000000 0.000000 0.000000 -0.000001
    74 0.000000 -0.000002 -0.000001 0.000000 -0.000001 -0.000001
    75 0.000000 0.000000 0.000000 0.000000 0.000000 0.000000
    76 0.000000 0.000000 0.000000 0.000000 0.000000 0.000001
    77 0.000000 0.000002 0.000000 0.000000 0.000000 0.000000
    78 -0.000007 -0.000013 0.000000 0.000000 0.000000 0.000001
    79 0.000000 0.000000 0.000000 0.000000 0.000000 0.000000
    80 0.000000 0.000000 0.000000 0.000000 0.000000 0.000000
    81 0.000000 0.000000 0.000000 0.000000 0.000000 0.000000
    82 0.000000 0.000000 0.000000 0.000000 0.000000 0.000000
    83 0.000000 0.000000 0.000004 -1.570797 0.000001 0.000000
  time 10
    0 -5.244166 -15.188523 -6.352497 -1.671526 0.064733 -1.551841
    1 9.243773 6.139962 1.326173 -0.000001 0.000001 -1.570796
    2 3.442229 -1.240687 -0.005672 -0.000002 -0.000003 0.000000
    3 17.667921 -1.384574 1.233112 0.000000 -0.000003 -3.141592
    4 13.081079 -1.084008 0.792839 1.570797 -0.879478 -3.141593
    5 0.758741 0.000010 -0.000001 -1.570796 0.000000 -1.124720
    6 12.977262 -1.858502 0.676013 0.518314 -0.428322 -2.516407
    7 0.562688 -0.000006 -0.000004 -0.013014 -0.008068 -0.959463
    8 -3.638926 -24.236782 -8.853005 -3.028659 -0.959890 -0.073259
    9 2.341381 0.000021 0.000003 1.570750 1.242323 -0.000034
    10 0.855394 -20.059176 -11.419377 2.957168 0.065025 -1.662666
    11 1.473635 0.639422 -1.295233 1.888048 0.810931 0.353342
    12 1.832607 -0.000004 0.000007 3.133799 0.005998 0.847615
    13 1.003331 0.000000 0.000000 -3.095899 0.121084 0.034207
    14 3.823887 -0.419591 -1.411516 0.069804 0.155291 0.207670
    15 2.187963 0.000000 0.000000 -0.165860 -0.079982 1.419145
    16 1.100958 -0.000014 0.000000 0.087789 -0.052675 -0.184191
    17 3.987879 -0.577435 -0.474708 0.200599 0.169210 0.195927
    18 1.890100 -0.000008 0.000000 -0.153900 -0.042693 1.467061
    19 1.310926 0.000015 0.000000 -0.029735 0.074255 -0.259839
    20 4.117973 -0.654501 0.453699 0.085714 0.094073 0.260959
    21 1.655293 0.000002 0.000000 -0.029300 -0.049151 1.283708
    22 0.869586 0.000011 0.000000 0.062910 -0.019307 0.011262
    23 4.150639 -0.581580 1.354867 -0.178487 0.129533 0.002321
    24 1.157248 -0.000013 -0.000002 0.194854 -0.267811 1.185099
    25 1.019835 0.000002 0.000002 -1.675132 0.086216 0.371310
    26 3.429456 -5.007721 -5.116617 -1.501751 1.245778 -1.438461
    27 12.695436 0.000001 0.000018 -0.268504 0.293050 -1.739243
    28 -6.234663 -10.177926 -9.497442 2.970789 0.073103 -1.540852
    29 1.474217 -0.497913 -1.376119 1.283295 0.486353 -0.349532
    30 1.832175 -0.000001 0.000001 -2.584533 -0.154298 0.716799
    31 1.042012 0.000000 -0.000006 -2.947082 -0.173403 -0.033749
    32 3.823319 0.664870 -1.331676 0.117636 0.284252 -0.290998
    33 2.152367 0.000010 0.000000 0.046097 -0.242064 -0.113888
    34 1.056626 -0.000010 0.000000 0.272064 -0.065351 -0.505526
    35 3.985126 0.881823 -0.368987 0.187088 0.205030 -0.528361
    36 1.830173 0.000000 0.000000 0.309985 -0.029021 -1.518072
    37 1.561352 0.000013 0.000000 0.027381 0.000717 -1.353498
    38 4.116548 0.711289 0.551868 0.372897 0.175497 -0.950866
    39 1.752729 -0.000006 0.000000 0.065677 0.077340 -1.199500
    40 0.869356 0.000002 0.000000 0.010535 -0.055968 -0.881549
    41 4.118825 0.331244 1.419828 0.091710 0.246073 -1.081329
    42 1.176325 -0.000002 0.000000 0.019561 0.360394 -0.780529
    43 0.970213 0.000000 0.000000 1.685117 0.078242 -1.123257
    44 -9.258431 -0.998731 -5.116617 -3.532555 1.446497 -2.860676
    45 12.706341 0.000001 0.000000 -0.416106 0.223832 -2.307255
    46 11.809021 -1.206475 0.191726 -0.000002 -0.000003 0.000000
    47 0.598399 -0.643255 -0.162013 0.000000 -1.570796 -0.835635
    48 0.000010 0.000000 0.000011 0.000000 0.000000 0.000000
    49 1.200000 0.000000 0.000000 0.000000 0.000000 0.000000
    50 0.000010 -0.300000 0.000000 -3.141593 0.000000 -0.174533
    51 0.000000 -0.000001 0.000003 0.000001 -0.000001 0.000000
    52 0.000002 0.000000 -0.000002 -3.141593 0.000001 0.000000
    53 0.000002 0.000000 0.000002 0.000000 0.000000 0.349066
    54 0.000000 0.000000 0.000000 -3.141593 0.000000 0.000000
    55 0.000002 -0.000002 0.000000 -3.141593 0.000000 -0.000001
    56 0.000007 0.000004 0.000000 -3.141593 0.000000 -0.000001
    57 0.000001 -0.000004 0.000000 -3.141593 0.000000 0.000000
    58 0.000002 0.000010 0.000000 -3.141593 0.000000 0.000000
    59 0.000000 0.000000 0.000000 -3.141593 0.000000 0.000000
    60 -0.000001 -0.000004 0.000000 -3.141593 0.000000 0.000000
    61 0.000000 -0.000004 0.000000 -3.141593 0.000000 0.000000
    62 0.000001 -0.000002 0.000000 -3.141593 0.000000 0.000001
    63 0.000001 -0.000002 0.000000 3.141592 0.000000 -0.000001
    64 0.000000 0.000000 0.000000 -3.141593 0.000000 0.000000
    65 0.000000 0.000000 0.000000 -1.570797 -0.000001 0.000000
    66 0.000000 0.000000 0.000000 0.000000 0.000000 0.000000
    67 1.200001 0.000000 0.000000 0.000000 0.000000 0.000000
    68 0.000000 0.300000 0.000000 0.000000 0.000000 0.174533
    69 0.000000 0.000000 -0.000001 0.000000 0.000000 0.000000
    70 0.000000 0.000000 -0.000001 -3.141593 0.000000 0.000000
    71 0.000000 0.000000 0.000000 0.000001 0.000000 0.349065
    72 -0.000004 0.000003 0.000000 0.000000 0.000000 0.000000
    73 0.000009 -0.000006 0.000000 0.000000 0.000000 -0.000001
    74 0.000000 -0.000002 -0.000001 0.000000 -0.000001 -0.000001
    75 0.000000 0.000000 0.000000 0.000000 0.000000 0.000000
    76 0.000000 0.000000 0.000000 0.000000 0.000000 0.000001
    77 0.000000 0.000002 0.000000 0.000000 0.000000 0.000000
    78 -0.000007 -0.000013 0.000000 0.000000 0.000000 0.000001
    79 0.000000 0.000000 0.000000 0.000000 0.000000 0.000000
    80 0.000000 0.000000 0.000000 0.000000 0.000000 0.000000
    81 0.000000 0.000000 0.000000 0.000000 0.000000 0.000000
    82 0.000000 0.000000 0.000000 0.000000 0.000000 0.000000
    83 0.000000 0.000000 0.000004 -1.570797 0.000001 0.000000
  time 11
    0 -5.248072 -15.188523 -6.301714 -1.644081 0.043361 -1.562099
    1 9.243773 6.139962 1.326173 -0.000001 0.000001 -1.570796
    2 3.442229 -1.240687 -0.005672 -0.000002 -0.000003 0.000000
    3 17.667921 -1.384574 1.233112 0.000000 -0.000003 -3.141592
    4 13.081079 -1.084008 0.792839 1.570797 -0.879478 -3.141593
    5 0.758741 0.000010 -0.000001 -1.570796 0.000000 -1.124720
    6 12.977262 -1.858502 0.676013 0.518314 -0.428322 -2.516407
    7 0.562688 -0.000006 -0.000004 -0.013014 -0.008068 -0.959463
    8 -3.689709 -24.307096 -8.567840 -3.062797 -0.988926 -0.056976
    9 2.341381 0.000021 0.000003 1.570762 1.242323 -0.000046
    10 0.925709 -20.234962 -11.099054 2.986864 0.046847 -1.672866
    11 1.473635 0.639422 -1.295233 1.877185 0.777890 0.338092
    12 1.832607 -0.000004 0.000007 3.133799 0.005998 0.847638
    13 1.003331 0.000000 0.000000 -3.095899 0.121084 0.034207
    14 3.823887 -0.419591 -1.411516 0.069804 0.155291 0.207670
    15 2.187963 0.000000 0.000000 -0.165860 -0.079982 1.419145
    16 1.100958 -0.000014 0.000000 0.087789 -0.052675 -0.184191
    17 3.987879 -0.577435 -0.474708 0.200599 0.169210 0.195927
    18 1.890100 -0.000008 0.000000 -0.153900 -0.042693 1.467061
    19 1.310926 0.000015 0.000000 -0.029735 0.074255 -0.259839
    20 4.117973 -0.654501 0.453699 0.085714 0.094073 0.260959
    21 1.655293 0.000002 0.000000 -0.029300 -0.049151 1.283708
    22 0.869586 0.000011 0.000000 0.062910 -0.019307 0.011274
    23 4.150639 -0.581580 1.354867 -0.178487 0.129533 0.002321
    24 1.157248 -0.000013 -0.000002 0.194854 -0.267811 1.185099
    25 1.019835 0.000002 0.000002 -1.675132 0.086216 0.371310
    26 3.429456 -5.007721 -5.116617 -1.524340 1.223462 -1.453534
    27 12.695436 0.000001 0.000018 -0.267630 0.293085 -1.736367
    28 -6.094034 -10.236521 -9.567757 2.998019 0.051458 -1.550929
    29 1.474217 -0.497913 -1.376119 1.283295 0.486353 -0.349532
    30 1.832175 -0.000001 0.000001 -2.584533 -0.154298 0.716799
    31 1.042012 0.000000 -0.000006 -2.947082 -0.173403 -0.033749
    32 3.823319 0.664870 -1.331676 0.114628 0.290077 -0.305241
    33 2.152367 0.000010 0.000000 0.047906 -0.253785 -0.120149
    34 1.056626 -0.000010 0.000000 0.273052 -0.068550 -0.529990
    35 3.985126 0.881823 -0.368987 0.187088 0.205030 -0.528361
    36 1.830173 0.000000 0.000000 0.309985 -0.029021 -1.518072
    37 1.561352 0.000013 0.000000 0.027381 0.000717 -1.353498
    38 4.116548 0.711289 0.551868 0.372897 0.175497 -0.950866
    39 1.752729 -0.000006 0.000000 0.065677 0.077340 -1.199500
    40 0.869356 0.000002 0.000000 0.010535 -0.055944 -0.881549
    41 4.118825 0.331244 1.419828 0.091710 0.246073 -1.081329
    42 1.176325 -0.000002 0.000000 0.019561 0.360394 -0.780529
    43 0.970213 0.000000 0.000000 1.685136 0.078242 -1.123257
    44 -9.258431 -0.998731 -5.116617 -3.527575 1.490606 -2.863329
    45 12.706341 0.000001 0.000000 -0.413781 0.225881 -2.296732
    46 11.809021 -1.206475 0.191726 -0.000002 -0.000003 0.000000
    47 0.598399 -0.643255 -0.162013 0.000000 -1.570796 -0.835635
    48 0.000010 0.000000 0.000011 0.000000 0.000000 0.000000
    49 1.200000 0.000000 0.000000 0.000000 0.000000 0.000000
    50 0.000010 -0.300000 0.000000 -3.141593 0.000000 -0.174533
    51 0.000000 -0.000001 0.000003 0.000001 -0.000001 0.000000
    52 0.000002 0.000000 -0.000002 -3.141593 0.000001 0.000000
    53 0.000002 0.000000 0.000002 0.000000 0.000000 0.349066
    54 0.000000 0.000000 0.000000 -3.141593 0.000000 0.000000
    55 0.000002 -0.000002 0.000000 -3.141593 0.000000 -0.000001
    56 0.000007 0.000004 0.000000 -3.141593 0.000000 -0.000001
    57 0.000001 -0.000004 0.000000 -3.141593 0.000000 0.000000
    58 0.000002 0.000010 0.000000 -3.141593 0.000000 0.000000
    59 0.000000 0.000000 0.000000 -3.141593 0.000000 0.000000
    60 -0.000001 -0.000004 0.000000 -3.141593 0.000000 0.000000
    61 0.000000 -0.000004 0.000000 -3.141593 0.000000 0.000000
    62 0.000001 -0.000002 0.000000 -3.141593 0.000000 0.000001
    63 0.000001 -0.000002 0.000000 3.141592 0.000000 -0.000001
    64 0.000000 0.000000 0.000000 -3.141593 0.000000 0.000000
    65 0.000000 0.000000 0.000000 -1.570797 -0.000001 0.000000
    66 0.000000 0.000000 0.000000 0.000000 0.000000 0.000000
    67 1.200001 0.000000 0.000000 0.000000 0.000000 0.000000
    68 0.000000 0.300000 0.000000 0.000000 0.000000 0.174533
    69 0.000000 0.000000 -0.000001 0.000000 0.000000 0.000000
    70 0.000000 0.000000 -0.000001 -3.141593 0.000000 0.000000
    71 0.000000 0.000000 0.000000 0.000001 0.000000 0.349065
    72 -0.000004 0.000003 0.000000 0.000000 0.000000 0.000000
    73 0.000009 -0.000006 0.000000 0.000000 0.000000 -0.000001
    74 0.000000 -0.000002 -0.000001 0.000000 -0.000001 -0.000001
    75 0.000000 0.000000 0.000000 0.000000 0.000000 0.000000
    76 0.000000 0.000000 0.000000 0.000000 0.000000 0.000001
    77 0.000000 0.000002 0.000000 0.000000 0.000000 0.000000
    78 -0.000007 -0.000013 0.000000 0.000000 0.000000 0.000001
    79 0.000000 0.000000 0.000000 0.000000 0.000000 0.000000
    80 0.000000 0.000000 0.000000 0.000000 0.000000 0.000000
    81 0.000000 0.000000 0.000000 0.000000 0.000000 0.000000
    82 0.000000 0.000000 0.000000 0.000000 0.000000 0.000000
    83 0.000000 0.000000 0.000004 -1.570797 0.000001 0.000000
  time 12
    0 -5.259791 -15.188523 -6.286089 -1.621241 0.027934 -1.566911
    1 9.243773 6.139962 1.326173 -0.000001 0.000001 -1.570796
    2 3.442229 -1.240687 -0.005672 -0.000002 -0.000003 0.000000
    3 17.667921 -1.384574 1.233112 0.000000 -0.000003 -3.141592
    4 13.081079 -1.084008 0.792839 1.570797 -0.879478 -3.141593
    5 0.758741 0.000010 -0.000001 -1.570796 0.000000 -1.124720
    6 12.977262 -1.858502 0.676013 0.518314 -0.428322 -2.516407
    7 0.562688 -0.000006 -0.000004 -0.013014 -0.008068 -0.959463
    8 -3.697522 -24.346160 -8.380334 -3.088807 -1.012579 -0.040410
    9 2.341381 0.000021 0.000003 1.570762 1.242323 -0.000034
    10 0.992117 -20.336528 -10.860766 3.011207 0.034045 -1.677399
    11 1.473635 0.639422 -1.295233 1.873628 0.766133 0.333033
    12 1.832607 -0.000004 0.000007 3.133787 0.005998 0.847615
    13 1.003331 0.000000 0.000000 -3.095899 0.121084 0.034207
    14 3.823887 -0.419591 -1.411516 0.069804 0.155291 0.207670
    15 2.187963 0.000000 0.000000 -0.165860 -0.079982 1.419145
    16 1.100958 -0.000014 0.000000 0.087789 -0.052675 -0.184191
    17 3.987879 -0.577435 -0.474708 0.200599 0.169222 0.195927
    18 1.890100 -0.000008 0.000000 -0.153900 -0.042693 1.467061
    19 1.310926 0.000015 0.000000 -0.029735 0.074255 -0.259839
    20 4.117973 -0.654501 0.453699 0.085714 0.094073 0.260959
    21 1.655293 0.000002 0.000000 -0.029300 -0.049151 1.283708
    22 0.869586 0.000011 0.000000 0.062910 -0.019307 0.011262
    23 4.150639 -0.581580 1.354867 -0.178487 0.129533 0.002321
    24 1.157248 -0.000013 -0.000002 0.194854 -0.267811 1.185099
    25 1.019835 0.000002 0.000002 -1.675132 0.086216 0.371310
    26 3.429456 -5.007721 -5.116617 -1.540593 1.208959 -1.462669
    27 12.695436 0.000001 0.000018 -0.267501 0.293097 -1.735966
    28 -6.000281 -10.279491 -9.641978 3.020686 0.035788 -1.555492
    29 1.474217 -0.497913 -1.376119 1.283295 0.486353 -0.349532
    30 1.832175 -0.000001 0.000001 -2.584533 -0.154298 0.716799
    31 1.042012 0.000000 -0.000006 -2.947082 -0.173403 -0.033749
    32 3.823319 0.664870 -1.331676 0.113621 0.292054 -0.309951
    33 2.152367 0.000010 0.000000 0.048578 -0.257680 -0.122260
    34 1.056626 -0.000010 0.000000 0.273365 -0.069667 -0.537882
    35 3.985126 0.881823 -0.368987 0.187088 0.205030 -0.528361
    36 1.830173 0.000000 0.000000 0.309985 -0.029021 -1.518072
    37 1.561352 0.000013 0.000000 0.027381 0.000717 -1.353498
    38 4.116548 0.711289 0.551868 0.372897 0.175497 -0.950866
    39 1.752729 -0.000006 0.000000 0.065677 0.077340 -1.199500
    40 0.869356 0.000002 0.000000 0.010535 -0.055956 -0.881549
    41 4.118825 0.331244 1.419828 0.091710 0.246073 -1.081329
    42 1.176325 -0.000002 0.000000 0.019561 0.360394 -0.780529
    43 0.970213 0.000000 0.000000 1.685136 0.078242 -1.123257
    44 -9.258431 -0.998731 -5.116617 -3.522308 1.499609 -2.854133
    45 12.706341 0.000001 0.000000 -0.411816 0.227535 -2.288191
    46 11.809021 -1.206475 0.191726 -0.000002 -0.000003 0.000000
    47 0.598399 -0.643255 -0.162013 0.000000 -1.570796 -0.835635
    48 0.000010 0.000000 0.000011 0.000000 0.000000 0.000000
    49 1.200000 0.000000 0.000000 0.000000 0.000000 0.000000
    50 0.000010 -0.300000 0.000000 -3.141593 0.000000 -0.174533
    51 0.000000 -0.000001 0.000003 0.000001 -0.000001 0.000000
    52 0.000002 0.000000 -0.000002 -3.141593 0.000001 0.000000
    53 0.000002 0.000000 0.000002 0.000000 0.000000 0.349066
    54 0.000000 0.000000 0.000000 -3.141593 0.000000 0.000000
    55 0.000002 -0.000002 0.000000 -3.141593 0.000000 -0.000001
    56 0.000007 0.000004 0.000000 -3.141593 0.000000 -0.000001
    57 0.000001 -0.000004 0.000000 -3.141593 0.000000 0.000000
    58 0.000002 0.000010 0.000000 -3.141593 0.000000 0.000000
    59 0.000000 0.000000 0.000000 -3.141593 0.000000 0.000000
    60 -0.000001 -0.000004 0.000000 -3.141593 0.000000 0.000000
    61 0.000000 -0.000004 0.000000 -3.141593 0.000000 0.000000
    62 0.000001 -0.000002 0.000000 -3.141593 0.000000 0.000001
    63 0.000001 -0.000002 0.000000 3.141592 0.000000 -0.000001
    64 0.000000 0.000000 0.000000 -3.141593 0.000000 0.000000
    65 0.000000 0.000000 0.000000 -1.570797 -0.000001 0.000000
    66 0.000000 0.000000 0.000000 0.000000 0.000000 0.000000
    67 1.200001 0.000000 0.000000 0.000000 0.000000 0.000000
    68 0.000000 0.300000 0.000000 0.000000 0.000000 0.174533
    69 0.000000 0.000000 -0.000001 0.000000 0.000000 0.000000
    70 0.000000 0.000000 -0.000001 -3.141593 0.000000 0.000000
    71 0.000000 0.000000 0.000000 0.000001 0.000000 0.349065
    72 -0.000004 0.000003 0.000000 0.000000 0.000000 0.000000
    73 0.000009 -0.000006 0.000000 0.000000 0.000000 -0.000001
    74 0.000000 -0.000002 -0.000001 0.000000 -0.000001 -0.000001
    75 0.000000 0.000000 0.000000 0.000000 0.000000 0.000000
    76 0.000000 0.000000 0.000000 0.000000 0.000000 0.000001
    77 0.000000 0.000002 0.000000 0.000000 0.000000 0.000000
    78 -0.000007 -0.000013 0.000000 0.000000 0.000000 0.000001
    79 0.000000 0.000000 0.000000 0.000000 0.000000 0.000000
    80 0.000000 0.000000 0.000000 0.000000 0.000000 0.000000
    81 0.000000 0.000000 0.000000 0.000000 0.000000 0.000000
    82 0.000000 0.000000 0.000000 0.000000 0.000000 0.000000
    83 0.000000 0.000000 0.000004 -1.570797 0.000001 0.000000
  time 13
    0 -5.275417 -15.188523 -6.282182 -1.602048 0.016500 -1.568810
    1 9.243773 6.139962 1.326173 -0.000001 0.000001 -1.570796
    2 3.442229 -1.240687 -0.005672 -0.000002 -0.000003 0.000000
    3 17.667921 -1.384574 1.233112 0.000000 -0.000003 -3.141592
    4 13.081079 -1.084008 0.792839 1.570797 -0.879478 -3.141593
    5 0.758741 0.000010 -0.000001 -1.570796 0.000000 -1.124720
    6 12.977262 -1.858502 0.676013 0.518314 -0.428322 -2.516407
    7 0.562688 -0.000006 -0.000004 -0.013014 -0.008068 -0.959463
    8 -3.697522 -24.377411 -8.243611 -3.109462 -1.032198 -0.025162
    9 2.341381 0.000021 0.000003 1.570762 1.242323 -0.000034
    10 1.054619 -20.402936 -10.681073 3.031547 0.024792 -1.679129
    11 1.473635 0.639422 -1.295233 1.873628 0.766133 0.332959
    12 1.832607 -0.000004 0.000007 3.133799 0.005998 0.847615
    13 1.003331 0.000000 0.000000 -3.095899 0.121084 0.034207
    14 3.823887 -0.419591 -1.411516 0.069804 0.155291 0.207670
    15 2.187963 0.000000 0.000000 -0.165860 -0.079982 1.419145
    16 1.100958 -0.000014 0.000000 0.087789 -0.052675 -0.184191
    17 3.987879 -0.577435 -0.474708 0.200599 0.169222 0.195927
    18 1.890100 -0.000008 0.000000 -0.153900 -0.042693 1.467061
    19 1.310926 0.000015 0.000000 -0.029735 0.074255 -0.259839
    20 4.117973 -0.654501 0.453699 0.085714 0.094073 0.260959
    21 1.655293 0.000002 0.000000 -0.029300 -0.049151 1.283708
    22 0.869586 0.000011 0.000000 0.062910 -0.019307 0.011274
    23 4.150639 -0.581580 1.354867 -0.178487 0.129533 0.002321
    24 1.157248 -0.000013 -0.000002 0.194854 -0.267811 1.185099
    25 1.019835 0.000002 0.000002 -1.675132 0.086216 0.371310
    26 3.429456 -5.007721 -5.116617 -1.552255 1.198686 -1.468698
    27 12.695436 0.000001 0.000018 -0.267759 0.293061 -1.736835
    28 -5.937779 -10.318555 -9.716199 3.039774 0.024137 -1.557330
    29 1.474217 -0.497913 -1.376119 1.283295 0.486353 -0.349532
    30 1.832175 -0.000001 0.000001 -2.584533 -0.154298 0.716799
    31 1.042012 0.000000 -0.000006 -2.947082 -0.173403 -0.033749
    32 3.823319 0.664870 -1.331676 0.113621 0.292054 -0.309951
    33 2.152367 0.000010 0.000000 0.048578 -0.257680 -0.122278
    34 1.056626 -0.000010 0.000000 0.273365 -0.069667 -0.537882
    35 3.985126 0.881823 -0.368987 0.187088 0.205030 -0.528361
    36 1.830173 0.000000 0.000000 0.309985 -0.029021 -1.518072
    37 1.561352 0.000013 0.000000 0.027381 0.000717 -1.353498
    38 4.116548 0.711289 0.551868 0.372897 0.175497 -0.950866
    39 1.752729 -0.000006 0.000000 0.065677 0.077340 -1.199500
    40 0.869356 0.000002 0.000000 0.010535 -0.055944 -0.881549
    41 4.118825 0.331244 1.419828 0.091710 0.246073 -1.081329
    42 1.176325 -0.000002 0.000000 0.019561 0.360394 -0.780529
    43 0.970213 0.000000 0.000000 1.685136 0.078242 -1.123257
    44 -9.258431 -0.998731 -5.116617 -3.516467 1.491556 -2.839631
    45 12.706341 0.000001 0.000000 -0.410244 0.228745 -2.281023
    46 11.809021 -1.206475 0.191726 -0.000002 -0.000003 0.000000
    47 0.598399 -0.643255 -0.162013 0.000000 -1.570796 -0.835635
    48 0.000010 0.000000 0.000011 0.000000 0.000000 0.000000
    49 1.200000 0.000000 0.000000 0.000000 0.000000 0.000000
    50 0.000010 -0.300000 0.000000 -3.141593 0.000000 -0.174533
    51 0.000000 -0.000001 0.000003 0.000001 -0.000001 0.000000
    52 0.000002 0.000000 -0.000002 -3.141593 0.000001 0.000000
    53 0.000002 0.000000 0.000002 0.000000 0.000000 0.349066
    54 0.000000 0.000000 0.000000 -3.141593 0.000000 0.000000
    55 0.000002 -0.000002 0.000000 -3.141593 0.000000 -0.000001
    56 0.000007 0.000004 0.000000 -3.141593 0.000000 -0.000001
    57 0.000001 -0.000004 0.000000 -3.141593 0.000000 0.000000
    58 0.000002 0.000010 0.000000 -3.141593 0.000000 0.000000
    59 0.000000 0.000000 0.000000 -3.141593 0.000000 0.000000
    60 -0.000001 -0.000004 0.000000 -3.141593 0.000000 0.000000
    61 0.000000 -0.000004 0.000000 -3.141593 0.000000 0.000000
    62 0.000001 -0.000002 0.000000 -3.141593 0.000000 0.000001
    63 0.000001 -0.000002 0.000000 3.141592 0.000000 -0.000001
    64 0.000000 0.000000 0.000000 -3.141593 0.000000 0.000000
    65 0.000000 0.000000 0.000000 -1.570797 -0.000001 0.000000
    66 0.000000 0.000000 0.000000 0.000000 0.000000 0.000000
    67 1.200001 0.000000 0.000000 0.000000 0.000000 0.000000
    68 0.000000 0.300000 0.000000 0.000000 0.000000 0.174533
    69 0.000000 0.000000 -0.000001 0.000000 0.000000 0.000000
    70 0.000000 0.000000 -0.000001 -3.141593 0.000000 0.000000
    71 0.000000 0.000000 0.000000 0.000001 0.000000 0.349065
    72 -0.000004 0.000003 0.000000 0.000000 0.000000 0.000000
    73 0.000009 -0.000006 0.000000 0.000000 0.000000 -0.000001
    74 0.000000 -0.000002 -0.000001 0.000000 -0.000001 -0.000001
    75 0.000000 0.000000 0.000000 0.000000 0.000000 0.000000
    76 0.000000 0.000000 0.000000 0.000000 0.000000 0.000001
    77 0.000000 0.000002 0.000000 0.000000 0.000000 0.000000
    78 -0.000007 -0.000013 0.000000 0.000000 0.000000 0.000001
    79 0.000000 0.000000 0.000000 0.000000 0.000000 0.000000
    80 0.000000 0.000000 0.000000 0.000000 0.000000 0.000000
    81 0.000000 0.000000 0.000000 0.000000 0.000000 0.000000
    82 0.000000 0.000000 0.000000 0.000000 0.000000 0.000000
    83 0.000000 0.000000 0.000004 -1.570797 0.000001 0.000000
  time 14
    0 -5.275417 -15.192429 -6.282182 -1.586686 0.007881 -1.570267
    1 9.243773 6.139962 1.326173 -0.000001 0.000001 -1.570796
    2 3.442229 -1.240687 -0.005672 -0.000002 -0.000003 0.000000
    3 17.667921 -1.384574 1.233112 0.000000 -0.000003 -3.141592
    4 13.081079 -1.084008 0.792839 1.570797 -0.879478 -3.141593
    5 0.758741 0.000010 -0.000001 -1.570796 0.000000 -1.124720
    6 12.977262 -1.858502 0.676013 0.518314 -0.428322 -2.516407
    7 0.562688 -0.000006 -0.000004 -0.013014 -0.008068 -0.959463
    8 -3.701428 -24.396943 -8.145952 -3.125814 -1.047705 -0.012643
    9 2.341381 0.000021 0.000003 1.570762 1.242323 -0.000034
    10 1.089776 -20.449813 -10.540444 3.047745 0.017952 -1.680441
    11 1.473635 0.639422 -1.295233 1.873628 0.766133 0.332959
    12 1.832607 -0.000004 0.000007 3.133799 0.005998 0.847592
    13 1.003331 0.000000 0.000000 -3.095899 0.121084 0.034207
    14 3.823887 -0.419591 -1.411516 0.069804 0.155291 0.207670
    15 2.187963 0.000000 0.000000 -0.165860 -0.079982 1.419145
    16 1.100958 -0.000014 0.000000 0.087789 -0.052675 -0.184191
    17 3.987879 -0.577435 -0.474708 0.200599 0.169222 0.195927
    18 1.890100 -0.000008 0.000000 -0.153900 -0.042693 1.467061
    19 1.310926 0.000015 0.000000 -0.029735 0.074255 -0.259839
    20 4.117973 -0.654501 0.453699 0.085714 0.094073 0.260959
    21 1.655293 0.000002 0.000000 -0.029300 -0.049151 1.283708
    22 0.869586 0.000011 0.000000 0.062910 -0.019307 0.011262
    23 4.150639 -0.581580 1.354867 -0.178487 0.129533 0.002321
    24 1.157248 -0.000013 -0.000002 0.194854 -0.267811 1.185099
    25 1.019835 0.000002 0.000002 -1.675132 0.086216 0.371310
    26 3.429456 -5.007721 -5.116617 -1.559601 1.190226 -1.472352
    27 12.695436 0.000001 0.000018 -0.267888 0.293050 -1.737103
    28 -5.898715 -10.353712 -9.766982 3.055025 0.015359 -1.558661
    29 1.474217 -0.497913 -1.376119 1.283295 0.486353 -0.349532
    30 1.832175 -0.000001 0.000001 -2.584533 -0.154298 0.716799
    31 1.042012 0.000000 -0.000006 -2.947082 -0.173415 -0.033749
    32 3.823319 0.664870 -1.331676 0.113621 0.292054 -0.309951
    33 2.152367 0.000010 0.000000 0.048578 -0.257680 -0.122260
    34 1.056626 -0.000010 0.000000 0.273332 -0.069667 -0.537882
    35 3.985126 0.881823 -0.368987 0.187088 0.205030 -0.528361
    36 1.830173 0.000000 0.000000 0.309985 -0.029021 -1.518072
    37 1.561352 0.000013 0.000000 0.027381 0.000717 -1.353498
    38 4.116548 0.711289 0.551868 0.372897 0.175497 -0.950866
    39 1.752729 -0.000006 0.000000 0.065677 0.077340 -1.199500
    40 0.869356 0.000002 0.000000 0.010535 -0.055968 -0.881549
    41 4.118825 0.331244 1.419828 0.091710 0.246073 -1.081329
    42 1.176325 -0.000002 0.000000 0.019561 0.360394 -0.780529
    43 0.970213 0.000000 0.000000 1.685174 0.078242 -1.123257
    44 -9.258431 -0.998731 -5.116617 -3.511104 1.486625 -2.829020
    45 12.706341 0.000001 0.000000 -0.409016 0.229908 -2.275685
    46 11.809021 -1.206475 0.191726 -0.000002 -0.000003 0.000000
    47 0.598399 -0.643255 -0.162013 0.000000 -1.570796 -0.835635
    48 0.000010 0.000000 0.000011 0.000000 0.000000 0.000000
    49 1.200000 0.000000 0.000000 0.000000 0.000000 0.000000
    50 0.000010 -0.300000 0.000000 -3.141593 0.000000 -0.174533
    51 0.000000 -0.000001 0.000003 0.000001 -0.000001 0.000000
    52 0.000002 0.000000 -0.000002 -3.141593 0.000001 0.000000
    53 0.000002 0.000000 0.000002 0.000000 0.000000 0.349066
    54 0.000000 0.000000 0.000000 -3.141593 0.000000 0.000000
    55 0.000002 -0.000002 0.000000 -3.141593 0.000000 -0.000001
    56 0.000007 0.000004 0.000000 -3.141593 0.000000 -0.000001
    57 0.000001 -0.000004 0.000000 -3.141593 0.000000 0.000000
    58 0.000002 0.000010 0.000000 -3.141593 0.000000 0.000000
    59 0.000000 0.000000 0.000000 -3.141593 0.000000 0.000000
    60 -0.000001 -0.000004 0.000000 -3.141593 0.000000 0.000000
    61 0.000000 -0.000004 0.000000 -3.141593 0.000000 0.000000
    62 0.000001 -0.000002 0.000000 -3.141593 0.000000 0.000001
    63 0.000001 -0.000002 0.000000 3.141592 0.000000 -0.000001
    64 0.000000 0.000000 0.000000 -3.141593 0.000000 0.000000
    65 0.000000 0.000000 0.000000 -1.570797 -0.000001 0.000000
    66 0.000000 0.000000 0.000000 0.000000 0.000000 0.000000
    67 1.200001 0.000000 0.000000 0.000000 0.000000 0.000000
    68 0.000000 0.300000 0.000000 0.000000 0.000000 0.174533
    69 0.000000 0.000000 -0.000001 0.000000 0.000000 0.000000
    70 0.000000 0.000000 -0.000001 -3.141593 0.000000 0.000000
    71 0.000000 0.000000 0.000000 0.000001 0.000000 0.349065
    72 -0.000004 0.000003 0.000000 0.000000 0.000000 0.000000
    73 0.000009 -0.000006 0.000000 0.000000 0.000000 -0.000001
    74 0.000000 -0.000002 -0.000001 0.000000 -0.000001 -0.000001
    75 0.000000 0.000000 0.000000 0.000000 0.000000 0.000000
    76 0.000000 0.000000 0.000000 0.000000 0.000000 0.000001
    77 0.000000 0.000002 0.000000 0.000000 0.000000 0.000000
    78 -0.000007 -0.000013 0.000000 0.000000 0.000000 0.000001
    79 0.000000 0.000000 0.000000 0.000000 0.000000 0.000000
    80 0.000000 0.000000 0.000000 0.000000 0.000000 0.000000
    81 0.000000 0.000000 0.000000 0.000000 0.000000 0.000000
    82 0.000000 0.000000 0.000000 0.000000 0.000000 0.000000
    83 0.000000 0.000000 0.000004 -1.570797 0.000001 0.000000
  time 15
    0 -5.275417 -15.196336 -6.282182 -1.576703 0.002674 -1.571027
    1 9.243773 6.139962 1.326173 -0.000001 0.000001 -1.570796
    2 3.442229 -1.240687 -0.005672 -0.000002 -0.000003 0.000000
    3 17.667921 -1.384574 1.233112 0.000000 -0.000003 -3.141592
    4 13.081079 -1.084008 0.792839 1.570797 -0.879478 -3.141593
    5 0.758741 0.000010 -0.000001 -1.570796 0.000000 -1.124720
    6 12.977262 -1.858502 0.676013 0.518314 -0.428322 -2.516407
    7 0.562688 -0.000006 -0.000004 -0.013014 -0.008068 -0.959463
    8 -3.713147 -24.416475 -8.067824 -3.136141 -1.057750 -0.004643
    9 2.341381 0.000021 0.000003 1.570762 1.242323 -0.000034
    10 1.105402 -20.492783 -10.442784 3.058264 0.013868 -1.681157
    11 1.473635 0.639422 -1.295233 1.873628 0.766133 0.332959
    12 1.832607 -0.000004 0.000007 3.133799 0.005998 0.847615
    13 1.003331 0.000000 0.000000 -3.095899 0.121084 0.034207
    14 3.823887 -0.419591 -1.411516 0.069804 0.155291 0.207670
    15 2.187963 0.000000 0.000000 -0.165860 -0.079982 1.419145
    16 1.100958 -0.000014 0.000000 0.087789 -0.052675 -0.184191
    17 3.987879 -0.577435 -0.474708 0.200599 0.169222 0.195927
    18 1.890100 -0.000008 0.000000 -0.153900 -0.042693 1.467061
    19 1.310926 0.000015 0.000000 -0.029735 0.074255 -0.259839
    20 4.117973 -0.654501 0.453699 0.085714 0.094073 0.260959
    21 1.655293 0.000002 0.000000 -0.029300 -0.049151 1.283708
    22 0.869586 0.000011 0.000000 0.062910 -0.019307 0.011262
    23 4.150639 -0.581580 1.354867 -0.178487 0.129533 0.002321
    24 1.157248 -0.000013 -0.000002 0.194854 -0.267811 1.185099
    25 1.019835 0.000002 0.000002 -1.675132 0.086216 0.371310
    26 3.429456 -5.007721 -5.116617 -1.563182 1.184571 -1.474179
    27 12.695436 0.000001 0.000018 -0.267931 0.293050 -1.737437
    28 -5.879184 -10.377150 -9.786513 3.064950 0.010036 -1.559358
    29 1.474217 -0.497913 -1.376119 1.283295 0.486353 -0.349532
    30 1.832175 -0.000001 0.000001 -2.584533 -0.154298 0.716799
    31 1.042012 0.000000 -0.000006 -2.947082 -0.173415 -0.033749
    32 3.823319 0.664870 -1.331676 0.113621 0.292054 -0.309951
    33 2.152367 0.000010 0.000000 0.048578 -0.257680 -0.122260
    34 1.056626 -0.000010 0.000000 0.273365 -0.069667 -0.537882
    35 3.985126 0.881823 -0.368987 0.187088 0.205030 -0.528361
    36 1.830173 0.000000 0.000000 0.309985 -0.029021 -1.518072
    37 1.561352 0.000013 0.000000 0.027381 0.000717 -1.353498
    38 4.116548 0.711289 0.551868 0.372897 0.175497 -0.950866
    39 1.752729 -0.000006 0.000000 0.065677 0.077340 -1.199500
    40 0.869356 0.000002 0.000000 0.010535 -0.055944 -0.881549
    41 4.118825 0.331244 1.419828 0.091710 0.246073 -1.081329
    42 1.176325 -0.000002 0.000000 0.019561 0.360394 -0.780529
    43 0.970213 0.000000 0.000000 1.685136 0.078242 -1.123240
    44 -9.258431 -0.998731 -5.116617 -3.507561 1.484589 -2.823449
    45 12.706341 0.000001 0.000000 -0.408263 0.230531 -2.272406
    46 11.809021 -1.206475 0.191726 -0.000002 -0.000003 0.000000
    47 0.598399 -0.643255 -0.162013 0.000000 -1.570796 -0.835635
    48 0.000010 0.000000 0.000011 0.000000 0.000000 0.000000
    49 1.200000 0.000000 0.000000 0.000000 0.000000 0.000000
    50 0.000010 -0.300000 0.000000 -3.141593 0.000000 -0.174533
    51 0.000000 -0.000001 0.000003 0.000001 -0.000001 0.000000
    52 0.000002 0.000000 -0.000002 -3.141593 0.000001 0.000000
    53 0.000002 0.000000 0.000002 0.000000 0.000000 0.349066
    54 0.000000 0.000000 0.000000 -3.141593 0.000000 0.000000
    55 0.000002 -0.000002 0.000000 -3.141593 0.000000 -0.000001
    56 0.000007 0.000004 0.000000 -3.141593 0.000000 -0.000001
    57 0.000001 -0.000004 0.000000 -3.141593 0.000000 0.000000
    58 0.000002 0.000010 0.000000 -3.141593 0.000000 0.000000
    59 0.000000 0.000000 0.000000 -3.141593 0.000000 0.000000
    60 -0.000001 -0.000004 0.000000 -3.141593 0.000000 0.000000
    61 0.000000 -0.000004 0.000000 -3.141593 0.000000 0.000000
    62 0.000001 -0.000002 0.000000 -3.141593 0.000000 0.000001
    63 0.000001 -0.000002 0.000000 3.141592 0.000000 -0.000001
    64 0.000000 0.000000 0.000000 -3.141593 0.000000 0.000000
    65 0.000000 0.000000 0.000000 -1.570797 -0.000001 0.000000
    66 0.000000 0.000000 0.000000 0.000000 0.000000 0.000000
    67 1.200001 0.000000 0.000000 0.000000 0.000000 0.000000
    68 0.000000 0.300000 0.000000 0.000000 0.000000 0.174533
    69 0.000000 0.000000 -0.000001 0.000000 0.000000 0.000000
    70 0.000000 0.000000 -0.000001 -3.141593 0.000000 0.000000
    71 0.000000 0.000000 0.000000 0.000001 0.000000 0.349065
    72 -0.000004 0.000003 0.000000 0.000000 0.000000 0.000000
    73 0.000009 -0.000006 0.000000 0.000000 0.000000 -0.000001
    74 0.000000 -0.000002 -0.000001 0.000000 -0.000001 -0.000001
    75 0.000000 0.000000 0.000000 0.000000 0.000000 0.000000
    76 0.000000 0.000000 0.000000 0.000000 0.000000 0.000001
    77 0.000000 0.000002 0.000000 0.000000 0.000000 0.000000
    78 -0.000007 -0.000013 0.000000 0.000000 0.000000 0.000001
    79 0.000000 0.000000 0.000000 0.000000 0.000000 0.000000
    80 0.000000 0.000000 0.000000 0.000000 0.000000 0.000000
    81 0.000000 0.000000 0.000000 0.000000 0.000000 0.000000
    82 0.000000 0.000000 0.000000 0.000000 0.000000 0.000000
    83 0.000000 0.000000 0.000004 -1.570797 0.000001 0.000000
  time 16
    0 -5.283230 -15.204148 -6.282182 -1.571963 0.000475 -1.571343
    1 9.243773 6.139962 1.326173 -0.000001 0.000001 -1.570796
    2 3.442229 -1.240687 -0.005672 -0.000002 -0.000003 0.000000
    3 17.667921 -1.384574 1.233112 0.000000 -0.000003 -3.141592
    4 13.081079 -1.084008 0.792839 1.570797 -0.879478 -3.141593
    5 0.758741 0.000010 -0.000001 -1.570796 0.000000 -1.124720
    6 12.977262 -1.858502 0.676013 0.518314 -0.428322 -2.516407
    7 0.562688 -0.000006 -0.000004 -0.013014 -0.008068 -0.959463
    8 -3.720960 -24.424288 -8.052199 -3.140731 -1.062474 -0.000878
    9 2.341381 0.000021 0.000003 1.570762 1.242323 -0.000034
    10 1.109308 -20.508408 -10.403721 3.063291 0.012197 -1.681336
    11 1.473635 0.639422 -1.295233 1.873686 0.766133 0.333033
    12 1.832607 -0.000004 0.000007 3.133799 0.005998 0.847615
    13 1.003331 0.000000 0.000000 -3.095899 0.121084 0.034207
    14 3.823887 -0.419591 -1.411516 0.069804 0.155291 0.207670
    15 2.187963 0.000000 0.000000 -0.165860 -0.079982 1.419145
    16 1.100958 -0.000014 0.000000 0.087789 -0.052675 -0.184191
    17 3.987879 -0.577435 -0.474708 0.200599 0.169222 0.195927
    18 1.890100 -0.000008 0.000000 -0.153900 -0.042693 1.467061
    19 1.310926 0.000015 0.000000 -0.029735 0.074255 -0.259839
    20 4.117973 -0.654501 0.453699 0.085714 0.094073 0.260959
    21 1.655293 0.000002 0.000000 -0.029300 -0.049151 1.283708
    22 0.869586 0.000011 0.000000 0.062910 -0.019307 0.011274
    23 4.150639 -0.581580 1.354867 -0.178487 0.129533 0.002321
    24 1.157248 -0.000013 -0.000002 0.194854 -0.267811 1.185099
    25 1.019835 0.000002 0.000002 -1.675132 0.086216 0.371310
    26 3.429456 -5.007721 -5.116617 -1.563825 1.181852 -1.474818
    27 12.695436 0.000001 0.000018 -0.267931 0.293050 -1.737437
    28 -5.879184 -10.388870 -9.813858 3.069673 0.007780 -1.559548
    29 1.474217 -0.497913 -1.376119 1.283295 0.486353 -0.349532
    30 1.832175 -0.000001 0.000001 -2.584533 -0.154298 0.716799
    31 1.042012 0.000000 -0.000006 -2.947082 -0.173403 -0.033749
    32 3.823319 0.664870 -1.331676 0.113621 0.292054 -0.309951
    33 2.152367 0.000010 0.000000 0.048578 -0.257680 -0.122260
    34 1.056626 -0.000010 0.000000 0.273332 -0.069667 -0.537882
    35 3.985126 0.881823 -0.368987 0.187088 0.205030 -0.528361
    36 1.830173 0.000000 0.000000 0.309985 -0.029021 -1.518072
    37 1.561352 0.000013 0.000000 0.027381 0.000717 -1.353498
    38 4.116548 0.711289 0.551868 0.372897 0.175497 -0.950866
    39 1.752729 -0.000006 0.000000 0.065677 0.077340 -1.199500
    40 0.869356 0.000002 0.000000 0.010535 -0.055956 -0.881549
    41 4.118825 0.331244 1.419828 0.091710 0.246073 -1.081329
    42 1.176325 -0.000002 0.000000 0.019561 0.360394 -0.780529
    43 0.970213 0.000000 0.000000 1.685174 0.078242 -1.123257
    44 -9.258431 -0.998731 -5.116617 -3.506124 1.484318 -2.821946
    45 12.706341 0.000001 0.000000 -0.407919 0.230807 -2.270957
    46 11.809021 -1.206475 0.191726 -0.000002 -0.000003 0.000000
    47 0.598399 -0.643255 -0.162013 0.000000 -1.570796 -0.835635
    48 0.000010 0.000000 0.000011 0.000000 0.000000 0.000000
    49 1.200000 0.000000 0.000000 0.000000 0.000000 0.000000
    50 0.000010 -0.300000 0.000000 -3.141593 0.000000 -0.174533
    51 0.000000 -0.000001 0.000003 0.000001 -0.000001 0.000000
    52 0.000002 0.000000 -0.000002 -3.141593 0.000001 0.000000
    53 0.000002 0.000000 0.000002 0.000000 0.000000 0.349066
    54 0.000000 0.000000 0.000000 -3.141593 0.000000 0.000000
    55 0.000002 -0.000002 0.000000 -3.141593 0.000000 -0.000001
    56 0.000007 0.000004 0.000000 -3.141593 0.000000 -0.000001
    57 0.000001 -0.000004 0.000000 -3.141593 0.000000 0.000000
    58 0.000002 0.000010 0.000000 -3.141593 0.000000 0.000000
    59 0.000000 0.000000 0.000000 -3.141593 0.000000 0.000000
    60 -0.000001 -0.000004 0.000000 -3.141593 0.000000 0.000000
    61 0.000000 -0.000004 0.000000 -3.141593 0.000000 0.000000
    62 0.000001 -0.000002 0.000000 -3.141593 0.000000 0.000001
    63 0.000001 -0.000002 0.000000 3.141592 0.000000 -0.000001
    64 0.000000 0.000000 0.000000 -3.141593 0.000000 0.000000
    65 0.000000 0.000000 0.000000 -1.570797 -0.000001 0.000000
    66 0.000000 0.000000 0.000000 0.000000 0.000000 0.000000
    67 1.200001 0.000000 0.000000 0.000000 0.000000 0.000000
    68 0.000000 0.300000 0.000000 0.000000 0.000000 0.174533
    69 0.000000 0.000000 -0.000001 0.000000 0.000000 0.000000
    70 0.000000 0.000000 -0.000001 -3.141593 0.000000 0.000000
    71 0.000000 0.000000 0.000000 0.000001 0.000000 0.349065
    72 -0.000004 0.000003 0.000000 0.000000 0.000000 0.000000
    73 0.000009 -0.000006 0.000000 0.000000 0.000000 -0.000001
    74 0.000000 -0.000002 -0.000001 0.000000 -0.000001 -0.000001
    75 0.000000 0.000000 0.000000 0.000000 0.000000 0.000000
    76 0.000000 0.000000 0.000000 0.000000 0.000000 0.000001
    77 0.000000 0.000002 0.000000 0.000000 0.000000 0.000000
    78 -0.000007 -0.000013 0.000000 0.000000 0.000000 0.000001
    79 0.000000 0.000000 0.000000 0.000000 0.000000 0.000000
    80 0.000000 0.000000 0.000000 0.000000 0.000000 0.000000
    81 0.000000 0.000000 0.000000 0.000000 0.000000 0.000000
    82 0.000000 0.000000 0.000000 0.000000 0.000000 0.000000
    83 0.000000 0.000000 0.000004 -1.570797 0.000001 0.000000
  time 17
    0 -5.291042 -15.204148 -6.282182 -1.570796 0.000000 -1.571343
    1 9.243773 6.139962 1.326173 -0.000001 0.000001 -1.570796
    2 3.442229 -1.240687 -0.005672 -0.000002 -0.000003 0.000000
    3 17.667921 -1.384574 1.233112 0.000000 -0.000003 -3.141592
    4 13.081079 -1.084008 0.792839 1.570797 -0.879478 -3.141593
    5 0.758741 0.000010 -0.000001 -1.570796 0.000000 -1.124720
    6 12.977262 -1.858502 0.676013 0.518314 -0.428322 -2.516407
    7 0.562688 -0.000006 -0.000004 -0.013014 -0.008068 -0.959463
    8 -3.724866 -24.428194 -8.036573 -3.141592 -1.063636 -0.000219
    9 2.341381 0.000021 0.000003 1.570762 1.242323 -0.000034
    10 1.109308 -20.508408 -10.395908 3.064408 0.011835 -1.681336
    11 1.473635 0.639422 -1.295233 1.873686 0.766133 0.333033
    12 1.832607 -0.000004 0.000007 3.133799 0.005998 0.847592
    13 1.003331 0.000000 0.000000 -3.095899 0.121084 0.034207
    14 3.823887 -0.419591 -1.411516 0.069804 0.155291 0.207670
    15 2.187963 0.000000 0.000000 -0.165860 -0.079982 1.419145
    16 1.100958 -0.000014 0.000000 0.087789 -0.052675 -0.184191
    17 3.987879 -0.577435 -0.474708 0.200599 0.169222 0.195927
    18 1.890100 -0.000008 0.000000 -0.153900 -0.042693 1.467061
    19 1.310926 0.000015 0.000000 -0.029735 0.074255 -0.259839
    20 4.117973 -0.654501 0.453699 0.085714 0.094073 0.260959
    21 1.655293 0.000002 0.000000 -0.029300 -0.049151 1.283708
    22 0.869586 0.000011 0.000000 0.062910 -0.019307 0.011262
    23 4.150639 -0.581580 1.354867 -0.178487 0.129533 0.002321
    24 1.157248 -0.000013 -0.000002 0.194854 -0.267811 1.185099
    25 1.019835 0.000002 0.000002 -1.675132 0.086216 0.371310
    26 3.429456 -5.007721 -5.116617 -1.564192 1.181161 -1.475001
    27 12.695436 0.000001 0.000018 -0.267931 0.293050 -1.737103
    28 -5.879184 -10.392776 -9.813858 3.070817 0.007286 -1.559548
    29 1.474217 -0.497913 -1.376119 1.283295 0.486353 -0.349532
    30 1.832175 -0.000001 0.000001 -2.584533 -0.154298 0.716799
    31 1.042012 0.000000 -0.000006 -2.947082 -0.173415 -0.033749
    32 3.823319 0.664870 -1.331676 0.113621 0.292054 -0.309951
    33 2.152367 0.000010 0.000000 0.048578 -0.257680 -0.122260
    34 1.056626 -0.000010 0.000000 0.273332 -0.069667 -0.537882
    35 3.985126 0.881823 -0.368987 0.187088 0.205030 -0.528361
    36 1.830173 0.000000 0.000000 0.309985 -0.029021 -1.518072
    37 1.561352 0.000013 0.000000 0.027381 0.000717 -1.353498
    38 4.116548 0.711289 0.551868 0.372897 0.175497 -0.950866
    39 1.752729 -0.000006 0.000000 0.065677 0.077340 -1.199500
    40 0.869356 0.000002 0.000000 0.010535 -0.055956 -0.881549
    41 4.118825 0.331244 1.419828 0.091710 0.246073 -1.081329
    42 1.176325 -0.000002 0.000000 0.019561 0.360394 -0.780529
    43 0.970213 0.000000 0.000000 1.685136 0.078242 -1.123257
    44 -9.258431 -0.998731 -5.116617 -3.505837 1.484408 -2.821946
    45 12.706341 0.000001 0.000000 -0.407821 0.230831 -2.270576
    46 11.809021 -1.206475 0.191726 -0.000002 -0.000003 0.000000
    47 0.598399 -0.643255 -0.162013 0.000000 -1.570796 -0.835635
    48 0.000010 0.000000 0.000011 0.000000 0.000000 0.000000
    49 1.200000 0.000000 0.000000 0.000000 0.000000 0.000000
    50 0.000010 -0.300000 0.000000 -3.141593 0.000000 -0.174533
    51 0.000000 -0.000001 0.000003 0.000001 -0.000001 0.000000
    52 0.000002 0.000000 -0.000002 -3.141593 0.000001 0.000000
    53 0.000002 0.000000 0.000002 0.000000 0.000000 0.349066
    54 0.000000 0.000000 0.000000 -3.141593 0.000000 0.000000
    55 0.000002 -0.000002 0.000000 -3.141593 0.000000 -0.000001
    56 0.000007 0.000004 0.000000 -3.141593 0.000000 -0.000001
    57 0.000001 -0.000004 0.000000 -3.141593 0.000000 0.000000
    58 0.000002 0.000010 0.000000 -3.141593 0.000000 0.000000
    59 0.000000 0.000000 0.000000 -3.141593 0.000000 0.000000
    60 -0.000001 -0.000004 0.000000 -3.141593 0.000000 0.000000
    61 0.000000 -0.000004 0.000000 -3.141593 0.000000 0.000000
    62 0.000001 -0.000002 0.000000 -3.141593 0.000000 0.000001
    63 0.000001 -0.000002 0.000000 3.141592 0.000000 -0.000001
    64 0.000000 0.000000 0.000000 -3.141593 0.000000 0.000000
    65 0.000000 0.000000 0.000000 -1.570797 -0.000001 0.000000
    66 0.000000 0.000000 0.000000 0.000000 0.000000 0.000000
    67 1.200001 0.000000 0.000000 0.000000 0.000000 0.000000
    68 0.000000 0.300000 0.000000 0.000000 0.000000 0.174533
    69 0.000000 0.000000 -0.000001 0.000000 0.000000 0.000000
    70 0.000000 0.000000 -0.000001 -3.141593 0.000000 0.000000
    71 0.000000 0.000000 0.000000 0.000001 0.000000 0.349065
    72 -0.000004 0.000003 0.000000 0.000000 0.000000 0.000000
    73 0.000009 -0.000006 0.000000 0.000000 0.000000 -0.000001
    74 0.000000 -0.000002 -0.000001 0.000000 -0.000001 -0.000001
    75 0.000000 0.000000 0.000000 0.000000 0.000000 0.000000
    76 0.000000 0.000000 0.000000 0.000000 0.000000 0.000001
    77 0.000000 0.000002 0.000000 0.000000 0.000000 0.000000
    78 -0.000007 -0.000013 0.000000 0.000000 0.000000 0.000001
    79 0.000000 0.000000 0.000000 0.000000 0.000000 0.000000
    80 0.000000 0.000000 0.000000 0.000000 0.000000 0.000000
    81 0.000000 0.000000 0.000000 0.000000 0.000000 0.000000
    82 0.000000 0.000000 0.000000 0.000000 0.000000 0.000000
    83 0.000000 0.000000 0.000004 -1.570797 0.000001 0.000000
end
