version 1
nodes
  0 "spas_main" -1
  1 "pump" 0
  2 "slide" 0
  3 "12g" 0
  4 "trapdoor" 0
  5 "sl_ring1" 0
  6 "sl1a" 5
  7 "sl1b" 6
  8 "sl_ring2" 0
  9 "sl2a" 8
  10 "sl2b" 9
  11 "sltarget" 0
  12 "l_wrist" -1
  13 "l_thumb_low" 12
  14 "l_thumb_mid" 13
  15 "l_thumb_tip" 14
  16 "l_index_low" 12
  17 "l_index_mid" 16
  18 "l_index_tip" 17
  19 "l_middle_low" 12
  20 "l_middle_mid" 19
  21 "l_middle_tip" 20
  22 "l_ring_low" 12
  23 "l_ring_mid" 22
  24 "l_ring_tip" 23
  25 "l_pinky_low" 12
  26 "l_pinky_mid" 25
  27 "l_pinky_tip" 26
  28 "l_upperarm" -1
  29 "l_forearm" 28
  30 "r_wrist" -1
  31 "r_thumb_low" 30
  32 "r_thumb_mid" 31
  33 "r_thumb_tip" 32
  34 "r_index_low" 30
  35 "r_index_mid" 34
  36 "r_index_tip" 35
  37 "r_middle_low" 30
  38 "r_middle_mid" 37
  39 "r_middle_tip" 38
  40 "r_ring_low" 30
  41 "r_ring_mid" 40
  42 "r_ring_tip" 41
  43 "r_pinky_low" 30
  44 "r_pinky_mid" 43
  45 "r_pinky_tip" 44
  46 "r_upperarm" -1
  47 "r_forearm" 46
  48 "ValveBiped.Bip01_L_UpperArm" 28
  49 "ValveBiped.Bip01_L_Forearm" 29
  50 "ValveBiped.Bip01_L_Hand" 12
  51 "ValveBiped.Bip01_L_Finger0" 13
  52 "ValveBiped.Bip01_L_Finger01" 14
  53 "ValveBiped.Bip01_L_Finger02" 15
  54 "ValveBiped.Bip01_L_Finger1" 16
  55 "ValveBiped.Bip01_L_Finger11" 17
  56 "ValveBiped.Bip01_L_Finger12" 18
  57 "ValveBiped.Bip01_L_Finger2" 19
  58 "ValveBiped.Bip01_L_Finger21" 20
  59 "ValveBiped.Bip01_L_Finger22" 21
  60 "ValveBiped.Bip01_L_Finger3" 22
  61 "ValveBiped.Bip01_L_Finger31" 23
  62 "ValveBiped.Bip01_L_Finger32" 24
  63 "ValveBiped.Bip01_L_Finger4" 25
  64 "ValveBiped.Bip01_L_Finger41" 26
  65 "ValveBiped.Bip01_L_Finger42" 27
  66 "ValveBiped.Bip01_R_UpperArm" 46
  67 "ValveBiped.Bip01_R_Forearm" 47
  68 "ValveBiped.Bip01_R_Hand" 30
  69 "ValveBiped.Bip01_R_Finger0" 31
  70 "ValveBiped.Bip01_R_Finger01" 32
  71 "ValveBiped.Bip01_R_Finger02" 33
  72 "ValveBiped.Bip01_R_Finger1" 34
  73 "ValveBiped.Bip01_R_Finger11" 35
  74 "ValveBiped.Bip01_R_Finger12" 36
  75 "ValveBiped.Bip01_R_Finger2" 37
  76 "ValveBiped.Bip01_R_Finger21" 38
  77 "ValveBiped.Bip01_R_Finger22" 39
  78 "ValveBiped.Bip01_R_Finger3" 40
  79 "ValveBiped.Bip01_R_Finger31" 41
  80 "ValveBiped.Bip01_R_Finger32" 42
  81 "ValveBiped.Bip01_R_Finger4" 43
  82 "ValveBiped.Bip01_R_Finger41" 44
  83 "ValveBiped.Bip01_R_Finger42" 45
end
skeleton
  time 0
    0 -3.212891 -11.515625 -5.882813 -2.977136 0.072406 0.349706
    1 0.073573 17.526917 0.777220 0.000000 0.000001 0.000000
    2 -0.226386 4.254942 -0.608961 0.000000 -0.000001 0.000000
    3 -0.271729 6.789063 -0.813477 0.000000 0.000001 0.000000
    4 -0.045094 3.566423 0.891595 0.000000 -0.000001 0.000000
    5 -0.116185 1.807585 2.464996 0.910680 0.000000 0.000000
    6 0.000000 1.030615 0.000004 -2.662332 -0.018181 -3.123852
    7 -0.000002 5.179932 -0.000037 0.250142 -0.003855 0.015312
    8 -0.218267 25.777573 2.487072 2.562915 0.000002 -0.000001
    9 0.000000 0.870350 0.000008 -0.031555 -0.000336 0.002043
    10 0.000000 4.478401 0.000072 0.355021 -0.003310 0.009743
    11 -0.298340 15.671875 7.000000 -1.570796 0.000002 0.000000
    12 2.292969 -22.312500 -11.726563 0.336614 -0.419559 -3.828454
    13 -1.294654 1.473667 0.640471 2.361821 -0.515043 -2.105043
    14 0.000011 1.832554 0.000004 0.105782 -0.242316 -0.022404
    15 0.000000 1.003359 0.000001 0.156145 -0.012806 -0.172588
    16 -1.632739 4.327644 -0.483953 0.365946 0.282533 -0.019011
    17 -0.000010 1.637142 0.000010 1.001973 0.015779 -0.110365
    18 0.000007 1.100985 0.000004 0.016762 0.076954 -0.068132
    19 -0.500328 4.452953 -0.532495 0.396531 0.287793 0.017526
    20 -0.000010 1.442617 -0.000010 1.327527 0.029307 -0.036669
    21 -0.000003 1.302446 0.000004 0.004414 -0.041964 0.002863
    22 0.523221 4.540312 -0.480714 0.856150 0.290077 -0.285051
    23 -0.000001 1.198256 0.000008 0.732660 -0.133939 0.043040
    24 -0.000012 0.869780 0.000015 0.218367 0.063752 -0.018623
    25 1.354362 4.150681 -0.582655 0.848432 0.193446 -0.436420
    26 0.000000 1.157421 -0.000006 0.969723 -0.115779 0.002582
    27 0.000001 1.020055 0.000002 -0.120881 -0.015655 -0.025766
    28 4.996094 -8.070313 -8.109375 -1.975646 0.007169 0.184281
    29 0.000038 12.695422 -0.000004 -1.688037 0.529836 0.424319
    30 -6.199219 -5.929688 -8.648438 -1.144937 1.383654 -3.931220
    31 -1.391397 1.476538 -0.700638 -1.757693 -1.119971 2.167468
    32 0.000002 1.751797 -0.000002 -0.382700 -0.196547 -0.169372
    33 0.000010 1.122969 0.000000 -0.357783 -0.049012 -0.094326
    34 -1.596883 4.441620 0.708540 -1.096133 -1.295258 1.097699
    35 -0.000008 1.481951 -0.000008 0.054499 0.090706 0.175370
    36 0.000002 1.056648 -0.000004 -0.089725 -0.147466 0.506128
    37 -0.470901 4.219486 0.926555 -2.516735 -0.098961 3.098993
    38 -0.000010 1.609821 0.000004 1.338602 -0.114171 0.088559
    39 -0.000002 1.562311 0.000013 1.278032 0.025845 -0.031764
    40 0.576838 4.298388 0.639431 -2.185725 -0.104948 -3.078374
    41 0.000002 1.553762 -0.000008 1.256413 0.140291 0.008694
    42 0.000003 0.874434 -0.000006 0.891122 0.106772 0.200337
    43 1.459885 4.275572 0.219019 -2.155168 -0.187438 -2.968186
    44 -0.000010 0.973051 -0.000004 0.971833 0.217244 0.114330
    45 0.000007 0.970890 0.000004 1.186789 0.085797 0.151228
    46 -6.507813 4.558594 -7.480469 -1.758093 0.458767 0.335545
    47 0.000011 12.706367 0.000010 -2.249660 0.348313 0.130780
    48 0.000000 0.000000 0.000000 1.570796 0.000000 1.570796
    49 -0.000006 1.500006 0.000000 1.570796 0.000000 1.570796
    50 0.000000 -0.299999 0.000000 -1.570796 0.000000 1.570796
    51 0.000000 0.000000 0.000000 0.000000 0.000000 1.570796
    52 0.000000 0.000000 0.000000 0.000000 0.000000 1.570796
    53 0.000000 0.000002 0.000001 0.000000 0.000000 1.919862
    54 0.000000 0.000000 0.000000 -1.570796 0.000000 1.570796
    55 0.000000 0.000000 0.000002 -1.570797 0.000000 1.570796
    56 -0.000002 -0.000002 0.000004 -1.570797 0.000001 1.570796
    57 0.000003 0.000000 0.000000 -1.570796 0.000000 1.570796
    58 0.000002 0.000003 0.000000 -1.570796 0.000000 1.570796
    59 0.000000 0.000000 0.000000 -1.570796 0.000000 1.570796
    60 -0.000001 0.000011 0.000000 -1.570796 0.000000 1.570796
    61 0.000000 0.000000 0.000000 -1.570796 -0.000001 1.570796
    62 0.000000 -0.000001 0.000000 -1.570796 0.000000 1.570796
    63 -0.000002 0.000002 -0.000002 -1.570796 0.000000 1.570796
    64 0.000000 0.000000 0.000000 -1.570797 0.000000 1.570796
    65 0.000000 0.000000 0.000000 -1.570797 0.000000 1.570796
    66 0.000000 0.000000 0.000000 1.570796 0.000000 1.570796
    67 0.000000 1.500000 0.000000 1.570796 0.000000 1.570796
    68 0.000000 0.300001 0.000000 1.570796 0.000000 1.570796
    69 -0.000011 0.000002 -0.000004 -3.141593 0.000001 1.570796
    70 0.000000 0.000000 0.000000 3.141593 0.000000 1.570796
    71 0.000001 0.000000 0.000000 -3.141593 0.000000 1.221730
    72 0.000000 0.000000 0.000000 3.141593 0.000000 1.570796
    73 0.000000 -0.000002 0.000000 3.141593 0.000000 1.570796
    74 0.000004 0.000000 0.000000 3.141593 0.000000 1.570797
    75 -0.000004 0.000000 0.000002 -1.570796 0.000000 1.570796
    76 0.000000 -0.000001 0.000008 -1.570796 0.000000 1.570796
    77 0.000001 0.000000 0.000000 -1.570796 0.000000 1.570796
    78 0.000001 0.000002 0.000000 -1.570796 0.000000 1.570796
    79 0.000000 0.000000 0.000000 -1.570796 0.000000 1.570796
    80 0.000001 0.000000 0.000000 -1.570796 0.000000 1.570796
    81 0.000001 0.000000 0.000000 -1.570796 0.000001 1.570796
    82 -0.000001 0.000000 0.000002 -1.570796 0.000001 1.570796
    83 0.000001 0.000000 0.000000 -1.570796 0.000000 1.570796
  time 1
    0 -3.212891 -11.515625 -5.882813 -2.977136 0.072406 0.349706
    1 0.073573 17.526917 0.777220 0.000000 0.000001 0.000000
    2 -0.226386 4.254942 -0.608961 0.000000 -0.000001 0.000000
    3 -0.271729 6.789063 -0.813477 0.000000 0.000001 0.000000
    4 -0.045094 3.566423 0.891595 0.000000 -0.000001 0.000000
    5 -0.116185 1.807585 2.464996 0.910680 0.000000 0.000000
    6 0.000000 1.030615 0.000004 -2.662332 -0.018181 -3.123852
    7 -0.000002 5.179932 -0.000037 0.250142 -0.003855 0.015312
    8 -0.218267 25.777573 2.487072 2.562915 0.000002 -0.000001
    9 0.000000 0.870350 0.000008 -0.031555 -0.000336 0.002043
    10 0.000000 4.478401 0.000072 0.355021 -0.003310 0.009743
    11 -0.298340 15.671875 7.000000 -1.570796 0.000002 0.000000
    12 2.292969 -22.312500 -11.726563 0.336614 -0.419559 -3.828454
    13 -1.294654 1.473667 0.640471 2.361821 -0.515043 -2.105043
    14 0.000011 1.832554 0.000004 0.105782 -0.242316 -0.022404
    15 0.000000 1.003359 0.000001 0.156145 -0.012806 -0.172588
    16 -1.632739 4.327644 -0.483953 0.365946 0.282533 -0.019011
    17 -0.000010 1.637142 0.000010 1.001973 0.015779 -0.110365
    18 0.000007 1.100985 0.000004 0.016762 0.076954 -0.068132
    19 -0.500328 4.452953 -0.532495 0.396531 0.287793 0.017526
    20 -0.000010 1.442617 -0.000010 1.327527 0.029307 -0.036669
    21 -0.000003 1.302446 0.000004 0.004414 -0.041964 0.002863
    22 0.523221 4.540312 -0.480714 0.856150 0.290077 -0.285051
    23 -0.000001 1.198256 0.000008 0.732660 -0.133939 0.043040
    24 -0.000012 0.869780 0.000015 0.218367 0.063752 -0.018623
    25 1.354362 4.150681 -0.582655 0.848432 0.193446 -0.436420
    26 0.000000 1.157421 -0.000006 0.969723 -0.115779 0.002582
    27 0.000001 1.020055 0.000002 -0.120881 -0.015655 -0.025766
    28 4.996094 -8.070313 -8.109375 -1.975646 0.007169 0.184281
    29 0.000038 12.695422 -0.000004 -1.688037 0.529836 0.424319
    30 -6.199219 -5.929688 -8.648438 -1.144937 1.383654 -3.931220
    31 -1.391397 1.476538 -0.700638 -1.757693 -1.119971 2.167468
    32 0.000002 1.751797 -0.000002 -0.382700 -0.196547 -0.169372
    33 0.000010 1.122969 0.000000 -0.357783 -0.049012 -0.094326
    34 -1.596883 4.441620 0.708540 -1.096133 -1.295258 1.097699
    35 -0.000008 1.481951 -0.000008 0.054499 0.090706 0.175370
    36 0.000002 1.056648 -0.000004 -0.089725 -0.147466 0.506128
    37 -0.470901 4.219486 0.926555 -2.516735 -0.098961 3.098993
    38 -0.000010 1.609821 0.000004 1.338602 -0.114171 0.088559
    39 -0.000002 1.562311 0.000013 1.278032 0.025845 -0.031764
    40 0.576838 4.298388 0.639431 -2.185725 -0.104948 -3.078374
    41 0.000002 1.553762 -0.000008 1.256413 0.140291 0.008694
    42 0.000003 0.874434 -0.000006 0.891122 0.106772 0.200337
    43 1.459885 4.275572 0.219019 -2.155168 -0.187438 -2.968186
    44 -0.000010 0.973051 -0.000004 0.971833 0.217244 0.114330
    45 0.000007 0.970890 0.000004 1.186789 0.085797 0.151228
    46 -6.507813 4.558594 -7.480469 -1.758093 0.458767 0.335545
    47 0.000011 12.706367 0.000010 -2.249660 0.348313 0.130780
    48 0.000000 0.000000 0.000000 1.570796 0.000000 1.570796
    49 -0.000006 1.500006 0.000000 1.570796 0.000000 1.570796
    50 0.000000 -0.299999 0.000000 -1.570796 0.000000 1.570796
    51 0.000000 0.000000 0.000000 0.000000 0.000000 1.570796
    52 0.000000 0.000000 0.000000 0.000000 0.000000 1.570796
    53 0.000000 0.000002 0.000001 0.000000 0.000000 1.919862
    54 0.000000 0.000000 0.000000 -1.570796 0.000000 1.570796
    55 0.000000 0.000000 0.000002 -1.570797 0.000000 1.570796
    56 -0.000002 -0.000002 0.000004 -1.570797 0.000001 1.570796
    57 0.000003 0.000000 0.000000 -1.570796 0.000000 1.570796
    58 0.000002 0.000003 0.000000 -1.570796 0.000000 1.570796
    59 0.000000 0.000000 0.000000 -1.570796 0.000000 1.570796
    60 -0.000001 0.000011 0.000000 -1.570796 0.000000 1.570796
    61 0.000000 0.000000 0.000000 -1.570796 -0.000001 1.570796
    62 0.000000 -0.000001 0.000000 -1.570796 0.000000 1.570796
    63 -0.000002 0.000002 -0.000002 -1.570796 0.000000 1.570796
    64 0.000000 0.000000 0.000000 -1.570797 0.000000 1.570796
    65 0.000000 0.000000 0.000000 -1.570797 0.000000 1.570796
    66 0.000000 0.000000 0.000000 1.570796 0.000000 1.570796
    67 0.000000 1.500000 0.000000 1.570796 0.000000 1.570796
    68 0.000000 0.300001 0.000000 1.570796 0.000000 1.570796
    69 -0.000011 0.000002 -0.000004 -3.141593 0.000001 1.570796
    70 0.000000 0.000000 0.000000 3.141593 0.000000 1.570796
    71 0.000001 0.000000 0.000000 -3.141593 0.000000 1.221730
    72 0.000000 0.000000 0.000000 3.141593 0.000000 1.570796
    73 0.000000 -0.000002 0.000000 3.141593 0.000000 1.570796
    74 0.000004 0.000000 0.000000 3.141593 0.000000 1.570797
    75 -0.000004 0.000000 0.000002 -1.570796 0.000000 1.570796
    76 0.000000 -0.000001 0.000008 -1.570796 0.000000 1.570796
    77 0.000001 0.000000 0.000000 -1.570796 0.000000 1.570796
    78 0.000001 0.000002 0.000000 -1.570796 0.000000 1.570796
    79 0.000000 0.000000 0.000000 -1.570796 0.000000 1.570796
    80 0.000001 0.000000 0.000000 -1.570796 0.000000 1.570796
    81 0.000001 0.000000 0.000000 -1.570796 0.000001 1.570796
    82 -0.000001 0.000000 0.000002 -1.570796 0.000001 1.570796
    83 0.000001 0.000000 0.000000 -1.570796 0.000000 1.570796
end
