version 1
nodes
  0 "tag_view" -1
  1 "tag_ads" 0
  2 "tag_torso" 1
  3 "j_shoulder_le" 2
  4 "j_elbow_le" 3
  5 "j_elbow_bulge_le" 4
  6 "j_wrist_le" 4
  7 "j_indexbase_le" 6
  8 "j_index_le_1" 7
  9 "j_index_le_2" 8
  10 "j_index_le_3" 9
  11 "j_indexretract_le" 7
  12 "j_mid_le_1" 6
  13 "j_mid_le_2" 12
  14 "j_mid_le_3" 13
  15 "j_pinkybase_le" 6
  16 "j_pinky_le_1" 15
  17 "j_pinky_le_2" 16
  18 "j_pinky_le_3" 17
  19 "j_ringbase_le" 6
  20 "j_ring_le_1" 19
  21 "j_ring_le_2" 20
  22 "j_ring_le_3" 21
  23 "j_thumb_le_1" 6
  24 "j_thumb_le_2" 23
  25 "j_thumb_le_3" 24
  26 "j_wristtwist1_le" 4
  27 "j_wristtwist2_le" 4
  28 "j_wristtwist3_le" 4
  29 "j_wristtwist4_le" 4
  30 "j_wristtwist5_le" 4
  31 "j_wristtwist6_le" 4
  32 "j_wristtwist_le" 4
  33 "j_wristcrease_le" 32
  34 "j_shoulder_ri" 2
  35 "j_elbow_ri" 34
  36 "j_elbow_bulge_ri" 35
  37 "j_wrist_ri" 35
  38 "j_indexbase_ri" 37
  39 "j_index_ri_1" 38
  40 "j_index_ri_2" 39
  41 "j_index_ri_3" 40
  42 "j_indexretract_ri" 38
  43 "j_mid_ri_1" 37
  44 "j_mid_ri_2" 43
  45 "j_mid_ri_3" 44
  46 "j_pinkybase_ri" 37
  47 "j_pinky_ri_1" 46
  48 "j_pinky_ri_2" 47
  49 "j_pinky_ri_3" 48
  50 "j_ringbase_ri" 37
  51 "j_ring_ri_1" 50
  52 "j_ring_ri_2" 51
  53 "j_ring_ri_3" 52
  54 "j_thumb_ri_1" 37
  55 "j_thumb_ri_2" 54
  56 "j_thumb_ri_3" 55
  57 "j_wristtwist1_ri" 35
  58 "j_wristtwist2_ri" 35
  59 "j_wristtwist3_ri" 35
  60 "j_wristtwist4_ri" 35
  61 "j_wristtwist5_ri" 35
  62 "j_wristtwist6_ri" 35
  63 "j_wristtwist_ri" 35
  64 "j_wristcrease2_ri" 63
  65 "T7:Joints" -1
  66 "ValveBiped.Bip01_L_UpperArm" 3
  67 "ValveBiped.Bip01_L_Forearm" 4
  68 "ValveBiped.Bip01_L_Hand" 6
  69 "ValveBiped.Bip01_L_Finger0" 23
  70 "ValveBiped.Bip01_L_Finger01" 24
  71 "ValveBiped.Bip01_L_Finger02" 25
  72 "ValveBiped.Bip01_L_Finger1" 8
  73 "ValveBiped.Bip01_L_Finger11" 9
  74 "ValveBiped.Bip01_L_Finger12" 10
  75 "ValveBiped.Bip01_L_Finger2" 12
  76 "ValveBiped.Bip01_L_Finger21" 13
  77 "ValveBiped.Bip01_L_Finger22" 14
  78 "ValveBiped.Bip01_L_Finger3" 20
  79 "ValveBiped.Bip01_L_Finger31" 21
  80 "ValveBiped.Bip01_L_Finger32" 22
  81 "ValveBiped.Bip01_L_Finger4" 16
  82 "ValveBiped.Bip01_L_Finger41" 17
  83 "ValveBiped.Bip01_L_Finger42" 18
  84 "ValveBiped.Bip01_R_UpperArm" 34
  85 "ValveBiped.Bip01_R_Forearm" 35
  86 "ValveBiped.Bip01_R_Hand" 37
  87 "ValveBiped.Bip01_R_Finger0" 54
  88 "ValveBiped.Bip01_R_Finger01" 55
  89 "ValveBiped.Bip01_R_Finger02" 56
  90 "ValveBiped.Bip01_R_Finger1" 39
  91 "ValveBiped.Bip01_R_Finger11" 40
  92 "ValveBiped.Bip01_R_Finger12" 41
  93 "ValveBiped.Bip01_R_Finger2" 43
  94 "ValveBiped.Bip01_R_Finger21" 44
  95 "ValveBiped.Bip01_R_Finger22" 45
  96 "ValveBiped.Bip01_R_Finger3" 51
  97 "ValveBiped.Bip01_R_Finger31" 52
  98 "ValveBiped.Bip01_R_Finger32" 53
  99 "ValveBiped.Bip01_R_Finger4" 47
  100 "ValveBiped.Bip01_R_Finger41" 48
  101 "ValveBiped.Bip01_R_Finger42" 49
  102 "tag_weapon_right" 2
  103 "tag_weapon" 102
  104 "tag_bolt_animate" 103
  105 "tag_brass" 103
  106 "tag_mag_release_animate" 103
  107 "tag_clip" 103
  108 "j_charginghandle" 103
  109 "j_loose_round" 103
  110 "j_mag1" 103
  111 "j_mag2" 103
  112 "j_slide" 103
  113 "tag_flash" 103
  114 "tag_charging_handle_animate" 103
end
skeleton
  time 0
    0 0.000000 3.000000 -21.796875 0.000000 0.000000 -1.570796
    1 0.000000 0.000000 0.000000 0.000000 0.000000 0.000000
    2 -0.423340 0.000000 22.046875 0.000000 0.000000 0.000000
    3 4.819546 8.146531 -11.437196 -1.109160 0.003331 -0.529714
    4 10.901696 -0.000888 0.000756 0.000003 -0.000014 -0.680657
    5 -0.000001 -0.000005 0.000000 -0.000003 0.000000 0.000002
    6 9.954186 0.000528 -0.000746 -1.522941 -0.107700 0.682382
    7 3.500000 -1.089844 0.078369 0.000001 0.000000 0.000003
    8 0.007815 -0.000006 -0.035154 -1.589451 0.477457 0.546461
    9 1.460938 -0.057800 -0.014778 -0.016274 -0.089382 0.963684
    10 0.992676 -0.047180 0.019485 0.071933 0.073855 1.024964
    11 0.000002 -0.000006 0.000003 0.000000 0.000000 -0.000001
    12 3.429277 0.098089 0.037807 -1.807530 0.878657 0.441473
    13 1.801484 -0.097730 -0.000299 -0.055882 0.099411 1.332643
    14 1.076081 0.054735 0.000067 -0.026250 -0.015560 0.460929
    15 0.691971 1.201779 -0.284691 -1.516298 0.320846 -0.016741
    16 2.100106 0.070839 -0.000731 -0.991132 0.117322 0.955407
    17 1.123536 -0.000010 -0.000273 0.019396 -0.040905 1.034587
    18 0.728797 -0.007960 -0.000156 -0.073673 -0.094570 0.722358
    19 1.100926 0.635626 0.051816 -1.574885 0.167835 -0.030258
    20 2.061992 0.031651 0.054109 -0.838902 -0.185496 1.040251
    21 1.634048 -0.000071 -0.000628 0.007038 0.023354 1.269063
    22 0.875490 0.097320 -0.004269 -0.150696 0.012279 0.332956
    23 0.167480 -1.424805 0.160156 0.154849 0.576954 -0.280227
    24 2.292104 -0.000013 0.000021 -0.198562 -0.224315 0.072219
    25 1.260631 0.000051 0.019646 0.412364 -0.121887 -0.126815
    26 7.467592 0.000397 0.003342 -1.309124 -0.000983 0.000373
    27 6.218438 0.000326 -0.000468 -1.081070 -0.000815 0.000253
    28 4.969282 0.000256 -0.000375 -0.852782 -0.000647 0.000121
    29 3.731843 0.000196 -0.000280 -0.639150 -0.000467 0.000037
    30 2.478779 0.000126 -0.000185 -0.426300 -0.000396 0.000001
    31 1.241342 0.000063 -0.000090 -0.213053 -0.000192 0.000002
    32 8.716746 0.000462 0.003245 -1.522814 -0.001031 0.000576
    33 0.000002 0.000004 0.000002 -0.000001 0.000000 0.000001
    34 -1.145480 -8.119186 -4.491672 1.060246 -1.274451 3.736703
    35 -10.882861 0.000870 0.000965 0.000165 0.000104 -2.085106
    36 -0.000002 -0.000012 -0.000010 -0.000002 0.000000 -0.000001
    37 -9.958829 -0.000484 -0.000551 0.253592 -0.126830 0.817576
    38 -3.500000 1.091797 -0.078491 0.000001 0.000000 -0.000004
    39 0.003918 0.167969 0.000005 -1.539895 0.222716 -0.138822
    40 -1.479675 -0.070282 0.000169 -0.012817 -0.011820 0.171917
    41 -1.033970 -0.090011 0.000485 -0.021107 -0.000476 0.194663
    42 0.000011 -0.000005 0.000005 0.000001 0.000000 0.000002
    43 -3.498480 -0.039482 0.035980 -2.365226 1.199865 -0.630061
    44 -1.796978 0.031304 -0.000272 0.005346 0.017448 0.943889
    45 -1.064400 0.042924 0.000060 0.001987 0.009296 0.927504
    46 -0.621656 -1.147101 0.272569 0.510051 -0.369431 -3.081498
    47 2.307411 -0.058719 -0.043182 -1.434254 0.676089 3.246153
    48 -1.138012 0.000032 -0.000530 0.010400 0.060914 0.791676
    49 -0.744038 0.035438 -0.000319 0.023194 0.013805 1.033499
    50 -1.092869 -0.631712 -0.052075 0.424537 -0.213978 -3.080704
    51 2.089287 -0.012176 0.038415 -1.472535 0.986653 -2.927442
    52 -1.649458 0.000034 -0.000234 -0.001690 0.006755 0.868875
    53 -0.871724 0.027465 -0.000154 -0.003199 0.007519 0.949150
    54 -0.299572 1.351964 -0.097784 0.594739 0.903847 -0.508224
    55 -2.328125 -0.003735 0.001053 -0.091008 0.054902 0.391017
    56 -1.163233 -0.000050 0.000118 0.234359 0.178926 0.761924
    57 -7.469122 -0.000360 -0.000409 0.218164 0.000192 -0.000002
    58 -6.224275 -0.000299 -0.000346 0.180152 0.000168 -0.000002
    59 -4.975510 -0.000237 -0.000273 0.142066 0.000120 -0.000002
    60 -3.734560 -0.000177 -0.000206 0.106484 0.000096 -0.000002
    61 -2.477988 -0.000122 -0.000138 0.071067 0.000060 -0.000002
    62 -1.244854 -0.000058 -0.000072 0.035521 0.000036 -0.000001
    63 -8.710072 -0.000423 -0.000477 0.253582 0.000216 0.000018
    64 0.000002 0.000000 0.000000 -0.000001 0.000000 0.000002
    65 0.000000 3.000000 5.000000 0.000000 0.000000 -3.141592
    66 -0.000001 0.399658 -0.000003 0.000000 0.000000 0.000000
    67 -0.000001 -0.000002 0.000001 0.000000 0.000000 0.000001
    68 0.000006 0.000001 0.000001 1.221730 -0.087267 0.174533
    69 0.000000 -0.000004 -0.000001 0.000000 0.000000 0.000001
    70 0.000002 -0.000006 0.000000 0.000001 0.000000 0.000000
    71 -0.000008 0.000011 0.000000 0.000001 0.000000 0.000001
    72 0.000008 0.000003 0.000000 3.141592 -0.000001 -0.000001
    73 0.000004 0.000000 -0.000002 3.141591 0.000000 -0.000001
    74 -0.000004 -0.000006 -0.000008 3.141592 0.000000 0.000000
    75 0.000004 -0.000004 0.000002 3.141592 -0.000001 0.000000
    76 -0.000002 0.000002 0.000003 3.141592 0.000000 0.000000
    77 -0.000004 0.000006 0.000000 3.141592 0.000000 0.000000
    78 -0.000004 -0.099915 -0.099976 -3.141593 0.000000 -0.000001
    79 -0.099915 -0.099976 -0.099976 3.141592 0.000000 0.000000
    80 -0.099915 -0.099976 -0.099976 3.141593 0.000000 0.000000
    81 -0.099915 -0.119873 -0.099915 3.141593 -0.000001 0.000000
    82 -0.099976 -0.119873 -0.099976 3.141593 0.000000 0.000000
    83 -0.099976 -0.119873 -0.099854 3.141592 0.000000 0.000000
    84 0.000000 0.000000 0.000000 0.000000 0.000000 -3.141593
    85 0.000001 0.000001 0.000000 0.000000 0.000000 -3.141593
    86 0.000002 -0.000004 0.000000 -1.570797 0.087267 -3.054326
    87 0.000000 0.000006 -0.000001 -0.000001 0.000000 -3.141593
    88 -0.000002 0.000011 0.000000 -0.000001 0.000000 -3.141593
    89 0.000002 0.000006 0.000000 -0.000001 0.000000 -3.141593
    90 -0.000004 -0.000002 0.000006 -3.141592 0.000001 3.141593
    91 0.000000 -0.000008 -0.000007 -3.141592 0.000000 3.141593
    92 0.000001 0.000008 0.000002 -3.141592 0.000000 3.141593
    93 -0.000006 0.000002 0.000004 -3.141593 0.000000 3.141593
    94 0.000000 0.000002 -0.000002 -3.141592 0.000000 -3.141592
    95 0.000006 0.000004 0.000002 -3.141592 0.000000 -3.141593
    96 0.099915 0.199951 0.099915 -3.141592 0.000000 -3.141593
    97 0.099854 0.199951 0.099976 -3.141593 0.000000 3.141593
    98 0.099976 0.199585 0.099915 -3.141592 -0.000001 3.141593
    99 -0.000001 0.119812 0.099915 -3.141592 0.000000 -3.141593
    100 -0.000007 0.119873 0.099854 3.141593 0.000000 -3.141593
    101 -0.000003 0.119873 0.099976 -3.141593 0.000000 3.141593
    102 12.401175 -4.886067 -7.070517 0.000000 0.000000 0.000000
    103 0.000000 0.000000 0.000000 0.000000 0.000000 0.000000
    104 4.527344 0.000001 3.687500 0.000000 0.000000 0.000000
    105 0.000002 0.000000 0.000000 -0.000037 -0.610853 -1.570558
    106 4.277344 -0.000003 0.849121 0.000000 0.000000 0.000000
    107 5.539063 0.000001 0.000000 0.000000 0.000000 0.000000
    108 3.455010 0.000004 2.018000 0.000010 0.000000 0.000007
    109 -2.088972 -3.614023 0.605963 0.000010 0.000000 0.000007
    110 -1.971998 -0.000010 -0.796001 0.000011 -0.204731 0.000006
    111 -1.971998 -0.000010 -0.796001 0.000011 -0.204731 0.000006
    112 -5.858999 0.072452 2.682749 0.000000 0.000000 0.000000
    113 12.507813 0.000000 3.259766 0.000000 0.000000 0.000000
    114 10.230598 0.000000 4.378193 0.000000 0.000000 0.000000
  time 1
    0 0.000000 3.000000 -21.796875 0.000000 0.000000 -1.570796
    1 0.000000 0.000000 0.000000 0.000000 0.000000 0.000000
    2 -0.423340 0.000000 22.046875 0.000000 0.000000 0.000000
    3 4.819546 8.146531 -11.437196 -1.109160 0.003331 -0.529714
    4 10.901696 -0.000888 0.000756 0.000003 -0.000014 -0.680657
    5 -0.000001 -0.000005 0.000000 -0.000003 0.000000 0.000002
    6 9.954186 0.000528 -0.000746 -1.522941 -0.107700 0.682382
    7 3.500000 -1.089844 0.078369 0.000001 0.000000 0.000003
    8 0.007815 -0.000006 -0.035154 -1.589451 0.477457 0.546461
    9 1.460938 -0.057800 -0.014778 -0.016274 -0.089382 0.963684
    10 0.992676 -0.047180 0.019485 0.071933 0.073855 1.024964
    11 0.000002 -0.000006 0.000003 0.000000 0.000000 -0.000001
    12 3.429277 0.098089 0.037807 -1.807530 0.878657 0.441473
    13 1.801484 -0.097730 -0.000299 -0.055882 0.099411 1.332643
    14 1.076081 0.054735 0.000067 -0.026250 -0.015560 0.460929
    15 0.691971 1.201779 -0.284691 -1.516298 0.320846 -0.016741
    16 2.100106 0.070839 -0.000731 -0.991132 0.117322 0.955407
    17 1.123536 -0.000010 -0.000273 0.019396 -0.040905 1.034587
    18 0.728797 -0.007960 -0.000156 -0.073673 -0.094570 0.722358
    19 1.100926 0.635626 0.051816 -1.574885 0.167835 -0.030258
    20 2.061992 0.031651 0.054109 -0.838902 -0.185496 1.040251
    21 1.634048 -0.000071 -0.000628 0.007038 0.023354 1.269063
    22 0.875490 0.097320 -0.004269 -0.150696 0.012279 0.332956
    23 0.167480 -1.424805 0.160156 0.154849 0.576954 -0.280227
    24 2.292104 -0.000013 0.000021 -0.198562 -0.224315 0.072219
    25 1.260631 0.000051 0.019646 0.412364 -0.121887 -0.126815
    26 7.467592 0.000397 0.003342 -1.309124 -0.000983 0.000373
    27 6.218438 0.000326 -0.000468 -1.081070 -0.000815 0.000253
    28 4.969282 0.000256 -0.000375 -0.852782 -0.000647 0.000121
    29 3.731843 0.000196 -0.000280 -0.639150 -0.000467 0.000037
    30 2.478779 0.000126 -0.000185 -0.426300 -0.000396 0.000001
    31 1.241342 0.000063 -0.000090 -0.213053 -0.000192 0.000002
    32 8.716746 0.000462 0.003245 -1.522814 -0.001031 0.000576
    33 0.000002 0.000004 0.000002 -0.000001 0.000000 0.000001
    34 -1.145480 -8.119186 -4.491672 1.060246 -1.274451 3.736703
    35 -10.882861 0.000870 0.000965 0.000165 0.000104 -2.085106
    36 -0.000002 -0.000012 -0.000010 -0.000002 0.000000 -0.000001
    37 -9.958829 -0.000484 -0.000551 0.253592 -0.126830 0.817576
    38 -3.500000 1.091797 -0.078491 0.000001 0.000000 -0.000004
    39 0.003918 0.167969 0.000005 -1.539895 0.222716 -0.138822
    40 -1.479675 -0.070282 0.000169 -0.012817 -0.011820 0.171917
    41 -1.033970 -0.090011 0.000485 -0.021107 -0.000476 0.194663
    42 0.000011 -0.000005 0.000005 0.000001 0.000000 0.000002
    43 -3.498480 -0.039482 0.035980 -2.365226 1.199865 -0.630061
    44 -1.796978 0.031304 -0.000272 0.005346 0.017448 0.943889
    45 -1.064400 0.042924 0.000060 0.001987 0.009296 0.927504
    46 -0.621656 -1.147101 0.272569 0.510051 -0.369431 -3.081498
    47 2.307411 -0.058719 -0.043182 -1.434254 0.676089 3.246153
    48 -1.138012 0.000032 -0.000530 0.010400 0.060914 0.791676
    49 -0.744038 0.035438 -0.000319 0.023194 0.013805 1.033499
    50 -1.092869 -0.631712 -0.052075 0.424537 -0.213978 -3.080704
    51 2.089287 -0.012176 0.038415 -1.472535 0.986653 -2.927442
    52 -1.649458 0.000034 -0.000234 -0.001690 0.006755 0.868875
    53 -0.871724 0.027465 -0.000154 -0.003199 0.007519 0.949150
    54 -0.299572 1.351964 -0.097784 0.594739 0.903847 -0.508224
    55 -2.328125 -0.003735 0.001053 -0.091008 0.054902 0.391017
    56 -1.163233 -0.000050 0.000118 0.234359 0.178926 0.761924
    57 -7.469122 -0.000360 -0.000409 0.218164 0.000192 -0.000002
    58 -6.224275 -0.000299 -0.000346 0.180152 0.000168 -0.000002
    59 -4.975510 -0.000237 -0.000273 0.142066 0.000120 -0.000002
    60 -3.734560 -0.000177 -0.000206 0.106484 0.000096 -0.000002
    61 -2.477988 -0.000122 -0.000138 0.071067 0.000060 -0.000002
    62 -1.244854 -0.000058 -0.000072 0.035521 0.000036 -0.000001
    63 -8.710072 -0.000423 -0.000477 0.253582 0.000216 0.000018
    64 0.000002 0.000000 0.000000 -0.000001 0.000000 0.000002
    65 0.000000 3.000000 5.000000 0.000000 0.000000 -3.141592
    66 -0.000001 0.399658 -0.000003 0.000000 0.000000 0.000000
    67 -0.000001 -0.000002 0.000001 0.000000 0.000000 0.000001
    68 0.000006 0.000001 0.000001 1.221730 -0.087267 0.174533
    69 0.000000 -0.000004 -0.000001 0.000000 0.000000 0.000001
    70 0.000002 -0.000006 0.000000 0.000001 0.000000 0.000000
    71 -0.000008 0.000011 0.000000 0.000001 0.000000 0.000001
    72 0.000008 0.000003 0.000000 3.141592 -0.000001 -0.000001
    73 0.000004 0.000000 -0.000002 3.141591 0.000000 -0.000001
    74 -0.000004 -0.000006 -0.000008 3.141592 0.000000 0.000000
    75 0.000004 -0.000004 0.000002 3.141592 -0.000001 0.000000
    76 -0.000002 0.000002 0.000003 3.141592 0.000000 0.000000
    77 -0.000004 0.000006 0.000000 3.141592 0.000000 0.000000
    78 -0.000004 -0.099915 -0.099976 -3.141593 0.000000 -0.000001
    79 -0.099915 -0.099976 -0.099976 3.141592 0.000000 0.000000
    80 -0.099915 -0.099976 -0.099976 3.141593 0.000000 0.000000
    81 -0.099915 -0.119873 -0.099915 3.141593 -0.000001 0.000000
    82 -0.099976 -0.119873 -0.099976 3.141593 0.000000 0.000000
    83 -0.099976 -0.119873 -0.099854 3.141592 0.000000 0.000000
    84 0.000000 0.000000 0.000000 0.000000 0.000000 -3.141593
    85 0.000001 0.000001 0.000000 0.000000 0.000000 -3.141593
    86 0.000002 -0.000004 0.000000 -1.570797 0.087267 -3.054326
    87 0.000000 0.000006 -0.000001 -0.000001 0.000000 -3.141593
    88 -0.000002 0.000011 0.000000 -0.000001 0.000000 -3.141593
    89 0.000002 0.000006 0.000000 -0.000001 0.000000 -3.141593
    90 -0.000004 -0.000002 0.000006 -3.141592 0.000001 3.141593
    91 0.000000 -0.000008 -0.000007 -3.141592 0.000000 3.141593
    92 0.000001 0.000008 0.000002 -3.141592 0.000000 3.141593
    93 -0.000006 0.000002 0.000004 -3.141593 0.000000 3.141593
    94 0.000000 0.000002 -0.000002 -3.141592 0.000000 -3.141592
    95 0.000006 0.000004 0.000002 -3.141592 0.000000 -3.141593
    96 0.099915 0.199951 0.099915 -3.141592 0.000000 -3.141593
    97 0.099854 0.199951 0.099976 -3.141593 0.000000 3.141593
    98 0.099976 0.199585 0.099915 -3.141592 -0.000001 3.141593
    99 -0.000001 0.119812 0.099915 -3.141592 0.000000 -3.141593
    100 -0.000007 0.119873 0.099854 3.141593 0.000000 -3.141593
    101 -0.000003 0.119873 0.099976 -3.141593 0.000000 3.141593
    102 12.401175 -4.886067 -7.070517 0.000000 0.000000 0.000000
    103 0.000000 0.000000 0.000000 0.000000 0.000000 0.000000
    104 4.527344 0.000001 3.687500 0.000000 0.000000 0.000000
    105 0.000002 0.000000 0.000000 -0.000037 -0.610853 -1.570558
    106 4.277344 -0.000003 0.849121 0.000000 0.000000 0.000000
    107 5.539063 0.000001 0.000000 0.000000 0.000000 0.000000
    108 3.455010 0.000004 2.018000 0.000010 0.000000 0.000007
    109 -2.088972 -3.614023 0.605963 0.000010 0.000000 0.000007
    110 -1.971998 -0.000010 -0.796001 0.000011 -0.204731 0.000006
    111 -1.971998 -0.000010 -0.796001 0.000011 -0.204731 0.000006
    112 -5.858999 0.072452 2.682749 0.000000 0.000000 0.000000
    113 12.507813 0.000000 3.259766 0.000000 0.000000 0.000000
    114 10.230598 0.000000 4.378193 0.000000 0.000000 0.000000
  time 2
    0 0.000000 3.000000 -21.796875 0.000000 0.000000 -1.570796
    1 0.000000 0.000000 0.000000 0.000000 0.000000 0.000000
    2 -0.423340 0.000000 22.046875 0.000000 0.000000 0.000000
    3 4.819546 8.146531 -11.437196 -1.111396 0.024874 -0.515873
    4 10.889977 -0.000888 0.000756 0.000003 -0.000014 -0.726231
    5 -0.000001 -0.000005 0.000000 -0.000003 0.000000 0.000002
    6 9.942467 0.000528 0.003160 -1.526640 -0.112042 0.708828
    7 3.500000 -1.089844 0.078369 0.000001 0.000000 0.000003
    8 0.003908 -0.000006 -0.035154 -1.589451 0.477430 0.546461
    9 1.460938 -0.057800 -0.014778 -0.016274 -0.089382 0.963684
    10 0.992676 -0.047180 0.019485 0.071933 0.073855 1.024964
    11 0.000002 -0.000006 0.000003 0.000000 0.000000 -0.000001
    12 3.433184 0.101995 0.041713 -1.807530 0.878618 0.441473
    13 1.797577 -0.101636 -0.000299 -0.055882 0.099399 1.332643
    14 1.060455 0.050829 0.000067 -0.026250 -0.015548 0.461033
    15 0.688065 1.197872 -0.284691 -1.516298 0.320846 -0.016755
    16 2.096200 0.063026 -0.000731 -0.991132 0.117322 0.955407
    17 1.119630 -0.000010 -0.000273 0.019396 -0.040893 1.034587
    18 0.728797 -0.007960 -0.000156 -0.073673 -0.094570 0.722358
    19 1.108739 0.631720 0.051816 -1.575425 0.167811 -0.030318
    20 2.058086 0.031651 0.054109 -0.838902 -0.185496 1.040251
    21 1.630142 -0.000071 -0.000628 0.007038 0.023354 1.269063
    22 0.875490 0.109039 -0.000362 -0.150696 0.012291 0.332900
    23 0.167480 -1.424805 0.160156 0.154849 0.576954 -0.280227
    24 2.292104 -0.000013 0.000021 -0.198562 -0.224315 0.072219
    25 1.252818 0.000051 0.015740 0.412364 -0.121887 -0.126946
    26 7.463686 0.000397 0.003342 -1.312952 -0.000983 0.000373
    27 6.214532 0.000326 -0.000468 -1.083430 -0.000851 0.000241
    28 4.965376 0.000256 -0.000375 -0.854923 -0.000647 0.000121
    29 3.724030 0.000196 -0.000280 -0.642231 -0.000479 0.000049
    30 2.490498 0.000126 -0.000185 -0.429039 -0.000384 0.000001
    31 1.237436 0.000063 -0.000090 -0.214515 -0.000192 0.000002
    32 8.705027 0.000462 0.003245 -1.526765 -0.001043 0.000552
    33 0.000002 0.000004 0.000002 -0.000001 0.000000 0.000001
    34 -1.145480 -8.119186 -4.491672 1.035302 -1.274222 3.764600
    35 -10.886767 0.000870 0.000965 0.000165 0.000116 -2.089342
    36 -0.000002 -0.000012 -0.000010 -0.000002 0.000000 -0.000001
    37 -9.958829 -0.004391 -0.000551 0.263759 -0.122469 0.820524
    38 -3.500000 1.091797 -0.078491 0.000001 0.000000 -0.000004
    39 0.007824 0.167969 0.000005 -1.539895 0.222716 -0.138810
    40 -1.483581 -0.070282 0.000169 -0.012829 -0.011832 0.171905
    41 -1.033970 -0.090011 0.000485 -0.021107 -0.000476 0.194651
    42 0.000011 -0.000005 0.000005 0.000001 0.000000 0.000002
    43 -3.502386 -0.043388 0.035980 -2.365226 1.199865 -0.630022
    44 -1.800885 0.031304 -0.000272 0.005346 0.017448 0.943949
    45 -1.056587 0.039018 0.000060 0.001987 0.009296 0.927504
    46 -0.621656 -1.147101 0.272569 0.510051 -0.369431 -3.081486
    47 2.307411 -0.054812 -0.047088 -1.434374 0.676053 3.245793
    48 -1.130199 0.000032 -0.000530 0.010400 0.060926 0.791676
    49 -0.744038 0.039344 -0.000319 0.023194 0.013805 1.033499
    50 -1.096776 -0.635618 -0.052075 0.424537 -0.213978 -3.080704
    51 2.093194 -0.012176 0.030602 -1.472535 0.986653 -2.927442
    52 -1.649458 0.000034 -0.000234 -0.001690 0.006755 0.868899
    53 -0.863912 0.027465 -0.000154 -0.003199 0.007507 0.949150
    54 -0.299572 1.344151 -0.089971 0.594739 0.903847 -0.508224
    55 -2.328125 -0.003735 0.001053 -0.091008 0.054902 0.391017
    56 -1.163233 -0.000050 0.000118 0.234347 0.178914 0.761924
    57 -7.461309 -0.000360 -0.000409 0.226991 0.000168 0.000010
    58 -6.216462 -0.000299 -0.000346 0.187464 0.000168 -0.000002
    59 -4.971604 -0.000237 -0.000273 0.147741 0.000120 -0.000002
    60 -3.730654 -0.000177 -0.000206 0.110919 0.000096 -0.000002
    61 -2.477988 -0.000122 -0.000138 0.073871 0.000060 -0.000002
    62 -1.237041 -0.000058 -0.000072 0.038205 0.000036 -0.000001
    63 -8.702259 -0.000423 -0.000477 0.263876 0.000204 0.000030
    64 0.000002 0.000000 0.000000 -0.000001 0.000000 0.000002
    65 0.000000 3.000000 5.000000 0.000000 0.000000 -3.141592
    66 -0.000001 0.399658 -0.000003 0.000000 0.000000 0.000000
    67 -0.000001 -0.000002 0.000001 0.000000 0.000000 0.000001
    68 0.000006 0.000001 0.000001 1.221730 -0.087267 0.174533
    69 0.000000 -0.000004 -0.000001 0.000000 0.000000 0.000001
    70 0.000002 -0.000006 0.000000 0.000001 0.000000 0.000000
    71 -0.000008 0.000011 0.000000 0.000001 0.000000 0.000001
    72 0.000008 0.000003 0.000000 3.141592 -0.000001 -0.000001
    73 0.000004 0.000000 -0.000002 3.141591 0.000000 -0.000001
    74 -0.000004 -0.000006 -0.000008 3.141592 0.000000 0.000000
    75 0.000004 -0.000004 0.000002 3.141592 -0.000001 0.000000
    76 -0.000002 0.000002 0.000003 3.141592 0.000000 0.000000
    77 -0.000004 0.000006 0.000000 3.141592 0.000000 0.000000
    78 -0.000004 -0.099915 -0.099976 -3.141593 0.000000 -0.000001
    79 -0.099915 -0.099976 -0.099976 3.141592 0.000000 0.000000
    80 -0.099915 -0.099976 -0.099976 3.141593 0.000000 0.000000
    81 -0.099915 -0.119873 -0.099915 3.141593 -0.000001 0.000000
    82 -0.099976 -0.119873 -0.099976 3.141593 0.000000 0.000000
    83 -0.099976 -0.119873 -0.099854 3.141592 0.000000 0.000000
    84 0.000000 0.000000 0.000000 0.000000 0.000000 -3.141593
    85 0.000001 0.000001 0.000000 0.000000 0.000000 -3.141593
    86 0.000002 -0.000004 0.000000 -1.570797 0.087267 -3.054326
    87 0.000000 0.000006 -0.000001 -0.000001 0.000000 -3.141593
    88 -0.000002 0.000011 0.000000 -0.000001 0.000000 -3.141593
    89 0.000002 0.000006 0.000000 -0.000001 0.000000 -3.141593
    90 -0.000004 -0.000002 0.000006 -3.141592 0.000001 3.141593
    91 0.000000 -0.000008 -0.000007 -3.141592 0.000000 3.141593
    92 0.000001 0.000008 0.000002 -3.141592 0.000000 3.141593
    93 -0.000006 0.000002 0.000004 -3.141593 0.000000 3.141593
    94 0.000000 0.000002 -0.000002 -3.141592 0.000000 -3.141592
    95 0.000006 0.000004 0.000002 -3.141592 0.000000 -3.141593
    96 0.099915 0.199951 0.099915 -3.141592 0.000000 -3.141593
    97 0.099854 0.199951 0.099976 -3.141593 0.000000 3.141593
    98 0.099976 0.199585 0.099915 -3.141592 -0.000001 3.141593
    99 -0.000001 0.119812 0.099915 -3.141592 0.000000 -3.141593
    100 -0.000007 0.119873 0.099854 3.141593 0.000000 -3.141593
    101 -0.000003 0.119873 0.099976 -3.141593 0.000000 3.141593
    102 12.354299 -4.784502 -7.113487 -0.004324 0.004520 0.009111
    103 0.000000 0.000000 0.000000 0.000000 0.000000 0.000000
    104 4.527344 0.000001 3.687500 0.000000 0.000000 0.000000
    105 0.000002 0.000000 0.000000 -0.000037 -0.610853 -1.570558
    106 4.277344 -0.000003 0.849121 0.000000 0.000000 0.000000
    107 5.539063 0.000001 0.000000 0.000000 0.000000 0.000000
    108 3.455010 0.000004 2.018000 0.000010 0.000000 0.000007
    109 -2.088972 -3.614023 0.605963 0.000010 0.000000 0.000007
    110 -1.971998 -0.000010 -0.796001 0.000011 -0.204731 0.000006
    111 -1.971998 -0.000010 -0.796001 0.000011 -0.204731 0.000006
    112 -5.858999 0.072452 2.682749 0.000000 0.000000 0.000000
    113 12.507813 0.000000 3.259766 0.000000 0.000000 0.000000
    114 10.230598 0.000000 4.378193 0.000000 0.000000 0.000000
  time 3
    0 0.000000 3.000000 -21.796875 0.000000 0.000000 -1.570796
    1 0.000000 0.000000 0.000000 0.000000 0.000000 0.000000
    2 -0.423340 0.000000 22.046875 0.000000 0.000000 0.000000
    3 4.819546 8.146531 -11.437196 -1.115721 0.079586 -0.479598
    4 10.889977 -0.000888 0.000756 0.000003 -0.000014 -0.841057
    5 -0.000001 -0.000005 0.000000 -0.000003 0.000000 0.000002
    6 9.954186 0.000528 0.014879 -1.537172 -0.124099 0.774797
    7 3.500000 -1.089844 0.078369 0.000001 0.000000 0.000003
    8 0.003908 -0.000006 -0.035154 -1.589451 0.477457 0.546461
    9 1.460938 -0.057800 -0.014778 -0.016274 -0.089382 0.963684
    10 0.992676 -0.047180 0.019485 0.071933 0.073855 1.024964
    11 0.000002 -0.000006 0.000003 0.000000 0.000000 -0.000001
    12 3.433184 0.098089 0.037807 -1.807474 0.879007 0.441762
    13 1.789764 -0.101636 -0.000299 -0.055882 0.099387 1.332643
    14 1.072174 0.058641 0.000067 -0.026250 -0.015572 0.461033
    15 0.688065 1.197872 -0.284691 -1.516298 0.320846 -0.016755
    16 2.100106 0.074746 -0.000731 -0.991132 0.117322 0.955407
    17 1.131349 -0.000010 -0.000273 0.019396 -0.040893 1.034587
    18 0.728797 -0.007960 -0.000156 -0.073661 -0.094570 0.722358
    19 1.116552 0.631720 0.051816 -1.575892 0.167847 -0.030366
    20 2.061992 0.027745 0.058016 -0.838902 -0.185496 1.040251
    21 1.630142 -0.003977 -0.000628 0.007038 0.023342 1.269063
    22 0.879396 0.105132 -0.004269 -0.150696 0.012291 0.332928
    23 0.167480 -1.424805 0.160156 0.154849 0.576954 -0.280227
    24 2.292104 -0.000013 0.000021 -0.198574 -0.224315 0.072219
    25 1.264537 0.000051 0.015740 0.412364 -0.121887 -0.126946
    26 7.467592 0.000397 0.003342 -1.321580 -0.000983 0.000397
    27 6.218438 0.000326 -0.000468 -1.092513 -0.000875 0.000241
    28 4.977095 0.000256 -0.000375 -0.862189 -0.000647 0.000121
    29 3.727936 0.000196 -0.000280 -0.645286 -0.000479 0.000037
    30 2.482685 0.000126 -0.000185 -0.431760 -0.000384 0.000001
    31 1.237436 0.000063 -0.000090 -0.216002 -0.000192 0.000002
    32 8.708933 0.000462 0.003245 -1.537676 -0.001067 0.000576
    33 0.000002 0.000004 0.000002 -0.000001 0.000000 0.000001
    34 -1.145480 -8.119186 -4.491672 0.967914 -1.273898 3.840696
    35 -10.890674 0.000870 0.000965 0.000153 0.000116 -2.093624
    36 -0.000002 -0.000012 -0.000010 -0.000002 0.000000 -0.000001
    37 -9.958829 -0.000484 -0.000551 0.292752 -0.111435 0.829648
    38 -3.500000 1.091797 -0.078491 0.000001 0.000000 -0.000004
    39 0.003918 0.175782 0.000005 -1.539895 0.222716 -0.138834
    40 -1.479675 -0.074189 0.000169 -0.012841 -0.011844 0.171917
    41 -1.026157 -0.090011 0.000485 -0.021107 -0.000476 0.194651
    42 0.000011 -0.000005 0.000005 0.000001 0.000000 0.000002
    43 -3.494574 -0.047294 0.039886 -2.365226 1.199865 -0.630061
    44 -1.796978 0.035211 -0.000272 0.005346 0.017448 0.944009
    45 -1.064400 0.054643 0.000060 0.001999 0.009296 0.927504
    46 -0.621656 -1.143194 0.272569 0.510051 -0.369431 -3.081486
    47 2.299598 -0.050906 -0.039275 -1.434482 0.676005 3.245518
    48 -1.130199 0.000032 -0.000530 0.010400 0.060926 0.791688
    49 -0.751851 0.027625 -0.000319 0.023194 0.013805 1.033487
    50 -1.088963 -0.631712 -0.052075 0.424501 -0.213978 -3.080704
    51 2.089287 -0.004363 0.038415 -1.472535 0.986653 -2.927442
    52 -1.649458 0.000034 -0.000234 -0.001690 0.006755 0.868887
    53 -0.871724 0.023558 -0.000154 -0.003199 0.007507 0.949138
    54 -0.291759 1.348057 -0.093877 0.594739 0.903847 -0.508224
    55 -2.328125 -0.003735 0.001053 -0.091008 0.054902 0.391017
    56 -1.163233 -0.000050 0.000118 0.234347 0.178938 0.761924
    57 -7.469122 -0.000360 -0.000409 0.251864 0.000204 -0.000002
    58 -6.224275 -0.000299 -0.000346 0.207980 0.000192 -0.000002
    59 -4.975510 -0.000237 -0.000273 0.163940 0.000120 -0.000002
    60 -3.730654 -0.000177 -0.000206 0.122998 0.000084 -0.000002
    61 -2.477988 -0.000122 -0.000138 0.082033 0.000060 -0.000002
    62 -1.237041 -0.000058 -0.000072 0.041010 0.000024 -0.000001
    63 -8.702259 -0.000423 -0.000477 0.292758 0.000228 0.000042
    64 0.000002 0.000000 0.000000 -0.000001 0.000000 0.000002
    65 0.000000 3.000000 5.000000 0.000000 0.000000 -3.141592
    66 -0.000001 0.399658 -0.000003 0.000000 0.000000 0.000000
    67 -0.000001 -0.000002 0.000001 0.000000 0.000000 0.000001
    68 0.000006 0.000001 0.000001 1.221730 -0.087267 0.174533
    69 0.000000 -0.000004 -0.000001 0.000000 0.000000 0.000001
    70 0.000002 -0.000006 0.000000 0.000001 0.000000 0.000000
    71 -0.000008 0.000011 0.000000 0.000001 0.000000 0.000001
    72 0.000008 0.000003 0.000000 3.141592 -0.000001 -0.000001
    73 0.000004 0.000000 -0.000002 3.141591 0.000000 -0.000001
    74 -0.000004 -0.000006 -0.000008 3.141592 0.000000 0.000000
    75 0.000004 -0.000004 0.000002 3.141592 -0.000001 0.000000
    76 -0.000002 0.000002 0.000003 3.141592 0.000000 0.000000
    77 -0.000004 0.000006 0.000000 3.141592 0.000000 0.000000
    78 -0.000004 -0.099915 -0.099976 -3.141593 0.000000 -0.000001
    79 -0.099915 -0.099976 -0.099976 3.141592 0.000000 0.000000
    80 -0.099915 -0.099976 -0.099976 3.141593 0.000000 0.000000
    81 -0.099915 -0.119873 -0.099915 3.141593 -0.000001 0.000000
    82 -0.099976 -0.119873 -0.099976 3.141593 0.000000 0.000000
    83 -0.099976 -0.119873 -0.099854 3.141592 0.000000 0.000000
    84 0.000000 0.000000 0.000000 0.000000 0.000000 -3.141593
    85 0.000001 0.000001 0.000000 0.000000 0.000000 -3.141593
    86 0.000002 -0.000004 0.000000 -1.570797 0.087267 -3.054326
    87 0.000000 0.000006 -0.000001 -0.000001 0.000000 -3.141593
    88 -0.000002 0.000011 0.000000 -0.000001 0.000000 -3.141593
    89 0.000002 0.000006 0.000000 -0.000001 0.000000 -3.141593
    90 -0.000004 -0.000002 0.000006 -3.141592 0.000001 3.141593
    91 0.000000 -0.000008 -0.000007 -3.141592 0.000000 3.141593
    92 0.000001 0.000008 0.000002 -3.141592 0.000000 3.141593
    93 -0.000006 0.000002 0.000004 -3.141593 0.000000 3.141593
    94 0.000000 0.000002 -0.000002 -3.141592 0.000000 -3.141592
    95 0.000006 0.000004 0.000002 -3.141592 0.000000 -3.141593
    96 0.099915 0.199951 0.099915 -3.141592 0.000000 -3.141593
    97 0.099854 0.199951 0.099976 -3.141593 0.000000 3.141593
    98 0.099976 0.199585 0.099915 -3.141592 -0.000001 3.141593
    99 -0.000001 0.119812 0.099915 -3.141592 0.000000 -3.141593
    100 -0.000007 0.119873 0.099854 3.141593 0.000000 -3.141593
    101 -0.000003 0.119873 0.099976 -3.141593 0.000000 3.141593
    102 12.217576 -4.526681 -7.222865 -0.016199 0.017129 0.034587
    103 0.000000 0.000000 0.000000 0.000000 0.000000 0.000000
    104 4.527344 0.000001 3.687500 0.000000 0.000000 0.000000
    105 0.000002 0.000000 0.000000 -0.000037 -0.610853 -1.570558
    106 4.277344 -0.000003 0.849121 0.000000 0.000000 0.000000
    107 5.539063 0.000001 0.000000 0.000000 0.000000 0.000000
    108 3.455010 0.000004 2.018000 0.000010 0.000000 0.000007
    109 -2.088972 -3.614023 0.605963 0.000010 0.000000 0.000007
    110 -1.971998 -0.000010 -0.796001 0.000011 -0.204731 0.000006
    111 -1.971998 -0.000010 -0.796001 0.000011 -0.204731 0.000006
    112 -5.858999 0.072452 2.682749 0.000000 0.000000 0.000000
    113 12.507813 0.000000 3.259766 0.000000 0.000000 0.000000
    114 10.230598 0.000000 4.378193 0.000000 0.000000 0.000000
  time 4
    0 0.000000 3.000000 -21.796875 0.000000 0.000000 -1.570796
    1 0.000000 0.000000 0.000000 0.000000 0.000000 0.000000
    2 -0.423340 0.000000 22.046875 0.000000 0.000000 0.000000
    3 4.819546 8.146531 -11.437196 -1.123015 0.152037 -0.430702
    4 10.889977 -0.000888 0.000756 0.000039 -0.000014 -0.989478
    5 -0.000001 -0.000005 0.000000 -0.000003 0.000000 0.000002
    6 9.938561 0.000528 -0.000746 -1.552343 -0.141894 0.861600
    7 3.500000 -1.089844 0.078369 0.000001 0.000000 0.000003
    8 0.007815 -0.003912 -0.035154 -1.589451 0.477430 0.546393
    9 1.460938 -0.057800 -0.014778 -0.016274 -0.089382 0.963684
    10 0.992676 -0.047180 0.019485 0.071933 0.073855 1.024964
    11 0.000002 -0.000006 0.000003 0.000000 0.000000 -0.000001
    12 3.429277 0.101995 0.037807 -1.807530 0.878715 0.441425
    13 1.793671 -0.097730 -0.000299 -0.055870 0.099375 1.332643
    14 1.076081 0.058641 0.000067 -0.026250 -0.015560 0.461033
    15 0.680252 1.197872 -0.284691 -1.516298 0.320846 -0.016769
    16 2.100106 0.070839 -0.000731 -0.991132 0.117322 0.955407
    17 1.123536 -0.000010 -0.000273 0.019396 -0.040905 1.034587
    18 0.728797 -0.004053 -0.004063 -0.073637 -0.094570 0.722358
    19 1.108739 0.635626 0.051816 -1.576311 0.167847 -0.030414
    20 2.065899 0.031651 0.050203 -0.838902 -0.185496 1.040251
    21 1.630142 -0.003977 -0.000628 0.007038 0.023342 1.269063
    22 0.875490 0.109039 -0.000362 -0.150696 0.012279 0.333012
    23 0.167480 -1.424805 0.160156 0.154849 0.576954 -0.280227
    24 2.292104 -0.000013 0.000021 -0.198562 -0.224315 0.072231
    25 1.256724 0.000051 0.019646 0.412364 -0.121875 -0.126946
    26 7.455873 0.000397 0.003342 -1.334737 -0.000995 0.000397
    27 6.206719 0.000326 -0.000468 -1.101685 -0.000851 0.000253
    28 4.969282 0.000256 -0.000375 -0.869525 -0.000647 0.000133
    29 3.720124 0.000196 -0.000280 -0.651132 -0.000491 0.000049
    30 2.482685 0.000126 -0.000185 -0.434498 -0.000384 0.000001
    31 1.233529 0.000063 -0.000090 -0.217500 -0.000192 0.000002
    32 8.705027 0.000462 -0.000662 -1.552789 -0.001067 0.000588
    33 0.000002 0.000004 0.000002 -0.000001 0.000000 0.000001
    34 -1.145480 -8.119186 -4.491672 0.867983 -1.269088 3.955799
    35 -10.886767 0.000870 0.000965 0.000177 0.000128 -2.099426
    36 -0.000002 -0.000012 -0.000010 -0.000002 0.000000 -0.000001
    37 -9.954923 -0.000484 -0.000551 0.336602 -0.095611 0.841650
    38 -3.500000 1.091797 -0.078491 0.000001 0.000000 -0.000004
    39 0.003918 0.171875 0.000005 -1.539895 0.222704 -0.138834
    40 -1.475769 -0.074189 0.000169 -0.012817 -0.011808 0.171917
    41 -1.026157 -0.086104 0.000485 -0.021107 -0.000476 0.194687
    42 0.000011 -0.000005 0.000005 0.000001 0.000000 0.000002
    43 -3.490667 -0.043388 0.039886 -2.365268 1.199865 -0.630022
    44 -1.789165 0.023492 -0.000272 0.005346 0.017448 0.944057
    45 -1.056587 0.050737 0.000060 0.001999 0.009296 0.927504
    46 -0.621656 -1.143194 0.272569 0.510051 -0.369443 -3.081486
    47 2.291785 -0.054812 -0.039275 -1.434422 0.676029 3.245685
    48 -1.130199 0.000032 -0.000530 0.010400 0.060938 0.791652
    49 -0.740132 0.031531 -0.000319 0.023194 0.013805 1.033487
    50 -1.088963 -0.631712 -0.052075 0.424513 -0.213978 -3.080704
    51 2.089287 -0.004363 0.034509 -1.472523 0.986668 -2.927442
    52 -1.649458 0.000034 -0.000234 -0.001690 0.006755 0.868875
    53 -0.867818 0.027465 -0.000154 -0.003199 0.007507 0.949150
    54 -0.299572 1.348057 -0.093877 0.594739 0.903859 -0.508224
    55 -2.328125 -0.003735 0.001053 -0.091008 0.054902 0.391017
    56 -1.163233 -0.000050 0.000118 0.234347 0.178938 0.761924
    57 -7.457403 -0.000360 -0.000409 0.289540 0.000240 0.000022
    58 -6.204743 -0.000299 -0.000346 0.238882 0.000216 0.000010
    59 -4.963791 -0.000237 -0.000273 0.188477 0.000144 -0.000002
    60 -3.722841 -0.000177 -0.000206 0.141330 0.000108 -0.000002
    61 -2.477988 -0.000122 -0.000138 0.095755 0.000060 -0.000002
    62 -1.244854 -0.000058 -0.000072 0.048524 0.000036 -0.000001
    63 -8.702259 -0.000423 -0.000477 0.336491 0.000252 0.000054
    64 0.000002 0.000000 0.000000 -0.000001 0.000000 0.000002
    65 0.000000 3.000000 5.000000 0.000000 0.000000 -3.141592
    66 -0.000001 0.399658 -0.000003 0.000000 0.000000 0.000000
    67 -0.000001 -0.000002 0.000001 0.000000 0.000000 0.000001
    68 0.000006 0.000001 0.000001 1.221730 -0.087267 0.174533
    69 0.000000 -0.000004 -0.000001 0.000000 0.000000 0.000001
    70 0.000002 -0.000006 0.000000 0.000001 0.000000 0.000000
    71 -0.000008 0.000011 0.000000 0.000001 0.000000 0.000001
    72 0.000008 0.000003 0.000000 3.141592 -0.000001 -0.000001
    73 0.000004 0.000000 -0.000002 3.141591 0.000000 -0.000001
    74 -0.000004 -0.000006 -0.000008 3.141592 0.000000 0.000000
    75 0.000004 -0.000004 0.000002 3.141592 -0.000001 0.000000
    76 -0.000002 0.000002 0.000003 3.141592 0.000000 0.000000
    77 -0.000004 0.000006 0.000000 3.141592 0.000000 0.000000
    78 -0.000004 -0.099915 -0.099976 -3.141593 0.000000 -0.000001
    79 -0.099915 -0.099976 -0.099976 3.141592 0.000000 0.000000
    80 -0.099915 -0.099976 -0.099976 3.141593 0.000000 0.000000
    81 -0.099915 -0.119873 -0.099915 3.141593 -0.000001 0.000000
    82 -0.099976 -0.119873 -0.099976 3.141593 0.000000 0.000000
    83 -0.099976 -0.119873 -0.099854 3.141592 0.000000 0.000000
    84 0.000000 0.000000 0.000000 0.000000 0.000000 -3.141593
    85 0.000001 0.000001 0.000000 0.000000 0.000000 -3.141593
    86 0.000002 -0.000004 0.000000 -1.570797 0.087267 -3.054326
    87 0.000000 0.000006 -0.000001 -0.000001 0.000000 -3.141593
    88 -0.000002 0.000011 0.000000 -0.000001 0.000000 -3.141593
    89 0.000002 0.000006 0.000000 -0.000001 0.000000 -3.141593
    90 -0.000004 -0.000002 0.000006 -3.141592 0.000001 3.141593
    91 0.000000 -0.000008 -0.000007 -3.141592 0.000000 3.141593
    92 0.000001 0.000008 0.000002 -3.141592 0.000000 3.141593
    93 -0.000006 0.000002 0.000004 -3.141593 0.000000 3.141593
    94 0.000000 0.000002 -0.000002 -3.141592 0.000000 -3.141592
    95 0.000006 0.000004 0.000002 -3.141592 0.000000 -3.141593
    96 0.099915 0.199951 0.099915 -3.141592 0.000000 -3.141593
    97 0.099854 0.199951 0.099976 -3.141593 0.000000 3.141593
    98 0.099976 0.199585 0.099915 -3.141592 -0.000001 3.141593
    99 -0.000001 0.119812 0.099915 -3.141592 0.000000 -3.141593
    100 -0.000007 0.119873 0.099854 3.141593 0.000000 -3.141593
    101 -0.000003 0.119873 0.099976 -3.141593 0.000000 3.141593
    102 12.010538 -4.096981 -7.386933 -0.033378 0.035759 0.073054
    103 0.000000 0.000000 0.000000 0.000000 0.000000 0.000000
    104 4.527344 0.000001 3.687500 0.000000 0.000000 0.000000
    105 0.000002 0.000000 0.000000 -0.000037 -0.610853 -1.570558
    106 4.277344 -0.000003 0.849121 0.000000 0.000000 0.000000
    107 5.539063 0.000001 0.000000 0.000000 0.000000 0.000000
    108 3.455010 0.000004 2.018000 0.000010 0.000000 0.000007
    109 -2.088972 -3.614023 0.605963 0.000010 0.000000 0.000007
    110 -1.971998 -0.000010 -0.796001 0.000011 -0.204731 0.000006
    111 -1.971998 -0.000010 -0.796001 0.000011 -0.204731 0.000006
    112 -5.858999 0.072452 2.682749 0.000000 0.000000 0.000000
    113 12.507813 0.000000 3.259766 0.000000 0.000000 0.000000
    114 10.230598 0.000000 4.378193 0.000000 0.000000 0.000000
  time 5
    0 0.000000 3.000000 -21.796875 0.000000 0.000000 -1.570796
    1 0.000000 0.000000 0.000000 0.000000 0.000000 0.000000
    2 -0.423340 0.000000 22.046875 0.000000 0.000000 0.000000
    3 4.819546 8.146531 -11.437196 -1.130199 0.232726 -0.373745
    4 10.889977 -0.000888 0.000756 0.000063 -0.000002 -1.149284
    5 -0.000001 -0.000005 0.000000 -0.000003 0.000000 0.000002
    6 9.954186 0.000528 0.007067 -1.568705 -0.162984 0.955751
    7 3.500000 -1.089844 0.078369 0.000001 0.000000 0.000003
    8 0.007815 -0.000006 -0.035154 -1.589451 0.477457 0.546438
    9 1.460938 -0.057800 -0.014778 -0.016274 -0.089382 0.963684
    10 0.992676 -0.047180 0.019485 0.071933 0.073855 1.024964
    11 0.000002 -0.000006 0.000003 0.000000 0.000000 -0.000001
    12 3.429277 0.098089 0.037807 -1.807530 0.878657 0.441425
    13 1.797577 -0.109449 -0.000299 -0.055858 0.099387 1.332643
    14 1.068268 0.050829 0.000067 -0.026226 -0.015560 0.460929
    15 0.688065 1.197872 -0.284691 -1.516298 0.320846 -0.016783
    16 2.100106 0.074746 -0.000731 -0.991076 0.117512 0.955234
    17 1.123536 -0.000010 -0.000273 0.019396 -0.040881 1.034587
    18 0.728797 -0.004053 -0.011876 -0.073637 -0.094570 0.722358
    19 1.108739 0.635626 0.051816 -1.576311 0.167883 -0.030414
    20 2.061992 0.031651 0.058016 -0.838902 -0.185496 1.040251
    21 1.634048 -0.011790 -0.000628 0.007038 0.023330 1.269063
    22 0.879396 0.109039 -0.000362 -0.150696 0.012291 0.332984
    23 0.167480 -1.424805 0.160156 0.154849 0.576954 -0.280227
    24 2.292104 -0.000013 0.000021 -0.198562 -0.224315 0.072231
    25 1.256724 0.000051 0.019646 0.412364 -0.121875 -0.126946
    26 7.463686 0.000397 0.007249 -1.348271 -0.000995 0.000397
    27 6.214532 0.000326 -0.000468 -1.112505 -0.000863 0.000253
    28 4.977095 0.000256 -0.000375 -0.877774 -0.000659 0.000145
    29 3.731843 0.000196 -0.000280 -0.656978 -0.000491 0.000025
    30 2.478779 0.000126 -0.000185 -0.438220 -0.000384 0.000001
    31 1.241342 0.000063 -0.000090 -0.218962 -0.000192 0.000002
    32 8.708933 0.000462 -0.000662 -1.567839 -0.001079 0.000600
    33 0.000002 0.000004 0.000002 -0.000001 0.000000 0.000001
    34 -1.145480 -8.119186 -4.491672 0.753162 -1.256834 4.089127
    35 -10.886767 0.000870 0.000965 0.000201 0.000140 -2.104951
    36 -0.000002 -0.000012 -0.000010 -0.000002 0.000000 -0.000001
    37 -9.951016 -0.000484 -0.000551 0.391341 -0.077809 0.856249
    38 -3.500000 1.091797 -0.078491 0.000001 0.000000 -0.000004
    39 0.000011 0.175782 0.000005 -1.539907 0.222704 -0.138846
    40 -1.471862 -0.074189 0.000169 -0.012829 -0.011760 0.171917
    41 -1.030063 -0.086104 0.000485 -0.021107 -0.000476 0.194675
    42 0.000011 -0.000005 0.000005 0.000001 0.000000 0.000002
    43 -3.490667 -0.047294 0.035980 -2.365268 1.199865 -0.630061
    44 -1.800885 0.031304 -0.000272 0.005346 0.017448 0.944117
    45 -1.060494 0.050737 0.000060 0.001999 0.009296 0.927504
    46 -0.621656 -1.147101 0.272569 0.510051 -0.369443 -3.081486
    47 2.295692 -0.054812 -0.039275 -1.434338 0.676065 3.245961
    48 -1.130199 0.000032 -0.000530 0.010400 0.060902 0.791664
    49 -0.740132 0.035438 -0.000319 0.023194 0.013805 1.033487
    50 -1.092869 -0.631712 -0.052075 0.424525 -0.213978 -3.080704
    51 2.089287 -0.016082 0.030602 -1.472571 0.986729 -2.927598
    52 -1.649458 0.000034 -0.000234 -0.001690 0.006755 0.868887
    53 -0.863912 0.027465 -0.000154 -0.003199 0.007495 0.949150
    54 -0.299572 1.344151 -0.089971 0.594739 0.903847 -0.508224
    55 -2.328125 -0.003735 0.001053 -0.091008 0.054902 0.391017
    56 -1.163233 0.003857 0.000118 0.234347 0.178926 0.761924
    57 -7.469122 -0.000360 -0.000409 0.336748 0.000251 0.000022
    58 -6.224275 -0.000299 -0.000346 0.277911 0.000228 0.000010
    59 -4.971604 -0.000237 -0.000273 0.219314 0.000168 -0.000002
    60 -3.722841 -0.000177 -0.000206 0.165984 0.000144 -0.000002
    61 -2.474082 -0.000122 -0.000138 0.109537 0.000072 -0.000002
    62 -1.244854 -0.000058 -0.000072 0.055966 0.000048 -0.000001
    63 -8.702259 -0.000423 -0.000477 0.391370 0.000252 0.000066
    64 0.000002 0.000000 0.000000 -0.000001 0.000000 0.000002
    65 0.000000 3.000000 5.000000 0.000000 0.000000 -3.141592
    66 -0.000001 0.399658 -0.000003 0.000000 0.000000 0.000000
    67 -0.000001 -0.000002 0.000001 0.000000 0.000000 0.000001
    68 0.000006 0.000001 0.000001 1.221730 -0.087267 0.174533
    69 0.000000 -0.000004 -0.000001 0.000000 0.000000 0.000001
    70 0.000002 -0.000006 0.000000 0.000001 0.000000 0.000000
    71 -0.000008 0.000011 0.000000 0.000001 0.000000 0.000001
    72 0.000008 0.000003 0.000000 3.141592 -0.000001 -0.000001
    73 0.000004 0.000000 -0.000002 3.141591 0.000000 -0.000001
    74 -0.000004 -0.000006 -0.000008 3.141592 0.000000 0.000000
    75 0.000004 -0.000004 0.000002 3.141592 -0.000001 0.000000
    76 -0.000002 0.000002 0.000003 3.141592 0.000000 0.000000
    77 -0.000004 0.000006 0.000000 3.141592 0.000000 0.000000
    78 -0.000004 -0.099915 -0.099976 -3.141593 0.000000 -0.000001
    79 -0.099915 -0.099976 -0.099976 3.141592 0.000000 0.000000
    80 -0.099915 -0.099976 -0.099976 3.141593 0.000000 0.000000
    81 -0.099915 -0.119873 -0.099915 3.141593 -0.000001 0.000000
    82 -0.099976 -0.119873 -0.099976 3.141593 0.000000 0.000000
    83 -0.099976 -0.119873 -0.099854 3.141592 0.000000 0.000000
    84 0.000000 0.000000 0.000000 0.000000 0.000000 -3.141593
    85 0.000001 0.000001 0.000000 0.000000 0.000000 -3.141593
    86 0.000002 -0.000004 0.000000 -1.570797 0.087267 -3.054326
    87 0.000000 0.000006 -0.000001 -0.000001 0.000000 -3.141593
    88 -0.000002 0.000011 0.000000 -0.000001 0.000000 -3.141593
    89 0.000002 0.000006 0.000000 -0.000001 0.000000 -3.141593
    90 -0.000004 -0.000002 0.000006 -3.141592 0.000001 3.141593
    91 0.000000 -0.000008 -0.000007 -3.141592 0.000000 3.141593
    92 0.000001 0.000008 0.000002 -3.141592 0.000000 3.141593
    93 -0.000006 0.000002 0.000004 -3.141593 0.000000 3.141593
    94 0.000000 0.000002 -0.000002 -3.141592 0.000000 -3.141592
    95 0.000006 0.000004 0.000002 -3.141592 0.000000 -3.141593
    96 0.099915 0.199951 0.099915 -3.141592 0.000000 -3.141593
    97 0.099854 0.199951 0.099976 -3.141593 0.000000 3.141593
    98 0.099976 0.199585 0.099915 -3.141592 -0.000001 3.141593
    99 -0.000001 0.119812 0.099915 -3.141592 0.000000 -3.141593
    100 -0.000007 0.119873 0.099854 3.141593 0.000000 -3.141593
    101 -0.000003 0.119873 0.099976 -3.141593 0.000000 3.141593
    102 11.776156 -3.585246 -7.586158 -0.053439 0.058491 0.121408
    103 0.000000 0.000000 0.000000 0.000000 0.000000 0.000000
    104 4.527344 0.000001 3.687500 0.000000 0.000000 0.000000
    105 0.000002 0.000000 0.000000 -0.000037 -0.610853 -1.570558
    106 4.277344 -0.000003 0.849121 0.000000 0.000000 0.000000
    107 5.539063 0.000001 0.000000 0.000000 0.000000 0.000000
    108 3.455010 0.000004 2.018000 0.000010 0.000000 0.000007
    109 -2.088972 -3.614023 0.605963 0.000010 0.000000 0.000007
    110 -1.971998 -0.000010 -0.796001 0.000011 -0.204731 0.000006
    111 -1.971998 -0.000010 -0.796001 0.000011 -0.204731 0.000006
    112 -5.858999 0.072452 2.682749 0.000000 0.000000 0.000000
    113 12.507813 0.000000 3.259766 0.000000 0.000000 0.000000
    114 10.230598 0.000000 4.378193 0.000000 0.000000 0.000000
  time 6
    0 0.000000 3.000000 -21.796875 0.000000 0.000000 -1.570796
    1 0.000000 0.000000 0.000000 0.000000 0.000000 0.000000
    2 -0.423340 0.000000 22.046875 0.000000 0.000000 0.000000
    3 4.819546 8.146531 -11.437196 -1.138849 0.315184 -0.312863
    4 10.897789 -0.000888 0.000756 0.000087 -0.000014 -1.308985
    5 -0.000001 -0.000005 0.000000 -0.000003 0.000000 0.000002
    6 9.942467 0.000528 0.007067 -1.583124 -0.185625 1.048514
    7 3.500000 -1.089844 0.078369 0.000001 0.000000 0.000003
    8 0.011721 -0.000006 -0.035154 -1.589451 0.477430 0.546393
    9 1.460938 -0.057800 -0.014778 -0.016274 -0.089382 0.963684
    10 0.992676 -0.047180 0.019485 0.071933 0.073855 1.024964
    11 0.000002 -0.000006 0.000003 0.000000 0.000000 -0.000001
    12 3.433184 0.098089 0.037807 -1.807530 0.878657 0.441425
    13 1.797577 -0.105543 -0.000299 -0.055834 0.099375 1.332643
    14 1.068268 0.058641 0.000067 -0.026238 -0.015548 0.460999
    15 0.691971 1.201779 -0.284691 -1.516298 0.320846 -0.016797
    16 2.100106 0.066933 -0.000731 -0.991132 0.117322 0.955407
    17 1.123536 -0.000010 -0.000273 0.019396 -0.040905 1.034587
    18 0.728797 -0.004053 -0.000156 -0.073661 -0.094582 0.722358
    19 1.108739 0.635626 0.051816 -1.576311 0.167775 -0.030474
    20 2.061992 0.031651 0.054109 -0.838902 -0.185496 1.040214
    21 1.630142 -0.007883 -0.000628 0.007038 0.023330 1.269063
    22 0.871583 0.101226 -0.004269 -0.150696 0.012291 0.332928
    23 0.167480 -1.424805 0.160156 0.154849 0.576954 -0.280227
    24 2.292104 -0.000013 0.000021 -0.198562 -0.224315 0.072231
    25 1.260631 0.000051 0.011834 0.412364 -0.121875 -0.126946
    26 7.467592 0.000397 0.003342 -1.361590 -0.001007 0.000397
    27 6.210625 0.000326 -0.000468 -1.123458 -0.000887 0.000253
    28 4.961470 0.000256 -0.000375 -0.886058 -0.000659 0.000145
    29 3.724030 0.000196 -0.000280 -0.662877 -0.000503 0.000049
    30 2.478779 0.000126 -0.000185 -0.441942 -0.000384 0.000001
    31 1.241342 0.000063 -0.000090 -0.220412 -0.000192 0.000002
    32 8.705027 0.000462 0.003245 -1.583014 -0.001079 0.000624
    33 0.000002 0.000004 0.000002 -0.000001 0.000000 0.000001
    34 -1.145480 -8.119186 -4.491672 0.643177 -1.236029 4.220536
    35 -10.875048 0.000870 0.000965 0.000165 0.000080 -2.106332
    36 -0.000002 -0.000012 -0.000010 -0.000002 0.000000 -0.000001
    37 -9.958829 -0.000484 -0.000551 0.453295 -0.060055 0.871234
    38 -3.500000 1.091797 -0.078491 0.000001 0.000000 -0.000004
    39 0.003918 0.175782 0.000005 -1.539895 0.222704 -0.138822
    40 -1.471862 -0.066376 0.000169 -0.012829 -0.011796 0.171905
    41 -1.030063 -0.086104 0.000485 -0.021107 -0.000488 0.194663
    42 0.000011 -0.000005 0.000005 0.000001 0.000000 0.000002
    43 -3.494574 -0.047294 0.035980 -2.365247 1.199865 -0.630022
    44 -1.796978 0.035211 -0.000272 0.005346 0.017460 0.944153
    45 -1.052681 0.039018 0.000060 0.001999 0.009296 0.927504
    46 -0.621656 -1.147101 0.272569 0.510051 -0.369431 -3.081486
    47 2.303504 -0.058719 -0.054901 -1.434254 0.676089 3.246153
    48 -1.134105 0.000032 -0.000530 0.010400 0.060890 0.791688
    49 -0.747944 0.035438 -0.000319 0.023194 0.013805 1.033499
    50 -1.096776 -0.631712 -0.052075 0.424525 -0.213978 -3.080704
    51 2.093194 -0.016082 0.034509 -1.472655 0.986775 -2.927766
    52 -1.649458 0.000034 -0.000234 -0.001690 0.006755 0.868887
    53 -0.863912 0.027465 -0.000154 -0.003187 0.007471 0.949150
    54 -0.295666 1.351964 -0.089971 0.594739 0.903847 -0.508224
    55 -2.328125 -0.003735 0.001053 -0.091008 0.054902 0.391017
    56 -1.163233 -0.000050 0.000118 0.234347 0.178938 0.761924
    57 -7.457403 -0.000360 -0.000409 0.391683 0.000275 0.000058
    58 -6.216462 -0.000299 -0.000346 0.323344 0.000251 0.000010
    59 -4.971604 -0.000237 -0.000273 0.255128 0.000204 -0.000002
    60 -3.726747 -0.000177 -0.000206 0.190583 0.000168 -0.000002
    61 -2.474082 -0.000122 -0.000138 0.127203 0.000096 -0.000002
    62 -1.233135 -0.000058 -0.000072 0.063541 0.000060 -0.000001
    63 -8.702259 -0.000423 -0.000477 0.455363 0.000275 0.000090
    64 0.000002 0.000000 0.000000 -0.000001 0.000000 0.000002
    65 0.000000 3.000000 5.000000 0.000000 0.000000 -3.141592
    66 -0.000001 0.399658 -0.000003 0.000000 0.000000 0.000000
    67 -0.000001 -0.000002 0.000001 0.000000 0.000000 0.000001
    68 0.000006 0.000001 0.000001 1.221730 -0.087267 0.174533
    69 0.000000 -0.000004 -0.000001 0.000000 0.000000 0.000001
    70 0.000002 -0.000006 0.000000 0.000001 0.000000 0.000000
    71 -0.000008 0.000011 0.000000 0.000001 0.000000 0.000001
    72 0.000008 0.000003 0.000000 3.141592 -0.000001 -0.000001
    73 0.000004 0.000000 -0.000002 3.141591 0.000000 -0.000001
    74 -0.000004 -0.000006 -0.000008 3.141592 0.000000 0.000000
    75 0.000004 -0.000004 0.000002 3.141592 -0.000001 0.000000
    76 -0.000002 0.000002 0.000003 3.141592 0.000000 0.000000
    77 -0.000004 0.000006 0.000000 3.141592 0.000000 0.000000
    78 -0.000004 -0.099915 -0.099976 -3.141593 0.000000 -0.000001
    79 -0.099915 -0.099976 -0.099976 3.141592 0.000000 0.000000
    80 -0.099915 -0.099976 -0.099976 3.141593 0.000000 0.000000
    81 -0.099915 -0.119873 -0.099915 3.141593 -0.000001 0.000000
    82 -0.099976 -0.119873 -0.099976 3.141593 0.000000 0.000000
    83 -0.099976 -0.119873 -0.099854 3.141592 0.000000 0.000000
    84 0.000000 0.000000 0.000000 0.000000 0.000000 -3.141593
    85 0.000001 0.000001 0.000000 0.000000 0.000000 -3.141593
    86 0.000002 -0.000004 0.000000 -1.570797 0.087267 -3.054326
    87 0.000000 0.000006 -0.000001 -0.000001 0.000000 -3.141593
    88 -0.000002 0.000011 0.000000 -0.000001 0.000000 -3.141593
    89 0.000002 0.000006 0.000000 -0.000001 0.000000 -3.141593
    90 -0.000004 -0.000002 0.000006 -3.141592 0.000001 3.141593
    91 0.000000 -0.000008 -0.000007 -3.141592 0.000000 3.141593
    92 0.000001 0.000008 0.000002 -3.141592 0.000000 3.141593
    93 -0.000006 0.000002 0.000004 -3.141593 0.000000 3.141593
    94 0.000000 0.000002 -0.000002 -3.141592 0.000000 -3.141592
    95 0.000006 0.000004 0.000002 -3.141592 0.000000 -3.141593
    96 0.099915 0.199951 0.099915 -3.141592 0.000000 -3.141593
    97 0.099854 0.199951 0.099976 -3.141593 0.000000 3.141593
    98 0.099976 0.199585 0.099915 -3.141592 -0.000001 3.141593
    99 -0.000001 0.119812 0.099915 -3.141592 0.000000 -3.141593
    100 -0.000007 0.119873 0.099854 3.141593 0.000000 -3.141593
    101 -0.000003 0.119873 0.099976 -3.141593 0.000000 3.141593
    102 11.498804 -2.975853 -7.801008 -0.074653 0.083198 0.176375
    103 0.000000 0.000000 0.000000 0.000000 0.000000 0.000000
    104 4.527344 0.000001 3.687500 0.000000 0.000000 0.000000
    105 0.000002 0.000000 0.000000 -0.000037 -0.610853 -1.570558
    106 4.277344 -0.000003 0.849121 0.000000 0.000000 0.000000
    107 5.539063 0.000001 0.000000 0.000000 0.000000 0.000000
    108 3.455010 0.000004 2.018000 0.000010 0.000000 0.000007
    109 -2.088972 -3.614023 0.605963 0.000010 0.000000 0.000007
    110 -1.971998 -0.000010 -0.796001 0.000011 -0.204731 0.000006
    111 -1.971998 -0.000010 -0.796001 0.000011 -0.204731 0.000006
    112 -5.858999 0.072452 2.682749 0.000000 0.000000 0.000000
    113 12.507813 0.000000 3.259766 0.000000 0.000000 0.000000
    114 10.230598 0.000000 4.378193 0.000000 0.000000 0.000000
  time 7
    0 0.000000 3.000000 -21.796875 0.000000 0.000000 -1.570796
    1 0.000000 0.000000 0.000000 0.000000 0.000000 0.000000
    2 -0.423340 0.000000 22.046875 0.000000 0.000000 0.000000
    3 4.819546 8.146531 -11.437196 -1.151238 0.395844 -0.251610
    4 10.889977 -0.000888 0.000756 0.000111 0.000022 -1.460304
    5 -0.000001 -0.000005 0.000000 -0.000003 0.000000 0.000002
    6 9.938561 0.000528 0.007067 -1.592214 -0.208227 1.133811
    7 3.500000 -1.089844 0.078369 0.000001 0.000000 0.000003
    8 0.000002 -0.000006 -0.035154 -1.589512 0.477457 0.546484
    9 1.460938 -0.057800 -0.014778 -0.016274 -0.089382 0.963684
    10 0.992676 -0.047180 0.019485 0.071933 0.073855 1.024964
    11 0.000002 -0.000006 0.000003 0.000000 0.000000 -0.000001
    12 3.433184 0.098089 0.037807 -1.807530 0.878618 0.441425
    13 1.797577 -0.105543 -0.000299 -0.055846 0.099375 1.332643
    14 1.076081 0.054735 0.000067 -0.026226 -0.015548 0.460999
    15 0.684158 1.201779 -0.284691 -1.516298 0.320787 -0.016797
    16 2.100106 0.070839 -0.000731 -0.991132 0.117322 0.955407
    17 1.123536 -0.000010 -0.000273 0.019396 -0.040881 1.034587
    18 0.728797 -0.007960 -0.000156 -0.073637 -0.094582 0.722358
    19 1.104833 0.631720 0.051816 -1.575592 0.167787 -0.030354
    20 2.061992 0.031651 0.050203 -0.838902 -0.185496 1.040251
    21 1.630142 -0.003977 -0.000628 0.007038 0.023318 1.269063
    22 0.875490 0.109039 -0.000362 -0.150696 0.012291 0.332956
    23 0.167480 -1.424805 0.160156 0.154849 0.576954 -0.280227
    24 2.292104 -0.000013 0.000021 -0.198562 -0.224315 0.072243
    25 1.256724 0.000051 0.015740 0.412364 -0.121875 -0.126972
    26 7.455873 0.000397 0.003342 -1.368654 -0.001007 0.000432
    27 6.210625 0.000326 0.003438 -1.130359 -0.000887 0.000277
    28 4.961470 0.000256 -0.000375 -0.891428 -0.000659 0.000157
    29 3.716217 0.000196 -0.000280 -0.668723 -0.000515 0.000049
    30 2.478779 0.000126 -0.000185 -0.445663 -0.000384 0.000001
    31 1.237436 0.000063 -0.000090 -0.221874 -0.000192 0.000002
    32 8.701120 0.000462 0.003245 -1.592797 -0.001091 0.000672
    33 0.000002 0.000004 0.000002 -0.000001 0.000000 0.000001
    34 -1.145480 -8.119186 -4.491672 0.551842 -1.207150 4.337078
    35 -10.878955 0.000870 0.000965 0.000225 0.000152 -2.100807
    36 -0.000002 -0.000012 -0.000010 -0.000002 0.000000 -0.000001
    37 -9.947110 -0.000484 -0.000551 0.518758 -0.045256 0.884008
    38 -3.500000 1.091797 -0.078491 0.000001 0.000000 -0.000004
    39 0.011731 0.175782 0.000005 -1.539907 0.222704 -0.138822
    40 -1.475769 -0.074189 0.000169 -0.012817 -0.011820 0.171917
    41 -1.030063 -0.086104 0.000485 -0.021107 -0.000488 0.194663
    42 0.000011 -0.000005 0.000005 0.000001 0.000000 0.000002
    43 -3.494574 -0.043388 0.035980 -2.365226 1.199905 -0.630061
    44 -1.793072 0.035211 -0.000272 0.005346 0.017460 0.944188
    45 -1.064400 0.046831 0.000060 0.001999 0.009296 0.927504
    46 -0.621656 -1.143194 0.272569 0.510051 -0.369431 -3.081486
    47 2.291785 -0.050906 -0.050995 -1.434290 0.676041 3.246057
    48 -1.130199 0.000032 -0.000530 0.010400 0.060902 0.791688
    49 -0.744038 0.039344 -0.000319 0.023194 0.013817 1.033499
    50 -1.096776 -0.631712 -0.052075 0.424537 -0.213978 -3.080704
    51 2.085381 -0.008270 0.030602 -1.472739 0.986851 -2.927922
    52 -1.649458 0.000034 -0.000234 -0.001702 0.006743 0.868887
    53 -0.863912 0.027465 -0.000154 -0.003187 0.007495 0.949150
    54 -0.299572 1.344151 -0.089971 0.594712 0.903847 -0.508224
    55 -2.328125 -0.003735 0.001053 -0.091008 0.054902 0.391017
    56 -1.163233 -0.000050 0.000118 0.234359 0.178938 0.761924
    57 -7.461309 -0.000360 -0.000409 0.446787 0.000275 0.000081
    58 -6.216462 -0.000299 -0.000346 0.368800 0.000275 0.000034
    59 -4.971604 -0.000237 -0.000273 0.290997 0.000228 0.000010
    60 -3.730654 -0.000177 -0.000206 0.217730 0.000192 -0.000002
    61 -2.474082 -0.000122 -0.000138 0.144724 0.000120 -0.000002
    62 -1.244854 -0.000058 -0.000072 0.072026 0.000060 -0.000001
    63 -8.702259 -0.000423 -0.000477 0.519421 0.000323 0.000126
    64 0.000002 0.000000 0.000000 -0.000001 0.000000 0.000002
    65 0.000000 3.000000 5.000000 0.000000 0.000000 -3.141592
    66 -0.000001 0.399658 -0.000003 0.000000 0.000000 0.000000
    67 -0.000001 -0.000002 0.000001 0.000000 0.000000 0.000001
    68 0.000006 0.000001 0.000001 1.221730 -0.087267 0.174533
    69 0.000000 -0.000004 -0.000001 0.000000 0.000000 0.000001
    70 0.000002 -0.000006 0.000000 0.000001 0.000000 0.000000
    71 -0.000008 0.000011 0.000000 0.000001 0.000000 0.000001
    72 0.000008 0.000003 0.000000 3.141592 -0.000001 -0.000001
    73 0.000004 0.000000 -0.000002 3.141591 0.000000 -0.000001
    74 -0.000004 -0.000006 -0.000008 3.141592 0.000000 0.000000
    75 0.000004 -0.000004 0.000002 3.141592 -0.000001 0.000000
    76 -0.000002 0.000002 0.000003 3.141592 0.000000 0.000000
    77 -0.000004 0.000006 0.000000 3.141592 0.000000 0.000000
    78 -0.000004 -0.099915 -0.099976 -3.141593 0.000000 -0.000001
    79 -0.099915 -0.099976 -0.099976 3.141592 0.000000 0.000000
    80 -0.099915 -0.099976 -0.099976 3.141593 0.000000 0.000000
    81 -0.099915 -0.119873 -0.099915 3.141593 -0.000001 0.000000
    82 -0.099976 -0.119873 -0.099976 3.141593 0.000000 0.000000
    83 -0.099976 -0.119873 -0.099854 3.141592 0.000000 0.000000
    84 0.000000 0.000000 0.000000 0.000000 0.000000 -3.141593
    85 0.000001 0.000001 0.000000 0.000000 0.000000 -3.141593
    86 0.000002 -0.000004 0.000000 -1.570797 0.087267 -3.054326
    87 0.000000 0.000006 -0.000001 -0.000001 0.000000 -3.141593
    88 -0.000002 0.000011 0.000000 -0.000001 0.000000 -3.141593
    89 0.000002 0.000006 0.000000 -0.000001 0.000000 -3.141593
    90 -0.000004 -0.000002 0.000006 -3.141592 0.000001 3.141593
    91 0.000000 -0.000008 -0.000007 -3.141592 0.000000 3.141593
    92 0.000001 0.000008 0.000002 -3.141592 0.000000 3.141593
    93 -0.000006 0.000002 0.000004 -3.141593 0.000000 3.141593
    94 0.000000 0.000002 -0.000002 -3.141592 0.000000 -3.141592
    95 0.000006 0.000004 0.000002 -3.141592 0.000000 -3.141593
    96 0.099915 0.199951 0.099915 -3.141592 0.000000 -3.141593
    97 0.099854 0.199951 0.099976 -3.141593 0.000000 3.141593
    98 0.099976 0.199585 0.099915 -3.141592 -0.000001 3.141593
    99 -0.000001 0.119812 0.099915 -3.141592 0.000000 -3.141593
    100 -0.000007 0.119873 0.099854 3.141593 0.000000 -3.141593
    101 -0.000003 0.119873 0.099976 -3.141593 0.000000 3.141593
    102 11.237077 -2.311770 -8.004139 -0.095406 0.106328 0.235358
    103 0.000000 0.000000 0.000000 0.000000 0.000000 0.000000
    104 4.527344 0.000001 3.687500 0.000000 0.000000 0.000000
    105 0.000002 0.000000 0.000000 -0.000037 -0.610853 -1.570558
    106 4.277344 -0.000003 0.849121 0.000000 0.000000 0.000000
    107 5.539063 0.000001 0.000000 0.000000 0.000000 0.000000
    108 3.455010 0.000004 2.018000 0.000010 0.000000 0.000007
    109 -2.088972 -3.614023 0.605963 0.000010 0.000000 0.000007
    110 -1.971998 -0.000010 -0.796001 0.000011 -0.204731 0.000006
    111 -1.971998 -0.000010 -0.796001 0.000011 -0.204731 0.000006
    112 -5.858999 0.072452 2.682749 0.000000 0.000000 0.000000
    113 12.507813 0.000000 3.259766 0.000000 0.000000 0.000000
    114 10.230598 0.000000 4.378193 0.000000 0.000000 0.000000
  time 8
    0 0.000000 3.000000 -21.796875 0.000000 0.000000 -1.570796
    1 0.000000 0.000000 0.000000 0.000000 0.000000 0.000000
    2 -0.423340 0.000000 22.046875 0.000000 0.000000 0.000000
    3 4.819546 8.146531 -11.437196 -1.168538 0.470901 -0.193062
    4 10.889977 -0.000888 0.000756 0.000135 -0.000014 -1.595420
    5 -0.000001 -0.000005 0.000000 -0.000003 0.000000 0.000002
    6 9.954186 0.000528 0.010973 -1.595662 -0.226526 1.207940
    7 3.500000 -1.089844 0.078369 0.000001 0.000000 0.000003
    8 0.003908 -0.000006 -0.035154 -1.589451 0.477457 0.546415
    9 1.460938 -0.057800 -0.014778 -0.016274 -0.089382 0.963684
    10 0.992676 -0.047180 0.019485 0.071933 0.073855 1.024964
    11 0.000002 -0.000006 0.000003 0.000000 0.000000 -0.000001
    12 3.429277 0.098089 0.037807 -1.807530 0.878657 0.441425
    13 1.797577 -0.105543 -0.000299 -0.055846 0.099387 1.332643
    14 1.072174 0.050829 0.000067 -0.026226 -0.015548 0.460999
    15 0.684158 1.193966 -0.284691 -1.516298 0.320831 -0.016797
    16 2.100106 0.070839 -0.000731 -0.991132 0.117322 0.955407
    17 1.131349 -0.000010 -0.000273 0.019396 -0.040881 1.034587
    18 0.728797 -0.007960 -0.000156 -0.073625 -0.094582 0.722358
    19 1.108739 0.631720 0.051816 -1.574885 0.167823 -0.030258
    20 2.061992 0.031651 0.050203 -0.838902 -0.185496 1.040251
    21 1.637954 -0.000071 -0.000628 0.007038 0.023318 1.269063
    22 0.875490 0.109039 -0.000362 -0.150696 0.012303 0.332956
    23 0.167480 -1.424805 0.160156 0.154849 0.576954 -0.280227
    24 2.292104 -0.000013 0.000021 -0.198562 -0.224315 0.072243
    25 1.256724 0.000051 0.019646 0.412364 -0.121875 -0.126972
    26 7.463686 0.000397 0.007249 -1.371458 -0.000995 0.000456
    27 6.226251 0.000326 0.007345 -1.132719 -0.000875 0.000277
    28 4.969282 0.000256 -0.000375 -0.893113 -0.000671 0.000157
    29 3.735749 0.000196 -0.000280 -0.668170 -0.000503 0.000049
    30 2.482685 0.000126 -0.000185 -0.445277 -0.000384 0.000001
    31 1.233529 0.000063 -0.000090 -0.223264 -0.000192 0.000002
    32 8.712839 0.000462 0.007151 -1.595556 -0.001031 0.000660
    33 0.000002 0.000004 0.000002 -0.000001 0.000000 0.000001
    34 -1.145480 -8.119186 -4.491672 0.476165 -1.175160 4.437394
    35 -10.886767 0.000870 0.000965 0.000189 0.000104 -2.090447
    36 -0.000002 -0.000012 -0.000010 -0.000002 0.000000 -0.000001
    37 -9.958829 -0.000484 -0.000551 0.584452 -0.031314 0.897835
    38 -3.500000 1.091797 -0.078491 0.000001 0.000000 -0.000004
    39 0.000011 0.167969 0.000005 -1.539907 0.222704 -0.138858
    40 -1.479675 -0.074189 0.000169 -0.012817 -0.011820 0.171905
    41 -1.033970 -0.090011 0.000485 -0.021107 -0.000488 0.194651
    42 0.000011 -0.000005 0.000005 0.000001 0.000000 0.000002
    43 -3.498480 -0.039482 0.035980 -2.365226 1.199865 -0.630022
    44 -1.796978 0.031304 -0.000272 0.005346 0.017460 0.944248
    45 -1.056587 0.042924 0.000060 0.001999 0.009296 0.927504
    46 -0.621656 -1.147101 0.272569 0.510051 -0.369431 -3.081486
    47 2.303504 -0.054812 -0.050995 -1.434338 0.675969 3.245961
    48 -1.134105 0.000032 -0.000530 0.010388 0.060902 0.791664
    49 -0.747944 0.031531 -0.000319 0.023194 0.013817 1.033499
    50 -1.096776 -0.631712 -0.052075 0.424537 -0.213978 -3.080704
    51 2.093194 -0.008270 0.030602 -1.472835 0.986912 -2.928126
    52 -1.649458 0.000034 -0.000234 -0.001702 0.006743 0.868887
    53 -0.871724 0.027465 -0.000154 -0.003187 0.007495 0.949150
    54 -0.299572 1.351964 -0.089971 0.594739 0.903847 -0.508224
    55 -2.328125 -0.003735 0.001053 -0.091008 0.054902 0.391017
    56 -1.163233 -0.000050 0.000118 0.234347 0.178938 0.761924
    57 -7.465215 -0.000360 -0.000409 0.501863 0.000311 0.000117
    58 -6.220368 -0.000299 -0.000346 0.414303 0.000275 0.000058
    59 -4.975510 -0.000237 -0.000273 0.326866 0.000251 0.000022
    60 -3.730654 -0.000177 -0.000206 0.244877 0.000204 -0.000002
    61 -2.477988 -0.000122 -0.000138 0.162342 0.000132 -0.000002
    62 -1.233135 -0.000058 -0.000072 0.080499 0.000072 -0.000001
    63 -8.706165 -0.000423 -0.000477 0.583513 0.000359 0.000161
    64 0.000002 0.000000 0.000000 -0.000001 0.000000 0.000002
    65 0.000000 3.000000 5.000000 0.000000 0.000000 -3.141592
    66 -0.000001 0.399658 -0.000003 0.000000 0.000000 0.000000
    67 -0.000001 -0.000002 0.000001 0.000000 0.000000 0.000001
    68 0.000006 0.000001 0.000001 1.221730 -0.087267 0.174533
    69 0.000000 -0.000004 -0.000001 0.000000 0.000000 0.000001
    70 0.000002 -0.000006 0.000000 0.000001 0.000000 0.000000
    71 -0.000008 0.000011 0.000000 0.000001 0.000000 0.000001
    72 0.000008 0.000003 0.000000 3.141592 -0.000001 -0.000001
    73 0.000004 0.000000 -0.000002 3.141591 0.000000 -0.000001
    74 -0.000004 -0.000006 -0.000008 3.141592 0.000000 0.000000
    75 0.000004 -0.000004 0.000002 3.141592 -0.000001 0.000000
    76 -0.000002 0.000002 0.000003 3.141592 0.000000 0.000000
    77 -0.000004 0.000006 0.000000 3.141592 0.000000 0.000000
    78 -0.000004 -0.099915 -0.099976 -3.141593 0.000000 -0.000001
    79 -0.099915 -0.099976 -0.099976 3.141592 0.000000 0.000000
    80 -0.099915 -0.099976 -0.099976 3.141593 0.000000 0.000000
    81 -0.099915 -0.119873 -0.099915 3.141593 -0.000001 0.000000
    82 -0.099976 -0.119873 -0.099976 3.141593 0.000000 0.000000
    83 -0.099976 -0.119873 -0.099854 3.141592 0.000000 0.000000
    84 0.000000 0.000000 0.000000 0.000000 0.000000 -3.141593
    85 0.000001 0.000001 0.000000 0.000000 0.000000 -3.141593
    86 0.000002 -0.000004 0.000000 -1.570797 0.087267 -3.054326
    87 0.000000 0.000006 -0.000001 -0.000001 0.000000 -3.141593
    88 -0.000002 0.000011 0.000000 -0.000001 0.000000 -3.141593
    89 0.000002 0.000006 0.000000 -0.000001 0.000000 -3.141593
    90 -0.000004 -0.000002 0.000006 -3.141592 0.000001 3.141593
    91 0.000000 -0.000008 -0.000007 -3.141592 0.000000 3.141593
    92 0.000001 0.000008 0.000002 -3.141592 0.000000 3.141593
    93 -0.000006 0.000002 0.000004 -3.141593 0.000000 3.141593
    94 0.000000 0.000002 -0.000002 -3.141592 0.000000 -3.141592
    95 0.000006 0.000004 0.000002 -3.141592 0.000000 -3.141593
    96 0.099915 0.199951 0.099915 -3.141592 0.000000 -3.141593
    97 0.099854 0.199951 0.099976 -3.141593 0.000000 3.141593
    98 0.099976 0.199585 0.099915 -3.141592 -0.000001 3.141593
    99 -0.000001 0.119812 0.099915 -3.141592 0.000000 -3.141593
    100 -0.000007 0.119873 0.099854 3.141593 0.000000 -3.141593
    101 -0.000003 0.119873 0.099976 -3.141593 0.000000 3.141593
    102 10.987070 -1.643781 -8.207270 -0.114833 0.130636 0.293970
    103 0.000000 0.000000 0.000000 0.000000 0.000000 0.000000
    104 4.527344 0.000001 3.687500 0.000000 0.000000 0.000000
    105 0.000002 0.000000 0.000000 -0.000037 -0.610853 -1.570558
    106 4.277344 -0.000003 0.849121 0.000000 0.000000 0.000000
    107 5.539063 0.000001 0.000000 0.000000 0.000000 0.000000
    108 3.455010 0.000004 2.018000 0.000010 0.000000 0.000007
    109 -2.088972 -3.614023 0.605963 0.000010 0.000000 0.000007
    110 -1.971998 -0.000010 -0.796001 0.000011 -0.204731 0.000006
    111 -1.971998 -0.000010 -0.796001 0.000011 -0.204731 0.000006
    112 -5.858999 0.072452 2.682749 0.000000 0.000000 0.000000
    113 12.507813 0.000000 3.259766 0.000000 0.000000 0.000000
    114 10.230598 0.000000 4.378193 0.000000 0.000000 0.000000
  time 9
    0 0.000000 3.000000 -21.796875 0.000000 0.000000 -1.570796
    1 0.000000 0.000000 0.000000 0.000000 0.000000 0.000000
    2 -0.423340 0.000000 22.046875 0.000000 0.000000 0.000000
    3 4.819546 8.146531 -11.437196 -1.191776 0.536639 -0.140400
    4 10.901696 -0.000888 0.000756 0.000147 0.000034 -1.712236
    5 -0.000001 -0.000005 0.000000 -0.000003 0.000000 0.000002
    6 9.950280 0.000528 0.007067 -1.590208 -0.241646 1.267544
    7 3.500000 -1.089844 0.078369 0.000001 0.000000 0.000003
    8 0.000002 -0.003912 -0.035154 -1.589512 0.477457 0.546484
    9 1.460938 -0.057800 -0.014778 -0.016274 -0.089382 0.963684
    10 0.992676 -0.047180 0.019485 0.071933 0.073855 1.024964
    11 0.000002 -0.000006 0.000003 0.000000 0.000000 -0.000001
    12 3.433184 0.098089 0.041713 -1.807530 0.878618 0.441425
    13 1.797577 -0.105543 -0.000299 -0.055834 0.099363 1.332643
    14 1.076081 0.054735 0.000067 -0.026226 -0.015548 0.460999
    15 0.688065 1.201779 -0.284691 -1.516298 0.320787 -0.016811
    16 2.104013 0.074746 -0.000731 -0.991132 0.117322 0.955407
    17 1.131349 -0.000010 -0.000273 0.019396 -0.040905 1.034587
    18 0.728797 -0.004053 -0.000156 -0.073589 -0.094582 0.722358
    19 1.108739 0.635626 0.051816 -1.575425 0.167787 -0.030330
    20 2.061992 0.035558 0.050203 -0.838902 -0.185496 1.040214
    21 1.626235 -0.000071 -0.000628 0.007038 0.023306 1.269063
    22 0.875490 0.105132 -0.004269 -0.150696 0.012303 0.332900
    23 0.167480 -1.424805 0.160156 0.154849 0.576954 -0.280227
    24 2.292104 -0.000013 0.000021 -0.198562 -0.224315 0.072243
    25 1.256724 0.000051 0.011834 0.412364 -0.121875 -0.126946
    26 7.467592 0.000397 0.003342 -1.367899 -0.000983 0.000409
    27 6.214532 0.000326 0.003438 -1.127955 -0.000863 0.000265
    28 4.973189 0.000256 -0.000375 -0.890340 -0.000659 0.000145
    29 3.727936 0.000196 -0.000280 -0.667538 -0.000491 0.000049
    30 2.486591 0.000126 -0.000185 -0.444891 -0.000372 0.000001
    31 1.241342 0.000063 -0.000090 -0.221598 -0.000192 0.000002
    32 8.712839 0.000462 0.007151 -1.589975 -0.001079 0.000636
    33 0.000002 0.000004 0.000002 -0.000001 0.000000 0.000001
    34 -1.145480 -8.119186 -4.491672 0.429730 -1.139009 4.508534
    35 -10.886767 0.000870 0.000965 0.000177 0.000104 -2.074286
    36 -0.000002 -0.000012 -0.000010 -0.000002 0.000000 -0.000001
    37 -9.951016 -0.000484 -0.000551 0.647685 -0.022092 0.908012
    38 -3.500000 1.091797 -0.078491 0.000001 0.000000 -0.000004
    39 0.003918 0.167969 0.000005 -1.539907 0.222704 -0.138858
    40 -1.475769 -0.074189 0.000169 -0.012829 -0.011796 0.171917
    41 -1.033970 -0.090011 0.000485 -0.021107 -0.000488 0.194675
    42 0.000011 -0.000005 0.000005 0.000001 0.000000 0.000002
    43 -3.498480 -0.047294 0.035980 -2.365268 1.199845 -0.630022
    44 -1.800885 0.035211 -0.000272 0.005346 0.017460 0.944308
    45 -1.056587 0.046831 0.000060 0.001999 0.009284 0.927504
    46 -0.621656 -1.143194 0.272569 0.510051 -0.369431 -3.081486
    47 2.307411 -0.058719 -0.031463 -1.434374 0.675921 3.245865
    48 -1.134105 0.000032 -0.000530 0.010388 0.060878 0.791676
    49 -0.744038 0.035438 -0.000319 0.023194 0.013817 1.033499
    50 -1.096776 -0.631712 -0.052075 0.424501 -0.213978 -3.080704
    51 2.093194 -0.012176 0.030602 -1.472835 0.986912 -2.928138
    52 -1.649458 0.000034 -0.000234 -0.001702 0.006743 0.868863
    53 -0.871724 0.027465 -0.000154 -0.003187 0.007495 0.949150
    54 -0.299572 1.348057 -0.089971 0.594739 0.903847 -0.508224
    55 -2.328125 -0.003735 0.001053 -0.091008 0.054902 0.391017
    56 -1.163233 0.003857 0.000118 0.234347 0.178914 0.761924
    57 -7.461309 -0.000360 -0.000409 0.556911 0.000347 0.000141
    58 -6.216462 -0.000299 -0.000346 0.459806 0.000287 0.000081
    59 -4.971604 -0.000237 -0.000273 0.362717 0.000263 0.000034
    60 -3.722841 -0.000177 -0.000206 0.272010 0.000216 0.000010
    61 -2.474082 -0.000122 -0.000138 0.179995 0.000156 -0.000002
    62 -1.233135 -0.000058 -0.000072 0.088972 0.000072 -0.000001
    63 -8.698353 -0.000423 -0.000477 0.647440 0.000407 0.000221
    64 0.000002 0.000000 0.000000 -0.000001 0.000000 0.000002
    65 0.000000 3.000000 5.000000 0.000000 0.000000 -3.141592
    66 -0.000001 0.399658 -0.000003 0.000000 0.000000 0.000000
    67 -0.000001 -0.000002 0.000001 0.000000 0.000000 0.000001
    68 0.000006 0.000001 0.000001 1.221730 -0.087267 0.174533
    69 0.000000 -0.000004 -0.000001 0.000000 0.000000 0.000001
    70 0.000002 -0.000006 0.000000 0.000001 0.000000 0.000000
    71 -0.000008 0.000011 0.000000 0.000001 0.000000 0.000001
    72 0.000008 0.000003 0.000000 3.141592 -0.000001 -0.000001
    73 0.000004 0.000000 -0.000002 3.141591 0.000000 -0.000001
    74 -0.000004 -0.000006 -0.000008 3.141592 0.000000 0.000000
    75 0.000004 -0.000004 0.000002 3.141592 -0.000001 0.000000
    76 -0.000002 0.000002 0.000003 3.141592 0.000000 0.000000
    77 -0.000004 0.000006 0.000000 3.141592 0.000000 0.000000
    78 -0.000004 -0.099915 -0.099976 -3.141593 0.000000 -0.000001
    79 -0.099915 -0.099976 -0.099976 3.141592 0.000000 0.000000
    80 -0.099915 -0.099976 -0.099976 3.141593 0.000000 0.000000
    81 -0.099915 -0.119873 -0.099915 3.141593 -0.000001 0.000000
    82 -0.099976 -0.119873 -0.099976 3.141593 0.000000 0.000000
    83 -0.099976 -0.119873 -0.099854 3.141592 0.000000 0.000000
    84 0.000000 0.000000 0.000000 0.000000 0.000000 -3.141593
    85 0.000001 0.000001 0.000000 0.000000 0.000000 -3.141593
    86 0.000002 -0.000004 0.000000 -1.570797 0.087267 -3.054326
    87 0.000000 0.000006 -0.000001 -0.000001 0.000000 -3.141593
    88 -0.000002 0.000011 0.000000 -0.000001 0.000000 -3.141593
    89 0.000002 0.000006 0.000000 -0.000001 0.000000 -3.141593
    90 -0.000004 -0.000002 0.000006 -3.141592 0.000001 3.141593
    91 0.000000 -0.000008 -0.000007 -3.141592 0.000000 3.141593
    92 0.000001 0.000008 0.000002 -3.141592 0.000000 3.141593
    93 -0.000006 0.000002 0.000004 -3.141593 0.000000 3.141593
    94 0.000000 0.000002 -0.000002 -3.141592 0.000000 -3.141592
    95 0.000006 0.000004 0.000002 -3.141592 0.000000 -3.141593
    96 0.099915 0.199951 0.099915 -3.141592 0.000000 -3.141593
    97 0.099854 0.199951 0.099976 -3.141593 0.000000 3.141593
    98 0.099976 0.199585 0.099915 -3.141592 -0.000001 3.141593
    99 -0.000001 0.119812 0.099915 -3.141592 0.000000 -3.141593
    100 -0.000007 0.119873 0.099854 3.141593 0.000000 -3.141593
    101 -0.000003 0.119873 0.099976 -3.141593 0.000000 3.141593
    102 10.729249 -0.995324 -8.359619 -0.132819 0.149797 0.349916
    103 0.000000 0.000000 0.000000 0.000000 0.000000 0.000000
    104 4.527344 0.000001 3.687500 0.000000 0.000000 0.000000
    105 0.000002 0.000000 0.000000 -0.000037 -0.610853 -1.570558
    106 4.277344 -0.000003 0.849121 0.000000 0.000000 0.000000
    107 5.539063 0.000001 0.000000 0.000000 0.000000 0.000000
    108 3.455010 0.000004 2.018000 0.000010 0.000000 0.000007
    109 -2.088972 -3.614023 0.605963 0.000010 0.000000 0.000007
    110 -1.971998 -0.000010 -0.796001 0.000011 -0.204731 0.000006
    111 -1.971998 -0.000010 -0.796001 0.000011 -0.204731 0.000006
    112 -5.858999 0.072452 2.682749 0.000000 0.000000 0.000000
    113 12.507813 0.000000 3.259766 0.000000 0.000000 0.000000
    114 10.230598 0.000000 4.378193 0.000000 0.000000 0.000000
  time 10
    0 0.000000 3.000000 -21.796875 0.000000 0.000000 -1.570796
    1 0.000000 0.000000 0.000000 0.000000 0.000000 0.000000
    2 -0.423340 0.000000 22.046875 0.000000 0.000000 0.000000
    3 4.819546 8.146531 -11.437196 -1.221832 0.589104 -0.097974
    4 10.889977 -0.000888 0.000756 0.000135 0.000070 -1.805933
    5 -0.000001 -0.000005 0.000000 -0.000003 0.000000 0.000002
    6 9.950280 0.000528 -0.000746 -1.576855 -0.251338 1.312971
    7 3.500000 -1.089844 0.078369 0.000001 0.000000 0.000003
    8 0.003908 -0.003912 -0.035154 -1.589512 0.477457 0.546507
    9 1.460938 -0.057800 -0.014778 -0.016274 -0.089382 0.963684
    10 0.992676 -0.047180 0.019485 0.071933 0.073855 1.024964
    11 0.000002 -0.000006 0.000003 0.000000 0.000000 -0.000001
    12 3.429277 0.098089 0.037807 -1.807530 0.878618 0.441473
    13 1.797577 -0.109449 -0.000299 -0.055834 0.099363 1.332643
    14 1.068268 0.054735 0.000067 -0.026226 -0.015548 0.461033
    15 0.684158 1.205685 -0.284691 -1.516298 0.320787 -0.016825
    16 2.100106 0.074746 -0.000731 -0.991132 0.117322 0.955407
    17 1.123536 -0.000010 -0.000273 0.019396 -0.040917 1.034587
    18 0.728797 -0.007960 -0.000156 -0.073601 -0.094594 0.722358
    19 1.104833 0.635626 0.051816 -1.575904 0.167787 -0.030378
    20 2.061992 0.031651 0.050203 -0.838902 -0.185496 1.040251
    21 1.630142 -0.007883 -0.000628 0.007026 0.023306 1.269063
    22 0.879396 0.109039 -0.000362 -0.150696 0.012303 0.333012
    23 0.167480 -1.424805 0.160156 0.154849 0.576954 -0.280227
    24 2.292104 -0.000013 0.000021 -0.198562 -0.224315 0.072243
    25 1.256724 0.000051 0.023553 0.412364 -0.121875 -0.126946
    26 7.463686 0.000397 -0.000564 -1.356198 -0.000995 0.000432
    27 6.214532 0.000326 -0.000468 -1.117714 -0.000827 0.000265
    28 4.965376 0.000256 -0.000375 -0.881670 -0.000635 0.000145
    29 3.720124 0.000196 -0.000280 -0.661376 -0.000479 0.000049
    30 2.482685 0.000126 -0.000185 -0.440643 -0.000372 0.000001
    31 1.229623 0.000063 -0.000090 -0.219932 -0.000192 0.000002
    32 8.705027 0.000462 0.003245 -1.577496 -0.001043 0.000636
    33 0.000002 0.000004 0.000002 -0.000001 0.000000 0.000001
    34 -1.145480 -8.119186 -4.491672 0.404786 -1.103545 4.555055
    35 -10.890674 0.000870 0.000965 0.000165 0.000116 -2.057848
    36 -0.000002 -0.000012 -0.000010 -0.000002 0.000000 -0.000001
    37 -9.958829 -0.000484 -0.000551 0.705638 -0.016706 0.917733
    38 -3.500000 1.091797 -0.078491 0.000001 0.000000 -0.000004
    39 0.007824 0.171875 0.000005 -1.539907 0.222704 -0.138858
    40 -1.479675 -0.074189 0.000169 -0.012817 -0.011772 0.171917
    41 -1.033970 -0.086104 0.000485 -0.021107 -0.000488 0.194663
    42 0.000011 -0.000005 0.000005 0.000001 0.000000 0.000002
    43 -3.498480 -0.039482 0.035980 -2.365268 1.199865 -0.630022
    44 -1.800885 0.031304 -0.000272 0.005346 0.017460 0.944368
    45 -1.056587 0.050737 0.000060 0.001999 0.009284 0.927504
    46 -0.621656 -1.143194 0.272569 0.510051 -0.369431 -3.081486
    47 2.303504 -0.054812 -0.043182 -1.434410 0.675873 3.245781
    48 -1.130199 0.000032 -0.000530 0.010388 0.060878 0.791652
    49 -0.751851 0.031531 -0.000319 0.023194 0.013829 1.033499
    50 -1.088963 -0.631712 -0.052075 0.424513 -0.213978 -3.080716
    51 2.089287 -0.012176 0.034509 -1.472667 0.986775 -2.927778
    52 -1.649458 0.000034 -0.000234 -0.001702 0.006743 0.868887
    53 -0.867818 0.023558 -0.000154 -0.003187 0.007495 0.949150
    54 -0.299572 1.348057 -0.097784 0.594739 0.903847 -0.508224
    55 -2.328125 -0.003735 0.001053 -0.091008 0.054902 0.391017
    56 -1.163233 0.003857 0.000118 0.234359 0.178926 0.761924
    57 -7.457403 -0.000360 -0.000409 0.606685 0.000383 0.000189
    58 -6.216462 -0.000299 -0.000346 0.500698 0.000311 0.000117
    59 -4.971604 -0.000237 -0.000273 0.395078 0.000275 0.000058
    60 -3.730654 -0.000177 -0.000206 0.294970 0.000240 0.000022
    61 -2.481894 -0.000122 -0.000138 0.197504 0.000168 -0.000002
    62 -1.225322 -0.000058 -0.000072 0.097397 0.000072 -0.000001
    63 -8.702259 -0.000423 -0.000477 0.705401 0.000443 0.000293
    64 0.000002 0.000000 0.000000 -0.000001 0.000000 0.000002
    65 0.000000 3.000000 5.000000 0.000000 0.000000 -3.141592
    66 -0.000001 0.399658 -0.000003 0.000000 0.000000 0.000000
    67 -0.000001 -0.000002 0.000001 0.000000 0.000000 0.000001
    68 0.000006 0.000001 0.000001 1.221730 -0.087267 0.174533
    69 0.000000 -0.000004 -0.000001 0.000000 0.000000 0.000001
    70 0.000002 -0.000006 0.000000 0.000001 0.000000 0.000000
    71 -0.000008 0.000011 0.000000 0.000001 0.000000 0.000001
    72 0.000008 0.000003 0.000000 3.141592 -0.000001 -0.000001
    73 0.000004 0.000000 -0.000002 3.141591 0.000000 -0.000001
    74 -0.000004 -0.000006 -0.000008 3.141592 0.000000 0.000000
    75 0.000004 -0.000004 0.000002 3.141592 -0.000001 0.000000
    76 -0.000002 0.000002 0.000003 3.141592 0.000000 0.000000
    77 -0.000004 0.000006 0.000000 3.141592 0.000000 0.000000
    78 -0.000004 -0.099915 -0.099976 -3.141593 0.000000 -0.000001
    79 -0.099915 -0.099976 -0.099976 3.141592 0.000000 0.000000
    80 -0.099915 -0.099976 -0.099976 3.141593 0.000000 0.000000
    81 -0.099915 -0.119873 -0.099915 3.141593 -0.000001 0.000000
    82 -0.099976 -0.119873 -0.099976 3.141593 0.000000 0.000000
    83 -0.099976 -0.119873 -0.099854 3.141592 0.000000 0.000000
    84 0.000000 0.000000 0.000000 0.000000 0.000000 -3.141593
    85 0.000001 0.000001 0.000000 0.000000 0.000000 -3.141593
    86 0.000002 -0.000004 0.000000 -1.570797 0.087267 -3.054326
    87 0.000000 0.000006 -0.000001 -0.000001 0.000000 -3.141593
    88 -0.000002 0.000011 0.000000 -0.000001 0.000000 -3.141593
    89 0.000002 0.000006 0.000000 -0.000001 0.000000 -3.141593
    90 -0.000004 -0.000002 0.000006 -3.141592 0.000001 3.141593
    91 0.000000 -0.000008 -0.000007 -3.141592 0.000000 3.141593
    92 0.000001 0.000008 0.000002 -3.141592 0.000000 3.141593
    93 -0.000006 0.000002 0.000004 -3.141593 0.000000 3.141593
    94 0.000000 0.000002 -0.000002 -3.141592 0.000000 -3.141592
    95 0.000006 0.000004 0.000002 -3.141592 0.000000 -3.141593
    96 0.099915 0.199951 0.099915 -3.141592 0.000000 -3.141593
    97 0.099854 0.199951 0.099976 -3.141593 0.000000 3.141593
    98 0.099976 0.199585 0.099915 -3.141592 -0.000001 3.141593
    99 -0.000001 0.119812 0.099915 -3.141592 0.000000 -3.141593
    100 -0.000007 0.119873 0.099854 3.141593 0.000000 -3.141593
    101 -0.000003 0.119873 0.099976 -3.141593 0.000000 3.141593
    102 10.533931 -0.385930 -8.449465 -0.149652 0.164021 0.399417
    103 0.000000 0.000000 0.000000 0.000000 0.000000 0.000000
    104 4.527344 0.000001 3.687500 0.000000 0.000000 0.000000
    105 0.000002 0.000000 0.000000 -0.000037 -0.610853 -1.570558
    106 4.277344 -0.000003 0.849121 0.000000 0.000000 0.000000
    107 5.539063 0.000001 0.000000 0.000000 0.000000 0.000000
    108 3.455010 0.000004 2.018000 0.000010 0.000000 0.000007
    109 -2.088972 -3.614023 0.605963 0.000010 0.000000 0.000007
    110 -1.971998 -0.000010 -0.796001 0.000011 -0.204731 0.000006
    111 -1.971998 -0.000010 -0.796001 0.000011 -0.204731 0.000006
    112 -5.858999 0.072452 2.682749 0.000000 0.000000 0.000000
    113 12.507813 0.000000 3.259766 0.000000 0.000000 0.000000
    114 10.230598 0.000000 4.378193 0.000000 0.000000 0.000000
  time 11
    0 0.000000 3.000000 -21.796875 0.000000 0.000000 -1.570796
    1 0.000000 0.000000 0.000000 0.000000 0.000000 0.000000
    2 -0.423340 0.000000 22.046875 0.000000 0.000000 0.000000
    3 4.819546 8.146531 -11.437196 -1.256872 0.622902 -0.068063
    4 10.889977 -0.000888 0.000756 0.000171 0.000070 -1.873613
    5 -0.000001 -0.000005 0.000000 -0.000003 0.000000 0.000002
    6 9.946373 0.000528 0.007067 -1.559239 -0.254866 1.343641
    7 3.500000 -1.089844 0.078369 0.000001 0.000000 0.000003
    8 0.007815 -0.000006 -0.035154 -1.589451 0.477457 0.546393
    9 1.460938 -0.057800 -0.014778 -0.016274 -0.089382 0.963684
    10 0.992676 -0.047180 0.019485 0.071933 0.073855 1.024964
    11 0.000002 -0.000006 0.000003 0.000000 0.000000 -0.000001
    12 3.429277 0.101995 0.037807 -1.807530 0.878715 0.441425
    13 1.797577 -0.105543 -0.000299 -0.055834 0.099339 1.332643
    14 1.072174 0.054735 0.000067 -0.026214 -0.015548 0.460999
    15 0.691971 1.201779 -0.284691 -1.516298 0.320787 -0.016825
    16 2.100106 0.078652 -0.000731 -0.991132 0.117322 0.955407
    17 1.123536 -0.000010 -0.000273 0.019396 -0.040905 1.034587
    18 0.728797 -0.004053 -0.000156 -0.073649 -0.094582 0.722358
    19 1.108739 0.631720 0.051816 -1.576311 0.167787 -0.030462
    20 2.058086 0.031651 0.058016 -0.838902 -0.185496 1.040251
    21 1.622329 -0.000071 -0.000628 0.007026 0.023306 1.269063
    22 0.879396 0.105132 -0.000362 -0.150696 0.012303 0.332900
    23 0.167480 -1.424805 0.160156 0.154849 0.576954 -0.280227
    24 2.292104 -0.000013 0.000021 -0.198562 -0.224315 0.072255
    25 1.256724 0.000051 0.019646 0.412364 -0.121875 -0.126946
    26 7.459779 0.000397 0.003342 -1.341585 -0.000971 0.000421
    27 6.210625 0.000326 -0.000468 -1.107429 -0.000851 0.000253
    28 4.965376 0.000256 -0.000375 -0.873000 -0.000623 0.000157
    29 3.720124 0.000196 -0.000280 -0.655161 -0.000479 0.000037
    30 2.470966 0.000126 -0.000185 -0.436394 -0.000360 0.000001
    31 1.237436 0.000063 -0.000090 -0.218327 -0.000180 0.000002
    32 8.705027 0.000462 0.007151 -1.559436 -0.001019 0.000636
    33 0.000002 0.000004 0.000002 -0.000001 0.000000 0.000001
    34 -1.145480 -8.119186 -4.491672 0.394885 -1.068730 4.583671
    35 -10.890674 0.000870 0.000965 0.000165 0.000128 -2.041134
    36 -0.000002 -0.000012 -0.000010 -0.000002 0.000000 -0.000001
    37 -9.954923 -0.000484 -0.000551 0.756769 -0.015467 0.926296
    38 -3.500000 1.091797 -0.078491 0.000001 0.000000 -0.000004
    39 0.007824 0.171875 0.000005 -1.539895 0.222704 -0.138834
    40 -1.479675 -0.074189 0.000169 -0.012829 -0.011832 0.171905
    41 -1.033970 -0.086104 0.000485 -0.021107 -0.000488 0.194651
    42 0.000011 -0.000005 0.000005 0.000001 0.000000 0.000002
    43 -3.494574 -0.047294 0.039886 -2.365247 1.199865 -0.630022
    44 -1.796978 0.027398 -0.000272 0.005346 0.017460 0.944512
    45 -1.060494 0.046831 0.000060 0.002011 0.009284 0.927504
    46 -0.621656 -1.147101 0.272569 0.510051 -0.369419 -3.081486
    47 2.299598 -0.054812 -0.039275 -1.434458 0.675813 3.245649
    48 -1.130199 0.000032 -0.000530 0.010388 0.060878 0.791700
    49 -0.747944 0.031531 -0.000319 0.023194 0.013829 1.033499
    50 -1.092869 -0.631712 -0.052075 0.424537 -0.213978 -3.080704
    51 2.089287 -0.008270 0.034509 -1.472535 0.986653 -2.927442
    52 -1.649458 0.000034 -0.000234 -0.001702 0.006743 0.868887
    53 -0.867818 0.027465 -0.000154 -0.003187 0.007495 0.949150
    54 -0.299572 1.344151 -0.089971 0.594739 0.903847 -0.508224
    55 -2.328125 -0.003735 0.001053 -0.091008 0.054902 0.391017
    56 -1.163233 -0.000050 0.000118 0.234347 0.178938 0.761924
    57 -7.457403 -0.000360 -0.000409 0.650932 0.000419 0.000261
    58 -6.216462 -0.000299 -0.000346 0.537212 0.000347 0.000177
    59 -4.967697 -0.000237 -0.000273 0.423766 0.000287 0.000069
    60 -3.730654 -0.000177 -0.000206 0.317916 0.000251 0.000034
    61 -2.474082 -0.000122 -0.000138 0.211994 0.000168 -0.000002
    62 -1.233135 -0.000058 -0.000072 0.105858 0.000072 -0.000001
    63 -8.702259 -0.000423 -0.000477 0.756543 0.000479 0.000341
    64 0.000002 0.000000 0.000000 -0.000001 0.000000 0.000002
    65 0.000000 3.000000 5.000000 0.000000 0.000000 -3.141592
    66 -0.000001 0.399658 -0.000003 0.000000 0.000000 0.000000
    67 -0.000001 -0.000002 0.000001 0.000000 0.000000 0.000001
    68 0.000006 0.000001 0.000001 1.221730 -0.087267 0.174533
    69 0.000000 -0.000004 -0.000001 0.000000 0.000000 0.000001
    70 0.000002 -0.000006 0.000000 0.000001 0.000000 0.000000
    71 -0.000008 0.000011 0.000000 0.000001 0.000000 0.000001
    72 0.000008 0.000003 0.000000 3.141592 -0.000001 -0.000001
    73 0.000004 0.000000 -0.000002 3.141591 0.000000 -0.000001
    74 -0.000004 -0.000006 -0.000008 3.141592 0.000000 0.000000
    75 0.000004 -0.000004 0.000002 3.141592 -0.000001 0.000000
    76 -0.000002 0.000002 0.000003 3.141592 0.000000 0.000000
    77 -0.000004 0.000006 0.000000 3.141592 0.000000 0.000000
    78 -0.000004 -0.099915 -0.099976 -3.141593 0.000000 -0.000001
    79 -0.099915 -0.099976 -0.099976 3.141592 0.000000 0.000000
    80 -0.099915 -0.099976 -0.099976 3.141593 0.000000 0.000000
    81 -0.099915 -0.119873 -0.099915 3.141593 -0.000001 0.000000
    82 -0.099976 -0.119873 -0.099976 3.141593 0.000000 0.000000
    83 -0.099976 -0.119873 -0.099854 3.141592 0.000000 0.000000
    84 0.000000 0.000000 0.000000 0.000000 0.000000 -3.141593
    85 0.000001 0.000001 0.000000 0.000000 0.000000 -3.141593
    86 0.000002 -0.000004 0.000000 -1.570797 0.087267 -3.054326
    87 0.000000 0.000006 -0.000001 -0.000001 0.000000 -3.141593
    88 -0.000002 0.000011 0.000000 -0.000001 0.000000 -3.141593
    89 0.000002 0.000006 0.000000 -0.000001 0.000000 -3.141593
    90 -0.000004 -0.000002 0.000006 -3.141592 0.000001 3.141593
    91 0.000000 -0.000008 -0.000007 -3.141592 0.000000 3.141593
    92 0.000001 0.000008 0.000002 -3.141592 0.000000 3.141593
    93 -0.000006 0.000002 0.000004 -3.141593 0.000000 3.141593
    94 0.000000 0.000002 -0.000002 -3.141592 0.000000 -3.141592
    95 0.000006 0.000004 0.000002 -3.141592 0.000000 -3.141593
    96 0.099915 0.199951 0.099915 -3.141592 0.000000 -3.141593
    97 0.099854 0.199951 0.099976 -3.141593 0.000000 3.141593
    98 0.099976 0.199585 0.099915 -3.141592 -0.000001 3.141593
    99 -0.000001 0.119812 0.099915 -3.141592 0.000000 -3.141593
    100 -0.000007 0.119873 0.099854 3.141593 0.000000 -3.141593
    101 -0.000003 0.119873 0.099976 -3.141593 0.000000 3.141593
    102 10.389395 0.125804 -8.449465 -0.165966 0.172491 0.439335
    103 0.000000 0.000000 0.000000 0.000000 0.000000 0.000000
    104 4.527344 0.000001 3.687500 0.000000 0.000000 0.000000
    105 0.000002 0.000000 0.000000 -0.000037 -0.610853 -1.570558
    106 4.277344 -0.000003 0.849121 0.000000 0.000000 0.000000
    107 5.539063 0.000001 0.000000 0.000000 0.000000 0.000000
    108 3.455010 0.000004 2.018000 0.000010 0.000000 0.000007
    109 -2.088972 -3.614023 0.605963 0.000010 0.000000 0.000007
    110 -1.971998 -0.000010 -0.796001 0.000011 -0.204731 0.000006
    111 -1.971998 -0.000010 -0.796001 0.000011 -0.204731 0.000006
    112 -5.858999 0.072452 2.682749 0.000000 0.000000 0.000000
    113 12.507813 0.000000 3.259766 0.000000 0.000000 0.000000
    114 10.230598 0.000000 4.378193 0.000000 0.000000 0.000000
end
