version 1
nodes
  0 "tag_view" -1
  1 "tag_ads" 0
  2 "tag_torso" 1
  3 "j_shoulder_le" 2
  4 "j_elbow_le" 3
  5 "j_elbow_bulge_le" 4
  6 "j_wrist_le" 4
  7 "j_indexbase_le" 6
  8 "j_index_le_1" 7
  9 "j_index_le_2" 8
  10 "j_index_le_3" 9
  11 "j_indexretract_le" 7
  12 "j_mid_le_1" 6
  13 "j_mid_le_2" 12
  14 "j_mid_le_3" 13
  15 "j_pinkybase_le" 6
  16 "j_pinky_le_1" 15
  17 "j_pinky_le_2" 16
  18 "j_pinky_le_3" 17
  19 "j_ringbase_le" 6
  20 "j_ring_le_1" 19
  21 "j_ring_le_2" 20
  22 "j_ring_le_3" 21
  23 "j_thumb_le_1" 6
  24 "j_thumb_le_2" 23
  25 "j_thumb_le_3" 24
  26 "j_wristtwist1_le" 4
  27 "j_wristtwist2_le" 4
  28 "j_wristtwist3_le" 4
  29 "j_wristtwist4_le" 4
  30 "j_wristtwist5_le" 4
  31 "j_wristtwist6_le" 4
  32 "j_wristtwist_le" 4
  33 "j_wristcrease_le" 32
  34 "j_shoulder_ri" 2
  35 "j_elbow_ri" 34
  36 "j_elbow_bulge_ri" 35
  37 "j_wrist_ri" 35
  38 "j_indexbase_ri" 37
  39 "j_index_ri_1" 38
  40 "j_index_ri_2" 39
  41 "j_index_ri_3" 40
  42 "j_indexretract_ri" 38
  43 "j_mid_ri_1" 37
  44 "j_mid_ri_2" 43
  45 "j_mid_ri_3" 44
  46 "j_pinkybase_ri" 37
  47 "j_pinky_ri_1" 46
  48 "j_pinky_ri_2" 47
  49 "j_pinky_ri_3" 48
  50 "j_ringbase_ri" 37
  51 "j_ring_ri_1" 50
  52 "j_ring_ri_2" 51
  53 "j_ring_ri_3" 52
  54 "j_thumb_ri_1" 37
  55 "j_thumb_ri_2" 54
  56 "j_thumb_ri_3" 55
  57 "j_wristtwist1_ri" 35
  58 "j_wristtwist2_ri" 35
  59 "j_wristtwist3_ri" 35
  60 "j_wristtwist4_ri" 35
  61 "j_wristtwist5_ri" 35
  62 "j_wristtwist6_ri" 35
  63 "j_wristtwist_ri" 35
  64 "j_wristcrease2_ri" 63
  65 "T7:Joints" -1
  66 "ValveBiped.Bip01_L_UpperArm" 3
  67 "ValveBiped.Bip01_L_Forearm" 4
  68 "ValveBiped.Bip01_L_Hand" 6
  69 "ValveBiped.Bip01_L_Finger0" 23
  70 "ValveBiped.Bip01_L_Finger01" 24
  71 "ValveBiped.Bip01_L_Finger02" 25
  72 "ValveBiped.Bip01_L_Finger1" 8
  73 "ValveBiped.Bip01_L_Finger11" 9
  74 "ValveBiped.Bip01_L_Finger12" 10
  75 "ValveBiped.Bip01_L_Finger2" 12
  76 "ValveBiped.Bip01_L_Finger21" 13
  77 "ValveBiped.Bip01_L_Finger22" 14
  78 "ValveBiped.Bip01_L_Finger3" 20
  79 "ValveBiped.Bip01_L_Finger31" 21
  80 "ValveBiped.Bip01_L_Finger32" 22
  81 "ValveBiped.Bip01_L_Finger4" 16
  82 "ValveBiped.Bip01_L_Finger41" 17
  83 "ValveBiped.Bip01_L_Finger42" 18
  84 "ValveBiped.Bip01_R_UpperArm" 34
  85 "ValveBiped.Bip01_R_Forearm" 35
  86 "ValveBiped.Bip01_R_Hand" 37
  87 "ValveBiped.Bip01_R_Finger0" 54
  88 "ValveBiped.Bip01_R_Finger01" 55
  89 "ValveBiped.Bip01_R_Finger02" 56
  90 "ValveBiped.Bip01_R_Finger1" 39
  91 "ValveBiped.Bip01_R_Finger11" 40
  92 "ValveBiped.Bip01_R_Finger12" 41
  93 "ValveBiped.Bip01_R_Finger2" 43
  94 "ValveBiped.Bip01_R_Finger21" 44
  95 "ValveBiped.Bip01_R_Finger22" 45
  96 "ValveBiped.Bip01_R_Finger3" 51
  97 "ValveBiped.Bip01_R_Finger31" 52
  98 "ValveBiped.Bip01_R_Finger32" 53
  99 "ValveBiped.Bip01_R_Finger4" 47
  100 "ValveBiped.Bip01_R_Finger41" 48
  101 "ValveBiped.Bip01_R_Finger42" 49
  102 "tag_weapon_right" 2
  103 "tag_weapon" 102
  104 "tag_bolt_animate" 103
  105 "tag_brass" 103
  106 "tag_mag_release_animate" 103
  107 "tag_clip" 103
  108 "j_charginghandle" 103
  109 "j_loose_round" 103
  110 "j_mag1" 103
  111 "j_mag2" 103
  112 "j_slide" 103
  113 "tag_flash" 103
  114 "tag_charging_handle_animate" 103
end
skeleton
  time 0
    0 0.000000 3.000000 -21.796875 0.000000 0.000000 -1.570796
    1 0.000000 0.000000 0.000000 0.000000 0.000000 0.000000
    2 -0.423340 0.000000 22.046875 0.000000 0.000000 0.000000
    3 4.819546 8.146531 -11.437196 -1.256872 0.622902 -0.068063
    4 10.897789 -0.000888 0.000756 0.000159 0.000070 -1.873613
    5 -0.000001 -0.000005 0.000000 -0.000003 0.000000 0.000002
    6 9.946373 0.000528 0.007067 -1.559239 -0.254904 1.343641
    7 3.503906 -1.087891 0.078308 0.000001 0.000000 0.000003
    8 0.000002 -0.000006 -0.039060 -1.589451 0.477457 0.546393
    9 1.459961 -0.057831 -0.014801 -0.016274 -0.089382 0.963684
    10 0.991699 -0.047150 0.019455 0.071933 0.073855 1.024964
    11 0.000002 -0.000006 0.000003 0.000000 0.000000 -0.000001
    12 3.425371 0.101995 0.037807 -1.807530 0.878657 0.441425
    13 1.789764 -0.097730 -0.000299 -0.055822 0.099351 1.332643
    14 1.068268 0.050829 -0.003840 -0.026202 -0.015536 0.460999
    15 0.688065 1.193966 -0.284691 -1.516298 0.320787 -0.016825
    16 2.104013 0.078652 -0.000731 -0.991132 0.117322 0.955407
    17 1.135256 -0.000010 -0.000273 0.019396 -0.040905 1.034587
    18 0.728797 -0.004053 -0.004063 -0.073625 -0.094606 0.722358
    19 1.108739 0.635626 0.051816 -1.576311 0.167775 -0.030462
    20 2.058086 0.031651 0.050203 -0.838902 -0.185496 1.040251
    21 1.634048 -0.003977 -0.000628 0.007026 0.023306 1.269063
    22 0.879396 0.105132 -0.000362 -0.150696 0.012291 0.332900
    23 0.167603 -1.422852 0.160034 0.154849 0.576956 -0.280227
    24 2.292104 -0.000013 0.000021 -0.198562 -0.224315 0.072255
    25 1.260631 0.000051 0.019646 0.412364 -0.121875 -0.126946
    26 7.459779 0.000397 0.003342 -1.341585 -0.000971 0.000397
    27 6.210625 0.000326 -0.000468 -1.107429 -0.000863 0.000265
    28 4.965376 0.000256 -0.000375 -0.873000 -0.000635 0.000145
    29 3.720124 0.000196 -0.000280 -0.655161 -0.000479 0.000061
    30 2.470966 0.000126 -0.000185 -0.436394 -0.000372 0.000001
    31 1.237436 0.000063 -0.000090 -0.218327 -0.000192 0.000002
    32 8.705027 0.000462 0.003245 -1.559436 -0.001043 0.000624
    33 0.000002 0.000004 0.000002 -0.000001 0.000000 0.000001
    34 -1.145480 -8.119186 -4.491672 0.395115 -1.068730 4.583671
    35 -10.886767 0.000870 0.000965 0.000165 0.000128 -2.041134
    36 -0.000002 -0.000012 -0.000010 -0.000002 0.000000 -0.000001
    37 -9.943203 -0.000484 -0.000551 0.756769 -0.015467 0.926296
    38 -3.500000 1.087891 -0.078369 0.000001 0.000000 -0.000004
    39 0.000011 0.171875 0.000005 -1.539907 0.222704 -0.138834
    40 -1.475769 -0.074189 0.000169 -0.012829 -0.011820 0.171917
    41 -1.033970 -0.086104 0.000485 -0.021107 -0.000488 0.194663
    42 0.000011 -0.000005 0.000005 0.000001 0.000000 0.000002
    43 -3.500000 -0.036835 0.048981 -2.365236 1.199961 -0.630022
    44 -1.796978 0.031304 -0.000272 0.005346 0.017460 0.944512
    45 -1.056587 0.050737 0.000060 0.002011 0.009284 0.927504
    46 -0.622559 -1.148438 0.271729 0.510052 -0.369454 -3.081442
    47 2.295692 -0.050906 -0.047088 -1.434458 0.675813 3.245649
    48 -1.130199 0.000032 -0.000530 0.010388 0.060890 0.791688
    49 -0.747944 0.027625 -0.000319 0.023194 0.013829 1.033499
    50 -1.088963 -0.631712 -0.052075 0.424513 -0.213978 -3.080704
    51 2.091797 -0.022461 0.047028 -1.472426 0.986732 -2.927360
    52 -1.649458 0.000034 -0.000234 -0.001702 0.006743 0.868887
    53 -0.867818 0.031371 -0.000154 -0.003187 0.007483 0.949150
    54 -0.307129 1.351563 -0.098999 0.594761 0.903908 -0.508228
    55 -2.324219 -0.003731 0.001054 -0.091009 0.054906 0.391015
    56 -1.163233 -0.000050 0.000118 0.234359 0.178902 0.761924
    57 -7.449590 -0.000360 -0.000409 0.650932 0.000419 0.000249
    58 -6.204743 -0.000299 -0.000346 0.537212 0.000347 0.000153
    59 -4.959885 -0.000237 -0.000273 0.423766 0.000287 0.000069
    60 -3.722841 -0.000177 -0.000206 0.317916 0.000251 0.000034
    61 -2.466269 -0.000122 -0.000138 0.211994 0.000168 -0.000002
    62 -1.233135 -0.000058 -0.000072 0.105870 0.000072 -0.000001
    63 -8.690540 -0.000423 -0.000477 0.756543 0.000479 0.000329
    64 0.000002 0.000000 0.000000 -0.000001 0.000000 0.000002
    65 0.000000 3.000000 5.000000 0.000000 0.000000 -3.141592
    66 -0.000003 0.399414 0.000000 0.000000 0.000000 0.000000
    67 -0.000001 -0.000002 0.000001 0.000000 0.000000 0.000001
    68 0.000006 0.000001 0.000001 1.221730 -0.087267 0.174533
    69 0.000000 -0.000004 -0.000001 0.000000 0.000000 0.000001
    70 0.000002 -0.000006 0.000000 0.000001 0.000000 0.000000
    71 -0.000008 0.000011 0.000000 0.000001 0.000000 0.000001
    72 0.000008 0.000003 0.000000 3.141592 -0.000001 -0.000001
    73 0.000004 0.000000 -0.000002 3.141591 0.000000 -0.000001
    74 -0.000004 -0.000006 -0.000008 3.141592 0.000000 0.000000
    75 0.000004 -0.000004 0.000002 3.141592 -0.000001 0.000000
    76 -0.000002 0.000002 0.000003 3.141592 0.000000 0.000000
    77 -0.000004 0.000006 0.000000 3.141592 0.000000 0.000000
    78 0.000003 -0.099915 -0.099915 -3.141593 0.000000 -0.000001
    79 -0.099976 -0.099915 -0.099915 3.141592 0.000000 0.000000
    80 -0.099976 -0.099976 -0.099915 3.141593 0.000000 0.000000
    81 -0.099854 -0.119934 -0.099915 3.141593 -0.000001 0.000000
    82 -0.099976 -0.119751 -0.099915 3.141593 0.000000 0.000000
    83 -0.099976 -0.119812 -0.099854 3.141592 0.000000 0.000000
    84 0.000000 0.000000 0.000000 0.000000 0.000000 -3.141593
    85 0.000001 0.000001 0.000000 0.000000 0.000000 -3.141593
    86 0.000002 -0.000004 0.000000 -1.570797 0.087267 -3.054326
    87 0.000000 0.000006 -0.000001 -0.000001 0.000000 -3.141593
    88 -0.000002 0.000011 0.000000 -0.000001 0.000000 -3.141593
    89 0.000002 0.000006 0.000000 -0.000001 0.000000 -3.141593
    90 -0.000004 -0.000002 0.000006 -3.141592 0.000001 3.141593
    91 0.000000 -0.000008 -0.000007 -3.141592 0.000000 3.141593
    92 0.000001 0.000008 0.000002 -3.141592 0.000000 3.141593
    93 -0.000006 0.000002 0.000004 -3.141593 0.000000 3.141593
    94 0.000000 0.000002 -0.000002 -3.141592 0.000000 -3.141592
    95 0.000006 0.000004 0.000002 -3.141592 0.000000 -3.141593
    96 0.099915 0.199829 0.099976 -3.141592 0.000000 -3.141593
    97 0.099976 0.199829 0.099854 -3.141593 0.000000 3.141593
    98 0.099976 0.199707 0.099915 -3.141592 -0.000001 3.141593
    99 -0.000004 0.119934 0.099915 -3.141592 0.000000 -3.141593
    100 0.000000 0.119934 0.099915 3.141593 0.000000 -3.141593
    101 0.000000 0.119812 0.099915 -3.141593 0.000000 3.141593
    102 10.389395 0.125804 -8.449465 -0.165966 0.172491 0.439335
    103 0.000000 0.000000 0.000000 0.000000 0.000000 0.000000
    104 4.527344 0.000000 3.685547 0.000000 0.000000 0.000000
    105 0.000000 0.000001 0.000003 -0.000036 -0.610853 -1.570561
    106 4.277344 -0.000001 0.849121 0.000000 0.000000 0.000000
    107 5.542969 0.000000 0.000003 0.000000 0.000000 0.000000
    108 3.455010 0.000004 2.018000 0.000010 0.000000 0.000007
    109 -2.088972 -3.614023 0.605963 0.000010 0.000000 0.000007
    110 -1.971998 -0.000010 -0.796001 0.000011 -0.204731 0.000006
    111 -1.971998 -0.000010 -0.796001 0.000011 -0.204731 0.000006
    112 -5.858999 0.072452 2.682749 0.000000 0.000000 0.000000
    113 12.500000 -0.000002 3.259766 0.000000 0.000000 0.000000
    114 10.230598 0.000000 4.378193 0.000000 0.000000 0.000000
  time 1
    0 0.000000 3.000000 -21.796875 0.000000 0.000000 -1.570796
    1 0.000000 0.000000 0.000000 0.000000 0.000000 0.000000
    2 -0.423340 0.000000 22.046875 0.000000 0.000000 0.000000
    3 4.819546 8.146531 -11.437196 -1.256872 0.622902 -0.068063
    4 10.897789 -0.000888 0.000756 0.000159 0.000070 -1.873613
    5 -0.000001 -0.000005 0.000000 -0.000003 0.000000 0.000002
    6 9.946373 0.000528 0.007067 -1.559239 -0.254904 1.343641
    7 3.503906 -1.087891 0.078308 0.000001 0.000000 0.000003
    8 0.000002 -0.000006 -0.039060 -1.589451 0.477457 0.546393
    9 1.459961 -0.057831 -0.014801 -0.016274 -0.089382 0.963684
    10 0.991699 -0.047150 0.019455 0.071933 0.073855 1.024964
    11 0.000002 -0.000006 0.000003 0.000000 0.000000 -0.000001
    12 3.425371 0.101995 0.037807 -1.807530 0.878657 0.441425
    13 1.789764 -0.097730 -0.000299 -0.055822 0.099351 1.332643
    14 1.068268 0.050829 -0.003840 -0.026202 -0.015536 0.460999
    15 0.688065 1.193966 -0.284691 -1.516298 0.320787 -0.016825
    16 2.104013 0.078652 -0.000731 -0.991132 0.117322 0.955407
    17 1.135256 -0.000010 -0.000273 0.019396 -0.040905 1.034587
    18 0.728797 -0.004053 -0.004063 -0.073625 -0.094606 0.722358
    19 1.108739 0.635626 0.051816 -1.576311 0.167775 -0.030462
    20 2.058086 0.031651 0.050203 -0.838902 -0.185496 1.040251
    21 1.634048 -0.003977 -0.000628 0.007026 0.023306 1.269063
    22 0.879396 0.105132 -0.000362 -0.150696 0.012291 0.332900
    23 0.167603 -1.422852 0.160034 0.154849 0.576956 -0.280227
    24 2.292104 -0.000013 0.000021 -0.198562 -0.224315 0.072255
    25 1.260631 0.000051 0.019646 0.412364 -0.121875 -0.126946
    26 7.459779 0.000397 0.003342 -1.341585 -0.000971 0.000397
    27 6.210625 0.000326 -0.000468 -1.107429 -0.000863 0.000265
    28 4.965376 0.000256 -0.000375 -0.873000 -0.000635 0.000145
    29 3.720124 0.000196 -0.000280 -0.655161 -0.000479 0.000061
    30 2.470966 0.000126 -0.000185 -0.436394 -0.000372 0.000001
    31 1.237436 0.000063 -0.000090 -0.218327 -0.000192 0.000002
    32 8.705027 0.000462 0.003245 -1.559436 -0.001043 0.000624
    33 0.000002 0.000004 0.000002 -0.000001 0.000000 0.000001
    34 -1.145480 -8.119186 -4.491672 0.395115 -1.068730 4.583671
    35 -10.886767 0.000870 0.000965 0.000165 0.000128 -2.041134
    36 -0.000002 -0.000012 -0.000010 -0.000002 0.000000 -0.000001
    37 -9.943203 -0.000484 -0.000551 0.756769 -0.015467 0.926296
    38 -3.500000 1.087891 -0.078369 0.000001 0.000000 -0.000004
    39 0.000011 0.171875 0.000005 -1.539907 0.222704 -0.138834
    40 -1.475769 -0.074189 0.000169 -0.012829 -0.011820 0.171917
    41 -1.033970 -0.086104 0.000485 -0.021107 -0.000488 0.194663
    42 0.000011 -0.000005 0.000005 0.000001 0.000000 0.000002
    43 -3.500000 -0.036835 0.048981 -2.365236 1.199961 -0.630022
    44 -1.796978 0.031304 -0.000272 0.005346 0.017460 0.944512
    45 -1.056587 0.050737 0.000060 0.002011 0.009284 0.927504
    46 -0.622559 -1.148438 0.271729 0.510052 -0.369454 -3.081442
    47 2.295692 -0.050906 -0.047088 -1.434458 0.675813 3.245649
    48 -1.130199 0.000032 -0.000530 0.010388 0.060890 0.791688
    49 -0.747944 0.027625 -0.000319 0.023194 0.013829 1.033499
    50 -1.088963 -0.631712 -0.052075 0.424513 -0.213978 -3.080704
    51 2.091797 -0.022461 0.047028 -1.472426 0.986732 -2.927360
    52 -1.649458 0.000034 -0.000234 -0.001702 0.006743 0.868887
    53 -0.867818 0.031371 -0.000154 -0.003187 0.007483 0.949150
    54 -0.307129 1.351563 -0.098999 0.594761 0.903908 -0.508228
    55 -2.324219 -0.003731 0.001054 -0.091009 0.054906 0.391015
    56 -1.163233 -0.000050 0.000118 0.234359 0.178902 0.761924
    57 -7.449590 -0.000360 -0.000409 0.650932 0.000419 0.000249
    58 -6.204743 -0.000299 -0.000346 0.537212 0.000347 0.000153
    59 -4.959885 -0.000237 -0.000273 0.423766 0.000287 0.000069
    60 -3.722841 -0.000177 -0.000206 0.317916 0.000251 0.000034
    61 -2.466269 -0.000122 -0.000138 0.211994 0.000168 -0.000002
    62 -1.233135 -0.000058 -0.000072 0.105870 0.000072 -0.000001
    63 -8.690540 -0.000423 -0.000477 0.756543 0.000479 0.000329
    64 0.000002 0.000000 0.000000 -0.000001 0.000000 0.000002
    65 0.000000 3.000000 5.000000 0.000000 0.000000 -3.141592
    66 -0.000003 0.399414 0.000000 0.000000 0.000000 0.000000
    67 -0.000001 -0.000002 0.000001 0.000000 0.000000 0.000001
    68 0.000006 0.000001 0.000001 1.221730 -0.087267 0.174533
    69 0.000000 -0.000004 -0.000001 0.000000 0.000000 0.000001
    70 0.000002 -0.000006 0.000000 0.000001 0.000000 0.000000
    71 -0.000008 0.000011 0.000000 0.000001 0.000000 0.000001
    72 0.000008 0.000003 0.000000 3.141592 -0.000001 -0.000001
    73 0.000004 0.000000 -0.000002 3.141591 0.000000 -0.000001
    74 -0.000004 -0.000006 -0.000008 3.141592 0.000000 0.000000
    75 0.000004 -0.000004 0.000002 3.141592 -0.000001 0.000000
    76 -0.000002 0.000002 0.000003 3.141592 0.000000 0.000000
    77 -0.000004 0.000006 0.000000 3.141592 0.000000 0.000000
    78 0.000003 -0.099915 -0.099915 -3.141593 0.000000 -0.000001
    79 -0.099976 -0.099915 -0.099915 3.141592 0.000000 0.000000
    80 -0.099976 -0.099976 -0.099915 3.141593 0.000000 0.000000
    81 -0.099854 -0.119934 -0.099915 3.141593 -0.000001 0.000000
    82 -0.099976 -0.119751 -0.099915 3.141593 0.000000 0.000000
    83 -0.099976 -0.119812 -0.099854 3.141592 0.000000 0.000000
    84 0.000000 0.000000 0.000000 0.000000 0.000000 -3.141593
    85 0.000001 0.000001 0.000000 0.000000 0.000000 -3.141593
    86 0.000002 -0.000004 0.000000 -1.570797 0.087267 -3.054326
    87 0.000000 0.000006 -0.000001 -0.000001 0.000000 -3.141593
    88 -0.000002 0.000011 0.000000 -0.000001 0.000000 -3.141593
    89 0.000002 0.000006 0.000000 -0.000001 0.000000 -3.141593
    90 -0.000004 -0.000002 0.000006 -3.141592 0.000001 3.141593
    91 0.000000 -0.000008 -0.000007 -3.141592 0.000000 3.141593
    92 0.000001 0.000008 0.000002 -3.141592 0.000000 3.141593
    93 -0.000006 0.000002 0.000004 -3.141593 0.000000 3.141593
    94 0.000000 0.000002 -0.000002 -3.141592 0.000000 -3.141592
    95 0.000006 0.000004 0.000002 -3.141592 0.000000 -3.141593
    96 0.099915 0.199829 0.099976 -3.141592 0.000000 -3.141593
    97 0.099976 0.199829 0.099854 -3.141593 0.000000 3.141593
    98 0.099976 0.199707 0.099915 -3.141592 -0.000001 3.141593
    99 -0.000004 0.119934 0.099915 -3.141592 0.000000 -3.141593
    100 0.000000 0.119934 0.099915 3.141593 0.000000 -3.141593
    101 0.000000 0.119812 0.099915 -3.141593 0.000000 3.141593
    102 10.389395 0.125804 -8.449465 -0.165966 0.172491 0.439335
    103 0.000000 0.000000 0.000000 0.000000 0.000000 0.000000
    104 4.527344 0.000000 3.685547 0.000000 0.000000 0.000000
    105 0.000000 0.000001 0.000003 -0.000036 -0.610853 -1.570561
    106 4.277344 -0.000001 0.849121 0.000000 0.000000 0.000000
    107 5.542969 0.000000 0.000003 0.000000 0.000000 0.000000
    108 3.455010 0.000004 2.018000 0.000010 0.000000 0.000007
    109 -2.088972 -3.614023 0.605963 0.000010 0.000000 0.000007
    110 -1.971998 -0.000010 -0.796001 0.000011 -0.204731 0.000006
    111 -1.971998 -0.000010 -0.796001 0.000011 -0.204731 0.000006
    112 -5.858999 0.072452 2.682749 0.000000 0.000000 0.000000
    113 12.500000 -0.000002 3.259766 0.000000 0.000000 0.000000
    114 10.230598 0.000000 4.378193 0.000000 0.000000 0.000000
  time 2
    0 0.000000 3.000000 -21.796875 0.000000 0.000000 -1.570796
    1 0.000000 0.000000 0.000000 0.000000 0.000000 0.000000
    2 -0.423340 0.000000 22.046875 0.000000 0.000000 0.000000
    3 4.995333 8.150437 -11.437196 -1.216737 0.530797 -0.131862
    4 10.889977 -0.000888 0.000756 0.000123 0.000070 -1.731722
    5 -0.000001 -0.000005 0.000000 -0.000003 0.000000 0.000002
    6 9.954186 0.000528 -0.000746 -1.588578 -0.243817 1.279697
    7 3.503906 -1.087891 0.078308 0.000001 0.000000 0.000003
    8 0.003908 -0.000006 -0.031248 -1.589451 0.477457 0.546438
    9 1.459961 -0.057831 -0.014801 -0.016274 -0.089382 0.963684
    10 0.991699 -0.047150 0.019455 0.071933 0.073855 1.024964
    11 0.000002 -0.000006 0.000003 0.000000 0.000000 -0.000001
    12 3.429277 0.101995 0.037807 -1.807530 0.878657 0.441473
    13 1.793671 -0.101636 -0.000299 -0.055834 0.099375 1.332643
    14 1.072174 0.054735 0.000067 -0.026214 -0.015536 0.461137
    15 0.691971 1.205685 -0.284691 -1.516298 0.320787 -0.016825
    16 2.104013 0.078652 -0.000731 -0.991132 0.117322 0.955407
    17 1.131349 -0.000010 -0.000273 0.019396 -0.040917 1.034587
    18 0.728797 -0.007960 -0.011876 -0.073625 -0.094606 0.722358
    19 1.108739 0.635626 0.051816 -1.576311 0.167811 -0.030462
    20 2.061992 0.031651 0.058016 -0.838902 -0.185496 1.040214
    21 1.630142 -0.003977 -0.000628 0.007038 0.023306 1.269063
    22 0.879396 0.109039 -0.000362 -0.150696 0.012291 0.333012
    23 0.167603 -1.422852 0.160034 0.154849 0.576956 -0.280227
    24 2.292104 -0.000013 0.000021 -0.198562 -0.224315 0.072243
    25 1.256724 0.000051 0.015740 0.412339 -0.121875 -0.126972
    26 7.463686 0.000397 0.003342 -1.366551 -0.000983 0.000421
    27 6.218438 0.000326 -0.000468 -1.128222 -0.000851 0.000265
    28 4.969282 0.000256 -0.000375 -0.889989 -0.000659 0.000145
    29 3.731843 0.000196 -0.000280 -0.667538 -0.000503 0.000061
    30 2.490498 0.000126 -0.000185 -0.444821 -0.000396 0.000001
    31 1.241342 0.000063 -0.000090 -0.220831 -0.000192 0.000002
    32 8.716746 0.000462 -0.000662 -1.588470 -0.001079 0.000660
    33 0.000002 0.000004 0.000002 -0.000001 0.000000 0.000001
    34 -1.145480 -8.119186 -4.491672 0.488829 -1.102457 4.452101
    35 -10.886767 0.000870 0.000965 0.000189 0.000116 -2.054763
    36 -0.000002 -0.000012 -0.000010 -0.000002 0.000000 -0.000001
    37 -9.958829 -0.000484 -0.000551 0.692519 -0.023784 0.930367
    38 -3.500000 1.087891 -0.078369 0.000001 0.000000 -0.000004
    39 0.011731 0.167969 0.000005 -1.539907 0.222704 -0.138822
    40 -1.475769 -0.074189 0.000169 -0.012817 -0.011832 0.171917
    41 -1.033970 -0.086104 0.000485 -0.021107 -0.000488 0.194651
    42 0.000011 -0.000005 0.000005 0.000001 0.000000 0.000002
    43 -3.500000 -0.036835 0.048981 -2.365236 1.199961 -0.630022
    44 -1.796978 0.031304 -0.000272 0.005346 0.017460 0.944404
    45 -1.056587 0.050737 0.000060 0.001999 0.009284 0.927504
    46 -0.622559 -1.148438 0.271729 0.510052 -0.369454 -3.081442
    47 2.307411 -0.050906 -0.050995 -1.434386 0.675909 3.245793
    48 -1.126293 0.000032 -0.000530 0.010388 0.060890 0.791688
    49 -0.744038 0.035438 -0.000319 0.023194 0.013829 1.033499
    50 -1.092869 -0.639525 -0.052075 0.424537 -0.213978 -3.080704
    51 2.091797 -0.022461 0.047028 -1.472426 0.986732 -2.927360
    52 -1.649458 0.000034 -0.000234 -0.001702 0.006743 0.868887
    53 -0.867818 0.027465 -0.000154 -0.003187 0.007507 0.949150
    54 -0.307129 1.351563 -0.098999 0.594761 0.903908 -0.508228
    55 -2.324219 -0.003731 0.001054 -0.091009 0.054906 0.391015
    56 -1.163233 -0.000050 0.000118 0.234347 0.178950 0.761924
    57 -7.457403 -0.000360 -0.000409 0.595687 0.000383 0.000177
    58 -6.216462 -0.000299 -0.000346 0.491872 0.000323 0.000105
    59 -4.975510 -0.000237 -0.000273 0.387952 0.000275 0.000058
    60 -3.722841 -0.000177 -0.000206 0.290989 0.000228 0.000010
    61 -2.474082 -0.000122 -0.000138 0.193993 0.000156 -0.000002
    62 -1.237041 -0.000058 -0.000072 0.097014 0.000084 -0.000001
    63 -8.702259 -0.000423 -0.000477 0.692845 0.000431 0.000245
    64 0.000002 0.000000 0.000000 -0.000001 0.000000 0.000002
    65 0.000000 3.000000 5.000000 0.000000 0.000000 -3.141592
    66 -0.000003 0.399414 0.000000 0.000000 0.000000 0.000000
    67 -0.000001 -0.000002 0.000001 0.000000 0.000000 0.000001
    68 0.000006 0.000001 0.000001 1.221730 -0.087267 0.174533
    69 0.000000 -0.000004 -0.000001 0.000000 0.000000 0.000001
    70 0.000002 -0.000006 0.000000 0.000001 0.000000 0.000000
    71 -0.000008 0.000011 0.000000 0.000001 0.000000 0.000001
    72 0.000008 0.000003 0.000000 3.141592 -0.000001 -0.000001
    73 0.000004 0.000000 -0.000002 3.141591 0.000000 -0.000001
    74 -0.000004 -0.000006 -0.000008 3.141592 0.000000 0.000000
    75 0.000004 -0.000004 0.000002 3.141592 -0.000001 0.000000
    76 -0.000002 0.000002 0.000003 3.141592 0.000000 0.000000
    77 -0.000004 0.000006 0.000000 3.141592 0.000000 0.000000
    78 0.000003 -0.099915 -0.099915 -3.141593 0.000000 -0.000001
    79 -0.099976 -0.099915 -0.099915 3.141592 0.000000 0.000000
    80 -0.099976 -0.099976 -0.099915 3.141593 0.000000 0.000000
    81 -0.099854 -0.119934 -0.099915 3.141593 -0.000001 0.000000
    82 -0.099976 -0.119751 -0.099915 3.141593 0.000000 0.000000
    83 -0.099976 -0.119812 -0.099854 3.141592 0.000000 0.000000
    84 0.000000 0.000000 0.000000 0.000000 0.000000 -3.141593
    85 0.000001 0.000001 0.000000 0.000000 0.000000 -3.141593
    86 0.000002 -0.000004 0.000000 -1.570797 0.087267 -3.054326
    87 0.000000 0.000006 -0.000001 -0.000001 0.000000 -3.141593
    88 -0.000002 0.000011 0.000000 -0.000001 0.000000 -3.141593
    89 0.000002 0.000006 0.000000 -0.000001 0.000000 -3.141593
    90 -0.000004 -0.000002 0.000006 -3.141592 0.000001 3.141593
    91 0.000000 -0.000008 -0.000007 -3.141592 0.000000 3.141593
    92 0.000001 0.000008 0.000002 -3.141592 0.000000 3.141593
    93 -0.000006 0.000002 0.000004 -3.141593 0.000000 3.141593
    94 0.000000 0.000002 -0.000002 -3.141592 0.000000 -3.141592
    95 0.000006 0.000004 0.000002 -3.141592 0.000000 -3.141593
    96 0.099915 0.199829 0.099976 -3.141592 0.000000 -3.141593
    97 0.099976 0.199829 0.099854 -3.141593 0.000000 3.141593
    98 0.099976 0.199707 0.099915 -3.141592 -0.000001 3.141593
    99 -0.000004 0.119934 0.099915 -3.141592 0.000000 -3.141593
    100 0.000000 0.119934 0.099915 3.141593 0.000000 -3.141593
    101 0.000000 0.119812 0.099915 -3.141593 0.000000 3.141593
    102 10.908942 -0.745316 -8.109611 -0.157953 0.148468 0.367226
    103 0.000000 0.000000 0.000000 0.000000 0.000000 0.000000
    104 4.527344 0.000000 3.685547 0.000000 0.000000 0.000000
    105 0.000000 0.000001 0.000003 -0.000036 -0.610853 -1.570561
    106 4.277344 -0.000001 0.849121 0.000000 0.000000 0.000000
    107 5.542969 0.000000 0.000003 0.000000 0.000000 0.000000
    108 3.455010 0.000004 2.018000 0.000010 0.000000 0.000007
    109 -2.088972 -3.614023 0.605963 0.000010 0.000000 0.000007
    110 -1.971998 -0.000010 -0.796001 0.000011 -0.204731 0.000006
    111 -1.971998 -0.000010 -0.796001 0.000011 -0.204731 0.000006
    112 -5.858999 0.072452 2.682749 0.000000 0.000000 0.000000
    113 12.500000 -0.000002 3.259766 0.000000 0.000000 0.000000
    114 10.230598 0.000000 4.378193 0.000000 0.000000 0.000000
  time 3
    0 0.000000 3.000000 -21.796875 0.000000 0.000000 -1.570796
    1 0.000000 0.000000 0.000000 0.000000 0.000000 0.000000
    2 -0.423340 0.000000 22.046875 0.000000 0.000000 0.000000
    3 5.405502 8.181688 -11.437196 -1.171910 0.389132 -0.238935
    4 10.889977 -0.000888 0.000756 0.000111 0.000022 -1.478569
    5 -0.000001 -0.000005 0.000000 -0.000003 0.000000 0.000002
    6 9.942467 0.000528 0.007067 -1.595474 -0.213306 1.144459
    7 3.503906 -1.087891 0.078308 0.000001 0.000000 0.000003
    8 0.007815 -0.000006 -0.039060 -1.589451 0.477457 0.546393
    9 1.459961 -0.057831 -0.014801 -0.016274 -0.089382 0.963684
    10 0.991699 -0.047150 0.019455 0.071933 0.073855 1.024964
    11 0.000002 -0.000006 0.000003 0.000000 0.000000 -0.000001
    12 3.429277 0.098089 0.037807 -1.807530 0.878618 0.441425
    13 1.797577 -0.105543 -0.000299 -0.055822 0.099363 1.332643
    14 1.076081 0.054735 0.000067 -0.026214 -0.015548 0.461033
    15 0.684158 1.205685 -0.284691 -1.516298 0.320787 -0.016811
    16 2.100106 0.074746 -0.000731 -0.991132 0.117322 0.955407
    17 1.131349 -0.000010 -0.000273 0.019396 -0.040893 1.034587
    18 0.728797 -0.007960 -0.000156 -0.073637 -0.094606 0.722358
    19 1.104833 0.631720 0.051816 -1.576311 0.167931 -0.030582
    20 2.058086 0.035558 0.058016 -0.838902 -0.185496 1.040251
    21 1.630142 -0.003977 -0.000628 0.007038 0.023318 1.269063
    22 0.879396 0.109039 -0.000362 -0.150696 0.012291 0.333012
    23 0.167603 -1.422852 0.160034 0.154849 0.576956 -0.280227
    24 2.292104 -0.000013 0.000021 -0.198562 -0.224315 0.072243
    25 1.268443 0.000051 0.019646 0.412364 -0.121875 -0.126972
    26 7.463686 0.000397 -0.000564 -1.372806 -0.001031 0.000456
    27 6.214532 0.000326 -0.000468 -1.132719 -0.000899 0.000277
    28 4.973189 0.000256 -0.000375 -0.893710 -0.000671 0.000145
    29 3.724030 0.000196 -0.000280 -0.670145 -0.000503 0.000061
    30 2.482685 0.000126 -0.000185 -0.446716 -0.000396 0.000001
    31 1.229623 0.000063 -0.000090 -0.223456 -0.000204 0.000002
    32 8.708933 0.000462 -0.000662 -1.595556 -0.001079 0.000660
    33 0.000002 0.000004 0.000002 -0.000001 0.000000 0.000001
    34 -1.145480 -8.119186 -4.491672 0.686695 -1.151931 4.195597
    35 -10.875048 0.000870 0.000965 0.000201 0.000116 -2.037773
    36 -0.000002 -0.000012 -0.000010 -0.000002 0.000000 -0.000001
    37 -9.951016 -0.000484 -0.000551 0.562740 -0.036081 0.900116
    38 -3.500000 1.087891 -0.078369 0.000001 0.000000 -0.000004
    39 0.000011 0.175782 0.000005 -1.539895 0.222704 -0.138846
    40 -1.479675 -0.070282 0.000169 -0.012829 -0.011772 0.171917
    41 -1.026157 -0.082198 0.000485 -0.021107 -0.000488 0.194651
    42 0.000011 -0.000005 0.000005 0.000001 0.000000 0.000002
    43 -3.500000 -0.036835 0.048981 -2.365236 1.199961 -0.630022
    44 -1.796978 0.031304 -0.000272 0.005346 0.017460 0.944308
    45 -1.060494 0.050737 0.000060 0.001999 0.009284 0.927504
    46 -0.622559 -1.148438 0.271729 0.510052 -0.369454 -3.081442
    47 2.299598 -0.054812 -0.047088 -1.434314 0.676017 3.245985
    48 -1.130199 0.000032 -0.000530 0.010388 0.060902 0.791688
    49 -0.747944 0.027625 -0.000319 0.023194 0.013817 1.033499
    50 -1.096776 -0.631712 -0.052075 0.424489 -0.213978 -3.080704
    51 2.091797 -0.022461 0.047028 -1.472426 0.986732 -2.927360
    52 -1.649458 0.000034 -0.000234 -0.001702 0.006743 0.868887
    53 -0.867818 0.031371 -0.000154 -0.003187 0.007495 0.949150
    54 -0.307129 1.351563 -0.098999 0.594761 0.903908 -0.508228
    55 -2.324219 -0.003731 0.001054 -0.091009 0.054906 0.391015
    56 -1.163233 -0.000050 0.000118 0.234347 0.178914 0.761924
    57 -7.457403 -0.000360 -0.000409 0.483843 0.000311 0.000105
    58 -6.212556 -0.000299 -0.000346 0.399539 0.000275 0.000069
    59 -4.967697 -0.000237 -0.000273 0.315020 0.000251 0.000022
    60 -3.722841 -0.000177 -0.000206 0.236365 0.000192 -0.000002
    61 -2.474082 -0.000122 -0.000138 0.157536 0.000144 -0.000002
    62 -1.229228 -0.000058 -0.000072 0.078066 0.000060 -0.000001
    63 -8.702259 -0.000423 -0.000477 0.562335 0.000359 0.000161
    64 0.000002 0.000000 0.000000 -0.000001 0.000000 0.000002
    65 0.000000 3.000000 5.000000 0.000000 0.000000 -3.141592
    66 -0.000003 0.399414 0.000000 0.000000 0.000000 0.000000
    67 -0.000001 -0.000002 0.000001 0.000000 0.000000 0.000001
    68 0.000006 0.000001 0.000001 1.221730 -0.087267 0.174533
    69 0.000000 -0.000004 -0.000001 0.000000 0.000000 0.000001
    70 0.000002 -0.000006 0.000000 0.000001 0.000000 0.000000
    71 -0.000008 0.000011 0.000000 0.000001 0.000000 0.000001
    72 0.000008 0.000003 0.000000 3.141592 -0.000001 -0.000001
    73 0.000004 0.000000 -0.000002 3.141591 0.000000 -0.000001
    74 -0.000004 -0.000006 -0.000008 3.141592 0.000000 0.000000
    75 0.000004 -0.000004 0.000002 3.141592 -0.000001 0.000000
    76 -0.000002 0.000002 0.000003 3.141592 0.000000 0.000000
    77 -0.000004 0.000006 0.000000 3.141592 0.000000 0.000000
    78 0.000003 -0.099915 -0.099915 -3.141593 0.000000 -0.000001
    79 -0.099976 -0.099915 -0.099915 3.141592 0.000000 0.000000
    80 -0.099976 -0.099976 -0.099915 3.141593 0.000000 0.000000
    81 -0.099854 -0.119934 -0.099915 3.141593 -0.000001 0.000000
    82 -0.099976 -0.119751 -0.099915 3.141593 0.000000 0.000000
    83 -0.099976 -0.119812 -0.099854 3.141592 0.000000 0.000000
    84 0.000000 0.000000 0.000000 0.000000 0.000000 -3.141593
    85 0.000001 0.000001 0.000000 0.000000 0.000000 -3.141593
    86 0.000002 -0.000004 0.000000 -1.570797 0.087267 -3.054326
    87 0.000000 0.000006 -0.000001 -0.000001 0.000000 -3.141593
    88 -0.000002 0.000011 0.000000 -0.000001 0.000000 -3.141593
    89 0.000002 0.000006 0.000000 -0.000001 0.000000 -3.141593
    90 -0.000004 -0.000002 0.000006 -3.141592 0.000001 3.141593
    91 0.000000 -0.000008 -0.000007 -3.141592 0.000000 3.141593
    92 0.000001 0.000008 0.000002 -3.141592 0.000000 3.141593
    93 -0.000006 0.000002 0.000004 -3.141593 0.000000 3.141593
    94 0.000000 0.000002 -0.000002 -3.141592 0.000000 -3.141592
    95 0.000006 0.000004 0.000002 -3.141592 0.000000 -3.141593
    96 0.099915 0.199829 0.099976 -3.141592 0.000000 -3.141593
    97 0.099976 0.199829 0.099854 -3.141593 0.000000 3.141593
    98 0.099976 0.199707 0.099915 -3.141592 -0.000001 3.141593
    99 -0.000004 0.119934 0.099915 -3.141592 0.000000 -3.141593
    100 0.000000 0.119934 0.099915 3.141593 0.000000 -3.141593
    101 0.000000 0.119812 0.099915 -3.141593 0.000000 3.141593
    102 11.873816 -2.046137 -7.738506 -0.124345 0.104923 0.254558
    103 0.000000 0.000000 0.000000 0.000000 0.000000 0.000048
    104 4.527344 0.000000 3.685547 0.000000 0.000000 0.000000
    105 0.000000 0.000001 0.000003 -0.000036 -0.610853 -1.570561
    106 4.277344 -0.000001 0.849121 0.000000 0.000000 0.000000
    107 5.542969 0.000000 0.000003 0.000000 0.000000 0.000000
    108 3.455010 0.000004 2.018000 0.000010 0.000000 0.000007
    109 -2.088972 -3.614023 0.605963 0.000010 0.000000 0.000007
    110 -1.971998 -0.000010 -0.796001 0.000011 -0.204731 0.000006
    111 -1.971998 -0.000010 -0.796001 0.000011 -0.204731 0.000006
    112 -5.858999 0.072452 2.682749 0.000000 0.000000 0.000000
    113 12.500000 -0.000002 3.259766 0.000000 0.000000 0.000000
    114 10.230598 0.000000 4.378193 0.000000 0.000000 0.000000
  time 4
    0 0.000000 3.000000 -21.796875 0.000000 0.000000 -1.570796
    1 0.000000 0.000000 0.000000 0.000000 0.000000 0.000000
    2 -0.423340 0.000000 22.046875 0.000000 0.000000 0.000000
    3 5.905517 8.216846 -11.437196 -1.140938 0.223078 -0.365949
    4 10.889977 -0.000888 0.000756 0.000063 -0.000014 -1.148830
    5 -0.000001 -0.000005 0.000000 -0.000003 0.000000 0.000002
    6 9.942467 0.000528 -0.000746 -1.571777 -0.168528 0.952800
    7 3.503906 -1.087891 0.078308 0.000001 0.000000 0.000003
    8 0.003908 -0.000006 -0.039060 -1.589451 0.477430 0.546461
    9 1.459961 -0.057831 -0.014801 -0.016274 -0.089382 0.963684
    10 0.991699 -0.047150 0.019455 0.071933 0.073855 1.024964
    11 0.000002 -0.000006 0.000003 0.000000 0.000000 -0.000001
    12 3.429277 0.101995 0.037807 -1.807530 0.878696 0.441425
    13 1.797577 -0.097730 -0.000299 -0.055858 0.099363 1.332643
    14 1.060455 0.050829 0.000067 -0.026226 -0.015548 0.461033
    15 0.695877 1.205685 -0.284691 -1.516298 0.320787 -0.016797
    16 2.100106 0.074746 -0.000731 -0.991216 0.117443 0.955342
    17 1.127443 -0.000010 -0.000273 0.019396 -0.040881 1.034587
    18 0.728797 -0.004053 -0.011876 -0.073613 -0.094606 0.722358
    19 1.108739 0.635626 0.051816 -1.576311 0.167775 -0.030474
    20 2.058086 0.035558 0.061922 -0.838902 -0.185496 1.040214
    21 1.634048 -0.000071 -0.000628 0.007038 0.023318 1.269063
    22 0.879396 0.109039 -0.000362 -0.150696 0.012291 0.332928
    23 0.167603 -1.422852 0.160034 0.154849 0.576956 -0.280227
    24 2.292104 -0.000013 0.000021 -0.198574 -0.224315 0.072243
    25 1.256724 0.000051 0.019646 0.412339 -0.121875 -0.126972
    26 7.459779 0.000397 0.003342 -1.351345 -0.000959 0.000409
    27 6.206719 0.000326 -0.000468 -1.115310 -0.000863 0.000253
    28 4.965376 0.000256 -0.000375 -0.880196 -0.000647 0.000121
    29 3.724030 0.000196 -0.000280 -0.659664 -0.000479 0.000025
    30 2.482685 0.000126 -0.000185 -0.438360 -0.000384 0.000001
    31 1.229623 0.000063 -0.000090 -0.219765 -0.000192 0.000002
    32 8.705027 0.000462 -0.000662 -1.571915 -0.001043 0.000624
    33 0.000002 0.000004 0.000002 -0.000001 0.000000 0.000001
    34 -1.145480 -8.119186 -4.491672 0.955787 -1.176267 3.871150
    35 -10.882861 0.000870 0.000965 0.000189 0.000080 -1.981415
    36 -0.000002 -0.000012 -0.000010 -0.000002 0.000000 -0.000001
    37 -9.958829 -0.000484 -0.000551 0.409937 -0.062176 0.838632
    38 -3.500000 1.087891 -0.078369 0.000001 0.000000 -0.000004
    39 0.007824 0.171875 0.000005 -1.539907 0.222704 -0.138858
    40 -1.471862 -0.070282 0.000169 -0.012829 -0.011808 0.171917
    41 -1.033970 -0.082198 0.000485 -0.021107 -0.000488 0.194663
    42 0.000011 -0.000005 0.000005 0.000001 0.000000 0.000002
    43 -3.500000 -0.036835 0.048981 -2.365236 1.199961 -0.630022
    44 -1.796978 0.031304 -0.000272 0.005346 0.017460 0.944248
    45 -1.060494 0.050737 0.000060 0.001999 0.009296 0.927504
    46 -0.622559 -1.148438 0.271729 0.510052 -0.369454 -3.081442
    47 2.295692 -0.054812 -0.039275 -1.434254 0.676089 3.246153
    48 -1.130199 0.000032 -0.000530 0.010388 0.060914 0.791676
    49 -0.744038 0.039344 -0.000319 0.023194 0.013817 1.033499
    50 -1.088963 -0.631712 -0.052075 0.424501 -0.213978 -3.080704
    51 2.091797 -0.022461 0.047028 -1.472426 0.986732 -2.927360
    52 -1.649458 0.000034 -0.000234 -0.001702 0.006743 0.868887
    53 -0.867818 0.031371 -0.000154 -0.003187 0.007495 0.949150
    54 -0.307129 1.351563 -0.098999 0.594761 0.903908 -0.508228
    55 -2.324219 -0.003731 0.001054 -0.091009 0.054906 0.391015
    56 -1.163233 -0.000050 0.000118 0.234359 0.178962 0.761924
    57 -7.469122 -0.000360 -0.000409 0.352484 0.000263 0.000034
    58 -6.212556 -0.000299 -0.000346 0.290975 0.000251 0.000010
    59 -4.963791 -0.000237 -0.000273 0.229654 0.000204 0.000010
    60 -3.730654 -0.000177 -0.000206 0.172141 0.000132 -0.000002
    61 -2.470175 -0.000122 -0.000138 0.114823 0.000108 -0.000002
    62 -1.233135 -0.000058 -0.000072 0.059010 0.000048 -0.000001
    63 -8.706165 -0.000423 -0.000477 0.409991 0.000252 0.000078
    64 0.000002 0.000000 0.000000 -0.000001 0.000000 0.000002
    65 0.000000 3.000000 5.000000 0.000000 0.000000 -3.141592
    66 -0.000003 0.399414 0.000000 0.000000 0.000000 0.000000
    67 -0.000001 -0.000002 0.000001 0.000000 0.000000 0.000001
    68 0.000006 0.000001 0.000001 1.221730 -0.087267 0.174533
    69 0.000000 -0.000004 -0.000001 0.000000 0.000000 0.000001
    70 0.000002 -0.000006 0.000000 0.000001 0.000000 0.000000
    71 -0.000008 0.000011 0.000000 0.000001 0.000000 0.000001
    72 0.000008 0.000003 0.000000 3.141592 -0.000001 -0.000001
    73 0.000004 0.000000 -0.000002 3.141591 0.000000 -0.000001
    74 -0.000004 -0.000006 -0.000008 3.141592 0.000000 0.000000
    75 0.000004 -0.000004 0.000002 3.141592 -0.000001 0.000000
    76 -0.000002 0.000002 0.000003 3.141592 0.000000 0.000000
    77 -0.000004 0.000006 0.000000 3.141592 0.000000 0.000000
    78 0.000003 -0.099915 -0.099915 -3.141593 0.000000 -0.000001
    79 -0.099976 -0.099915 -0.099915 3.141592 0.000000 0.000000
    80 -0.099976 -0.099976 -0.099915 3.141593 0.000000 0.000000
    81 -0.099854 -0.119934 -0.099915 3.141593 -0.000001 0.000000
    82 -0.099976 -0.119751 -0.099915 3.141593 0.000000 0.000000
    83 -0.099976 -0.119812 -0.099854 3.141592 0.000000 0.000000
    84 0.000000 0.000000 0.000000 0.000000 0.000000 -3.141593
    85 0.000001 0.000001 0.000000 0.000000 0.000000 -3.141593
    86 0.000002 -0.000004 0.000000 -1.570797 0.087267 -3.054326
    87 0.000000 0.000006 -0.000001 -0.000001 0.000000 -3.141593
    88 -0.000002 0.000011 0.000000 -0.000001 0.000000 -3.141593
    89 0.000002 0.000006 0.000000 -0.000001 0.000000 -3.141593
    90 -0.000004 -0.000002 0.000006 -3.141592 0.000001 3.141593
    91 0.000000 -0.000008 -0.000007 -3.141592 0.000000 3.141593
    92 0.000001 0.000008 0.000002 -3.141592 0.000000 3.141593
    93 -0.000006 0.000002 0.000004 -3.141593 0.000000 3.141593
    94 0.000000 0.000002 -0.000002 -3.141592 0.000000 -3.141592
    95 0.000006 0.000004 0.000002 -3.141592 0.000000 -3.141593
    96 0.099915 0.199829 0.099976 -3.141592 0.000000 -3.141593
    97 0.099976 0.199829 0.099854 -3.141593 0.000000 3.141593
    98 0.099976 0.199707 0.099915 -3.141592 -0.000001 3.141593
    99 -0.000004 0.119934 0.099915 -3.141592 0.000000 -3.141593
    100 0.000000 0.119934 0.099915 3.141593 0.000000 -3.141593
    101 0.000000 0.119812 0.099915 -3.141593 0.000000 3.141593
    102 12.979318 -3.409460 -7.410371 -0.073327 0.053325 0.134399
    103 0.000000 0.000000 0.000000 0.000000 0.000000 0.000000
    104 4.527344 0.000000 3.685547 0.000000 0.000000 0.000000
    105 0.000000 0.000001 0.000003 -0.000036 -0.610853 -1.570561
    106 4.277344 -0.000001 0.849121 0.000000 0.000000 0.000000
    107 5.542969 0.000000 0.000003 0.000000 0.000000 0.000000
    108 3.455010 0.000004 2.018000 0.000010 0.000000 0.000007
    109 -2.088972 -3.614023 0.605963 0.000010 0.000000 0.000007
    110 -1.971998 -0.000010 -0.796001 0.000011 -0.204731 0.000006
    111 -1.971998 -0.000010 -0.796001 0.000011 -0.204731 0.000006
    112 -5.858999 0.072452 2.682749 0.000000 0.000000 0.000000
    113 12.500000 -0.000002 3.259766 0.000000 0.000000 0.000000
    114 10.230598 0.000000 4.378193 0.000000 0.000000 0.000000
  time 5
    0 0.000000 3.000000 -21.796875 0.000000 0.000000 -1.570796
    1 0.000000 0.000000 0.000000 0.000000 0.000000 0.000000
    2 -0.423340 0.000000 22.046875 0.000000 0.000000 0.000000
    3 6.319592 8.248097 -11.437196 -1.120889 0.060230 -0.484212
    4 10.889977 -0.000888 0.000756 0.000003 -0.000014 -0.801036
    5 -0.000001 -0.000005 0.000000 -0.000003 0.000000 0.000002
    6 9.938561 0.000528 -0.000746 -1.535354 -0.127782 0.747541
    7 3.503906 -1.087891 0.078308 0.000001 0.000000 0.000003
    8 0.011721 -0.000006 -0.035154 -1.589451 0.477430 0.546438
    9 1.459961 -0.057831 -0.014801 -0.016274 -0.089382 0.963684
    10 0.991699 -0.047150 0.019455 0.071933 0.073855 1.024964
    11 0.000002 -0.000006 0.000003 0.000000 0.000000 -0.000001
    12 3.433184 0.098089 0.037807 -1.807530 0.878618 0.441473
    13 1.797577 -0.105543 -0.000299 -0.055846 0.099375 1.332643
    14 1.060455 0.058641 0.000067 -0.026238 -0.015536 0.460999
    15 0.684158 1.193966 -0.284691 -1.516298 0.320787 -0.016797
    16 2.100106 0.070839 -0.000731 -0.991384 0.117633 0.955299
    17 1.123536 -0.000010 -0.000273 0.019396 -0.040857 1.034587
    18 0.728797 -0.007960 -0.000156 -0.073613 -0.094606 0.722358
    19 1.108739 0.631720 0.051816 -1.576311 0.167775 -0.030474
    20 2.065899 0.031651 0.058016 -0.838902 -0.185496 1.040251
    21 1.622329 -0.000071 -0.000628 0.007038 0.023330 1.269063
    22 0.879396 0.109039 -0.000362 -0.150696 0.012315 0.332928
    23 0.167603 -1.422852 0.160034 0.154849 0.576956 -0.280227
    24 2.292104 -0.000013 0.000021 -0.198562 -0.224315 0.072243
    25 1.260631 0.000051 0.015740 0.412364 -0.121875 -0.126972
    26 7.463686 0.000397 0.003342 -1.320178 -0.000947 0.000385
    27 6.214532 0.000326 -0.000468 -1.090153 -0.000779 0.000253
    28 4.965376 0.000256 -0.000375 -0.860399 -0.000611 0.000145
    29 3.724030 0.000196 -0.000280 -0.644733 -0.000455 0.000049
    30 2.490498 0.000126 -0.000185 -0.430004 -0.000360 0.000001
    31 1.237436 0.000063 -0.000090 -0.216002 -0.000180 0.000002
    32 8.701120 0.000462 -0.000662 -1.536234 -0.001055 0.000624
    33 0.000002 0.000004 0.000002 -0.000001 0.000000 0.000001
    34 -1.145480 -8.119186 -4.491672 1.175067 -1.166151 3.616644
    35 -10.886767 0.000870 0.000965 0.000165 0.000104 -1.913270
    36 -0.000002 -0.000012 -0.000010 -0.000002 0.000000 -0.000001
    37 -9.954923 -0.000484 -0.000551 0.286422 -0.096350 0.773744
    38 -3.500000 1.087891 -0.078369 0.000001 0.000000 -0.000004
    39 0.003918 0.175782 0.000005 -1.539895 0.222704 -0.138846
    40 -1.475769 -0.078095 0.000169 -0.012829 -0.011772 0.171917
    41 -1.026157 -0.090011 0.000485 -0.021107 -0.000488 0.194651
    42 0.000011 -0.000005 0.000005 0.000001 0.000000 0.000002
    43 -3.500000 -0.036835 0.048981 -2.365236 1.199961 -0.630022
    44 -1.796978 0.035211 -0.000272 0.005346 0.017460 0.944188
    45 -1.064400 0.050737 0.000060 0.001999 0.009296 0.927504
    46 -0.622559 -1.148438 0.271729 0.510052 -0.369454 -3.081442
    47 2.299598 -0.046999 -0.039275 -1.434326 0.676017 3.245985
    48 -1.126293 0.000032 -0.000530 0.010400 0.060902 0.791676
    49 -0.744038 0.027625 -0.000319 0.023194 0.013817 1.033487
    50 -1.092869 -0.631712 -0.052075 0.424525 -0.213978 -3.080704
    51 2.091797 -0.022461 0.047028 -1.472426 0.986732 -2.927360
    52 -1.649458 0.000034 -0.000234 -0.001702 0.006743 0.868887
    53 -0.867818 0.027465 -0.000154 -0.003187 0.007495 0.949150
    54 -0.307129 1.351563 -0.098999 0.594761 0.903908 -0.508228
    55 -2.324219 -0.003731 0.001054 -0.091009 0.054906 0.391015
    56 -1.163233 -0.000050 0.000118 0.234347 0.178902 0.761924
    57 -7.461309 -0.000360 -0.000409 0.246365 0.000204 -0.000002
    58 -6.216462 -0.000299 -0.000346 0.203346 0.000156 -0.000002
    59 -4.971604 -0.000237 -0.000273 0.160377 0.000132 -0.000002
    60 -3.730654 -0.000177 -0.000206 0.120326 0.000084 -0.000002
    61 -2.474082 -0.000122 -0.000138 0.080127 0.000048 -0.000002
    62 -1.237041 -0.000058 -0.000072 0.040111 0.000024 -0.000001
    63 -8.702259 -0.000423 -0.000477 0.286562 0.000228 0.000030
    64 0.000002 0.000000 0.000000 -0.000001 0.000000 0.000002
    65 0.000000 3.000000 5.000000 0.000000 0.000000 -3.141592
    66 -0.000003 0.399414 0.000000 0.000000 0.000000 0.000000
    67 -0.000001 -0.000002 0.000001 0.000000 0.000000 0.000001
    68 0.000006 0.000001 0.000001 1.221730 -0.087267 0.174533
    69 0.000000 -0.000004 -0.000001 0.000000 0.000000 0.000001
    70 0.000002 -0.000006 0.000000 0.000001 0.000000 0.000000
    71 -0.000008 0.000011 0.000000 0.000001 0.000000 0.000001
    72 0.000008 0.000003 0.000000 3.141592 -0.000001 -0.000001
    73 0.000004 0.000000 -0.000002 3.141591 0.000000 -0.000001
    74 -0.000004 -0.000006 -0.000008 3.141592 0.000000 0.000000
    75 0.000004 -0.000004 0.000002 3.141592 -0.000001 0.000000
    76 -0.000002 0.000002 0.000003 3.141592 0.000000 0.000000
    77 -0.000004 0.000006 0.000000 3.141592 0.000000 0.000000
    78 0.000003 -0.099915 -0.099915 -3.141593 0.000000 -0.000001
    79 -0.099976 -0.099915 -0.099915 3.141592 0.000000 0.000000
    80 -0.099976 -0.099976 -0.099915 3.141593 0.000000 0.000000
    81 -0.099854 -0.119934 -0.099915 3.141593 -0.000001 0.000000
    82 -0.099976 -0.119751 -0.099915 3.141593 0.000000 0.000000
    83 -0.099976 -0.119812 -0.099854 3.141592 0.000000 0.000000
    84 0.000000 0.000000 0.000000 0.000000 0.000000 -3.141593
    85 0.000001 0.000001 0.000000 0.000000 0.000000 -3.141593
    86 0.000002 -0.000004 0.000000 -1.570797 0.087267 -3.054326
    87 0.000000 0.000006 -0.000001 -0.000001 0.000000 -3.141593
    88 -0.000002 0.000011 0.000000 -0.000001 0.000000 -3.141593
    89 0.000002 0.000006 0.000000 -0.000001 0.000000 -3.141593
    90 -0.000004 -0.000002 0.000006 -3.141592 0.000001 3.141593
    91 0.000000 -0.000008 -0.000007 -3.141592 0.000000 3.141593
    92 0.000001 0.000008 0.000002 -3.141592 0.000000 3.141593
    93 -0.000006 0.000002 0.000004 -3.141593 0.000000 3.141593
    94 0.000000 0.000002 -0.000002 -3.141592 0.000000 -3.141592
    95 0.000006 0.000004 0.000002 -3.141592 0.000000 -3.141593
    96 0.099915 0.199829 0.099976 -3.141592 0.000000 -3.141593
    97 0.099976 0.199829 0.099854 -3.141593 0.000000 3.141593
    98 0.099976 0.199707 0.099915 -3.141592 -0.000001 3.141593
    99 -0.000004 0.119934 0.099915 -3.141592 0.000000 -3.141593
    100 0.000000 0.119934 0.099915 3.141593 0.000000 -3.141593
    101 0.000000 0.119812 0.099915 -3.141593 0.000000 3.141593
    102 13.885596 -4.452460 -7.168176 -0.022886 0.009932 0.039007
    103 0.000000 0.000000 0.000000 0.000000 0.000000 0.000000
    104 4.527344 0.000000 3.685547 0.000000 0.000000 0.000000
    105 0.000000 0.000001 0.000003 -0.000036 -0.610853 -1.570561
    106 4.277344 -0.000001 0.849121 0.000000 0.000000 0.000000
    107 5.542969 0.000000 0.000003 0.000000 0.000000 0.000000
    108 3.455010 0.000004 2.018000 0.000010 0.000000 0.000007
    109 -2.088972 -3.614023 0.605963 0.000010 0.000000 0.000007
    110 -1.971998 -0.000010 -0.796001 0.000011 -0.204731 0.000006
    111 -1.971998 -0.000010 -0.796001 0.000011 -0.204731 0.000006
    112 -5.858999 0.072452 2.682749 0.000000 0.000000 0.000000
    113 12.500000 -0.000002 3.259766 0.000000 0.000000 0.000000
    114 10.230598 0.000000 4.378193 0.000000 0.000000 0.000000
  time 6
    0 0.000000 3.000000 -21.796875 0.000000 0.000000 -1.570796
    1 0.000000 0.000000 0.000000 0.000000 0.000000 0.000000
    2 -0.423340 0.000000 22.046875 0.000000 0.000000 0.000000
    3 6.499285 8.263722 -11.437196 -1.110406 -0.026812 -0.543768
    4 10.889977 -0.000888 0.000756 0.000003 -0.000014 -0.607564
    5 -0.000001 -0.000005 0.000000 -0.000003 0.000000 0.000002
    6 9.946373 0.000528 0.003160 -1.517299 -0.109522 0.635509
    7 3.503906 -1.087891 0.078308 0.000001 0.000000 0.000003
    8 0.003908 -0.003912 -0.039060 -1.589451 0.477430 0.546438
    9 1.459961 -0.057831 -0.014801 -0.016274 -0.089382 0.963684
    10 0.991699 -0.047150 0.019455 0.071933 0.073855 1.024964
    11 0.000002 -0.000006 0.000003 0.000000 0.000000 -0.000001
    12 3.433184 0.098089 0.037807 -1.807530 0.878657 0.441425
    13 1.789764 -0.105543 -0.000299 -0.055834 0.099375 1.332643
    14 1.068268 0.054735 0.000067 -0.026226 -0.015560 0.461033
    15 0.684158 1.201779 -0.284691 -1.516298 0.320846 -0.016797
    16 2.100106 0.074746 -0.000731 -0.991523 0.117754 0.955299
    17 1.123536 -0.000010 -0.000273 0.019396 -0.040905 1.034587
    18 0.728797 -0.007960 -0.004063 -0.073649 -0.094606 0.722358
    19 1.108739 0.631720 0.051816 -1.576311 0.167775 -0.030462
    20 2.061992 0.027745 0.058016 -0.838902 -0.185496 1.040251
    21 1.630142 -0.011790 -0.000628 0.007038 0.023330 1.269063
    22 0.879396 0.109039 -0.000362 -0.150696 0.012303 0.333012
    23 0.167603 -1.422852 0.160034 0.154849 0.576956 -0.280227
    24 2.292104 -0.000013 0.000021 -0.198574 -0.224315 0.072231
    25 1.260631 0.000051 0.027459 0.412351 -0.121875 -0.126946
    26 7.463686 0.000397 -0.000564 -1.305619 -0.000947 0.000373
    27 6.218438 0.000326 -0.000468 -1.077642 -0.000767 0.000241
    28 4.973189 0.000256 -0.000375 -0.850044 -0.000623 0.000121
    29 3.724030 0.000196 -0.000280 -0.637175 -0.000455 0.000049
    30 2.490498 0.000126 -0.000185 -0.426669 -0.000372 0.000001
    31 1.241342 0.000063 -0.000090 -0.212310 -0.000168 0.000002
    32 8.705027 0.000462 -0.000662 -1.517296 -0.001019 0.000564
    33 0.000002 0.000004 0.000002 -0.000001 0.000000 0.000001
    34 -1.145480 -8.119186 -4.491672 1.257805 -1.154450 3.520885
    35 -10.882861 0.000870 0.000965 0.000189 0.000080 -1.878553
    36 -0.000002 -0.000012 -0.000010 -0.000002 0.000000 -0.000001
    37 -9.958829 -0.000484 -0.000551 0.236734 -0.113818 0.743739
    38 -3.500000 1.087891 -0.078369 0.000001 0.000000 -0.000004
    39 0.000011 0.175782 0.000005 -1.539907 0.222704 -0.138834
    40 -1.483581 -0.074189 0.000169 -0.012817 -0.011820 0.171905
    41 -1.026157 -0.086104 0.000485 -0.021107 -0.000488 0.194651
    42 0.000011 -0.000005 0.000005 0.000001 0.000000 0.000002
    43 -3.500000 -0.036835 0.048981 -2.365236 1.199961 -0.630022
    44 -1.793072 0.031304 -0.000272 0.005346 0.017460 0.944153
    45 -1.056587 0.042924 0.000060 0.001999 0.009296 0.927504
    46 -0.622559 -1.148438 0.271729 0.510052 -0.369454 -3.081442
    47 2.295692 -0.054812 -0.047088 -1.434386 0.675909 3.245793
    48 -1.130199 0.000032 -0.000530 0.010400 0.060914 0.791712
    49 -0.747944 0.031531 -0.000319 0.023194 0.013805 1.033487
    50 -1.096776 -0.631712 -0.052075 0.424537 -0.213978 -3.080704
    51 2.091797 -0.022461 0.047028 -1.472426 0.986732 -2.927360
    52 -1.649458 0.000034 -0.000234 -0.001690 0.006755 0.868887
    53 -0.863912 0.027465 -0.000154 -0.003187 0.007507 0.949150
    54 -0.307129 1.351563 -0.098999 0.594761 0.903908 -0.508228
    55 -2.324219 -0.003731 0.001054 -0.091009 0.054906 0.391015
    56 -1.163233 -0.000050 0.000118 0.234347 0.178938 0.761924
    57 -7.457403 -0.000360 -0.000409 0.203387 0.000168 -0.000002
    58 -6.204743 -0.000299 -0.000346 0.167973 0.000132 -0.000002
    59 -4.963791 -0.000237 -0.000273 0.132497 0.000108 -0.000002
    60 -3.722841 -0.000177 -0.000206 0.099377 0.000084 -0.000002
    61 -2.477988 -0.000122 -0.000138 0.066165 0.000060 -0.000002
    62 -1.240947 -0.000058 -0.000072 0.033148 0.000036 -0.000001
    63 -8.698353 -0.000423 -0.000477 0.236666 0.000204 0.000018
    64 0.000002 0.000000 0.000000 -0.000001 0.000000 0.000002
    65 0.000000 3.000000 5.000000 0.000000 0.000000 -3.141592
    66 -0.000003 0.399414 0.000000 0.000000 0.000000 0.000000
    67 -0.000001 -0.000002 0.000001 0.000000 0.000000 0.000001
    68 0.000006 0.000001 0.000001 1.221730 -0.087267 0.174533
    69 0.000000 -0.000004 -0.000001 0.000000 0.000000 0.000001
    70 0.000002 -0.000006 0.000000 0.000001 0.000000 0.000000
    71 -0.000008 0.000011 0.000000 0.000001 0.000000 0.000001
    72 0.000008 0.000003 0.000000 3.141592 -0.000001 -0.000001
    73 0.000004 0.000000 -0.000002 3.141591 0.000000 -0.000001
    74 -0.000004 -0.000006 -0.000008 3.141592 0.000000 0.000000
    75 0.000004 -0.000004 0.000002 3.141592 -0.000001 0.000000
    76 -0.000002 0.000002 0.000003 3.141592 0.000000 0.000000
    77 -0.000004 0.000006 0.000000 3.141592 0.000000 0.000000
    78 0.000003 -0.099915 -0.099915 -3.141593 0.000000 -0.000001
    79 -0.099976 -0.099915 -0.099915 3.141592 0.000000 0.000000
    80 -0.099976 -0.099976 -0.099915 3.141593 0.000000 0.000000
    81 -0.099854 -0.119934 -0.099915 3.141593 -0.000001 0.000000
    82 -0.099976 -0.119751 -0.099915 3.141593 0.000000 0.000000
    83 -0.099976 -0.119812 -0.099854 3.141592 0.000000 0.000000
    84 0.000000 0.000000 0.000000 0.000000 0.000000 -3.141593
    85 0.000001 0.000001 0.000000 0.000000 0.000000 -3.141593
    86 0.000002 -0.000004 0.000000 -1.570797 0.087267 -3.054326
    87 0.000000 0.000006 -0.000001 -0.000001 0.000000 -3.141593
    88 -0.000002 0.000011 0.000000 -0.000001 0.000000 -3.141593
    89 0.000002 0.000006 0.000000 -0.000001 0.000000 -3.141593
    90 -0.000004 -0.000002 0.000006 -3.141592 0.000001 3.141593
    91 0.000000 -0.000008 -0.000007 -3.141592 0.000000 3.141593
    92 0.000001 0.000008 0.000002 -3.141592 0.000000 3.141593
    93 -0.000006 0.000002 0.000004 -3.141593 0.000000 3.141593
    94 0.000000 0.000002 -0.000002 -3.141592 0.000000 -3.141592
    95 0.000006 0.000004 0.000002 -3.141592 0.000000 -3.141593
    96 0.099915 0.199829 0.099976 -3.141592 0.000000 -3.141593
    97 0.099976 0.199829 0.099854 -3.141593 0.000000 3.141593
    98 0.099976 0.199707 0.099915 -3.141592 -0.000001 3.141593
    99 -0.000004 0.119934 0.099915 -3.141592 0.000000 -3.141593
    100 0.000000 0.119934 0.099915 3.141593 0.000000 -3.141593
    101 0.000000 0.119812 0.099915 -3.141593 0.000000 3.141593
    102 14.287952 -4.893880 -7.078330 0.000000 -0.007976 0.000000
    103 0.000000 0.000000 0.000000 0.000000 0.000000 0.000000
    104 4.527344 0.000000 3.685547 0.000000 0.000000 0.000000
    105 0.000000 0.000001 0.000003 -0.000036 -0.610853 -1.570561
    106 4.277344 -0.000001 0.849121 0.000000 0.000000 0.000000
    107 5.542969 0.000000 0.000003 0.000000 0.000000 0.000000
    108 3.455010 0.000004 2.018000 0.000010 0.000000 0.000007
    109 -2.088972 -3.614023 0.605963 0.000010 0.000000 0.000007
    110 -1.971998 -0.000010 -0.796001 0.000011 -0.204731 0.000006
    111 -1.971998 -0.000010 -0.796001 0.000011 -0.204731 0.000006
    112 -5.858999 0.072452 2.682749 0.000000 0.000000 0.000000
    113 12.500000 -0.000002 3.259766 0.000000 0.000000 0.000000
    114 10.230598 0.000000 4.378193 0.000000 0.000000 0.000000
  time 7
    0 0.000000 3.000000 -21.796875 0.000000 0.000000 -1.570796
    1 0.000000 0.000000 0.000000 0.000000 0.000000 0.000000
    2 -0.423340 0.000000 22.046875 0.000000 0.000000 0.000000
    3 5.659416 8.205127 -11.437196 -1.107364 0.003391 -0.533267
    4 10.889977 -0.000888 0.000756 0.000003 -0.000014 -0.681076
    5 -0.000001 -0.000005 0.000000 -0.000003 0.000000 0.000002
    6 9.954186 0.000528 -0.000746 -1.509400 -0.105684 0.689731
    7 3.503906 -1.087891 0.078308 0.000001 0.000000 0.000003
    8 0.007815 -0.000006 -0.039060 -1.589512 0.477457 0.546484
    9 1.459961 -0.057831 -0.014801 -0.016274 -0.089382 0.963684
    10 0.991699 -0.047150 0.019455 0.071933 0.073855 1.024964
    11 0.000002 -0.000006 0.000003 0.000000 0.000000 -0.000001
    12 3.433184 0.098089 0.041713 -1.807530 0.878657 0.441473
    13 1.797577 -0.101636 -0.000299 -0.055870 0.099375 1.332643
    14 1.072174 0.054735 0.000067 -0.026238 -0.015560 0.461033
    15 0.684158 1.201779 -0.284691 -1.516298 0.320846 -0.016783
    16 2.100106 0.066933 -0.000731 -0.991439 0.117685 0.955299
    17 1.123536 -0.000010 -0.000273 0.019396 -0.040857 1.034587
    18 0.728797 -0.004053 -0.000156 -0.073649 -0.094606 0.722358
    19 1.104833 0.631720 0.051816 -1.576311 0.167775 -0.030462
    20 2.061992 0.031651 0.061922 -0.838902 -0.185496 1.040251
    21 1.630142 -0.000071 -0.000628 0.007038 0.023342 1.269063
    22 0.879396 0.109039 -0.000362 -0.150696 0.012279 0.332956
    23 0.167603 -1.422852 0.160034 0.154849 0.576956 -0.280227
    24 2.292104 -0.000013 0.000021 -0.198562 -0.224315 0.072231
    25 1.256724 0.000051 0.019646 0.412364 -0.121875 -0.126946
    26 7.467592 0.000397 -0.000564 -1.297369 -0.000947 0.000373
    27 6.218438 0.000326 -0.000468 -1.071408 -0.000767 0.000241
    28 4.973189 0.000256 -0.000375 -0.844849 -0.000623 0.000121
    29 3.724030 0.000196 -0.000280 -0.633541 -0.000467 0.000025
    30 2.490498 0.000126 -0.000185 -0.423334 -0.000372 0.000001
    31 1.237436 0.000063 -0.000090 -0.211256 -0.000180 0.000002
    32 8.708933 0.000462 0.003245 -1.508642 -0.001019 0.000564
    33 0.000002 0.000004 0.000002 -0.000001 0.000000 0.000001
    34 -1.145480 -8.119186 -4.491672 1.144366 -1.228394 3.646219
    35 -10.886767 0.000870 0.000965 0.000165 0.000128 -1.999188
    36 -0.000002 -0.000012 -0.000010 -0.000002 0.000000 -0.000001
    37 -9.958829 -0.000484 -0.000551 0.231585 -0.124542 0.785781
    38 -3.500000 1.087891 -0.078369 0.000001 0.000000 -0.000004
    39 0.003918 0.171875 0.000005 -1.539895 0.222704 -0.138834
    40 -1.479675 -0.074189 0.000169 -0.012817 -0.011808 0.171917
    41 -1.022251 -0.086104 0.000485 -0.021107 -0.000476 0.194675
    42 0.000011 -0.000005 0.000005 0.000001 0.000000 0.000002
    43 -3.500000 -0.036835 0.048981 -2.365236 1.199961 -0.630022
    44 -1.800885 0.031304 -0.000272 0.005346 0.017448 0.944117
    45 -1.068306 0.039018 0.000060 0.001999 0.009296 0.927504
    46 -0.622559 -1.148438 0.271729 0.510052 -0.369454 -3.081442
    47 2.291785 -0.050906 -0.043182 -1.434458 0.675813 3.245649
    48 -1.130199 0.000032 -0.000530 0.010400 0.060914 0.791688
    49 -0.747944 0.035438 -0.000319 0.023194 0.013805 1.033487
    50 -1.096776 -0.635618 -0.052075 0.424525 -0.213978 -3.080704
    51 2.091797 -0.022461 0.047028 -1.472426 0.986732 -2.927360
    52 -1.649458 0.000034 -0.000234 -0.001690 0.006755 0.868887
    53 -0.863912 0.031371 -0.000154 -0.003199 0.007495 0.949150
    54 -0.307129 1.351563 -0.098999 0.594761 0.903908 -0.508228
    55 -2.324219 -0.003731 0.001054 -0.091009 0.054906 0.391015
    56 -1.163233 -0.000050 0.000118 0.234359 0.178914 0.761924
    57 -7.465215 -0.000360 -0.000409 0.199890 0.000168 -0.000002
    58 -6.220368 -0.000299 -0.000346 0.165132 0.000144 -0.000002
    59 -4.975510 -0.000237 -0.000273 0.130238 0.000120 -0.000002
    60 -3.726747 -0.000177 -0.000206 0.097669 0.000084 -0.000002
    61 -2.481894 -0.000122 -0.000138 0.065099 0.000060 -0.000002
    62 -1.244854 -0.000058 -0.000072 0.032489 0.000024 -0.000001
    63 -8.706165 -0.000423 -0.000477 0.232568 0.000204 0.000018
    64 0.000002 0.000000 0.000000 -0.000001 0.000000 0.000002
    65 0.000000 3.000000 5.000000 0.000000 0.000000 -3.141592
    66 -0.000003 0.399414 0.000000 0.000000 0.000000 0.000000
    67 -0.000001 -0.000002 0.000001 0.000000 0.000000 0.000001
    68 0.000006 0.000001 0.000001 1.221730 -0.087267 0.174533
    69 0.000000 -0.000004 -0.000001 0.000000 0.000000 0.000001
    70 0.000002 -0.000006 0.000000 0.000001 0.000000 0.000000
    71 -0.000008 0.000011 0.000000 0.000001 0.000000 0.000001
    72 0.000008 0.000003 0.000000 3.141592 -0.000001 -0.000001
    73 0.000004 0.000000 -0.000002 3.141591 0.000000 -0.000001
    74 -0.000004 -0.000006 -0.000008 3.141592 0.000000 0.000000
    75 0.000004 -0.000004 0.000002 3.141592 -0.000001 0.000000
    76 -0.000002 0.000002 0.000003 3.141592 0.000000 0.000000
    77 -0.000004 0.000006 0.000000 3.141592 0.000000 0.000000
    78 0.000003 -0.099915 -0.099915 -3.141593 0.000000 -0.000001
    79 -0.099976 -0.099915 -0.099915 3.141592 0.000000 0.000000
    80 -0.099976 -0.099976 -0.099915 3.141593 0.000000 0.000000
    81 -0.099854 -0.119934 -0.099915 3.141593 -0.000001 0.000000
    82 -0.099976 -0.119751 -0.099915 3.141593 0.000000 0.000000
    83 -0.099976 -0.119812 -0.099854 3.141592 0.000000 0.000000
    84 0.000000 0.000000 0.000000 0.000000 0.000000 -3.141593
    85 0.000001 0.000001 0.000000 0.000000 0.000000 -3.141593
    86 0.000002 -0.000004 0.000000 -1.570797 0.087267 -3.054326
    87 0.000000 0.000006 -0.000001 -0.000001 0.000000 -3.141593
    88 -0.000002 0.000011 0.000000 -0.000001 0.000000 -3.141593
    89 0.000002 0.000006 0.000000 -0.000001 0.000000 -3.141593
    90 -0.000004 -0.000002 0.000006 -3.141592 0.000001 3.141593
    91 0.000000 -0.000008 -0.000007 -3.141592 0.000000 3.141593
    92 0.000001 0.000008 0.000002 -3.141592 0.000000 3.141593
    93 -0.000006 0.000002 0.000004 -3.141593 0.000000 3.141593
    94 0.000000 0.000002 -0.000002 -3.141592 0.000000 -3.141592
    95 0.000006 0.000004 0.000002 -3.141592 0.000000 -3.141593
    96 0.099915 0.199829 0.099976 -3.141592 0.000000 -3.141593
    97 0.099976 0.199829 0.099854 -3.141593 0.000000 3.141593
    98 0.099976 0.199707 0.099915 -3.141592 -0.000001 3.141593
    99 -0.000004 0.119934 0.099915 -3.141592 0.000000 -3.141593
    100 0.000000 0.119934 0.099915 3.141593 0.000000 -3.141593
    101 0.000000 0.119812 0.099915 -3.141593 0.000000 3.141593
    102 13.186356 -4.858723 -7.105674 0.018044 -0.000722 -0.001485
    103 0.000000 0.000000 0.000000 0.000000 0.000000 0.000000
    104 4.527344 0.000000 3.685547 0.000000 0.000000 0.000000
    105 0.000000 0.000001 0.000003 -0.000036 -0.610853 -1.570561
    106 4.277344 -0.000001 0.849121 0.000000 0.000000 0.000000
    107 5.542969 0.000000 0.000003 0.000000 0.000000 0.000000
    108 3.455010 0.000004 2.018000 0.000010 0.000000 0.000007
    109 -2.088972 -3.614023 0.605963 0.000010 0.000000 0.000007
    110 -1.971998 -0.000010 -0.796001 0.000011 -0.204731 0.000006
    111 -1.971998 -0.000010 -0.796001 0.000011 -0.204731 0.000006
    112 -5.858999 0.072452 2.682749 0.000000 0.000000 0.000000
    113 12.500000 -0.000002 3.259766 0.000000 0.000000 0.000000
    114 10.230598 0.000000 4.378193 0.000000 0.000000 0.000000
  time 8
    0 0.000000 3.000000 -21.796875 0.000000 0.000000 -1.570796
    1 0.000000 0.000000 0.000000 0.000000 0.000000 0.000000
    2 -0.423340 0.000000 22.046875 0.000000 0.000000 0.000000
    3 4.819546 8.146531 -11.437196 -1.103992 0.030417 -0.524835
    4 10.901696 -0.000888 0.000756 0.000003 -0.000014 -0.747394
    5 -0.000001 -0.000005 0.000000 -0.000003 0.000000 0.000002
    6 9.950280 0.004435 0.010973 -1.500059 -0.102466 0.740076
    7 3.503906 -1.087891 0.078308 0.000001 0.000000 0.000003
    8 0.003908 -0.000006 -0.039060 -1.589451 0.477457 0.546393
    9 1.459961 -0.057831 -0.014801 -0.016274 -0.089382 0.963684
    10 0.991699 -0.047150 0.019455 0.071933 0.073855 1.024964
    11 0.000002 -0.000006 0.000003 0.000000 0.000000 -0.000001
    12 3.429277 0.098089 0.041713 -1.807474 0.878657 0.441425
    13 1.797577 -0.101636 -0.000299 -0.055846 0.099387 1.332643
    14 1.068268 0.050829 0.000067 -0.026238 -0.015560 0.460999
    15 0.691971 1.193966 -0.284691 -1.516298 0.320846 -0.016769
    16 2.107919 0.074746 -0.000731 -0.991356 0.117564 0.955320
    17 1.123536 -0.000010 -0.000273 0.019396 -0.040893 1.034587
    18 0.728797 -0.011866 -0.004063 -0.073613 -0.094606 0.722358
    19 1.104833 0.635626 0.051816 -1.575592 0.167811 -0.030354
    20 2.073711 0.027745 0.050203 -0.838923 -0.185496 1.040214
    21 1.634048 -0.007883 -0.000628 0.007038 0.023342 1.269063
    22 0.879396 0.109039 -0.000362 -0.150696 0.012279 0.332984
    23 0.167603 -1.422852 0.160034 0.154849 0.576956 -0.280227
    24 2.292104 -0.000013 0.000021 -0.198562 -0.224315 0.072231
    25 1.260631 0.000051 0.011834 0.412364 -0.121875 -0.126946
    26 7.471498 0.000397 0.003342 -1.289550 -0.000959 0.000373
    27 6.218438 0.000326 0.007345 -1.065130 -0.000803 0.000229
    28 4.973189 0.000256 -0.000375 -0.839865 -0.000623 0.000121
    29 3.731843 0.000196 -0.000280 -0.629907 -0.000467 0.000049
    30 2.490498 0.000126 -0.000185 -0.419998 -0.000372 0.000001
    31 1.237436 0.000063 -0.000090 -0.210057 -0.000180 0.000002
    32 8.716746 0.004368 0.007151 -1.499863 -0.001019 0.000564
    33 0.000002 0.000004 0.000002 -0.000001 0.000000 0.000001
    34 -1.145480 -8.119186 -4.491672 0.967453 -1.295619 3.837258
    35 -10.886767 0.000870 0.000965 0.000201 0.000104 -2.114482
    36 -0.000002 -0.000012 -0.000010 -0.000002 0.000000 -0.000001
    37 -9.962735 -0.000484 -0.000551 0.228469 -0.136696 0.818664
    38 -3.500000 1.087891 -0.078369 0.000001 0.000000 -0.000004
    39 0.007824 0.171875 0.000005 -1.539895 0.222704 -0.138834
    40 -1.475769 -0.074189 0.000169 -0.012817 -0.011808 0.171905
    41 -1.026157 -0.086104 0.000485 -0.021107 -0.000476 0.194651
    42 0.000011 -0.000005 0.000005 0.000001 0.000000 0.000002
    43 -3.500000 -0.036835 0.048981 -2.365236 1.199961 -0.630022
    44 -1.800885 0.031304 -0.000272 0.005346 0.017448 0.944057
    45 -1.056587 0.046831 0.000060 0.001999 0.009296 0.927504
    46 -0.622559 -1.148438 0.271729 0.510052 -0.369454 -3.081442
    47 2.299598 -0.054812 -0.039275 -1.434254 0.676089 3.246153
    48 -1.126293 0.000032 -0.000530 0.010400 0.060914 0.791652
    49 -0.747944 0.031531 -0.000319 0.023194 0.013805 1.033499
    50 -1.096776 -0.631712 -0.052075 0.424525 -0.213978 -3.080704
    51 2.091797 -0.022461 0.047028 -1.472426 0.986732 -2.927360
    52 -1.649458 0.000034 -0.000234 -0.001690 0.006755 0.868887
    53 -0.863912 0.031371 -0.000154 -0.003199 0.007495 0.949150
    54 -0.307129 1.351563 -0.098999 0.594761 0.903908 -0.508228
    55 -2.324219 -0.003731 0.001054 -0.091009 0.054906 0.391015
    56 -1.163233 -0.000050 0.000118 0.234359 0.178950 0.761924
    57 -7.465215 -0.000360 -0.000409 0.196365 0.000180 -0.000002
    58 -6.224275 -0.000299 -0.000346 0.162221 0.000156 -0.000002
    59 -4.975510 -0.000237 -0.000273 0.127979 0.000120 -0.000002
    60 -3.730654 -0.000177 -0.000206 0.095975 0.000084 -0.000002
    61 -2.481894 -0.000122 -0.000138 0.063912 0.000048 -0.000002
    62 -1.233135 -0.000058 -0.000072 0.031913 0.000024 -0.000001
    63 -8.702259 -0.000423 -0.000477 0.228503 0.000192 0.000018
    64 0.000002 0.000000 0.000000 -0.000001 0.000000 0.000002
    65 0.000000 3.000000 5.000000 0.000000 0.000000 -3.141592
    66 -0.000003 0.399414 0.000000 0.000000 0.000000 0.000000
    67 -0.000001 -0.000002 0.000001 0.000000 0.000000 0.000001
    68 0.000006 0.000001 0.000001 1.221730 -0.087267 0.174533
    69 0.000000 -0.000004 -0.000001 0.000000 0.000000 0.000001
    70 0.000002 -0.000006 0.000000 0.000001 0.000000 0.000000
    71 -0.000008 0.000011 0.000000 0.000001 0.000000 0.000001
    72 0.000008 0.000003 0.000000 3.141592 -0.000001 -0.000001
    73 0.000004 0.000000 -0.000002 3.141591 0.000000 -0.000001
    74 -0.000004 -0.000006 -0.000008 3.141592 0.000000 0.000000
    75 0.000004 -0.000004 0.000002 3.141592 -0.000001 0.000000
    76 -0.000002 0.000002 0.000003 3.141592 0.000000 0.000000
    77 -0.000004 0.000006 0.000000 3.141592 0.000000 0.000000
    78 0.000003 -0.099915 -0.099915 -3.141593 0.000000 -0.000001
    79 -0.099976 -0.099915 -0.099915 3.141592 0.000000 0.000000
    80 -0.099976 -0.099976 -0.099915 3.141593 0.000000 0.000000
    81 -0.099854 -0.119934 -0.099915 3.141593 -0.000001 0.000000
    82 -0.099976 -0.119751 -0.099915 3.141593 0.000000 0.000000
    83 -0.099976 -0.119812 -0.099854 3.141592 0.000000 0.000000
    84 0.000000 0.000000 0.000000 0.000000 0.000000 -3.141593
    85 0.000001 0.000001 0.000000 0.000000 0.000000 -3.141593
    86 0.000002 -0.000004 0.000000 -1.570797 0.087267 -3.054326
    87 0.000000 0.000006 -0.000001 -0.000001 0.000000 -3.141593
    88 -0.000002 0.000011 0.000000 -0.000001 0.000000 -3.141593
    89 0.000002 0.000006 0.000000 -0.000001 0.000000 -3.141593
    90 -0.000004 -0.000002 0.000006 -3.141592 0.000001 3.141593
    91 0.000000 -0.000008 -0.000007 -3.141592 0.000000 3.141593
    92 0.000001 0.000008 0.000002 -3.141592 0.000000 3.141593
    93 -0.000006 0.000002 0.000004 -3.141593 0.000000 3.141593
    94 0.000000 0.000002 -0.000002 -3.141592 0.000000 -3.141592
    95 0.000006 0.000004 0.000002 -3.141592 0.000000 -3.141593
    96 0.099915 0.199829 0.099976 -3.141592 0.000000 -3.141593
    97 0.099976 0.199829 0.099854 -3.141593 0.000000 3.141593
    98 0.099976 0.199707 0.099915 -3.141592 -0.000001 3.141593
    99 -0.000004 0.119934 0.099915 -3.141592 0.000000 -3.141593
    100 0.000000 0.119934 0.099915 3.141593 0.000000 -3.141593
    101 0.000000 0.119812 0.099915 -3.141593 0.000000 3.141593
    102 12.073040 -4.831378 -7.133019 0.036145 0.006571 -0.002936
    103 0.000000 0.000000 0.000000 0.000000 0.000000 0.000000
    104 4.527344 0.000000 3.685547 0.000000 0.000000 0.000000
    105 0.000000 0.000001 0.000003 -0.000036 -0.610853 -1.570561
    106 4.277344 -0.000001 0.849121 0.000000 0.000000 0.000000
    107 5.542969 0.000000 0.000003 0.000000 0.000000 0.000000
    108 3.455010 0.000004 2.018000 0.000010 0.000000 0.000007
    109 -2.088972 -3.614023 0.605963 0.000010 0.000000 0.000007
    110 -1.971998 -0.000010 -0.796001 0.000011 -0.204731 0.000006
    111 -1.971998 -0.000010 -0.796001 0.000011 -0.204731 0.000006
    112 -5.858999 0.072452 2.682749 0.000000 0.000000 0.000000
    113 12.500000 -0.000002 3.259766 0.000000 0.000000 0.000000
    114 10.230598 0.000000 4.378193 0.000000 0.000000 0.000000
  time 9
    0 0.000000 3.000000 -21.796875 0.000000 0.000000 -1.570796
    1 0.000000 0.000000 0.000000 0.000000 0.000000 0.000000
    2 -0.423340 0.000000 22.046875 0.000000 0.000000 0.000000
    3 4.819546 8.146531 -11.437196 -1.110443 -0.005238 -0.531305
    4 10.889977 -0.000888 0.000756 0.000003 -0.000014 -0.657189
    5 -0.000001 -0.000005 0.000000 -0.000003 0.000000 0.000002
    6 9.950280 0.000528 -0.000746 -1.537360 -0.110530 0.661897
    7 3.503906 -1.087891 0.078308 0.000001 0.000000 0.000003
    8 0.007815 -0.000006 -0.039060 -1.589451 0.477430 0.546393
    9 1.459961 -0.057831 -0.014801 -0.016274 -0.089382 0.963684
    10 0.991699 -0.047150 0.019455 0.071933 0.073855 1.024964
    11 0.000002 -0.000006 0.000003 0.000000 0.000000 -0.000001
    12 3.425371 0.101995 0.037807 -1.807530 0.878657 0.441425
    13 1.793671 -0.105543 -0.000299 -0.055882 0.099387 1.332643
    14 1.072174 0.054735 0.000067 -0.026250 -0.015560 0.460999
    15 0.688065 1.201779 -0.284691 -1.516298 0.320846 -0.016755
    16 2.107919 0.078652 -0.000731 -0.991244 0.117495 0.955342
    17 1.127443 -0.000010 -0.000273 0.019396 -0.040905 1.034587
    18 0.728797 -0.011866 -0.004063 -0.073649 -0.094606 0.722358
    19 1.108739 0.631720 0.051816 -1.574885 0.167811 -0.030258
    20 2.058086 0.031651 0.061922 -0.838902 -0.185496 1.040251
    21 1.634048 -0.000071 -0.000628 0.007038 0.023354 1.269063
    22 0.879396 0.109039 -0.000362 -0.150696 0.012279 0.332928
    23 0.167603 -1.422852 0.160034 0.154849 0.576956 -0.280227
    24 2.292104 -0.000013 0.000021 -0.198574 -0.224315 0.072219
    25 1.256724 0.000051 0.015740 0.412364 -0.121887 -0.126946
    26 7.467592 0.000397 0.003342 -1.322874 -0.000971 0.000373
    27 6.218438 0.000326 -0.000468 -1.091222 -0.000815 0.000241
    28 4.973189 0.000256 -0.000375 -0.861171 -0.000623 0.000121
    29 3.731843 0.000196 -0.000280 -0.645839 -0.000467 0.000037
    30 2.490498 0.000126 -0.000185 -0.430531 -0.000348 0.000001
    31 1.237436 0.000063 -0.000090 -0.215223 -0.000180 0.000002
    32 8.708933 0.000462 0.003245 -1.537676 -0.001031 0.000576
    33 0.000002 0.000004 0.000002 -0.000001 0.000000 0.000001
    34 -1.145480 -8.119186 -4.491672 1.096473 -1.264717 3.696817
    35 -10.878955 0.000870 0.000965 0.000165 0.000104 -2.077555
    36 -0.000002 -0.000012 -0.000010 -0.000002 0.000000 -0.000001
    37 -9.958829 -0.004391 -0.000551 0.267662 -0.123041 0.825437
    38 -3.500000 1.087891 -0.078369 0.000001 0.000000 -0.000004
    39 0.003918 0.175782 0.000005 -1.539895 0.222716 -0.138822
    40 -1.475769 -0.070282 0.000169 -0.012817 -0.011820 0.171905
    41 -1.033970 -0.090011 0.000485 -0.021107 -0.000476 0.194663
    42 0.000011 -0.000005 0.000005 0.000001 0.000000 0.000002
    43 -3.500000 -0.036835 0.048981 -2.365236 1.199961 -0.630022
    44 -1.796978 0.031304 -0.000272 0.005346 0.017448 0.944009
    45 -1.064400 0.046831 0.000060 0.001999 0.009296 0.927504
    46 -0.622559 -1.148438 0.271729 0.510052 -0.369454 -3.081442
    47 2.307411 -0.062625 -0.035369 -1.434362 0.675957 3.245901
    48 -1.130199 0.000032 -0.000530 0.010400 0.060914 0.791688
    49 -0.747944 0.035438 -0.000319 0.023194 0.013805 1.033487
    50 -1.096776 -0.631712 -0.052075 0.424537 -0.213978 -3.080704
    51 2.091797 -0.022461 0.047028 -1.472426 0.986732 -2.927360
    52 -1.649458 0.000034 -0.000234 -0.001690 0.006755 0.868899
    53 -0.863912 0.027465 -0.000154 -0.003199 0.007507 0.949150
    54 -0.307129 1.351563 -0.098999 0.594761 0.903908 -0.508228
    55 -2.324219 -0.003731 0.001054 -0.091009 0.054906 0.391015
    56 -1.163233 -0.000050 0.000118 0.234347 0.178902 0.761924
    57 -7.461309 -0.000360 -0.000409 0.230234 0.000204 -0.000002
    58 -6.216462 -0.000299 -0.000346 0.190212 0.000168 -0.000002
    59 -4.971604 -0.000237 -0.000273 0.150000 0.000132 -0.000002
    60 -3.730654 -0.000177 -0.000206 0.112434 0.000096 -0.000002
    61 -2.477988 -0.000122 -0.000138 0.074974 0.000060 -0.000002
    62 -1.233135 -0.000058 -0.000072 0.037498 0.000024 -0.000001
    63 -8.702259 -0.000423 -0.000477 0.267843 0.000228 0.000042
    64 0.000002 0.000000 0.000000 -0.000001 0.000000 0.000002
    65 0.000000 3.000000 5.000000 0.000000 0.000000 -3.141592
    66 -0.000003 0.399414 0.000000 0.000000 0.000000 0.000000
    67 -0.000001 -0.000002 0.000001 0.000000 0.000000 0.000001
    68 0.000006 0.000001 0.000001 1.221730 -0.087267 0.174533
    69 0.000000 -0.000004 -0.000001 0.000000 0.000000 0.000001
    70 0.000002 -0.000006 0.000000 0.000001 0.000000 0.000000
    71 -0.000008 0.000011 0.000000 0.000001 0.000000 0.000001
    72 0.000008 0.000003 0.000000 3.141592 -0.000001 -0.000001
    73 0.000004 0.000000 -0.000002 3.141591 0.000000 -0.000001
    74 -0.000004 -0.000006 -0.000008 3.141592 0.000000 0.000000
    75 0.000004 -0.000004 0.000002 3.141592 -0.000001 0.000000
    76 -0.000002 0.000002 0.000003 3.141592 0.000000 0.000000
    77 -0.000004 0.000006 0.000000 3.141592 0.000000 0.000000
    78 0.000003 -0.099915 -0.099915 -3.141593 0.000000 -0.000001
    79 -0.099976 -0.099915 -0.099915 3.141592 0.000000 0.000000
    80 -0.099976 -0.099976 -0.099915 3.141593 0.000000 0.000000
    81 -0.099854 -0.119934 -0.099915 3.141593 -0.000001 0.000000
    82 -0.099976 -0.119751 -0.099915 3.141593 0.000000 0.000000
    83 -0.099976 -0.119812 -0.099854 3.141592 0.000000 0.000000
    84 0.000000 0.000000 0.000000 0.000000 0.000000 -3.141593
    85 0.000001 0.000001 0.000000 0.000000 0.000000 -3.141593
    86 0.000002 -0.000004 0.000000 -1.570797 0.087267 -3.054326
    87 0.000000 0.000006 -0.000001 -0.000001 0.000000 -3.141593
    88 -0.000002 0.000011 0.000000 -0.000001 0.000000 -3.141593
    89 0.000002 0.000006 0.000000 -0.000001 0.000000 -3.141593
    90 -0.000004 -0.000002 0.000006 -3.141592 0.000001 3.141593
    91 0.000000 -0.000008 -0.000007 -3.141592 0.000000 3.141593
    92 0.000001 0.000008 0.000002 -3.141592 0.000000 3.141593
    93 -0.000006 0.000002 0.000004 -3.141593 0.000000 3.141593
    94 0.000000 0.000002 -0.000002 -3.141592 0.000000 -3.141592
    95 0.000006 0.000004 0.000002 -3.141592 0.000000 -3.141593
    96 0.099915 0.199829 0.099976 -3.141592 0.000000 -3.141593
    97 0.099976 0.199829 0.099854 -3.141593 0.000000 3.141593
    98 0.099976 0.199707 0.099915 -3.141592 -0.000001 3.141593
    99 -0.000004 0.119934 0.099915 -3.141592 0.000000 -3.141593
    100 0.000000 0.119934 0.099915 3.141593 0.000000 -3.141593
    101 0.000000 0.119812 0.099915 -3.141593 0.000000 3.141593
    102 12.502741 -4.909506 -7.043172 -0.019139 0.001063 0.001485
    103 0.000000 0.000000 0.000000 0.000000 0.000000 0.000000
    104 4.527344 0.000000 3.685547 0.000000 0.000000 0.000000
    105 0.000000 0.000001 0.000003 -0.000036 -0.610853 -1.570561
    106 4.277344 -0.000001 0.849121 0.000000 0.000000 0.000000
    107 5.542969 0.000000 0.000003 0.000000 0.000000 0.000000
    108 3.455010 0.000004 2.018000 0.000010 0.000000 0.000007
    109 -2.088972 -3.614023 0.605963 0.000010 0.000000 0.000007
    110 -1.971998 -0.000010 -0.796001 0.000011 -0.204731 0.000006
    111 -1.971998 -0.000010 -0.796001 0.000011 -0.204731 0.000006
    112 -5.858999 0.072452 2.682749 0.000000 0.000000 0.000000
    113 12.500000 -0.000002 3.259766 0.000000 0.000000 0.000000
    114 10.230598 0.000000 4.378193 0.000000 0.000000 0.000000
  time 10
    0 0.000000 3.000000 -21.796875 0.000000 0.000000 -1.570796
    1 0.000000 0.000000 0.000000 0.000000 0.000000 0.000000
    2 -0.423340 0.000000 22.046875 0.000000 0.000000 0.000000
    3 4.819546 8.146531 -11.437196 -1.109783 -0.001014 -0.530775
    4 10.889977 -0.000888 0.000756 0.000003 -0.000014 -0.668923
    5 -0.000001 -0.000005 0.000000 -0.000003 0.000000 0.000002
    6 9.946373 0.000528 -0.000746 -1.530088 -0.109018 0.672024
    7 3.503906 -1.087891 0.078308 0.000001 0.000000 0.000003
    8 0.007815 -0.000006 -0.039060 -1.589451 0.477457 0.546461
    9 1.459961 -0.057831 -0.014801 -0.016274 -0.089382 0.963684
    10 0.991699 -0.047150 0.019455 0.071933 0.073855 1.024964
    11 0.000002 -0.000006 0.000003 0.000000 0.000000 -0.000001
    12 3.429277 0.098089 0.041713 -1.807530 0.878657 0.441473
    13 1.797577 -0.105543 -0.000299 -0.055882 0.099423 1.332643
    14 1.072174 0.058641 0.000067 -0.026250 -0.015536 0.461033
    15 0.688065 1.201779 -0.284691 -1.516298 0.320846 -0.016755
    16 2.100106 0.078652 -0.000731 -0.991160 0.117391 0.955342
    17 1.131349 -0.000010 -0.000273 0.019396 -0.040833 1.034587
    18 0.728797 -0.007960 -0.007969 -0.073637 -0.094606 0.722358
    19 1.108739 0.635626 0.051816 -1.575592 0.167859 -0.030330
    20 2.061992 0.031651 0.058016 -0.838902 -0.185496 1.040251
    21 1.634048 -0.000071 -0.000628 0.007038 0.023366 1.269063
    22 0.879396 0.105132 -0.000362 -0.150696 0.012315 0.332900
    23 0.167603 -1.422852 0.160034 0.154849 0.576956 -0.280227
    24 2.292104 -0.000013 0.000021 -0.198562 -0.224315 0.072219
    25 1.268443 0.000051 0.027459 0.412364 -0.121887 -0.126946
    26 7.463686 0.000397 0.003342 -1.316026 -0.000971 0.000373
    27 6.206719 0.000326 -0.000468 -1.086146 -0.000803 0.000253
    28 4.965376 0.000256 -0.000375 -0.857029 -0.000635 0.000121
    29 3.724030 0.000196 -0.000280 -0.642521 -0.000467 0.000037
    30 2.486591 0.000126 -0.000185 -0.428407 -0.000372 0.000001
    31 1.241342 0.000063 -0.000090 -0.214180 -0.000180 0.000002
    32 8.705027 0.000462 -0.000662 -1.530214 -0.001031 0.000576
    33 0.000002 0.000004 0.000002 -0.000001 0.000000 0.000001
    34 -1.145480 -8.119186 -4.491672 1.078897 -1.269622 3.716400
    35 -10.882861 0.000870 0.000965 0.000165 0.000128 -2.081653
    36 -0.000002 -0.000012 -0.000010 -0.000002 0.000000 -0.000001
    37 -9.947110 -0.000484 -0.000551 0.260676 -0.124971 0.821401
    38 -3.500000 1.087891 -0.078369 0.000001 0.000000 -0.000004
    39 0.003918 0.171875 0.000005 -1.539895 0.222716 -0.138822
    40 -1.475769 -0.074189 0.000169 -0.012817 -0.011832 0.171917
    41 -1.033970 -0.090011 0.000485 -0.021107 -0.000476 0.194651
    42 0.000011 -0.000005 0.000005 0.000001 0.000000 0.000002
    43 -3.500000 -0.036835 0.048981 -2.365236 1.199961 -0.630022
    44 -1.793072 0.031304 -0.000272 0.005346 0.017448 0.943949
    45 -1.056587 0.050737 0.000060 0.001987 0.009296 0.927504
    46 -0.622559 -1.148438 0.271729 0.510052 -0.369454 -3.081442
    47 2.299598 -0.058719 -0.039275 -1.434458 0.675813 3.245625
    48 -1.130199 0.000032 -0.000530 0.010400 0.060938 0.791676
    49 -0.751851 0.031531 -0.000319 0.023194 0.013805 1.033499
    50 -1.092869 -0.631712 -0.052075 0.424537 -0.213978 -3.080704
    51 2.091797 -0.022461 0.047028 -1.472426 0.986732 -2.927360
    52 -1.649458 0.000034 -0.000234 -0.001690 0.006755 0.868887
    53 -0.867818 0.031371 -0.000154 -0.003199 0.007519 0.949150
    54 -0.307129 1.351563 -0.098999 0.594761 0.903908 -0.508228
    55 -2.324219 -0.003731 0.001054 -0.091009 0.054906 0.391015
    56 -1.163233 -0.000050 0.000118 0.234347 0.178902 0.761924
    57 -7.457403 -0.000360 -0.000409 0.224199 0.000192 -0.000002
    58 -6.220368 -0.000299 -0.000346 0.185182 0.000168 -0.000002
    59 -4.963791 -0.000237 -0.000273 0.146033 0.000132 -0.000002
    60 -3.726747 -0.000177 -0.000206 0.109514 0.000096 -0.000002
    61 -2.470175 -0.000122 -0.000138 0.072949 0.000060 -0.000002
    62 -1.240947 -0.000058 -0.000072 0.036444 0.000036 -0.000001
    63 -8.694446 -0.000423 -0.000477 0.260696 0.000216 0.000030
    64 0.000002 0.000000 0.000000 -0.000001 0.000000 0.000002
    65 0.000000 3.000000 5.000000 0.000000 0.000000 -3.141592
    66 -0.000003 0.399414 0.000000 0.000000 0.000000 0.000000
    67 -0.000001 -0.000002 0.000001 0.000000 0.000000 0.000001
    68 0.000006 0.000001 0.000001 1.221730 -0.087267 0.174533
    69 0.000000 -0.000004 -0.000001 0.000000 0.000000 0.000001
    70 0.000002 -0.000006 0.000000 0.000001 0.000000 0.000000
    71 -0.000008 0.000011 0.000000 0.000001 0.000000 0.000001
    72 0.000008 0.000003 0.000000 3.141592 -0.000001 -0.000001
    73 0.000004 0.000000 -0.000002 3.141591 0.000000 -0.000001
    74 -0.000004 -0.000006 -0.000008 3.141592 0.000000 0.000000
    75 0.000004 -0.000004 0.000002 3.141592 -0.000001 0.000000
    76 -0.000002 0.000002 0.000003 3.141592 0.000000 0.000000
    77 -0.000004 0.000006 0.000000 3.141592 0.000000 0.000000
    78 0.000003 -0.099915 -0.099915 -3.141593 0.000000 -0.000001
    79 -0.099976 -0.099915 -0.099915 3.141592 0.000000 0.000000
    80 -0.099976 -0.099976 -0.099915 3.141593 0.000000 0.000000
    81 -0.099854 -0.119934 -0.099915 3.141593 -0.000001 0.000000
    82 -0.099976 -0.119751 -0.099915 3.141593 0.000000 0.000000
    83 -0.099976 -0.119812 -0.099854 3.141592 0.000000 0.000000
    84 0.000000 0.000000 0.000000 0.000000 0.000000 -3.141593
    85 0.000001 0.000001 0.000000 0.000000 0.000000 -3.141593
    86 0.000002 -0.000004 0.000000 -1.570797 0.087267 -3.054326
    87 0.000000 0.000006 -0.000001 -0.000001 0.000000 -3.141593
    88 -0.000002 0.000011 0.000000 -0.000001 0.000000 -3.141593
    89 0.000002 0.000006 0.000000 -0.000001 0.000000 -3.141593
    90 -0.000004 -0.000002 0.000006 -3.141592 0.000001 3.141593
    91 0.000000 -0.000008 -0.000007 -3.141592 0.000000 3.141593
    92 0.000001 0.000008 0.000002 -3.141592 0.000000 3.141593
    93 -0.000006 0.000002 0.000004 -3.141593 0.000000 3.141593
    94 0.000000 0.000002 -0.000002 -3.141592 0.000000 -3.141592
    95 0.000006 0.000004 0.000002 -3.141592 0.000000 -3.141593
    96 0.099915 0.199829 0.099976 -3.141592 0.000000 -3.141593
    97 0.099976 0.199829 0.099854 -3.141593 0.000000 3.141593
    98 0.099976 0.199707 0.099915 -3.141592 -0.000001 3.141593
    99 -0.000004 0.119934 0.099915 -3.141592 0.000000 -3.141593
    100 0.000000 0.119934 0.099915 3.141593 0.000000 -3.141593
    101 0.000000 0.119812 0.099915 -3.141593 0.000000 3.141593
    102 12.451958 -4.901693 -7.050985 -0.009512 0.000532 0.000709
    103 0.000000 0.000000 0.000000 0.000000 0.000000 0.000000
    104 4.527344 0.000000 3.685547 0.000000 0.000000 0.000000
    105 0.000000 0.000001 0.000003 -0.000036 -0.610853 -1.570561
    106 4.277344 -0.000001 0.849121 0.000000 0.000000 0.000000
    107 5.542969 0.000000 0.000003 0.000000 0.000000 0.000000
    108 3.455010 0.000004 2.018000 0.000010 0.000000 0.000007
    109 -2.088972 -3.614023 0.605963 0.000010 0.000000 0.000007
    110 -1.971998 -0.000010 -0.796001 0.000011 -0.204731 0.000006
    111 -1.971998 -0.000010 -0.796001 0.000011 -0.204731 0.000006
    112 -5.858999 0.072452 2.682749 0.000000 0.000000 0.000000
    113 12.500000 -0.000002 3.259766 0.000000 0.000000 0.000000
    114 10.230598 0.000000 4.378193 0.000000 0.000000 0.000000
  time 11
    0 0.000000 3.000000 -21.796875 0.000000 0.000000 -1.570796
    1 0.000000 0.000000 0.000000 0.000000 0.000000 0.000000
    2 -0.423340 0.000000 22.046875 0.000000 0.000000 0.000000
    3 4.819546 8.146531 -11.437196 -1.109160 0.003331 -0.529714
    4 10.901696 -0.000888 0.000756 0.000003 -0.000014 -0.680657
    5 -0.000001 -0.000005 0.000000 -0.000003 0.000000 0.000002
    6 9.954186 0.000528 -0.000746 -1.522941 -0.107700 0.682382
    7 3.503906 -1.087891 0.078308 0.000001 0.000000 0.000003
    8 0.003908 -0.000006 -0.035154 -1.589451 0.477457 0.546461
    9 1.459961 -0.057831 -0.014801 -0.016274 -0.089382 0.963684
    10 0.991699 -0.047150 0.019455 0.071933 0.073855 1.024964
    11 0.000002 -0.000006 0.000003 0.000000 0.000000 -0.000001
    12 3.429277 0.098089 0.037807 -1.807530 0.878657 0.441473
    13 1.801484 -0.101636 -0.000299 -0.055882 0.099411 1.332643
    14 1.068268 0.054735 -0.003840 -0.026250 -0.015560 0.460929
    15 0.691971 1.205685 -0.284691 -1.516298 0.320846 -0.016741
    16 2.100106 0.074746 -0.000731 -0.991132 0.117322 0.955407
    17 1.123536 -0.000010 -0.000273 0.019396 -0.040905 1.034587
    18 0.728797 -0.007960 -0.004063 -0.073661 -0.094606 0.722358
    19 1.100926 0.635626 0.051816 -1.576311 0.167859 -0.030414
    20 2.061992 0.031651 0.061922 -0.838902 -0.185496 1.040251
    21 1.626235 -0.003977 -0.000628 0.007038 0.023366 1.269063
    22 0.879396 0.109039 -0.004269 -0.150696 0.012291 0.332956
    23 0.167603 -1.422852 0.160034 0.154849 0.576956 -0.280227
    24 2.292104 -0.000013 0.000021 -0.198574 -0.224315 0.072219
    25 1.260631 0.000051 0.015740 0.412364 -0.121887 -0.126815
    26 7.463686 0.000397 -0.000564 -1.309124 -0.000983 0.000373
    27 6.218438 0.000326 -0.000468 -1.081070 -0.000815 0.000253
    28 4.969282 0.000256 -0.000375 -0.852782 -0.000647 0.000121
    29 3.731843 0.000196 -0.000280 -0.639150 -0.000467 0.000037
    30 2.478779 0.000126 -0.000185 -0.426300 -0.000396 0.000001
    31 1.241342 0.000063 -0.000090 -0.213053 -0.000192 0.000002
    32 8.716746 0.000462 0.003245 -1.522814 -0.001031 0.000576
    33 0.000002 0.000004 0.000002 -0.000001 0.000000 0.000001
    34 -1.145480 -8.119186 -4.491672 1.060246 -1.274451 3.736703
    35 -10.882861 0.000870 0.000965 0.000165 0.000104 -2.085106
    36 -0.000002 -0.000012 -0.000010 -0.000002 0.000000 -0.000001
    37 -9.958829 -0.000484 -0.000551 0.253592 -0.126830 0.817576
    38 -3.500000 1.087891 -0.078369 0.000001 0.000000 -0.000004
    39 0.003918 0.164063 0.000005 -1.539895 0.222716 -0.138822
    40 -1.471862 -0.074189 0.000169 -0.012817 -0.011820 0.171917
    41 -1.033970 -0.086104 0.000485 -0.021107 -0.000476 0.194663
    42 0.000011 -0.000005 0.000005 0.000001 0.000000 0.000002
    43 -3.500000 -0.036835 0.048981 -2.365236 1.199961 -0.630022
    44 -1.789165 0.027398 -0.000272 0.005346 0.017448 0.943877
    45 -1.064400 0.050737 0.000060 0.001987 0.009296 0.927504
    46 -0.622559 -1.148438 0.271729 0.510052 -0.369454 -3.081442
    47 2.307411 -0.054812 -0.043182 -1.434254 0.676089 3.246153
    48 -1.138012 0.000032 -0.000530 0.010400 0.060926 0.791676
    49 -0.747944 0.031531 -0.000319 0.023194 0.013805 1.033487
    50 -1.088963 -0.631712 -0.052075 0.424537 -0.213978 -3.080704
    51 2.091797 -0.022461 0.047028 -1.472426 0.986732 -2.927360
    52 -1.649458 0.000034 -0.000234 -0.001678 0.006755 0.868887
    53 -0.867818 0.027465 -0.000154 -0.003199 0.007507 0.949150
    54 -0.307129 1.351563 -0.098999 0.594761 0.903908 -0.508228
    55 -2.324219 -0.003731 0.001054 -0.091009 0.054906 0.391015
    56 -1.163233 0.003857 0.000118 0.234359 0.178926 0.761924
    57 -7.469122 -0.000360 -0.000409 0.218164 0.000192 -0.000002
    58 -6.224275 -0.000299 -0.000346 0.180152 0.000168 -0.000002
    59 -4.971604 -0.000237 -0.000273 0.142066 0.000120 -0.000002
    60 -3.730654 -0.000177 -0.000206 0.106484 0.000096 -0.000002
    61 -2.474082 -0.000122 -0.000138 0.071067 0.000060 -0.000002
    62 -1.237041 -0.000058 -0.000072 0.035521 0.000036 -0.000001
    63 -8.710072 -0.000423 -0.000477 0.253582 0.000216 0.000018
    64 0.000002 0.000000 0.000000 -0.000001 0.000000 0.000002
    65 0.000000 3.000000 5.000000 0.000000 0.000000 -3.141592
    66 -0.000003 0.399414 0.000000 0.000000 0.000000 0.000000
    67 -0.000001 -0.000002 0.000001 0.000000 0.000000 0.000001
    68 0.000006 0.000001 0.000001 1.221730 -0.087267 0.174533
    69 0.000000 -0.000004 -0.000001 0.000000 0.000000 0.000001
    70 0.000002 -0.000006 0.000000 0.000001 0.000000 0.000000
    71 -0.000008 0.000011 0.000000 0.000001 0.000000 0.000001
    72 0.000008 0.000003 0.000000 3.141592 -0.000001 -0.000001
    73 0.000004 0.000000 -0.000002 3.141591 0.000000 -0.000001
    74 -0.000004 -0.000006 -0.000008 3.141592 0.000000 0.000000
    75 0.000004 -0.000004 0.000002 3.141592 -0.000001 0.000000
    76 -0.000002 0.000002 0.000003 3.141592 0.000000 0.000000
    77 -0.000004 0.000006 0.000000 3.141592 0.000000 0.000000
    78 0.000003 -0.099915 -0.099915 -3.141593 0.000000 -0.000001
    79 -0.099976 -0.099915 -0.099915 3.141592 0.000000 0.000000
    80 -0.099976 -0.099976 -0.099915 3.141593 0.000000 0.000000
    81 -0.099854 -0.119934 -0.099915 3.141593 -0.000001 0.000000
    82 -0.099976 -0.119751 -0.099915 3.141593 0.000000 0.000000
    83 -0.099976 -0.119812 -0.099854 3.141592 0.000000 0.000000
    84 0.000000 0.000000 0.000000 0.000000 0.000000 -3.141593
    85 0.000001 0.000001 0.000000 0.000000 0.000000 -3.141593
    86 0.000002 -0.000004 0.000000 -1.570797 0.087267 -3.054326
    87 0.000000 0.000006 -0.000001 -0.000001 0.000000 -3.141593
    88 -0.000002 0.000011 0.000000 -0.000001 0.000000 -3.141593
    89 0.000002 0.000006 0.000000 -0.000001 0.000000 -3.141593
    90 -0.000004 -0.000002 0.000006 -3.141592 0.000001 3.141593
    91 0.000000 -0.000008 -0.000007 -3.141592 0.000000 3.141593
    92 0.000001 0.000008 0.000002 -3.141592 0.000000 3.141593
    93 -0.000006 0.000002 0.000004 -3.141593 0.000000 3.141593
    94 0.000000 0.000002 -0.000002 -3.141592 0.000000 -3.141592
    95 0.000006 0.000004 0.000002 -3.141592 0.000000 -3.141593
    96 0.099915 0.199829 0.099976 -3.141592 0.000000 -3.141593
    97 0.099976 0.199829 0.099854 -3.141593 0.000000 3.141593
    98 0.099976 0.199707 0.099915 -3.141592 -0.000001 3.141593
    99 -0.000004 0.119934 0.099915 -3.141592 0.000000 -3.141593
    100 0.000000 0.119934 0.099915 3.141593 0.000000 -3.141593
    101 0.000000 0.119812 0.099915 -3.141593 0.000000 3.141593
    102 12.401175 -4.901693 -7.070517 0.000000 0.000000 0.000000
    103 0.000000 0.000000 0.000000 0.000000 0.000000 0.000000
    104 4.527344 0.000000 3.685547 0.000000 0.000000 0.000000
    105 0.000000 0.000001 0.000003 -0.000036 -0.610853 -1.570561
    106 4.277344 -0.000001 0.849121 0.000000 0.000000 0.000000
    107 5.542969 0.000000 0.000003 0.000000 0.000000 0.000000
    108 3.455010 0.000004 2.018000 0.000010 0.000000 0.000007
    109 -2.088972 -3.614023 0.605963 0.000010 0.000000 0.000007
    110 -1.971998 -0.000010 -0.796001 0.000011 -0.204731 0.000006
    111 -1.971998 -0.000010 -0.796001 0.000011 -0.204731 0.000006
    112 -5.858999 0.072452 2.682749 0.000000 0.000000 0.000000
    113 12.500000 -0.000002 3.259766 0.000000 0.000000 0.000000
    114 10.230598 0.000000 4.378193 0.000000 0.000000 0.000000
end
