version 1
nodes
  0 "tag_view" -1
  1 "tag_ads" 0
  2 "tag_torso" 1
  3 "j_shoulder_le" 2
  4 "j_elbow_le" 3
  5 "j_elbow_bulge_le" 4
  6 "j_wrist_le" 4
  7 "j_indexbase_le" 6
  8 "j_index_le_1" 7
  9 "j_index_le_2" 8
  10 "j_index_le_3" 9
  11 "j_indexretract_le" 7
  12 "j_mid_le_1" 6
  13 "j_mid_le_2" 12
  14 "j_mid_le_3" 13
  15 "j_pinkybase_le" 6
  16 "j_pinky_le_1" 15
  17 "j_pinky_le_2" 16
  18 "j_pinky_le_3" 17
  19 "j_ringbase_le" 6
  20 "j_ring_le_1" 19
  21 "j_ring_le_2" 20
  22 "j_ring_le_3" 21
  23 "j_thumb_le_1" 6
  24 "j_thumb_le_2" 23
  25 "j_thumb_le_3" 24
  26 "j_wristtwist1_le" 4
  27 "j_wristtwist2_le" 4
  28 "j_wristtwist3_le" 4
  29 "j_wristtwist4_le" 4
  30 "j_wristtwist5_le" 4
  31 "j_wristtwist6_le" 4
  32 "j_wristtwist_le" 4
  33 "j_wristcrease_le" 32
  34 "j_shoulder_ri" 2
  35 "j_elbow_ri" 34
  36 "j_elbow_bulge_ri" 35
  37 "j_wrist_ri" 35
  38 "j_indexbase_ri" 37
  39 "j_index_ri_1" 38
  40 "j_index_ri_2" 39
  41 "j_index_ri_3" 40
  42 "j_indexretract_ri" 38
  43 "j_mid_ri_1" 37
  44 "j_mid_ri_2" 43
  45 "j_mid_ri_3" 44
  46 "j_pinkybase_ri" 37
  47 "j_pinky_ri_1" 46
  48 "j_pinky_ri_2" 47
  49 "j_pinky_ri_3" 48
  50 "j_ringbase_ri" 37
  51 "j_ring_ri_1" 50
  52 "j_ring_ri_2" 51
  53 "j_ring_ri_3" 52
  54 "j_thumb_ri_1" 37
  55 "j_thumb_ri_2" 54
  56 "j_thumb_ri_3" 55
  57 "j_wristtwist1_ri" 35
  58 "j_wristtwist2_ri" 35
  59 "j_wristtwist3_ri" 35
  60 "j_wristtwist4_ri" 35
  61 "j_wristtwist5_ri" 35
  62 "j_wristtwist6_ri" 35
  63 "j_wristtwist_ri" 35
  64 "j_wristcrease2_ri" 63
  65 "T7:Joints" -1
  66 "ValveBiped.Bip01_L_UpperArm" 3
  67 "ValveBiped.Bip01_L_Forearm" 4
  68 "ValveBiped.Bip01_L_Hand" 6
  69 "ValveBiped.Bip01_L_Finger0" 23
  70 "ValveBiped.Bip01_L_Finger01" 24
  71 "ValveBiped.Bip01_L_Finger02" 25
  72 "ValveBiped.Bip01_L_Finger1" 8
  73 "ValveBiped.Bip01_L_Finger11" 9
  74 "ValveBiped.Bip01_L_Finger12" 10
  75 "ValveBiped.Bip01_L_Finger2" 12
  76 "ValveBiped.Bip01_L_Finger21" 13
  77 "ValveBiped.Bip01_L_Finger22" 14
  78 "ValveBiped.Bip01_L_Finger3" 20
  79 "ValveBiped.Bip01_L_Finger31" 21
  80 "ValveBiped.Bip01_L_Finger32" 22
  81 "ValveBiped.Bip01_L_Finger4" 16
  82 "ValveBiped.Bip01_L_Finger41" 17
  83 "ValveBiped.Bip01_L_Finger42" 18
  84 "ValveBiped.Bip01_R_UpperArm" 34
  85 "ValveBiped.Bip01_R_Forearm" 35
  86 "ValveBiped.Bip01_R_Hand" 37
  87 "ValveBiped.Bip01_R_Finger0" 54
  88 "ValveBiped.Bip01_R_Finger01" 55
  89 "ValveBiped.Bip01_R_Finger02" 56
  90 "ValveBiped.Bip01_R_Finger1" 39
  91 "ValveBiped.Bip01_R_Finger11" 40
  92 "ValveBiped.Bip01_R_Finger12" 41
  93 "ValveBiped.Bip01_R_Finger2" 43
  94 "ValveBiped.Bip01_R_Finger21" 44
  95 "ValveBiped.Bip01_R_Finger22" 45
  96 "ValveBiped.Bip01_R_Finger3" 51
  97 "ValveBiped.Bip01_R_Finger31" 52
  98 "ValveBiped.Bip01_R_Finger32" 53
  99 "ValveBiped.Bip01_R_Finger4" 47
  100 "ValveBiped.Bip01_R_Finger41" 48
  101 "ValveBiped.Bip01_R_Finger42" 49
  102 "tag_weapon_right" 2
  103 "tag_weapon" 102
  104 "tag_bolt_animate" 103
  105 "tag_brass" 103
  106 "tag_mag_release_animate" 103
  107 "tag_clip" 103
  108 "j_charginghandle" 103
  109 "j_loose_round" 103
  110 "j_mag1" 103
  111 "j_mag2" 103
  112 "j_slide" 103
  113 "tag_flash" 103
  114 "tag_charging_handle_animate" 103
end
skeleton
  time 0
    0 0.000000 3.000000 -21.796875 0.000000 0.000000 -1.570796
    1 0.000000 0.000000 0.000000 0.000000 0.000000 0.000000
    2 -0.423340 0.000000 22.046875 0.000000 0.000000 0.000000
    3 2.769531 7.179688 -14.125000 -1.336882 0.297264 -0.019271
    4 10.882813 -0.000890 0.000755 0.000050 -0.000013 -1.162934
    5 -0.000001 -0.000005 0.000000 -0.000003 0.000000 0.000002
    6 9.953125 0.000525 -0.000750 1.271979 -0.345237 -0.626186
    7 3.501953 -1.090820 0.078369 0.000001 0.000000 0.000003
    8 -0.011719 -0.171875 -0.089783 -2.252101 0.822147 -0.531027
    9 1.454102 -0.066406 0.004116 0.028456 0.026332 1.019548
    10 0.986328 0.015793 0.000484 -0.004891 0.001088 0.670715
    11 0.000002 -0.000006 0.000003 0.000000 0.000000 -0.000001
    12 3.486328 0.058990 -0.048096 -2.619434 1.018791 -0.729021
    13 1.816406 -0.000072 0.003611 0.089631 -0.022567 0.708625
    14 1.058594 -0.054596 0.000067 0.002358 0.010288 0.923057
    15 0.695801 1.216797 -0.253418 -1.702026 0.602721 -0.159434
    16 2.369141 -0.190674 0.030518 -0.508595 0.120188 0.285359
    17 1.143068 -0.000010 -0.000273 0.005182 0.024636 0.901290
    18 0.751953 -0.082153 -0.000154 0.027719 0.036658 1.304106
    19 1.108398 0.639160 0.051788 -1.586302 0.265012 0.005073
    20 2.093750 0.000401 -0.043549 -0.459494 0.217416 0.822365
    21 1.665039 -0.000070 -0.000628 0.000219 -0.008298 0.767450
    22 0.882813 -0.051086 -0.000357 -0.015387 -0.006822 0.987350
    23 0.198242 -0.859375 -0.276855 0.045076 0.140034 -0.753395
    24 2.298828 -0.000010 0.003925 -0.233398 -0.154681 -0.030907
    25 1.302734 0.003952 0.000112 0.206680 -0.024007 -0.255895
    26 7.460938 0.000387 -0.004471 1.093533 0.000657 0.000608
    27 6.214844 0.000328 -0.000471 0.902961 0.000586 0.000452
    28 4.972656 0.000252 -0.000378 0.711876 0.000515 0.000312
    29 3.726563 0.000195 -0.000283 0.534071 0.000394 0.000177
    30 2.482422 0.000120 -0.000188 0.355830 0.000298 0.000120
    31 1.237305 0.000065 -0.000090 0.177847 0.000165 0.000038
    32 8.710938 0.000458 -0.004562 1.271344 0.000659 0.000778
    33 0.000002 0.000004 0.000002 -0.000001 0.000000 0.000001
    34 -1.014648 -8.132813 -4.484375 2.723307 -0.596799 2.711488
    35 -10.890625 0.000869 0.000965 0.000030 -0.000015 -1.107498
    36 -0.000002 -0.000012 -0.000010 -0.000002 0.000000 -0.000001
    37 -9.945313 -0.000484 -0.008362 -0.872109 -0.063319 -0.672528
    38 -3.500000 1.089844 -0.078552 0.000001 0.000000 -0.000004
    39 0.023438 0.179688 -0.003904 -1.539865 0.222699 -0.138858
    40 -1.475586 -0.081909 0.000169 -0.012853 -0.011808 0.171904
    41 -1.032227 -0.093811 0.000486 -0.021175 -0.000570 0.193318
    42 0.000011 -0.000005 0.000005 0.000001 0.000000 0.000002
    43 -3.498047 -0.039459 0.047699 -2.366158 1.199965 -0.630860
    44 -1.800781 0.035187 -0.000271 0.005373 0.017458 0.943884
    45 -1.069336 0.061310 -0.002119 0.002046 0.009305 0.927498
    46 -0.622070 -1.148438 0.271484 0.510887 -0.367945 -3.079638
    47 2.306641 -0.062561 -0.054871 -1.434557 0.675618 -3.038069
    48 -1.119141 0.005539 -0.000236 0.010469 0.060961 0.791713
    49 -0.755371 0.043213 -0.000321 0.023193 0.013852 1.033495
    50 -1.096680 -0.635254 -0.052063 0.425207 -0.212297 -3.079324
    51 2.093750 -0.019974 0.046204 -1.472019 0.987377 -2.926041
    52 -1.649458 0.000034 -0.000234 -0.001702 0.006814 0.868919
    53 -0.875000 0.043030 -0.000153 -0.003220 0.007515 0.949146
    54 -0.303467 1.343750 -0.093872 0.589782 0.902968 -0.520219
    55 -2.322266 0.000014 -0.000010 -0.091010 0.054623 0.389952
    56 -1.163086 0.003859 0.000118 0.234438 0.178936 0.761919
    57 -7.468750 -0.000360 -0.000409 -0.750499 -0.000599 0.000057
    58 -6.222656 -0.000299 -0.000347 -0.619288 -0.000492 0.000009
    59 -4.972656 -0.000240 -0.000274 -0.488038 -0.000408 -0.000003
    60 -3.734375 -0.000183 -0.000208 -0.366015 -0.000311 -0.000003
    61 -2.488281 -0.000121 -0.000142 -0.244280 -0.000215 0.000000
    62 -1.244141 -0.000060 -0.000071 -0.122121 -0.000083 -0.000010
    63 -8.703125 -0.000423 -0.000480 -0.872523 -0.000679 0.000138
    64 0.000002 0.000000 0.000000 -0.000001 0.000000 0.000002
    65 0.000000 0.000000 0.000000 0.000000 0.000000 -3.141592
    66 0.000001 0.399414 0.000000 0.000000 0.000000 0.000000
    67 -0.000001 -0.000002 0.000001 0.000000 0.000000 0.000001
    68 0.000006 0.000001 0.000001 1.221730 -0.087267 0.174533
    69 0.000000 -0.000004 -0.000001 0.000000 0.000000 0.000001
    70 0.000002 -0.000006 0.000000 0.000001 0.000000 0.000000
    71 -0.000008 0.000011 0.000000 0.000001 0.000000 0.000001
    72 0.000008 0.000003 0.000000 3.141592 -0.000001 -0.000001
    73 0.000004 0.000000 -0.000002 3.141591 0.000000 -0.000001
    74 -0.000004 -0.000006 -0.000008 3.141592 0.000000 0.000000
    75 0.000004 -0.000004 0.000002 3.141592 -0.000001 0.000000
    76 -0.000002 0.000002 0.000003 3.141592 0.000000 0.000000
    77 -0.000004 0.000006 0.000000 3.141592 0.000000 0.000000
    78 0.000002 -0.099854 -0.099976 -3.141593 0.000000 -0.000001
    79 -0.099915 -0.099915 -0.099976 3.141592 0.000000 0.000000
    80 -0.099976 -0.099915 -0.099915 3.141593 0.000000 0.000000
    81 -0.099915 -0.119873 -0.099792 3.141593 -0.000001 0.000000
    82 -0.099854 -0.119873 -0.099915 3.141593 0.000000 0.000000
    83 -0.099915 -0.119934 -0.099976 3.141592 0.000000 0.000000
    84 0.000000 0.000000 0.000000 0.000000 0.000000 -3.141593
    85 0.000001 0.000001 0.000000 0.000000 0.000000 -3.141593
    86 0.000002 -0.000004 0.000000 -1.570797 0.087267 -3.054326
    87 0.000000 0.000006 -0.000001 -0.000001 0.000000 -3.141593
    88 -0.000002 0.000011 0.000000 -0.000001 0.000000 -3.141593
    89 0.000002 0.000006 0.000000 -0.000001 0.000000 -3.141593
    90 -0.000004 -0.000002 0.000006 -3.141592 0.000001 3.141593
    91 0.000000 -0.000008 -0.000007 -3.141592 0.000000 3.141593
    92 0.000001 0.000008 0.000002 -3.141592 0.000000 3.141593
    93 -0.000006 0.000002 0.000004 -3.141593 0.000000 3.141593
    94 0.000000 0.000002 -0.000002 -3.141592 0.000000 -3.141592
    95 0.000006 0.000004 0.000002 -3.141592 0.000000 -3.141593
    96 0.099976 0.199585 0.099915 -3.141592 0.000000 -3.141593
    97 0.099854 0.199707 0.099854 -3.141593 0.000000 3.141593
    98 0.099915 0.199829 0.099915 -3.141592 -0.000001 3.141593
    99 0.000006 0.119751 0.099915 -3.141592 0.000000 -3.141593
    100 -0.000008 0.119934 0.099854 3.141593 0.000000 -3.141593
    101 0.000000 0.119934 0.099976 -3.141593 0.000000 3.141593
    102 15.515625 -3.765625 -7.312500 -0.008533 -0.574611 1.063814
    103 0.000000 0.000000 0.000000 0.000000 0.000000 0.000141
    104 4.523438 -0.000003 3.685547 0.000000 0.000000 0.000000
    105 0.000001 -0.000007 0.000000 -0.000034 -0.610855 -1.570568
    106 4.277344 -0.000002 0.849121 0.000000 0.000000 0.000000
    107 6.050781 -0.179688 -2.125000 -0.229152 -0.152764 -0.064785
    108 1.381836 0.000001 0.806641 0.000010 0.000000 0.000007
    109 -7.656250 -0.000633 -3.843750 0.000010 0.000000 0.000007
    110 -3.841797 -0.000013 -1.237305 0.000011 0.367916 0.000006
    111 -25.484375 1.617188 -9.382813 0.000010 -0.000010 0.000006
    112 -2.339844 0.028946 1.071289 0.000000 0.000000 0.000000
    113 0.000001 -0.000006 0.000000 0.000000 0.000000 0.000000
    114 10.230598 0.000000 4.378193 0.000000 0.000000 0.000000
  time 1
    0 0.000000 3.000000 -21.796875 0.000000 0.000000 -1.570796
    1 0.000000 0.000000 0.000000 0.000000 0.000000 0.000000
    2 -0.423340 0.000000 22.046875 0.000000 0.000000 0.000000
    3 2.769531 7.179688 -14.125000 -1.336882 0.297264 -0.019271
    4 10.882813 -0.000890 0.000755 0.000050 -0.000013 -1.162934
    5 -0.000001 -0.000005 0.000000 -0.000003 0.000000 0.000002
    6 9.953125 0.000525 -0.000750 1.271979 -0.345237 -0.626186
    7 3.501953 -1.090820 0.078369 0.000001 0.000000 0.000003
    8 -0.011719 -0.171875 -0.089783 -2.252101 0.822147 -0.531027
    9 1.454102 -0.066406 0.004116 0.028456 0.026332 1.019548
    10 0.986328 0.015793 0.000484 -0.004891 0.001088 0.670715
    11 0.000002 -0.000006 0.000003 0.000000 0.000000 -0.000001
    12 3.486328 0.058990 -0.048096 -2.619434 1.018791 -0.729021
    13 1.816406 -0.000072 0.003611 0.089631 -0.022567 0.708625
    14 1.058594 -0.054596 0.000067 0.002358 0.010288 0.923057
    15 0.695801 1.216797 -0.253418 -1.702026 0.602721 -0.159434
    16 2.369141 -0.190674 0.030518 -0.508595 0.120188 0.285359
    17 1.143068 -0.000010 -0.000273 0.005182 0.024636 0.901290
    18 0.751953 -0.082153 -0.000154 0.027719 0.036658 1.304106
    19 1.108398 0.639160 0.051788 -1.586302 0.265012 0.005073
    20 2.093750 0.000401 -0.043549 -0.459494 0.217416 0.822365
    21 1.665039 -0.000070 -0.000628 0.000219 -0.008298 0.767450
    22 0.882813 -0.051086 -0.000357 -0.015387 -0.006822 0.987350
    23 0.198242 -0.859375 -0.276855 0.045076 0.140034 -0.753395
    24 2.298828 -0.000010 0.003925 -0.233398 -0.154681 -0.030907
    25 1.302734 0.003952 0.000112 0.206680 -0.024007 -0.255895
    26 7.460938 0.000387 -0.004471 1.093533 0.000657 0.000608
    27 6.214844 0.000328 -0.000471 0.902961 0.000586 0.000452
    28 4.972656 0.000252 -0.000378 0.711876 0.000515 0.000312
    29 3.726563 0.000195 -0.000283 0.534071 0.000394 0.000177
    30 2.482422 0.000120 -0.000188 0.355830 0.000298 0.000120
    31 1.237305 0.000065 -0.000090 0.177847 0.000165 0.000038
    32 8.710938 0.000458 -0.004562 1.271344 0.000659 0.000778
    33 0.000002 0.000004 0.000002 -0.000001 0.000000 0.000001
    34 -1.014648 -8.132813 -4.484375 2.723307 -0.596799 2.711488
    35 -10.890625 0.000869 0.000965 0.000030 -0.000015 -1.107498
    36 -0.000002 -0.000012 -0.000010 -0.000002 0.000000 -0.000001
    37 -9.945313 -0.000484 -0.008362 -0.872109 -0.063319 -0.672528
    38 -3.500000 1.089844 -0.078552 0.000001 0.000000 -0.000004
    39 0.023438 0.179688 -0.003904 -1.539865 0.222699 -0.138858
    40 -1.475586 -0.081909 0.000169 -0.012853 -0.011808 0.171904
    41 -1.032227 -0.093811 0.000486 -0.021175 -0.000570 0.193318
    42 0.000011 -0.000005 0.000005 0.000001 0.000000 0.000002
    43 -3.498047 -0.039459 0.047699 -2.366158 1.199965 -0.630860
    44 -1.800781 0.035187 -0.000271 0.005373 0.017458 0.943884
    45 -1.069336 0.061310 -0.002119 0.002046 0.009305 0.927498
    46 -0.622070 -1.148438 0.271484 0.510887 -0.367945 -3.079638
    47 2.306641 -0.062561 -0.054871 -1.434557 0.675618 -3.038069
    48 -1.119141 0.005539 -0.000236 0.010469 0.060961 0.791713
    49 -0.755371 0.043213 -0.000321 0.023193 0.013852 1.033495
    50 -1.096680 -0.635254 -0.052063 0.425207 -0.212297 -3.079324
    51 2.093750 -0.019974 0.046204 -1.472019 0.987377 -2.926041
    52 -1.649458 0.000034 -0.000234 -0.001702 0.006814 0.868919
    53 -0.875000 0.043030 -0.000153 -0.003220 0.007515 0.949146
    54 -0.303467 1.343750 -0.093872 0.589782 0.902968 -0.520219
    55 -2.322266 0.000014 -0.000010 -0.091010 0.054623 0.389952
    56 -1.163086 0.003859 0.000118 0.234438 0.178936 0.761919
    57 -7.468750 -0.000360 -0.000409 -0.750499 -0.000599 0.000057
    58 -6.222656 -0.000299 -0.000347 -0.619288 -0.000492 0.000009
    59 -4.972656 -0.000240 -0.000274 -0.488038 -0.000408 -0.000003
    60 -3.734375 -0.000183 -0.000208 -0.366015 -0.000311 -0.000003
    61 -2.488281 -0.000121 -0.000142 -0.244280 -0.000215 0.000000
    62 -1.244141 -0.000060 -0.000071 -0.122121 -0.000083 -0.000010
    63 -8.703125 -0.000423 -0.000480 -0.872523 -0.000679 0.000138
    64 0.000002 0.000000 0.000000 -0.000001 0.000000 0.000002
    65 0.000000 0.000000 0.000000 0.000000 0.000000 -3.141592
    66 0.000001 0.399414 0.000000 0.000000 0.000000 0.000000
    67 -0.000001 -0.000002 0.000001 0.000000 0.000000 0.000001
    68 0.000006 0.000001 0.000001 1.221730 -0.087267 0.174533
    69 0.000000 -0.000004 -0.000001 0.000000 0.000000 0.000001
    70 0.000002 -0.000006 0.000000 0.000001 0.000000 0.000000
    71 -0.000008 0.000011 0.000000 0.000001 0.000000 0.000001
    72 0.000008 0.000003 0.000000 3.141592 -0.000001 -0.000001
    73 0.000004 0.000000 -0.000002 3.141591 0.000000 -0.000001
    74 -0.000004 -0.000006 -0.000008 3.141592 0.000000 0.000000
    75 0.000004 -0.000004 0.000002 3.141592 -0.000001 0.000000
    76 -0.000002 0.000002 0.000003 3.141592 0.000000 0.000000
    77 -0.000004 0.000006 0.000000 3.141592 0.000000 0.000000
    78 0.000002 -0.099854 -0.099976 -3.141593 0.000000 -0.000001
    79 -0.099915 -0.099915 -0.099976 3.141592 0.000000 0.000000
    80 -0.099976 -0.099915 -0.099915 3.141593 0.000000 0.000000
    81 -0.099915 -0.119873 -0.099792 3.141593 -0.000001 0.000000
    82 -0.099854 -0.119873 -0.099915 3.141593 0.000000 0.000000
    83 -0.099915 -0.119934 -0.099976 3.141592 0.000000 0.000000
    84 0.000000 0.000000 0.000000 0.000000 0.000000 -3.141593
    85 0.000001 0.000001 0.000000 0.000000 0.000000 -3.141593
    86 0.000002 -0.000004 0.000000 -1.570797 0.087267 -3.054326
    87 0.000000 0.000006 -0.000001 -0.000001 0.000000 -3.141593
    88 -0.000002 0.000011 0.000000 -0.000001 0.000000 -3.141593
    89 0.000002 0.000006 0.000000 -0.000001 0.000000 -3.141593
    90 -0.000004 -0.000002 0.000006 -3.141592 0.000001 3.141593
    91 0.000000 -0.000008 -0.000007 -3.141592 0.000000 3.141593
    92 0.000001 0.000008 0.000002 -3.141592 0.000000 3.141593
    93 -0.000006 0.000002 0.000004 -3.141593 0.000000 3.141593
    94 0.000000 0.000002 -0.000002 -3.141592 0.000000 -3.141592
    95 0.000006 0.000004 0.000002 -3.141592 0.000000 -3.141593
    96 0.099976 0.199585 0.099915 -3.141592 0.000000 -3.141593
    97 0.099854 0.199707 0.099854 -3.141593 0.000000 3.141593
    98 0.099915 0.199829 0.099915 -3.141592 -0.000001 3.141593
    99 0.000006 0.119751 0.099915 -3.141592 0.000000 -3.141593
    100 -0.000008 0.119934 0.099854 3.141593 0.000000 -3.141593
    101 0.000000 0.119934 0.099976 -3.141593 0.000000 3.141593
    102 15.515625 -3.765625 -7.312500 -0.008533 -0.574611 1.063814
    103 0.000000 0.000000 0.000000 0.000000 0.000000 0.000141
    104 4.523438 -0.000003 3.685547 0.000000 0.000000 0.000000
    105 0.000001 -0.000007 0.000000 -0.000034 -0.610855 -1.570568
    106 4.277344 -0.000002 0.849121 0.000000 0.000000 0.000000
    107 6.050781 -0.179688 -2.125000 -0.229152 -0.152764 -0.064785
    108 1.381836 0.000001 0.806641 0.000010 0.000000 0.000007
    109 -7.656250 -0.000633 -3.843750 0.000010 0.000000 0.000007
    110 -3.841797 -0.000013 -1.237305 0.000011 0.367916 0.000006
    111 -25.484375 1.617188 -9.382813 0.000010 -0.000010 0.000006
    112 -2.339844 0.028946 1.071289 0.000000 0.000000 0.000000
    113 0.000001 -0.000006 0.000000 0.000000 0.000000 0.000000
    114 10.230598 0.000000 4.378193 0.000000 0.000000 0.000000
  time 2
    0 0.000000 3.000000 -21.796875 0.000000 0.000000 -1.570796
    1 0.000000 0.000000 0.000000 0.000000 0.000000 0.000000
    2 -0.423340 0.000000 22.046875 0.000000 0.000000 0.000000
    3 2.769531 7.179688 -14.125000 -1.336882 0.297264 -0.019271
    4 10.882813 -0.000890 0.000755 0.000050 -0.000013 -1.162934
    5 -0.000001 -0.000005 0.000000 -0.000003 0.000000 0.000002
    6 9.953125 0.000525 -0.000750 1.271979 -0.345237 -0.626186
    7 3.501953 -1.090820 0.078369 0.000001 0.000000 0.000003
    8 -0.011719 -0.171875 -0.089783 -2.252101 0.822147 -0.531027
    9 1.454102 -0.066406 0.004116 0.028456 0.026332 1.019548
    10 0.986328 0.015793 0.000484 -0.004891 0.001088 0.670715
    11 0.000002 -0.000006 0.000003 0.000000 0.000000 -0.000001
    12 3.486328 0.058990 -0.048096 -2.619434 1.018791 -0.729021
    13 1.816406 -0.000072 0.003611 0.089631 -0.022567 0.708625
    14 1.058594 -0.054596 0.000067 0.002358 0.010288 0.923057
    15 0.695801 1.216797 -0.253418 -1.702026 0.602721 -0.159434
    16 2.369141 -0.190674 0.030518 -0.508595 0.120188 0.285359
    17 1.143068 -0.000010 -0.000273 0.005182 0.024636 0.901290
    18 0.751953 -0.082153 -0.000154 0.027719 0.036658 1.304106
    19 1.108398 0.639160 0.051788 -1.586302 0.265012 0.005073
    20 2.093750 0.000401 -0.043549 -0.459494 0.217416 0.822365
    21 1.665039 -0.000070 -0.000628 0.000219 -0.008298 0.767450
    22 0.882813 -0.051086 -0.000357 -0.015387 -0.006822 0.987350
    23 0.198242 -0.859375 -0.276855 0.045076 0.140034 -0.753395
    24 2.298828 -0.000010 0.003925 -0.233398 -0.154681 -0.030907
    25 1.302734 0.003952 0.000112 0.206680 -0.024007 -0.255895
    26 7.460938 0.000387 -0.004471 1.093533 0.000657 0.000608
    27 6.214844 0.000328 -0.000471 0.902961 0.000586 0.000452
    28 4.972656 0.000252 -0.000378 0.711876 0.000515 0.000312
    29 3.726563 0.000195 -0.000283 0.534071 0.000394 0.000177
    30 2.482422 0.000120 -0.000188 0.355830 0.000298 0.000120
    31 1.237305 0.000065 -0.000090 0.177847 0.000165 0.000038
    32 8.710938 0.000458 -0.004562 1.271344 0.000659 0.000778
    33 0.000002 0.000004 0.000002 -0.000001 0.000000 0.000001
    34 -1.014648 -8.132813 -4.484375 2.723307 -0.596799 2.711488
    35 -10.890625 0.000869 0.000965 0.000030 -0.000015 -1.107498
    36 -0.000002 -0.000012 -0.000010 -0.000002 0.000000 -0.000001
    37 -9.945313 -0.000484 -0.008362 -0.872109 -0.063319 -0.672528
    38 -3.500000 1.089844 -0.078552 0.000001 0.000000 -0.000004
    39 0.023438 0.179688 -0.003904 -1.539865 0.222699 -0.138858
    40 -1.475586 -0.081909 0.000169 -0.012853 -0.011808 0.171904
    41 -1.032227 -0.093811 0.000486 -0.021175 -0.000570 0.193318
    42 0.000011 -0.000005 0.000005 0.000001 0.000000 0.000002
    43 -3.498047 -0.039459 0.047699 -2.366158 1.199965 -0.630860
    44 -1.800781 0.035187 -0.000271 0.005373 0.017458 0.943884
    45 -1.069336 0.061310 -0.002119 0.002046 0.009305 0.927498
    46 -0.622070 -1.148438 0.271484 0.510887 -0.367945 -3.079638
    47 2.306641 -0.062561 -0.054871 -1.434557 0.675618 -3.038069
    48 -1.119141 0.005539 -0.000236 0.010469 0.060961 0.791713
    49 -0.755371 0.043213 -0.000321 0.023193 0.013852 1.033495
    50 -1.096680 -0.635254 -0.052063 0.425207 -0.212297 -3.079324
    51 2.093750 -0.019974 0.046204 -1.472019 0.987377 -2.926041
    52 -1.649458 0.000034 -0.000234 -0.001702 0.006814 0.868919
    53 -0.875000 0.043030 -0.000153 -0.003220 0.007515 0.949146
    54 -0.303467 1.343750 -0.093872 0.589782 0.902968 -0.520219
    55 -2.322266 0.000014 -0.000010 -0.091010 0.054623 0.389952
    56 -1.163086 0.003859 0.000118 0.234438 0.178936 0.761919
    57 -7.468750 -0.000360 -0.000409 -0.750499 -0.000599 0.000057
    58 -6.222656 -0.000299 -0.000347 -0.619288 -0.000492 0.000009
    59 -4.972656 -0.000240 -0.000274 -0.488038 -0.000408 -0.000003
    60 -3.734375 -0.000183 -0.000208 -0.366015 -0.000311 -0.000003
    61 -2.488281 -0.000121 -0.000142 -0.244280 -0.000215 0.000000
    62 -1.244141 -0.000060 -0.000071 -0.122121 -0.000083 -0.000010
    63 -8.703125 -0.000423 -0.000480 -0.872523 -0.000679 0.000138
    64 0.000002 0.000000 0.000000 -0.000001 0.000000 0.000002
    65 0.000000 0.000000 0.000000 0.000000 0.000000 -3.141592
    66 0.000001 0.399414 0.000000 0.000000 0.000000 0.000000
    67 -0.000001 -0.000002 0.000001 0.000000 0.000000 0.000001
    68 0.000006 0.000001 0.000001 1.221730 -0.087267 0.174533
    69 0.000000 -0.000004 -0.000001 0.000000 0.000000 0.000001
    70 0.000002 -0.000006 0.000000 0.000001 0.000000 0.000000
    71 -0.000008 0.000011 0.000000 0.000001 0.000000 0.000001
    72 0.000008 0.000003 0.000000 3.141592 -0.000001 -0.000001
    73 0.000004 0.000000 -0.000002 3.141591 0.000000 -0.000001
    74 -0.000004 -0.000006 -0.000008 3.141592 0.000000 0.000000
    75 0.000004 -0.000004 0.000002 3.141592 -0.000001 0.000000
    76 -0.000002 0.000002 0.000003 3.141592 0.000000 0.000000
    77 -0.000004 0.000006 0.000000 3.141592 0.000000 0.000000
    78 0.000002 -0.099854 -0.099976 -3.141593 0.000000 -0.000001
    79 -0.099915 -0.099915 -0.099976 3.141592 0.000000 0.000000
    80 -0.099976 -0.099915 -0.099915 3.141593 0.000000 0.000000
    81 -0.099915 -0.119873 -0.099792 3.141593 -0.000001 0.000000
    82 -0.099854 -0.119873 -0.099915 3.141593 0.000000 0.000000
    83 -0.099915 -0.119934 -0.099976 3.141592 0.000000 0.000000
    84 0.000000 0.000000 0.000000 0.000000 0.000000 -3.141593
    85 0.000001 0.000001 0.000000 0.000000 0.000000 -3.141593
    86 0.000002 -0.000004 0.000000 -1.570797 0.087267 -3.054326
    87 0.000000 0.000006 -0.000001 -0.000001 0.000000 -3.141593
    88 -0.000002 0.000011 0.000000 -0.000001 0.000000 -3.141593
    89 0.000002 0.000006 0.000000 -0.000001 0.000000 -3.141593
    90 -0.000004 -0.000002 0.000006 -3.141592 0.000001 3.141593
    91 0.000000 -0.000008 -0.000007 -3.141592 0.000000 3.141593
    92 0.000001 0.000008 0.000002 -3.141592 0.000000 3.141593
    93 -0.000006 0.000002 0.000004 -3.141593 0.000000 3.141593
    94 0.000000 0.000002 -0.000002 -3.141592 0.000000 -3.141592
    95 0.000006 0.000004 0.000002 -3.141592 0.000000 -3.141593
    96 0.099976 0.199585 0.099915 -3.141592 0.000000 -3.141593
    97 0.099854 0.199707 0.099854 -3.141593 0.000000 3.141593
    98 0.099915 0.199829 0.099915 -3.141592 -0.000001 3.141593
    99 0.000006 0.119751 0.099915 -3.141592 0.000000 -3.141593
    100 -0.000008 0.119934 0.099854 3.141593 0.000000 -3.141593
    101 0.000000 0.119934 0.099976 -3.141593 0.000000 3.141593
    102 15.515625 -3.765625 -7.312500 -0.008533 -0.574611 1.063814
    103 0.000000 0.000000 0.000000 0.000000 0.000000 0.000141
    104 4.523438 -0.000003 3.685547 0.000000 0.000000 0.000000
    105 0.000001 -0.000007 0.000000 -0.000034 -0.610855 -1.570568
    106 4.277344 -0.000002 0.849121 0.000000 0.000000 0.000000
    107 6.050781 -0.179688 -2.125000 -0.229152 -0.152764 -0.064785
    108 1.381836 0.000001 0.806641 0.000010 0.000000 0.000007
    109 -7.656250 -0.000633 -3.843750 0.000010 0.000000 0.000007
    110 -3.841797 -0.000013 -1.237305 0.000011 0.367916 0.000006
    111 -25.484375 1.617188 -9.382813 0.000010 -0.000010 0.000006
    112 -2.339844 0.028946 1.071289 0.000000 0.000000 0.000000
    113 0.000001 -0.000006 0.000000 0.000000 0.000000 0.000000
    114 10.230598 0.000000 4.378193 0.000000 0.000000 0.000000
  time 3
    0 0.000000 3.000000 -21.796875 0.000000 0.000000 -1.570796
    1 0.000000 0.000000 0.000000 0.000000 0.000000 0.000000
    2 -0.423340 0.000000 22.046875 0.000000 0.000000 0.000000
    3 2.769531 7.179688 -14.125000 -1.336882 0.297264 -0.019271
    4 10.882813 -0.000890 0.000755 0.000050 -0.000013 -1.162934
    5 -0.000001 -0.000005 0.000000 -0.000003 0.000000 0.000002
    6 9.953125 0.000525 -0.000750 1.271979 -0.345237 -0.626186
    7 3.501953 -1.090820 0.078369 0.000001 0.000000 0.000003
    8 -0.011719 -0.171875 -0.089783 -2.252101 0.822147 -0.531027
    9 1.454102 -0.066406 0.004116 0.028456 0.026332 1.019548
    10 0.986328 0.015793 0.000484 -0.004891 0.001088 0.670715
    11 0.000002 -0.000006 0.000003 0.000000 0.000000 -0.000001
    12 3.486328 0.058990 -0.048096 -2.619434 1.018791 -0.729021
    13 1.816406 -0.000072 0.003611 0.089631 -0.022567 0.708625
    14 1.058594 -0.054596 0.000067 0.002358 0.010288 0.923057
    15 0.695801 1.216797 -0.253418 -1.702026 0.602721 -0.159434
    16 2.369141 -0.190674 0.030518 -0.508595 0.120188 0.285359
    17 1.143068 -0.000010 -0.000273 0.005182 0.024636 0.901290
    18 0.751953 -0.082153 -0.000154 0.027719 0.036658 1.304106
    19 1.108398 0.639160 0.051788 -1.586302 0.265012 0.005073
    20 2.093750 0.000401 -0.043549 -0.459494 0.217416 0.822365
    21 1.665039 -0.000070 -0.000628 0.000219 -0.008298 0.767450
    22 0.882813 -0.051086 -0.000357 -0.015387 -0.006822 0.987350
    23 0.198242 -0.859375 -0.276855 0.045076 0.140034 -0.753395
    24 2.298828 -0.000010 0.003925 -0.233398 -0.154681 -0.030907
    25 1.302734 0.003952 0.000112 0.206680 -0.024007 -0.255895
    26 7.460938 0.000387 -0.004471 1.093533 0.000657 0.000608
    27 6.214844 0.000328 -0.000471 0.902961 0.000586 0.000452
    28 4.972656 0.000252 -0.000378 0.711876 0.000515 0.000312
    29 3.726563 0.000195 -0.000283 0.534071 0.000394 0.000177
    30 2.482422 0.000120 -0.000188 0.355830 0.000298 0.000120
    31 1.237305 0.000065 -0.000090 0.177847 0.000165 0.000038
    32 8.710938 0.000458 -0.004562 1.271344 0.000659 0.000778
    33 0.000002 0.000004 0.000002 -0.000001 0.000000 0.000001
    34 -1.014648 -8.132813 -4.484375 2.723307 -0.596799 2.711488
    35 -10.890625 0.000869 0.000965 0.000030 -0.000015 -1.107498
    36 -0.000002 -0.000012 -0.000010 -0.000002 0.000000 -0.000001
    37 -9.945313 -0.000484 -0.008362 -0.872109 -0.063319 -0.672528
    38 -3.500000 1.089844 -0.078552 0.000001 0.000000 -0.000004
    39 0.023438 0.179688 -0.003904 -1.539865 0.222699 -0.138858
    40 -1.475586 -0.081909 0.000169 -0.012853 -0.011808 0.171904
    41 -1.032227 -0.093811 0.000486 -0.021175 -0.000570 0.193318
    42 0.000011 -0.000005 0.000005 0.000001 0.000000 0.000002
    43 -3.498047 -0.039459 0.047699 -2.366158 1.199965 -0.630860
    44 -1.800781 0.035187 -0.000271 0.005373 0.017458 0.943884
    45 -1.069336 0.061310 -0.002119 0.002046 0.009305 0.927498
    46 -0.622070 -1.148438 0.271484 0.510887 -0.367945 -3.079638
    47 2.306641 -0.062561 -0.054871 -1.434557 0.675618 -3.038069
    48 -1.119141 0.005539 -0.000236 0.010469 0.060961 0.791713
    49 -0.755371 0.043213 -0.000321 0.023193 0.013852 1.033495
    50 -1.096680 -0.635254 -0.052063 0.425207 -0.212297 -3.079324
    51 2.093750 -0.019974 0.046204 -1.472019 0.987377 -2.926041
    52 -1.649458 0.000034 -0.000234 -0.001702 0.006814 0.868919
    53 -0.875000 0.043030 -0.000153 -0.003220 0.007515 0.949146
    54 -0.303467 1.343750 -0.093872 0.589782 0.902968 -0.520219
    55 -2.322266 0.000014 -0.000010 -0.091010 0.054623 0.389952
    56 -1.163086 0.003859 0.000118 0.234438 0.178936 0.761919
    57 -7.468750 -0.000360 -0.000409 -0.750499 -0.000599 0.000057
    58 -6.222656 -0.000299 -0.000347 -0.619288 -0.000492 0.000009
    59 -4.972656 -0.000240 -0.000274 -0.488038 -0.000408 -0.000003
    60 -3.734375 -0.000183 -0.000208 -0.366015 -0.000311 -0.000003
    61 -2.488281 -0.000121 -0.000142 -0.244280 -0.000215 0.000000
    62 -1.244141 -0.000060 -0.000071 -0.122121 -0.000083 -0.000010
    63 -8.703125 -0.000423 -0.000480 -0.872523 -0.000679 0.000138
    64 0.000002 0.000000 0.000000 -0.000001 0.000000 0.000002
    65 0.000000 0.000000 0.000000 0.000000 0.000000 -3.141592
    66 0.000001 0.399414 0.000000 0.000000 0.000000 0.000000
    67 -0.000001 -0.000002 0.000001 0.000000 0.000000 0.000001
    68 0.000006 0.000001 0.000001 1.221730 -0.087267 0.174533
    69 0.000000 -0.000004 -0.000001 0.000000 0.000000 0.000001
    70 0.000002 -0.000006 0.000000 0.000001 0.000000 0.000000
    71 -0.000008 0.000011 0.000000 0.000001 0.000000 0.000001
    72 0.000008 0.000003 0.000000 3.141592 -0.000001 -0.000001
    73 0.000004 0.000000 -0.000002 3.141591 0.000000 -0.000001
    74 -0.000004 -0.000006 -0.000008 3.141592 0.000000 0.000000
    75 0.000004 -0.000004 0.000002 3.141592 -0.000001 0.000000
    76 -0.000002 0.000002 0.000003 3.141592 0.000000 0.000000
    77 -0.000004 0.000006 0.000000 3.141592 0.000000 0.000000
    78 0.000002 -0.099854 -0.099976 -3.141593 0.000000 -0.000001
    79 -0.099915 -0.099915 -0.099976 3.141592 0.000000 0.000000
    80 -0.099976 -0.099915 -0.099915 3.141593 0.000000 0.000000
    81 -0.099915 -0.119873 -0.099792 3.141593 -0.000001 0.000000
    82 -0.099854 -0.119873 -0.099915 3.141593 0.000000 0.000000
    83 -0.099915 -0.119934 -0.099976 3.141592 0.000000 0.000000
    84 0.000000 0.000000 0.000000 0.000000 0.000000 -3.141593
    85 0.000001 0.000001 0.000000 0.000000 0.000000 -3.141593
    86 0.000002 -0.000004 0.000000 -1.570797 0.087267 -3.054326
    87 0.000000 0.000006 -0.000001 -0.000001 0.000000 -3.141593
    88 -0.000002 0.000011 0.000000 -0.000001 0.000000 -3.141593
    89 0.000002 0.000006 0.000000 -0.000001 0.000000 -3.141593
    90 -0.000004 -0.000002 0.000006 -3.141592 0.000001 3.141593
    91 0.000000 -0.000008 -0.000007 -3.141592 0.000000 3.141593
    92 0.000001 0.000008 0.000002 -3.141592 0.000000 3.141593
    93 -0.000006 0.000002 0.000004 -3.141593 0.000000 3.141593
    94 0.000000 0.000002 -0.000002 -3.141592 0.000000 -3.141592
    95 0.000006 0.000004 0.000002 -3.141592 0.000000 -3.141593
    96 0.099976 0.199585 0.099915 -3.141592 0.000000 -3.141593
    97 0.099854 0.199707 0.099854 -3.141593 0.000000 3.141593
    98 0.099915 0.199829 0.099915 -3.141592 -0.000001 3.141593
    99 0.000006 0.119751 0.099915 -3.141592 0.000000 -3.141593
    100 -0.000008 0.119934 0.099854 3.141593 0.000000 -3.141593
    101 0.000000 0.119934 0.099976 -3.141593 0.000000 3.141593
    102 15.515625 -3.765625 -7.312500 -0.008533 -0.574611 1.063814
    103 0.000000 0.000000 0.000000 0.000000 0.000000 0.000141
    104 4.523438 -0.000003 3.685547 0.000000 0.000000 0.000000
    105 0.000001 -0.000007 0.000000 -0.000034 -0.610855 -1.570568
    106 4.277344 -0.000002 0.849121 0.000000 0.000000 0.000000
    107 6.050781 -0.179688 -2.125000 -0.229152 -0.152764 -0.064785
    108 1.381836 0.000001 0.806641 0.000010 0.000000 0.000007
    109 -7.656250 -0.000633 -3.843750 0.000010 0.000000 0.000007
    110 -3.841797 -0.000013 -1.237305 0.000011 0.367916 0.000006
    111 -25.484375 1.617188 -9.382813 0.000010 -0.000010 0.000006
    112 -2.339844 0.028946 1.071289 0.000000 0.000000 0.000000
    113 0.000001 -0.000006 0.000000 0.000000 0.000000 0.000000
    114 10.230598 0.000000 4.378193 0.000000 0.000000 0.000000
  time 4
    0 0.000000 3.000000 -21.796875 0.000000 0.000000 -1.570796
    1 0.000000 0.000000 0.000000 0.000000 0.000000 0.000000
    2 -0.423340 0.000000 22.046875 0.000000 0.000000 0.000000
    3 2.769531 7.179688 -14.125000 -1.336882 0.297264 -0.019271
    4 10.882813 -0.000890 0.000755 0.000050 -0.000013 -1.162934
    5 -0.000001 -0.000005 0.000000 -0.000003 0.000000 0.000002
    6 9.953125 0.000525 -0.000750 1.271979 -0.345237 -0.626186
    7 3.501953 -1.090820 0.078369 0.000001 0.000000 0.000003
    8 -0.011719 -0.171875 -0.089783 -2.252101 0.822147 -0.531027
    9 1.454102 -0.066406 0.004116 0.028456 0.026332 1.019548
    10 0.986328 0.015793 0.000484 -0.004891 0.001088 0.670715
    11 0.000002 -0.000006 0.000003 0.000000 0.000000 -0.000001
    12 3.486328 0.058990 -0.048096 -2.619434 1.018791 -0.729021
    13 1.816406 -0.000072 0.003611 0.089631 -0.022567 0.708625
    14 1.058594 -0.054596 0.000067 0.002358 0.010288 0.923057
    15 0.695801 1.216797 -0.253418 -1.702026 0.602721 -0.159434
    16 2.369141 -0.190674 0.030518 -0.508595 0.120188 0.285359
    17 1.143068 -0.000010 -0.000273 0.005182 0.024636 0.901290
    18 0.751953 -0.082153 -0.000154 0.027719 0.036658 1.304106
    19 1.108398 0.639160 0.051788 -1.586302 0.265012 0.005073
    20 2.093750 0.000401 -0.043549 -0.459494 0.217416 0.822365
    21 1.665039 -0.000070 -0.000628 0.000219 -0.008298 0.767450
    22 0.882813 -0.051086 -0.000357 -0.015387 -0.006822 0.987350
    23 0.198242 -0.859375 -0.276855 0.045076 0.140034 -0.753395
    24 2.298828 -0.000010 0.003925 -0.233398 -0.154681 -0.030907
    25 1.302734 0.003952 0.000112 0.206680 -0.024007 -0.255895
    26 7.460938 0.000387 -0.004471 1.093533 0.000657 0.000608
    27 6.214844 0.000328 -0.000471 0.902961 0.000586 0.000452
    28 4.972656 0.000252 -0.000378 0.711876 0.000515 0.000312
    29 3.726563 0.000195 -0.000283 0.534071 0.000394 0.000177
    30 2.482422 0.000120 -0.000188 0.355830 0.000298 0.000120
    31 1.237305 0.000065 -0.000090 0.177847 0.000165 0.000038
    32 8.710938 0.000458 -0.004562 1.271344 0.000659 0.000778
    33 0.000002 0.000004 0.000002 -0.000001 0.000000 0.000001
    34 -1.014648 -8.132813 -4.484375 2.723307 -0.596799 2.711488
    35 -10.890625 0.000869 0.000965 0.000030 -0.000015 -1.107498
    36 -0.000002 -0.000012 -0.000010 -0.000002 0.000000 -0.000001
    37 -9.945313 -0.000484 -0.008362 -0.872109 -0.063319 -0.672528
    38 -3.500000 1.089844 -0.078552 0.000001 0.000000 -0.000004
    39 0.023438 0.179688 -0.003904 -1.539865 0.222699 -0.138858
    40 -1.475586 -0.081909 0.000169 -0.012853 -0.011808 0.171904
    41 -1.032227 -0.093811 0.000486 -0.021175 -0.000570 0.193318
    42 0.000011 -0.000005 0.000005 0.000001 0.000000 0.000002
    43 -3.498047 -0.039459 0.047699 -2.366158 1.199965 -0.630860
    44 -1.800781 0.035187 -0.000271 0.005373 0.017458 0.943884
    45 -1.069336 0.061310 -0.002119 0.002046 0.009305 0.927498
    46 -0.622070 -1.148438 0.271484 0.510887 -0.367945 -3.079638
    47 2.306641 -0.062561 -0.054871 -1.434557 0.675618 -3.038069
    48 -1.119141 0.005539 -0.000236 0.010469 0.060961 0.791713
    49 -0.755371 0.043213 -0.000321 0.023193 0.013852 1.033495
    50 -1.096680 -0.635254 -0.052063 0.425207 -0.212297 -3.079324
    51 2.093750 -0.019974 0.046204 -1.472019 0.987377 -2.926041
    52 -1.649458 0.000034 -0.000234 -0.001702 0.006814 0.868919
    53 -0.875000 0.043030 -0.000153 -0.003220 0.007515 0.949146
    54 -0.303467 1.343750 -0.093872 0.589782 0.902968 -0.520219
    55 -2.322266 0.000014 -0.000010 -0.091010 0.054623 0.389952
    56 -1.163086 0.003859 0.000118 0.234438 0.178936 0.761919
    57 -7.468750 -0.000360 -0.000409 -0.750499 -0.000599 0.000057
    58 -6.222656 -0.000299 -0.000347 -0.619288 -0.000492 0.000009
    59 -4.972656 -0.000240 -0.000274 -0.488038 -0.000408 -0.000003
    60 -3.734375 -0.000183 -0.000208 -0.366015 -0.000311 -0.000003
    61 -2.488281 -0.000121 -0.000142 -0.244280 -0.000215 0.000000
    62 -1.244141 -0.000060 -0.000071 -0.122121 -0.000083 -0.000010
    63 -8.703125 -0.000423 -0.000480 -0.872523 -0.000679 0.000138
    64 0.000002 0.000000 0.000000 -0.000001 0.000000 0.000002
    65 0.000000 0.000000 0.000000 0.000000 0.000000 -3.141592
    66 0.000001 0.399414 0.000000 0.000000 0.000000 0.000000
    67 -0.000001 -0.000002 0.000001 0.000000 0.000000 0.000001
    68 0.000006 0.000001 0.000001 1.221730 -0.087267 0.174533
    69 0.000000 -0.000004 -0.000001 0.000000 0.000000 0.000001
    70 0.000002 -0.000006 0.000000 0.000001 0.000000 0.000000
    71 -0.000008 0.000011 0.000000 0.000001 0.000000 0.000001
    72 0.000008 0.000003 0.000000 3.141592 -0.000001 -0.000001
    73 0.000004 0.000000 -0.000002 3.141591 0.000000 -0.000001
    74 -0.000004 -0.000006 -0.000008 3.141592 0.000000 0.000000
    75 0.000004 -0.000004 0.000002 3.141592 -0.000001 0.000000
    76 -0.000002 0.000002 0.000003 3.141592 0.000000 0.000000
    77 -0.000004 0.000006 0.000000 3.141592 0.000000 0.000000
    78 0.000002 -0.099854 -0.099976 -3.141593 0.000000 -0.000001
    79 -0.099915 -0.099915 -0.099976 3.141592 0.000000 0.000000
    80 -0.099976 -0.099915 -0.099915 3.141593 0.000000 0.000000
    81 -0.099915 -0.119873 -0.099792 3.141593 -0.000001 0.000000
    82 -0.099854 -0.119873 -0.099915 3.141593 0.000000 0.000000
    83 -0.099915 -0.119934 -0.099976 3.141592 0.000000 0.000000
    84 0.000000 0.000000 0.000000 0.000000 0.000000 -3.141593
    85 0.000001 0.000001 0.000000 0.000000 0.000000 -3.141593
    86 0.000002 -0.000004 0.000000 -1.570797 0.087267 -3.054326
    87 0.000000 0.000006 -0.000001 -0.000001 0.000000 -3.141593
    88 -0.000002 0.000011 0.000000 -0.000001 0.000000 -3.141593
    89 0.000002 0.000006 0.000000 -0.000001 0.000000 -3.141593
    90 -0.000004 -0.000002 0.000006 -3.141592 0.000001 3.141593
    91 0.000000 -0.000008 -0.000007 -3.141592 0.000000 3.141593
    92 0.000001 0.000008 0.000002 -3.141592 0.000000 3.141593
    93 -0.000006 0.000002 0.000004 -3.141593 0.000000 3.141593
    94 0.000000 0.000002 -0.000002 -3.141592 0.000000 -3.141592
    95 0.000006 0.000004 0.000002 -3.141592 0.000000 -3.141593
    96 0.099976 0.199585 0.099915 -3.141592 0.000000 -3.141593
    97 0.099854 0.199707 0.099854 -3.141593 0.000000 3.141593
    98 0.099915 0.199829 0.099915 -3.141592 -0.000001 3.141593
    99 0.000006 0.119751 0.099915 -3.141592 0.000000 -3.141593
    100 -0.000008 0.119934 0.099854 3.141593 0.000000 -3.141593
    101 0.000000 0.119934 0.099976 -3.141593 0.000000 3.141593
    102 15.515625 -3.765625 -7.312500 -0.008533 -0.574611 1.063814
    103 0.000000 0.000000 0.000000 0.000000 0.000000 0.000141
    104 4.523438 -0.000003 3.685547 0.000000 0.000000 0.000000
    105 0.000001 -0.000007 0.000000 -0.000034 -0.610855 -1.570568
    106 4.277344 -0.000002 0.849121 0.000000 0.000000 0.000000
    107 6.050781 -0.179688 -2.125000 -0.229152 -0.152764 -0.064785
    108 1.381836 0.000001 0.806641 0.000010 0.000000 0.000007
    109 -7.656250 -0.000633 -3.843750 0.000010 0.000000 0.000007
    110 -3.841797 -0.000013 -1.237305 0.000011 0.367916 0.000006
    111 -25.484375 1.617188 -9.382813 0.000010 -0.000010 0.000006
    112 -2.339844 0.028946 1.071289 0.000000 0.000000 0.000000
    113 0.000001 -0.000006 0.000000 0.000000 0.000000 0.000000
    114 10.230598 0.000000 4.378193 0.000000 0.000000 0.000000
  time 5
    0 0.000000 3.000000 -21.796875 0.000000 0.000000 -1.570796
    1 0.000000 0.000000 0.000000 0.000000 0.000000 0.000000
    2 -0.423340 0.000000 22.046875 0.000000 0.000000 0.000000
    3 2.769531 7.179688 -14.125000 -1.336882 0.297264 -0.019271
    4 10.882813 -0.000890 0.000755 0.000050 -0.000013 -1.162934
    5 -0.000001 -0.000005 0.000000 -0.000003 0.000000 0.000002
    6 9.953125 0.000525 -0.000750 1.271979 -0.345237 -0.626186
    7 3.501953 -1.090820 0.078369 0.000001 0.000000 0.000003
    8 -0.011719 -0.171875 -0.089783 -2.252101 0.822147 -0.531027
    9 1.454102 -0.066406 0.004116 0.028456 0.026332 1.019548
    10 0.986328 0.015793 0.000484 -0.004891 0.001088 0.670715
    11 0.000002 -0.000006 0.000003 0.000000 0.000000 -0.000001
    12 3.486328 0.058990 -0.048096 -2.619434 1.018791 -0.729021
    13 1.816406 -0.000072 0.003611 0.089631 -0.022567 0.708625
    14 1.058594 -0.054596 0.000067 0.002358 0.010288 0.923057
    15 0.695801 1.216797 -0.253418 -1.702026 0.602721 -0.159434
    16 2.369141 -0.190674 0.030518 -0.508595 0.120188 0.285359
    17 1.143068 -0.000010 -0.000273 0.005182 0.024636 0.901290
    18 0.751953 -0.082153 -0.000154 0.027719 0.036658 1.304106
    19 1.108398 0.639160 0.051788 -1.586302 0.265012 0.005073
    20 2.093750 0.000401 -0.043549 -0.459494 0.217416 0.822365
    21 1.665039 -0.000070 -0.000628 0.000219 -0.008298 0.767450
    22 0.882813 -0.051086 -0.000357 -0.015387 -0.006822 0.987350
    23 0.198242 -0.859375 -0.276855 0.045076 0.140034 -0.753395
    24 2.298828 -0.000010 0.003925 -0.233398 -0.154681 -0.030907
    25 1.302734 0.003952 0.000112 0.206680 -0.024007 -0.255895
    26 7.460938 0.000387 -0.004471 1.093533 0.000657 0.000608
    27 6.214844 0.000328 -0.000471 0.902961 0.000586 0.000452
    28 4.972656 0.000252 -0.000378 0.711876 0.000515 0.000312
    29 3.726563 0.000195 -0.000283 0.534071 0.000394 0.000177
    30 2.482422 0.000120 -0.000188 0.355830 0.000298 0.000120
    31 1.237305 0.000065 -0.000090 0.177847 0.000165 0.000038
    32 8.710938 0.000458 -0.004562 1.271344 0.000659 0.000778
    33 0.000002 0.000004 0.000002 -0.000001 0.000000 0.000001
    34 -1.014648 -8.132813 -4.484375 2.723307 -0.596799 2.711488
    35 -10.890625 0.000869 0.000965 0.000030 -0.000015 -1.107498
    36 -0.000002 -0.000012 -0.000010 -0.000002 0.000000 -0.000001
    37 -9.945313 -0.000484 -0.008362 -0.872109 -0.063319 -0.672528
    38 -3.500000 1.089844 -0.078552 0.000001 0.000000 -0.000004
    39 0.023438 0.179688 -0.003904 -1.539865 0.222699 -0.138858
    40 -1.475586 -0.081909 0.000169 -0.012853 -0.011808 0.171904
    41 -1.032227 -0.093811 0.000486 -0.021175 -0.000570 0.193318
    42 0.000011 -0.000005 0.000005 0.000001 0.000000 0.000002
    43 -3.498047 -0.039459 0.047699 -2.366158 1.199965 -0.630860
    44 -1.800781 0.035187 -0.000271 0.005373 0.017458 0.943884
    45 -1.069336 0.061310 -0.002119 0.002046 0.009305 0.927498
    46 -0.622070 -1.148438 0.271484 0.510887 -0.367945 -3.079638
    47 2.306641 -0.062561 -0.054871 -1.434557 0.675618 -3.038069
    48 -1.119141 0.005539 -0.000236 0.010469 0.060961 0.791713
    49 -0.755371 0.043213 -0.000321 0.023193 0.013852 1.033495
    50 -1.096680 -0.635254 -0.052063 0.425207 -0.212297 -3.079324
    51 2.093750 -0.019974 0.046204 -1.472019 0.987377 -2.926041
    52 -1.649458 0.000034 -0.000234 -0.001702 0.006814 0.868919
    53 -0.875000 0.043030 -0.000153 -0.003220 0.007515 0.949146
    54 -0.303467 1.343750 -0.093872 0.589782 0.902968 -0.520219
    55 -2.322266 0.000014 -0.000010 -0.091010 0.054623 0.389952
    56 -1.163086 0.003859 0.000118 0.234438 0.178936 0.761919
    57 -7.468750 -0.000360 -0.000409 -0.750499 -0.000599 0.000057
    58 -6.222656 -0.000299 -0.000347 -0.619288 -0.000492 0.000009
    59 -4.972656 -0.000240 -0.000274 -0.488038 -0.000408 -0.000003
    60 -3.734375 -0.000183 -0.000208 -0.366015 -0.000311 -0.000003
    61 -2.488281 -0.000121 -0.000142 -0.244280 -0.000215 0.000000
    62 -1.244141 -0.000060 -0.000071 -0.122121 -0.000083 -0.000010
    63 -8.703125 -0.000423 -0.000480 -0.872523 -0.000679 0.000138
    64 0.000002 0.000000 0.000000 -0.000001 0.000000 0.000002
    65 0.000000 0.000000 0.000000 0.000000 0.000000 -3.141592
    66 0.000001 0.399414 0.000000 0.000000 0.000000 0.000000
    67 -0.000001 -0.000002 0.000001 0.000000 0.000000 0.000001
    68 0.000006 0.000001 0.000001 1.221730 -0.087267 0.174533
    69 0.000000 -0.000004 -0.000001 0.000000 0.000000 0.000001
    70 0.000002 -0.000006 0.000000 0.000001 0.000000 0.000000
    71 -0.000008 0.000011 0.000000 0.000001 0.000000 0.000001
    72 0.000008 0.000003 0.000000 3.141592 -0.000001 -0.000001
    73 0.000004 0.000000 -0.000002 3.141591 0.000000 -0.000001
    74 -0.000004 -0.000006 -0.000008 3.141592 0.000000 0.000000
    75 0.000004 -0.000004 0.000002 3.141592 -0.000001 0.000000
    76 -0.000002 0.000002 0.000003 3.141592 0.000000 0.000000
    77 -0.000004 0.000006 0.000000 3.141592 0.000000 0.000000
    78 0.000002 -0.099854 -0.099976 -3.141593 0.000000 -0.000001
    79 -0.099915 -0.099915 -0.099976 3.141592 0.000000 0.000000
    80 -0.099976 -0.099915 -0.099915 3.141593 0.000000 0.000000
    81 -0.099915 -0.119873 -0.099792 3.141593 -0.000001 0.000000
    82 -0.099854 -0.119873 -0.099915 3.141593 0.000000 0.000000
    83 -0.099915 -0.119934 -0.099976 3.141592 0.000000 0.000000
    84 0.000000 0.000000 0.000000 0.000000 0.000000 -3.141593
    85 0.000001 0.000001 0.000000 0.000000 0.000000 -3.141593
    86 0.000002 -0.000004 0.000000 -1.570797 0.087267 -3.054326
    87 0.000000 0.000006 -0.000001 -0.000001 0.000000 -3.141593
    88 -0.000002 0.000011 0.000000 -0.000001 0.000000 -3.141593
    89 0.000002 0.000006 0.000000 -0.000001 0.000000 -3.141593
    90 -0.000004 -0.000002 0.000006 -3.141592 0.000001 3.141593
    91 0.000000 -0.000008 -0.000007 -3.141592 0.000000 3.141593
    92 0.000001 0.000008 0.000002 -3.141592 0.000000 3.141593
    93 -0.000006 0.000002 0.000004 -3.141593 0.000000 3.141593
    94 0.000000 0.000002 -0.000002 -3.141592 0.000000 -3.141592
    95 0.000006 0.000004 0.000002 -3.141592 0.000000 -3.141593
    96 0.099976 0.199585 0.099915 -3.141592 0.000000 -3.141593
    97 0.099854 0.199707 0.099854 -3.141593 0.000000 3.141593
    98 0.099915 0.199829 0.099915 -3.141592 -0.000001 3.141593
    99 0.000006 0.119751 0.099915 -3.141592 0.000000 -3.141593
    100 -0.000008 0.119934 0.099854 3.141593 0.000000 -3.141593
    101 0.000000 0.119934 0.099976 -3.141593 0.000000 3.141593
    102 15.515625 -3.765625 -7.312500 -0.008533 -0.574611 1.063814
    103 0.000000 0.000000 0.000000 0.000000 0.000000 0.000141
    104 4.523438 -0.000003 3.685547 0.000000 0.000000 0.000000
    105 0.000001 -0.000007 0.000000 -0.000034 -0.610855 -1.570568
    106 4.277344 -0.000002 0.849121 0.000000 0.000000 0.000000
    107 6.050781 -0.179688 -2.125000 -0.229152 -0.152764 -0.064785
    108 1.381836 0.000001 0.806641 0.000010 0.000000 0.000007
    109 -7.656250 -0.000633 -3.843750 0.000010 0.000000 0.000007
    110 -3.841797 -0.000013 -1.237305 0.000011 0.367916 0.000006
    111 -25.484375 1.617188 -9.382813 0.000010 -0.000010 0.000006
    112 -2.339844 0.028946 1.071289 0.000000 0.000000 0.000000
    113 0.000001 -0.000006 0.000000 0.000000 0.000000 0.000000
    114 10.230598 0.000000 4.378193 0.000000 0.000000 0.000000
end
