version 1
nodes
  0 "tag_view" -1
  1 "tag_ads" 0
  2 "tag_torso" 1
  3 "j_shoulder_le" 2
  4 "j_elbow_le" 3
  5 "j_elbow_bulge_le" 4
  6 "j_wrist_le" 4
  7 "j_indexbase_le" 6
  8 "j_index_le_1" 7
  9 "j_index_le_2" 8
  10 "j_index_le_3" 9
  11 "j_indexretract_le" 7
  12 "j_mid_le_1" 6
  13 "j_mid_le_2" 12
  14 "j_mid_le_3" 13
  15 "j_pinkybase_le" 6
  16 "j_pinky_le_1" 15
  17 "j_pinky_le_2" 16
  18 "j_pinky_le_3" 17
  19 "j_ringbase_le" 6
  20 "j_ring_le_1" 19
  21 "j_ring_le_2" 20
  22 "j_ring_le_3" 21
  23 "j_thumb_le_1" 6
  24 "j_thumb_le_2" 23
  25 "j_thumb_le_3" 24
  26 "j_wristtwist1_le" 4
  27 "j_wristtwist2_le" 4
  28 "j_wristtwist3_le" 4
  29 "j_wristtwist4_le" 4
  30 "j_wristtwist5_le" 4
  31 "j_wristtwist6_le" 4
  32 "j_wristtwist_le" 4
  33 "j_wristcrease_le" 32
  34 "j_shoulder_ri" 2
  35 "j_elbow_ri" 34
  36 "j_elbow_bulge_ri" 35
  37 "j_wrist_ri" 35
  38 "j_indexbase_ri" 37
  39 "j_index_ri_1" 38
  40 "j_index_ri_2" 39
  41 "j_index_ri_3" 40
  42 "j_indexretract_ri" 38
  43 "j_mid_ri_1" 37
  44 "j_mid_ri_2" 43
  45 "j_mid_ri_3" 44
  46 "j_pinkybase_ri" 37
  47 "j_pinky_ri_1" 46
  48 "j_pinky_ri_2" 47
  49 "j_pinky_ri_3" 48
  50 "j_ringbase_ri" 37
  51 "j_ring_ri_1" 50
  52 "j_ring_ri_2" 51
  53 "j_ring_ri_3" 52
  54 "j_thumb_ri_1" 37
  55 "j_thumb_ri_2" 54
  56 "j_thumb_ri_3" 55
  57 "j_wristtwist1_ri" 35
  58 "j_wristtwist2_ri" 35
  59 "j_wristtwist3_ri" 35
  60 "j_wristtwist4_ri" 35
  61 "j_wristtwist5_ri" 35
  62 "j_wristtwist6_ri" 35
  63 "j_wristtwist_ri" 35
  64 "j_wristcrease2_ri" 63
  65 "T7:Joints" -1
  66 "ValveBiped.Bip01_L_UpperArm" 3
  67 "ValveBiped.Bip01_L_Forearm" 4
  68 "ValveBiped.Bip01_L_Hand" 6
  69 "ValveBiped.Bip01_L_Finger0" 23
  70 "ValveBiped.Bip01_L_Finger01" 24
  71 "ValveBiped.Bip01_L_Finger02" 25
  72 "ValveBiped.Bip01_L_Finger1" 8
  73 "ValveBiped.Bip01_L_Finger11" 9
  74 "ValveBiped.Bip01_L_Finger12" 10
  75 "ValveBiped.Bip01_L_Finger2" 12
  76 "ValveBiped.Bip01_L_Finger21" 13
  77 "ValveBiped.Bip01_L_Finger22" 14
  78 "ValveBiped.Bip01_L_Finger3" 20
  79 "ValveBiped.Bip01_L_Finger31" 21
  80 "ValveBiped.Bip01_L_Finger32" 22
  81 "ValveBiped.Bip01_L_Finger4" 16
  82 "ValveBiped.Bip01_L_Finger41" 17
  83 "ValveBiped.Bip01_L_Finger42" 18
  84 "ValveBiped.Bip01_R_UpperArm" 34
  85 "ValveBiped.Bip01_R_Forearm" 35
  86 "ValveBiped.Bip01_R_Hand" 37
  87 "ValveBiped.Bip01_R_Finger0" 54
  88 "ValveBiped.Bip01_R_Finger01" 55
  89 "ValveBiped.Bip01_R_Finger02" 56
  90 "ValveBiped.Bip01_R_Finger1" 39
  91 "ValveBiped.Bip01_R_Finger11" 40
  92 "ValveBiped.Bip01_R_Finger12" 41
  93 "ValveBiped.Bip01_R_Finger2" 43
  94 "ValveBiped.Bip01_R_Finger21" 44
  95 "ValveBiped.Bip01_R_Finger22" 45
  96 "ValveBiped.Bip01_R_Finger3" 51
  97 "ValveBiped.Bip01_R_Finger31" 52
  98 "ValveBiped.Bip01_R_Finger32" 53
  99 "ValveBiped.Bip01_R_Finger4" 47
  100 "ValveBiped.Bip01_R_Finger41" 48
  101 "ValveBiped.Bip01_R_Finger42" 49
  102 "tag_weapon_right" 2
  103 "tag_weapon" 102
  104 "tag_bolt_animate" 103
  105 "tag_brass" 103
  106 "tag_mag_release_animate" 103
  107 "tag_clip" 103
  108 "j_charginghandle" 103
  109 "j_loose_round" 103
  110 "j_mag1" 103
  111 "j_mag2" 103
  112 "j_slide" 103
  113 "tag_flash" 103
  114 "tag_charging_handle_animate" 103
end
skeleton
  time 0
    0 0.000000 3.000000 -21.796875 0.000000 0.000000 -1.570796
    1 0.000000 0.000000 0.000000 0.000000 0.000000 0.000000
    2 -0.423340 0.000000 22.046875 0.000000 0.000000 0.000000
    3 4.812500 8.140625 -11.429688 -1.109156 0.003324 -0.530024
    4 10.898438 -0.000813 0.000673 -0.000013 -0.000004 -0.680632
    5 -0.000001 -0.000005 0.000000 -0.000003 0.000000 0.000002
    6 9.960938 0.012856 0.015251 -1.522968 -0.107574 0.682718
    7 3.503906 -1.089844 0.078369 0.000001 0.000000 0.000003
    8 0.020782 -0.015282 -0.043976 -1.589422 0.477530 0.546503
    9 1.460938 -0.057770 -0.014816 -0.016267 -0.089392 0.963684
    10 0.992188 -0.047150 0.019470 0.071949 0.073845 1.024967
    11 0.000002 -0.000006 0.000003 0.000000 0.000000 -0.000001
    12 3.416016 0.110413 0.032776 -1.807618 0.878729 0.441553
    13 1.808594 -0.117188 -0.001736 -0.055838 0.099431 1.332636
    14 1.081055 0.063110 -0.007889 -0.026254 -0.015565 0.460915
    15 0.701172 1.208008 -0.282227 -1.516198 0.320808 -0.016881
    16 2.076172 0.080688 -0.007565 -0.991248 0.117268 0.955396
    17 1.110352 0.000891 0.006260 0.019424 -0.040889 1.034619
    18 0.729980 -0.016861 -0.013962 -0.073685 -0.094645 0.722339
    19 1.118164 0.650879 0.045502 -1.574862 0.167867 -0.030305
    20 2.056641 0.043030 0.074463 -0.838907 -0.185502 1.040259
    21 1.612305 -0.016388 -0.001643 0.007053 0.023361 1.269140
    22 0.885254 0.112976 -0.021454 -0.150703 0.012367 0.332895
    23 0.167603 -1.422852 0.160034 0.154847 0.576949 -0.280227
    24 2.291016 -0.004234 0.010689 -0.198620 -0.224374 0.072237
    25 1.268555 -0.004280 0.034454 0.412367 -0.121955 -0.126938
    26 7.464844 0.005966 0.011452 -1.309363 -0.000972 0.000438
    27 6.214844 0.003592 0.009087 -1.081193 -0.000866 0.000299
    28 4.980469 0.001880 0.006680 -0.852836 -0.000706 0.000161
    29 3.734375 0.000842 0.004517 -0.639168 -0.000535 0.000048
    30 2.486328 0.000257 0.002619 -0.426371 -0.000369 0.000008
    31 1.244141 0.000020 0.001092 -0.213132 -0.000184 -0.000017
    32 8.703125 0.008820 0.013535 -1.522819 -0.001051 0.000609
    33 0.000002 0.000004 0.000002 -0.000001 0.000000 0.000001
    34 -9.445313 -8.140625 -4.949219 1.519005 -0.628901 -3.033998
    35 -10.867188 0.000957 0.001241 0.000039 0.000016 -0.972886
    36 -0.000002 -0.000012 -0.000010 -0.000002 0.000000 -0.000001
    37 -9.953125 -0.003164 0.000979 0.153100 -0.096015 0.399476
    38 -3.503906 1.091797 -0.078552 0.000001 0.000000 -0.000004
    39 0.026337 0.182495 -0.005402 -1.539843 0.222677 -0.138864
    40 -1.482422 -0.087158 0.003698 -0.012877 -0.011821 0.171887
    41 -1.033203 -0.094177 0.003510 -0.021153 -0.000564 0.194641
    42 0.000011 -0.000005 0.000005 0.000001 0.000000 0.000002
    43 -3.498047 -0.036774 0.048859 -2.365275 1.199962 -0.630057
    44 -1.804688 0.036499 -0.002831 0.005383 0.017449 0.943885
    45 -1.070313 0.061249 -0.002096 0.002047 0.009313 0.927496
    46 -0.622559 -1.148438 0.271484 0.510053 -0.369450 -3.081464
    47 2.306641 -0.067810 -0.058716 -1.434441 0.675904 -3.037421
    48 -1.117188 0.005547 -0.000216 0.010469 0.060959 0.791711
    49 -0.758301 0.045441 -0.004086 0.023202 0.013867 1.033491
    50 -1.101563 -0.643555 -0.053040 0.424522 -0.214014 -3.080632
    51 2.091797 -0.022446 0.046967 -1.472431 0.986728 -2.927368
    52 -1.645508 0.005753 0.000346 -0.001712 0.006806 0.868927
    53 -0.881836 0.044647 -0.000978 -0.003279 0.007543 0.949144
    54 -0.308350 1.352539 -0.099060 0.594761 0.903914 -0.508232
    55 -2.326172 -0.003761 0.001081 -0.091007 0.054906 0.391017
    56 -1.157227 0.015038 -0.002480 0.234413 0.178981 0.761949
    57 -7.464844 -0.000757 0.000896 0.131714 0.000079 0.000022
    58 -6.218750 -0.000606 0.000629 0.108686 0.000078 0.000012
    59 -4.968750 -0.000442 0.000410 0.085714 0.000050 0.000002
    60 -3.734375 -0.000318 0.000248 0.064273 0.000048 0.000002
    61 -2.486328 -0.000193 0.000126 0.042879 0.000023 0.000000
    62 -1.244141 -0.000092 0.000043 0.021449 0.000006 -0.000002
    63 -8.710938 -0.000937 0.001185 0.153102 0.000114 0.000016
    64 0.000002 0.000000 0.000000 -0.000001 0.000000 0.000002
    65 0.000000 3.000000 5.000000 0.000000 0.000000 -3.141592
    66 0.000001 0.399658 0.000002 0.000000 0.000000 0.000000
    67 -0.000001 -0.000002 0.000001 0.000000 0.000000 0.000001
    68 0.000006 0.000001 0.000001 1.221730 -0.087267 0.174533
    69 0.000000 -0.000004 -0.000001 0.000000 0.000000 0.000001
    70 0.000002 -0.000006 0.000000 0.000001 0.000000 0.000000
    71 -0.000008 0.000011 0.000000 0.000001 0.000000 0.000001
    72 0.000008 0.000003 0.000000 3.141592 -0.000001 -0.000001
    73 0.000004 0.000000 -0.000002 3.141591 0.000000 -0.000001
    74 -0.000004 -0.000006 -0.000008 3.141592 0.000000 0.000000
    75 0.000004 -0.000004 0.000002 3.141592 -0.000001 0.000000
    76 -0.000002 0.000002 0.000003 3.141592 0.000000 0.000000
    77 -0.000004 0.000006 0.000000 3.141592 0.000000 0.000000
    78 -0.000004 -0.099976 -0.099915 -3.141593 0.000000 -0.000001
    79 -0.099915 -0.099915 -0.099792 3.141592 0.000000 0.000000
    80 -0.099915 -0.099976 -0.099854 3.141593 0.000000 0.000000
    81 -0.099915 -0.119873 -0.099915 3.141593 -0.000001 0.000000
    82 -0.099915 -0.119934 -0.099670 3.141593 0.000000 0.000000
    83 -0.099915 -0.119873 -0.099976 3.141592 0.000000 0.000000
    84 0.000000 0.000000 0.000000 0.000000 0.000000 -3.141593
    85 0.000001 0.000001 0.000000 0.000000 0.000000 -3.141593
    86 0.000002 -0.000004 0.000000 -1.570797 0.087267 -3.054326
    87 0.000000 0.000006 -0.000001 -0.000001 0.000000 -3.141593
    88 -0.000002 0.000011 0.000000 -0.000001 0.000000 -3.141593
    89 0.000002 0.000006 0.000000 -0.000001 0.000000 -3.141593
    90 -0.000004 -0.000002 0.000006 -3.141592 0.000001 3.141593
    91 0.000000 -0.000008 -0.000007 -3.141592 0.000000 3.141593
    92 0.000001 0.000008 0.000002 -3.141592 0.000000 3.141593
    93 -0.000006 0.000002 0.000004 -3.141593 0.000000 3.141593
    94 0.000000 0.000002 -0.000002 -3.141592 0.000000 -3.141592
    95 0.000006 0.000004 0.000002 -3.141592 0.000000 -3.141593
    96 0.099915 0.199585 0.099915 -3.141592 0.000000 -3.141593
    97 0.099976 0.199585 0.099915 -3.141593 0.000000 3.141593
    98 0.099915 0.199707 0.099915 -3.141592 -0.000001 3.141593
    99 -0.000004 0.119934 0.099854 -3.141592 0.000000 -3.141593
    100 -0.000001 0.119812 0.099915 3.141593 0.000000 -3.141593
    101 -0.000004 0.119934 0.099915 -3.141593 0.000000 3.141593
    102 12.390625 -4.875000 -7.062500 0.000000 0.000000 0.000000
    103 0.000000 0.000000 0.000000 0.000000 0.000000 0.000000
    104 4.523438 0.000001 3.687500 0.000000 0.000000 0.000000
    105 4.156250 -0.000001 3.812500 -0.000035 -0.610853 -1.570564
    106 4.277344 -0.000002 0.849121 0.000000 0.000000 0.000000
    107 5.539063 0.000001 0.000000 0.000000 0.000000 0.000000
    108 3.455010 0.000004 2.018000 0.000010 0.000000 0.000007
    109 -2.088972 -3.614023 0.605963 0.000010 0.000000 0.000007
    110 -1.971998 -0.000010 -0.796001 0.000011 -0.204731 0.000006
    111 -1.971998 -0.000010 -0.796001 0.000011 -0.204731 0.000006
    112 -5.858999 0.072452 2.682749 0.000000 0.000000 0.000000
    113 12.507813 0.000000 3.259766 0.000000 0.000000 0.000000
    114 10.230598 0.000000 4.378193 0.000000 0.000000 0.000000
  time 1
    0 0.000000 3.000000 -21.796875 0.000000 0.000000 -1.570796
    1 0.000000 0.000000 0.000000 0.000000 0.000000 0.000000
    2 -0.423340 0.000000 22.046875 0.000000 0.000000 0.000000
    3 4.812500 8.140625 -11.429688 -1.109156 0.003324 -0.530024
    4 10.898438 -0.000813 0.000673 -0.000013 -0.000004 -0.680632
    5 -0.000001 -0.000005 0.000000 -0.000003 0.000000 0.000002
    6 9.960938 0.012856 0.015251 -1.522968 -0.107574 0.682718
    7 3.503906 -1.089844 0.078369 0.000001 0.000000 0.000003
    8 0.020782 -0.015282 -0.043976 -1.589422 0.477530 0.546503
    9 1.460938 -0.057770 -0.014816 -0.016267 -0.089392 0.963684
    10 0.992188 -0.047150 0.019470 0.071949 0.073845 1.024967
    11 0.000002 -0.000006 0.000003 0.000000 0.000000 -0.000001
    12 3.416016 0.110413 0.032776 -1.807618 0.878729 0.441553
    13 1.808594 -0.117188 -0.001736 -0.055838 0.099431 1.332636
    14 1.081055 0.063110 -0.007889 -0.026254 -0.015565 0.460915
    15 0.701172 1.208008 -0.282227 -1.516198 0.320808 -0.016881
    16 2.076172 0.080688 -0.007565 -0.991248 0.117268 0.955396
    17 1.110352 0.000891 0.006260 0.019424 -0.040889 1.034619
    18 0.729980 -0.016861 -0.013962 -0.073685 -0.094645 0.722339
    19 1.118164 0.650879 0.045502 -1.574862 0.167867 -0.030305
    20 2.056641 0.043030 0.074463 -0.838907 -0.185502 1.040259
    21 1.612305 -0.016388 -0.001643 0.007053 0.023361 1.269140
    22 0.885254 0.112976 -0.021454 -0.150703 0.012367 0.332895
    23 0.167603 -1.422852 0.160034 0.154847 0.576949 -0.280227
    24 2.291016 -0.004234 0.010689 -0.198620 -0.224374 0.072237
    25 1.268555 -0.004280 0.034454 0.412367 -0.121955 -0.126938
    26 7.464844 0.005966 0.011452 -1.309363 -0.000972 0.000438
    27 6.214844 0.003592 0.009087 -1.081193 -0.000866 0.000299
    28 4.980469 0.001880 0.006680 -0.852836 -0.000706 0.000161
    29 3.734375 0.000842 0.004517 -0.639168 -0.000535 0.000048
    30 2.486328 0.000257 0.002619 -0.426371 -0.000369 0.000008
    31 1.244141 0.000020 0.001092 -0.213132 -0.000184 -0.000017
    32 8.703125 0.008820 0.013535 -1.522819 -0.001051 0.000609
    33 0.000002 0.000004 0.000002 -0.000001 0.000000 0.000001
    34 -9.445313 -8.140625 -4.949219 1.519005 -0.628901 -3.033998
    35 -10.867188 0.000957 0.001241 0.000039 0.000016 -0.972886
    36 -0.000002 -0.000012 -0.000010 -0.000002 0.000000 -0.000001
    37 -9.953125 -0.003164 0.000979 0.153100 -0.096015 0.399476
    38 -3.503906 1.091797 -0.078552 0.000001 0.000000 -0.000004
    39 0.026337 0.182495 -0.005402 -1.539843 0.222677 -0.138864
    40 -1.482422 -0.087158 0.003698 -0.012877 -0.011821 0.171887
    41 -1.033203 -0.094177 0.003510 -0.021153 -0.000564 0.194641
    42 0.000011 -0.000005 0.000005 0.000001 0.000000 0.000002
    43 -3.498047 -0.036774 0.048859 -2.365275 1.199962 -0.630057
    44 -1.804688 0.036499 -0.002831 0.005383 0.017449 0.943885
    45 -1.070313 0.061249 -0.002096 0.002047 0.009313 0.927496
    46 -0.622559 -1.148438 0.271484 0.510053 -0.369450 -3.081464
    47 2.306641 -0.067810 -0.058716 -1.434441 0.675904 -3.037421
    48 -1.117188 0.005547 -0.000216 0.010469 0.060959 0.791711
    49 -0.758301 0.045441 -0.004086 0.023202 0.013867 1.033491
    50 -1.101563 -0.643555 -0.053040 0.424522 -0.214014 -3.080632
    51 2.091797 -0.022446 0.046967 -1.472431 0.986728 -2.927368
    52 -1.645508 0.005753 0.000346 -0.001712 0.006806 0.868927
    53 -0.881836 0.044647 -0.000978 -0.003279 0.007543 0.949144
    54 -0.308350 1.352539 -0.099060 0.594761 0.903914 -0.508232
    55 -2.326172 -0.003761 0.001081 -0.091007 0.054906 0.391017
    56 -1.157227 0.015038 -0.002480 0.234413 0.178981 0.761949
    57 -7.464844 -0.000757 0.000896 0.131714 0.000079 0.000022
    58 -6.218750 -0.000606 0.000629 0.108686 0.000078 0.000012
    59 -4.968750 -0.000442 0.000410 0.085714 0.000050 0.000002
    60 -3.734375 -0.000318 0.000248 0.064273 0.000048 0.000002
    61 -2.486328 -0.000193 0.000126 0.042879 0.000023 0.000000
    62 -1.244141 -0.000092 0.000043 0.021449 0.000006 -0.000002
    63 -8.710938 -0.000937 0.001185 0.153102 0.000114 0.000016
    64 0.000002 0.000000 0.000000 -0.000001 0.000000 0.000002
    65 0.000000 3.000000 5.000000 0.000000 0.000000 -3.141592
    66 0.000001 0.399658 0.000002 0.000000 0.000000 0.000000
    67 -0.000001 -0.000002 0.000001 0.000000 0.000000 0.000001
    68 0.000006 0.000001 0.000001 1.221730 -0.087267 0.174533
    69 0.000000 -0.000004 -0.000001 0.000000 0.000000 0.000001
    70 0.000002 -0.000006 0.000000 0.000001 0.000000 0.000000
    71 -0.000008 0.000011 0.000000 0.000001 0.000000 0.000001
    72 0.000008 0.000003 0.000000 3.141592 -0.000001 -0.000001
    73 0.000004 0.000000 -0.000002 3.141591 0.000000 -0.000001
    74 -0.000004 -0.000006 -0.000008 3.141592 0.000000 0.000000
    75 0.000004 -0.000004 0.000002 3.141592 -0.000001 0.000000
    76 -0.000002 0.000002 0.000003 3.141592 0.000000 0.000000
    77 -0.000004 0.000006 0.000000 3.141592 0.000000 0.000000
    78 -0.000004 -0.099976 -0.099915 -3.141593 0.000000 -0.000001
    79 -0.099915 -0.099915 -0.099792 3.141592 0.000000 0.000000
    80 -0.099915 -0.099976 -0.099854 3.141593 0.000000 0.000000
    81 -0.099915 -0.119873 -0.099915 3.141593 -0.000001 0.000000
    82 -0.099915 -0.119934 -0.099670 3.141593 0.000000 0.000000
    83 -0.099915 -0.119873 -0.099976 3.141592 0.000000 0.000000
    84 0.000000 0.000000 0.000000 0.000000 0.000000 -3.141593
    85 0.000001 0.000001 0.000000 0.000000 0.000000 -3.141593
    86 0.000002 -0.000004 0.000000 -1.570797 0.087267 -3.054326
    87 0.000000 0.000006 -0.000001 -0.000001 0.000000 -3.141593
    88 -0.000002 0.000011 0.000000 -0.000001 0.000000 -3.141593
    89 0.000002 0.000006 0.000000 -0.000001 0.000000 -3.141593
    90 -0.000004 -0.000002 0.000006 -3.141592 0.000001 3.141593
    91 0.000000 -0.000008 -0.000007 -3.141592 0.000000 3.141593
    92 0.000001 0.000008 0.000002 -3.141592 0.000000 3.141593
    93 -0.000006 0.000002 0.000004 -3.141593 0.000000 3.141593
    94 0.000000 0.000002 -0.000002 -3.141592 0.000000 -3.141592
    95 0.000006 0.000004 0.000002 -3.141592 0.000000 -3.141593
    96 0.099915 0.199585 0.099915 -3.141592 0.000000 -3.141593
    97 0.099976 0.199585 0.099915 -3.141593 0.000000 3.141593
    98 0.099915 0.199707 0.099915 -3.141592 -0.000001 3.141593
    99 -0.000004 0.119934 0.099854 -3.141592 0.000000 -3.141593
    100 -0.000001 0.119812 0.099915 3.141593 0.000000 -3.141593
    101 -0.000004 0.119934 0.099915 -3.141593 0.000000 3.141593
    102 12.390625 -4.875000 -7.062500 0.000000 0.000000 0.000000
    103 0.000000 0.000000 0.000000 0.000000 0.000000 0.000000
    104 4.523438 0.000001 3.687500 0.000000 0.000000 0.000000
    105 4.156250 -0.000001 3.812500 -0.000035 -0.610853 -1.570564
    106 4.277344 -0.000002 0.849121 0.000000 0.000000 0.000000
    107 5.539063 0.000001 0.000000 0.000000 0.000000 0.000000
    108 3.455010 0.000004 2.018000 0.000010 0.000000 0.000007
    109 -2.088972 -3.614023 0.605963 0.000010 0.000000 0.000007
    110 -1.971998 -0.000010 -0.796001 0.000011 -0.204731 0.000006
    111 -1.971998 -0.000010 -0.796001 0.000011 -0.204731 0.000006
    112 -5.858999 0.072452 2.682749 0.000000 0.000000 0.000000
    113 12.507813 0.000000 3.259766 0.000000 0.000000 0.000000
    114 10.230598 0.000000 4.378193 0.000000 0.000000 0.000000
  time 2
    0 0.000000 3.000000 -21.796875 0.000000 0.000000 -1.570796
    1 0.000000 0.000000 0.000000 0.000000 0.000000 0.000000
    2 -0.423340 0.000000 22.046875 0.000000 0.000000 0.000000
    3 4.812500 8.140625 -11.429688 -1.109156 0.003324 -0.530024
    4 10.898438 -0.000813 0.000673 -0.000013 -0.000004 -0.680632
    5 -0.000001 -0.000005 0.000000 -0.000003 0.000000 0.000002
    6 9.960938 0.012856 0.015251 -1.522968 -0.107574 0.682718
    7 3.503906 -1.089844 0.078369 0.000001 0.000000 0.000003
    8 0.020782 -0.015282 -0.043976 -1.589422 0.477530 0.546503
    9 1.460938 -0.057770 -0.014816 -0.016267 -0.089392 0.963684
    10 0.992188 -0.047150 0.019470 0.071949 0.073845 1.024967
    11 0.000002 -0.000006 0.000003 0.000000 0.000000 -0.000001
    12 3.416016 0.110413 0.032776 -1.807618 0.878729 0.441553
    13 1.808594 -0.117188 -0.001736 -0.055838 0.099431 1.332636
    14 1.081055 0.063110 -0.007889 -0.026254 -0.015565 0.460915
    15 0.701172 1.208008 -0.282227 -1.516198 0.320808 -0.016881
    16 2.076172 0.080688 -0.007565 -0.991248 0.117268 0.955396
    17 1.110352 0.000891 0.006260 0.019424 -0.040889 1.034619
    18 0.729980 -0.016861 -0.013962 -0.073685 -0.094645 0.722339
    19 1.118164 0.650879 0.045502 -1.574862 0.167867 -0.030305
    20 2.056641 0.043030 0.074463 -0.838907 -0.185502 1.040259
    21 1.612305 -0.016388 -0.001643 0.007053 0.023361 1.269140
    22 0.885254 0.112976 -0.021454 -0.150703 0.012367 0.332895
    23 0.167603 -1.422852 0.160034 0.154847 0.576949 -0.280227
    24 2.291016 -0.004234 0.010689 -0.198620 -0.224374 0.072237
    25 1.268555 -0.004280 0.034454 0.412367 -0.121955 -0.126938
    26 7.464844 0.005966 0.011452 -1.309363 -0.000972 0.000438
    27 6.214844 0.003592 0.009087 -1.081193 -0.000866 0.000299
    28 4.980469 0.001880 0.006680 -0.852836 -0.000706 0.000161
    29 3.734375 0.000842 0.004517 -0.639168 -0.000535 0.000048
    30 2.486328 0.000257 0.002619 -0.426371 -0.000369 0.000008
    31 1.244141 0.000020 0.001092 -0.213132 -0.000184 -0.000017
    32 8.703125 0.008820 0.013535 -1.522819 -0.001051 0.000609
    33 0.000002 0.000004 0.000002 -0.000001 0.000000 0.000001
    34 -9.445313 -8.140625 -4.949219 1.519005 -0.628901 -3.033998
    35 -10.867188 0.000957 0.001241 0.000039 0.000016 -0.972886
    36 -0.000002 -0.000012 -0.000010 -0.000002 0.000000 -0.000001
    37 -9.953125 -0.003164 0.000979 0.153100 -0.096015 0.399476
    38 -3.503906 1.091797 -0.078552 0.000001 0.000000 -0.000004
    39 0.026337 0.182495 -0.005402 -1.539843 0.222677 -0.138864
    40 -1.482422 -0.087158 0.003698 -0.012877 -0.011821 0.171887
    41 -1.033203 -0.094177 0.003510 -0.021153 -0.000564 0.194641
    42 0.000011 -0.000005 0.000005 0.000001 0.000000 0.000002
    43 -3.498047 -0.036774 0.048859 -2.365275 1.199962 -0.630057
    44 -1.804688 0.036499 -0.002831 0.005383 0.017449 0.943885
    45 -1.070313 0.061249 -0.002096 0.002047 0.009313 0.927496
    46 -0.622559 -1.148438 0.271484 0.510053 -0.369450 -3.081464
    47 2.306641 -0.067810 -0.058716 -1.434441 0.675904 -3.037421
    48 -1.117188 0.005547 -0.000216 0.010469 0.060959 0.791711
    49 -0.758301 0.045441 -0.004086 0.023202 0.013867 1.033491
    50 -1.101563 -0.643555 -0.053040 0.424522 -0.214014 -3.080632
    51 2.091797 -0.022446 0.046967 -1.472431 0.986728 -2.927368
    52 -1.645508 0.005753 0.000346 -0.001712 0.006806 0.868927
    53 -0.881836 0.044647 -0.000978 -0.003279 0.007543 0.949144
    54 -0.308350 1.352539 -0.099060 0.594761 0.903914 -0.508232
    55 -2.326172 -0.003761 0.001081 -0.091007 0.054906 0.391017
    56 -1.157227 0.015038 -0.002480 0.234413 0.178981 0.761949
    57 -7.464844 -0.000757 0.000896 0.131714 0.000079 0.000022
    58 -6.218750 -0.000606 0.000629 0.108686 0.000078 0.000012
    59 -4.968750 -0.000442 0.000410 0.085714 0.000050 0.000002
    60 -3.734375 -0.000318 0.000248 0.064273 0.000048 0.000002
    61 -2.486328 -0.000193 0.000126 0.042879 0.000023 0.000000
    62 -1.244141 -0.000092 0.000043 0.021449 0.000006 -0.000002
    63 -8.710938 -0.000937 0.001185 0.153102 0.000114 0.000016
    64 0.000002 0.000000 0.000000 -0.000001 0.000000 0.000002
    65 0.000000 3.000000 5.000000 0.000000 0.000000 -3.141592
    66 0.000001 0.399658 0.000002 0.000000 0.000000 0.000000
    67 -0.000001 -0.000002 0.000001 0.000000 0.000000 0.000001
    68 0.000006 0.000001 0.000001 1.221730 -0.087267 0.174533
    69 0.000000 -0.000004 -0.000001 0.000000 0.000000 0.000001
    70 0.000002 -0.000006 0.000000 0.000001 0.000000 0.000000
    71 -0.000008 0.000011 0.000000 0.000001 0.000000 0.000001
    72 0.000008 0.000003 0.000000 3.141592 -0.000001 -0.000001
    73 0.000004 0.000000 -0.000002 3.141591 0.000000 -0.000001
    74 -0.000004 -0.000006 -0.000008 3.141592 0.000000 0.000000
    75 0.000004 -0.000004 0.000002 3.141592 -0.000001 0.000000
    76 -0.000002 0.000002 0.000003 3.141592 0.000000 0.000000
    77 -0.000004 0.000006 0.000000 3.141592 0.000000 0.000000
    78 -0.000004 -0.099976 -0.099915 -3.141593 0.000000 -0.000001
    79 -0.099915 -0.099915 -0.099792 3.141592 0.000000 0.000000
    80 -0.099915 -0.099976 -0.099854 3.141593 0.000000 0.000000
    81 -0.099915 -0.119873 -0.099915 3.141593 -0.000001 0.000000
    82 -0.099915 -0.119934 -0.099670 3.141593 0.000000 0.000000
    83 -0.099915 -0.119873 -0.099976 3.141592 0.000000 0.000000
    84 0.000000 0.000000 0.000000 0.000000 0.000000 -3.141593
    85 0.000001 0.000001 0.000000 0.000000 0.000000 -3.141593
    86 0.000002 -0.000004 0.000000 -1.570797 0.087267 -3.054326
    87 0.000000 0.000006 -0.000001 -0.000001 0.000000 -3.141593
    88 -0.000002 0.000011 0.000000 -0.000001 0.000000 -3.141593
    89 0.000002 0.000006 0.000000 -0.000001 0.000000 -3.141593
    90 -0.000004 -0.000002 0.000006 -3.141592 0.000001 3.141593
    91 0.000000 -0.000008 -0.000007 -3.141592 0.000000 3.141593
    92 0.000001 0.000008 0.000002 -3.141592 0.000000 3.141593
    93 -0.000006 0.000002 0.000004 -3.141593 0.000000 3.141593
    94 0.000000 0.000002 -0.000002 -3.141592 0.000000 -3.141592
    95 0.000006 0.000004 0.000002 -3.141592 0.000000 -3.141593
    96 0.099915 0.199585 0.099915 -3.141592 0.000000 -3.141593
    97 0.099976 0.199585 0.099915 -3.141593 0.000000 3.141593
    98 0.099915 0.199707 0.099915 -3.141592 -0.000001 3.141593
    99 -0.000004 0.119934 0.099854 -3.141592 0.000000 -3.141593
    100 -0.000001 0.119812 0.099915 3.141593 0.000000 -3.141593
    101 -0.000004 0.119934 0.099915 -3.141593 0.000000 3.141593
    102 12.390625 -4.875000 -7.062500 0.000000 0.000000 0.000000
    103 0.000000 0.000000 0.000000 0.000000 0.000000 0.000000
    104 4.523438 0.000001 3.687500 0.000000 0.000000 0.000000
    105 4.156250 -0.000001 3.812500 -0.000035 -0.610853 -1.570564
    106 4.277344 -0.000002 0.849121 0.000000 0.000000 0.000000
    107 5.539063 0.000001 0.000000 0.000000 0.000000 0.000000
    108 3.455010 0.000004 2.018000 0.000010 0.000000 0.000007
    109 -2.088972 -3.614023 0.605963 0.000010 0.000000 0.000007
    110 -1.971998 -0.000010 -0.796001 0.000011 -0.204731 0.000006
    111 -1.971998 -0.000010 -0.796001 0.000011 -0.204731 0.000006
    112 -5.858999 0.072452 2.682749 0.000000 0.000000 0.000000
    113 12.507813 0.000000 3.259766 0.000000 0.000000 0.000000
    114 10.230598 0.000000 4.378193 0.000000 0.000000 0.000000
  time 3
    0 0.000000 3.000000 -21.796875 0.000000 0.000000 -1.570796
    1 0.000000 0.000000 0.000000 0.000000 0.000000 0.000000
    2 -0.423340 0.000000 22.046875 0.000000 0.000000 0.000000
    3 4.812500 8.140625 -11.429688 -1.109156 0.003324 -0.530024
    4 10.898438 -0.000813 0.000673 -0.000013 -0.000004 -0.680632
    5 -0.000001 -0.000005 0.000000 -0.000003 0.000000 0.000002
    6 9.960938 0.012856 0.015251 -1.522968 -0.107574 0.682718
    7 3.503906 -1.089844 0.078369 0.000001 0.000000 0.000003
    8 0.020782 -0.015282 -0.043976 -1.589422 0.477530 0.546503
    9 1.460938 -0.057770 -0.014816 -0.016267 -0.089392 0.963684
    10 0.992188 -0.047150 0.019470 0.071949 0.073845 1.024967
    11 0.000002 -0.000006 0.000003 0.000000 0.000000 -0.000001
    12 3.416016 0.110413 0.032776 -1.807618 0.878729 0.441553
    13 1.808594 -0.117188 -0.001736 -0.055838 0.099431 1.332636
    14 1.081055 0.063110 -0.007889 -0.026254 -0.015565 0.460915
    15 0.701172 1.208008 -0.282227 -1.516198 0.320808 -0.016881
    16 2.076172 0.080688 -0.007565 -0.991248 0.117268 0.955396
    17 1.110352 0.000891 0.006260 0.019424 -0.040889 1.034619
    18 0.729980 -0.016861 -0.013962 -0.073685 -0.094645 0.722339
    19 1.118164 0.650879 0.045502 -1.574862 0.167867 -0.030305
    20 2.056641 0.043030 0.074463 -0.838907 -0.185502 1.040259
    21 1.612305 -0.016388 -0.001643 0.007053 0.023361 1.269140
    22 0.885254 0.112976 -0.021454 -0.150703 0.012367 0.332895
    23 0.167603 -1.422852 0.160034 0.154847 0.576949 -0.280227
    24 2.291016 -0.004234 0.010689 -0.198620 -0.224374 0.072237
    25 1.268555 -0.004280 0.034454 0.412367 -0.121955 -0.126938
    26 7.464844 0.005966 0.011452 -1.309363 -0.000972 0.000438
    27 6.214844 0.003592 0.009087 -1.081193 -0.000866 0.000299
    28 4.980469 0.001880 0.006680 -0.852836 -0.000706 0.000161
    29 3.734375 0.000842 0.004517 -0.639168 -0.000535 0.000048
    30 2.486328 0.000257 0.002619 -0.426371 -0.000369 0.000008
    31 1.244141 0.000020 0.001092 -0.213132 -0.000184 -0.000017
    32 8.703125 0.008820 0.013535 -1.522819 -0.001051 0.000609
    33 0.000002 0.000004 0.000002 -0.000001 0.000000 0.000001
    34 -9.445313 -8.140625 -4.949219 1.519005 -0.628901 -3.033998
    35 -10.867188 0.000957 0.001241 0.000039 0.000016 -0.972886
    36 -0.000002 -0.000012 -0.000010 -0.000002 0.000000 -0.000001
    37 -9.953125 -0.003164 0.000979 0.153100 -0.096015 0.399476
    38 -3.503906 1.091797 -0.078552 0.000001 0.000000 -0.000004
    39 0.026337 0.182495 -0.005402 -1.539843 0.222677 -0.138864
    40 -1.482422 -0.087158 0.003698 -0.012877 -0.011821 0.171887
    41 -1.033203 -0.094177 0.003510 -0.021153 -0.000564 0.194641
    42 0.000011 -0.000005 0.000005 0.000001 0.000000 0.000002
    43 -3.498047 -0.036774 0.048859 -2.365275 1.199962 -0.630057
    44 -1.804688 0.036499 -0.002831 0.005383 0.017449 0.943885
    45 -1.070313 0.061249 -0.002096 0.002047 0.009313 0.927496
    46 -0.622559 -1.148438 0.271484 0.510053 -0.369450 -3.081464
    47 2.306641 -0.067810 -0.058716 -1.434441 0.675904 -3.037421
    48 -1.117188 0.005547 -0.000216 0.010469 0.060959 0.791711
    49 -0.758301 0.045441 -0.004086 0.023202 0.013867 1.033491
    50 -1.101563 -0.643555 -0.053040 0.424522 -0.214014 -3.080632
    51 2.091797 -0.022446 0.046967 -1.472431 0.986728 -2.927368
    52 -1.645508 0.005753 0.000346 -0.001712 0.006806 0.868927
    53 -0.881836 0.044647 -0.000978 -0.003279 0.007543 0.949144
    54 -0.308350 1.352539 -0.099060 0.594761 0.903914 -0.508232
    55 -2.326172 -0.003761 0.001081 -0.091007 0.054906 0.391017
    56 -1.157227 0.015038 -0.002480 0.234413 0.178981 0.761949
    57 -7.464844 -0.000757 0.000896 0.131714 0.000079 0.000022
    58 -6.218750 -0.000606 0.000629 0.108686 0.000078 0.000012
    59 -4.968750 -0.000442 0.000410 0.085714 0.000050 0.000002
    60 -3.734375 -0.000318 0.000248 0.064273 0.000048 0.000002
    61 -2.486328 -0.000193 0.000126 0.042879 0.000023 0.000000
    62 -1.244141 -0.000092 0.000043 0.021449 0.000006 -0.000002
    63 -8.710938 -0.000937 0.001185 0.153102 0.000114 0.000016
    64 0.000002 0.000000 0.000000 -0.000001 0.000000 0.000002
    65 0.000000 3.000000 5.000000 0.000000 0.000000 -3.141592
    66 0.000001 0.399658 0.000002 0.000000 0.000000 0.000000
    67 -0.000001 -0.000002 0.000001 0.000000 0.000000 0.000001
    68 0.000006 0.000001 0.000001 1.221730 -0.087267 0.174533
    69 0.000000 -0.000004 -0.000001 0.000000 0.000000 0.000001
    70 0.000002 -0.000006 0.000000 0.000001 0.000000 0.000000
    71 -0.000008 0.000011 0.000000 0.000001 0.000000 0.000001
    72 0.000008 0.000003 0.000000 3.141592 -0.000001 -0.000001
    73 0.000004 0.000000 -0.000002 3.141591 0.000000 -0.000001
    74 -0.000004 -0.000006 -0.000008 3.141592 0.000000 0.000000
    75 0.000004 -0.000004 0.000002 3.141592 -0.000001 0.000000
    76 -0.000002 0.000002 0.000003 3.141592 0.000000 0.000000
    77 -0.000004 0.000006 0.000000 3.141592 0.000000 0.000000
    78 -0.000004 -0.099976 -0.099915 -3.141593 0.000000 -0.000001
    79 -0.099915 -0.099915 -0.099792 3.141592 0.000000 0.000000
    80 -0.099915 -0.099976 -0.099854 3.141593 0.000000 0.000000
    81 -0.099915 -0.119873 -0.099915 3.141593 -0.000001 0.000000
    82 -0.099915 -0.119934 -0.099670 3.141593 0.000000 0.000000
    83 -0.099915 -0.119873 -0.099976 3.141592 0.000000 0.000000
    84 0.000000 0.000000 0.000000 0.000000 0.000000 -3.141593
    85 0.000001 0.000001 0.000000 0.000000 0.000000 -3.141593
    86 0.000002 -0.000004 0.000000 -1.570797 0.087267 -3.054326
    87 0.000000 0.000006 -0.000001 -0.000001 0.000000 -3.141593
    88 -0.000002 0.000011 0.000000 -0.000001 0.000000 -3.141593
    89 0.000002 0.000006 0.000000 -0.000001 0.000000 -3.141593
    90 -0.000004 -0.000002 0.000006 -3.141592 0.000001 3.141593
    91 0.000000 -0.000008 -0.000007 -3.141592 0.000000 3.141593
    92 0.000001 0.000008 0.000002 -3.141592 0.000000 3.141593
    93 -0.000006 0.000002 0.000004 -3.141593 0.000000 3.141593
    94 0.000000 0.000002 -0.000002 -3.141592 0.000000 -3.141592
    95 0.000006 0.000004 0.000002 -3.141592 0.000000 -3.141593
    96 0.099915 0.199585 0.099915 -3.141592 0.000000 -3.141593
    97 0.099976 0.199585 0.099915 -3.141593 0.000000 3.141593
    98 0.099915 0.199707 0.099915 -3.141592 -0.000001 3.141593
    99 -0.000004 0.119934 0.099854 -3.141592 0.000000 -3.141593
    100 -0.000001 0.119812 0.099915 3.141593 0.000000 -3.141593
    101 -0.000004 0.119934 0.099915 -3.141593 0.000000 3.141593
    102 12.390625 -4.875000 -7.062500 0.000000 0.000000 0.000000
    103 0.000000 0.000000 0.000000 0.000000 0.000000 0.000000
    104 4.523438 0.000001 3.687500 0.000000 0.000000 0.000000
    105 4.156250 -0.000001 3.812500 -0.000035 -0.610853 -1.570564
    106 4.277344 -0.000002 0.849121 0.000000 0.000000 0.000000
    107 5.539063 0.000001 0.000000 0.000000 0.000000 0.000000
    108 3.455010 0.000004 2.018000 0.000010 0.000000 0.000007
    109 -2.088972 -3.614023 0.605963 0.000010 0.000000 0.000007
    110 -1.971998 -0.000010 -0.796001 0.000011 -0.204731 0.000006
    111 -1.971998 -0.000010 -0.796001 0.000011 -0.204731 0.000006
    112 -5.858999 0.072452 2.682749 0.000000 0.000000 0.000000
    113 12.507813 0.000000 3.259766 0.000000 0.000000 0.000000
    114 10.230598 0.000000 4.378193 0.000000 0.000000 0.000000
  time 4
    0 0.000000 3.000000 -21.796875 0.000000 0.000000 -1.570796
    1 0.000000 0.000000 0.000000 0.000000 0.000000 0.000000
    2 -0.423340 0.000000 22.046875 0.000000 0.000000 0.000000
    3 4.812500 8.140625 -11.429688 -1.109156 0.003324 -0.530024
    4 10.898438 -0.000813 0.000673 -0.000013 -0.000004 -0.680632
    5 -0.000001 -0.000005 0.000000 -0.000003 0.000000 0.000002
    6 9.960938 0.012856 0.015251 -1.522968 -0.107574 0.682718
    7 3.503906 -1.089844 0.078369 0.000001 0.000000 0.000003
    8 0.020782 -0.015282 -0.043976 -1.589422 0.477530 0.546503
    9 1.460938 -0.057770 -0.014816 -0.016267 -0.089392 0.963684
    10 0.992188 -0.047150 0.019470 0.071949 0.073845 1.024967
    11 0.000002 -0.000006 0.000003 0.000000 0.000000 -0.000001
    12 3.416016 0.110413 0.032776 -1.807618 0.878729 0.441553
    13 1.808594 -0.117188 -0.001736 -0.055838 0.099431 1.332636
    14 1.081055 0.063110 -0.007889 -0.026254 -0.015565 0.460915
    15 0.701172 1.208008 -0.282227 -1.516198 0.320808 -0.016881
    16 2.076172 0.080688 -0.007565 -0.991248 0.117268 0.955396
    17 1.110352 0.000891 0.006260 0.019424 -0.040889 1.034619
    18 0.729980 -0.016861 -0.013962 -0.073685 -0.094645 0.722339
    19 1.118164 0.650879 0.045502 -1.574862 0.167867 -0.030305
    20 2.056641 0.043030 0.074463 -0.838907 -0.185502 1.040259
    21 1.612305 -0.016388 -0.001643 0.007053 0.023361 1.269140
    22 0.885254 0.112976 -0.021454 -0.150703 0.012367 0.332895
    23 0.167603 -1.422852 0.160034 0.154847 0.576949 -0.280227
    24 2.291016 -0.004234 0.010689 -0.198620 -0.224374 0.072237
    25 1.268555 -0.004280 0.034454 0.412367 -0.121955 -0.126938
    26 7.464844 0.005966 0.011452 -1.309363 -0.000972 0.000438
    27 6.214844 0.003592 0.009087 -1.081193 -0.000866 0.000299
    28 4.980469 0.001880 0.006680 -0.852836 -0.000706 0.000161
    29 3.734375 0.000842 0.004517 -0.639168 -0.000535 0.000048
    30 2.486328 0.000257 0.002619 -0.426371 -0.000369 0.000008
    31 1.244141 0.000020 0.001092 -0.213132 -0.000184 -0.000017
    32 8.703125 0.008820 0.013535 -1.522819 -0.001051 0.000609
    33 0.000002 0.000004 0.000002 -0.000001 0.000000 0.000001
    34 -9.445313 -8.140625 -4.949219 1.519005 -0.628901 -3.033998
    35 -10.867188 0.000957 0.001241 0.000039 0.000016 -0.972886
    36 -0.000002 -0.000012 -0.000010 -0.000002 0.000000 -0.000001
    37 -9.953125 -0.003164 0.000979 0.153100 -0.096015 0.399476
    38 -3.503906 1.091797 -0.078552 0.000001 0.000000 -0.000004
    39 0.026337 0.182495 -0.005402 -1.539843 0.222677 -0.138864
    40 -1.482422 -0.087158 0.003698 -0.012877 -0.011821 0.171887
    41 -1.033203 -0.094177 0.003510 -0.021153 -0.000564 0.194641
    42 0.000011 -0.000005 0.000005 0.000001 0.000000 0.000002
    43 -3.498047 -0.036774 0.048859 -2.365275 1.199962 -0.630057
    44 -1.804688 0.036499 -0.002831 0.005383 0.017449 0.943885
    45 -1.070313 0.061249 -0.002096 0.002047 0.009313 0.927496
    46 -0.622559 -1.148438 0.271484 0.510053 -0.369450 -3.081464
    47 2.306641 -0.067810 -0.058716 -1.434441 0.675904 -3.037421
    48 -1.117188 0.005547 -0.000216 0.010469 0.060959 0.791711
    49 -0.758301 0.045441 -0.004086 0.023202 0.013867 1.033491
    50 -1.101563 -0.643555 -0.053040 0.424522 -0.214014 -3.080632
    51 2.091797 -0.022446 0.046967 -1.472431 0.986728 -2.927368
    52 -1.645508 0.005753 0.000346 -0.001712 0.006806 0.868927
    53 -0.881836 0.044647 -0.000978 -0.003279 0.007543 0.949144
    54 -0.308350 1.352539 -0.099060 0.594761 0.903914 -0.508232
    55 -2.326172 -0.003761 0.001081 -0.091007 0.054906 0.391017
    56 -1.157227 0.015038 -0.002480 0.234413 0.178981 0.761949
    57 -7.464844 -0.000757 0.000896 0.131714 0.000079 0.000022
    58 -6.218750 -0.000606 0.000629 0.108686 0.000078 0.000012
    59 -4.968750 -0.000442 0.000410 0.085714 0.000050 0.000002
    60 -3.734375 -0.000318 0.000248 0.064273 0.000048 0.000002
    61 -2.486328 -0.000193 0.000126 0.042879 0.000023 0.000000
    62 -1.244141 -0.000092 0.000043 0.021449 0.000006 -0.000002
    63 -8.710938 -0.000937 0.001185 0.153102 0.000114 0.000016
    64 0.000002 0.000000 0.000000 -0.000001 0.000000 0.000002
    65 0.000000 3.000000 5.000000 0.000000 0.000000 -3.141592
    66 0.000001 0.399658 0.000002 0.000000 0.000000 0.000000
    67 -0.000001 -0.000002 0.000001 0.000000 0.000000 0.000001
    68 0.000006 0.000001 0.000001 1.221730 -0.087267 0.174533
    69 0.000000 -0.000004 -0.000001 0.000000 0.000000 0.000001
    70 0.000002 -0.000006 0.000000 0.000001 0.000000 0.000000
    71 -0.000008 0.000011 0.000000 0.000001 0.000000 0.000001
    72 0.000008 0.000003 0.000000 3.141592 -0.000001 -0.000001
    73 0.000004 0.000000 -0.000002 3.141591 0.000000 -0.000001
    74 -0.000004 -0.000006 -0.000008 3.141592 0.000000 0.000000
    75 0.000004 -0.000004 0.000002 3.141592 -0.000001 0.000000
    76 -0.000002 0.000002 0.000003 3.141592 0.000000 0.000000
    77 -0.000004 0.000006 0.000000 3.141592 0.000000 0.000000
    78 -0.000004 -0.099976 -0.099915 -3.141593 0.000000 -0.000001
    79 -0.099915 -0.099915 -0.099792 3.141592 0.000000 0.000000
    80 -0.099915 -0.099976 -0.099854 3.141593 0.000000 0.000000
    81 -0.099915 -0.119873 -0.099915 3.141593 -0.000001 0.000000
    82 -0.099915 -0.119934 -0.099670 3.141593 0.000000 0.000000
    83 -0.099915 -0.119873 -0.099976 3.141592 0.000000 0.000000
    84 0.000000 0.000000 0.000000 0.000000 0.000000 -3.141593
    85 0.000001 0.000001 0.000000 0.000000 0.000000 -3.141593
    86 0.000002 -0.000004 0.000000 -1.570797 0.087267 -3.054326
    87 0.000000 0.000006 -0.000001 -0.000001 0.000000 -3.141593
    88 -0.000002 0.000011 0.000000 -0.000001 0.000000 -3.141593
    89 0.000002 0.000006 0.000000 -0.000001 0.000000 -3.141593
    90 -0.000004 -0.000002 0.000006 -3.141592 0.000001 3.141593
    91 0.000000 -0.000008 -0.000007 -3.141592 0.000000 3.141593
    92 0.000001 0.000008 0.000002 -3.141592 0.000000 3.141593
    93 -0.000006 0.000002 0.000004 -3.141593 0.000000 3.141593
    94 0.000000 0.000002 -0.000002 -3.141592 0.000000 -3.141592
    95 0.000006 0.000004 0.000002 -3.141592 0.000000 -3.141593
    96 0.099915 0.199585 0.099915 -3.141592 0.000000 -3.141593
    97 0.099976 0.199585 0.099915 -3.141593 0.000000 3.141593
    98 0.099915 0.199707 0.099915 -3.141592 -0.000001 3.141593
    99 -0.000004 0.119934 0.099854 -3.141592 0.000000 -3.141593
    100 -0.000001 0.119812 0.099915 3.141593 0.000000 -3.141593
    101 -0.000004 0.119934 0.099915 -3.141593 0.000000 3.141593
    102 12.390625 -4.875000 -7.062500 0.000000 0.000000 0.000000
    103 0.000000 0.000000 0.000000 0.000000 0.000000 0.000000
    104 4.523438 0.000001 3.687500 0.000000 0.000000 0.000000
    105 4.156250 -0.000001 3.812500 -0.000035 -0.610853 -1.570564
    106 4.277344 -0.000002 0.849121 0.000000 0.000000 0.000000
    107 5.539063 0.000001 0.000000 0.000000 0.000000 0.000000
    108 3.455010 0.000004 2.018000 0.000010 0.000000 0.000007
    109 -2.088972 -3.614023 0.605963 0.000010 0.000000 0.000007
    110 -1.971998 -0.000010 -0.796001 0.000011 -0.204731 0.000006
    111 -1.971998 -0.000010 -0.796001 0.000011 -0.204731 0.000006
    112 -5.858999 0.072452 2.682749 0.000000 0.000000 0.000000
    113 12.507813 0.000000 3.259766 0.000000 0.000000 0.000000
    114 10.230598 0.000000 4.378193 0.000000 0.000000 0.000000
  time 5
    0 0.000000 3.000000 -21.796875 0.000000 0.000000 -1.570796
    1 0.000000 0.000000 0.000000 0.000000 0.000000 0.000000
    2 -0.423340 0.000000 22.046875 0.000000 0.000000 0.000000
    3 4.812500 8.140625 -11.429688 -1.109156 0.003324 -0.530024
    4 10.898438 -0.000813 0.000673 -0.000013 -0.000004 -0.680632
    5 -0.000001 -0.000005 0.000000 -0.000003 0.000000 0.000002
    6 9.960938 0.012856 0.015251 -1.522968 -0.107574 0.682718
    7 3.503906 -1.089844 0.078369 0.000001 0.000000 0.000003
    8 0.020782 -0.015282 -0.043976 -1.589422 0.477530 0.546503
    9 1.460938 -0.057770 -0.014816 -0.016267 -0.089392 0.963684
    10 0.992188 -0.047150 0.019470 0.071949 0.073845 1.024967
    11 0.000002 -0.000006 0.000003 0.000000 0.000000 -0.000001
    12 3.416016 0.110413 0.032776 -1.807618 0.878729 0.441553
    13 1.808594 -0.117188 -0.001736 -0.055838 0.099431 1.332636
    14 1.081055 0.063110 -0.007889 -0.026254 -0.015565 0.460915
    15 0.701172 1.208008 -0.282227 -1.516198 0.320808 -0.016881
    16 2.076172 0.080688 -0.007565 -0.991248 0.117268 0.955396
    17 1.110352 0.000891 0.006260 0.019424 -0.040889 1.034619
    18 0.729980 -0.016861 -0.013962 -0.073685 -0.094645 0.722339
    19 1.118164 0.650879 0.045502 -1.574862 0.167867 -0.030305
    20 2.056641 0.043030 0.074463 -0.838907 -0.185502 1.040259
    21 1.612305 -0.016388 -0.001643 0.007053 0.023361 1.269140
    22 0.885254 0.112976 -0.021454 -0.150703 0.012367 0.332895
    23 0.167603 -1.422852 0.160034 0.154847 0.576949 -0.280227
    24 2.291016 -0.004234 0.010689 -0.198620 -0.224374 0.072237
    25 1.268555 -0.004280 0.034454 0.412367 -0.121955 -0.126938
    26 7.464844 0.005966 0.011452 -1.309363 -0.000972 0.000438
    27 6.214844 0.003592 0.009087 -1.081193 -0.000866 0.000299
    28 4.980469 0.001880 0.006680 -0.852836 -0.000706 0.000161
    29 3.734375 0.000842 0.004517 -0.639168 -0.000535 0.000048
    30 2.486328 0.000257 0.002619 -0.426371 -0.000369 0.000008
    31 1.244141 0.000020 0.001092 -0.213132 -0.000184 -0.000017
    32 8.703125 0.008820 0.013535 -1.522819 -0.001051 0.000609
    33 0.000002 0.000004 0.000002 -0.000001 0.000000 0.000001
    34 -9.445313 -8.140625 -4.949219 1.519005 -0.628901 -3.033998
    35 -10.867188 0.000957 0.001241 0.000039 0.000016 -0.972886
    36 -0.000002 -0.000012 -0.000010 -0.000002 0.000000 -0.000001
    37 -9.953125 -0.003164 0.000979 0.153100 -0.096015 0.399476
    38 -3.503906 1.091797 -0.078552 0.000001 0.000000 -0.000004
    39 0.026337 0.182495 -0.005402 -1.539843 0.222677 -0.138864
    40 -1.482422 -0.087158 0.003698 -0.012877 -0.011821 0.171887
    41 -1.033203 -0.094177 0.003510 -0.021153 -0.000564 0.194641
    42 0.000011 -0.000005 0.000005 0.000001 0.000000 0.000002
    43 -3.498047 -0.036774 0.048859 -2.365275 1.199962 -0.630057
    44 -1.804688 0.036499 -0.002831 0.005383 0.017449 0.943885
    45 -1.070313 0.061249 -0.002096 0.002047 0.009313 0.927496
    46 -0.622559 -1.148438 0.271484 0.510053 -0.369450 -3.081464
    47 2.306641 -0.067810 -0.058716 -1.434441 0.675904 -3.037421
    48 -1.117188 0.005547 -0.000216 0.010469 0.060959 0.791711
    49 -0.758301 0.045441 -0.004086 0.023202 0.013867 1.033491
    50 -1.101563 -0.643555 -0.053040 0.424522 -0.214014 -3.080632
    51 2.091797 -0.022446 0.046967 -1.472431 0.986728 -2.927368
    52 -1.645508 0.005753 0.000346 -0.001712 0.006806 0.868927
    53 -0.881836 0.044647 -0.000978 -0.003279 0.007543 0.949144
    54 -0.308350 1.352539 -0.099060 0.594761 0.903914 -0.508232
    55 -2.326172 -0.003761 0.001081 -0.091007 0.054906 0.391017
    56 -1.157227 0.015038 -0.002480 0.234413 0.178981 0.761949
    57 -7.464844 -0.000757 0.000896 0.131714 0.000079 0.000022
    58 -6.218750 -0.000606 0.000629 0.108686 0.000078 0.000012
    59 -4.968750 -0.000442 0.000410 0.085714 0.000050 0.000002
    60 -3.734375 -0.000318 0.000248 0.064273 0.000048 0.000002
    61 -2.486328 -0.000193 0.000126 0.042879 0.000023 0.000000
    62 -1.244141 -0.000092 0.000043 0.021449 0.000006 -0.000002
    63 -8.710938 -0.000937 0.001185 0.153102 0.000114 0.000016
    64 0.000002 0.000000 0.000000 -0.000001 0.000000 0.000002
    65 0.000000 3.000000 5.000000 0.000000 0.000000 -3.141592
    66 0.000001 0.399658 0.000002 0.000000 0.000000 0.000000
    67 -0.000001 -0.000002 0.000001 0.000000 0.000000 0.000001
    68 0.000006 0.000001 0.000001 1.221730 -0.087267 0.174533
    69 0.000000 -0.000004 -0.000001 0.000000 0.000000 0.000001
    70 0.000002 -0.000006 0.000000 0.000001 0.000000 0.000000
    71 -0.000008 0.000011 0.000000 0.000001 0.000000 0.000001
    72 0.000008 0.000003 0.000000 3.141592 -0.000001 -0.000001
    73 0.000004 0.000000 -0.000002 3.141591 0.000000 -0.000001
    74 -0.000004 -0.000006 -0.000008 3.141592 0.000000 0.000000
    75 0.000004 -0.000004 0.000002 3.141592 -0.000001 0.000000
    76 -0.000002 0.000002 0.000003 3.141592 0.000000 0.000000
    77 -0.000004 0.000006 0.000000 3.141592 0.000000 0.000000
    78 -0.000004 -0.099976 -0.099915 -3.141593 0.000000 -0.000001
    79 -0.099915 -0.099915 -0.099792 3.141592 0.000000 0.000000
    80 -0.099915 -0.099976 -0.099854 3.141593 0.000000 0.000000
    81 -0.099915 -0.119873 -0.099915 3.141593 -0.000001 0.000000
    82 -0.099915 -0.119934 -0.099670 3.141593 0.000000 0.000000
    83 -0.099915 -0.119873 -0.099976 3.141592 0.000000 0.000000
    84 0.000000 0.000000 0.000000 0.000000 0.000000 -3.141593
    85 0.000001 0.000001 0.000000 0.000000 0.000000 -3.141593
    86 0.000002 -0.000004 0.000000 -1.570797 0.087267 -3.054326
    87 0.000000 0.000006 -0.000001 -0.000001 0.000000 -3.141593
    88 -0.000002 0.000011 0.000000 -0.000001 0.000000 -3.141593
    89 0.000002 0.000006 0.000000 -0.000001 0.000000 -3.141593
    90 -0.000004 -0.000002 0.000006 -3.141592 0.000001 3.141593
    91 0.000000 -0.000008 -0.000007 -3.141592 0.000000 3.141593
    92 0.000001 0.000008 0.000002 -3.141592 0.000000 3.141593
    93 -0.000006 0.000002 0.000004 -3.141593 0.000000 3.141593
    94 0.000000 0.000002 -0.000002 -3.141592 0.000000 -3.141592
    95 0.000006 0.000004 0.000002 -3.141592 0.000000 -3.141593
    96 0.099915 0.199585 0.099915 -3.141592 0.000000 -3.141593
    97 0.099976 0.199585 0.099915 -3.141593 0.000000 3.141593
    98 0.099915 0.199707 0.099915 -3.141592 -0.000001 3.141593
    99 -0.000004 0.119934 0.099854 -3.141592 0.000000 -3.141593
    100 -0.000001 0.119812 0.099915 3.141593 0.000000 -3.141593
    101 -0.000004 0.119934 0.099915 -3.141593 0.000000 3.141593
    102 12.390625 -4.875000 -7.062500 0.000000 0.000000 0.000000
    103 0.000000 0.000000 0.000000 0.000000 0.000000 0.000000
    104 4.523438 0.000001 3.687500 0.000000 0.000000 0.000000
    105 4.156250 -0.000001 3.812500 -0.000035 -0.610853 -1.570564
    106 4.277344 -0.000002 0.849121 0.000000 0.000000 0.000000
    107 5.539063 0.000001 0.000000 0.000000 0.000000 0.000000
    108 3.455010 0.000004 2.018000 0.000010 0.000000 0.000007
    109 -2.088972 -3.614023 0.605963 0.000010 0.000000 0.000007
    110 -1.971998 -0.000010 -0.796001 0.000011 -0.204731 0.000006
    111 -1.971998 -0.000010 -0.796001 0.000011 -0.204731 0.000006
    112 -5.858999 0.072452 2.682749 0.000000 0.000000 0.000000
    113 12.507813 0.000000 3.259766 0.000000 0.000000 0.000000
    114 10.230598 0.000000 4.378193 0.000000 0.000000 0.000000
  time 6
    0 0.000000 3.000000 -21.796875 0.000000 0.000000 -1.570796
    1 0.000000 0.000000 0.000000 0.000000 0.000000 0.000000
    2 -0.423340 0.000000 22.046875 0.000000 0.000000 0.000000
    3 4.812500 8.140625 -11.429688 -1.109156 0.003324 -0.530024
    4 10.898438 -0.000813 0.000673 -0.000013 -0.000004 -0.680632
    5 -0.000001 -0.000005 0.000000 -0.000003 0.000000 0.000002
    6 9.960938 0.012856 0.015251 -1.522968 -0.107574 0.682718
    7 3.503906 -1.089844 0.078369 0.000001 0.000000 0.000003
    8 0.020782 -0.015282 -0.043976 -1.589422 0.477530 0.546503
    9 1.460938 -0.057770 -0.014816 -0.016267 -0.089392 0.963684
    10 0.992188 -0.047150 0.019470 0.071949 0.073845 1.024967
    11 0.000002 -0.000006 0.000003 0.000000 0.000000 -0.000001
    12 3.416016 0.110413 0.032776 -1.807618 0.878729 0.441553
    13 1.808594 -0.117188 -0.001736 -0.055838 0.099431 1.332636
    14 1.081055 0.063110 -0.007889 -0.026254 -0.015565 0.460915
    15 0.701172 1.208008 -0.282227 -1.516198 0.320808 -0.016881
    16 2.076172 0.080688 -0.007565 -0.991248 0.117268 0.955396
    17 1.110352 0.000891 0.006260 0.019424 -0.040889 1.034619
    18 0.729980 -0.016861 -0.013962 -0.073685 -0.094645 0.722339
    19 1.118164 0.650879 0.045502 -1.574862 0.167867 -0.030305
    20 2.056641 0.043030 0.074463 -0.838907 -0.185502 1.040259
    21 1.612305 -0.016388 -0.001643 0.007053 0.023361 1.269140
    22 0.885254 0.112976 -0.021454 -0.150703 0.012367 0.332895
    23 0.167603 -1.422852 0.160034 0.154847 0.576949 -0.280227
    24 2.291016 -0.004234 0.010689 -0.198620 -0.224374 0.072237
    25 1.268555 -0.004280 0.034454 0.412367 -0.121955 -0.126938
    26 7.464844 0.005966 0.011452 -1.309363 -0.000972 0.000438
    27 6.214844 0.003592 0.009087 -1.081193 -0.000866 0.000299
    28 4.980469 0.001880 0.006680 -0.852836 -0.000706 0.000161
    29 3.734375 0.000842 0.004517 -0.639168 -0.000535 0.000048
    30 2.486328 0.000257 0.002619 -0.426371 -0.000369 0.000008
    31 1.244141 0.000020 0.001092 -0.213132 -0.000184 -0.000017
    32 8.703125 0.008820 0.013535 -1.522819 -0.001051 0.000609
    33 0.000002 0.000004 0.000002 -0.000001 0.000000 0.000001
    34 -9.445313 -8.140625 -4.949219 1.519005 -0.628901 -3.033998
    35 -10.867188 0.000957 0.001241 0.000039 0.000016 -0.972886
    36 -0.000002 -0.000012 -0.000010 -0.000002 0.000000 -0.000001
    37 -9.953125 -0.003164 0.000979 0.153100 -0.096015 0.399476
    38 -3.503906 1.091797 -0.078552 0.000001 0.000000 -0.000004
    39 0.026337 0.182495 -0.005402 -1.539843 0.222677 -0.138864
    40 -1.482422 -0.087158 0.003698 -0.012877 -0.011821 0.171887
    41 -1.033203 -0.094177 0.003510 -0.021153 -0.000564 0.194641
    42 0.000011 -0.000005 0.000005 0.000001 0.000000 0.000002
    43 -3.498047 -0.036774 0.048859 -2.365275 1.199962 -0.630057
    44 -1.804688 0.036499 -0.002831 0.005383 0.017449 0.943885
    45 -1.070313 0.061249 -0.002096 0.002047 0.009313 0.927496
    46 -0.622559 -1.148438 0.271484 0.510053 -0.369450 -3.081464
    47 2.306641 -0.067810 -0.058716 -1.434441 0.675904 -3.037421
    48 -1.117188 0.005547 -0.000216 0.010469 0.060959 0.791711
    49 -0.758301 0.045441 -0.004086 0.023202 0.013867 1.033491
    50 -1.101563 -0.643555 -0.053040 0.424522 -0.214014 -3.080632
    51 2.091797 -0.022446 0.046967 -1.472431 0.986728 -2.927368
    52 -1.645508 0.005753 0.000346 -0.001712 0.006806 0.868927
    53 -0.881836 0.044647 -0.000978 -0.003279 0.007543 0.949144
    54 -0.308350 1.352539 -0.099060 0.594761 0.903914 -0.508232
    55 -2.326172 -0.003761 0.001081 -0.091007 0.054906 0.391017
    56 -1.157227 0.015038 -0.002480 0.234413 0.178981 0.761949
    57 -7.464844 -0.000757 0.000896 0.131714 0.000079 0.000022
    58 -6.218750 -0.000606 0.000629 0.108686 0.000078 0.000012
    59 -4.968750 -0.000442 0.000410 0.085714 0.000050 0.000002
    60 -3.734375 -0.000318 0.000248 0.064273 0.000048 0.000002
    61 -2.486328 -0.000193 0.000126 0.042879 0.000023 0.000000
    62 -1.244141 -0.000092 0.000043 0.021449 0.000006 -0.000002
    63 -8.710938 -0.000937 0.001185 0.153102 0.000114 0.000016
    64 0.000002 0.000000 0.000000 -0.000001 0.000000 0.000002
    65 0.000000 3.000000 5.000000 0.000000 0.000000 -3.141592
    66 0.000001 0.399658 0.000002 0.000000 0.000000 0.000000
    67 -0.000001 -0.000002 0.000001 0.000000 0.000000 0.000001
    68 0.000006 0.000001 0.000001 1.221730 -0.087267 0.174533
    69 0.000000 -0.000004 -0.000001 0.000000 0.000000 0.000001
    70 0.000002 -0.000006 0.000000 0.000001 0.000000 0.000000
    71 -0.000008 0.000011 0.000000 0.000001 0.000000 0.000001
    72 0.000008 0.000003 0.000000 3.141592 -0.000001 -0.000001
    73 0.000004 0.000000 -0.000002 3.141591 0.000000 -0.000001
    74 -0.000004 -0.000006 -0.000008 3.141592 0.000000 0.000000
    75 0.000004 -0.000004 0.000002 3.141592 -0.000001 0.000000
    76 -0.000002 0.000002 0.000003 3.141592 0.000000 0.000000
    77 -0.000004 0.000006 0.000000 3.141592 0.000000 0.000000
    78 -0.000004 -0.099976 -0.099915 -3.141593 0.000000 -0.000001
    79 -0.099915 -0.099915 -0.099792 3.141592 0.000000 0.000000
    80 -0.099915 -0.099976 -0.099854 3.141593 0.000000 0.000000
    81 -0.099915 -0.119873 -0.099915 3.141593 -0.000001 0.000000
    82 -0.099915 -0.119934 -0.099670 3.141593 0.000000 0.000000
    83 -0.099915 -0.119873 -0.099976 3.141592 0.000000 0.000000
    84 0.000000 0.000000 0.000000 0.000000 0.000000 -3.141593
    85 0.000001 0.000001 0.000000 0.000000 0.000000 -3.141593
    86 0.000002 -0.000004 0.000000 -1.570797 0.087267 -3.054326
    87 0.000000 0.000006 -0.000001 -0.000001 0.000000 -3.141593
    88 -0.000002 0.000011 0.000000 -0.000001 0.000000 -3.141593
    89 0.000002 0.000006 0.000000 -0.000001 0.000000 -3.141593
    90 -0.000004 -0.000002 0.000006 -3.141592 0.000001 3.141593
    91 0.000000 -0.000008 -0.000007 -3.141592 0.000000 3.141593
    92 0.000001 0.000008 0.000002 -3.141592 0.000000 3.141593
    93 -0.000006 0.000002 0.000004 -3.141593 0.000000 3.141593
    94 0.000000 0.000002 -0.000002 -3.141592 0.000000 -3.141592
    95 0.000006 0.000004 0.000002 -3.141592 0.000000 -3.141593
    96 0.099915 0.199585 0.099915 -3.141592 0.000000 -3.141593
    97 0.099976 0.199585 0.099915 -3.141593 0.000000 3.141593
    98 0.099915 0.199707 0.099915 -3.141592 -0.000001 3.141593
    99 -0.000004 0.119934 0.099854 -3.141592 0.000000 -3.141593
    100 -0.000001 0.119812 0.099915 3.141593 0.000000 -3.141593
    101 -0.000004 0.119934 0.099915 -3.141593 0.000000 3.141593
    102 12.390625 -4.875000 -7.062500 0.000000 0.000000 0.000000
    103 0.000000 0.000000 0.000000 0.000000 0.000000 0.000000
    104 4.523438 0.000001 3.687500 0.000000 0.000000 0.000000
    105 4.156250 -0.000001 3.812500 -0.000035 -0.610853 -1.570564
    106 4.277344 -0.000002 0.849121 0.000000 0.000000 0.000000
    107 5.539063 0.000001 0.000000 0.000000 0.000000 0.000000
    108 3.455010 0.000004 2.018000 0.000010 0.000000 0.000007
    109 -2.088972 -3.614023 0.605963 0.000010 0.000000 0.000007
    110 -1.971998 -0.000010 -0.796001 0.000011 -0.204731 0.000006
    111 -1.971998 -0.000010 -0.796001 0.000011 -0.204731 0.000006
    112 -5.858999 0.072452 2.682749 0.000000 0.000000 0.000000
    113 12.507813 0.000000 3.259766 0.000000 0.000000 0.000000
    114 10.230598 0.000000 4.378193 0.000000 0.000000 0.000000
  time 7
    0 0.000000 3.000000 -21.796875 0.000000 0.000000 -1.570796
    1 0.000000 0.000000 0.000000 0.000000 0.000000 0.000000
    2 -0.423340 0.000000 22.046875 0.000000 0.000000 0.000000
    3 4.812500 8.140625 -11.429688 -1.109156 0.003324 -0.530024
    4 10.898438 -0.000813 0.000673 -0.000013 -0.000004 -0.680632
    5 -0.000001 -0.000005 0.000000 -0.000003 0.000000 0.000002
    6 9.960938 0.012856 0.015251 -1.522968 -0.107574 0.682718
    7 3.503906 -1.089844 0.078369 0.000001 0.000000 0.000003
    8 0.020782 -0.015282 -0.043976 -1.589422 0.477530 0.546503
    9 1.460938 -0.057770 -0.014816 -0.016267 -0.089392 0.963684
    10 0.992188 -0.047150 0.019470 0.071949 0.073845 1.024967
    11 0.000002 -0.000006 0.000003 0.000000 0.000000 -0.000001
    12 3.416016 0.110413 0.032776 -1.807618 0.878729 0.441553
    13 1.808594 -0.117188 -0.001736 -0.055838 0.099431 1.332636
    14 1.081055 0.063110 -0.007889 -0.026254 -0.015565 0.460915
    15 0.701172 1.208008 -0.282227 -1.516198 0.320808 -0.016881
    16 2.076172 0.080688 -0.007565 -0.991248 0.117268 0.955396
    17 1.110352 0.000891 0.006260 0.019424 -0.040889 1.034619
    18 0.729980 -0.016861 -0.013962 -0.073685 -0.094645 0.722339
    19 1.118164 0.650879 0.045502 -1.574862 0.167867 -0.030305
    20 2.056641 0.043030 0.074463 -0.838907 -0.185502 1.040259
    21 1.612305 -0.016388 -0.001643 0.007053 0.023361 1.269140
    22 0.885254 0.112976 -0.021454 -0.150703 0.012367 0.332895
    23 0.167603 -1.422852 0.160034 0.154847 0.576949 -0.280227
    24 2.291016 -0.004234 0.010689 -0.198620 -0.224374 0.072237
    25 1.268555 -0.004280 0.034454 0.412367 -0.121955 -0.126938
    26 7.464844 0.005966 0.011452 -1.309363 -0.000972 0.000438
    27 6.214844 0.003592 0.009087 -1.081193 -0.000866 0.000299
    28 4.980469 0.001880 0.006680 -0.852836 -0.000706 0.000161
    29 3.734375 0.000842 0.004517 -0.639168 -0.000535 0.000048
    30 2.486328 0.000257 0.002619 -0.426371 -0.000369 0.000008
    31 1.244141 0.000020 0.001092 -0.213132 -0.000184 -0.000017
    32 8.703125 0.008820 0.013535 -1.522819 -0.001051 0.000609
    33 0.000002 0.000004 0.000002 -0.000001 0.000000 0.000001
    34 -9.445313 -8.140625 -4.949219 1.519005 -0.628901 -3.033998
    35 -10.867188 0.000957 0.001241 0.000039 0.000016 -0.972886
    36 -0.000002 -0.000012 -0.000010 -0.000002 0.000000 -0.000001
    37 -9.953125 -0.003164 0.000979 0.153100 -0.096015 0.399476
    38 -3.503906 1.091797 -0.078552 0.000001 0.000000 -0.000004
    39 0.026337 0.182495 -0.005402 -1.539843 0.222677 -0.138864
    40 -1.482422 -0.087158 0.003698 -0.012877 -0.011821 0.171887
    41 -1.033203 -0.094177 0.003510 -0.021153 -0.000564 0.194641
    42 0.000011 -0.000005 0.000005 0.000001 0.000000 0.000002
    43 -3.498047 -0.036774 0.048859 -2.365275 1.199962 -0.630057
    44 -1.804688 0.036499 -0.002831 0.005383 0.017449 0.943885
    45 -1.070313 0.061249 -0.002096 0.002047 0.009313 0.927496
    46 -0.622559 -1.148438 0.271484 0.510053 -0.369450 -3.081464
    47 2.306641 -0.067810 -0.058716 -1.434441 0.675904 -3.037421
    48 -1.117188 0.005547 -0.000216 0.010469 0.060959 0.791711
    49 -0.758301 0.045441 -0.004086 0.023202 0.013867 1.033491
    50 -1.101563 -0.643555 -0.053040 0.424522 -0.214014 -3.080632
    51 2.091797 -0.022446 0.046967 -1.472431 0.986728 -2.927368
    52 -1.645508 0.005753 0.000346 -0.001712 0.006806 0.868927
    53 -0.881836 0.044647 -0.000978 -0.003279 0.007543 0.949144
    54 -0.308350 1.352539 -0.099060 0.594761 0.903914 -0.508232
    55 -2.326172 -0.003761 0.001081 -0.091007 0.054906 0.391017
    56 -1.157227 0.015038 -0.002480 0.234413 0.178981 0.761949
    57 -7.464844 -0.000757 0.000896 0.131714 0.000079 0.000022
    58 -6.218750 -0.000606 0.000629 0.108686 0.000078 0.000012
    59 -4.968750 -0.000442 0.000410 0.085714 0.000050 0.000002
    60 -3.734375 -0.000318 0.000248 0.064273 0.000048 0.000002
    61 -2.486328 -0.000193 0.000126 0.042879 0.000023 0.000000
    62 -1.244141 -0.000092 0.000043 0.021449 0.000006 -0.000002
    63 -8.710938 -0.000937 0.001185 0.153102 0.000114 0.000016
    64 0.000002 0.000000 0.000000 -0.000001 0.000000 0.000002
    65 0.000000 3.000000 5.000000 0.000000 0.000000 -3.141592
    66 0.000001 0.399658 0.000002 0.000000 0.000000 0.000000
    67 -0.000001 -0.000002 0.000001 0.000000 0.000000 0.000001
    68 0.000006 0.000001 0.000001 1.221730 -0.087267 0.174533
    69 0.000000 -0.000004 -0.000001 0.000000 0.000000 0.000001
    70 0.000002 -0.000006 0.000000 0.000001 0.000000 0.000000
    71 -0.000008 0.000011 0.000000 0.000001 0.000000 0.000001
    72 0.000008 0.000003 0.000000 3.141592 -0.000001 -0.000001
    73 0.000004 0.000000 -0.000002 3.141591 0.000000 -0.000001
    74 -0.000004 -0.000006 -0.000008 3.141592 0.000000 0.000000
    75 0.000004 -0.000004 0.000002 3.141592 -0.000001 0.000000
    76 -0.000002 0.000002 0.000003 3.141592 0.000000 0.000000
    77 -0.000004 0.000006 0.000000 3.141592 0.000000 0.000000
    78 -0.000004 -0.099976 -0.099915 -3.141593 0.000000 -0.000001
    79 -0.099915 -0.099915 -0.099792 3.141592 0.000000 0.000000
    80 -0.099915 -0.099976 -0.099854 3.141593 0.000000 0.000000
    81 -0.099915 -0.119873 -0.099915 3.141593 -0.000001 0.000000
    82 -0.099915 -0.119934 -0.099670 3.141593 0.000000 0.000000
    83 -0.099915 -0.119873 -0.099976 3.141592 0.000000 0.000000
    84 0.000000 0.000000 0.000000 0.000000 0.000000 -3.141593
    85 0.000001 0.000001 0.000000 0.000000 0.000000 -3.141593
    86 0.000002 -0.000004 0.000000 -1.570797 0.087267 -3.054326
    87 0.000000 0.000006 -0.000001 -0.000001 0.000000 -3.141593
    88 -0.000002 0.000011 0.000000 -0.000001 0.000000 -3.141593
    89 0.000002 0.000006 0.000000 -0.000001 0.000000 -3.141593
    90 -0.000004 -0.000002 0.000006 -3.141592 0.000001 3.141593
    91 0.000000 -0.000008 -0.000007 -3.141592 0.000000 3.141593
    92 0.000001 0.000008 0.000002 -3.141592 0.000000 3.141593
    93 -0.000006 0.000002 0.000004 -3.141593 0.000000 3.141593
    94 0.000000 0.000002 -0.000002 -3.141592 0.000000 -3.141592
    95 0.000006 0.000004 0.000002 -3.141592 0.000000 -3.141593
    96 0.099915 0.199585 0.099915 -3.141592 0.000000 -3.141593
    97 0.099976 0.199585 0.099915 -3.141593 0.000000 3.141593
    98 0.099915 0.199707 0.099915 -3.141592 -0.000001 3.141593
    99 -0.000004 0.119934 0.099854 -3.141592 0.000000 -3.141593
    100 -0.000001 0.119812 0.099915 3.141593 0.000000 -3.141593
    101 -0.000004 0.119934 0.099915 -3.141593 0.000000 3.141593
    102 12.390625 -4.875000 -7.062500 0.000000 0.000000 0.000000
    103 0.000000 0.000000 0.000000 0.000000 0.000000 0.000000
    104 4.523438 0.000001 3.687500 0.000000 0.000000 0.000000
    105 4.156250 -0.000001 3.812500 -0.000035 -0.610853 -1.570564
    106 4.277344 -0.000002 0.849121 0.000000 0.000000 0.000000
    107 5.539063 0.000001 0.000000 0.000000 0.000000 0.000000
    108 3.455010 0.000004 2.018000 0.000010 0.000000 0.000007
    109 -2.088972 -3.614023 0.605963 0.000010 0.000000 0.000007
    110 -1.971998 -0.000010 -0.796001 0.000011 -0.204731 0.000006
    111 -1.971998 -0.000010 -0.796001 0.000011 -0.204731 0.000006
    112 -5.858999 0.072452 2.682749 0.000000 0.000000 0.000000
    113 12.507813 0.000000 3.259766 0.000000 0.000000 0.000000
    114 10.230598 0.000000 4.378193 0.000000 0.000000 0.000000
  time 8
    0 0.000000 3.000000 -21.796875 0.000000 0.000000 -1.570796
    1 0.000000 0.000000 0.000000 0.000000 0.000000 0.000000
    2 -0.423340 0.000000 22.046875 0.000000 0.000000 0.000000
    3 4.812500 8.140625 -11.429688 -1.109156 0.003324 -0.530024
    4 10.898438 -0.000813 0.000673 -0.000013 -0.000004 -0.680632
    5 -0.000001 -0.000005 0.000000 -0.000003 0.000000 0.000002
    6 9.960938 0.012856 0.015251 -1.522968 -0.107574 0.682718
    7 3.503906 -1.089844 0.078369 0.000001 0.000000 0.000003
    8 0.020782 -0.015282 -0.043976 -1.589422 0.477530 0.546503
    9 1.460938 -0.057770 -0.014816 -0.016267 -0.089392 0.963684
    10 0.992188 -0.047150 0.019470 0.071949 0.073845 1.024967
    11 0.000002 -0.000006 0.000003 0.000000 0.000000 -0.000001
    12 3.416016 0.110413 0.032776 -1.807618 0.878729 0.441553
    13 1.808594 -0.117188 -0.001736 -0.055838 0.099431 1.332636
    14 1.081055 0.063110 -0.007889 -0.026254 -0.015565 0.460915
    15 0.701172 1.208008 -0.282227 -1.516198 0.320808 -0.016881
    16 2.076172 0.080688 -0.007565 -0.991248 0.117268 0.955396
    17 1.110352 0.000891 0.006260 0.019424 -0.040889 1.034619
    18 0.729980 -0.016861 -0.013962 -0.073685 -0.094645 0.722339
    19 1.118164 0.650879 0.045502 -1.574862 0.167867 -0.030305
    20 2.056641 0.043030 0.074463 -0.838907 -0.185502 1.040259
    21 1.612305 -0.016388 -0.001643 0.007053 0.023361 1.269140
    22 0.885254 0.112976 -0.021454 -0.150703 0.012367 0.332895
    23 0.167603 -1.422852 0.160034 0.154847 0.576949 -0.280227
    24 2.291016 -0.004234 0.010689 -0.198620 -0.224374 0.072237
    25 1.268555 -0.004280 0.034454 0.412367 -0.121955 -0.126938
    26 7.464844 0.005966 0.011452 -1.309363 -0.000972 0.000438
    27 6.214844 0.003592 0.009087 -1.081193 -0.000866 0.000299
    28 4.980469 0.001880 0.006680 -0.852836 -0.000706 0.000161
    29 3.734375 0.000842 0.004517 -0.639168 -0.000535 0.000048
    30 2.486328 0.000257 0.002619 -0.426371 -0.000369 0.000008
    31 1.244141 0.000020 0.001092 -0.213132 -0.000184 -0.000017
    32 8.703125 0.008820 0.013535 -1.522819 -0.001051 0.000609
    33 0.000002 0.000004 0.000002 -0.000001 0.000000 0.000001
    34 -9.445313 -8.140625 -4.949219 1.519005 -0.628901 -3.033998
    35 -10.867188 0.000957 0.001241 0.000039 0.000016 -0.972886
    36 -0.000002 -0.000012 -0.000010 -0.000002 0.000000 -0.000001
    37 -9.953125 -0.003164 0.000979 0.153100 -0.096015 0.399476
    38 -3.503906 1.091797 -0.078552 0.000001 0.000000 -0.000004
    39 0.026337 0.182495 -0.005402 -1.539843 0.222677 -0.138864
    40 -1.482422 -0.087158 0.003698 -0.012877 -0.011821 0.171887
    41 -1.033203 -0.094177 0.003510 -0.021153 -0.000564 0.194641
    42 0.000011 -0.000005 0.000005 0.000001 0.000000 0.000002
    43 -3.498047 -0.036774 0.048859 -2.365275 1.199962 -0.630057
    44 -1.804688 0.036499 -0.002831 0.005383 0.017449 0.943885
    45 -1.070313 0.061249 -0.002096 0.002047 0.009313 0.927496
    46 -0.622559 -1.148438 0.271484 0.510053 -0.369450 -3.081464
    47 2.306641 -0.067810 -0.058716 -1.434441 0.675904 -3.037421
    48 -1.117188 0.005547 -0.000216 0.010469 0.060959 0.791711
    49 -0.758301 0.045441 -0.004086 0.023202 0.013867 1.033491
    50 -1.101563 -0.643555 -0.053040 0.424522 -0.214014 -3.080632
    51 2.091797 -0.022446 0.046967 -1.472431 0.986728 -2.927368
    52 -1.645508 0.005753 0.000346 -0.001712 0.006806 0.868927
    53 -0.881836 0.044647 -0.000978 -0.003279 0.007543 0.949144
    54 -0.308350 1.352539 -0.099060 0.594761 0.903914 -0.508232
    55 -2.326172 -0.003761 0.001081 -0.091007 0.054906 0.391017
    56 -1.157227 0.015038 -0.002480 0.234413 0.178981 0.761949
    57 -7.464844 -0.000757 0.000896 0.131714 0.000079 0.000022
    58 -6.218750 -0.000606 0.000629 0.108686 0.000078 0.000012
    59 -4.968750 -0.000442 0.000410 0.085714 0.000050 0.000002
    60 -3.734375 -0.000318 0.000248 0.064273 0.000048 0.000002
    61 -2.486328 -0.000193 0.000126 0.042879 0.000023 0.000000
    62 -1.244141 -0.000092 0.000043 0.021449 0.000006 -0.000002
    63 -8.710938 -0.000937 0.001185 0.153102 0.000114 0.000016
    64 0.000002 0.000000 0.000000 -0.000001 0.000000 0.000002
    65 0.000000 3.000000 5.000000 0.000000 0.000000 -3.141592
    66 0.000001 0.399658 0.000002 0.000000 0.000000 0.000000
    67 -0.000001 -0.000002 0.000001 0.000000 0.000000 0.000001
    68 0.000006 0.000001 0.000001 1.221730 -0.087267 0.174533
    69 0.000000 -0.000004 -0.000001 0.000000 0.000000 0.000001
    70 0.000002 -0.000006 0.000000 0.000001 0.000000 0.000000
    71 -0.000008 0.000011 0.000000 0.000001 0.000000 0.000001
    72 0.000008 0.000003 0.000000 3.141592 -0.000001 -0.000001
    73 0.000004 0.000000 -0.000002 3.141591 0.000000 -0.000001
    74 -0.000004 -0.000006 -0.000008 3.141592 0.000000 0.000000
    75 0.000004 -0.000004 0.000002 3.141592 -0.000001 0.000000
    76 -0.000002 0.000002 0.000003 3.141592 0.000000 0.000000
    77 -0.000004 0.000006 0.000000 3.141592 0.000000 0.000000
    78 -0.000004 -0.099976 -0.099915 -3.141593 0.000000 -0.000001
    79 -0.099915 -0.099915 -0.099792 3.141592 0.000000 0.000000
    80 -0.099915 -0.099976 -0.099854 3.141593 0.000000 0.000000
    81 -0.099915 -0.119873 -0.099915 3.141593 -0.000001 0.000000
    82 -0.099915 -0.119934 -0.099670 3.141593 0.000000 0.000000
    83 -0.099915 -0.119873 -0.099976 3.141592 0.000000 0.000000
    84 0.000000 0.000000 0.000000 0.000000 0.000000 -3.141593
    85 0.000001 0.000001 0.000000 0.000000 0.000000 -3.141593
    86 0.000002 -0.000004 0.000000 -1.570797 0.087267 -3.054326
    87 0.000000 0.000006 -0.000001 -0.000001 0.000000 -3.141593
    88 -0.000002 0.000011 0.000000 -0.000001 0.000000 -3.141593
    89 0.000002 0.000006 0.000000 -0.000001 0.000000 -3.141593
    90 -0.000004 -0.000002 0.000006 -3.141592 0.000001 3.141593
    91 0.000000 -0.000008 -0.000007 -3.141592 0.000000 3.141593
    92 0.000001 0.000008 0.000002 -3.141592 0.000000 3.141593
    93 -0.000006 0.000002 0.000004 -3.141593 0.000000 3.141593
    94 0.000000 0.000002 -0.000002 -3.141592 0.000000 -3.141592
    95 0.000006 0.000004 0.000002 -3.141592 0.000000 -3.141593
    96 0.099915 0.199585 0.099915 -3.141592 0.000000 -3.141593
    97 0.099976 0.199585 0.099915 -3.141593 0.000000 3.141593
    98 0.099915 0.199707 0.099915 -3.141592 -0.000001 3.141593
    99 -0.000004 0.119934 0.099854 -3.141592 0.000000 -3.141593
    100 -0.000001 0.119812 0.099915 3.141593 0.000000 -3.141593
    101 -0.000004 0.119934 0.099915 -3.141593 0.000000 3.141593
    102 12.390625 -4.875000 -7.062500 0.000000 0.000000 0.000000
    103 0.000000 0.000000 0.000000 0.000000 0.000000 0.000000
    104 4.523438 0.000001 3.687500 0.000000 0.000000 0.000000
    105 4.156250 -0.000001 3.812500 -0.000035 -0.610853 -1.570564
    106 4.277344 -0.000002 0.849121 0.000000 0.000000 0.000000
    107 5.539063 0.000001 0.000000 0.000000 0.000000 0.000000
    108 3.455010 0.000004 2.018000 0.000010 0.000000 0.000007
    109 -2.088972 -3.614023 0.605963 0.000010 0.000000 0.000007
    110 -1.971998 -0.000010 -0.796001 0.000011 -0.204731 0.000006
    111 -1.971998 -0.000010 -0.796001 0.000011 -0.204731 0.000006
    112 -5.858999 0.072452 2.682749 0.000000 0.000000 0.000000
    113 12.507813 0.000000 3.259766 0.000000 0.000000 0.000000
    114 10.230598 0.000000 4.378193 0.000000 0.000000 0.000000
  time 9
    0 0.000000 3.000000 -21.796875 0.000000 0.000000 -1.570796
    1 0.000000 0.000000 0.000000 0.000000 0.000000 0.000000
    2 -0.423340 0.000000 22.046875 0.000000 0.000000 0.000000
    3 4.812500 8.140625 -11.429688 -1.109156 0.003324 -0.530024
    4 10.898438 -0.000813 0.000673 -0.000013 -0.000004 -0.680632
    5 -0.000001 -0.000005 0.000000 -0.000003 0.000000 0.000002
    6 9.960938 0.012856 0.015251 -1.522968 -0.107574 0.682718
    7 3.503906 -1.089844 0.078369 0.000001 0.000000 0.000003
    8 0.020782 -0.015282 -0.043976 -1.589422 0.477530 0.546503
    9 1.460938 -0.057770 -0.014816 -0.016267 -0.089392 0.963684
    10 0.992188 -0.047150 0.019470 0.071949 0.073845 1.024967
    11 0.000002 -0.000006 0.000003 0.000000 0.000000 -0.000001
    12 3.416016 0.110413 0.032776 -1.807618 0.878729 0.441553
    13 1.808594 -0.117188 -0.001736 -0.055838 0.099431 1.332636
    14 1.081055 0.063110 -0.007889 -0.026254 -0.015565 0.460915
    15 0.701172 1.208008 -0.282227 -1.516198 0.320808 -0.016881
    16 2.076172 0.080688 -0.007565 -0.991248 0.117268 0.955396
    17 1.110352 0.000891 0.006260 0.019424 -0.040889 1.034619
    18 0.729980 -0.016861 -0.013962 -0.073685 -0.094645 0.722339
    19 1.118164 0.650879 0.045502 -1.574862 0.167867 -0.030305
    20 2.056641 0.043030 0.074463 -0.838907 -0.185502 1.040259
    21 1.612305 -0.016388 -0.001643 0.007053 0.023361 1.269140
    22 0.885254 0.112976 -0.021454 -0.150703 0.012367 0.332895
    23 0.167603 -1.422852 0.160034 0.154847 0.576949 -0.280227
    24 2.291016 -0.004234 0.010689 -0.198620 -0.224374 0.072237
    25 1.268555 -0.004280 0.034454 0.412367 -0.121955 -0.126938
    26 7.464844 0.005966 0.011452 -1.309363 -0.000972 0.000438
    27 6.214844 0.003592 0.009087 -1.081193 -0.000866 0.000299
    28 4.980469 0.001880 0.006680 -0.852836 -0.000706 0.000161
    29 3.734375 0.000842 0.004517 -0.639168 -0.000535 0.000048
    30 2.486328 0.000257 0.002619 -0.426371 -0.000369 0.000008
    31 1.244141 0.000020 0.001092 -0.213132 -0.000184 -0.000017
    32 8.703125 0.008820 0.013535 -1.522819 -0.001051 0.000609
    33 0.000002 0.000004 0.000002 -0.000001 0.000000 0.000001
    34 -9.445313 -8.140625 -4.949219 1.519005 -0.628901 -3.033998
    35 -10.867188 0.000957 0.001241 0.000039 0.000016 -0.972886
    36 -0.000002 -0.000012 -0.000010 -0.000002 0.000000 -0.000001
    37 -9.953125 -0.003164 0.000979 0.153100 -0.096015 0.399476
    38 -3.503906 1.091797 -0.078552 0.000001 0.000000 -0.000004
    39 0.026337 0.182495 -0.005402 -1.539843 0.222677 -0.138864
    40 -1.482422 -0.087158 0.003698 -0.012877 -0.011821 0.171887
    41 -1.033203 -0.094177 0.003510 -0.021153 -0.000564 0.194641
    42 0.000011 -0.000005 0.000005 0.000001 0.000000 0.000002
    43 -3.498047 -0.036774 0.048859 -2.365275 1.199962 -0.630057
    44 -1.804688 0.036499 -0.002831 0.005383 0.017449 0.943885
    45 -1.070313 0.061249 -0.002096 0.002047 0.009313 0.927496
    46 -0.622559 -1.148438 0.271484 0.510053 -0.369450 -3.081464
    47 2.306641 -0.067810 -0.058716 -1.434441 0.675904 -3.037421
    48 -1.117188 0.005547 -0.000216 0.010469 0.060959 0.791711
    49 -0.758301 0.045441 -0.004086 0.023202 0.013867 1.033491
    50 -1.101563 -0.643555 -0.053040 0.424522 -0.214014 -3.080632
    51 2.091797 -0.022446 0.046967 -1.472431 0.986728 -2.927368
    52 -1.645508 0.005753 0.000346 -0.001712 0.006806 0.868927
    53 -0.881836 0.044647 -0.000978 -0.003279 0.007543 0.949144
    54 -0.308350 1.352539 -0.099060 0.594761 0.903914 -0.508232
    55 -2.326172 -0.003761 0.001081 -0.091007 0.054906 0.391017
    56 -1.157227 0.015038 -0.002480 0.234413 0.178981 0.761949
    57 -7.464844 -0.000757 0.000896 0.131714 0.000079 0.000022
    58 -6.218750 -0.000606 0.000629 0.108686 0.000078 0.000012
    59 -4.968750 -0.000442 0.000410 0.085714 0.000050 0.000002
    60 -3.734375 -0.000318 0.000248 0.064273 0.000048 0.000002
    61 -2.486328 -0.000193 0.000126 0.042879 0.000023 0.000000
    62 -1.244141 -0.000092 0.000043 0.021449 0.000006 -0.000002
    63 -8.710938 -0.000937 0.001185 0.153102 0.000114 0.000016
    64 0.000002 0.000000 0.000000 -0.000001 0.000000 0.000002
    65 0.000000 3.000000 5.000000 0.000000 0.000000 -3.141592
    66 0.000001 0.399658 0.000002 0.000000 0.000000 0.000000
    67 -0.000001 -0.000002 0.000001 0.000000 0.000000 0.000001
    68 0.000006 0.000001 0.000001 1.221730 -0.087267 0.174533
    69 0.000000 -0.000004 -0.000001 0.000000 0.000000 0.000001
    70 0.000002 -0.000006 0.000000 0.000001 0.000000 0.000000
    71 -0.000008 0.000011 0.000000 0.000001 0.000000 0.000001
    72 0.000008 0.000003 0.000000 3.141592 -0.000001 -0.000001
    73 0.000004 0.000000 -0.000002 3.141591 0.000000 -0.000001
    74 -0.000004 -0.000006 -0.000008 3.141592 0.000000 0.000000
    75 0.000004 -0.000004 0.000002 3.141592 -0.000001 0.000000
    76 -0.000002 0.000002 0.000003 3.141592 0.000000 0.000000
    77 -0.000004 0.000006 0.000000 3.141592 0.000000 0.000000
    78 -0.000004 -0.099976 -0.099915 -3.141593 0.000000 -0.000001
    79 -0.099915 -0.099915 -0.099792 3.141592 0.000000 0.000000
    80 -0.099915 -0.099976 -0.099854 3.141593 0.000000 0.000000
    81 -0.099915 -0.119873 -0.099915 3.141593 -0.000001 0.000000
    82 -0.099915 -0.119934 -0.099670 3.141593 0.000000 0.000000
    83 -0.099915 -0.119873 -0.099976 3.141592 0.000000 0.000000
    84 0.000000 0.000000 0.000000 0.000000 0.000000 -3.141593
    85 0.000001 0.000001 0.000000 0.000000 0.000000 -3.141593
    86 0.000002 -0.000004 0.000000 -1.570797 0.087267 -3.054326
    87 0.000000 0.000006 -0.000001 -0.000001 0.000000 -3.141593
    88 -0.000002 0.000011 0.000000 -0.000001 0.000000 -3.141593
    89 0.000002 0.000006 0.000000 -0.000001 0.000000 -3.141593
    90 -0.000004 -0.000002 0.000006 -3.141592 0.000001 3.141593
    91 0.000000 -0.000008 -0.000007 -3.141592 0.000000 3.141593
    92 0.000001 0.000008 0.000002 -3.141592 0.000000 3.141593
    93 -0.000006 0.000002 0.000004 -3.141593 0.000000 3.141593
    94 0.000000 0.000002 -0.000002 -3.141592 0.000000 -3.141592
    95 0.000006 0.000004 0.000002 -3.141592 0.000000 -3.141593
    96 0.099915 0.199585 0.099915 -3.141592 0.000000 -3.141593
    97 0.099976 0.199585 0.099915 -3.141593 0.000000 3.141593
    98 0.099915 0.199707 0.099915 -3.141592 -0.000001 3.141593
    99 -0.000004 0.119934 0.099854 -3.141592 0.000000 -3.141593
    100 -0.000001 0.119812 0.099915 3.141593 0.000000 -3.141593
    101 -0.000004 0.119934 0.099915 -3.141593 0.000000 3.141593
    102 12.390625 -4.875000 -7.062500 0.000000 0.000000 0.000000
    103 0.000000 0.000000 0.000000 0.000000 0.000000 0.000000
    104 4.523438 0.000001 3.687500 0.000000 0.000000 0.000000
    105 4.156250 -0.000001 3.812500 -0.000035 -0.610853 -1.570564
    106 4.277344 -0.000002 0.849121 0.000000 0.000000 0.000000
    107 5.539063 0.000001 0.000000 0.000000 0.000000 0.000000
    108 3.455010 0.000004 2.018000 0.000010 0.000000 0.000007
    109 -2.088972 -3.614023 0.605963 0.000010 0.000000 0.000007
    110 -1.971998 -0.000010 -0.796001 0.000011 -0.204731 0.000006
    111 -1.971998 -0.000010 -0.796001 0.000011 -0.204731 0.000006
    112 -5.858999 0.072452 2.682749 0.000000 0.000000 0.000000
    113 12.507813 0.000000 3.259766 0.000000 0.000000 0.000000
    114 10.230598 0.000000 4.378193 0.000000 0.000000 0.000000
  time 10
    0 0.000000 3.000000 -21.796875 0.000000 0.000000 -1.570796
    1 0.000000 0.000000 0.000000 0.000000 0.000000 0.000000
    2 -0.423340 0.000000 22.046875 0.000000 0.000000 0.000000
    3 4.812500 8.140625 -11.429688 -1.109156 0.003324 -0.530024
    4 10.898438 -0.000813 0.000673 -0.000013 -0.000004 -0.680632
    5 -0.000001 -0.000005 0.000000 -0.000003 0.000000 0.000002
    6 9.960938 0.012856 0.015251 -1.522968 -0.107574 0.682718
    7 3.503906 -1.089844 0.078369 0.000001 0.000000 0.000003
    8 0.020782 -0.015282 -0.043976 -1.589422 0.477530 0.546503
    9 1.460938 -0.057770 -0.014816 -0.016267 -0.089392 0.963684
    10 0.992188 -0.047150 0.019470 0.071949 0.073845 1.024967
    11 0.000002 -0.000006 0.000003 0.000000 0.000000 -0.000001
    12 3.416016 0.110413 0.032776 -1.807618 0.878729 0.441553
    13 1.808594 -0.117188 -0.001736 -0.055838 0.099431 1.332636
    14 1.081055 0.063110 -0.007889 -0.026254 -0.015565 0.460915
    15 0.701172 1.208008 -0.282227 -1.516198 0.320808 -0.016881
    16 2.076172 0.080688 -0.007565 -0.991248 0.117268 0.955396
    17 1.110352 0.000891 0.006260 0.019424 -0.040889 1.034619
    18 0.729980 -0.016861 -0.013962 -0.073685 -0.094645 0.722339
    19 1.118164 0.650879 0.045502 -1.574862 0.167867 -0.030305
    20 2.056641 0.043030 0.074463 -0.838907 -0.185502 1.040259
    21 1.612305 -0.016388 -0.001643 0.007053 0.023361 1.269140
    22 0.885254 0.112976 -0.021454 -0.150703 0.012367 0.332895
    23 0.167603 -1.422852 0.160034 0.154847 0.576949 -0.280227
    24 2.291016 -0.004234 0.010689 -0.198620 -0.224374 0.072237
    25 1.268555 -0.004280 0.034454 0.412367 -0.121955 -0.126938
    26 7.464844 0.005966 0.011452 -1.309363 -0.000972 0.000438
    27 6.214844 0.003592 0.009087 -1.081193 -0.000866 0.000299
    28 4.980469 0.001880 0.006680 -0.852836 -0.000706 0.000161
    29 3.734375 0.000842 0.004517 -0.639168 -0.000535 0.000048
    30 2.486328 0.000257 0.002619 -0.426371 -0.000369 0.000008
    31 1.244141 0.000020 0.001092 -0.213132 -0.000184 -0.000017
    32 8.703125 0.008820 0.013535 -1.522819 -0.001051 0.000609
    33 0.000002 0.000004 0.000002 -0.000001 0.000000 0.000001
    34 -9.445313 -8.140625 -4.949219 1.519005 -0.628901 -3.033998
    35 -10.867188 0.000957 0.001241 0.000039 0.000016 -0.972886
    36 -0.000002 -0.000012 -0.000010 -0.000002 0.000000 -0.000001
    37 -9.953125 -0.003164 0.000979 0.153100 -0.096015 0.399476
    38 -3.503906 1.091797 -0.078552 0.000001 0.000000 -0.000004
    39 0.026337 0.182495 -0.005402 -1.539843 0.222677 -0.138864
    40 -1.482422 -0.087158 0.003698 -0.012877 -0.011821 0.171887
    41 -1.033203 -0.094177 0.003510 -0.021153 -0.000564 0.194641
    42 0.000011 -0.000005 0.000005 0.000001 0.000000 0.000002
    43 -3.498047 -0.036774 0.048859 -2.365275 1.199962 -0.630057
    44 -1.804688 0.036499 -0.002831 0.005383 0.017449 0.943885
    45 -1.070313 0.061249 -0.002096 0.002047 0.009313 0.927496
    46 -0.622559 -1.148438 0.271484 0.510053 -0.369450 -3.081464
    47 2.306641 -0.067810 -0.058716 -1.434441 0.675904 -3.037421
    48 -1.117188 0.005547 -0.000216 0.010469 0.060959 0.791711
    49 -0.758301 0.045441 -0.004086 0.023202 0.013867 1.033491
    50 -1.101563 -0.643555 -0.053040 0.424522 -0.214014 -3.080632
    51 2.091797 -0.022446 0.046967 -1.472431 0.986728 -2.927368
    52 -1.645508 0.005753 0.000346 -0.001712 0.006806 0.868927
    53 -0.881836 0.044647 -0.000978 -0.003279 0.007543 0.949144
    54 -0.308350 1.352539 -0.099060 0.594761 0.903914 -0.508232
    55 -2.326172 -0.003761 0.001081 -0.091007 0.054906 0.391017
    56 -1.157227 0.015038 -0.002480 0.234413 0.178981 0.761949
    57 -7.464844 -0.000757 0.000896 0.131714 0.000079 0.000022
    58 -6.218750 -0.000606 0.000629 0.108686 0.000078 0.000012
    59 -4.968750 -0.000442 0.000410 0.085714 0.000050 0.000002
    60 -3.734375 -0.000318 0.000248 0.064273 0.000048 0.000002
    61 -2.486328 -0.000193 0.000126 0.042879 0.000023 0.000000
    62 -1.244141 -0.000092 0.000043 0.021449 0.000006 -0.000002
    63 -8.710938 -0.000937 0.001185 0.153102 0.000114 0.000016
    64 0.000002 0.000000 0.000000 -0.000001 0.000000 0.000002
    65 0.000000 3.000000 5.000000 0.000000 0.000000 -3.141592
    66 0.000001 0.399658 0.000002 0.000000 0.000000 0.000000
    67 -0.000001 -0.000002 0.000001 0.000000 0.000000 0.000001
    68 0.000006 0.000001 0.000001 1.221730 -0.087267 0.174533
    69 0.000000 -0.000004 -0.000001 0.000000 0.000000 0.000001
    70 0.000002 -0.000006 0.000000 0.000001 0.000000 0.000000
    71 -0.000008 0.000011 0.000000 0.000001 0.000000 0.000001
    72 0.000008 0.000003 0.000000 3.141592 -0.000001 -0.000001
    73 0.000004 0.000000 -0.000002 3.141591 0.000000 -0.000001
    74 -0.000004 -0.000006 -0.000008 3.141592 0.000000 0.000000
    75 0.000004 -0.000004 0.000002 3.141592 -0.000001 0.000000
    76 -0.000002 0.000002 0.000003 3.141592 0.000000 0.000000
    77 -0.000004 0.000006 0.000000 3.141592 0.000000 0.000000
    78 -0.000004 -0.099976 -0.099915 -3.141593 0.000000 -0.000001
    79 -0.099915 -0.099915 -0.099792 3.141592 0.000000 0.000000
    80 -0.099915 -0.099976 -0.099854 3.141593 0.000000 0.000000
    81 -0.099915 -0.119873 -0.099915 3.141593 -0.000001 0.000000
    82 -0.099915 -0.119934 -0.099670 3.141593 0.000000 0.000000
    83 -0.099915 -0.119873 -0.099976 3.141592 0.000000 0.000000
    84 0.000000 0.000000 0.000000 0.000000 0.000000 -3.141593
    85 0.000001 0.000001 0.000000 0.000000 0.000000 -3.141593
    86 0.000002 -0.000004 0.000000 -1.570797 0.087267 -3.054326
    87 0.000000 0.000006 -0.000001 -0.000001 0.000000 -3.141593
    88 -0.000002 0.000011 0.000000 -0.000001 0.000000 -3.141593
    89 0.000002 0.000006 0.000000 -0.000001 0.000000 -3.141593
    90 -0.000004 -0.000002 0.000006 -3.141592 0.000001 3.141593
    91 0.000000 -0.000008 -0.000007 -3.141592 0.000000 3.141593
    92 0.000001 0.000008 0.000002 -3.141592 0.000000 3.141593
    93 -0.000006 0.000002 0.000004 -3.141593 0.000000 3.141593
    94 0.000000 0.000002 -0.000002 -3.141592 0.000000 -3.141592
    95 0.000006 0.000004 0.000002 -3.141592 0.000000 -3.141593
    96 0.099915 0.199585 0.099915 -3.141592 0.000000 -3.141593
    97 0.099976 0.199585 0.099915 -3.141593 0.000000 3.141593
    98 0.099915 0.199707 0.099915 -3.141592 -0.000001 3.141593
    99 -0.000004 0.119934 0.099854 -3.141592 0.000000 -3.141593
    100 -0.000001 0.119812 0.099915 3.141593 0.000000 -3.141593
    101 -0.000004 0.119934 0.099915 -3.141593 0.000000 3.141593
    102 12.390625 -4.875000 -7.062500 0.000000 0.000000 0.000000
    103 0.000000 0.000000 0.000000 0.000000 0.000000 0.000000
    104 4.523438 0.000001 3.687500 0.000000 0.000000 0.000000
    105 4.156250 -0.000001 3.812500 -0.000035 -0.610853 -1.570564
    106 4.277344 -0.000002 0.849121 0.000000 0.000000 0.000000
    107 5.539063 0.000001 0.000000 0.000000 0.000000 0.000000
    108 3.455010 0.000004 2.018000 0.000010 0.000000 0.000007
    109 -2.088972 -3.614023 0.605963 0.000010 0.000000 0.000007
    110 -1.971998 -0.000010 -0.796001 0.000011 -0.204731 0.000006
    111 -1.971998 -0.000010 -0.796001 0.000011 -0.204731 0.000006
    112 -5.858999 0.072452 2.682749 0.000000 0.000000 0.000000
    113 12.507813 0.000000 3.259766 0.000000 0.000000 0.000000
    114 10.230598 0.000000 4.378193 0.000000 0.000000 0.000000
  time 11
    0 0.000000 3.000000 -21.796875 0.000000 0.000000 -1.570796
    1 0.000000 0.000000 0.000000 0.000000 0.000000 0.000000
    2 -0.423340 0.000000 22.046875 0.000000 0.000000 0.000000
    3 4.812500 8.140625 -11.429688 -1.109156 0.003324 -0.530024
    4 10.898438 -0.000813 0.000673 -0.000013 -0.000004 -0.680632
    5 -0.000001 -0.000005 0.000000 -0.000003 0.000000 0.000002
    6 9.960938 0.012856 0.015251 -1.522968 -0.107574 0.682718
    7 3.503906 -1.089844 0.078369 0.000001 0.000000 0.000003
    8 0.020782 -0.015282 -0.043976 -1.589422 0.477530 0.546503
    9 1.460938 -0.057770 -0.014816 -0.016267 -0.089392 0.963684
    10 0.992188 -0.047150 0.019470 0.071949 0.073845 1.024967
    11 0.000002 -0.000006 0.000003 0.000000 0.000000 -0.000001
    12 3.416016 0.110413 0.032776 -1.807618 0.878729 0.441553
    13 1.808594 -0.117188 -0.001736 -0.055838 0.099431 1.332636
    14 1.081055 0.063110 -0.007889 -0.026254 -0.015565 0.460915
    15 0.701172 1.208008 -0.282227 -1.516198 0.320808 -0.016881
    16 2.076172 0.080688 -0.007565 -0.991248 0.117268 0.955396
    17 1.110352 0.000891 0.006260 0.019424 -0.040889 1.034619
    18 0.729980 -0.016861 -0.013962 -0.073685 -0.094645 0.722339
    19 1.118164 0.650879 0.045502 -1.574862 0.167867 -0.030305
    20 2.056641 0.043030 0.074463 -0.838907 -0.185502 1.040259
    21 1.612305 -0.016388 -0.001643 0.007053 0.023361 1.269140
    22 0.885254 0.112976 -0.021454 -0.150703 0.012367 0.332895
    23 0.167603 -1.422852 0.160034 0.154847 0.576949 -0.280227
    24 2.291016 -0.004234 0.010689 -0.198620 -0.224374 0.072237
    25 1.268555 -0.004280 0.034454 0.412367 -0.121955 -0.126938
    26 7.464844 0.005966 0.011452 -1.309363 -0.000972 0.000438
    27 6.214844 0.003592 0.009087 -1.081193 -0.000866 0.000299
    28 4.980469 0.001880 0.006680 -0.852836 -0.000706 0.000161
    29 3.734375 0.000842 0.004517 -0.639168 -0.000535 0.000048
    30 2.486328 0.000257 0.002619 -0.426371 -0.000369 0.000008
    31 1.244141 0.000020 0.001092 -0.213132 -0.000184 -0.000017
    32 8.703125 0.008820 0.013535 -1.522819 -0.001051 0.000609
    33 0.000002 0.000004 0.000002 -0.000001 0.000000 0.000001
    34 -9.445313 -8.140625 -4.949219 1.519005 -0.628901 -3.033998
    35 -10.867188 0.000957 0.001241 0.000039 0.000016 -0.972886
    36 -0.000002 -0.000012 -0.000010 -0.000002 0.000000 -0.000001
    37 -9.953125 -0.003164 0.000979 0.153100 -0.096015 0.399476
    38 -3.503906 1.091797 -0.078552 0.000001 0.000000 -0.000004
    39 0.026337 0.182495 -0.005402 -1.539843 0.222677 -0.138864
    40 -1.482422 -0.087158 0.003698 -0.012877 -0.011821 0.171887
    41 -1.033203 -0.094177 0.003510 -0.021153 -0.000564 0.194641
    42 0.000011 -0.000005 0.000005 0.000001 0.000000 0.000002
    43 -3.498047 -0.036774 0.048859 -2.365275 1.199962 -0.630057
    44 -1.804688 0.036499 -0.002831 0.005383 0.017449 0.943885
    45 -1.070313 0.061249 -0.002096 0.002047 0.009313 0.927496
    46 -0.622559 -1.148438 0.271484 0.510053 -0.369450 -3.081464
    47 2.306641 -0.067810 -0.058716 -1.434441 0.675904 -3.037421
    48 -1.117188 0.005547 -0.000216 0.010469 0.060959 0.791711
    49 -0.758301 0.045441 -0.004086 0.023202 0.013867 1.033491
    50 -1.101563 -0.643555 -0.053040 0.424522 -0.214014 -3.080632
    51 2.091797 -0.022446 0.046967 -1.472431 0.986728 -2.927368
    52 -1.645508 0.005753 0.000346 -0.001712 0.006806 0.868927
    53 -0.881836 0.044647 -0.000978 -0.003279 0.007543 0.949144
    54 -0.308350 1.352539 -0.099060 0.594761 0.903914 -0.508232
    55 -2.326172 -0.003761 0.001081 -0.091007 0.054906 0.391017
    56 -1.157227 0.015038 -0.002480 0.234413 0.178981 0.761949
    57 -7.464844 -0.000757 0.000896 0.131714 0.000079 0.000022
    58 -6.218750 -0.000606 0.000629 0.108686 0.000078 0.000012
    59 -4.968750 -0.000442 0.000410 0.085714 0.000050 0.000002
    60 -3.734375 -0.000318 0.000248 0.064273 0.000048 0.000002
    61 -2.486328 -0.000193 0.000126 0.042879 0.000023 0.000000
    62 -1.244141 -0.000092 0.000043 0.021449 0.000006 -0.000002
    63 -8.710938 -0.000937 0.001185 0.153102 0.000114 0.000016
    64 0.000002 0.000000 0.000000 -0.000001 0.000000 0.000002
    65 0.000000 3.000000 5.000000 0.000000 0.000000 -3.141592
    66 0.000001 0.399658 0.000002 0.000000 0.000000 0.000000
    67 -0.000001 -0.000002 0.000001 0.000000 0.000000 0.000001
    68 0.000006 0.000001 0.000001 1.221730 -0.087267 0.174533
    69 0.000000 -0.000004 -0.000001 0.000000 0.000000 0.000001
    70 0.000002 -0.000006 0.000000 0.000001 0.000000 0.000000
    71 -0.000008 0.000011 0.000000 0.000001 0.000000 0.000001
    72 0.000008 0.000003 0.000000 3.141592 -0.000001 -0.000001
    73 0.000004 0.000000 -0.000002 3.141591 0.000000 -0.000001
    74 -0.000004 -0.000006 -0.000008 3.141592 0.000000 0.000000
    75 0.000004 -0.000004 0.000002 3.141592 -0.000001 0.000000
    76 -0.000002 0.000002 0.000003 3.141592 0.000000 0.000000
    77 -0.000004 0.000006 0.000000 3.141592 0.000000 0.000000
    78 -0.000004 -0.099976 -0.099915 -3.141593 0.000000 -0.000001
    79 -0.099915 -0.099915 -0.099792 3.141592 0.000000 0.000000
    80 -0.099915 -0.099976 -0.099854 3.141593 0.000000 0.000000
    81 -0.099915 -0.119873 -0.099915 3.141593 -0.000001 0.000000
    82 -0.099915 -0.119934 -0.099670 3.141593 0.000000 0.000000
    83 -0.099915 -0.119873 -0.099976 3.141592 0.000000 0.000000
    84 0.000000 0.000000 0.000000 0.000000 0.000000 -3.141593
    85 0.000001 0.000001 0.000000 0.000000 0.000000 -3.141593
    86 0.000002 -0.000004 0.000000 -1.570797 0.087267 -3.054326
    87 0.000000 0.000006 -0.000001 -0.000001 0.000000 -3.141593
    88 -0.000002 0.000011 0.000000 -0.000001 0.000000 -3.141593
    89 0.000002 0.000006 0.000000 -0.000001 0.000000 -3.141593
    90 -0.000004 -0.000002 0.000006 -3.141592 0.000001 3.141593
    91 0.000000 -0.000008 -0.000007 -3.141592 0.000000 3.141593
    92 0.000001 0.000008 0.000002 -3.141592 0.000000 3.141593
    93 -0.000006 0.000002 0.000004 -3.141593 0.000000 3.141593
    94 0.000000 0.000002 -0.000002 -3.141592 0.000000 -3.141592
    95 0.000006 0.000004 0.000002 -3.141592 0.000000 -3.141593
    96 0.099915 0.199585 0.099915 -3.141592 0.000000 -3.141593
    97 0.099976 0.199585 0.099915 -3.141593 0.000000 3.141593
    98 0.099915 0.199707 0.099915 -3.141592 -0.000001 3.141593
    99 -0.000004 0.119934 0.099854 -3.141592 0.000000 -3.141593
    100 -0.000001 0.119812 0.099915 3.141593 0.000000 -3.141593
    101 -0.000004 0.119934 0.099915 -3.141593 0.000000 3.141593
    102 12.390625 -4.875000 -7.062500 0.000000 0.000000 0.000000
    103 0.000000 0.000000 0.000000 0.000000 0.000000 0.000000
    104 4.523438 0.000001 3.687500 0.000000 0.000000 0.000000
    105 4.156250 -0.000001 3.812500 -0.000035 -0.610853 -1.570564
    106 4.277344 -0.000002 0.849121 0.000000 0.000000 0.000000
    107 5.539063 0.000001 0.000000 0.000000 0.000000 0.000000
    108 3.455010 0.000004 2.018000 0.000010 0.000000 0.000007
    109 -2.088972 -3.614023 0.605963 0.000010 0.000000 0.000007
    110 -1.971998 -0.000010 -0.796001 0.000011 -0.204731 0.000006
    111 -1.971998 -0.000010 -0.796001 0.000011 -0.204731 0.000006
    112 -5.858999 0.072452 2.682749 0.000000 0.000000 0.000000
    113 12.507813 0.000000 3.259766 0.000000 0.000000 0.000000
    114 10.230598 0.000000 4.378193 0.000000 0.000000 0.000000
  time 12
    0 0.000000 3.000000 -21.796875 0.000000 0.000000 -1.570796
    1 0.000000 0.000000 0.000000 0.000000 0.000000 0.000000
    2 -0.423340 0.000000 22.046875 0.000000 0.000000 0.000000
    3 4.812500 8.140625 -11.429688 -1.109156 0.003324 -0.530024
    4 10.898438 -0.000813 0.000673 -0.000013 -0.000004 -0.680632
    5 -0.000001 -0.000005 0.000000 -0.000003 0.000000 0.000002
    6 9.960938 0.012856 0.015251 -1.522968 -0.107574 0.682718
    7 3.503906 -1.089844 0.078369 0.000001 0.000000 0.000003
    8 0.020782 -0.015282 -0.043976 -1.589422 0.477530 0.546503
    9 1.460938 -0.057770 -0.014816 -0.016267 -0.089392 0.963684
    10 0.992188 -0.047150 0.019470 0.071949 0.073845 1.024967
    11 0.000002 -0.000006 0.000003 0.000000 0.000000 -0.000001
    12 3.416016 0.110413 0.032776 -1.807618 0.878729 0.441553
    13 1.808594 -0.117188 -0.001736 -0.055838 0.099431 1.332636
    14 1.081055 0.063110 -0.007889 -0.026254 -0.015565 0.460915
    15 0.701172 1.208008 -0.282227 -1.516198 0.320808 -0.016881
    16 2.076172 0.080688 -0.007565 -0.991248 0.117268 0.955396
    17 1.110352 0.000891 0.006260 0.019424 -0.040889 1.034619
    18 0.729980 -0.016861 -0.013962 -0.073685 -0.094645 0.722339
    19 1.118164 0.650879 0.045502 -1.574862 0.167867 -0.030305
    20 2.056641 0.043030 0.074463 -0.838907 -0.185502 1.040259
    21 1.612305 -0.016388 -0.001643 0.007053 0.023361 1.269140
    22 0.885254 0.112976 -0.021454 -0.150703 0.012367 0.332895
    23 0.167603 -1.422852 0.160034 0.154847 0.576949 -0.280227
    24 2.291016 -0.004234 0.010689 -0.198620 -0.224374 0.072237
    25 1.268555 -0.004280 0.034454 0.412367 -0.121955 -0.126938
    26 7.464844 0.005966 0.011452 -1.309363 -0.000972 0.000438
    27 6.214844 0.003592 0.009087 -1.081193 -0.000866 0.000299
    28 4.980469 0.001880 0.006680 -0.852836 -0.000706 0.000161
    29 3.734375 0.000842 0.004517 -0.639168 -0.000535 0.000048
    30 2.486328 0.000257 0.002619 -0.426371 -0.000369 0.000008
    31 1.244141 0.000020 0.001092 -0.213132 -0.000184 -0.000017
    32 8.703125 0.008820 0.013535 -1.522819 -0.001051 0.000609
    33 0.000002 0.000004 0.000002 -0.000001 0.000000 0.000001
    34 -9.445313 -8.140625 -4.949219 1.519005 -0.628901 -3.033998
    35 -10.867188 0.000957 0.001241 0.000039 0.000016 -0.972886
    36 -0.000002 -0.000012 -0.000010 -0.000002 0.000000 -0.000001
    37 -9.953125 -0.003164 0.000979 0.153100 -0.096015 0.399476
    38 -3.503906 1.091797 -0.078552 0.000001 0.000000 -0.000004
    39 0.026337 0.182495 -0.005402 -1.539843 0.222677 -0.138864
    40 -1.482422 -0.087158 0.003698 -0.012877 -0.011821 0.171887
    41 -1.033203 -0.094177 0.003510 -0.021153 -0.000564 0.194641
    42 0.000011 -0.000005 0.000005 0.000001 0.000000 0.000002
    43 -3.498047 -0.036774 0.048859 -2.365275 1.199962 -0.630057
    44 -1.804688 0.036499 -0.002831 0.005383 0.017449 0.943885
    45 -1.070313 0.061249 -0.002096 0.002047 0.009313 0.927496
    46 -0.622559 -1.148438 0.271484 0.510053 -0.369450 -3.081464
    47 2.306641 -0.067810 -0.058716 -1.434441 0.675904 -3.037421
    48 -1.117188 0.005547 -0.000216 0.010469 0.060959 0.791711
    49 -0.758301 0.045441 -0.004086 0.023202 0.013867 1.033491
    50 -1.101563 -0.643555 -0.053040 0.424522 -0.214014 -3.080632
    51 2.091797 -0.022446 0.046967 -1.472431 0.986728 -2.927368
    52 -1.645508 0.005753 0.000346 -0.001712 0.006806 0.868927
    53 -0.881836 0.044647 -0.000978 -0.003279 0.007543 0.949144
    54 -0.308350 1.352539 -0.099060 0.594761 0.903914 -0.508232
    55 -2.326172 -0.003761 0.001081 -0.091007 0.054906 0.391017
    56 -1.157227 0.015038 -0.002480 0.234413 0.178981 0.761949
    57 -7.464844 -0.000757 0.000896 0.131714 0.000079 0.000022
    58 -6.218750 -0.000606 0.000629 0.108686 0.000078 0.000012
    59 -4.968750 -0.000442 0.000410 0.085714 0.000050 0.000002
    60 -3.734375 -0.000318 0.000248 0.064273 0.000048 0.000002
    61 -2.486328 -0.000193 0.000126 0.042879 0.000023 0.000000
    62 -1.244141 -0.000092 0.000043 0.021449 0.000006 -0.000002
    63 -8.710938 -0.000937 0.001185 0.153102 0.000114 0.000016
    64 0.000002 0.000000 0.000000 -0.000001 0.000000 0.000002
    65 0.000000 3.000000 5.000000 0.000000 0.000000 -3.141592
    66 0.000001 0.399658 0.000002 0.000000 0.000000 0.000000
    67 -0.000001 -0.000002 0.000001 0.000000 0.000000 0.000001
    68 0.000006 0.000001 0.000001 1.221730 -0.087267 0.174533
    69 0.000000 -0.000004 -0.000001 0.000000 0.000000 0.000001
    70 0.000002 -0.000006 0.000000 0.000001 0.000000 0.000000
    71 -0.000008 0.000011 0.000000 0.000001 0.000000 0.000001
    72 0.000008 0.000003 0.000000 3.141592 -0.000001 -0.000001
    73 0.000004 0.000000 -0.000002 3.141591 0.000000 -0.000001
    74 -0.000004 -0.000006 -0.000008 3.141592 0.000000 0.000000
    75 0.000004 -0.000004 0.000002 3.141592 -0.000001 0.000000
    76 -0.000002 0.000002 0.000003 3.141592 0.000000 0.000000
    77 -0.000004 0.000006 0.000000 3.141592 0.000000 0.000000
    78 -0.000004 -0.099976 -0.099915 -3.141593 0.000000 -0.000001
    79 -0.099915 -0.099915 -0.099792 3.141592 0.000000 0.000000
    80 -0.099915 -0.099976 -0.099854 3.141593 0.000000 0.000000
    81 -0.099915 -0.119873 -0.099915 3.141593 -0.000001 0.000000
    82 -0.099915 -0.119934 -0.099670 3.141593 0.000000 0.000000
    83 -0.099915 -0.119873 -0.099976 3.141592 0.000000 0.000000
    84 0.000000 0.000000 0.000000 0.000000 0.000000 -3.141593
    85 0.000001 0.000001 0.000000 0.000000 0.000000 -3.141593
    86 0.000002 -0.000004 0.000000 -1.570797 0.087267 -3.054326
    87 0.000000 0.000006 -0.000001 -0.000001 0.000000 -3.141593
    88 -0.000002 0.000011 0.000000 -0.000001 0.000000 -3.141593
    89 0.000002 0.000006 0.000000 -0.000001 0.000000 -3.141593
    90 -0.000004 -0.000002 0.000006 -3.141592 0.000001 3.141593
    91 0.000000 -0.000008 -0.000007 -3.141592 0.000000 3.141593
    92 0.000001 0.000008 0.000002 -3.141592 0.000000 3.141593
    93 -0.000006 0.000002 0.000004 -3.141593 0.000000 3.141593
    94 0.000000 0.000002 -0.000002 -3.141592 0.000000 -3.141592
    95 0.000006 0.000004 0.000002 -3.141592 0.000000 -3.141593
    96 0.099915 0.199585 0.099915 -3.141592 0.000000 -3.141593
    97 0.099976 0.199585 0.099915 -3.141593 0.000000 3.141593
    98 0.099915 0.199707 0.099915 -3.141592 -0.000001 3.141593
    99 -0.000004 0.119934 0.099854 -3.141592 0.000000 -3.141593
    100 -0.000001 0.119812 0.099915 3.141593 0.000000 -3.141593
    101 -0.000004 0.119934 0.099915 -3.141593 0.000000 3.141593
    102 12.390625 -4.875000 -7.062500 0.000000 0.000000 0.000000
    103 0.000000 0.000000 0.000000 0.000000 0.000000 0.000000
    104 4.523438 0.000001 3.687500 0.000000 0.000000 0.000000
    105 4.156250 -0.000001 3.812500 -0.000035 -0.610853 -1.570564
    106 4.277344 -0.000002 0.849121 0.000000 0.000000 0.000000
    107 5.539063 0.000001 0.000000 0.000000 0.000000 0.000000
    108 3.455010 0.000004 2.018000 0.000010 0.000000 0.000007
    109 -2.088972 -3.614023 0.605963 0.000010 0.000000 0.000007
    110 -1.971998 -0.000010 -0.796001 0.000011 -0.204731 0.000006
    111 -1.971998 -0.000010 -0.796001 0.000011 -0.204731 0.000006
    112 -5.858999 0.072452 2.682749 0.000000 0.000000 0.000000
    113 12.507813 0.000000 3.259766 0.000000 0.000000 0.000000
    114 10.230598 0.000000 4.378193 0.000000 0.000000 0.000000
end
