version 1
nodes
  0 "tag_view" -1
  1 "tag_ads" 0
  2 "tag_torso" 1
  3 "tag_weapon_right" 2
  4 "tag_weapon" 3
  5 "j_foregrip" 4
  6 "j_shell" 4
  7 "j_shelldoor" 4
  8 "tag_flash" 4
  9 "tag_sight_on" 4
  10 "j_ejectport" 4
end
skeleton
  time 0
    0 0.000000 0.000000 -26.796875 0.000000 0.000000 -1.570796
    1 0.000000 0.000000 0.000000 0.000000 0.000000 0.000000
    2 -0.423340 0.000000 22.046875 0.000000 0.000000 0.000000
    3 0.000000 0.000000 0.000000 0.000000 0.000000 0.000000
    4 0.000000 0.000000 0.000000 0.000000 0.000000 0.000000
    5 7.954000 -0.000003 0.000001 0.000000 0.000000 0.000000
    6 -2.283000 0.000002 0.425000 0.000000 0.000000 0.000000
    7 -3.914001 0.000002 0.093999 0.000000 0.000000 0.000000
    8 12.515625 0.000000 3.259766 0.000000 0.000000 0.000000
    9 -0.000001 0.000000 2.000000 0.000000 0.000000 0.000000
    10 -2.282001 0.000001 1.827000 0.000000 0.000000 0.000000
  time 1
    0 0.000000 0.000000 -26.796875 0.000000 0.000000 -1.570796
    1 0.000000 0.000000 0.000000 0.000000 0.000000 0.000000
    2 -0.423340 0.000000 22.046875 0.000000 0.000000 0.000000
    3 0.000000 0.000000 0.000000 0.000000 0.000000 0.000000
    4 0.000000 0.000000 0.000000 0.000000 0.000000 0.000000
    5 7.954000 -0.000003 0.000001 0.000000 0.000000 0.000000
    6 -2.283000 0.000002 0.425000 0.000000 0.000000 0.000000
    7 -3.914001 0.000002 0.093999 0.000000 0.000000 0.000000
    8 12.515625 0.000000 3.259766 0.000000 0.000000 0.000000
    9 -0.000001 0.000000 2.000000 0.000000 0.000000 0.000000
    10 -2.282001 0.000001 1.827000 0.000000 0.000000 0.000000
  time 2
    0 0.000000 0.000000 -26.796875 0.000000 0.000000 -1.570796
    1 0.000000 0.000000 0.000000 0.000000 0.000000 0.000000
    2 -0.423340 0.000000 22.046875 0.000000 0.000000 0.000000
    3 0.000000 0.000000 0.000000 0.000000 0.000000 0.000000
    4 0.000000 0.000000 0.000000 0.000000 0.000000 0.000000
    5 7.954000 -0.000003 0.000001 0.000000 0.000000 0.000000
    6 -2.283000 0.000002 0.425000 0.000000 0.000000 0.000000
    7 -3.914001 0.000002 0.093999 0.000000 0.000000 0.000000
    8 12.515625 0.000000 3.259766 0.000000 0.000000 0.000000
    9 -0.000001 0.000000 2.000000 0.000000 0.000000 0.000000
    10 -2.282001 0.000001 1.827000 0.000000 0.000000 0.000000
  time 3
    0 0.000000 0.000000 -26.796875 0.000000 0.000000 -1.570796
    1 0.000000 0.000000 0.000000 0.000000 0.000000 0.000000
    2 -0.423340 0.000000 22.046875 0.000000 0.000000 0.000000
    3 0.000000 0.000000 0.000000 0.000000 0.000000 0.000000
    4 0.000000 0.000000 0.000000 0.000000 0.000000 0.000000
    5 7.954000 -0.000003 0.000001 0.000000 0.000000 0.000000
    6 -2.283000 0.000002 0.425000 0.000000 0.000000 0.000000
    7 -3.914001 0.000002 0.093999 0.000000 0.000000 0.000000
    8 12.515625 0.000000 3.259766 0.000000 0.000000 0.000000
    9 -0.000001 0.000000 2.000000 0.000000 0.000000 0.000000
    10 -2.282001 0.000001 1.827000 0.000000 0.000000 0.000000
  time 4
    0 0.000000 0.000000 -26.796875 0.000000 0.000000 -1.570796
    1 0.000000 0.000000 0.000000 0.000000 0.000000 0.000000
    2 -0.423340 0.000000 22.046875 0.000000 0.000000 0.000000
    3 0.000000 0.000000 0.000000 0.000000 0.000000 0.000000
    4 0.000000 0.000000 0.000000 0.000000 0.000000 0.000000
    5 7.954000 -0.000003 0.000001 0.000000 0.000000 0.000000
    6 -2.283000 0.000002 0.425000 0.000000 0.000000 0.000000
    7 -3.914001 0.000002 0.093999 0.000000 0.000000 0.000000
    8 12.515625 0.000000 3.259766 0.000000 0.000000 0.000000
    9 -0.000001 0.000000 2.000000 0.000000 0.000000 0.000000
    10 -2.282001 0.000001 1.827000 0.000000 0.000000 0.000000
  time 5
    0 0.000000 0.000000 -26.796875 0.000000 0.000000 -1.570796
    1 0.000000 0.000000 0.000000 0.000000 0.000000 0.000000
    2 -0.423340 0.000000 22.046875 0.000000 0.000000 0.000000
    3 0.000000 0.000000 0.000000 0.000000 0.000000 0.000000
    4 0.000000 0.000000 0.000000 0.000000 0.000000 0.000000
    5 7.954000 -0.000003 0.000001 0.000000 0.000000 0.000000
    6 -2.283000 0.000002 0.425000 0.000000 0.000000 0.000000
    7 -3.914001 0.000002 0.093999 0.000000 0.000000 0.000000
    8 12.515625 0.000000 3.259766 0.000000 0.000000 0.000000
    9 -0.000001 0.000000 2.000000 0.000000 0.000000 0.000000
    10 -2.282001 0.000001 1.827000 0.000000 0.000000 0.000000
  time 6
    0 0.000000 0.000000 -26.796875 0.000000 0.000000 -1.570796
    1 0.000000 0.000000 0.000000 0.000000 0.000000 0.000000
    2 -0.423340 0.000000 22.046875 0.000000 0.000000 0.000000
    3 0.000000 0.000000 0.000000 0.000000 0.000000 0.000000
    4 0.000000 0.000000 0.000000 0.000000 0.000000 0.000000
    5 7.954000 -0.000003 0.000001 0.000000 0.000000 0.000000
    6 -2.283000 0.000002 0.425000 0.000000 0.000000 0.000000
    7 -3.914001 0.000002 0.093999 0.000000 0.000000 0.000000
    8 12.515625 0.000000 3.259766 0.000000 0.000000 0.000000
    9 -0.000001 0.000000 2.000000 0.000000 0.000000 0.000000
    10 -2.282001 0.000001 1.827000 0.000000 0.000000 0.000000
end
