version 1
nodes
  0 "ValveBiped" -1
  1 "ValveBiped.Bip01_R_Hand" 0
  2 "ValveBiped.Weapon_bone" 1
end
skeleton
  time 0
    0  0.000000 0.000000 0.000000  1.570796 -0.000000 0.000000
    1  0.267086 -2.589521 10.171794  -0.161682 1.376037 -1.793767
    2  4.999997 -1.499977 -5.000005  0.000018 0.000004 0.000000
end
triangles
  phy
    0  -0.622623 6.805287 2.222225  -0.045841 -0.023619 0.998670  0.000000 0.000000 1 0 1.000000
    0  -1.549192 11.985579 2.810982  -0.182501 -0.976623 0.113584  0.000000 0.000000 1 0 1.000000
    0  -0.759111 6.560380 2.948361  -0.069273 -0.542585 0.837139  0.000000 0.000000 1 0 1.000000
  phy
    0  -1.549192 11.985579 2.810982  -0.182501 -0.976623 0.113584  0.000000 0.000000 1 0 1.000000
    0  -0.622623 6.805287 2.222225  -0.045841 -0.023619 0.998670  0.000000 0.000000 1 0 1.000000
    0  -1.469499 12.003483 1.015530  -0.262829 0.192354 0.945474  0.000000 0.000000 1 0 1.000000
  phy
    0  -0.622623 6.805287 2.222225  -0.045841 -0.023619 0.998670  0.000000 0.000000 1 0 1.000000
    0  -1.393808 5.465569 -5.405393  -0.050748 0.186575 0.981129  0.000000 0.000000 1 0 1.000000
    0  -1.469499 12.003483 1.015530  -0.262829 0.192354 0.945474  0.000000 0.000000 1 0 1.000000
  phy
    0  -0.622623 6.805287 2.222225  -0.045841 -0.023619 0.998670  0.000000 0.000000 1 0 1.000000
    0  -0.300726 -9.154462 4.706166  -0.044014 -0.506978 0.860834  0.000000 0.000000 1 0 1.000000
    0  0.248515 -7.062641 1.219834  -0.000508 -0.187088 0.982343  0.000000 0.000000 1 0 1.000000
  phy
    0  -0.300726 -9.154462 4.706166  -0.044014 -0.506978 0.860834  0.000000 0.000000 1 0 1.000000
    0  -0.622623 6.805287 2.222225  -0.045841 -0.023619 0.998670  0.000000 0.000000 1 0 1.000000
    0  -0.759111 6.560380 2.948361  -0.069273 -0.542585 0.837139  0.000000 0.000000 1 0 1.000000
  phy
    0  -0.622623 6.805287 2.222225  -0.045841 -0.023619 0.998670  0.000000 0.000000 1 0 1.000000
    0  0.240218 -7.478507 0.639055  -0.009283 0.086826 0.996180  0.000000 0.000000 1 0 1.000000
    0  -1.393808 5.465569 -5.405393  -0.050748 0.186575 0.981129  0.000000 0.000000 1 0 1.000000
  phy
    0  -0.622623 6.805287 2.222225  -0.045841 -0.023619 0.998670  0.000000 0.000000 1 0 1.000000
    0  0.248515 -7.062641 1.219834  -0.000508 -0.187088 0.982343  0.000000 0.000000 1 0 1.000000
    0  0.240218 -7.478507 0.639055  -0.009283 0.086826 0.996180  0.000000 0.000000 1 0 1.000000
  phy
    0  -1.549192 11.985579 2.810982  -0.182501 -0.976623 0.113584  0.000000 0.000000 1 0 1.000000
    0  -1.014867 -10.288487 4.886706  0.010960 -0.736236 -0.676636  0.000000 0.000000 1 0 1.000000
    0  -0.300726 -9.154462 4.706166  -0.044014 -0.506978 0.860834  0.000000 0.000000 1 0 1.000000
  phy
    0  -0.300726 -9.154462 4.706166  -0.044014 -0.506978 0.860834  0.000000 0.000000 1 0 1.000000
    0  -1.014867 -10.288487 4.886706  0.010960 -0.736236 -0.676636  0.000000 0.000000 1 0 1.000000
    0  -0.230173 -10.107670 4.580212  0.041098 -0.325052 0.944803  0.000000 0.000000 1 0 1.000000
  phy
    0  0.248515 -7.062641 1.219834  -0.000508 -0.187088 0.982343  0.000000 0.000000 1 0 1.000000
    0  -0.300726 -9.154462 4.706166  -0.044014 -0.506978 0.860834  0.000000 0.000000 1 0 1.000000
    0  -0.230173 -10.107670 4.580212  0.041098 -0.325052 0.944803  0.000000 0.000000 1 0 1.000000
  phy
    0  -0.300726 -9.154462 4.706166  -0.044014 -0.506978 0.860834  0.000000 0.000000 1 0 1.000000
    0  -0.759111 6.560380 2.948361  -0.069273 -0.542585 0.837139  0.000000 0.000000 1 0 1.000000
    0  -1.549192 11.985579 2.810982  -0.182501 -0.976623 0.113584  0.000000 0.000000 1 0 1.000000
  phy
    0  -1.549192 11.985579 2.810982  -0.182501 -0.976623 0.113584  0.000000 0.000000 1 0 1.000000
    0  -2.096046 11.981241 1.302830  -0.156045 0.074950 -0.984902  0.000000 0.000000 1 0 1.000000
    0  -1.981335 6.521537 2.993636  -0.051897 -0.398063 -0.915889  0.000000 0.000000 1 0 1.000000
  phy
    0  -2.096046 11.981241 1.302830  -0.156045 0.074950 -0.984902  0.000000 0.000000 1 0 1.000000
    0  -2.186373 6.755589 2.280154  -0.034314 0.031158 -0.998925  0.000000 0.000000 1 0 1.000000
    0  -1.981335 6.521537 2.993636  -0.051897 -0.398063 -0.915889  0.000000 0.000000 1 0 1.000000
  phy
    0  -1.981335 6.521537 2.993636  -0.051897 -0.398063 -0.915889  0.000000 0.000000 1 0 1.000000
    0  -2.186373 6.755589 2.280154  -0.034314 0.031158 -0.998925  0.000000 0.000000 1 0 1.000000
    0  -1.832453 -13.069304 2.657633  0.002147 -0.073330 -0.997305  0.000000 0.000000 1 0 1.000000
  phy
    0  -1.832453 -13.069304 2.657633  0.002147 -0.073330 -0.997305  0.000000 0.000000 1 0 1.000000
    0  -1.014867 -10.288487 4.886706  0.010960 -0.736236 -0.676636  0.000000 0.000000 1 0 1.000000
    0  -1.981335 6.521537 2.993636  -0.051897 -0.398063 -0.915889  0.000000 0.000000 1 0 1.000000
  phy
    0  -1.981335 6.521537 2.993636  -0.051897 -0.398063 -0.915889  0.000000 0.000000 1 0 1.000000
    0  -1.014867 -10.288487 4.886706  0.010960 -0.736236 -0.676636  0.000000 0.000000 1 0 1.000000
    0  -1.549192 11.985579 2.810982  -0.182501 -0.976623 0.113584  0.000000 0.000000 1 0 1.000000
  phy
    0  0.240218 -7.478507 0.639055  -0.009283 0.086826 0.996180  0.000000 0.000000 1 0 1.000000
    0  0.248515 -7.062641 1.219834  -0.000508 -0.187088 0.982343  0.000000 0.000000 1 0 1.000000
    0  0.394832 -19.211103 1.508656  0.083804 0.002916 0.996478  0.000000 0.000000 1 0 1.000000
  phy
    0  0.248515 -7.062641 1.219834  -0.000508 -0.187088 0.982343  0.000000 0.000000 1 0 1.000000
    0  -0.230173 -10.107670 4.580212  0.041098 -0.325052 0.944803  0.000000 0.000000 1 0 1.000000
    0  0.394832 -19.211103 1.508656  0.083804 0.002916 0.996478  0.000000 0.000000 1 0 1.000000
  phy
    0  -0.230173 -10.107670 4.580212  0.041098 -0.325052 0.944803  0.000000 0.000000 1 0 1.000000
    0  0.131747 -19.230896 2.815530  0.244848 -0.854327 0.458448  0.000000 0.000000 1 0 1.000000
    0  0.394832 -19.211103 1.508656  0.083804 0.002916 0.996478  0.000000 0.000000 1 0 1.000000
  phy
    0  0.131747 -19.230896 2.815530  0.244848 -0.854327 0.458448  0.000000 0.000000 1 0 1.000000
    0  -1.200076 -19.487400 2.519980  0.258688 -0.596732 -0.759600  0.000000 0.000000 1 0 1.000000
    0  0.394832 -19.211103 1.508656  0.083804 0.002916 0.996478  0.000000 0.000000 1 0 1.000000
  phy
    0  -0.230173 -10.107670 4.580212  0.041098 -0.325052 0.944803  0.000000 0.000000 1 0 1.000000
    0  -1.014867 -10.288487 4.886706  0.010960 -0.736236 -0.676636  0.000000 0.000000 1 0 1.000000
    0  0.131747 -19.230896 2.815530  0.244848 -0.854327 0.458448  0.000000 0.000000 1 0 1.000000
  phy
    0  0.131747 -19.230896 2.815530  0.244848 -0.854327 0.458448  0.000000 0.000000 1 0 1.000000
    0  -1.014867 -10.288487 4.886706  0.010960 -0.736236 -0.676636  0.000000 0.000000 1 0 1.000000
    0  -1.200076 -19.487400 2.519980  0.258688 -0.596732 -0.759600  0.000000 0.000000 1 0 1.000000
  phy
    0  -1.334791 -19.250740 -0.167200  0.370065 0.762996 -0.529990  0.000000 0.000000 1 0 1.000000
    0  -1.212446 -7.690008 -4.979244  0.387577 0.921824 0.004989  0.000000 0.000000 1 0 1.000000
    0  -0.001913 -19.208382 -0.216577  0.417642 0.693043 0.587594  0.000000 0.000000 1 0 1.000000
  phy
    0  -1.212446 -7.690008 -4.979244  0.387577 0.921824 0.004989  0.000000 0.000000 1 0 1.000000
    0  -1.334791 -19.250740 -0.167200  0.370065 0.762996 -0.529990  0.000000 0.000000 1 0 1.000000
    0  -1.797717 -7.074090 -5.152905  0.010837 0.202332 -0.979257  0.000000 0.000000 1 0 1.000000
  phy
    0  -0.001913 -19.208382 -0.216577  0.417642 0.693043 0.587594  0.000000 0.000000 1 0 1.000000
    0  -1.212446 -7.690008 -4.979244  0.387577 0.921824 0.004989  0.000000 0.000000 1 0 1.000000
    0  -0.681857 -7.038626 -5.194240  0.038091 0.242860 0.969313  0.000000 0.000000 1 0 1.000000
  phy
    0  -1.212446 -7.690008 -4.979244  0.387577 0.921824 0.004989  0.000000 0.000000 1 0 1.000000
    0  -1.797717 -7.074090 -5.152905  0.010837 0.202332 -0.979257  0.000000 0.000000 1 0 1.000000
    0  -0.681857 -7.038626 -5.194240  0.038091 0.242860 0.969313  0.000000 0.000000 1 0 1.000000
  phy
    0  -1.334791 -19.250740 -0.167200  0.370065 0.762996 -0.529990  0.000000 0.000000 1 0 1.000000
    0  -0.001913 -19.208382 -0.216577  0.417642 0.693043 0.587594  0.000000 0.000000 1 0 1.000000
    0  -1.395127 -19.482313 1.246393  0.111676 0.078257 -0.990658  0.000000 0.000000 1 0 1.000000
  phy
    0  -1.334791 -19.250740 -0.167200  0.370065 0.762996 -0.529990  0.000000 0.000000 1 0 1.000000
    0  -1.395127 -19.482313 1.246393  0.111676 0.078257 -0.990658  0.000000 0.000000 1 0 1.000000
    0  -1.797717 -7.074090 -5.152905  0.010837 0.202332 -0.979257  0.000000 0.000000 1 0 1.000000
  phy
    0  -1.832453 -13.069304 2.657633  0.002147 -0.073330 -0.997305  0.000000 0.000000 1 0 1.000000
    0  -2.186373 6.755589 2.280154  -0.034314 0.031158 -0.998925  0.000000 0.000000 1 0 1.000000
    0  -2.078785 -4.115890 1.716197  -0.021998 0.070029 -0.997302  0.000000 0.000000 1 0 1.000000
  phy
    0  -1.200076 -19.487400 2.519980  0.258688 -0.596732 -0.759600  0.000000 0.000000 1 0 1.000000
    0  -1.014867 -10.288487 4.886706  0.010960 -0.736236 -0.676636  0.000000 0.000000 1 0 1.000000
    0  -1.832453 -13.069304 2.657633  0.002147 -0.073330 -0.997305  0.000000 0.000000 1 0 1.000000
  phy
    0  -1.832453 -13.069304 2.657633  0.002147 -0.073330 -0.997305  0.000000 0.000000 1 0 1.000000
    0  -1.395127 -19.482313 1.246393  0.111676 0.078257 -0.990658  0.000000 0.000000 1 0 1.000000
    0  -1.200076 -19.487400 2.519980  0.258688 -0.596732 -0.759600  0.000000 0.000000 1 0 1.000000
  phy
    0  -1.832453 -13.069304 2.657633  0.002147 -0.073330 -0.997305  0.000000 0.000000 1 0 1.000000
    0  -2.078785 -4.115890 1.716197  -0.021998 0.070029 -0.997302  0.000000 0.000000 1 0 1.000000
    0  -1.797717 -7.074090 -5.152905  0.010837 0.202332 -0.979257  0.000000 0.000000 1 0 1.000000
  phy
    0  -1.797717 -7.074090 -5.152905  0.010837 0.202332 -0.979257  0.000000 0.000000 1 0 1.000000
    0  -1.395127 -19.482313 1.246393  0.111676 0.078257 -0.990658  0.000000 0.000000 1 0 1.000000
    0  -1.832453 -13.069304 2.657633  0.002147 -0.073330 -0.997305  0.000000 0.000000 1 0 1.000000
  phy
    0  -1.549192 11.985579 2.810982  -0.182501 -0.976623 0.113584  0.000000 0.000000 1 0 1.000000
    0  -1.469499 12.003483 1.015530  -0.262829 0.192354 0.945474  0.000000 0.000000 1 0 1.000000
    0  -2.096046 11.981241 1.302830  -0.156045 0.074950 -0.984902  0.000000 0.000000 1 0 1.000000
  phy
    0  -1.393808 5.465569 -5.405393  -0.050748 0.186575 0.981129  0.000000 0.000000 1 0 1.000000
    0  0.240218 -7.478507 0.639055  -0.009283 0.086826 0.996180  0.000000 0.000000 1 0 1.000000
    0  -0.681857 -7.038626 -5.194240  0.038091 0.242860 0.969313  0.000000 0.000000 1 0 1.000000
  phy
    0  -0.681857 -7.038626 -5.194240  0.038091 0.242860 0.969313  0.000000 0.000000 1 0 1.000000
    0  0.240218 -7.478507 0.639055  -0.009283 0.086826 0.996180  0.000000 0.000000 1 0 1.000000
    0  0.394832 -19.211103 1.508656  0.083804 0.002916 0.996478  0.000000 0.000000 1 0 1.000000
  phy
    0  -1.797717 -7.074090 -5.152905  0.010837 0.202332 -0.979257  0.000000 0.000000 1 0 1.000000
    0  -1.393808 5.465569 -5.405393  -0.050748 0.186575 0.981129  0.000000 0.000000 1 0 1.000000
    0  -0.681857 -7.038626 -5.194240  0.038091 0.242860 0.969313  0.000000 0.000000 1 0 1.000000
  phy
    0  -1.393808 5.465569 -5.405393  -0.050748 0.186575 0.981129  0.000000 0.000000 1 0 1.000000
    0  -1.797717 -7.074090 -5.152905  0.010837 0.202332 -0.979257  0.000000 0.000000 1 0 1.000000
    0  -1.897684 5.449562 -5.386727  -0.064558 0.145379 -0.987268  0.000000 0.000000 1 0 1.000000
  phy
    0  -1.393808 5.465569 -5.405393  -0.050748 0.186575 0.981129  0.000000 0.000000 1 0 1.000000
    0  -1.897684 5.449562 -5.386727  -0.064558 0.145379 -0.987268  0.000000 0.000000 1 0 1.000000
    0  -1.469499 12.003483 1.015530  -0.262829 0.192354 0.945474  0.000000 0.000000 1 0 1.000000
  phy
    0  -0.001913 -19.208382 -0.216577  0.417642 0.693043 0.587594  0.000000 0.000000 1 0 1.000000
    0  -0.681857 -7.038626 -5.194240  0.038091 0.242860 0.969313  0.000000 0.000000 1 0 1.000000
    0  0.394832 -19.211103 1.508656  0.083804 0.002916 0.996478  0.000000 0.000000 1 0 1.000000
  phy
    0  -0.001913 -19.208382 -0.216577  0.417642 0.693043 0.587594  0.000000 0.000000 1 0 1.000000
    0  0.394832 -19.211103 1.508656  0.083804 0.002916 0.996478  0.000000 0.000000 1 0 1.000000
    0  -1.395127 -19.482313 1.246393  0.111676 0.078257 -0.990658  0.000000 0.000000 1 0 1.000000
  phy
    0  -2.078785 -4.115890 1.716197  -0.021998 0.070029 -0.997302  0.000000 0.000000 1 0 1.000000
    0  -1.897684 5.449562 -5.386727  -0.064558 0.145379 -0.987268  0.000000 0.000000 1 0 1.000000
    0  -1.797717 -7.074090 -5.152905  0.010837 0.202332 -0.979257  0.000000 0.000000 1 0 1.000000
  phy
    0  -2.096046 11.981241 1.302830  -0.156045 0.074950 -0.984902  0.000000 0.000000 1 0 1.000000
    0  -1.897684 5.449562 -5.386727  -0.064558 0.145379 -0.987268  0.000000 0.000000 1 0 1.000000
    0  -2.186373 6.755589 2.280154  -0.034314 0.031158 -0.998925  0.000000 0.000000 1 0 1.000000
  phy
    0  -1.897684 5.449562 -5.386727  -0.064558 0.145379 -0.987268  0.000000 0.000000 1 0 1.000000
    0  -2.096046 11.981241 1.302830  -0.156045 0.074950 -0.984902  0.000000 0.000000 1 0 1.000000
    0  -1.469499 12.003483 1.015530  -0.262829 0.192354 0.945474  0.000000 0.000000 1 0 1.000000
  phy
    0  -2.186373 6.755589 2.280154  -0.034314 0.031158 -0.998925  0.000000 0.000000 1 0 1.000000
    0  -1.897684 5.449562 -5.386727  -0.064558 0.145379 -0.987268  0.000000 0.000000 1 0 1.000000
    0  -2.078785 -4.115890 1.716197  -0.021998 0.070029 -0.997302  0.000000 0.000000 1 0 1.000000
  phy
    0  0.394832 -19.211103 1.508656  0.083804 0.002916 0.996478  0.000000 0.000000 1 0 1.000000
    0  -1.200076 -19.487400 2.519980  0.258688 -0.596732 -0.759600  0.000000 0.000000 1 0 1.000000
    0  -1.395127 -19.482313 1.246393  0.111676 0.078257 -0.990658  0.000000 0.000000 1 0 1.000000
end
